<?xml version="1.0" encoding="utf-8"?>
<svg xmlns="http://www.w3.org/2000/svg" xmlns:xlink="http://www.w3.org/1999/xlink" width="600" height="400" viewBox="0 0 2400 1600">
<defs>
  <clipPath id="clip080">
    <rect x="0" y="0" width="2400" height="1600"/>
  </clipPath>
</defs>
<path clip-path="url(#clip080)" d="M0 1600 L2400 1600 L2400 0 L0 0  Z" fill="#ffffff" fill-rule="evenodd" fill-opacity="1"/>
<defs>
  <clipPath id="clip081">
    <rect x="480" y="0" width="1681" height="1600"/>
  </clipPath>
</defs>
<path clip-path="url(#clip080)" d="M205.121 1423.18 L2352.76 1423.18 L2352.76 47.2441 L205.121 47.2441  Z" fill="#ffffff" fill-rule="evenodd" fill-opacity="1"/>
<defs>
  <clipPath id="clip082">
    <rect x="205" y="47" width="2149" height="1377"/>
  </clipPath>
</defs>
<polyline clip-path="url(#clip082)" style="stroke:#000000; stroke-linecap:round; stroke-linejoin:round; stroke-width:2; stroke-opacity:0.1; fill:none" points="557.914,1423.18 557.914,47.2441 "/>
<polyline clip-path="url(#clip082)" style="stroke:#000000; stroke-linecap:round; stroke-linejoin:round; stroke-width:2; stroke-opacity:0.1; fill:none" points="1112.02,1423.18 1112.02,47.2441 "/>
<polyline clip-path="url(#clip082)" style="stroke:#000000; stroke-linecap:round; stroke-linejoin:round; stroke-width:2; stroke-opacity:0.1; fill:none" points="1666.12,1423.18 1666.12,47.2441 "/>
<polyline clip-path="url(#clip082)" style="stroke:#000000; stroke-linecap:round; stroke-linejoin:round; stroke-width:2; stroke-opacity:0.1; fill:none" points="2220.23,1423.18 2220.23,47.2441 "/>
<polyline clip-path="url(#clip080)" style="stroke:#000000; stroke-linecap:round; stroke-linejoin:round; stroke-width:4; stroke-opacity:1; fill:none" points="205.121,1423.18 2352.76,1423.18 "/>
<polyline clip-path="url(#clip080)" style="stroke:#000000; stroke-linecap:round; stroke-linejoin:round; stroke-width:4; stroke-opacity:1; fill:none" points="557.914,1423.18 557.914,1404.28 "/>
<polyline clip-path="url(#clip080)" style="stroke:#000000; stroke-linecap:round; stroke-linejoin:round; stroke-width:4; stroke-opacity:1; fill:none" points="1112.02,1423.18 1112.02,1404.28 "/>
<polyline clip-path="url(#clip080)" style="stroke:#000000; stroke-linecap:round; stroke-linejoin:round; stroke-width:4; stroke-opacity:1; fill:none" points="1666.12,1423.18 1666.12,1404.28 "/>
<polyline clip-path="url(#clip080)" style="stroke:#000000; stroke-linecap:round; stroke-linejoin:round; stroke-width:4; stroke-opacity:1; fill:none" points="2220.23,1423.18 2220.23,1404.28 "/>
<path clip-path="url(#clip080)" d="M532.601 1481.64 L540.24 1481.64 L540.24 1455.28 L531.93 1456.95 L531.93 1452.69 L540.194 1451.02 L544.87 1451.02 L544.87 1481.64 L552.508 1481.64 L552.508 1485.58 L532.601 1485.58 L532.601 1481.64 Z" fill="#000000" fill-rule="evenodd" fill-opacity="1" /><path clip-path="url(#clip080)" d="M571.953 1454.1 Q568.342 1454.1 566.513 1457.66 Q564.707 1461.2 564.707 1468.33 Q564.707 1475.44 566.513 1479.01 Q568.342 1482.55 571.953 1482.55 Q575.587 1482.55 577.393 1479.01 Q579.221 1475.44 579.221 1468.33 Q579.221 1461.2 577.393 1457.66 Q575.587 1454.1 571.953 1454.1 M571.953 1450.39 Q577.763 1450.39 580.818 1455 Q583.897 1459.58 583.897 1468.33 Q583.897 1477.06 580.818 1481.67 Q577.763 1486.25 571.953 1486.25 Q566.143 1486.25 563.064 1481.67 Q560.008 1477.06 560.008 1468.33 Q560.008 1459.58 563.064 1455 Q566.143 1450.39 571.953 1450.39 Z" fill="#000000" fill-rule="evenodd" fill-opacity="1" /><path clip-path="url(#clip080)" d="M1090.79 1481.64 L1107.11 1481.64 L1107.11 1485.58 L1085.17 1485.58 L1085.17 1481.64 Q1087.83 1478.89 1092.41 1474.26 Q1097.02 1469.61 1098.2 1468.27 Q1100.44 1465.74 1101.32 1464.01 Q1102.23 1462.25 1102.23 1460.56 Q1102.23 1457.8 1100.28 1456.07 Q1098.36 1454.33 1095.26 1454.33 Q1093.06 1454.33 1090.61 1455.09 Q1088.18 1455.86 1085.4 1457.41 L1085.4 1452.69 Q1088.22 1451.55 1090.68 1450.97 Q1093.13 1450.39 1095.17 1450.39 Q1100.54 1450.39 1103.73 1453.08 Q1106.93 1455.77 1106.93 1460.26 Q1106.93 1462.39 1106.12 1464.31 Q1105.33 1466.2 1103.22 1468.8 Q1102.64 1469.47 1099.54 1472.69 Q1096.44 1475.88 1090.79 1481.64 Z" fill="#000000" fill-rule="evenodd" fill-opacity="1" /><path clip-path="url(#clip080)" d="M1126.93 1454.1 Q1123.31 1454.1 1121.49 1457.66 Q1119.68 1461.2 1119.68 1468.33 Q1119.68 1475.44 1121.49 1479.01 Q1123.31 1482.55 1126.93 1482.55 Q1130.56 1482.55 1132.37 1479.01 Q1134.19 1475.44 1134.19 1468.33 Q1134.19 1461.2 1132.37 1457.66 Q1130.56 1454.1 1126.93 1454.1 M1126.93 1450.39 Q1132.74 1450.39 1135.79 1455 Q1138.87 1459.58 1138.87 1468.33 Q1138.87 1477.06 1135.79 1481.67 Q1132.74 1486.25 1126.93 1486.25 Q1121.12 1486.25 1118.04 1481.67 Q1114.98 1477.06 1114.98 1468.33 Q1114.98 1459.58 1118.04 1455 Q1121.12 1450.39 1126.93 1450.39 Z" fill="#000000" fill-rule="evenodd" fill-opacity="1" /><path clip-path="url(#clip080)" d="M1654.97 1466.95 Q1658.32 1467.66 1660.2 1469.93 Q1662.09 1472.2 1662.09 1475.53 Q1662.09 1480.65 1658.58 1483.45 Q1655.06 1486.25 1648.58 1486.25 Q1646.4 1486.25 1644.09 1485.81 Q1641.79 1485.39 1639.34 1484.54 L1639.34 1480.02 Q1641.28 1481.16 1643.6 1481.74 Q1645.91 1482.32 1648.44 1482.32 Q1652.84 1482.32 1655.13 1480.58 Q1657.44 1478.84 1657.44 1475.53 Q1657.44 1472.48 1655.29 1470.77 Q1653.16 1469.03 1649.34 1469.03 L1645.31 1469.03 L1645.31 1465.19 L1649.53 1465.19 Q1652.97 1465.19 1654.8 1463.82 Q1656.63 1462.43 1656.63 1459.84 Q1656.63 1457.18 1654.73 1455.77 Q1652.86 1454.33 1649.34 1454.33 Q1647.42 1454.33 1645.22 1454.75 Q1643.02 1455.16 1640.38 1456.04 L1640.38 1451.88 Q1643.04 1451.14 1645.36 1450.77 Q1647.7 1450.39 1649.76 1450.39 Q1655.08 1450.39 1658.18 1452.83 Q1661.28 1455.23 1661.28 1459.35 Q1661.28 1462.22 1659.64 1464.21 Q1658 1466.18 1654.97 1466.95 Z" fill="#000000" fill-rule="evenodd" fill-opacity="1" /><path clip-path="url(#clip080)" d="M1680.96 1454.1 Q1677.35 1454.1 1675.52 1457.66 Q1673.71 1461.2 1673.71 1468.33 Q1673.71 1475.44 1675.52 1479.01 Q1677.35 1482.55 1680.96 1482.55 Q1684.59 1482.55 1686.4 1479.01 Q1688.23 1475.44 1688.23 1468.33 Q1688.23 1461.2 1686.4 1457.66 Q1684.59 1454.1 1680.96 1454.1 M1680.96 1450.39 Q1686.77 1450.39 1689.83 1455 Q1692.9 1459.58 1692.9 1468.33 Q1692.9 1477.06 1689.83 1481.67 Q1686.77 1486.25 1680.96 1486.25 Q1675.15 1486.25 1672.07 1481.67 Q1669.02 1477.06 1669.02 1468.33 Q1669.02 1459.58 1672.07 1455 Q1675.15 1450.39 1680.96 1450.39 Z" fill="#000000" fill-rule="evenodd" fill-opacity="1" /><path clip-path="url(#clip080)" d="M2208.4 1455.09 L2196.59 1473.54 L2208.4 1473.54 L2208.4 1455.09 M2207.17 1451.02 L2213.05 1451.02 L2213.05 1473.54 L2217.98 1473.54 L2217.98 1477.43 L2213.05 1477.43 L2213.05 1485.58 L2208.4 1485.58 L2208.4 1477.43 L2192.8 1477.43 L2192.8 1472.92 L2207.17 1451.02 Z" fill="#000000" fill-rule="evenodd" fill-opacity="1" /><path clip-path="url(#clip080)" d="M2235.71 1454.1 Q2232.1 1454.1 2230.27 1457.66 Q2228.47 1461.2 2228.47 1468.33 Q2228.47 1475.44 2230.27 1479.01 Q2232.1 1482.55 2235.71 1482.55 Q2239.35 1482.55 2241.15 1479.01 Q2242.98 1475.44 2242.98 1468.33 Q2242.98 1461.2 2241.15 1457.66 Q2239.35 1454.1 2235.71 1454.1 M2235.71 1450.39 Q2241.52 1450.39 2244.58 1455 Q2247.66 1459.58 2247.66 1468.33 Q2247.66 1477.06 2244.58 1481.67 Q2241.52 1486.25 2235.71 1486.25 Q2229.9 1486.25 2226.82 1481.67 Q2223.77 1477.06 2223.77 1468.33 Q2223.77 1459.58 2226.82 1455 Q2229.9 1450.39 2235.71 1450.39 Z" fill="#000000" fill-rule="evenodd" fill-opacity="1" /><path clip-path="url(#clip080)" d="M1089.03 1568.04 L1089.03 1548.56 L1075.76 1548.56 Q1069.84 1548.56 1066.31 1544.87 Q1062.77 1541.15 1062.77 1533.57 L1062.77 1520.52 L1069.17 1520.52 L1069.17 1533.06 Q1069.17 1538.13 1071.15 1540.64 Q1073.12 1543.15 1077.07 1543.15 L1089.03 1543.15 L1089.03 1520.52 L1095.49 1520.52 L1095.49 1568.04 L1089.03 1568.04 Z" fill="#000000" fill-rule="evenodd" fill-opacity="1" /><path clip-path="url(#clip080)" d="M1138.34 1532.4 L1138.34 1568.04 L1132.51 1568.04 L1132.51 1539.43 L1115.32 1568.04 L1107.81 1568.04 L1107.81 1532.4 L1113.64 1532.4 L1113.64 1560.95 L1130.79 1532.4 L1138.34 1532.4 Z" fill="#000000" fill-rule="evenodd" fill-opacity="1" /><path clip-path="url(#clip080)" d="M1176.05 1533.76 L1176.05 1539.24 Q1173.57 1537.87 1171.06 1537.2 Q1168.57 1536.5 1166.03 1536.5 Q1160.33 1536.5 1157.18 1540.13 Q1154.03 1543.73 1154.03 1550.25 Q1154.03 1556.78 1157.18 1560.4 Q1160.33 1564 1166.03 1564 Q1168.57 1564 1171.06 1563.33 Q1173.57 1562.63 1176.05 1561.26 L1176.05 1566.68 Q1173.6 1567.82 1170.96 1568.39 Q1168.35 1568.97 1165.39 1568.97 Q1157.34 1568.97 1152.6 1563.91 Q1147.85 1558.85 1147.85 1550.25 Q1147.85 1541.53 1152.63 1536.53 Q1157.43 1531.54 1165.77 1531.54 Q1168.48 1531.54 1171.06 1532.11 Q1173.63 1532.65 1176.05 1533.76 Z" fill="#000000" fill-rule="evenodd" fill-opacity="1" /><path clip-path="url(#clip080)" d="M1182.51 1568.04 L1182.51 1563.17 Q1188.31 1562.28 1190.09 1558.27 Q1192.25 1552.64 1192.25 1538.22 L1192.25 1532.4 L1216.35 1532.4 L1216.35 1568.04 L1210.49 1568.04 L1210.49 1537.07 L1198.11 1537.07 L1198.11 1540.61 Q1198.11 1554.36 1195.31 1560.53 Q1192.32 1567.12 1182.51 1568.04 Z" fill="#000000" fill-rule="evenodd" fill-opacity="1" /><path clip-path="url(#clip080)" d="M1241.71 1536.5 Q1237 1536.5 1234.27 1540.19 Q1231.53 1543.85 1231.53 1550.25 Q1231.53 1556.65 1234.24 1560.34 Q1236.97 1564 1241.71 1564 Q1246.39 1564 1249.13 1560.31 Q1251.87 1556.62 1251.87 1550.25 Q1251.87 1543.92 1249.13 1540.23 Q1246.39 1536.5 1241.71 1536.5 M1241.71 1531.54 Q1249.35 1531.54 1253.71 1536.5 Q1258.07 1541.47 1258.07 1550.25 Q1258.07 1559 1253.71 1564 Q1249.35 1568.97 1241.71 1568.97 Q1234.04 1568.97 1229.68 1564 Q1225.36 1559 1225.36 1550.25 Q1225.36 1541.47 1229.68 1536.5 Q1234.04 1531.54 1241.71 1531.54 Z" fill="#000000" fill-rule="evenodd" fill-opacity="1" /><path clip-path="url(#clip080)" d="M1308.81 1532.4 L1314.63 1532.4 L1314.63 1549.14 L1330.2 1532.4 L1337.01 1532.4 L1324.21 1546.11 L1338.86 1568.04 L1332.59 1568.04 L1320.59 1550.03 L1314.63 1556.43 L1314.63 1568.04 L1308.81 1568.04 L1308.81 1556.43 L1302.86 1550.03 L1290.86 1568.04 L1284.59 1568.04 L1299.23 1546.11 L1286.43 1532.4 L1293.25 1532.4 L1308.81 1549.14 L1308.81 1532.4 Z" fill="#000000" fill-rule="evenodd" fill-opacity="1" /><path clip-path="url(#clip080)" d="M1377.72 1548.76 L1377.72 1551.62 L1350.79 1551.62 Q1351.17 1557.67 1354.42 1560.85 Q1357.7 1564 1363.52 1564 Q1366.9 1564 1370.05 1563.17 Q1373.23 1562.35 1376.35 1560.69 L1376.35 1566.23 Q1373.2 1567.57 1369.89 1568.27 Q1366.58 1568.97 1363.17 1568.97 Q1354.64 1568.97 1349.65 1564 Q1344.68 1559.04 1344.68 1550.57 Q1344.68 1541.82 1349.39 1536.69 Q1354.13 1531.54 1362.15 1531.54 Q1369.35 1531.54 1373.52 1536.18 Q1377.72 1540.8 1377.72 1548.76 M1371.86 1547.04 Q1371.8 1542.23 1369.16 1539.37 Q1366.55 1536.5 1362.22 1536.5 Q1357.32 1536.5 1354.36 1539.27 Q1351.43 1542.04 1350.98 1547.07 L1371.86 1547.04 Z" fill="#000000" fill-rule="evenodd" fill-opacity="1" /><path clip-path="url(#clip080)" d="M1393 1562.7 L1393 1581.6 L1387.11 1581.6 L1387.11 1532.4 L1393 1532.4 L1393 1537.81 Q1394.84 1534.62 1397.64 1533.1 Q1400.48 1531.54 1404.39 1531.54 Q1410.88 1531.54 1414.93 1536.69 Q1419 1541.85 1419 1550.25 Q1419 1558.65 1414.93 1563.81 Q1410.88 1568.97 1404.39 1568.97 Q1400.48 1568.97 1397.64 1567.44 Q1394.84 1565.88 1393 1562.7 M1412.92 1550.25 Q1412.92 1543.79 1410.25 1540.13 Q1407.61 1536.44 1402.96 1536.44 Q1398.31 1536.44 1395.64 1540.13 Q1393 1543.79 1393 1550.25 Q1393 1556.71 1395.64 1560.4 Q1398.31 1564.07 1402.96 1564.07 Q1407.61 1564.07 1410.25 1560.4 Q1412.92 1556.71 1412.92 1550.25 Z" fill="#000000" fill-rule="evenodd" fill-opacity="1" /><path clip-path="url(#clip080)" d="M1424.47 1532.4 L1458.63 1532.4 L1458.63 1537.07 L1444.43 1537.07 L1444.43 1568.04 L1438.67 1568.04 L1438.67 1537.07 L1424.47 1537.07 L1424.47 1532.4 Z" fill="#000000" fill-rule="evenodd" fill-opacity="1" /><path clip-path="url(#clip080)" d="M1472.31 1551.62 L1472.31 1563.37 L1480.65 1563.37 Q1484.66 1563.37 1486.76 1561.87 Q1488.86 1560.34 1488.86 1557.48 Q1488.86 1554.61 1486.76 1553.12 Q1484.66 1551.62 1480.65 1551.62 L1472.31 1551.62 M1472.31 1537.07 L1472.31 1546.94 L1480.02 1546.94 Q1483.33 1546.94 1485.43 1545.64 Q1487.53 1544.3 1487.53 1541.94 Q1487.53 1539.59 1485.43 1538.35 Q1483.33 1537.07 1480.02 1537.07 L1472.31 1537.07 M1466.46 1532.4 L1480.4 1532.4 Q1486.67 1532.4 1490.04 1534.69 Q1493.42 1536.98 1493.42 1541.21 Q1493.42 1544.49 1491.7 1546.43 Q1489.98 1548.34 1486.6 1548.82 Q1490.65 1549.58 1492.87 1552 Q1495.1 1554.42 1495.1 1558.05 Q1495.1 1562.82 1491.41 1565.43 Q1487.75 1568.04 1480.94 1568.04 L1466.46 1568.04 L1466.46 1532.4 Z" fill="#000000" fill-rule="evenodd" fill-opacity="1" /><polyline clip-path="url(#clip082)" style="stroke:#000000; stroke-linecap:round; stroke-linejoin:round; stroke-width:2; stroke-opacity:0.1; fill:none" points="205.121,1249.09 2352.76,1249.09 "/>
<polyline clip-path="url(#clip082)" style="stroke:#000000; stroke-linecap:round; stroke-linejoin:round; stroke-width:2; stroke-opacity:0.1; fill:none" points="205.121,959.522 2352.76,959.522 "/>
<polyline clip-path="url(#clip082)" style="stroke:#000000; stroke-linecap:round; stroke-linejoin:round; stroke-width:2; stroke-opacity:0.1; fill:none" points="205.121,669.957 2352.76,669.957 "/>
<polyline clip-path="url(#clip082)" style="stroke:#000000; stroke-linecap:round; stroke-linejoin:round; stroke-width:2; stroke-opacity:0.1; fill:none" points="205.121,380.393 2352.76,380.393 "/>
<polyline clip-path="url(#clip082)" style="stroke:#000000; stroke-linecap:round; stroke-linejoin:round; stroke-width:2; stroke-opacity:0.1; fill:none" points="205.121,90.8282 2352.76,90.8282 "/>
<polyline clip-path="url(#clip080)" style="stroke:#000000; stroke-linecap:round; stroke-linejoin:round; stroke-width:4; stroke-opacity:1; fill:none" points="205.121,1423.18 205.121,47.2441 "/>
<polyline clip-path="url(#clip080)" style="stroke:#000000; stroke-linecap:round; stroke-linejoin:round; stroke-width:4; stroke-opacity:1; fill:none" points="205.121,1249.09 224.019,1249.09 "/>
<polyline clip-path="url(#clip080)" style="stroke:#000000; stroke-linecap:round; stroke-linejoin:round; stroke-width:4; stroke-opacity:1; fill:none" points="205.121,959.522 224.019,959.522 "/>
<polyline clip-path="url(#clip080)" style="stroke:#000000; stroke-linecap:round; stroke-linejoin:round; stroke-width:4; stroke-opacity:1; fill:none" points="205.121,669.957 224.019,669.957 "/>
<polyline clip-path="url(#clip080)" style="stroke:#000000; stroke-linecap:round; stroke-linejoin:round; stroke-width:4; stroke-opacity:1; fill:none" points="205.121,380.393 224.019,380.393 "/>
<polyline clip-path="url(#clip080)" style="stroke:#000000; stroke-linecap:round; stroke-linejoin:round; stroke-width:4; stroke-opacity:1; fill:none" points="205.121,90.8282 224.019,90.8282 "/>
<path clip-path="url(#clip080)" d="M117.825 1262.43 L125.464 1262.43 L125.464 1236.07 L117.154 1237.73 L117.154 1233.47 L125.418 1231.81 L130.093 1231.81 L130.093 1262.43 L137.732 1262.43 L137.732 1266.37 L117.825 1266.37 L117.825 1262.43 Z" fill="#000000" fill-rule="evenodd" fill-opacity="1" /><path clip-path="url(#clip080)" d="M157.177 1234.88 Q153.566 1234.88 151.737 1238.45 Q149.931 1241.99 149.931 1249.12 Q149.931 1256.23 151.737 1259.79 Q153.566 1263.33 157.177 1263.33 Q160.811 1263.33 162.616 1259.79 Q164.445 1256.23 164.445 1249.12 Q164.445 1241.99 162.616 1238.45 Q160.811 1234.88 157.177 1234.88 M157.177 1231.18 Q162.987 1231.18 166.042 1235.79 Q169.121 1240.37 169.121 1249.12 Q169.121 1257.85 166.042 1262.45 Q162.987 1267.04 157.177 1267.04 Q151.366 1267.04 148.288 1262.45 Q145.232 1257.85 145.232 1249.12 Q145.232 1240.37 148.288 1235.79 Q151.366 1231.18 157.177 1231.18 Z" fill="#000000" fill-rule="evenodd" fill-opacity="1" /><path clip-path="url(#clip080)" d="M121.043 972.867 L137.362 972.867 L137.362 976.802 L115.418 976.802 L115.418 972.867 Q118.08 970.112 122.663 965.482 Q127.269 960.83 128.45 959.487 Q130.695 956.964 131.575 955.228 Q132.478 953.469 132.478 951.779 Q132.478 949.024 130.533 947.288 Q128.612 945.552 125.51 945.552 Q123.311 945.552 120.857 946.316 Q118.427 947.08 115.649 948.631 L115.649 943.908 Q118.473 942.774 120.927 942.195 Q123.38 941.617 125.418 941.617 Q130.788 941.617 133.982 944.302 Q137.177 946.987 137.177 951.478 Q137.177 953.607 136.367 955.529 Q135.579 957.427 133.473 960.019 Q132.894 960.691 129.792 963.908 Q126.691 967.103 121.043 972.867 Z" fill="#000000" fill-rule="evenodd" fill-opacity="1" /><path clip-path="url(#clip080)" d="M157.177 945.32 Q153.566 945.32 151.737 948.885 Q149.931 952.427 149.931 959.556 Q149.931 966.663 151.737 970.228 Q153.566 973.769 157.177 973.769 Q160.811 973.769 162.616 970.228 Q164.445 966.663 164.445 959.556 Q164.445 952.427 162.616 948.885 Q160.811 945.32 157.177 945.32 M157.177 941.617 Q162.987 941.617 166.042 946.223 Q169.121 950.807 169.121 959.556 Q169.121 968.283 166.042 972.89 Q162.987 977.473 157.177 977.473 Q151.366 977.473 148.288 972.89 Q145.232 968.283 145.232 959.556 Q145.232 950.807 148.288 946.223 Q151.366 941.617 157.177 941.617 Z" fill="#000000" fill-rule="evenodd" fill-opacity="1" /><path clip-path="url(#clip080)" d="M131.181 668.603 Q134.538 669.321 136.413 671.589 Q138.311 673.858 138.311 677.191 Q138.311 682.307 134.792 685.108 Q131.274 687.908 124.793 687.908 Q122.617 687.908 120.302 687.469 Q118.01 687.052 115.556 686.196 L115.556 681.682 Q117.501 682.816 119.816 683.395 Q122.13 683.973 124.654 683.973 Q129.052 683.973 131.343 682.237 Q133.658 680.501 133.658 677.191 Q133.658 674.135 131.505 672.422 Q129.376 670.686 125.556 670.686 L121.529 670.686 L121.529 666.844 L125.742 666.844 Q129.191 666.844 131.019 665.478 Q132.848 664.089 132.848 661.497 Q132.848 658.835 130.95 657.423 Q129.075 655.987 125.556 655.987 Q123.635 655.987 121.436 656.404 Q119.237 656.821 116.598 657.7 L116.598 653.534 Q119.26 652.793 121.575 652.423 Q123.913 652.052 125.973 652.052 Q131.297 652.052 134.399 654.483 Q137.501 656.89 137.501 661.01 Q137.501 663.881 135.857 665.872 Q134.214 667.839 131.181 668.603 Z" fill="#000000" fill-rule="evenodd" fill-opacity="1" /><path clip-path="url(#clip080)" d="M157.177 655.756 Q153.566 655.756 151.737 659.321 Q149.931 662.862 149.931 669.992 Q149.931 677.098 151.737 680.663 Q153.566 684.205 157.177 684.205 Q160.811 684.205 162.616 680.663 Q164.445 677.098 164.445 669.992 Q164.445 662.862 162.616 659.321 Q160.811 655.756 157.177 655.756 M157.177 652.052 Q162.987 652.052 166.042 656.659 Q169.121 661.242 169.121 669.992 Q169.121 678.719 166.042 683.325 Q162.987 687.908 157.177 687.908 Q151.366 687.908 148.288 683.325 Q145.232 678.719 145.232 669.992 Q145.232 661.242 148.288 656.659 Q151.366 652.052 157.177 652.052 Z" fill="#000000" fill-rule="evenodd" fill-opacity="1" /><path clip-path="url(#clip080)" d="M129.862 367.187 L118.056 385.636 L129.862 385.636 L129.862 367.187 M128.635 363.113 L134.515 363.113 L134.515 385.636 L139.445 385.636 L139.445 389.525 L134.515 389.525 L134.515 397.673 L129.862 397.673 L129.862 389.525 L114.26 389.525 L114.26 385.011 L128.635 363.113 Z" fill="#000000" fill-rule="evenodd" fill-opacity="1" /><path clip-path="url(#clip080)" d="M157.177 366.191 Q153.566 366.191 151.737 369.756 Q149.931 373.298 149.931 380.427 Q149.931 387.534 151.737 391.099 Q153.566 394.64 157.177 394.64 Q160.811 394.64 162.616 391.099 Q164.445 387.534 164.445 380.427 Q164.445 373.298 162.616 369.756 Q160.811 366.191 157.177 366.191 M157.177 362.488 Q162.987 362.488 166.042 367.094 Q169.121 371.677 169.121 380.427 Q169.121 389.154 166.042 393.761 Q162.987 398.344 157.177 398.344 Q151.366 398.344 148.288 393.761 Q145.232 389.154 145.232 380.427 Q145.232 371.677 148.288 367.094 Q151.366 362.488 157.177 362.488 Z" fill="#000000" fill-rule="evenodd" fill-opacity="1" /><path clip-path="url(#clip080)" d="M117.061 73.5482 L135.417 73.5482 L135.417 77.4833 L121.343 77.4833 L121.343 85.9555 Q122.362 85.6083 123.38 85.4462 Q124.399 85.2611 125.418 85.2611 Q131.205 85.2611 134.584 88.4323 Q137.964 91.6036 137.964 97.0202 Q137.964 102.599 134.492 105.701 Q131.019 108.779 124.7 108.779 Q122.524 108.779 120.255 108.409 Q118.01 108.039 115.603 107.298 L115.603 102.599 Q117.686 103.733 119.908 104.289 Q122.13 104.844 124.607 104.844 Q128.612 104.844 130.95 102.738 Q133.288 100.631 133.288 97.0202 Q133.288 93.4092 130.95 91.3027 Q128.612 89.1962 124.607 89.1962 Q122.732 89.1962 120.857 89.6129 Q119.006 90.0295 117.061 90.9092 L117.061 73.5482 Z" fill="#000000" fill-rule="evenodd" fill-opacity="1" /><path clip-path="url(#clip080)" d="M157.177 76.6268 Q153.566 76.6268 151.737 80.1916 Q149.931 83.7333 149.931 90.8629 Q149.931 97.9693 151.737 101.534 Q153.566 105.076 157.177 105.076 Q160.811 105.076 162.616 101.534 Q164.445 97.9693 164.445 90.8629 Q164.445 83.7333 162.616 80.1916 Q160.811 76.6268 157.177 76.6268 M157.177 72.9232 Q162.987 72.9232 166.042 77.5296 Q169.121 82.1129 169.121 90.8629 Q169.121 99.5897 166.042 104.196 Q162.987 108.779 157.177 108.779 Q151.366 108.779 148.288 104.196 Q145.232 99.5897 145.232 90.8629 Q145.232 82.1129 148.288 77.5296 Q151.366 72.9232 157.177 72.9232 Z" fill="#000000" fill-rule="evenodd" fill-opacity="1" /><path clip-path="url(#clip080)" d="M64.0042 989.315 L44.5251 989.315 L44.5251 1002.59 Q44.5251 1008.51 40.833 1012.04 Q37.109 1015.57 29.5339 1015.57 L16.4842 1015.57 L16.4842 1009.18 L29.0246 1009.18 Q34.0853 1009.18 36.5998 1007.2 Q39.1142 1005.23 39.1142 1001.28 L39.1142 989.315 L16.4842 989.315 L16.4842 982.854 L64.0042 982.854 L64.0042 989.315 Z" fill="#000000" fill-rule="evenodd" fill-opacity="1" /><path clip-path="url(#clip080)" d="M28.3562 940.013 L64.0042 940.013 L64.0042 945.837 L35.3903 945.837 L64.0042 963.025 L64.0042 970.536 L28.3562 970.536 L28.3562 964.712 L56.9064 964.712 L28.3562 947.556 L28.3562 940.013 Z" fill="#000000" fill-rule="evenodd" fill-opacity="1" /><path clip-path="url(#clip080)" d="M29.7248 902.296 L35.1993 902.296 Q33.8307 904.778 33.1623 907.293 Q32.4621 909.776 32.4621 912.322 Q32.4621 918.019 36.0905 921.17 Q39.6872 924.321 46.212 924.321 Q52.7369 924.321 56.3653 921.17 Q59.9619 918.019 59.9619 912.322 Q59.9619 909.776 59.2935 907.293 Q58.5933 904.778 57.2247 902.296 L62.6355 902.296 Q63.7814 904.747 64.3543 907.388 Q64.9272 909.998 64.9272 912.958 Q64.9272 921.011 59.8664 925.753 Q54.8057 930.496 46.212 930.496 Q37.491 930.496 32.4939 925.722 Q27.4968 920.916 27.4968 912.576 Q27.4968 909.871 28.0697 907.293 Q28.6108 904.715 29.7248 902.296 Z" fill="#000000" fill-rule="evenodd" fill-opacity="1" /><path clip-path="url(#clip080)" d="M64.0042 895.835 L59.1344 895.835 Q58.2432 890.042 54.2328 888.259 Q48.5991 886.095 34.1808 886.095 L28.3562 886.095 L28.3562 862.001 L64.0042 862.001 L64.0042 867.857 L33.035 867.857 L33.035 880.239 L36.568 880.239 Q50.3179 880.239 56.4926 883.04 Q63.0811 886.031 64.0042 895.835 Z" fill="#000000" fill-rule="evenodd" fill-opacity="1" /><path clip-path="url(#clip080)" d="M32.4621 836.634 Q32.4621 841.344 36.1542 844.081 Q39.8145 846.819 46.212 846.819 Q52.6095 846.819 56.3017 844.113 Q59.9619 841.376 59.9619 836.634 Q59.9619 831.955 56.2698 829.218 Q52.5777 826.48 46.212 826.48 Q39.8781 826.48 36.186 829.218 Q32.4621 831.955 32.4621 836.634 M27.4968 836.634 Q27.4968 828.995 32.4621 824.634 Q37.4273 820.274 46.212 820.274 Q54.9649 820.274 59.9619 824.634 Q64.9272 828.995 64.9272 836.634 Q64.9272 844.304 59.9619 848.665 Q54.9649 852.993 46.212 852.993 Q37.4273 852.993 32.4621 848.665 Q27.4968 844.304 27.4968 836.634 Z" fill="#000000" fill-rule="evenodd" fill-opacity="1" /><path clip-path="url(#clip080)" d="M28.3562 760.213 L45.7028 773.104 L64.0042 759.545 L64.0042 766.452 L49.9996 776.828 L64.0042 787.204 L64.0042 794.111 L45.3526 780.265 L28.3562 792.933 L28.3562 786.026 L41.0558 776.573 L28.3562 767.12 L28.3562 760.213 Z" fill="#000000" fill-rule="evenodd" fill-opacity="1" /><path clip-path="url(#clip080)" d="M28.3562 720.969 L64.0042 720.969 L64.0042 726.793 L35.3903 726.793 L64.0042 743.981 L64.0042 751.492 L28.3562 751.492 L28.3562 745.668 L56.9064 745.668 L28.3562 728.512 L28.3562 720.969 Z" fill="#000000" fill-rule="evenodd" fill-opacity="1" /><path clip-path="url(#clip080)" d="M64.0042 661.322 L64.0042 709.128 L28.3562 709.128 L28.3562 703.24 L59.3254 703.24 L59.3254 688.185 L28.3562 688.185 L28.3562 682.297 L59.3254 682.297 L59.3254 667.21 L28.3562 667.21 L28.3562 661.322 L59.3254 661.322 L59.3254 656.643 L73.0116 656.643 L73.0116 661.322 L64.0042 661.322 Z" fill="#000000" fill-rule="evenodd" fill-opacity="1" /><path clip-path="url(#clip080)" d="M28.3562 647.731 L28.3562 641.843 L42.9018 641.843 L42.9018 622.841 L28.3562 622.841 L28.3562 616.953 L64.0042 616.953 L64.0042 622.841 L47.5806 622.841 L47.5806 641.843 L64.0042 641.843 L64.0042 647.731 L28.3562 647.731 Z" fill="#000000" fill-rule="evenodd" fill-opacity="1" /><path clip-path="url(#clip080)" d="M28.3562 574.589 L64.0042 574.589 L64.0042 580.414 L35.3903 580.414 L64.0042 597.601 L64.0042 605.113 L28.3562 605.113 L28.3562 599.288 L56.9064 599.288 L28.3562 582.133 L28.3562 574.589 Z" fill="#000000" fill-rule="evenodd" fill-opacity="1" /><path clip-path="url(#clip080)" d="M28.3562 562.749 L28.3562 556.924 L45.098 556.924 L28.3562 540.405 L28.3562 533.212 L42.138 546.835 L64.0042 531.462 L64.0042 538.018 L46.021 550.654 L52.3867 556.924 L64.0042 556.924 L64.0042 562.749 L28.3562 562.749 Z" fill="#000000" fill-rule="evenodd" fill-opacity="1" /><path clip-path="url(#clip080)" d="M32.4621 509.341 Q32.4621 514.051 36.1542 516.789 Q39.8145 519.526 46.212 519.526 Q52.6095 519.526 56.3017 516.82 Q59.9619 514.083 59.9619 509.341 Q59.9619 504.662 56.2698 501.925 Q52.5777 499.187 46.212 499.187 Q39.8781 499.187 36.186 501.925 Q32.4621 504.662 32.4621 509.341 M27.4968 509.341 Q27.4968 501.702 32.4621 497.341 Q37.4273 492.981 46.212 492.981 Q54.9649 492.981 59.9619 497.341 Q64.9272 501.702 64.9272 509.341 Q64.9272 517.011 59.9619 521.372 Q54.9649 525.701 46.212 525.701 Q37.4273 525.701 32.4621 521.372 Q27.4968 517.011 27.4968 509.341 Z" fill="#000000" fill-rule="evenodd" fill-opacity="1" /><path clip-path="url(#clip080)" d="M47.5806 477.64 L59.3254 477.64 L59.3254 469.3 Q59.3254 465.29 57.8294 463.189 Q56.3017 461.089 53.4371 461.089 Q50.5725 461.089 49.0766 463.189 Q47.5806 465.29 47.5806 469.3 L47.5806 477.64 M33.035 477.64 L42.9018 477.64 L42.9018 469.937 Q42.9018 466.627 41.5969 464.526 Q40.2601 462.426 37.9048 462.426 Q35.5494 462.426 34.3081 464.526 Q33.035 466.627 33.035 469.937 L33.035 477.64 M28.3562 483.496 L28.3562 469.555 Q28.3562 463.285 30.6479 459.911 Q32.9395 456.537 37.1727 456.537 Q40.451 456.537 42.3926 458.256 Q44.3023 459.975 44.7797 463.349 Q45.5436 459.306 47.9626 457.078 Q50.3815 454.85 54.01 454.85 Q58.7843 454.85 61.3942 458.542 Q64.0042 462.203 64.0042 469.014 L64.0042 483.496 L28.3562 483.496 Z" fill="#000000" fill-rule="evenodd" fill-opacity="1" /><polyline clip-path="url(#clip082)" style="stroke:#009af9; stroke-linecap:round; stroke-linejoin:round; stroke-width:4; stroke-opacity:1; fill:none" points="1610.71,1335.96 1618.66,1334.77 1626.62,1333.55 1634.59,1332.32 1642.57,1331.07 1650.57,1329.79 1658.58,1328.49 1666.59,1327.17 1674.62,1325.83 1682.66,1324.46 1690.7,1323.06 1698.75,1321.65 1706.81,1320.21 1714.87,1318.74 1722.94,1317.25 1731.01,1315.73 1739.09,1314.19 1747.17,1312.62 1755.25,1311.03 1763.32,1309.4 1771.4,1307.75 1779.48,1306.07 1787.55,1304.36 1795.62,1302.63 1803.69,1300.86 1811.75,1299.06 1819.8,1297.24 1827.84,1295.38 1835.88,1293.49 1843.9,1291.57 1851.92,1289.62 1859.91,1287.63 1867.9,1285.61 1875.87,1283.56 1883.82,1281.47 1891.75,1279.35 1899.67,1277.19 1907.56,1274.99 1915.43,1272.76 1923.28,1270.49 1931.1,1268.19 1938.89,1265.84 1946.65,1263.46 1954.39,1261.04 1962.09,1258.58 1969.76,1256.07 1977.39,1253.53 1984.99,1250.94 1992.54,1248.32 2000.06,1245.64 2007.53,1242.93 2014.96,1240.17 2022.35,1237.36 2029.68,1234.51 2036.97,1231.61 2044.2,1228.67 2051.38,1225.68 2058.5,1222.64 2065.57,1219.55 2072.57,1216.41 2079.52,1213.22 2086.39,1209.98 2093.21,1206.68 2099.95,1203.34 2106.62,1199.94 2113.22,1196.48 2119.74,1192.98 2126.18,1189.41 2132.54,1185.79 2138.82,1182.11 2145.01,1178.38 2151.12,1174.59 2157.13,1170.73 2163.06,1166.82 2168.88,1162.85 2174.61,1158.81 2180.24,1154.71 2185.76,1150.55 2191.17,1146.33 2196.48,1142.04 2201.68,1137.69 2206.76,1133.27 2211.72,1128.78 2216.57,1124.23 2221.29,1119.61 2225.88,1114.92 2230.35,1110.16 2234.68,1105.33 2238.89,1100.43 2242.95,1095.46 2246.87,1090.42 2250.66,1085.3 2254.29,1080.11 2257.78,1074.85 2261.11,1069.52 2264.29,1064.11 2267.32,1058.62 2270.18,1053.06 2272.88,1047.42 2275.41,1041.7 2277.78,1035.91 2279.97,1030.04 2281.99,1024.09 2283.83,1018.07 2285.49,1011.96 2286.97,1005.78 2288.26,999.516 2289.37,993.174 2290.28,986.753 2291,980.252 2291.52,973.672 2291.85,967.012 2291.97,960.272 2291.89,953.453 2291.61,946.554 2291.11,939.576 2290.41,932.519 2289.49,925.383 2288.36,918.169 2287.01,910.876 2285.45,903.506 2283.66,896.058 2281.65,888.534 2279.41,880.934 2276.95,873.259 2274.27,865.509 2271.35,857.685 2268.21,849.789 2264.83,841.82 2261.22,833.781 2257.38,825.672 2253.3,817.494 2248.99,809.249 2244.45,800.938 2239.67,792.563 2234.65,784.124 2229.4,775.624 2223.91,767.065 2218.18,758.447 2212.22,749.772 2206.03,741.044 2199.59,732.262 2192.93,723.431 2186.03,714.551 2178.9,705.625 2171.54,696.655 2163.94,687.644 2156.12,678.593 2148.07,669.506 2139.8,660.386 2131.3,651.233 2122.59,642.053 2113.65,632.847 2104.5,623.618 2095.13,614.369 2085.55,605.103 2075.77,595.823 2065.78,586.533 2055.58,577.235 2045.19,567.933 2034.6,558.63 2023.82,549.329 2012.86,540.034 2001.71,530.749 1990.37,521.476 1978.87,512.219 1967.19,502.983 1955.34,493.769 1943.33,484.583 1931.17,475.427 1918.85,466.305 1906.38,457.221 1893.77,448.179 1881.01,439.182 1868.13,430.233 1855.12,421.337 1841.98,412.498 1828.73,403.718 1815.36,395.001 1801.89,386.352 1788.31,377.773 1774.64,369.269 1760.88,360.842 1747.04,352.496 1733.11,344.234 1719.11,336.061 1705.04,327.979 1690.91,319.991 1676.73,312.101 1662.49,304.312 1648.21,296.627 1633.88,289.049 1619.52,281.581 1605.13,274.226 1590.72,266.987 1576.29,259.865 1561.85,252.865 1547.4,245.988 1532.94,239.237 1518.49,232.614 1504.05,226.122 1489.61,219.763 1475.2,213.538 1460.81,207.45 1446.44,201.501 1432.11,195.692 1417.81,190.025 1403.55,184.502 1389.34,179.124 1375.17,173.892 1361.06,168.808 1347.01,163.872 1333.01,159.086 1319.08,154.452 1305.22,149.968 1291.43,145.637 1277.72,141.46 1264.08,137.435 1250.53,133.564 1237.05,129.848 1223.67,126.286 1210.38,122.879 1197.18,119.626 1184.07,116.528 1171.06,113.585 1158.16,110.795 1145.35,108.16 1132.65,105.677 1120.05,103.348 1107.57,101.171 1095.19,99.1464 1082.92,97.2724 1070.77,95.5486 1058.73,93.9741 1046.8,92.5481 1034.99,91.2694 1023.3,90.137 1011.73,89.1498 1000.28,88.3066 988.947,87.6061 977.735,87.047 966.645,86.6279 955.676,86.3475 944.83,86.2043 934.107,86.1968 923.507,86.3234 913.029,86.5826 902.675,86.9727 892.444,87.4921 882.336,88.1391 872.352,88.912 862.49,89.809 852.751,90.8284 843.134,91.9684 833.639,93.2271 824.266,94.6028 815.014,96.0935 805.882,97.6974 796.871,99.4126 787.979,101.237 779.206,103.169 770.551,105.207 762.013,107.349 753.592,109.592 745.287,111.935 737.097,114.376 729.021,116.913 721.058,119.544 713.208,122.268 705.469,125.081 697.841,127.983 690.322,130.971 682.911,134.044 675.608,137.199 668.411,140.435 661.32,143.75 654.333,147.142 647.449,150.609 640.668,154.149 633.987,157.761 627.406,161.442 620.924,165.191 614.54,169.007 608.253,172.887 602.06,176.829 595.962,180.833 589.958,184.895 584.045,189.015 578.223,193.191 572.491,197.421 566.848,201.704 561.292,206.038 555.823,210.421 550.438,214.852 545.138,219.329 539.921,223.851 534.786,228.416 529.732,233.023 524.758,237.67 519.862,242.356 515.044,247.08 510.302,251.839 505.636,256.634 501.044,261.461 496.525,266.321 492.079,271.211 487.704,276.131 483.399,281.079 479.164,286.054 474.997,291.055 470.897,296.08 466.863,301.129 462.895,306.2 458.991,311.292 455.15,316.403 451.372,321.534 447.655,326.683 444,331.848 440.403,337.029 436.866,342.225 433.387,347.434 429.965,352.656 426.599,357.891 423.288,363.135 420.032,368.39 416.83,373.654 413.681,378.927 410.584,384.206 407.539,389.493 404.544,394.784 401.599,400.081 398.703,405.382 395.855,410.687 393.055,415.993 390.302,421.302 387.595,426.612 384.934,431.923 382.317,437.233 379.745,442.543 377.216,447.851 374.73,453.157 372.286,458.46 369.884,463.76 367.523,469.056 365.202,474.347 362.92,479.633 360.678,484.914 358.475,490.189 356.309,495.457 354.181,500.717 352.09,505.97 350.035,511.215 348.016,516.452 346.032,521.679 344.083,526.897 342.168,532.105 340.287,537.302 338.439,542.489 336.624,547.665 334.841,552.829 333.091,557.981 331.371,563.121 329.682,568.248 328.024,573.362 326.396,578.464 324.798,583.551 323.229,588.625 321.688,593.684 320.176,598.729 318.692,603.759 317.236,608.774 315.807,613.773 314.405,618.757 313.029,623.725 311.679,628.677 310.355,633.613 309.057,638.532 307.784,643.435 306.535,648.32 305.311,653.188 304.111,658.039 302.934,662.872 301.782,667.688 300.652,672.486 299.545,677.265 298.461,682.027 297.399,686.77 296.359,691.494 295.341,696.2 294.344,700.887 293.369,705.554 292.414,710.203 291.48,714.833 290.567,719.443 289.673,724.034 288.8,728.605 287.946,733.157 287.111,737.689 286.296,742.201 285.5,746.694 284.723,751.166 283.964,755.618 283.223,760.05 282.501,764.462 281.796,768.854 281.11,773.226 280.44,777.577 279.789,781.907 279.154,786.218 278.536,790.507 277.935,794.777 277.351,799.025 276.783,803.253 276.231,807.461 275.696,811.647 275.176,815.814 274.672,819.959 274.184,824.084 273.711,828.188 273.253,832.271 272.811,836.334 272.383,840.375 271.971,844.397 271.573,848.397 271.19,852.376 270.821,856.335 270.467,860.274 270.126,864.191 269.8,868.088 269.488,871.964 269.19,875.819 268.905,879.654 268.634,883.469 268.376,887.262 268.132,891.035 267.901,894.788 267.683,898.52 267.479,902.231 267.287,905.923 267.108,909.593 266.942,913.244 266.788,916.874 266.647,920.484 266.519,924.073 266.403,927.643 266.299,931.192 266.208,934.721 266.128,938.23 266.061,941.719 266.006,945.188 265.963,948.637 265.931,952.066 265.911,955.476 265.903,958.866 265.907,962.236 265.922,965.586 265.948,968.917 265.986,972.228 266.036,975.52 266.096,978.793 266.168,982.046 266.252,985.28 266.346,988.494 266.451,991.69 266.568,994.866 266.695,998.024 266.833,1001.16 266.982,1004.28 267.142,1007.38 267.313,1010.46 267.495,1013.53 267.687,1016.57 267.89,1019.6 268.103,1022.61 268.327,1025.6 268.562,1028.57 268.807,1031.52 269.063,1034.45 269.329,1037.37 269.605,1040.27 269.892,1043.15 270.189,1046.01 270.497,1048.86 270.815,1051.68 271.143,1054.49 271.481,1057.28 271.829,1060.06 272.188,1062.82 272.557,1065.55 272.936,1068.28 273.325,1070.98 273.724,1073.67 274.134,1076.34 274.553,1078.99 274.983,1081.63 275.422,1084.25 275.872,1086.85 276.332,1089.44 276.801,1092.01 277.281,1094.56 277.771,1097.1 278.27,1099.62 278.78,1102.12 279.299,1104.61 279.829,1107.08 280.368,1109.54 280.918,1111.98 281.477,1114.4 282.046,1116.81 282.626,1119.2 283.215,1121.58 283.814,1123.94 284.423,1126.29 285.042,1128.62 285.672,1130.93 286.311,1133.23 286.96,1135.52 287.618,1137.78 288.287,1140.04 288.966,1142.28 289.655,1144.5 290.354,1146.71 291.063,1148.9 291.782,1151.08 292.511,1153.25 293.25,1155.4 293.999,1157.54 294.758,1159.66 295.527,1161.77 296.307,1163.86 297.096,1165.94 297.895,1168 298.705,1170.05 299.525,1172.09 300.355,1174.11 301.195,1176.12 302.046,1178.12 302.906,1180.1 303.777,1182.07 304.658,1184.03 305.55,1185.97 306.452,1187.89 307.364,1189.81 308.287,1191.71 309.22,1193.6 310.163,1195.48 311.117,1197.34 312.081,1199.19 313.056,1201.02 314.041,1202.85 315.037,1204.66 316.044,1206.46 317.061,1208.24 318.089,1210.02 319.127,1211.78 320.176,1213.53 321.236,1215.26 322.307,1216.99 323.389,1218.7 324.481,1220.4 325.584,1222.09 326.698,1223.76 327.824,1225.43 328.96,1227.08 330.107,1228.72 331.265,1230.35 332.435,1231.96 333.615,1233.57 334.807,1235.16 336.01,1236.75 337.224,1238.32 338.449,1239.88 339.686,1241.42 340.935,1242.96 342.194,1244.49 343.465,1246 344.748,1247.51 346.042,1249 347.348,1250.48 348.666,1251.95 349.995,1253.41 351.336,1254.86 352.689,1256.3 354.054,1257.73 355.431,1259.15 356.819,1260.56 358.22,1261.95 359.632,1263.34 361.057,1264.72 362.494,1266.08 363.943,1267.44 365.404,1268.78 366.878,1270.12 368.364,1271.44 369.863,1272.76 371.374,1274.07 372.897,1275.36 374.433,1276.65 375.982,1277.92 377.544,1279.19 379.118,1280.45 380.705,1281.69 382.305,1282.93 383.918,1284.16 385.544,1285.38 387.182,1286.59 388.835,1287.79 390.5,1288.98 392.178,1290.16 393.87,1291.33 395.575,1292.49 397.294,1293.65 399.026,1294.79 400.772,1295.93 402.531,1297.06 404.304,1298.17 406.091,1299.28 407.891,1300.38 409.706,1301.48 411.534,1302.56 413.377,1303.63 415.233,1304.7 417.104,1305.75 418.989,1306.8 420.888,1307.84 422.802,1308.87 424.73,1309.9 426.673,1310.91 428.63,1311.92 430.602,1312.92 432.589,1313.91 434.59,1314.89 436.607,1315.86 438.638,1316.83 440.685,1317.78 442.746,1318.73 444.823,1319.67 446.915,1320.61 449.022,1321.53 451.145,1322.45 453.284,1323.36 455.437,1324.26 457.607,1325.15 459.792,1326.04 461.993,1326.92 464.211,1327.79 466.444,1328.65 468.693,1329.51 470.958,1330.36 473.24,1331.2 475.537,1332.03 477.852,1332.86 480.182,1333.67 482.53,1334.48 484.894,1335.29 487.274,1336.08 489.672,1336.87 492.086,1337.65 494.518,1338.43 496.967,1339.2 499.432,1339.96 501.915,1340.71 504.416,1341.45 506.934,1342.19 509.469,1342.92 512.022,1343.65 514.593,1344.37 517.181,1345.08 519.788,1345.78 522.412,1346.48 525.055,1347.17 527.716,1347.85 530.395,1348.53 533.092,1349.2 535.808,1349.86 538.542,1350.51 541.296,1351.16 544.067,1351.81 546.858,1352.44 549.668,1353.07 552.496,1353.69 555.344,1354.31 558.211,1354.92 561.098,1355.52 564.003,1356.12 566.929,1356.71 569.874,1357.29 572.839,1357.86 575.823,1358.43 578.828,1359 581.852,1359.56 584.897,1360.11 587.962,1360.65 591.047,1361.19 594.152,1361.72 597.279,1362.24 600.425,1362.76 603.593,1363.28 606.781,1363.78 609.991,1364.28 613.221,1364.78 616.473,1365.26 619.746,1365.74 623.04,1366.22 626.356,1366.69 629.693,1367.15 633.052,1367.61 636.432,1368.06 639.835,1368.5 643.26,1368.94 646.706,1369.37 650.175,1369.79 653.667,1370.21 657.18,1370.63 660.717,1371.03 664.275,1371.43 667.857,1371.83 671.461,1372.22 675.089,1372.6 678.739,1372.98 682.413,1373.35 686.11,1373.71 689.83,1374.07 693.574,1374.42 697.342,1374.77 701.133,1375.11 704.948,1375.44 708.787,1375.77 712.65,1376.09 716.537,1376.41 720.448,1376.72 724.384,1377.02 728.344,1377.32 732.329,1377.61 736.338,1377.89 740.373,1378.17 744.432,1378.44 748.516,1378.71 752.625,1378.97 756.76,1379.23 760.919,1379.47 765.105,1379.72 769.315,1379.95 773.552,1380.18 777.814,1380.41 782.102,1380.62 786.416,1380.84 790.756,1381.04 795.122,1381.24 799.515,1381.43 803.934,1381.62 808.379,1381.8 812.851,1381.97 817.35,1382.14 821.875,1382.3 826.427,1382.46 831.007,1382.61 835.613,1382.75 840.246,1382.89 844.907,1383.02 849.595,1383.14 854.311,1383.26 859.054,1383.37 863.825,1383.47 868.624,1383.57 873.45,1383.66 878.305,1383.75 883.187,1383.82 888.098,1383.89 893.037,1383.96 898.004,1384.02 902.999,1384.07 908.023,1384.11 913.076,1384.15 918.157,1384.18 923.267,1384.21 928.406,1384.22 933.574,1384.23 938.77,1384.24 943.996,1384.23 949.251,1384.22 954.535,1384.21 959.848,1384.18 965.19,1384.15 970.562,1384.11 975.964,1384.07 981.395,1384.01 986.855,1383.95 992.346,1383.88 997.866,1383.81 1003.42,1383.73 1009,1383.64 1014.6,1383.54 1020.24,1383.43 1025.91,1383.32 1031.61,1383.2 1037.34,1383.07 1043.1,1382.93 1048.89,1382.79 1054.71,1382.63 1060.56,1382.47 1066.44,1382.31 1072.35,1382.13 1078.3,1381.94 1084.27,1381.75 1090.27,1381.55 1096.3,1381.34 1102.36,1381.12 1108.46,1380.89 1114.58,1380.66 1120.74,1380.41 1126.92,1380.16 1133.13,1379.89 1139.38,1379.62 1145.66,1379.34 1151.96,1379.05 1158.3,1378.75 1164.66,1378.44 1171.06,1378.13 1177.49,1377.8 1183.95,1377.46 1190.43,1377.11 1196.95,1376.76 1203.5,1376.39 1210.08,1376.01 1216.69,1375.63 1223.32,1375.23 1229.99,1374.82 1236.69,1374.4 1243.42,1373.97 1250.17,1373.53 1256.96,1373.08 1263.78,1372.62 1270.62,1372.15 1277.5,1371.66 1284.4,1371.17 1291.33,1370.66 1298.29,1370.14 1305.28,1369.61 1312.3,1369.07 1319.35,1368.51 1326.42,1367.95 1333.52,1367.37 1340.66,1366.78 1347.81,1366.17 1355,1365.55 1362.21,1364.92 1369.45,1364.28 1376.72,1363.62 1384.02,1362.95 1391.34,1362.27 1398.68,1361.57 1406.05,1360.86 1413.45,1360.13 1420.88,1359.39 1428.32,1358.63 1435.8,1357.86 1443.3,1357.08 1450.82,1356.27 1458.36,1355.46 1465.93,1354.63 1473.53,1353.78 1481.14,1352.91 1488.78,1352.03 1496.44,1351.13 1504.12,1350.22 1511.82,1349.29 1519.55,1348.34 1527.29,1347.37 1535.06,1346.39 1542.84,1345.39 1550.64,1344.37 1558.46,1343.33 1566.3,1342.27 1574.16,1341.19 1582.03,1340.1 1589.92,1338.98 1597.83,1337.85 1605.75,1336.69 1613.69,1335.51 1621.64,1334.31 1629.6,1333.09 1637.58,1331.85 1645.57,1330.59 1653.57,1329.31 1661.58,1328 1669.6,1326.67 1677.63,1325.31 1685.67,1323.94 1693.72,1322.54 1701.77,1321.11 1709.83,1319.66 1717.9,1318.19 1725.97,1316.69 1734.04,1315.16 1742.12,1313.61 1750.2,1312.03 1758.27,1310.42 1766.35,1308.79 1774.43,1307.13 1782.51,1305.44 1790.58,1303.72 1798.65,1301.97 1806.71,1300.19 1814.77,1298.38 1822.82,1296.54 1830.86,1294.67 1838.89,1292.77 1846.91,1290.84 1854.92,1288.87 1862.91,1286.88 1870.89,1284.84 1878.85,1282.78 1886.8,1280.68 1894.72,1278.54 1902.63,1276.37 1910.51,1274.16 1918.37,1271.92 1926.21,1269.63 1934.02,1267.31 1941.8,1264.96 1949.56,1262.56 1957.28,1260.12 1964.97,1257.64 1972.62,1255.13 1980.24,1252.57 1987.82,1249.96 1995.36,1247.32 2002.87,1244.63 2010.32,1241.9 2017.74,1239.12 2025.1,1236.3 2032.42,1233.43 2039.69,1230.52 2046.9,1227.55 2054.06,1224.54 2061.16,1221.49 2068.2,1218.38 2075.18,1215.22 2082.1,1212.01 2088.96,1208.75 2095.74,1205.44 2102.46,1202.07 2109.1,1198.65 2115.67,1195.18 2122.16,1191.65 2128.57,1188.06 2134.91,1184.42 2141.15,1180.72 2147.31,1176.96 2153.39,1173.15 2159.37,1169.27 2165.25,1165.34 2171.04,1161.34 2176.73,1157.28 2182.32,1153.16 2187.8,1148.98 2193.18,1144.73 2198.44,1140.42 2203.6,1136.04 2208.63,1131.59 2213.55,1127.08 2218.35,1122.51 2223.02,1117.86 2227.57,1113.14 2231.99,1108.36 2236.28,1103.5 2240.43,1098.58 2244.44,1093.58 2248.31,1088.51 2252.04,1083.37 2255.62,1078.15 2259.05,1072.86 2262.32,1067.5 2265.44,1062.06 2268.41,1056.54 2271.21,1050.95 2273.85,1045.28 2276.32,1039.54 2278.62,1033.72 2280.75,1027.82 2282.7,1021.84 2284.48,1015.79 2286.07,1009.65 2287.48,1003.44 2288.7,997.148 2289.73,990.777 2290.57,984.325 2291.22,977.795 2291.67,971.185 2291.92,964.495 2291.97,957.725 2291.81,950.876 2291.45,943.948 2290.88,936.94 2290.09,929.853 2289.09,922.688 2287.88,915.444 2286.45,908.122 2284.8,900.723 2282.93,893.247 2280.84,885.694 2278.52,878.066 2275.97,870.362 2273.2,862.585 2270.2,854.733 2266.97,846.81 2263.5,838.815 2259.81,830.749 2255.88,822.614 2251.71,814.411 2247.32,806.141 2242.68,797.806 2237.81,789.407 2232.71,780.945 2227.37,772.423 2221.79,763.841 2215.98,755.201 2209.93,746.507 2203.64,737.758 2197.12,728.958 2190.37,720.108 2183.38,711.21 2176.16,702.267 2168.72,693.282 2161.04,684.255 2153.13,675.191 2145,666.091 2136.64,656.958 2128.06,647.795 2119.26,638.605 2110.24,629.39 2101.01,620.153 2091.57,610.897 2081.91,601.626 2072.05,592.342 2061.98,583.048 2051.71,573.748 2041.24,564.445 2030.58,555.143 2019.73,545.844 2008.7,536.552 1997.48,527.271 1986.08,518.004 1974.51,508.754 1962.77,499.526 1950.86,490.322 1938.79,481.147 1926.57,472.003 1914.19,462.895 1901.67,453.826 1889,444.8 1876.2,435.821 1863.27,426.892 1850.21,418.017 1837.03,409.199 1823.73,400.443 1810.32,391.751 1796.81,383.128 1783.2,374.576 1769.5,366.1 1755.7,357.703 1741.83,349.389 1727.87,341.16 1713.85,333.02 1699.75,324.973 1685.6,317.022 1671.4,309.169 1657.14,301.419 1642.84,293.774 1628.5,286.237 1614.13,278.811 1599.73,271.499 1585.31,264.303 1570.88,257.227 1556.43,250.272 1541.98,243.443 1527.52,236.739 1513.07,230.165 1498.63,223.723 1484.21,217.414 1469.8,211.24 1455.42,205.204 1441.06,199.307 1426.74,193.551 1412.46,187.938 1398.22,182.469 1384.02,177.145 1369.88,171.968 1355.78,166.94 1341.75,162.061 1327.78,157.331 1313.88,152.753 1300.04,148.327 1286.28,144.053 1272.6,139.933 1258.99,135.966 1245.47,132.153 1232.03,128.495 1218.68,124.991 1205.42,121.642 1192.25,118.447 1179.18,115.407 1166.21,112.521 1153.34,109.789 1140.58,107.211 1127.92,104.786 1115.36,102.514 1102.91,100.395 1090.58,98.4263 1078.35,96.6086 1066.24,94.9409 1054.24,93.4222 1042.36,92.0515 1030.6,90.8278 1018.95,89.75 1007.42,88.8169 996.017,88.0273 984.73,87.38 973.564,86.8735 962.519,86.5066 951.596,86.2778 940.796,86.1857 930.119,86.2286 919.565,86.4051 909.133,86.7136 898.825,87.1523 888.641,87.7198 878.579,88.4142 868.64,89.2338 858.825,90.1769 849.131,91.2417 839.56,92.4264 830.111,93.7292 820.783,95.1482 811.577,96.6816 802.49,98.3274 793.524,100.084 784.676,101.949 775.948,103.921 767.337,105.998 758.843,108.178 750.466,110.459 742.204,112.839 734.056,115.316 726.023,117.889 718.103,120.554 710.294,123.312 702.597,126.158 695.009,129.093 687.531,132.113 680.161,135.217 672.898,138.403 665.741,141.668 658.689,145.012 651.741,148.432 644.895,151.927 638.152,155.494 631.509,159.133 624.965,162.84 618.52,166.614 612.172,170.454 605.92,174.357 599.763,178.323 593.701,182.349 587.73,186.433 581.852,190.574 576.064,194.771 570.365,199.021 564.755,203.323 559.232,207.675 553.794,212.076 548.442,216.525 543.173,221.019 537.987,225.557 532.882,230.138 527.858,234.76 522.913,239.422 518.047,244.122 513.257,248.86 508.544,253.632 503.906,258.439 499.342,263.279 494.85,268.151 490.431,273.052 486.082,277.983 481.804,282.941 477.594,287.926 473.452,292.936 469.377,297.97 465.368,303.027 461.424,308.106 457.544,313.206 453.727,318.325 449.972,323.462 446.278,328.617 442.645,333.788 439.071,338.975 435.555,344.176 432.097,349.39 428.696,354.617 425.351,359.855 422.061,365.104 418.826,370.363 415.644,375.63 412.514,380.905 409.437,386.187 406.41,391.476 403.434,396.769 400.507,402.068 397.629,407.37 394.8,412.676 392.017,417.983 389.282,423.293 386.592,428.603 383.948,433.914 381.348,439.224 378.792,444.533 376.279,449.84 373.809,455.145 371.381,460.447 368.994,465.746 366.648,471.04 364.342,476.329 362.075,481.614 359.848,486.892 357.659,492.164 355.507,497.43 353.393,502.687 351.315,507.938 349.274,513.179 347.268,518.412 345.297,523.636 343.361,528.85 341.459,534.054 339.591,539.248 337.755,544.43 335.952,549.602 334.181,554.761 332.442,559.909 330.734,565.044 329.057,570.167 327.411,575.276 325.794,580.372 324.206,585.455 322.648,590.523 321.118,595.577 319.617,600.616 318.143,605.64 316.697,610.65 315.278,615.643 313.886,620.621 312.52,625.583 311.18,630.529 309.866,635.459 308.577,640.372 307.313,645.268 306.073,650.147 304.858,655.009 303.667,659.853 302.5,664.68 301.356,669.489 300.234,674.28 299.136,679.052 298.06,683.807 297.007,688.543 295.975,693.26 294.965,697.959 293.976,702.639 293.008,707.299 292.062,711.941 291.135,716.563 290.229,721.166 289.343,725.75 288.477,730.314 287.631,734.858 286.804,739.383 285.996,743.888 285.206,748.372 284.436,752.837 283.684,757.282 282.95,761.707 282.235,766.111 281.537,770.495 280.857,774.859 280.194,779.202 279.549,783.526 278.92,787.828 278.309,792.11 277.714,796.372 277.136,800.613 276.574,804.833 276.028,809.033 275.499,813.212 274.985,817.37 274.487,821.508 274.005,825.625 273.537,829.721 273.086,833.796 272.649,837.851 272.227,841.885 271.82,845.899 271.428,849.891 271.05,853.863 270.687,857.814 270.337,861.745 270.003,865.654 269.682,869.543 269.375,873.412 269.081,877.259 268.802,881.087 268.536,884.893 268.283,888.679 268.044,892.444 267.818,896.189 267.605,899.914 267.405,903.618 267.218,907.301 267.044,910.964 266.883,914.607 266.734,918.229 266.598,921.832 266.474,925.414 266.363,928.975 266.264,932.517 266.177,936.039 266.102,939.54 266.039,943.022 265.988,946.483 265.949,949.925 265.922,953.347 265.907,956.749 265.903,960.131 265.911,963.494 265.93,966.837 265.961,970.161 266.004,973.465 266.057,976.749 266.122,980.015 266.198,983.26 266.286,986.487 266.384,989.695 266.494,992.883 266.614,996.052 266.745,999.202 266.888,1002.33 267.041,1005.45 267.205,1008.54 267.38,1011.62 267.565,1014.67 267.762,1017.71 267.969,1020.73 268.186,1023.73 268.414,1026.71 268.653,1029.68 268.902,1032.62 269.161,1035.55 269.431,1038.46 269.712,1041.35 270.002,1044.22 270.303,1047.08 270.615,1049.92 270.936,1052.74 271.268,1055.54 271.61,1058.33 271.963,1061.09 272.325,1063.84 272.698,1066.58 273.081,1069.29 273.474,1071.99 273.877,1074.67 274.29,1077.34 274.713,1079.98 275.146,1082.61 275.59,1085.23 276.043,1087.82 276.506,1090.4 276.98,1092.97 277.463,1095.52 277.957,1098.05 278.46,1100.56 278.973,1103.06 279.497,1105.54 280.03,1108.01 280.573,1110.46 281.126,1112.89 281.689,1115.31 282.262,1117.71 282.846,1120.1 283.438,1122.47 284.041,1124.82 284.654,1127.16 285.277,1129.49 285.91,1131.8 286.553,1134.09 287.205,1136.37 287.868,1138.63 288.541,1140.88 289.223,1143.11 289.916,1145.33 290.619,1147.53 291.331,1149.72 292.054,1151.9 292.787,1154.06 293.529,1156.2 294.282,1158.33 295.045,1160.45 295.818,1162.55 296.601,1164.64 297.394,1166.71 298.198,1168.77 299.011,1170.82 299.835,1172.85 300.669,1174.87 301.513,1176.87 302.367,1178.86 303.232,1180.84 304.106,1182.8 304.991,1184.75 305.887,1186.69 306.793,1188.61 307.709,1190.52 308.635,1192.42 309.572,1194.3 310.519,1196.18 311.477,1198.03 312.445,1199.88 313.424,1201.71 314.413,1203.53 315.413,1205.34 316.424,1207.13 317.445,1208.91 318.477,1210.68 319.519,1212.44 320.572,1214.18 321.636,1215.91 322.711,1217.63 323.797,1219.34 324.893,1221.03 326.001,1222.72 327.119,1224.39 328.248,1226.05 329.388,1227.7 330.54,1229.33 331.702,1230.96 332.876,1232.57 334.06,1234.17 335.256,1235.76 336.464,1237.34 337.682,1238.9 338.912,1240.46 340.153,1242 341.405,1243.54 342.669,1245.06 343.945,1246.57 345.232,1248.07 346.531,1249.56 347.841,1251.03 349.163,1252.5 350.497,1253.96 351.842,1255.4 353.199,1256.84 354.569,1258.26 355.95,1259.68 357.343,1261.08 358.748,1262.47 360.165,1263.86 361.594,1265.23 363.036,1266.59 364.489,1267.94 365.955,1269.28 367.434,1270.62 368.925,1271.94 370.428,1273.25 371.943,1274.55 373.472,1275.84 375.012,1277.13 376.566,1278.4 378.132,1279.66 379.711,1280.92 381.303,1282.16 382.908,1283.39 384.526,1284.62 386.156,1285.83 387.8,1287.04 389.457,1288.23 391.127,1289.42 392.811,1290.6 394.508,1291.77 396.218,1292.93 397.942,1294.08 399.679,1295.22 401.43,1296.35 403.194,1297.48 404.972,1298.59 406.764,1299.7 408.57,1300.79 410.39,1301.88 412.223,1302.96 414.071,1304.03 415.933,1305.09 417.809,1306.15 419.699,1307.19 421.604,1308.23 423.523,1309.26 425.457,1310.28 427.405,1311.29 429.368,1312.29 431.345,1313.29 433.337,1314.27 435.345,1315.25 437.367,1316.22 439.404,1317.19 441.456,1318.14 443.523,1319.09 445.605,1320.02 447.703,1320.95 449.816,1321.88 451.945,1322.79 454.089,1323.7 456.249,1324.6 458.424,1325.49 460.616,1326.37 462.823,1327.25 465.046,1328.11 467.285,1328.97 469.54,1329.83 471.811,1330.67 474.099,1331.51 476.403,1332.34 478.723,1333.16 481.06,1333.98 483.414,1334.79 485.784,1335.59 488.171,1336.38 490.575,1337.17 492.996,1337.95 495.434,1338.72 497.889,1339.48 500.361,1340.24 502.851,1340.99 505.358,1341.73 507.882,1342.47 510.424,1343.2 512.984,1343.92 515.561,1344.63 518.156,1345.34 520.77,1346.04 523.401,1346.74 526.05,1347.42 528.718,1348.1 531.404,1348.78 534.108,1349.44 536.831,1350.1 539.572,1350.76 542.332,1351.4 545.111,1352.04 547.909,1352.68 550.726,1353.3 553.562,1353.92 556.417,1354.54 559.291,1355.14 562.185,1355.74 565.098,1356.34 568.03,1356.92 570.983,1357.51 573.955,1358.08 576.947,1358.65 579.959,1359.21 582.991,1359.76 586.043,1360.31 589.116,1360.85 592.209,1361.39 595.322,1361.92 598.456,1362.44 601.61,1362.96 604.786,1363.47 607.982,1363.97 611.199,1364.47 614.438,1364.96 617.697,1365.44 620.978,1365.92 624.28,1366.4 627.604,1366.86 630.949,1367.32 634.316,1367.78 637.705,1368.22 641.116,1368.67 644.549,1369.1 648.004,1369.53 651.482,1369.95 654.981,1370.37 658.503,1370.78 662.048,1371.19 665.615,1371.58 669.206,1371.98 672.819,1372.36 676.455,1372.74 680.114,1373.12 683.796,1373.48 687.502,1373.85 691.231,1374.2 694.984,1374.55 698.76,1374.9 702.56,1375.23 706.384,1375.56 710.232,1375.89 714.104,1376.21 718,1376.52 721.921,1376.83 725.866,1377.13 729.835,1377.43 733.829,1377.71 737.848,1378 741.891,1378.27 745.96,1378.54 750.053,1378.81 754.172,1379.07 758.316,1379.32 762.485,1379.57 766.68,1379.81 770.901,1380.04 775.147,1380.27 779.418,1380.49 783.716,1380.7 788.04,1380.91 792.39,1381.12 796.766,1381.31 801.168,1381.5 805.597,1381.69 810.052,1381.87 814.534,1382.04 819.043,1382.2 823.578,1382.36 828.141,1382.52 832.73,1382.66 837.347,1382.8 841.99,1382.94 846.661,1383.06 851.36,1383.18 856.086,1383.3 860.84,1383.41 865.621,1383.51 870.43,1383.6 875.267,1383.69 880.132,1383.78 885.025,1383.85 889.946,1383.92 894.895,1383.98 899.873,1384.04 904.879,1384.09 909.914,1384.13 914.977,1384.16 920.069,1384.19 925.19,1384.21 930.34,1384.23 935.518,1384.24 940.726,1384.24 945.962,1384.23 951.228,1384.22 956.523,1384.2 961.847,1384.17 967.201,1384.14 972.584,1384.1 977.996,1384.05 983.438,1383.99 988.91,1383.93 994.411,1383.86 999.943,1383.78 1005.5,1383.69 1011.09,1383.6 1016.72,1383.5 1022.37,1383.39 1028.05,1383.27 1033.76,1383.15 1039.5,1383.02 1045.27,1382.88 1051.07,1382.73 1056.9,1382.58 1062.76,1382.41 1068.66,1382.24 1074.58,1382.06 1080.53,1381.87 1086.51,1381.68 1092.53,1381.47 1098.57,1381.26 1104.64,1381.03 1110.75,1380.8 1116.88,1380.56 1123.05,1380.32 1129.25,1380.06 1135.47,1379.79 1141.73,1379.52 1148.02,1379.23 1154.33,1378.94 1160.68,1378.64 1167.06,1378.33 1173.47,1378 1179.91,1377.67 1186.37,1377.33 1192.87,1376.98 1199.4,1376.62 1205.96,1376.25 1212.55,1375.87 1219.17,1375.48 1225.82,1375.08 1232.5,1374.66 1239.21,1374.24 1245.95,1373.81 1252.71,1373.36 1259.51,1372.91 1266.34,1372.44 1273.19,1371.97 1280.08,1371.48 1286.99,1370.98 1293.94,1370.47 1300.91,1369.94 1307.91,1369.41 1314.94,1368.86 1322,1368.3 1329.08,1367.73 1336.19,1367.15 1343.34,1366.55 1350.5,1365.94 1357.7,1365.32 1364.92,1364.68 1372.17,1364.03 1379.45,1363.37 1386.76,1362.7 1394.09,1362.01 1401.44,1361.3 1408.82,1360.59 1416.23,1359.85 1423.67,1359.11 1431.12,1358.34 1438.61,1357.57 1446.11,1356.78 1453.64,1355.97 1461.2,1355.15 1468.78,1354.31 1476.38,1353.45 1484,1352.58 1491.65,1351.7 1499.32,1350.79 1507.01,1349.87 1514.72,1348.94 1522.45,1347.98 1530.2,1347.01 1537.97,1346.02 1545.76,1345.01 1553.57,1343.98 1561.4,1342.93 1569.25,1341.87 1577.11,1340.79 1584.99,1339.68 1592.89,1338.56 1600.8,1337.41 1608.73,1336.25 1616.67,1335.07 1624.62,1333.86 1632.59,1332.63 1640.57,1331.38 1648.57,1330.11 1656.57,1328.82 1664.59,1327.5 1672.61,1326.16 1680.64,1324.8 1688.69,1323.42 1696.74,1322.01 1704.79,1320.57 1712.85,1319.11 1720.92,1317.63 1728.99,1316.12 1737.07,1314.58 1745.15,1313.02 1753.22,1311.43 1761.3,1309.81 1769.38,1308.17 1777.46,1306.49 1785.53,1304.79 1793.6,1303.06 1801.67,1301.31 1809.73,1299.52 1817.79,1297.7 1825.83,1295.85 1833.87,1293.97 1841.9,1292.05 1849.91,1290.11 1857.91,1288.13 1865.9,1286.12 1873.87,1284.07 1881.83,1281.99 1889.77,1279.88 1897.69,1277.73 1905.59,1275.55 1913.46,1273.32 1921.31,1271.07 1929.14,1268.77 1936.94,1266.43 1944.71,1264.06 1952.45,1261.65 1960.16,1259.2 1967.84,1256.7 1975.48,1254.17 1983.09,1251.59 1990.65,1248.98 1998.18,1246.32 2005.67,1243.61 2013.11,1240.86 2020.5,1238.07 2027.85,1235.23 2035.15,1232.34 2042.4,1229.41 2049.59,1226.43 2056.73,1223.4 2063.81,1220.33 2070.83,1217.2 2077.78,1214.02 2084.68,1210.79 2091.51,1207.51 2098.27,1204.18 2104.96,1200.79 2111.57,1197.35 2118.11,1193.86 2124.58,1190.31 2130.96,1186.7 2137.26,1183.04 2143.47,1179.32 2149.6,1175.54 2155.64,1171.7 2161.58,1167.8 2167.43,1163.85 2173.19,1159.83 2178.84,1155.75 2184.39,1151.6 2189.83,1147.39 2195.16,1143.12 2200.39,1138.78 2205.5,1134.38 2210.49,1129.91 2215.37,1125.38 2220.12,1120.77 2224.74,1116.1 2229.24,1111.36 2233.61,1106.55 2237.85,1101.66 2241.95,1096.71 2245.91,1091.69 2249.72,1086.59 2253.39,1081.42 2256.92,1076.18 2260.29,1070.86 2263.51,1065.47 2266.57,1060 2269.48,1054.46 2272.22,1048.84 2274.79,1043.14 2277.2,1037.37 2279.44,1031.52 2281.5,1025.59 2283.39,1019.58 2285.09,1013.5 2286.62,1007.33 2287.96,1001.09 2289.11,994.769 2290.07,988.368 2290.84,981.887 2291.41,975.326 2291.79,968.686 2291.96,961.966 2291.93,955.167 2291.7,948.288 2291.26,941.33 2290.61,934.293 2289.74,927.176 2288.67,919.982 2287.37,912.709 2285.86,905.358 2284.13,897.93 2282.17,890.425 2279.99,882.843 2277.59,875.187 2274.96,867.455 2272.1,859.65 2269.01,851.772 2265.7,843.821 2262.15,835.799 2258.36,827.708 2254.35,819.547 2250.09,811.319 2245.61,803.025 2240.89,794.665 2235.93,786.242 2230.73,777.758 2225.3,769.212 2219.64,760.609 2213.74,751.948 2207.6,743.233 2201.23,734.465 2194.62,725.646 2187.78,716.778 2180.7,707.863 2173.4,698.904 2165.86,689.903 2158.1,680.862 2150.11,671.784 2141.89,662.671 2133.45,653.527 2124.79,644.353 2115.91,635.153 2106.81,625.929 2097.49,616.685 2087.97,607.423 2078.24,598.147 2068.3,588.859 2058.15,579.562 2047.81,570.261 2037.27,560.958 2026.54,551.657 2015.62,542.36 2004.51,533.072 1993.23,523.795 1981.76,514.534 1970.13,505.292 1958.32,496.073 1946.35,486.879 1934.23,477.715 1921.94,468.584 1909.51,459.491 1896.94,450.438 1884.22,441.429 1871.37,432.468 1858.39,423.559 1845.28,414.705 1832.06,405.909 1818.72,397.177 1805.27,388.51 1791.72,379.914 1778.07,371.39 1764.33,362.943 1750.51,354.577 1736.6,346.294 1722.62,338.098 1708.57,329.993 1694.46,321.981 1680.28,314.067 1666.06,306.252 1651.78,298.541 1637.47,290.936 1623.12,283.44 1608.74,276.056 1594.33,268.787 1579.9,261.636 1565.46,254.605 1551.01,247.697 1536.56,240.915 1522.11,234.26 1507.66,227.735 1493.22,221.342 1478.8,215.083 1464.41,208.961 1450.03,202.977 1435.69,197.133 1421.38,191.43 1407.11,185.871 1392.89,180.456 1378.71,175.187 1364.59,170.066 1350.52,165.093 1336.51,160.27 1322.56,155.597 1308.68,151.076 1294.88,146.707 1281.14,142.491 1267.49,138.428 1253.91,134.519 1240.42,130.764 1227.01,127.163 1213.7,123.717 1200.47,120.426 1187.34,117.289 1174.31,114.307 1161.38,111.479 1148.55,108.805 1135.82,106.284 1123.2,103.917 1110.68,101.702 1098.28,99.639 1085.98,97.7273 1073.8,95.966 1061.73,94.3542 1049.78,92.8911 1037.94,91.5756 1026.22,90.4067 1014.62,89.3833 1003.13,88.5042 991.772,87.7681 980.53,87.1737 969.409,86.7197 958.41,86.4048 947.533,86.2274 "/>
<path clip-path="url(#clip080)" d="M2013.97 196.789 L2281.17 196.789 L2281.17 93.1086 L2013.97 93.1086  Z" fill="#ffffff" fill-rule="evenodd" fill-opacity="1"/>
<polyline clip-path="url(#clip080)" style="stroke:#000000; stroke-linecap:round; stroke-linejoin:round; stroke-width:4; stroke-opacity:1; fill:none" points="2013.97,196.789 2281.17,196.789 2281.17,93.1086 2013.97,93.1086 2013.97,196.789 "/>
<polyline clip-path="url(#clip080)" style="stroke:#009af9; stroke-linecap:round; stroke-linejoin:round; stroke-width:4; stroke-opacity:1; fill:none" points="2037.84,144.949 2181.01,144.949 "/>
<path clip-path="url(#clip080)" d="M2218.72 164.636 Q2216.91 169.266 2215.2 170.678 Q2213.49 172.09 2210.62 172.09 L2207.21 172.09 L2207.21 168.525 L2209.71 168.525 Q2211.47 168.525 2212.44 167.692 Q2213.42 166.858 2214.6 163.756 L2215.36 161.812 L2204.88 136.303 L2209.39 136.303 L2217.49 156.581 L2225.59 136.303 L2230.11 136.303 L2218.72 164.636 Z" fill="#000000" fill-rule="evenodd" fill-opacity="1" /><path clip-path="url(#clip080)" d="M2237.4 158.293 L2245.04 158.293 L2245.04 131.928 L2236.73 133.595 L2236.73 129.335 L2244.99 127.669 L2249.67 127.669 L2249.67 158.293 L2257.31 158.293 L2257.31 162.229 L2237.4 162.229 L2237.4 158.293 Z" fill="#000000" fill-rule="evenodd" fill-opacity="1" /></svg>
