<?xml version="1.0" encoding="utf-8"?>
<svg xmlns="http://www.w3.org/2000/svg" xmlns:xlink="http://www.w3.org/1999/xlink" width="600" height="400" viewBox="0 0 2400 1600">
<defs>
  <clipPath id="clip030">
    <rect x="0" y="0" width="2400" height="1600"/>
  </clipPath>
</defs>
<path clip-path="url(#clip030)" d="M0 1600 L2400 1600 L2400 0 L0 0  Z" fill="#ffffff" fill-rule="evenodd" fill-opacity="1"/>
<defs>
  <clipPath id="clip031">
    <rect x="480" y="0" width="1681" height="1600"/>
  </clipPath>
</defs>
<path clip-path="url(#clip030)" d="M141.853 1486.45 L2352.76 1486.45 L2352.76 47.2441 L141.853 47.2441  Z" fill="#ffffff" fill-rule="evenodd" fill-opacity="1"/>
<defs>
  <clipPath id="clip032">
    <rect x="141" y="47" width="2212" height="1440"/>
  </clipPath>
</defs>
<polyline clip-path="url(#clip032)" style="stroke:#000000; stroke-linecap:round; stroke-linejoin:round; stroke-width:2; stroke-opacity:0.1; fill:none" points="204.426,1486.45 204.426,47.2441 "/>
<polyline clip-path="url(#clip032)" style="stroke:#000000; stroke-linecap:round; stroke-linejoin:round; stroke-width:2; stroke-opacity:0.1; fill:none" points="725.865,1486.45 725.865,47.2441 "/>
<polyline clip-path="url(#clip032)" style="stroke:#000000; stroke-linecap:round; stroke-linejoin:round; stroke-width:2; stroke-opacity:0.1; fill:none" points="1247.3,1486.45 1247.3,47.2441 "/>
<polyline clip-path="url(#clip032)" style="stroke:#000000; stroke-linecap:round; stroke-linejoin:round; stroke-width:2; stroke-opacity:0.1; fill:none" points="1768.74,1486.45 1768.74,47.2441 "/>
<polyline clip-path="url(#clip032)" style="stroke:#000000; stroke-linecap:round; stroke-linejoin:round; stroke-width:2; stroke-opacity:0.1; fill:none" points="2290.18,1486.45 2290.18,47.2441 "/>
<polyline clip-path="url(#clip030)" style="stroke:#000000; stroke-linecap:round; stroke-linejoin:round; stroke-width:4; stroke-opacity:1; fill:none" points="141.853,1486.45 2352.76,1486.45 "/>
<polyline clip-path="url(#clip030)" style="stroke:#000000; stroke-linecap:round; stroke-linejoin:round; stroke-width:4; stroke-opacity:1; fill:none" points="204.426,1486.45 204.426,1467.55 "/>
<polyline clip-path="url(#clip030)" style="stroke:#000000; stroke-linecap:round; stroke-linejoin:round; stroke-width:4; stroke-opacity:1; fill:none" points="725.865,1486.45 725.865,1467.55 "/>
<polyline clip-path="url(#clip030)" style="stroke:#000000; stroke-linecap:round; stroke-linejoin:round; stroke-width:4; stroke-opacity:1; fill:none" points="1247.3,1486.45 1247.3,1467.55 "/>
<polyline clip-path="url(#clip030)" style="stroke:#000000; stroke-linecap:round; stroke-linejoin:round; stroke-width:4; stroke-opacity:1; fill:none" points="1768.74,1486.45 1768.74,1467.55 "/>
<polyline clip-path="url(#clip030)" style="stroke:#000000; stroke-linecap:round; stroke-linejoin:round; stroke-width:4; stroke-opacity:1; fill:none" points="2290.18,1486.45 2290.18,1467.55 "/>
<path clip-path="url(#clip030)" d="M204.426 1517.37 Q200.815 1517.37 198.986 1520.93 Q197.18 1524.47 197.18 1531.6 Q197.18 1538.71 198.986 1542.27 Q200.815 1545.82 204.426 1545.82 Q208.06 1545.82 209.865 1542.27 Q211.694 1538.71 211.694 1531.6 Q211.694 1524.47 209.865 1520.93 Q208.06 1517.37 204.426 1517.37 M204.426 1513.66 Q210.236 1513.66 213.291 1518.27 Q216.37 1522.85 216.37 1531.6 Q216.37 1540.33 213.291 1544.94 Q210.236 1549.52 204.426 1549.52 Q198.616 1549.52 195.537 1544.94 Q192.481 1540.33 192.481 1531.6 Q192.481 1522.85 195.537 1518.27 Q198.616 1513.66 204.426 1513.66 Z" fill="#000000" fill-rule="evenodd" fill-opacity="1" /><path clip-path="url(#clip030)" d="M716.143 1514.29 L734.499 1514.29 L734.499 1518.22 L720.425 1518.22 L720.425 1526.7 Q721.444 1526.35 722.462 1526.19 Q723.481 1526 724.499 1526 Q730.286 1526 733.666 1529.17 Q737.046 1532.34 737.046 1537.76 Q737.046 1543.34 733.573 1546.44 Q730.101 1549.52 723.782 1549.52 Q721.606 1549.52 719.337 1549.15 Q717.092 1548.78 714.685 1548.04 L714.685 1543.34 Q716.768 1544.47 718.99 1545.03 Q721.212 1545.58 723.689 1545.58 Q727.694 1545.58 730.032 1543.48 Q732.37 1541.37 732.37 1537.76 Q732.37 1534.15 730.032 1532.04 Q727.694 1529.94 723.689 1529.94 Q721.814 1529.94 719.939 1530.35 Q718.087 1530.77 716.143 1531.65 L716.143 1514.29 Z" fill="#000000" fill-rule="evenodd" fill-opacity="1" /><path clip-path="url(#clip030)" d="M1221.99 1544.91 L1229.63 1544.91 L1229.63 1518.55 L1221.32 1520.21 L1221.32 1515.95 L1229.58 1514.29 L1234.26 1514.29 L1234.26 1544.91 L1241.9 1544.91 L1241.9 1548.85 L1221.99 1548.85 L1221.99 1544.91 Z" fill="#000000" fill-rule="evenodd" fill-opacity="1" /><path clip-path="url(#clip030)" d="M1261.34 1517.37 Q1257.73 1517.37 1255.9 1520.93 Q1254.1 1524.47 1254.1 1531.6 Q1254.1 1538.71 1255.9 1542.27 Q1257.73 1545.82 1261.34 1545.82 Q1264.98 1545.82 1266.78 1542.27 Q1268.61 1538.71 1268.61 1531.6 Q1268.61 1524.47 1266.78 1520.93 Q1264.98 1517.37 1261.34 1517.37 M1261.34 1513.66 Q1267.15 1513.66 1270.21 1518.27 Q1273.29 1522.85 1273.29 1531.6 Q1273.29 1540.33 1270.21 1544.94 Q1267.15 1549.52 1261.34 1549.52 Q1255.53 1549.52 1252.45 1544.94 Q1249.4 1540.33 1249.4 1531.6 Q1249.4 1522.85 1252.45 1518.27 Q1255.53 1513.66 1261.34 1513.66 Z" fill="#000000" fill-rule="evenodd" fill-opacity="1" /><path clip-path="url(#clip030)" d="M1743.93 1544.91 L1751.57 1544.91 L1751.57 1518.55 L1743.26 1520.21 L1743.26 1515.95 L1751.52 1514.29 L1756.2 1514.29 L1756.2 1544.91 L1763.84 1544.91 L1763.84 1548.85 L1743.93 1548.85 L1743.93 1544.91 Z" fill="#000000" fill-rule="evenodd" fill-opacity="1" /><path clip-path="url(#clip030)" d="M1773.33 1514.29 L1791.68 1514.29 L1791.68 1518.22 L1777.61 1518.22 L1777.61 1526.7 Q1778.63 1526.35 1779.65 1526.19 Q1780.67 1526 1781.68 1526 Q1787.47 1526 1790.85 1529.17 Q1794.23 1532.34 1794.23 1537.76 Q1794.23 1543.34 1790.76 1546.44 Q1787.29 1549.52 1780.97 1549.52 Q1778.79 1549.52 1776.52 1549.15 Q1774.28 1548.78 1771.87 1548.04 L1771.87 1543.34 Q1773.95 1544.47 1776.17 1545.03 Q1778.4 1545.58 1780.87 1545.58 Q1784.88 1545.58 1787.22 1543.48 Q1789.55 1541.37 1789.55 1537.76 Q1789.55 1534.15 1787.22 1532.04 Q1784.88 1529.94 1780.87 1529.94 Q1779 1529.94 1777.12 1530.35 Q1775.27 1530.77 1773.33 1531.65 L1773.33 1514.29 Z" fill="#000000" fill-rule="evenodd" fill-opacity="1" /><path clip-path="url(#clip030)" d="M2268.96 1544.91 L2285.28 1544.91 L2285.28 1548.85 L2263.33 1548.85 L2263.33 1544.91 Q2265.99 1542.16 2270.58 1537.53 Q2275.18 1532.88 2276.36 1531.53 Q2278.61 1529.01 2279.49 1527.27 Q2280.39 1525.51 2280.39 1523.82 Q2280.39 1521.07 2278.45 1519.33 Q2276.53 1517.6 2273.42 1517.6 Q2271.22 1517.6 2268.77 1518.36 Q2266.34 1519.13 2263.56 1520.68 L2263.56 1515.95 Q2266.39 1514.82 2268.84 1514.24 Q2271.29 1513.66 2273.33 1513.66 Q2278.7 1513.66 2281.9 1516.35 Q2285.09 1519.03 2285.09 1523.52 Q2285.09 1525.65 2284.28 1527.57 Q2283.49 1529.47 2281.39 1532.07 Q2280.81 1532.74 2277.71 1535.95 Q2274.6 1539.15 2268.96 1544.91 Z" fill="#000000" fill-rule="evenodd" fill-opacity="1" /><path clip-path="url(#clip030)" d="M2305.09 1517.37 Q2301.48 1517.37 2299.65 1520.93 Q2297.85 1524.47 2297.85 1531.6 Q2297.85 1538.71 2299.65 1542.27 Q2301.48 1545.82 2305.09 1545.82 Q2308.72 1545.82 2310.53 1542.27 Q2312.36 1538.71 2312.36 1531.6 Q2312.36 1524.47 2310.53 1520.93 Q2308.72 1517.37 2305.09 1517.37 M2305.09 1513.66 Q2310.9 1513.66 2313.96 1518.27 Q2317.03 1522.85 2317.03 1531.6 Q2317.03 1540.33 2313.96 1544.94 Q2310.9 1549.52 2305.09 1549.52 Q2299.28 1549.52 2296.2 1544.94 Q2293.15 1540.33 2293.15 1531.6 Q2293.15 1522.85 2296.2 1518.27 Q2299.28 1513.66 2305.09 1513.66 Z" fill="#000000" fill-rule="evenodd" fill-opacity="1" /><polyline clip-path="url(#clip032)" style="stroke:#000000; stroke-linecap:round; stroke-linejoin:round; stroke-width:2; stroke-opacity:0.1; fill:none" points="141.853,1288.22 2352.76,1288.22 "/>
<polyline clip-path="url(#clip032)" style="stroke:#000000; stroke-linecap:round; stroke-linejoin:round; stroke-width:2; stroke-opacity:0.1; fill:none" points="141.853,989.354 2352.76,989.354 "/>
<polyline clip-path="url(#clip032)" style="stroke:#000000; stroke-linecap:round; stroke-linejoin:round; stroke-width:2; stroke-opacity:0.1; fill:none" points="141.853,690.492 2352.76,690.492 "/>
<polyline clip-path="url(#clip032)" style="stroke:#000000; stroke-linecap:round; stroke-linejoin:round; stroke-width:2; stroke-opacity:0.1; fill:none" points="141.853,391.63 2352.76,391.63 "/>
<polyline clip-path="url(#clip032)" style="stroke:#000000; stroke-linecap:round; stroke-linejoin:round; stroke-width:2; stroke-opacity:0.1; fill:none" points="141.853,92.7678 2352.76,92.7678 "/>
<polyline clip-path="url(#clip030)" style="stroke:#000000; stroke-linecap:round; stroke-linejoin:round; stroke-width:4; stroke-opacity:1; fill:none" points="141.853,1486.45 141.853,47.2441 "/>
<polyline clip-path="url(#clip030)" style="stroke:#000000; stroke-linecap:round; stroke-linejoin:round; stroke-width:4; stroke-opacity:1; fill:none" points="141.853,1288.22 160.751,1288.22 "/>
<polyline clip-path="url(#clip030)" style="stroke:#000000; stroke-linecap:round; stroke-linejoin:round; stroke-width:4; stroke-opacity:1; fill:none" points="141.853,989.354 160.751,989.354 "/>
<polyline clip-path="url(#clip030)" style="stroke:#000000; stroke-linecap:round; stroke-linejoin:round; stroke-width:4; stroke-opacity:1; fill:none" points="141.853,690.492 160.751,690.492 "/>
<polyline clip-path="url(#clip030)" style="stroke:#000000; stroke-linecap:round; stroke-linejoin:round; stroke-width:4; stroke-opacity:1; fill:none" points="141.853,391.63 160.751,391.63 "/>
<polyline clip-path="url(#clip030)" style="stroke:#000000; stroke-linecap:round; stroke-linejoin:round; stroke-width:4; stroke-opacity:1; fill:none" points="141.853,92.7678 160.751,92.7678 "/>
<path clip-path="url(#clip030)" d="M54.5569 1301.56 L62.1958 1301.56 L62.1958 1275.2 L53.8856 1276.86 L53.8856 1272.6 L62.1495 1270.94 L66.8254 1270.94 L66.8254 1301.56 L74.4642 1301.56 L74.4642 1305.5 L54.5569 1305.5 L54.5569 1301.56 Z" fill="#000000" fill-rule="evenodd" fill-opacity="1" /><path clip-path="url(#clip030)" d="M93.9086 1274.02 Q90.2975 1274.02 88.4688 1277.58 Q86.6632 1281.12 86.6632 1288.25 Q86.6632 1295.36 88.4688 1298.92 Q90.2975 1302.46 93.9086 1302.46 Q97.5428 1302.46 99.3483 1298.92 Q101.177 1295.36 101.177 1288.25 Q101.177 1281.12 99.3483 1277.58 Q97.5428 1274.02 93.9086 1274.02 M93.9086 1270.31 Q99.7187 1270.31 102.774 1274.92 Q105.853 1279.5 105.853 1288.25 Q105.853 1296.98 102.774 1301.58 Q99.7187 1306.17 93.9086 1306.17 Q88.0984 1306.17 85.0197 1301.58 Q81.9642 1296.98 81.9642 1288.25 Q81.9642 1279.5 85.0197 1274.92 Q88.0984 1270.31 93.9086 1270.31 Z" fill="#000000" fill-rule="evenodd" fill-opacity="1" /><path clip-path="url(#clip030)" d="M57.7745 1002.7 L74.0939 1002.7 L74.0939 1006.63 L52.1495 1006.63 L52.1495 1002.7 Q54.8115 999.945 59.3949 995.315 Q64.0013 990.662 65.1819 989.32 Q67.4272 986.797 68.3068 985.061 Q69.2096 983.301 69.2096 981.611 Q69.2096 978.857 67.2652 977.121 Q65.3439 975.385 62.2421 975.385 Q60.043 975.385 57.5893 976.149 Q55.1588 976.912 52.381 978.463 L52.381 973.741 Q55.2051 972.607 57.6588 972.028 Q60.1124 971.449 62.1495 971.449 Q67.5198 971.449 70.7142 974.135 Q73.9087 976.82 73.9087 981.311 Q73.9087 983.44 73.0985 985.361 Q72.3115 987.26 70.205 989.852 Q69.6263 990.523 66.5245 993.741 Q63.4226 996.935 57.7745 1002.7 Z" fill="#000000" fill-rule="evenodd" fill-opacity="1" /><path clip-path="url(#clip030)" d="M93.9086 975.153 Q90.2975 975.153 88.4688 978.718 Q86.6632 982.26 86.6632 989.389 Q86.6632 996.496 88.4688 1000.06 Q90.2975 1003.6 93.9086 1003.6 Q97.5428 1003.6 99.3483 1000.06 Q101.177 996.496 101.177 989.389 Q101.177 982.26 99.3483 978.718 Q97.5428 975.153 93.9086 975.153 M93.9086 971.449 Q99.7187 971.449 102.774 976.056 Q105.853 980.639 105.853 989.389 Q105.853 998.116 102.774 1002.72 Q99.7187 1007.31 93.9086 1007.31 Q88.0984 1007.31 85.0197 1002.72 Q81.9642 998.116 81.9642 989.389 Q81.9642 980.639 85.0197 976.056 Q88.0984 971.449 93.9086 971.449 Z" fill="#000000" fill-rule="evenodd" fill-opacity="1" /><path clip-path="url(#clip030)" d="M67.9133 689.138 Q71.2698 689.856 73.1448 692.124 Q75.0429 694.393 75.0429 697.726 Q75.0429 702.842 71.5244 705.643 Q68.0059 708.444 61.5245 708.444 Q59.3486 708.444 57.0338 708.004 Q54.7421 707.587 52.2884 706.731 L52.2884 702.217 Q54.2328 703.351 56.5477 703.93 Q58.8625 704.508 61.3856 704.508 Q65.7837 704.508 68.0754 702.772 Q70.3902 701.036 70.3902 697.726 Q70.3902 694.67 68.2374 692.958 Q66.1078 691.221 62.2884 691.221 L58.2606 691.221 L58.2606 687.379 L62.4735 687.379 Q65.9226 687.379 67.7513 686.013 Q69.58 684.624 69.58 682.032 Q69.58 679.37 67.6819 677.958 Q65.8069 676.522 62.2884 676.522 Q60.3671 676.522 58.168 676.939 Q55.969 677.356 53.3301 678.235 L53.3301 674.069 Q55.9921 673.328 58.3069 672.958 Q60.6449 672.587 62.705 672.587 Q68.0291 672.587 71.1309 675.018 Q74.2327 677.425 74.2327 681.546 Q74.2327 684.416 72.5892 686.407 Q70.9457 688.374 67.9133 689.138 Z" fill="#000000" fill-rule="evenodd" fill-opacity="1" /><path clip-path="url(#clip030)" d="M93.9086 676.291 Q90.2975 676.291 88.4688 679.856 Q86.6632 683.397 86.6632 690.527 Q86.6632 697.633 88.4688 701.198 Q90.2975 704.74 93.9086 704.74 Q97.5428 704.74 99.3483 701.198 Q101.177 697.633 101.177 690.527 Q101.177 683.397 99.3483 679.856 Q97.5428 676.291 93.9086 676.291 M93.9086 672.587 Q99.7187 672.587 102.774 677.194 Q105.853 681.777 105.853 690.527 Q105.853 699.254 102.774 703.86 Q99.7187 708.444 93.9086 708.444 Q88.0984 708.444 85.0197 703.86 Q81.9642 699.254 81.9642 690.527 Q81.9642 681.777 85.0197 677.194 Q88.0984 672.587 93.9086 672.587 Z" fill="#000000" fill-rule="evenodd" fill-opacity="1" /><path clip-path="url(#clip030)" d="M66.5939 378.424 L54.7884 396.873 L66.5939 396.873 L66.5939 378.424 M65.367 374.35 L71.2466 374.35 L71.2466 396.873 L76.1772 396.873 L76.1772 400.762 L71.2466 400.762 L71.2466 408.91 L66.5939 408.91 L66.5939 400.762 L50.9921 400.762 L50.9921 396.248 L65.367 374.35 Z" fill="#000000" fill-rule="evenodd" fill-opacity="1" /><path clip-path="url(#clip030)" d="M93.9086 377.429 Q90.2975 377.429 88.4688 380.994 Q86.6632 384.535 86.6632 391.665 Q86.6632 398.771 88.4688 402.336 Q90.2975 405.878 93.9086 405.878 Q97.5428 405.878 99.3483 402.336 Q101.177 398.771 101.177 391.665 Q101.177 384.535 99.3483 380.994 Q97.5428 377.429 93.9086 377.429 M93.9086 373.725 Q99.7187 373.725 102.774 378.332 Q105.853 382.915 105.853 391.665 Q105.853 400.392 102.774 404.998 Q99.7187 409.581 93.9086 409.581 Q88.0984 409.581 85.0197 404.998 Q81.9642 400.392 81.9642 391.665 Q81.9642 382.915 85.0197 378.332 Q88.0984 373.725 93.9086 373.725 Z" fill="#000000" fill-rule="evenodd" fill-opacity="1" /><path clip-path="url(#clip030)" d="M53.793 75.4878 L72.1494 75.4878 L72.1494 79.423 L58.0754 79.423 L58.0754 87.8952 Q59.0939 87.5479 60.1124 87.3859 Q61.131 87.2007 62.1495 87.2007 Q67.9365 87.2007 71.3161 90.372 Q74.6957 93.5433 74.6957 98.9599 Q74.6957 104.539 71.2235 107.64 Q67.7513 110.719 61.4319 110.719 Q59.256 110.719 56.9875 110.349 Q54.7421 109.978 52.3347 109.238 L52.3347 104.539 Q54.418 105.673 56.6402 106.228 Q58.8625 106.784 61.3393 106.784 Q65.3439 106.784 67.6819 104.677 Q70.0198 102.571 70.0198 98.9599 Q70.0198 95.3488 67.6819 93.2424 Q65.3439 91.1359 61.3393 91.1359 Q59.4643 91.1359 57.5893 91.5526 Q55.7375 91.9692 53.793 92.8488 L53.793 75.4878 Z" fill="#000000" fill-rule="evenodd" fill-opacity="1" /><path clip-path="url(#clip030)" d="M93.9086 78.5665 Q90.2975 78.5665 88.4688 82.1313 Q86.6632 85.673 86.6632 92.8025 Q86.6632 99.909 88.4688 103.474 Q90.2975 107.015 93.9086 107.015 Q97.5428 107.015 99.3483 103.474 Q101.177 99.909 101.177 92.8025 Q101.177 85.673 99.3483 82.1313 Q97.5428 78.5665 93.9086 78.5665 M93.9086 74.8628 Q99.7187 74.8628 102.774 79.4693 Q105.853 84.0526 105.853 92.8025 Q105.853 101.529 102.774 106.136 Q99.7187 110.719 93.9086 110.719 Q88.0984 110.719 85.0197 106.136 Q81.9642 101.529 81.9642 92.8025 Q81.9642 84.0526 85.0197 79.4693 Q88.0984 74.8628 93.9086 74.8628 Z" fill="#000000" fill-rule="evenodd" fill-opacity="1" /><polyline clip-path="url(#clip032)" style="stroke:#009af9; stroke-linecap:round; stroke-linejoin:round; stroke-width:4; stroke-opacity:1; fill:none" points="204.426,720.378 205.469,716.093 206.511,711.8 207.554,707.501 208.597,703.194 209.64,698.881 210.683,694.563 211.726,690.238 212.769,685.909 213.812,681.575 214.854,677.236 215.897,672.893 216.94,668.547 217.983,664.198 219.026,659.846 220.069,655.492 221.112,651.137 222.155,646.78 223.197,642.423 224.24,638.065 225.283,633.708 226.326,629.352 227.369,624.997 228.412,620.644 229.455,616.294 230.498,611.947 231.541,607.604 232.583,603.266 233.626,598.932 234.669,594.604 235.712,590.283 236.755,585.969 237.798,581.662 238.841,577.364 239.884,573.075 240.926,568.796 241.969,564.527 243.012,560.271 244.055,556.026 245.098,551.794 246.141,547.576 247.184,543.373 248.227,539.185 249.269,535.014 250.312,530.86 251.355,526.724 252.398,522.607 253.441,518.51 254.484,514.434 255.527,510.38 256.57,506.349 257.612,502.341 258.655,498.359 259.698,494.403 260.741,490.473 261.784,486.572 262.827,482.699 263.87,478.857 264.913,475.046 265.956,471.268 266.998,467.524 268.041,463.814 269.084,460.14 270.127,456.504 271.17,452.906 272.213,449.347 273.256,445.83 274.299,442.355 275.341,438.924 276.384,435.537 277.427,432.196 278.47,428.904 279.513,425.659 280.556,422.466 281.599,419.323 282.642,416.234 283.684,413.2 284.727,410.221 285.77,407.3 286.813,404.437 287.856,401.635 288.899,398.894 289.942,396.217 290.985,393.604 292.027,391.058 293.07,388.579 294.113,386.17 295.156,383.832 296.199,381.566 297.242,379.374 298.285,377.258 299.328,375.218 300.371,373.257 301.413,371.377 302.456,369.578 303.499,367.862 304.542,366.232 305.585,364.688 306.628,363.231 307.671,361.865 308.714,360.589 309.756,359.406 310.799,358.318 311.842,357.324 312.885,356.428 313.928,355.631 314.971,354.934 316.014,354.338 317.057,353.845 318.099,353.457 319.142,353.175 320.185,352.999 321.228,352.933 322.271,352.975 323.314,353.13 324.357,353.396 325.4,353.776 326.442,354.27 327.485,354.881 328.528,355.608 329.571,356.453 330.614,357.418 331.657,358.502 332.7,359.707 333.743,361.034 334.786,362.483 335.828,364.056 336.871,365.752 337.914,367.573 338.957,369.52 340,371.592 341.043,373.79 342.086,376.115 343.129,378.566 344.171,381.145 345.214,383.851 346.257,386.684 347.3,389.645 348.343,392.733 349.386,395.948 350.429,399.29 351.472,402.759 352.514,406.354 353.557,410.075 354.6,413.921 355.643,417.892 356.686,421.988 357.729,426.206 358.772,430.547 359.815,435.009 360.857,439.592 361.9,444.293 362.943,449.113 363.986,454.05 365.029,459.102 366.072,464.268 367.115,469.546 368.158,474.935 369.201,480.433 370.243,486.038 371.286,491.748 372.329,497.562 373.372,503.478 374.415,509.492 375.458,515.604 376.501,521.81 377.544,528.109 378.586,534.498 379.629,540.975 380.672,547.538 381.715,554.183 382.758,560.908 383.801,567.71 384.844,574.588 385.887,581.537 386.929,588.556 387.972,595.641 389.015,602.789 390.058,609.998 391.101,617.265 392.144,624.587 393.187,631.96 394.23,639.382 395.272,646.85 396.315,654.361 397.358,661.912 398.401,669.499 399.444,677.12 400.487,684.772 401.53,692.452 402.573,700.156 403.616,707.882 404.658,715.627 405.701,723.387 406.744,731.16 407.787,738.944 408.83,746.734 409.873,754.529 410.916,762.325 411.959,770.12 413.001,777.91 414.044,785.694 415.087,793.469 416.13,801.232 417.173,808.98 418.216,816.712 419.259,824.424 420.302,832.114 421.344,839.78 422.387,847.42 423.43,855.031 424.473,862.611 425.516,870.159 426.559,877.672 427.602,885.148 428.645,892.586 429.687,899.983 430.73,907.338 431.773,914.649 432.816,921.915 433.859,929.133 434.902,936.303 435.945,943.423 436.988,950.491 438.031,957.507 439.073,964.469 440.116,971.376 441.159,978.227 442.202,985.02 443.245,991.756 444.288,998.432 445.331,1005.05 446.374,1011.6 447.416,1018.1 448.459,1024.53 449.502,1030.9 450.545,1037.2 451.588,1043.44 452.631,1049.62 453.674,1055.73 454.717,1061.78 455.759,1067.76 456.802,1073.68 457.845,1079.53 458.888,1085.31 459.931,1091.03 460.974,1096.68 462.017,1102.27 463.06,1107.78 464.102,1113.24 465.145,1118.62 466.188,1123.94 467.231,1129.19 468.274,1134.38 469.317,1139.5 470.36,1144.56 471.403,1149.55 472.446,1154.47 473.488,1159.33 474.531,1164.13 475.574,1168.86 476.617,1173.53 477.66,1178.13 478.703,1182.68 479.746,1187.15 480.789,1191.57 481.831,1195.93 482.874,1200.22 483.917,1204.46 484.96,1208.63 486.003,1212.75 487.046,1216.8 488.089,1220.8 489.132,1224.74 490.174,1228.62 491.217,1232.44 492.26,1236.21 493.303,1239.92 494.346,1243.58 495.389,1247.19 496.432,1250.74 497.475,1254.23 498.517,1257.67 499.56,1261.07 500.603,1264.41 501.646,1267.69 502.689,1270.93 503.732,1274.12 504.775,1277.26 505.818,1280.35 506.861,1283.4 507.903,1286.39 508.946,1289.34 509.989,1292.25 511.032,1295.11 512.075,1297.92 513.118,1300.69 514.161,1303.42 515.204,1306.1 516.246,1308.74 517.289,1311.34 518.332,1313.9 519.375,1316.41 520.418,1318.89 521.461,1321.33 522.504,1323.73 523.547,1326.08 524.589,1328.41 525.632,1330.69 526.675,1332.94 527.718,1335.15 528.761,1337.33 529.804,1339.47 530.847,1341.57 531.89,1343.64 532.932,1345.68 533.975,1347.69 535.018,1349.66 536.061,1351.6 537.104,1353.5 538.147,1355.38 539.19,1357.23 540.233,1359.04 541.276,1360.83 542.318,1362.58 543.361,1364.31 544.404,1366.01 545.447,1367.68 546.49,1369.32 547.533,1370.94 548.576,1372.53 549.619,1374.09 550.661,1375.62 551.704,1377.13 552.747,1378.62 553.79,1380.08 554.833,1381.52 555.876,1382.93 556.919,1384.31 557.962,1385.68 559.004,1387.02 560.047,1388.34 561.09,1389.63 562.133,1390.91 563.176,1392.16 564.219,1393.39 565.262,1394.6 566.305,1395.79 567.347,1396.95 568.39,1398.1 569.433,1399.23 570.476,1400.34 571.519,1401.43 572.562,1402.5 573.605,1403.55 574.648,1404.58 575.691,1405.6 576.733,1406.59 577.776,1407.57 578.819,1408.53 579.862,1409.48 580.905,1410.4 581.948,1411.32 582.991,1412.21 584.034,1413.09 585.076,1413.95 586.119,1414.8 587.162,1415.63 588.205,1416.44 589.248,1417.24 590.291,1418.03 591.334,1418.8 592.377,1419.56 593.419,1420.3 594.462,1421.03 595.505,1421.74 596.548,1422.44 597.591,1423.13 598.634,1423.8 599.677,1424.46 600.72,1425.11 601.762,1425.74 602.805,1426.36 603.848,1426.97 604.891,1427.57 605.934,1428.16 606.977,1428.73 608.02,1429.29 609.063,1429.84 610.106,1430.38 611.148,1430.9 612.191,1431.42 613.234,1431.92 614.277,1432.41 615.32,1432.9 616.363,1433.37 617.406,1433.83 618.449,1434.28 619.491,1434.72 620.534,1435.15 621.577,1435.57 622.62,1435.97 623.663,1436.37 624.706,1436.76 625.749,1437.14 626.792,1437.51 627.834,1437.87 628.877,1438.23 629.92,1438.57 630.963,1438.9 632.006,1439.23 633.049,1439.54 634.092,1439.85 635.135,1440.15 636.177,1440.43 637.22,1440.71 638.263,1440.99 639.306,1441.25 640.349,1441.5 641.392,1441.75 642.435,1441.99 643.478,1442.22 644.521,1442.44 645.563,1442.66 646.606,1442.86 647.649,1443.06 648.692,1443.25 649.735,1443.44 650.778,1443.61 651.821,1443.78 652.864,1443.94 653.906,1444.1 654.949,1444.24 655.992,1444.38 657.035,1444.51 658.078,1444.64 659.121,1444.76 660.164,1444.87 661.207,1444.97 662.249,1445.07 663.292,1445.16 664.335,1445.24 665.378,1445.31 666.421,1445.38 667.464,1445.45 668.507,1445.5 669.55,1445.55 670.592,1445.59 671.635,1445.63 672.678,1445.66 673.721,1445.68 674.764,1445.7 675.807,1445.71 676.85,1445.72 677.893,1445.71 678.936,1445.71 679.978,1445.69 681.021,1445.67 682.064,1445.64 683.107,1445.61 684.15,1445.57 685.193,1445.53 686.236,1445.48 687.279,1445.42 688.321,1445.36 689.364,1445.29 690.407,1445.21 691.45,1445.13 692.493,1445.05 693.536,1444.96 694.579,1444.86 695.622,1444.75 696.664,1444.64 697.707,1444.53 698.75,1444.41 699.793,1444.28 700.836,1444.15 701.879,1444.01 702.922,1443.87 703.965,1443.72 705.007,1443.56 706.05,1443.4 707.093,1443.24 708.136,1443.07 709.179,1442.89 710.222,1442.71 711.265,1442.52 712.308,1442.33 713.351,1442.13 714.393,1441.92 715.436,1441.71 716.479,1441.5 717.522,1441.28 718.565,1441.05 719.608,1440.82 720.651,1440.58 721.694,1440.34 722.736,1440.09 723.779,1439.84 724.822,1439.58 725.865,1439.31 726.908,1439.05 727.951,1438.77 728.994,1438.49 730.037,1438.2 731.079,1437.91 732.122,1437.62 733.165,1437.32 734.208,1437.01 735.251,1436.7 736.294,1436.38 737.337,1436.06 738.38,1435.73 739.422,1435.39 740.465,1435.05 741.508,1434.71 742.551,1434.36 743.594,1434 744.637,1433.64 745.68,1433.28 746.723,1432.9 747.766,1432.53 748.808,1432.15 749.851,1431.76 750.894,1431.36 751.937,1430.97 752.98,1430.56 754.023,1430.15 755.066,1429.74 756.109,1429.32 757.151,1428.89 758.194,1428.46 759.237,1428.02 760.28,1427.58 761.323,1427.13 762.366,1426.68 763.409,1426.22 764.452,1425.76 765.494,1425.29 766.537,1424.81 767.58,1424.33 768.623,1423.85 769.666,1423.35 770.709,1422.86 771.752,1422.35 772.795,1421.84 773.837,1421.33 774.88,1420.81 775.923,1420.28 776.966,1419.75 778.009,1419.21 779.052,1418.67 780.095,1418.12 781.138,1417.57 782.18,1417.01 783.223,1416.44 784.266,1415.87 785.309,1415.29 786.352,1414.71 787.395,1414.12 788.438,1413.53 789.481,1412.93 790.524,1412.32 791.566,1411.71 792.609,1411.09 793.652,1410.46 794.695,1409.83 795.738,1409.19 796.781,1408.55 797.824,1407.9 798.867,1407.25 799.909,1406.59 800.952,1405.92 801.995,1405.25 803.038,1404.57 804.081,1403.88 805.124,1403.19 806.167,1402.49 807.21,1401.79 808.252,1401.08 809.295,1400.36 810.338,1399.64 811.381,1398.91 812.424,1398.17 813.467,1397.43 814.51,1396.68 815.553,1395.92 816.595,1395.16 817.638,1394.39 818.681,1393.62 819.724,1392.84 820.767,1392.05 821.81,1391.25 822.853,1390.45 823.896,1389.64 824.939,1388.83 825.981,1388.01 827.024,1387.18 828.067,1386.34 829.11,1385.5 830.153,1384.65 831.196,1383.8 832.239,1382.93 833.282,1382.06 834.324,1381.19 835.367,1380.3 836.41,1379.41 837.453,1378.51 838.496,1377.61 839.539,1376.7 840.582,1375.78 841.625,1374.85 842.667,1373.91 843.71,1372.97 844.753,1372.02 845.796,1371.07 846.839,1370.1 847.882,1369.13 848.925,1368.15 849.968,1367.17 851.01,1366.17 852.053,1365.17 853.096,1364.16 854.139,1363.15 855.182,1362.12 856.225,1361.09 857.268,1360.05 858.311,1359 859.354,1357.95 860.396,1356.88 861.439,1355.81 862.482,1354.73 863.525,1353.64 864.568,1352.55 865.611,1351.45 866.654,1350.33 867.697,1349.21 868.739,1348.08 869.782,1346.95 870.825,1345.8 871.868,1344.65 872.911,1343.49 873.954,1342.32 874.997,1341.14 876.04,1339.95 877.082,1338.76 878.125,1337.55 879.168,1336.34 880.211,1335.12 881.254,1333.89 882.297,1332.65 883.34,1331.4 884.383,1330.14 885.425,1328.88 886.468,1327.6 887.511,1326.32 888.554,1325.02 889.597,1323.72 890.64,1322.41 891.683,1321.09 892.726,1319.76 893.769,1318.42 894.811,1317.07 895.854,1315.71 896.897,1314.35 897.94,1312.97 898.983,1311.58 900.026,1310.19 901.069,1308.78 902.112,1307.36 903.154,1305.94 904.197,1304.5 905.24,1303.06 906.283,1301.6 907.326,1300.14 908.369,1298.66 909.412,1297.18 910.455,1295.68 911.497,1294.18 912.54,1292.66 913.583,1291.14 914.626,1289.6 915.669,1288.06 916.712,1286.5 917.755,1284.93 918.798,1283.35 919.84,1281.77 920.883,1280.17 921.926,1278.56 922.969,1276.94 924.012,1275.31 925.055,1273.66 926.098,1272.01 927.141,1270.35 928.184,1268.67 929.226,1266.98 930.269,1265.29 931.312,1263.58 932.355,1261.86 933.398,1260.13 934.441,1258.39 935.484,1256.63 936.527,1254.87 937.569,1253.09 938.612,1251.3 939.655,1249.5 940.698,1247.69 941.741,1245.87 942.784,1244.03 943.827,1242.18 944.87,1240.33 945.912,1238.45 946.955,1236.57 947.998,1234.68 949.041,1232.77 950.084,1230.85 951.127,1228.92 952.17,1226.97 953.213,1225.02 954.255,1223.05 955.298,1221.07 956.341,1219.07 957.384,1217.07 958.427,1215.05 959.47,1213.01 960.513,1210.97 961.556,1208.91 962.599,1206.84 963.641,1204.76 964.684,1202.66 965.727,1200.55 966.77,1198.43 967.813,1196.29 968.856,1194.14 969.899,1191.98 970.942,1189.81 971.984,1187.62 973.027,1185.41 974.07,1183.2 975.113,1180.97 976.156,1178.72 977.199,1176.47 978.242,1174.19 979.285,1171.91 980.327,1169.61 981.37,1167.3 982.413,1164.97 983.456,1162.63 984.499,1160.28 985.542,1157.91 986.585,1155.52 987.628,1153.13 988.67,1150.71 989.713,1148.29 990.756,1145.85 991.799,1143.39 992.842,1140.92 993.885,1138.44 994.928,1135.94 995.971,1133.42 997.014,1130.89 998.056,1128.35 999.099,1125.79 1000.14,1123.22 1001.19,1120.63 1002.23,1118.03 1003.27,1115.41 1004.31,1112.78 1005.36,1110.13 1006.4,1107.46 1007.44,1104.79 1008.49,1102.09 1009.53,1099.38 1010.57,1096.66 1011.61,1093.92 1012.66,1091.16 1013.7,1088.39 1014.74,1085.6 1015.79,1082.8 1016.83,1079.98 1017.87,1077.14 1018.91,1074.29 1019.96,1071.43 1021,1068.55 1022.04,1065.65 1023.09,1062.74 1024.13,1059.81 1025.17,1056.86 1026.21,1053.9 1027.26,1050.92 1028.3,1047.93 1029.34,1044.92 1030.39,1041.9 1031.43,1038.85 1032.47,1035.8 1033.51,1032.72 1034.56,1029.63 1035.6,1026.52 1036.64,1023.4 1037.69,1020.26 1038.73,1017.11 1039.77,1013.94 1040.81,1010.75 1041.86,1007.54 1042.9,1004.32 1043.94,1001.08 1044.99,997.831 1046.03,994.561 1047.07,991.275 1048.11,987.972 1049.16,984.653 1050.2,981.317 1051.24,977.965 1052.29,974.597 1053.33,971.212 1054.37,967.811 1055.41,964.393 1056.46,960.959 1057.5,957.509 1058.54,954.042 1059.59,950.559 1060.63,947.06 1061.67,943.544 1062.71,940.013 1063.76,936.465 1064.8,932.901 1065.84,929.32 1066.89,925.724 1067.93,922.112 1068.97,918.483 1070.02,914.839 1071.06,911.178 1072.1,907.502 1073.14,903.81 1074.19,900.103 1075.23,896.379 1076.27,892.64 1077.32,888.886 1078.36,885.116 1079.4,881.33 1080.44,877.529 1081.49,873.713 1082.53,869.882 1083.57,866.036 1084.62,862.175 1085.66,858.299 1086.7,854.409 1087.74,850.504 1088.79,846.584 1089.83,842.65 1090.87,838.702 1091.92,834.739 1092.96,830.763 1094,826.773 1095.04,822.769 1096.09,818.751 1097.13,814.72 1098.17,810.676 1099.22,806.619 1100.26,802.549 1101.3,798.466 1102.34,794.371 1103.39,790.264 1104.43,786.144 1105.47,782.013 1106.52,777.869 1107.56,773.715 1108.6,769.549 1109.64,765.372 1110.69,761.184 1111.73,756.986 1112.77,752.777 1113.82,748.559 1114.86,744.331 1115.9,740.093 1116.94,735.846 1117.99,731.59 1119.03,727.326 1120.07,723.053 1121.12,718.773 1122.16,714.485 1123.2,710.189 1124.24,705.887 1125.29,701.578 1126.33,697.263 1127.37,692.942 1128.42,688.616 1129.46,684.285 1130.5,679.949 1131.54,675.608 1132.59,671.264 1133.63,666.917 1134.67,662.567 1135.72,658.214 1136.76,653.86 1137.8,649.504 1138.85,645.147 1139.89,640.789 1140.93,636.432 1141.97,632.075 1143.02,627.719 1144.06,623.365 1145.1,619.013 1146.15,614.664 1147.19,610.319 1148.23,605.977 1149.27,601.641 1150.32,597.309 1151.36,592.984 1152.4,588.665 1153.45,584.353 1154.49,580.05 1155.53,575.755 1156.57,571.47 1157.62,567.195 1158.66,562.93 1159.7,558.678 1160.75,554.438 1161.79,550.211 1162.83,545.999 1163.87,541.801 1164.92,537.62 1165.96,533.455 1167,529.307 1168.05,525.178 1169.09,521.069 1170.13,516.98 1171.17,512.912 1172.22,508.866 1173.26,504.844 1174.3,500.846 1175.35,496.873 1176.39,492.926 1177.43,489.007 1178.47,485.116 1179.52,481.255 1180.56,477.425 1181.6,473.626 1182.65,469.86 1183.69,466.129 1184.73,462.432 1185.77,458.773 1186.82,455.15 1187.86,451.567 1188.9,448.024 1189.95,444.523 1190.99,441.064 1192.03,437.649 1193.07,434.279 1194.12,430.956 1195.16,427.682 1196.2,424.456 1197.25,421.282 1198.29,418.159 1199.33,415.09 1200.37,412.076 1201.42,409.119 1202.46,406.22 1203.5,403.379 1204.55,400.6 1205.59,397.883 1206.63,395.23 1207.68,392.642 1208.72,390.121 1209.76,387.668 1210.8,385.285 1211.85,382.974 1212.89,380.736 1213.93,378.572 1214.98,376.484 1216.02,374.474 1217.06,372.543 1218.1,370.693 1219.15,368.925 1220.19,367.241 1221.23,365.643 1222.28,364.131 1223.32,362.709 1224.36,361.376 1225.4,360.135 1226.45,358.987 1227.49,357.934 1228.53,356.977 1229.58,356.118 1230.62,355.358 1231.66,354.699 1232.7,354.141 1233.75,353.688 1234.79,353.339 1235.83,353.096 1236.88,352.962 1237.92,352.936 1238.96,353.02 1240,353.216 1241.05,353.525 1242.09,353.948 1243.13,354.486 1244.18,355.14 1245.22,355.911 1246.26,356.801 1247.3,357.81 1248.35,358.939 1249.39,360.19 1250.43,361.563 1251.48,363.058 1252.52,364.677 1253.56,366.42 1254.6,368.288 1255.65,370.282 1256.69,372.401 1257.73,374.647 1258.78,377.019 1259.82,379.518 1260.86,382.144 1261.9,384.898 1262.95,387.779 1263.99,390.787 1265.03,393.923 1266.08,397.186 1267.12,400.575 1268.16,404.092 1269.2,407.734 1270.25,411.502 1271.29,415.395 1272.33,419.413 1273.38,423.555 1274.42,427.819 1275.46,432.205 1276.51,436.713 1277.55,441.34 1278.59,446.086 1279.63,450.95 1280.68,455.93 1281.72,461.025 1282.76,466.233 1283.81,471.553 1284.85,476.983 1285.89,482.522 1286.93,488.166 1287.98,493.916 1289.02,499.768 1290.06,505.721 1291.11,511.772 1292.15,517.919 1293.19,524.161 1294.23,530.494 1295.28,536.916 1296.32,543.425 1297.36,550.019 1298.41,556.694 1299.45,563.449 1300.49,570.28 1301.53,577.184 1302.58,584.16 1303.62,591.204 1304.66,598.313 1305.71,605.485 1306.75,612.716 1307.79,620.003 1308.83,627.345 1309.88,634.737 1310.92,642.177 1311.96,649.661 1313.01,657.187 1314.05,664.752 1315.09,672.352 1316.13,679.985 1317.18,687.648 1318.22,695.337 1319.26,703.05 1320.31,710.783 1321.35,718.534 1322.39,726.3 1323.43,734.077 1324.48,741.863 1325.52,749.656 1326.56,757.451 1327.61,765.247 1328.65,773.041 1329.69,780.829 1330.73,788.61 1331.78,796.381 1332.82,804.138 1333.86,811.881 1334.91,819.605 1335.95,827.309 1336.99,834.99 1338.03,842.647 1339.08,850.276 1340.12,857.876 1341.16,865.445 1342.21,872.98 1343.25,880.479 1344.29,887.941 1345.34,895.364 1346.38,902.745 1347.42,910.084 1348.46,917.378 1349.51,924.626 1350.55,931.827 1351.59,938.978 1352.64,946.079 1353.68,953.128 1354.72,960.123 1355.76,967.065 1356.81,973.951 1357.85,980.78 1358.89,987.552 1359.94,994.265 1360.98,1000.92 1362.02,1007.51 1363.06,1014.04 1364.11,1020.52 1365.15,1026.92 1366.19,1033.27 1367.24,1039.55 1368.28,1045.77 1369.32,1051.92 1370.36,1058.01 1371.41,1064.03 1372.45,1069.99 1373.49,1075.88 1374.54,1081.7 1375.58,1087.46 1376.62,1093.16 1377.66,1098.78 1378.71,1104.34 1379.75,1109.84 1380.79,1115.26 1381.84,1120.62 1382.88,1125.92 1383.92,1131.15 1384.96,1136.31 1386.01,1141.4 1387.05,1146.43 1388.09,1151.4 1389.14,1156.3 1390.18,1161.14 1391.22,1165.91 1392.26,1170.62 1393.31,1175.26 1394.35,1179.84 1395.39,1184.36 1396.44,1188.82 1397.48,1193.21 1398.52,1197.55 1399.56,1201.82 1400.61,1206.03 1401.65,1210.18 1402.69,1214.27 1403.74,1218.31 1404.78,1222.28 1405.82,1226.2 1406.86,1230.06 1407.91,1233.86 1408.95,1237.61 1409.99,1241.3 1411.04,1244.94 1412.08,1248.52 1413.12,1252.05 1414.17,1255.53 1415.21,1258.95 1416.25,1262.32 1417.29,1265.64 1418.34,1268.91 1419.38,1272.13 1420.42,1275.31 1421.47,1278.43 1422.51,1281.5 1423.55,1284.53 1424.59,1287.51 1425.64,1290.44 1426.68,1293.33 1427.72,1296.17 1428.77,1298.96 1429.81,1301.72 1430.85,1304.43 1431.89,1307.09 1432.94,1309.72 1433.98,1312.3 1435.02,1314.84 1436.07,1317.35 1437.11,1319.81 1438.15,1322.23 1439.19,1324.61 1440.24,1326.96 1441.28,1329.27 1442.32,1331.54 1443.37,1333.77 1444.41,1335.97 1445.45,1338.13 1446.49,1340.26 1447.54,1342.35 1448.58,1344.41 1449.62,1346.44 1450.67,1348.43 1451.71,1350.39 1452.75,1352.32 1453.79,1354.21 1454.84,1356.08 1455.88,1357.91 1456.92,1359.72 1457.97,1361.49 1459.01,1363.24 1460.05,1364.95 1461.09,1366.64 1462.14,1368.3 1463.18,1369.93 1464.22,1371.54 1465.27,1373.12 1466.31,1374.67 1467.35,1376.19 1468.39,1377.69 1469.44,1379.17 1470.48,1380.62 1471.52,1382.05 1472.57,1383.45 1473.61,1384.83 1474.65,1386.18 1475.69,1387.52 1476.74,1388.83 1477.78,1390.11 1478.82,1391.38 1479.87,1392.62 1480.91,1393.84 1481.95,1395.05 1483,1396.23 1484.04,1397.39 1485.08,1398.53 1486.12,1399.65 1487.17,1400.75 1488.21,1401.83 1489.25,1402.89 1490.3,1403.94 1491.34,1404.96 1492.38,1405.97 1493.42,1406.96 1494.47,1407.93 1495.51,1408.89 1496.55,1409.83 1497.6,1410.75 1498.64,1411.65 1499.68,1412.54 1500.72,1413.41 1501.77,1414.27 1502.81,1415.11 1503.85,1415.93 1504.9,1416.74 1505.94,1417.54 1506.98,1418.32 1508.02,1419.08 1509.07,1419.84 1510.11,1420.57 1511.15,1421.3 1512.2,1422 1513.24,1422.7 1514.28,1423.38 1515.32,1424.05 1516.37,1424.7 1517.41,1425.35 1518.45,1425.98 1519.5,1426.59 1520.54,1427.2 1521.58,1427.79 1522.62,1428.37 1523.67,1428.94 1524.71,1429.5 1525.75,1430.04 1526.8,1430.57 1527.84,1431.1 1528.88,1431.61 1529.92,1432.11 1530.97,1432.6 1532.01,1433.07 1533.05,1433.54 1534.1,1434 1535.14,1434.44 1536.18,1434.88 1537.22,1435.3 1538.27,1435.72 1539.31,1436.13 1540.35,1436.52 1541.4,1436.91 1542.44,1437.28 1543.48,1437.65 1544.52,1438.01 1545.57,1438.36 1546.61,1438.69 1547.65,1439.02 1548.7,1439.35 1549.74,1439.66 1550.78,1439.96 1551.83,1440.25 1552.87,1440.54 1553.91,1440.82 1554.95,1441.09 1556,1441.35 1557.04,1441.6 1558.08,1441.84 1559.13,1442.08 1560.17,1442.3 1561.21,1442.52 1562.25,1442.74 1563.3,1442.94 1564.34,1443.14 1565.38,1443.32 1566.43,1443.5 1567.47,1443.68 1568.51,1443.84 1569.55,1444 1570.6,1444.15 1571.64,1444.3 1572.68,1444.43 1573.73,1444.56 1574.77,1444.68 1575.81,1444.8 1576.85,1444.91 1577.9,1445.01 1578.94,1445.1 1579.98,1445.19 1581.03,1445.27 1582.07,1445.34 1583.11,1445.41 1584.15,1445.47 1585.2,1445.52 1586.24,1445.57 1587.28,1445.61 1588.33,1445.64 1589.37,1445.67 1590.41,1445.69 1591.45,1445.71 1592.5,1445.71 1593.54,1445.72 1594.58,1445.71 1595.63,1445.7 1596.67,1445.68 1597.71,1445.66 1598.75,1445.63 1599.8,1445.6 1600.84,1445.56 1601.88,1445.51 1602.93,1445.46 1603.97,1445.4 1605.01,1445.33 1606.05,1445.26 1607.1,1445.18 1608.14,1445.1 1609.18,1445.01 1610.23,1444.92 1611.27,1444.82 1612.31,1444.71 1613.35,1444.6 1614.4,1444.48 1615.44,1444.36 1616.48,1444.23 1617.53,1444.1 1618.57,1443.96 1619.61,1443.81 1620.66,1443.66 1621.7,1443.5 1622.74,1443.34 1623.78,1443.17 1624.83,1443 1625.87,1442.82 1626.91,1442.64 1627.96,1442.45 1629,1442.25 1630.04,1442.05 1631.08,1441.84 1632.13,1441.63 1633.17,1441.42 1634.21,1441.19 1635.26,1440.96 1636.3,1440.73 1637.34,1440.49 1638.38,1440.25 1639.43,1440 1640.47,1439.74 1641.51,1439.48 1642.56,1439.21 1643.6,1438.94 1644.64,1438.67 1645.68,1438.38 1646.73,1438.1 1647.77,1437.8 1648.81,1437.5 1649.86,1437.2 1650.9,1436.89 1651.94,1436.58 1652.98,1436.26 1654.03,1435.93 1655.07,1435.6 1656.11,1435.27 1657.16,1434.92 1658.2,1434.58 1659.24,1434.23 1660.28,1433.87 1661.33,1433.51 1662.37,1433.14 1663.41,1432.76 1664.46,1432.39 1665.5,1432 1666.54,1431.61 1667.58,1431.22 1668.63,1430.82 1669.67,1430.41 1670.71,1430 1671.76,1429.58 1672.8,1429.16 1673.84,1428.73 1674.88,1428.3 1675.93,1427.86 1676.97,1427.41 1678.01,1426.96 1679.06,1426.51 1680.1,1426.05 1681.14,1425.58 1682.18,1425.11 1683.23,1424.63 1684.27,1424.15 1685.31,1423.66 1686.36,1423.17 1687.4,1422.67 1688.44,1422.16 1689.49,1421.65 1690.53,1421.13 1691.57,1420.61 1692.61,1420.08 1693.66,1419.55 1694.7,1419.01 1695.74,1418.47 1696.79,1417.92 1697.83,1417.36 1698.87,1416.8 1699.91,1416.23 1700.96,1415.66 1702,1415.08 1703.04,1414.49 1704.09,1413.9 1705.13,1413.3 1706.17,1412.7 1707.21,1412.09 1708.26,1411.47 1709.3,1410.85 1710.34,1410.23 1711.39,1409.59 1712.43,1408.95 1713.47,1408.31 1714.51,1407.66 1715.56,1407 1716.6,1406.34 1717.64,1405.67 1718.69,1404.99 1719.73,1404.31 1720.77,1403.62 1721.81,1402.93 1722.86,1402.23 1723.9,1401.52 1724.94,1400.81 1725.99,1400.09 1727.03,1399.36 1728.07,1398.63 1729.11,1397.89 1730.16,1397.15 1731.2,1396.4 1732.24,1395.64 1733.29,1394.87 1734.33,1394.1 1735.37,1393.33 1736.41,1392.54 1737.46,1391.75 1738.5,1390.95 1739.54,1390.15 1740.59,1389.34 1741.63,1388.52 1742.67,1387.7 1743.71,1386.87 1744.76,1386.03 1745.8,1385.18 1746.84,1384.33 1747.89,1383.47 1748.93,1382.61 1749.97,1381.74 1751.01,1380.86 1752.06,1379.97 1753.1,1379.08 1754.14,1378.17 1755.19,1377.27 1756.23,1376.35 1757.27,1375.43 1758.32,1374.5 1759.36,1373.56 1760.4,1372.62 1761.44,1371.67 1762.49,1370.71 1763.53,1369.74 1764.57,1368.77 1765.62,1367.79 1766.66,1366.8 1767.7,1365.8 1768.74,1364.8 1769.79,1363.78 1770.83,1362.76 1771.87,1361.74 1772.92,1360.7 1773.96,1359.66 1775,1358.61 1776.04,1357.55 1777.09,1356.48 1778.13,1355.41 1779.17,1354.33 1780.22,1353.24 1781.26,1352.14 1782.3,1351.03 1783.34,1349.91 1784.39,1348.79 1785.43,1347.66 1786.47,1346.52 1787.52,1345.37 1788.56,1344.22 1789.6,1343.05 1790.64,1341.88 1791.69,1340.7 1792.73,1339.5 1793.77,1338.31 1794.82,1337.1 1795.86,1335.88 1796.9,1334.66 1797.94,1333.42 1798.99,1332.18 1800.03,1330.93 1801.07,1329.67 1802.12,1328.4 1803.16,1327.12 1804.2,1325.83 1805.24,1324.54 1806.29,1323.23 1807.33,1321.92 1808.37,1320.59 1809.42,1319.26 1810.46,1317.92 1811.5,1316.56 1812.54,1315.2 1813.59,1313.83 1814.63,1312.45 1815.67,1311.06 1816.72,1309.66 1817.76,1308.25 1818.8,1306.83 1819.84,1305.4 1820.89,1303.96 1821.93,1302.52 1822.97,1301.06 1824.02,1299.59 1825.06,1298.11 1826.1,1296.62 1827.15,1295.12 1828.19,1293.61 1829.23,1292.09 1830.27,1290.56 1831.32,1289.02 1832.36,1287.47 1833.4,1285.91 1834.45,1284.34 1835.49,1282.76 1836.53,1281.17 1837.57,1279.56 1838.62,1277.95 1839.66,1276.33 1840.7,1274.69 1841.75,1273.04 1842.79,1271.39 1843.83,1269.72 1844.87,1268.04 1845.92,1266.35 1846.96,1264.65 1848,1262.94 1849.05,1261.21 1850.09,1259.48 1851.13,1257.73 1852.17,1255.97 1853.22,1254.2 1854.26,1252.42 1855.3,1250.63 1856.35,1248.82 1857.39,1247.01 1858.43,1245.18 1859.47,1243.34 1860.52,1241.49 1861.56,1239.63 1862.6,1237.75 1863.65,1235.86 1864.69,1233.96 1865.73,1232.05 1866.77,1230.13 1867.82,1228.19 1868.86,1226.24 1869.9,1224.28 1870.95,1222.31 1871.99,1220.32 1873.03,1218.32 1874.07,1216.31 1875.12,1214.29 1876.16,1212.25 1877.2,1210.2 1878.25,1208.14 1879.29,1206.06 1880.33,1203.97 1881.37,1201.87 1882.42,1199.76 1883.46,1197.63 1884.5,1195.49 1885.55,1193.33 1886.59,1191.17 1887.63,1188.99 1888.67,1186.79 1889.72,1184.58 1890.76,1182.36 1891.8,1180.13 1892.85,1177.88 1893.89,1175.62 1894.93,1173.34 1895.98,1171.05 1897.02,1168.75 1898.06,1166.43 1899.1,1164.1 1900.15,1161.75 1901.19,1159.39 1902.23,1157.01 1903.28,1154.63 1904.32,1152.22 1905.36,1149.81 1906.4,1147.37 1907.45,1144.93 1908.49,1142.47 1909.53,1139.99 1910.58,1137.5 1911.62,1135 1912.66,1132.48 1913.7,1129.94 1914.75,1127.39 1915.79,1124.83 1916.83,1122.25 1917.88,1119.66 1918.92,1117.05 1919.96,1114.42 1921,1111.79 1922.05,1109.13 1923.09,1106.46 1924.13,1103.78 1925.18,1101.08 1926.22,1098.36 1927.26,1095.63 1928.3,1092.88 1929.35,1090.12 1930.39,1087.34 1931.43,1084.55 1932.48,1081.74 1933.52,1078.92 1934.56,1076.08 1935.6,1073.22 1936.65,1070.35 1937.69,1067.46 1938.73,1064.56 1939.78,1061.64 1940.82,1058.71 1941.86,1055.75 1942.9,1052.79 1943.95,1049.8 1944.99,1046.8 1946.03,1043.79 1947.08,1040.76 1948.12,1037.71 1949.16,1034.65 1950.2,1031.57 1951.25,1028.47 1952.29,1025.36 1953.33,1022.23 1954.38,1019.08 1955.42,1015.92 1956.46,1012.74 1957.5,1009.55 1958.55,1006.34 1959.59,1003.11 1960.63,999.867 1961.68,996.607 1962.72,993.331 1963.76,990.039 1964.81,986.73 1965.85,983.404 1966.89,980.063 1967.93,976.704 1968.98,973.33 1970.02,969.939 1971.06,966.531 1972.11,963.108 1973.15,959.668 1974.19,956.211 1975.23,952.738 1976.28,949.249 1977.32,945.744 1978.36,942.222 1979.41,938.685 1980.45,935.131 1981.49,931.56 1982.53,927.974 1983.58,924.372 1984.62,920.753 1985.66,917.119 1986.71,913.468 1987.75,909.802 1988.79,906.12 1989.83,902.422 1990.88,898.709 1991.92,894.979 1992.96,891.234 1994.01,887.474 1995.05,883.698 1996.09,879.907 1997.13,876.101 1998.18,872.279 1999.22,868.442 2000.26,864.591 2001.31,860.724 2002.35,856.843 2003.39,852.947 2004.43,849.036 2005.48,845.111 2006.52,841.172 2007.56,837.218 2008.61,833.25 2009.65,829.269 2010.69,825.273 2011.73,821.264 2012.78,817.242 2013.82,813.206 2014.86,809.157 2015.91,805.095 2016.95,801.02 2017.99,796.933 2019.03,792.833 2020.08,788.721 2021.12,784.597 2022.16,780.461 2023.21,776.313 2024.25,772.154 2025.29,767.984 2026.33,763.803 2027.38,759.612 2028.42,755.41 2029.46,751.197 2030.51,746.975 2031.55,742.743 2032.59,738.502 2033.64,734.252 2034.68,729.993 2035.72,725.725 2036.76,721.45 2037.81,717.166 2038.85,712.876 2039.89,708.577 2040.94,704.273 2041.98,699.961 2043.02,695.644 2044.06,691.321 2045.11,686.993 2046.15,682.66 2047.19,678.322 2048.24,673.98 2049.28,669.635 2050.32,665.287 2051.36,660.936 2052.41,656.582 2053.45,652.227 2054.49,647.87 2055.54,643.513 2056.58,639.156 2057.62,634.798 2058.66,630.442 2059.71,626.087 2060.75,621.733 2061.79,617.383 2062.84,613.035 2063.88,608.691 2064.92,604.351 2065.96,600.016 2067.01,595.687 2068.05,591.364 2069.09,587.048 2070.14,582.739 2071.18,578.439 2072.22,574.147 2073.26,569.866 2074.31,565.595 2075.35,561.335 2076.39,557.087 2077.44,552.852 2078.48,548.631 2079.52,544.424 2080.56,540.232 2081.61,536.056 2082.65,531.898 2083.69,527.757 2084.74,523.635 2085.78,519.533 2086.82,515.452 2087.86,511.393 2088.91,507.355 2089.95,503.342 2090.99,499.353 2092.04,495.39 2093.08,491.454 2094.12,487.545 2095.16,483.666 2096.21,479.816 2097.25,475.997 2098.29,472.211 2099.34,468.458 2100.38,464.739 2101.42,461.056 2102.47,457.41 2103.51,453.803 2104.55,450.234 2105.59,446.707 2106.64,443.221 2107.68,439.778 2108.72,436.38 2109.77,433.028 2110.81,429.723 2111.85,426.467 2112.89,423.26 2113.94,420.105 2114.98,417.002 2116.02,413.954 2117.07,410.961 2118.11,408.025 2119.15,405.148 2120.19,402.33 2121.24,399.574 2122.28,396.881 2123.32,394.252 2124.37,391.689 2125.41,389.193 2126.45,386.767 2127.49,384.41 2128.54,382.126 2129.58,379.916 2130.62,377.78 2131.67,375.721 2132.71,373.741 2133.75,371.84 2134.79,370.02 2135.84,368.284 2136.88,366.632 2137.92,365.066 2138.97,363.588 2140.01,362.198 2141.05,360.9 2142.09,359.694 2143.14,358.581 2144.18,357.564 2145.22,356.643 2146.27,355.821 2147.31,355.099 2148.35,354.478 2149.39,353.959 2150.44,353.544 2151.48,353.235 2152.52,353.033 2153.57,352.939 2154.61,352.954 2155.65,353.08 2156.69,353.319 2157.74,353.67 2158.78,354.136 2159.82,354.717 2160.87,355.415 2161.91,356.231 2162.95,357.165 2163.99,358.219 2165.04,359.394 2166.08,360.69 2167.12,362.109 2168.17,363.651 2169.21,365.316 2170.25,367.106 2171.3,369.021 2172.34,371.061 2173.38,373.228 2174.42,375.521 2175.47,377.941 2176.51,380.488 2177.55,383.162 2178.6,385.963 2179.64,388.892 2180.68,391.948 2181.72,395.131 2182.77,398.442 2183.81,401.879 2184.85,405.442 2185.9,409.132 2186.94,412.947 2187.98,416.887 2189.02,420.951 2190.07,425.139 2191.11,429.449 2192.15,433.881 2193.2,438.433 2194.24,443.106 2195.28,447.896 2196.32,452.804 2197.37,457.827 2198.41,462.964 2199.45,468.215 2200.5,473.576 2201.54,479.047 2202.58,484.625 2203.62,490.309 2204.67,496.098 2205.71,501.988 2206.75,507.978 2207.8,514.065 2208.84,520.248 2209.88,526.524 2210.92,532.891 2211.97,539.346 2213.01,545.887 2214.05,552.512 2215.1,559.217 2216.14,566.001 2217.18,572.86 2218.22,579.791 2219.27,586.793 2220.31,593.861 2221.35,600.994 2222.4,608.188 2223.44,615.441 2224.48,622.749 2225.52,630.11 2226.57,637.52 2227.61,644.977 2228.65,652.478 2229.7,660.019 2230.74,667.597 2231.78,675.21 2232.82,682.854 2233.87,690.527 2234.91,698.226 2235.95,705.946 2237,713.687 2238.04,721.443 2239.08,729.214 2240.12,736.995 2241.17,744.784 2242.21,752.578 2243.25,760.374 2244.3,768.169 2245.34,775.961 2246.38,783.747 2247.43,791.524 2248.47,799.29 2249.51,807.042 2250.55,814.778 2251.6,822.495 2252.64,830.191 2253.68,837.864 2254.73,845.51 2255.77,853.129 2256.81,860.717 2257.85,868.273 2258.9,875.795 2259.94,883.281 2260.98,890.728 2262.03,898.136 2263.07,905.501 2264.11,912.824 2265.15,920.101 2266.2,927.331 2267.24,934.513 2268.28,941.646 2269.33,948.727 2270.37,955.756 2271.41,962.732 2272.45,969.653 2273.5,976.518 2274.54,983.325 2275.58,990.075 2276.63,996.766 2277.67,1003.4 2278.71,1009.97 2279.75,1016.48 2280.8,1022.93 2281.84,1029.31 2282.88,1035.63 2283.93,1041.89 2284.97,1048.08 2286.01,1054.21 2287.05,1060.27 2288.1,1066.27 2289.14,1072.2 2290.18,1078.07 "/>
<polyline clip-path="url(#clip032)" style="stroke:#e26f46; stroke-linecap:round; stroke-linejoin:round; stroke-width:4; stroke-opacity:1; fill:none" points="204.426,1377.88 205.469,1376.65 206.511,1375.4 207.554,1374.12 208.597,1372.83 209.64,1371.51 210.683,1370.17 211.726,1368.81 212.769,1367.42 213.812,1366.01 214.854,1364.57 215.897,1363.11 216.94,1361.62 217.983,1360.11 219.026,1358.57 220.069,1357 221.112,1355.41 222.155,1353.79 223.197,1352.15 224.24,1350.47 225.283,1348.77 226.326,1347.03 227.369,1345.27 228.412,1343.48 229.455,1341.65 230.498,1339.8 231.541,1337.91 232.583,1336 233.626,1334.05 234.669,1332.06 235.712,1330.05 236.755,1328 237.798,1325.91 238.841,1323.79 239.884,1321.64 240.926,1319.45 241.969,1317.22 243.012,1314.96 244.055,1312.65 245.098,1310.31 246.141,1307.93 247.184,1305.51 248.227,1303.05 249.269,1300.55 250.312,1298.01 251.355,1295.43 252.398,1292.8 253.441,1290.13 254.484,1287.42 255.527,1284.66 256.57,1281.86 257.612,1279.01 258.655,1276.12 259.698,1273.17 260.741,1270.18 261.784,1267.15 262.827,1264.06 263.87,1260.92 264.913,1257.73 265.956,1254.49 266.998,1251.2 268.041,1247.85 269.084,1244.45 270.127,1241 271.17,1237.49 272.213,1233.93 273.256,1230.3 274.299,1226.63 275.341,1222.89 276.384,1219.09 277.427,1215.24 278.47,1211.32 279.513,1207.35 280.556,1203.31 281.599,1199.21 282.642,1195.04 283.684,1190.81 284.727,1186.52 285.77,1182.16 286.813,1177.73 287.856,1173.24 288.899,1168.68 289.942,1164.05 290.985,1159.35 292.027,1154.58 293.07,1149.74 294.113,1144.83 295.156,1139.85 296.199,1134.79 297.242,1129.66 298.285,1124.45 299.328,1119.17 300.371,1113.82 301.413,1108.39 302.456,1102.88 303.499,1097.3 304.542,1091.63 305.585,1085.89 306.628,1080.07 307.671,1074.17 308.714,1068.2 309.756,1062.14 310.799,1056 311.842,1049.78 312.885,1043.48 313.928,1037.1 314.971,1030.63 316.014,1024.09 317.057,1017.46 318.099,1010.75 319.142,1003.96 320.185,997.085 321.228,990.129 322.271,983.091 323.314,975.971 324.357,968.769 325.4,961.485 326.442,954.12 327.485,946.674 328.528,939.147 329.571,931.54 330.614,923.853 331.657,916.088 332.7,908.244 333.743,900.322 334.786,892.323 335.828,884.248 336.871,876.098 337.914,867.874 338.957,859.576 340,851.207 341.043,842.767 342.086,834.257 343.129,825.679 344.171,817.035 345.214,808.325 346.257,799.552 347.3,790.718 348.343,781.823 349.386,772.87 350.429,763.861 351.472,754.798 352.514,745.683 353.557,736.518 354.6,727.305 355.643,718.047 356.686,708.746 357.729,699.406 358.772,690.027 359.815,680.613 360.857,671.167 361.9,661.692 362.943,652.19 363.986,642.665 365.029,633.119 366.072,623.555 367.115,613.978 368.158,604.389 369.201,594.793 370.243,585.192 371.286,575.59 372.329,565.991 373.372,556.398 374.415,546.814 375.458,537.244 376.501,527.69 377.544,518.156 378.586,508.647 379.629,499.165 380.672,489.715 381.715,480.301 382.758,470.925 383.801,461.593 384.844,452.307 385.887,443.071 386.929,433.889 387.972,424.766 389.015,415.704 390.058,406.708 391.101,397.781 392.144,388.927 393.187,380.149 394.23,371.451 395.272,362.837 396.315,354.311 397.358,345.875 398.401,337.533 399.444,329.289 400.487,321.146 401.53,313.107 402.573,305.175 403.616,297.354 404.658,289.646 405.701,282.055 406.744,274.582 407.787,267.233 408.83,260.007 409.873,252.91 410.916,245.942 411.959,239.107 413.001,232.406 414.044,225.843 415.087,219.418 416.13,213.135 417.173,206.994 418.216,200.999 419.259,195.15 420.302,189.449 421.344,183.898 422.387,178.499 423.43,173.251 424.473,168.157 425.516,163.218 426.559,158.434 427.602,153.807 428.645,149.337 429.687,145.025 430.73,140.871 431.773,136.876 432.816,133.041 433.859,129.364 434.902,125.848 435.945,122.491 436.988,119.293 438.031,116.255 439.073,113.376 440.116,110.656 441.159,108.094 442.202,105.69 443.245,103.443 444.288,101.353 445.331,99.419 446.374,97.6398 447.416,96.0148 448.459,94.543 449.502,93.2232 450.545,92.0545 451.588,91.0356 452.631,90.1653 453.674,89.4423 454.717,88.8652 455.759,88.4327 456.802,88.1433 457.845,87.9955 458.888,87.9877 459.931,88.1184 460.974,88.3859 462.017,88.7886 463.06,89.3247 464.102,89.9924 465.145,90.7901 466.188,91.716 467.231,92.7681 468.274,93.9447 469.317,95.2438 470.36,96.6636 471.403,98.2022 472.446,99.8576 473.488,101.628 474.531,103.511 475.574,105.505 476.617,107.609 477.66,109.819 478.703,112.134 479.746,114.553 480.789,117.072 481.831,119.69 482.874,122.406 483.917,125.217 484.96,128.12 486.003,131.115 487.046,134.2 488.089,137.371 489.132,140.627 490.174,143.967 491.217,147.389 492.26,150.889 493.303,154.468 494.346,158.122 495.389,161.849 496.432,165.649 497.475,169.519 498.517,173.457 499.56,177.461 500.603,181.53 501.646,185.662 502.689,189.855 503.732,194.108 504.775,198.418 505.818,202.784 506.861,207.204 507.903,211.677 508.946,216.201 509.989,220.774 511.032,225.395 512.075,230.062 513.118,234.773 514.161,239.528 515.204,244.325 516.246,249.161 517.289,254.036 518.332,258.949 519.375,263.897 520.418,268.88 521.461,273.896 522.504,278.943 523.547,284.021 524.589,289.128 525.632,294.263 526.675,299.424 527.718,304.611 528.761,309.821 529.804,315.055 530.847,320.31 531.89,325.586 532.932,330.882 533.975,336.196 535.018,341.527 536.061,346.874 537.104,352.237 538.147,357.613 539.19,363.003 540.233,368.405 541.276,373.819 542.318,379.242 543.361,384.675 544.404,390.117 545.447,395.566 546.49,401.022 547.533,406.484 548.576,411.951 549.619,417.422 550.661,422.897 551.704,428.374 552.747,433.853 553.79,439.334 554.833,444.815 555.876,450.296 556.919,455.776 557.962,461.254 559.004,466.731 560.047,472.204 561.09,477.674 562.133,483.14 563.176,488.601 564.219,494.057 565.262,499.508 566.305,504.952 567.347,510.389 568.39,515.818 569.433,521.24 570.476,526.653 571.519,532.058 572.562,537.453 573.605,542.838 574.648,548.213 575.691,553.578 576.733,558.931 577.776,564.273 578.819,569.603 579.862,574.92 580.905,580.225 581.948,585.517 582.991,590.796 584.034,596.061 585.076,601.312 586.119,606.548 587.162,611.77 588.205,616.977 589.248,622.168 590.291,627.344 591.334,632.504 592.377,637.648 593.419,642.776 594.462,647.887 595.505,652.981 596.548,658.058 597.591,663.118 598.634,668.16 599.677,673.185 600.72,678.192 601.762,683.18 602.805,688.15 603.848,693.102 604.891,698.035 605.934,702.949 606.977,707.844 608.02,712.721 609.063,717.577 610.106,722.415 611.148,727.232 612.191,732.031 613.234,736.809 614.277,741.567 615.32,746.305 616.363,751.024 617.406,755.721 618.449,760.399 619.491,765.056 620.534,769.693 621.577,774.309 622.62,778.904 623.663,783.478 624.706,788.032 625.749,792.565 626.792,797.077 627.834,801.567 628.877,806.037 629.92,810.486 630.963,814.913 632.006,819.319 633.049,823.705 634.092,828.068 635.135,832.411 636.177,836.732 637.22,841.032 638.263,845.311 639.306,849.568 640.349,853.803 641.392,858.018 642.435,862.211 643.478,866.382 644.521,870.533 645.563,874.661 646.606,878.769 647.649,882.855 648.692,886.92 649.735,890.963 650.778,894.985 651.821,898.985 652.864,902.965 653.906,906.923 654.949,910.859 655.992,914.775 657.035,918.669 658.078,922.542 659.121,926.394 660.164,930.225 661.207,934.034 662.249,937.823 663.292,941.591 664.335,945.337 665.378,949.063 666.421,952.768 667.464,956.452 668.507,960.115 669.55,963.757 670.592,967.379 671.635,970.98 672.678,974.561 673.721,978.12 674.764,981.66 675.807,985.179 676.85,988.677 677.893,992.156 678.936,995.614 679.978,999.052 681.021,1002.47 682.064,1005.87 683.107,1009.24 684.15,1012.6 685.193,1015.94 686.236,1019.26 687.279,1022.56 688.321,1025.83 689.364,1029.09 690.407,1032.33 691.45,1035.55 692.493,1038.75 693.536,1041.93 694.579,1045.09 695.622,1048.24 696.664,1051.36 697.707,1054.46 698.75,1057.55 699.793,1060.62 700.836,1063.66 701.879,1066.69 702.922,1069.7 703.965,1072.69 705.007,1075.67 706.05,1078.62 707.093,1081.56 708.136,1084.48 709.179,1087.37 710.222,1090.26 711.265,1093.12 712.308,1095.96 713.351,1098.79 714.393,1101.6 715.436,1104.39 716.479,1107.17 717.522,1109.92 718.565,1112.66 719.608,1115.38 720.651,1118.09 721.694,1120.77 722.736,1123.44 723.779,1126.1 724.822,1128.73 725.865,1131.35 726.908,1133.95 727.951,1136.54 728.994,1139.1 730.037,1141.65 731.079,1144.19 732.122,1146.71 733.165,1149.21 734.208,1151.69 735.251,1154.16 736.294,1156.62 737.337,1159.05 738.38,1161.47 739.422,1163.88 740.465,1166.27 741.508,1168.64 742.551,1171 743.594,1173.34 744.637,1175.67 745.68,1177.98 746.723,1180.27 747.766,1182.55 748.808,1184.82 749.851,1187.07 750.894,1189.3 751.937,1191.52 752.98,1193.73 754.023,1195.92 755.066,1198.09 756.109,1200.25 757.151,1202.4 758.194,1204.53 759.237,1206.65 760.28,1208.75 761.323,1210.84 762.366,1212.91 763.409,1214.97 764.452,1217.02 765.494,1219.05 766.537,1221.07 767.58,1223.07 768.623,1225.06 769.666,1227.04 770.709,1229 771.752,1230.95 772.795,1232.88 773.837,1234.81 774.88,1236.72 775.923,1238.61 776.966,1240.49 778.009,1242.36 779.052,1244.22 780.095,1246.06 781.138,1247.89 782.18,1249.71 783.223,1251.52 784.266,1253.31 785.309,1255.09 786.352,1256.85 787.395,1258.61 788.438,1260.35 789.481,1262.08 790.524,1263.8 791.566,1265.5 792.609,1267.2 793.652,1268.88 794.695,1270.55 795.738,1272.2 796.781,1273.85 797.824,1275.48 798.867,1277.1 799.909,1278.71 800.952,1280.31 801.995,1281.9 803.038,1283.47 804.081,1285.03 805.124,1286.59 806.167,1288.13 807.21,1289.66 808.252,1291.18 809.295,1292.68 810.338,1294.18 811.381,1295.66 812.424,1297.14 813.467,1298.6 814.51,1300.05 815.553,1301.5 816.595,1302.93 817.638,1304.35 818.681,1305.76 819.724,1307.16 820.767,1308.55 821.81,1309.92 822.853,1311.29 823.896,1312.65 824.939,1314 825.981,1315.34 827.024,1316.66 828.067,1317.98 829.11,1319.29 830.153,1320.58 831.196,1321.87 832.239,1323.15 833.282,1324.42 834.324,1325.67 835.367,1326.92 836.41,1328.16 837.453,1329.39 838.496,1330.61 839.539,1331.82 840.582,1333.02 841.625,1334.21 842.667,1335.39 843.71,1336.56 844.753,1337.73 845.796,1338.88 846.839,1340.03 847.882,1341.16 848.925,1342.29 849.968,1343.41 851.01,1344.51 852.053,1345.61 853.096,1346.7 854.139,1347.79 855.182,1348.86 856.225,1349.92 857.268,1350.98 858.311,1352.03 859.354,1353.07 860.396,1354.1 861.439,1355.12 862.482,1356.13 863.525,1357.14 864.568,1358.13 865.611,1359.12 866.654,1360.1 867.697,1361.07 868.739,1362.03 869.782,1362.99 870.825,1363.94 871.868,1364.87 872.911,1365.8 873.954,1366.73 874.997,1367.64 876.04,1368.55 877.082,1369.45 878.125,1370.34 879.168,1371.22 880.211,1372.1 881.254,1372.96 882.297,1373.82 883.34,1374.68 884.383,1375.52 885.425,1376.36 886.468,1377.19 887.511,1378.01 888.554,1378.82 889.597,1379.63 890.64,1380.43 891.683,1381.22 892.726,1382 893.769,1382.78 894.811,1383.55 895.854,1384.31 896.897,1385.07 897.94,1385.82 898.983,1386.56 900.026,1387.29 901.069,1388.02 902.112,1388.74 903.154,1389.45 904.197,1390.15 905.24,1390.85 906.283,1391.54 907.326,1392.22 908.369,1392.9 909.412,1393.57 910.455,1394.23 911.497,1394.89 912.54,1395.54 913.583,1396.18 914.626,1396.82 915.669,1397.45 916.712,1398.07 917.755,1398.68 918.798,1399.29 919.84,1399.89 920.883,1400.49 921.926,1401.08 922.969,1401.66 924.012,1402.23 925.055,1402.8 926.098,1403.36 927.141,1403.92 928.184,1404.47 929.226,1405.01 930.269,1405.54 931.312,1406.07 932.355,1406.6 933.398,1407.11 934.441,1407.62 935.484,1408.12 936.527,1408.62 937.569,1409.11 938.612,1409.59 939.655,1410.07 940.698,1410.54 941.741,1411.01 942.784,1411.47 943.827,1411.92 944.87,1412.36 945.912,1412.8 946.955,1413.23 947.998,1413.66 949.041,1414.08 950.084,1414.49 951.127,1414.9 952.17,1415.3 953.213,1415.7 954.255,1416.09 955.298,1416.47 956.341,1416.84 957.384,1417.21 958.427,1417.58 959.47,1417.93 960.513,1418.28 961.556,1418.63 962.599,1418.97 963.641,1419.3 964.684,1419.62 965.727,1419.94 966.77,1420.26 967.813,1420.56 968.856,1420.86 969.899,1421.16 970.942,1421.45 971.984,1421.73 973.027,1422 974.07,1422.27 975.113,1422.54 976.156,1422.79 977.199,1423.04 978.242,1423.29 979.285,1423.52 980.327,1423.75 981.37,1423.98 982.413,1424.2 983.456,1424.41 984.499,1424.61 985.542,1424.81 986.585,1425.01 987.628,1425.19 988.67,1425.37 989.713,1425.55 990.756,1425.71 991.799,1425.87 992.842,1426.03 993.885,1426.17 994.928,1426.31 995.971,1426.45 997.014,1426.58 998.056,1426.7 999.099,1426.81 1000.14,1426.92 1001.19,1427.02 1002.23,1427.11 1003.27,1427.2 1004.31,1427.28 1005.36,1427.35 1006.4,1427.42 1007.44,1427.48 1008.49,1427.53 1009.53,1427.58 1010.57,1427.62 1011.61,1427.65 1012.66,1427.68 1013.7,1427.69 1014.74,1427.7 1015.79,1427.71 1016.83,1427.7 1017.87,1427.69 1018.91,1427.68 1019.96,1427.65 1021,1427.62 1022.04,1427.58 1023.09,1427.53 1024.13,1427.48 1025.17,1427.41 1026.21,1427.34 1027.26,1427.26 1028.3,1427.18 1029.34,1427.09 1030.39,1426.98 1031.43,1426.88 1032.47,1426.76 1033.51,1426.63 1034.56,1426.5 1035.6,1426.36 1036.64,1426.21 1037.69,1426.05 1038.73,1425.89 1039.77,1425.71 1040.81,1425.53 1041.86,1425.34 1042.9,1425.14 1043.94,1424.93 1044.99,1424.71 1046.03,1424.49 1047.07,1424.25 1048.11,1424.01 1049.16,1423.76 1050.2,1423.5 1051.24,1423.22 1052.29,1422.94 1053.33,1422.65 1054.37,1422.36 1055.41,1422.05 1056.46,1421.73 1057.5,1421.4 1058.54,1421.06 1059.59,1420.71 1060.63,1420.35 1061.67,1419.99 1062.71,1419.61 1063.76,1419.22 1064.8,1418.82 1065.84,1418.41 1066.89,1417.99 1067.93,1417.56 1068.97,1417.11 1070.02,1416.66 1071.06,1416.19 1072.1,1415.72 1073.14,1415.23 1074.19,1414.73 1075.23,1414.22 1076.27,1413.69 1077.32,1413.16 1078.36,1412.61 1079.4,1412.05 1080.44,1411.48 1081.49,1410.89 1082.53,1410.3 1083.57,1409.68 1084.62,1409.06 1085.66,1408.42 1086.7,1407.77 1087.74,1407.11 1088.79,1406.43 1089.83,1405.74 1090.87,1405.03 1091.92,1404.31 1092.96,1403.58 1094,1402.82 1095.04,1402.06 1096.09,1401.28 1097.13,1400.48 1098.17,1399.67 1099.22,1398.85 1100.26,1398 1101.3,1397.14 1102.34,1396.27 1103.39,1395.38 1104.43,1394.47 1105.47,1393.54 1106.52,1392.6 1107.56,1391.64 1108.6,1390.66 1109.64,1389.66 1110.69,1388.65 1111.73,1387.61 1112.77,1386.56 1113.82,1385.49 1114.86,1384.39 1115.9,1383.28 1116.94,1382.15 1117.99,1381 1119.03,1379.83 1120.07,1378.63 1121.12,1377.42 1122.16,1376.18 1123.2,1374.92 1124.24,1373.64 1125.29,1372.34 1126.33,1371.01 1127.37,1369.66 1128.42,1368.29 1129.46,1366.89 1130.5,1365.47 1131.54,1364.03 1132.59,1362.55 1133.63,1361.06 1134.67,1359.54 1135.72,1357.99 1136.76,1356.41 1137.8,1354.81 1138.85,1353.18 1139.89,1351.52 1140.93,1349.83 1141.97,1348.12 1143.02,1346.37 1144.06,1344.6 1145.1,1342.8 1146.15,1340.96 1147.19,1339.1 1148.23,1337.2 1149.27,1335.27 1150.32,1333.31 1151.36,1331.31 1152.4,1329.28 1153.45,1327.22 1154.49,1325.12 1155.53,1322.99 1156.57,1320.82 1157.62,1318.62 1158.66,1316.38 1159.7,1314.1 1160.75,1311.78 1161.79,1309.42 1162.83,1307.03 1163.87,1304.6 1164.92,1302.12 1165.96,1299.61 1167,1297.05 1168.05,1294.45 1169.09,1291.81 1170.13,1289.12 1171.17,1286.39 1172.22,1283.62 1173.26,1280.8 1174.3,1277.93 1175.35,1275.02 1176.39,1272.06 1177.43,1269.05 1178.47,1265.99 1179.52,1262.89 1180.56,1259.73 1181.6,1256.52 1182.65,1253.26 1183.69,1249.95 1184.73,1246.58 1185.77,1243.16 1186.82,1239.69 1187.86,1236.16 1188.9,1232.58 1189.95,1228.93 1190.99,1225.23 1192.03,1221.47 1193.07,1217.66 1194.12,1213.78 1195.16,1209.84 1196.2,1205.84 1197.25,1201.78 1198.29,1197.65 1199.33,1193.47 1200.37,1189.21 1201.42,1184.89 1202.46,1180.51 1203.5,1176.06 1204.55,1171.54 1205.59,1166.95 1206.63,1162.3 1207.68,1157.57 1208.72,1152.78 1209.76,1147.91 1210.8,1142.97 1211.85,1137.96 1212.89,1132.87 1213.93,1127.72 1214.98,1122.48 1216.02,1117.18 1217.06,1111.79 1218.1,1106.33 1219.15,1100.8 1220.19,1095.18 1221.23,1089.49 1222.28,1083.72 1223.32,1077.87 1224.36,1071.94 1225.4,1065.93 1226.45,1059.85 1227.49,1053.68 1228.53,1047.43 1229.58,1041.1 1230.62,1034.68 1231.66,1028.19 1232.7,1021.61 1233.75,1014.95 1234.79,1008.21 1235.83,1001.39 1236.88,994.487 1237.92,987.5 1238.96,980.431 1240,973.28 1241.05,966.048 1242.09,958.733 1243.13,951.338 1244.18,943.862 1245.22,936.305 1246.26,928.668 1247.3,920.952 1248.35,913.156 1249.39,905.283 1250.43,897.332 1251.48,889.305 1252.52,881.202 1253.56,873.024 1254.6,864.772 1255.65,856.447 1256.69,848.051 1257.73,839.585 1258.78,831.049 1259.82,822.446 1260.86,813.778 1261.9,805.044 1262.95,796.248 1263.99,787.39 1265.03,778.474 1266.08,769.5 1267.12,760.47 1268.16,751.387 1269.2,742.253 1270.25,733.07 1271.29,723.84 1272.33,714.566 1273.38,705.249 1274.42,695.894 1275.46,686.502 1276.51,677.076 1277.55,667.619 1278.59,658.133 1279.63,648.622 1280.68,639.089 1281.72,629.536 1282.76,619.967 1283.81,610.384 1284.85,600.793 1285.89,591.194 1286.93,581.593 1287.98,571.991 1289.02,562.394 1290.06,552.804 1291.11,543.225 1292.15,533.66 1293.19,524.113 1294.23,514.589 1295.28,505.089 1296.32,495.619 1297.36,486.182 1298.41,476.782 1299.45,467.422 1300.49,458.106 1301.53,448.838 1302.58,439.623 1303.62,430.462 1304.66,421.362 1305.71,412.324 1306.75,403.353 1307.79,394.453 1308.83,385.627 1309.88,376.879 1310.92,368.212 1311.96,359.631 1313.01,351.138 1314.05,342.737 1315.09,334.431 1316.13,326.224 1317.18,318.12 1318.22,310.121 1319.26,302.23 1320.31,294.451 1321.35,286.786 1322.39,279.239 1323.43,271.813 1324.48,264.509 1325.52,257.332 1326.56,250.283 1327.61,243.364 1328.65,236.579 1329.69,229.93 1330.73,223.418 1331.78,217.046 1332.82,210.816 1333.86,204.73 1334.91,198.789 1335.95,192.996 1336.99,187.351 1338.03,181.856 1339.08,176.514 1340.12,171.323 1341.16,166.287 1342.21,161.406 1343.25,156.681 1344.29,152.113 1345.34,147.702 1346.38,143.449 1347.42,139.355 1348.46,135.42 1349.51,131.644 1350.55,128.027 1351.59,124.571 1352.64,121.273 1353.68,118.136 1354.72,115.157 1355.76,112.338 1356.81,109.677 1357.85,107.174 1358.89,104.829 1359.94,102.641 1360.98,100.61 1362.02,98.7339 1363.06,97.0127 1364.11,95.4452 1365.15,94.0305 1366.19,92.7675 1367.24,91.655 1368.28,90.692 1369.32,89.8771 1370.36,89.2089 1371.41,88.6862 1372.45,88.3076 1373.49,88.0714 1374.54,87.9763 1375.58,88.0206 1376.62,88.2028 1377.66,88.5211 1378.71,88.974 1379.75,89.5596 1380.79,90.2763 1381.84,91.1223 1382.88,92.0957 1383.92,93.1947 1384.96,94.4174 1386.01,95.762 1387.05,97.2266 1388.09,98.8092 1389.14,100.508 1390.18,102.321 1391.22,104.246 1392.26,106.281 1393.31,108.425 1394.35,110.675 1395.39,113.029 1396.44,115.485 1397.48,118.042 1398.52,120.697 1399.56,123.449 1400.61,126.294 1401.65,129.233 1402.69,132.261 1403.74,135.378 1404.78,138.582 1405.82,141.87 1406.86,145.24 1407.91,148.692 1408.95,152.222 1409.99,155.829 1411.04,159.511 1412.08,163.265 1413.12,167.092 1414.17,170.987 1415.21,174.95 1416.25,178.979 1417.29,183.072 1418.34,187.227 1419.38,191.443 1420.42,195.717 1421.47,200.048 1422.51,204.434 1423.55,208.875 1424.59,213.367 1425.64,217.909 1426.68,222.5 1427.72,227.139 1428.77,231.823 1429.81,236.551 1430.85,241.321 1431.89,246.133 1432.94,250.984 1433.98,255.874 1435.02,260.8 1436.07,265.761 1437.11,270.756 1438.15,275.784 1439.19,280.843 1440.24,285.932 1441.28,291.049 1442.32,296.194 1443.37,301.365 1444.41,306.561 1445.45,311.78 1446.49,317.022 1447.54,322.286 1448.58,327.569 1449.62,332.872 1450.67,338.192 1451.71,343.529 1452.75,348.883 1453.79,354.251 1454.84,359.632 1455.88,365.027 1456.92,370.433 1457.97,375.851 1459.01,381.278 1460.05,386.714 1461.09,392.159 1462.14,397.611 1463.18,403.069 1464.22,408.533 1465.27,414.001 1466.31,419.474 1467.35,424.95 1468.39,430.428 1469.44,435.908 1470.48,441.389 1471.52,446.87 1472.57,452.35 1473.61,457.83 1474.65,463.308 1475.69,468.783 1476.74,474.255 1477.78,479.724 1478.82,485.188 1479.87,490.647 1480.91,496.101 1481.95,501.549 1483,506.991 1484.04,512.425 1485.08,517.852 1486.12,523.27 1487.17,528.68 1488.21,534.081 1489.25,539.473 1490.3,544.854 1491.34,550.226 1492.38,555.586 1493.42,560.935 1494.47,566.272 1495.51,571.598 1496.55,576.911 1497.6,582.211 1498.64,587.498 1499.68,592.771 1500.72,598.031 1501.77,603.276 1502.81,608.507 1503.85,613.723 1504.9,618.925 1505.94,624.11 1506.98,629.28 1508.02,634.434 1509.07,639.572 1510.11,644.694 1511.15,649.799 1512.2,654.886 1513.24,659.957 1514.28,665.01 1515.32,670.046 1516.37,675.064 1517.41,680.064 1518.45,685.045 1519.5,690.009 1520.54,694.953 1521.58,699.879 1522.62,704.786 1523.67,709.675 1524.71,714.543 1525.75,719.393 1526.8,724.223 1527.84,729.033 1528.88,733.824 1529.92,738.595 1530.97,743.346 1532.01,748.076 1533.05,752.787 1534.1,757.477 1535.14,762.147 1536.18,766.797 1537.22,771.425 1538.27,776.034 1539.31,780.621 1540.35,785.188 1541.4,789.734 1542.44,794.258 1543.48,798.762 1544.52,803.245 1545.57,807.707 1546.61,812.148 1547.65,816.567 1548.7,820.966 1549.74,825.343 1550.78,829.699 1551.83,834.033 1552.87,838.346 1553.91,842.638 1554.95,846.909 1556,851.158 1557.04,855.386 1558.08,859.592 1559.13,863.777 1560.17,867.941 1561.21,872.083 1562.25,876.204 1563.3,880.303 1564.34,884.381 1565.38,888.438 1566.43,892.473 1567.47,896.487 1568.51,900.479 1569.55,904.451 1570.6,908.401 1571.64,912.33 1572.68,916.237 1573.73,920.123 1574.77,923.988 1575.81,927.832 1576.85,931.655 1577.9,935.457 1578.94,939.238 1579.98,942.998 1581.03,946.736 1582.07,950.454 1583.11,954.151 1584.15,957.827 1585.2,961.483 1586.24,965.117 1587.28,968.731 1588.33,972.325 1589.37,975.897 1590.41,979.45 1591.45,982.981 1592.5,986.493 1593.54,989.984 1594.58,993.454 1595.63,996.905 1596.67,1000.34 1597.71,1003.75 1598.75,1007.14 1599.8,1010.51 1600.84,1013.86 1601.88,1017.19 1602.93,1020.5 1603.97,1023.79 1605.01,1027.06 1606.05,1030.31 1607.1,1033.54 1608.14,1036.75 1609.18,1039.95 1610.23,1043.12 1611.27,1046.27 1612.31,1049.41 1613.35,1052.53 1614.4,1055.62 1615.44,1058.7 1616.48,1061.76 1617.53,1064.8 1618.57,1067.82 1619.61,1070.83 1620.66,1073.81 1621.7,1076.78 1622.74,1079.72 1623.78,1082.65 1624.83,1085.56 1625.87,1088.46 1626.91,1091.33 1627.96,1094.19 1629,1097.03 1630.04,1099.85 1631.08,1102.65 1632.13,1105.43 1633.17,1108.2 1634.21,1110.95 1635.26,1113.68 1636.3,1116.4 1637.34,1119.1 1638.38,1121.78 1639.43,1124.44 1640.47,1127.09 1641.51,1129.71 1642.56,1132.33 1643.6,1134.92 1644.64,1137.5 1645.68,1140.06 1646.73,1142.61 1647.77,1145.14 1648.81,1147.65 1649.86,1150.14 1650.9,1152.62 1651.94,1155.09 1652.98,1157.53 1654.03,1159.96 1655.07,1162.38 1656.11,1164.78 1657.16,1167.16 1658.2,1169.53 1659.24,1171.88 1660.28,1174.21 1661.33,1176.54 1662.37,1178.84 1663.41,1181.13 1664.46,1183.4 1665.5,1185.66 1666.54,1187.91 1667.58,1190.14 1668.63,1192.35 1669.67,1194.55 1670.71,1196.73 1671.76,1198.9 1672.8,1201.06 1673.84,1203.2 1674.88,1205.33 1675.93,1207.44 1676.97,1209.53 1678.01,1211.62 1679.06,1213.69 1680.1,1215.74 1681.14,1217.78 1682.18,1219.81 1683.23,1221.82 1684.27,1223.82 1685.31,1225.8 1686.36,1227.77 1687.4,1229.73 1688.44,1231.68 1689.49,1233.61 1690.53,1235.52 1691.57,1237.43 1692.61,1239.32 1693.66,1241.2 1694.7,1243.06 1695.74,1244.91 1696.79,1246.75 1697.83,1248.58 1698.87,1250.39 1699.91,1252.19 1700.96,1253.98 1702,1255.75 1703.04,1257.51 1704.09,1259.26 1705.13,1261 1706.17,1262.73 1707.21,1264.44 1708.26,1266.14 1709.3,1267.83 1710.34,1269.5 1711.39,1271.17 1712.43,1272.82 1713.47,1274.46 1714.51,1276.09 1715.56,1277.71 1716.6,1279.31 1717.64,1280.91 1718.69,1282.49 1719.73,1284.06 1720.77,1285.62 1721.81,1287.17 1722.86,1288.7 1723.9,1290.23 1724.94,1291.74 1725.99,1293.24 1727.03,1294.74 1728.07,1296.22 1729.11,1297.69 1730.16,1299.15 1731.2,1300.6 1732.24,1302.03 1733.29,1303.46 1734.33,1304.88 1735.37,1306.28 1736.41,1307.68 1737.46,1309.06 1738.5,1310.44 1739.54,1311.8 1740.59,1313.16 1741.63,1314.5 1742.67,1315.83 1743.71,1317.16 1744.76,1318.47 1745.8,1319.77 1746.84,1321.07 1747.89,1322.35 1748.93,1323.62 1749.97,1324.89 1751.01,1326.14 1752.06,1327.39 1753.1,1328.62 1754.14,1329.85 1755.19,1331.06 1756.23,1332.27 1757.27,1333.47 1758.32,1334.65 1759.36,1335.83 1760.4,1337 1761.44,1338.16 1762.49,1339.31 1763.53,1340.45 1764.57,1341.58 1765.62,1342.71 1766.66,1343.82 1767.7,1344.93 1768.74,1346.02 1769.79,1347.11 1770.83,1348.19 1771.87,1349.26 1772.92,1350.32 1773.96,1351.37 1775,1352.42 1776.04,1353.45 1777.09,1354.48 1778.13,1355.5 1779.17,1356.51 1780.22,1357.51 1781.26,1358.5 1782.3,1359.49 1783.34,1360.46 1784.39,1361.43 1785.43,1362.39 1786.47,1363.34 1787.52,1364.29 1788.56,1365.22 1789.6,1366.15 1790.64,1367.07 1791.69,1367.98 1792.73,1368.89 1793.77,1369.78 1794.82,1370.67 1795.86,1371.55 1796.9,1372.42 1797.94,1373.29 1798.99,1374.14 1800.03,1374.99 1801.07,1375.84 1802.12,1376.67 1803.16,1377.5 1804.2,1378.31 1805.24,1379.13 1806.29,1379.93 1807.33,1380.73 1808.37,1381.51 1809.42,1382.3 1810.46,1383.07 1811.5,1383.84 1812.54,1384.6 1813.59,1385.35 1814.63,1386.09 1815.67,1386.83 1816.72,1387.56 1817.76,1388.29 1818.8,1389 1819.84,1389.71 1820.89,1390.41 1821.93,1391.11 1822.97,1391.8 1824.02,1392.48 1825.06,1393.15 1826.1,1393.82 1827.15,1394.48 1828.19,1395.13 1829.23,1395.78 1830.27,1396.42 1831.32,1397.05 1832.36,1397.68 1833.4,1398.3 1834.45,1398.91 1835.49,1399.52 1836.53,1400.12 1837.57,1400.71 1838.62,1401.3 1839.66,1401.87 1840.7,1402.45 1841.75,1403.01 1842.79,1403.57 1843.83,1404.12 1844.87,1404.67 1845.92,1405.21 1846.96,1405.74 1848,1406.27 1849.05,1406.79 1850.09,1407.3 1851.13,1407.81 1852.17,1408.31 1853.22,1408.81 1854.26,1409.29 1855.3,1409.77 1856.35,1410.25 1857.39,1410.72 1858.43,1411.18 1859.47,1411.64 1860.52,1412.08 1861.56,1412.53 1862.6,1412.96 1863.65,1413.39 1864.69,1413.82 1865.73,1414.24 1866.77,1414.65 1867.82,1415.05 1868.86,1415.45 1869.9,1415.84 1870.95,1416.23 1871.99,1416.61 1873.03,1416.98 1874.07,1417.35 1875.12,1417.71 1876.16,1418.07 1877.2,1418.41 1878.25,1418.76 1879.29,1419.09 1880.33,1419.42 1881.37,1419.74 1882.42,1420.06 1883.46,1420.37 1884.5,1420.68 1885.55,1420.98 1886.59,1421.27 1887.63,1421.55 1888.67,1421.83 1889.72,1422.1 1890.76,1422.37 1891.8,1422.63 1892.85,1422.89 1893.89,1423.13 1894.93,1423.38 1895.98,1423.61 1897.02,1423.84 1898.06,1424.06 1899.1,1424.28 1900.15,1424.49 1901.19,1424.69 1902.23,1424.89 1903.28,1425.08 1904.32,1425.26 1905.36,1425.44 1906.4,1425.61 1907.45,1425.77 1908.49,1425.93 1909.53,1426.08 1910.58,1426.23 1911.62,1426.36 1912.66,1426.5 1913.7,1426.62 1914.75,1426.74 1915.79,1426.85 1916.83,1426.96 1917.88,1427.05 1918.92,1427.15 1919.96,1427.23 1921,1427.31 1922.05,1427.38 1923.09,1427.44 1924.13,1427.5 1925.18,1427.55 1926.22,1427.59 1927.26,1427.63 1928.3,1427.66 1929.35,1427.68 1930.39,1427.7 1931.43,1427.71 1932.48,1427.71 1933.52,1427.7 1934.56,1427.69 1935.6,1427.67 1936.65,1427.64 1937.69,1427.6 1938.73,1427.56 1939.78,1427.51 1940.82,1427.45 1941.86,1427.39 1942.9,1427.31 1943.95,1427.23 1944.99,1427.15 1946.03,1427.05 1947.08,1426.94 1948.12,1426.83 1949.16,1426.71 1950.2,1426.59 1951.25,1426.45 1952.29,1426.31 1953.33,1426.15 1954.38,1425.99 1955.42,1425.82 1956.46,1425.65 1957.5,1425.46 1958.55,1425.27 1959.59,1425.06 1960.63,1424.85 1961.68,1424.63 1962.72,1424.4 1963.76,1424.16 1964.81,1423.92 1965.85,1423.66 1966.89,1423.4 1967.93,1423.12 1968.98,1422.84 1970.02,1422.54 1971.06,1422.24 1972.11,1421.93 1973.15,1421.61 1974.19,1421.27 1975.23,1420.93 1976.28,1420.58 1977.32,1420.22 1978.36,1419.85 1979.41,1419.46 1980.45,1419.07 1981.49,1418.67 1982.53,1418.25 1983.58,1417.83 1984.62,1417.39 1985.66,1416.94 1986.71,1416.49 1987.75,1416.02 1988.79,1415.54 1989.83,1415.04 1990.88,1414.54 1991.92,1414.02 1992.96,1413.49 1994.01,1412.95 1995.05,1412.4 1996.09,1411.84 1997.13,1411.26 1998.18,1410.67 1999.22,1410.07 2000.26,1409.45 2001.31,1408.82 2002.35,1408.18 2003.39,1407.52 2004.43,1406.86 2005.48,1406.17 2006.52,1405.47 2007.56,1404.76 2008.61,1404.04 2009.65,1403.3 2010.69,1402.54 2011.73,1401.77 2012.78,1400.98 2013.82,1400.18 2014.86,1399.37 2015.91,1398.53 2016.95,1397.68 2017.99,1396.82 2019.03,1395.94 2020.08,1395.04 2021.12,1394.12 2022.16,1393.19 2023.21,1392.24 2024.25,1391.27 2025.29,1390.29 2026.33,1389.28 2027.38,1388.26 2028.42,1387.22 2029.46,1386.16 2030.51,1385.08 2031.55,1383.98 2032.59,1382.86 2033.64,1381.72 2034.68,1380.56 2035.72,1379.38 2036.76,1378.18 2037.81,1376.96 2038.85,1375.71 2039.89,1374.45 2040.94,1373.16 2041.98,1371.84 2043.02,1370.51 2044.06,1369.15 2045.11,1367.77 2046.15,1366.36 2047.19,1364.93 2048.24,1363.48 2049.28,1362 2050.32,1360.49 2051.36,1358.96 2052.41,1357.4 2053.45,1355.81 2054.49,1354.2 2055.54,1352.56 2056.58,1350.89 2057.62,1349.19 2058.66,1347.47 2059.71,1345.71 2060.75,1343.93 2061.79,1342.11 2062.84,1340.27 2063.88,1338.39 2064.92,1336.48 2065.96,1334.54 2067.01,1332.56 2068.05,1330.56 2069.09,1328.51 2070.14,1326.44 2071.18,1324.33 2072.22,1322.18 2073.26,1320 2074.31,1317.78 2075.35,1315.53 2076.39,1313.23 2077.44,1310.9 2078.48,1308.53 2079.52,1306.12 2080.56,1303.67 2081.61,1301.18 2082.65,1298.65 2083.69,1296.08 2084.74,1293.46 2085.78,1290.81 2086.82,1288.1 2087.86,1285.36 2088.91,1282.57 2089.95,1279.73 2090.99,1276.85 2092.04,1273.92 2093.08,1270.94 2094.12,1267.91 2095.16,1264.83 2096.21,1261.71 2097.25,1258.53 2098.29,1255.31 2099.34,1252.03 2100.38,1248.69 2101.42,1245.31 2102.47,1241.87 2103.51,1238.37 2104.55,1234.82 2105.59,1231.22 2106.64,1227.55 2107.68,1223.83 2108.72,1220.05 2109.77,1216.21 2110.81,1212.31 2111.85,1208.35 2112.89,1204.33 2113.94,1200.24 2114.98,1196.09 2116.02,1191.88 2117.07,1187.6 2118.11,1183.26 2119.15,1178.85 2120.19,1174.37 2121.24,1169.83 2122.28,1165.22 2123.32,1160.53 2124.37,1155.78 2125.41,1150.96 2126.45,1146.07 2127.49,1141.1 2128.54,1136.06 2129.58,1130.95 2130.62,1125.76 2131.67,1120.5 2132.71,1115.17 2133.75,1109.75 2134.79,1104.27 2135.84,1098.7 2136.88,1093.06 2137.92,1087.34 2138.97,1081.54 2140.01,1075.66 2141.05,1069.7 2142.09,1063.66 2143.14,1057.54 2144.18,1051.34 2145.22,1045.06 2146.27,1038.7 2147.31,1032.26 2148.35,1025.73 2149.39,1019.13 2150.44,1012.44 2151.48,1005.67 2152.52,998.813 2153.57,991.878 2154.61,984.86 2155.65,977.76 2156.69,970.579 2157.74,963.315 2158.78,955.971 2159.82,948.545 2160.87,941.038 2161.91,933.451 2162.95,925.785 2163.99,918.039 2165.04,910.214 2166.08,902.312 2167.12,894.332 2168.17,886.276 2169.21,878.145 2170.25,869.939 2171.3,861.66 2172.34,853.308 2173.38,844.885 2174.42,836.393 2175.47,827.832 2176.51,819.204 2177.55,810.511 2178.6,801.754 2179.64,792.935 2180.68,784.055 2181.72,775.116 2182.77,766.121 2183.81,757.071 2184.85,747.969 2185.9,738.816 2186.94,729.615 2187.98,720.368 2189.02,711.078 2190.07,701.747 2191.11,692.378 2192.15,682.972 2193.2,673.534 2194.24,664.066 2195.28,654.571 2196.32,645.051 2197.37,635.51 2198.41,625.95 2199.45,616.376 2200.5,606.79 2201.54,597.195 2202.58,587.595 2203.62,577.993 2204.67,568.393 2205.71,558.798 2206.75,549.212 2207.8,539.637 2208.84,530.079 2209.88,520.54 2210.92,511.024 2211.97,501.536 2213.01,492.077 2214.05,482.654 2215.1,473.268 2216.14,463.924 2217.18,454.626 2218.22,445.377 2219.27,436.182 2220.31,427.044 2221.35,417.966 2222.4,408.953 2223.44,400.008 2224.48,391.135 2225.52,382.338 2226.57,373.62 2227.61,364.985 2228.65,356.436 2229.7,347.977 2230.74,339.612 2231.78,331.343 2232.82,323.174 2233.87,315.109 2234.91,307.15 2235.95,299.301 2237,291.564 2238.04,283.943 2239.08,276.441 2240.12,269.06 2241.17,261.804 2242.21,254.674 2243.25,247.674 2244.3,240.805 2245.34,234.07 2246.38,227.472 2247.43,221.013 2248.47,214.694 2249.51,208.518 2250.55,202.486 2251.6,196.6 2252.64,190.862 2253.68,185.274 2254.73,179.836 2255.77,174.55 2256.81,169.418 2257.85,164.439 2258.9,159.617 2259.94,154.95 2260.98,150.441 2262.03,146.089 2263.07,141.896 2264.11,137.861 2265.15,133.986 2266.2,130.27 2267.24,126.713 2268.28,123.316 2269.33,120.078 2270.37,117 2271.41,114.082 2272.45,111.322 2273.5,108.72 2274.54,106.277 2275.58,103.991 2276.63,101.862 2277.67,99.8885 2278.71,98.0706 2279.75,96.4071 2280.8,94.897 2281.84,93.5393 2282.88,92.3329 2283.93,91.2766 2284.97,90.3692 2286.01,89.6095 2287.05,88.996 2288.1,88.5275 2289.14,88.2024 2290.18,88.0193 "/>
<path clip-path="url(#clip030)" d="M1507.88 250.738 L2279.06 250.738 L2279.06 95.2176 L1507.88 95.2176  Z" fill="#ffffff" fill-rule="evenodd" fill-opacity="1"/>
<polyline clip-path="url(#clip030)" style="stroke:#000000; stroke-linecap:round; stroke-linejoin:round; stroke-width:4; stroke-opacity:1; fill:none" points="1507.88,250.738 2279.06,250.738 2279.06,95.2176 1507.88,95.2176 1507.88,250.738 "/>
<polyline clip-path="url(#clip030)" style="stroke:#009af9; stroke-linecap:round; stroke-linejoin:round; stroke-width:4; stroke-opacity:1; fill:none" points="1532.44,147.058 1679.84,147.058 "/>
<path clip-path="url(#clip030)" d="M1704.4 129.778 L1709.08 129.778 L1709.08 146.861 L1725.79 129.778 L1731.79 129.778 L1718.43 143.435 L1732.48 164.338 L1727.39 164.338 L1715.4 146.537 L1709.08 152.995 L1709.08 164.338 L1704.4 164.338 L1704.4 129.778 Z" fill="#000000" fill-rule="evenodd" fill-opacity="1" /><path clip-path="url(#clip030)" d="M1747.92 141.398 Q1744.5 141.398 1742.51 144.083 Q1740.51 146.745 1740.51 151.398 Q1740.51 156.051 1742.48 158.736 Q1744.47 161.398 1747.92 161.398 Q1751.32 161.398 1753.32 158.713 Q1755.31 156.027 1755.31 151.398 Q1755.31 146.791 1753.32 144.106 Q1751.32 141.398 1747.92 141.398 M1747.92 137.787 Q1753.48 137.787 1756.65 141.398 Q1759.82 145.009 1759.82 151.398 Q1759.82 157.764 1756.65 161.398 Q1753.48 165.009 1747.92 165.009 Q1742.34 165.009 1739.17 161.398 Q1736.02 157.764 1736.02 151.398 Q1736.02 145.009 1739.17 141.398 Q1742.34 137.787 1747.92 137.787 Z" fill="#000000" fill-rule="evenodd" fill-opacity="1" /><path clip-path="url(#clip030)" d="M1764.17 164.338 L1764.17 160.796 Q1768.39 160.148 1769.68 157.231 Q1771.26 153.134 1771.26 142.648 L1771.26 138.412 L1788.78 138.412 L1788.78 164.338 L1784.52 164.338 L1784.52 141.815 L1775.51 141.815 L1775.51 144.384 Q1775.51 154.384 1773.48 158.875 Q1771.3 163.666 1764.17 164.338 Z" fill="#000000" fill-rule="evenodd" fill-opacity="1" /><path clip-path="url(#clip030)" d="M1819.22 138.412 L1819.22 164.338 L1814.98 164.338 L1814.98 143.527 L1802.48 164.338 L1797.02 164.338 L1797.02 138.412 L1801.26 138.412 L1801.26 159.176 L1813.73 138.412 L1819.22 138.412 Z" fill="#000000" fill-rule="evenodd" fill-opacity="1" /><path clip-path="url(#clip030)" d="M1842.97 164.338 L1842.97 153.435 L1835.03 153.435 Q1831.49 153.435 1829.13 151.236 Q1827 149.245 1827 144.986 L1827 138.412 L1831.26 138.412 L1831.26 144.592 Q1831.26 147.301 1832.46 148.666 Q1833.69 150.032 1836.09 150.032 L1842.97 150.032 L1842.97 138.412 L1847.23 138.412 L1847.23 164.338 L1842.97 164.338 Z" fill="#000000" fill-rule="evenodd" fill-opacity="1" /><path clip-path="url(#clip030)" d="M1878.18 150.31 L1878.18 152.393 L1858.59 152.393 Q1858.87 156.791 1861.23 159.106 Q1863.62 161.398 1867.85 161.398 Q1870.31 161.398 1872.6 160.796 Q1874.91 160.194 1877.18 158.99 L1877.18 163.018 Q1874.89 163.99 1872.48 164.5 Q1870.07 165.009 1867.6 165.009 Q1861.39 165.009 1857.76 161.398 Q1854.15 157.787 1854.15 151.629 Q1854.15 145.264 1857.57 141.537 Q1861.02 137.787 1866.86 137.787 Q1872.09 137.787 1875.12 141.166 Q1878.18 144.523 1878.18 150.31 M1873.92 149.06 Q1873.87 145.565 1871.95 143.481 Q1870.05 141.398 1866.9 141.398 Q1863.34 141.398 1861.19 143.412 Q1859.06 145.426 1858.73 149.083 L1873.92 149.06 Z" fill="#000000" fill-rule="evenodd" fill-opacity="1" /><path clip-path="url(#clip030)" d="M1903.82 139.407 L1903.82 143.389 Q1902.02 142.393 1900.19 141.907 Q1898.38 141.398 1896.53 141.398 Q1892.39 141.398 1890.1 144.037 Q1887.81 146.652 1887.81 151.398 Q1887.81 156.143 1890.1 158.782 Q1892.39 161.398 1896.53 161.398 Q1898.38 161.398 1900.19 160.912 Q1902.02 160.402 1903.82 159.407 L1903.82 163.342 Q1902.04 164.176 1900.12 164.592 Q1898.22 165.009 1896.07 165.009 Q1890.21 165.009 1886.76 161.328 Q1883.31 157.648 1883.31 151.398 Q1883.31 145.055 1886.79 141.421 Q1890.28 137.787 1896.35 137.787 Q1898.31 137.787 1900.19 138.203 Q1902.06 138.597 1903.82 139.407 Z" fill="#000000" fill-rule="evenodd" fill-opacity="1" /><path clip-path="url(#clip030)" d="M1908.15 138.412 L1932.99 138.412 L1932.99 141.815 L1922.67 141.815 L1922.67 164.338 L1918.48 164.338 L1918.48 141.815 L1908.15 141.815 L1908.15 138.412 Z" fill="#000000" fill-rule="evenodd" fill-opacity="1" /><path clip-path="url(#clip030)" d="M1942.94 152.393 L1942.94 160.935 L1949.01 160.935 Q1951.93 160.935 1953.45 159.847 Q1954.98 158.736 1954.98 156.652 Q1954.98 154.569 1953.45 153.481 Q1951.93 152.393 1949.01 152.393 L1942.94 152.393 M1942.94 141.815 L1942.94 148.99 L1948.55 148.99 Q1950.95 148.99 1952.48 148.041 Q1954.01 147.069 1954.01 145.356 Q1954.01 143.643 1952.48 142.74 Q1950.95 141.815 1948.55 141.815 L1942.94 141.815 M1938.69 138.412 L1948.82 138.412 Q1953.38 138.412 1955.84 140.078 Q1958.29 141.745 1958.29 144.824 Q1958.29 147.208 1957.04 148.62 Q1955.79 150.009 1953.34 150.356 Q1956.28 150.912 1957.9 152.671 Q1959.52 154.43 1959.52 157.069 Q1959.52 160.541 1956.83 162.439 Q1954.17 164.338 1949.22 164.338 L1938.69 164.338 L1938.69 138.412 Z" fill="#000000" fill-rule="evenodd" fill-opacity="1" /><path clip-path="url(#clip030)" d="M1976.83 141.398 Q1973.41 141.398 1971.42 144.083 Q1969.43 146.745 1969.43 151.398 Q1969.43 156.051 1971.39 158.736 Q1973.38 161.398 1976.83 161.398 Q1980.24 161.398 1982.23 158.713 Q1984.22 156.027 1984.22 151.398 Q1984.22 146.791 1982.23 144.106 Q1980.24 141.398 1976.83 141.398 M1976.83 137.787 Q1982.39 137.787 1985.56 141.398 Q1988.73 145.009 1988.73 151.398 Q1988.73 157.764 1985.56 161.398 Q1982.39 165.009 1976.83 165.009 Q1971.25 165.009 1968.08 161.398 Q1964.93 157.764 1964.93 151.398 Q1964.93 145.009 1968.08 141.398 Q1971.25 137.787 1976.83 137.787 Z" fill="#000000" fill-rule="evenodd" fill-opacity="1" /><path clip-path="url(#clip030)" d="M2025.63 138.412 L2029.87 138.412 L2029.87 150.588 L2041.18 138.412 L2046.14 138.412 L2036.83 148.389 L2047.48 164.338 L2042.92 164.338 L2034.19 151.236 L2029.87 155.889 L2029.87 164.338 L2025.63 164.338 L2025.63 155.889 L2021.3 151.236 L2012.57 164.338 L2008.01 164.338 L2018.66 148.389 L2009.36 138.412 L2014.31 138.412 L2025.63 150.588 L2025.63 138.412 Z" fill="#000000" fill-rule="evenodd" fill-opacity="1" /><path clip-path="url(#clip030)" d="M2075.74 150.31 L2075.74 152.393 L2056.16 152.393 Q2056.44 156.791 2058.8 159.106 Q2061.18 161.398 2065.42 161.398 Q2067.87 161.398 2070.17 160.796 Q2072.48 160.194 2074.75 158.99 L2074.75 163.018 Q2072.46 163.99 2070.05 164.5 Q2067.64 165.009 2065.17 165.009 Q2058.96 165.009 2055.33 161.398 Q2051.72 157.787 2051.72 151.629 Q2051.72 145.264 2055.14 141.537 Q2058.59 137.787 2064.43 137.787 Q2069.66 137.787 2072.69 141.166 Q2075.74 144.523 2075.74 150.31 M2071.49 149.06 Q2071.44 145.565 2069.52 143.481 Q2067.62 141.398 2064.47 141.398 Q2060.91 141.398 2058.75 143.412 Q2056.62 145.426 2056.3 149.083 L2071.49 149.06 Z" fill="#000000" fill-rule="evenodd" fill-opacity="1" /><path clip-path="url(#clip030)" d="M2086.86 160.449 L2086.86 174.199 L2082.57 174.199 L2082.57 138.412 L2086.86 138.412 L2086.86 142.347 Q2088.2 140.032 2090.24 138.921 Q2092.3 137.787 2095.14 137.787 Q2099.86 137.787 2102.8 141.537 Q2105.77 145.287 2105.77 151.398 Q2105.77 157.509 2102.8 161.259 Q2099.86 165.009 2095.14 165.009 Q2092.3 165.009 2090.24 163.898 Q2088.2 162.763 2086.86 160.449 M2101.35 151.398 Q2101.35 146.699 2099.4 144.037 Q2097.48 141.352 2094.1 141.352 Q2090.72 141.352 2088.78 144.037 Q2086.86 146.699 2086.86 151.398 Q2086.86 156.097 2088.78 158.782 Q2090.72 161.444 2094.1 161.444 Q2097.48 161.444 2099.4 158.782 Q2101.35 156.097 2101.35 151.398 Z" fill="#000000" fill-rule="evenodd" fill-opacity="1" /><path clip-path="url(#clip030)" d="M2109.75 138.412 L2134.59 138.412 L2134.59 141.815 L2124.26 141.815 L2124.26 164.338 L2120.07 164.338 L2120.07 141.815 L2109.75 141.815 L2109.75 138.412 Z" fill="#000000" fill-rule="evenodd" fill-opacity="1" /><path clip-path="url(#clip030)" d="M2144.54 152.393 L2144.54 160.935 L2150.61 160.935 Q2153.52 160.935 2155.05 159.847 Q2156.58 158.736 2156.58 156.652 Q2156.58 154.569 2155.05 153.481 Q2153.52 152.393 2150.61 152.393 L2144.54 152.393 M2144.54 141.815 L2144.54 148.99 L2150.14 148.99 Q2152.55 148.99 2154.08 148.041 Q2155.61 147.069 2155.61 145.356 Q2155.61 143.643 2154.08 142.74 Q2152.55 141.815 2150.14 141.815 L2144.54 141.815 M2140.28 138.412 L2150.42 138.412 Q2154.98 138.412 2157.43 140.078 Q2159.89 141.745 2159.89 144.824 Q2159.89 147.208 2158.64 148.62 Q2157.39 150.009 2154.93 150.356 Q2157.87 150.912 2159.49 152.671 Q2161.11 154.43 2161.11 157.069 Q2161.11 160.541 2158.43 162.439 Q2155.77 164.338 2150.81 164.338 L2140.28 164.338 L2140.28 138.412 Z" fill="#000000" fill-rule="evenodd" fill-opacity="1" /><polyline clip-path="url(#clip030)" style="stroke:#e26f46; stroke-linecap:round; stroke-linejoin:round; stroke-width:4; stroke-opacity:1; fill:none" points="1532.44,198.898 1679.84,198.898 "/>
<path clip-path="url(#clip030)" d="M1704.4 181.618 L1709.08 181.618 L1709.08 198.701 L1725.79 181.618 L1731.79 181.618 L1718.43 195.275 L1732.48 216.178 L1727.39 216.178 L1715.4 198.377 L1709.08 204.835 L1709.08 216.178 L1704.4 216.178 L1704.4 181.618 Z" fill="#000000" fill-rule="evenodd" fill-opacity="1" /><path clip-path="url(#clip030)" d="M1747.92 193.238 Q1744.5 193.238 1742.51 195.923 Q1740.51 198.585 1740.51 203.238 Q1740.51 207.891 1742.48 210.576 Q1744.47 213.238 1747.92 213.238 Q1751.32 213.238 1753.32 210.553 Q1755.31 207.867 1755.31 203.238 Q1755.31 198.631 1753.32 195.946 Q1751.32 193.238 1747.92 193.238 M1747.92 189.627 Q1753.48 189.627 1756.65 193.238 Q1759.82 196.849 1759.82 203.238 Q1759.82 209.604 1756.65 213.238 Q1753.48 216.849 1747.92 216.849 Q1742.34 216.849 1739.17 213.238 Q1736.02 209.604 1736.02 203.238 Q1736.02 196.849 1739.17 193.238 Q1742.34 189.627 1747.92 189.627 Z" fill="#000000" fill-rule="evenodd" fill-opacity="1" /><path clip-path="url(#clip030)" d="M1764.17 216.178 L1764.17 212.636 Q1768.39 211.988 1769.68 209.071 Q1771.26 204.974 1771.26 194.488 L1771.26 190.252 L1788.78 190.252 L1788.78 216.178 L1784.52 216.178 L1784.52 193.655 L1775.51 193.655 L1775.51 196.224 Q1775.51 206.224 1773.48 210.715 Q1771.3 215.506 1764.17 216.178 Z" fill="#000000" fill-rule="evenodd" fill-opacity="1" /><path clip-path="url(#clip030)" d="M1819.22 190.252 L1819.22 216.178 L1814.98 216.178 L1814.98 195.367 L1802.48 216.178 L1797.02 216.178 L1797.02 190.252 L1801.26 190.252 L1801.26 211.016 L1813.73 190.252 L1819.22 190.252 Z" fill="#000000" fill-rule="evenodd" fill-opacity="1" /><path clip-path="url(#clip030)" d="M1842.97 216.178 L1842.97 205.275 L1835.03 205.275 Q1831.49 205.275 1829.13 203.076 Q1827 201.085 1827 196.826 L1827 190.252 L1831.26 190.252 L1831.26 196.432 Q1831.26 199.141 1832.46 200.506 Q1833.69 201.872 1836.09 201.872 L1842.97 201.872 L1842.97 190.252 L1847.23 190.252 L1847.23 216.178 L1842.97 216.178 Z" fill="#000000" fill-rule="evenodd" fill-opacity="1" /><path clip-path="url(#clip030)" d="M1878.18 202.15 L1878.18 204.233 L1858.59 204.233 Q1858.87 208.631 1861.23 210.946 Q1863.62 213.238 1867.85 213.238 Q1870.31 213.238 1872.6 212.636 Q1874.91 212.034 1877.18 210.83 L1877.18 214.858 Q1874.89 215.83 1872.48 216.34 Q1870.07 216.849 1867.6 216.849 Q1861.39 216.849 1857.76 213.238 Q1854.15 209.627 1854.15 203.469 Q1854.15 197.104 1857.57 193.377 Q1861.02 189.627 1866.86 189.627 Q1872.09 189.627 1875.12 193.006 Q1878.18 196.363 1878.18 202.15 M1873.92 200.9 Q1873.87 197.405 1871.95 195.321 Q1870.05 193.238 1866.9 193.238 Q1863.34 193.238 1861.19 195.252 Q1859.06 197.266 1858.73 200.923 L1873.92 200.9 Z" fill="#000000" fill-rule="evenodd" fill-opacity="1" /><path clip-path="url(#clip030)" d="M1903.82 191.247 L1903.82 195.229 Q1902.02 194.233 1900.19 193.747 Q1898.38 193.238 1896.53 193.238 Q1892.39 193.238 1890.1 195.877 Q1887.81 198.492 1887.81 203.238 Q1887.81 207.983 1890.1 210.622 Q1892.39 213.238 1896.53 213.238 Q1898.38 213.238 1900.19 212.752 Q1902.02 212.242 1903.82 211.247 L1903.82 215.182 Q1902.04 216.016 1900.12 216.432 Q1898.22 216.849 1896.07 216.849 Q1890.21 216.849 1886.76 213.168 Q1883.31 209.488 1883.31 203.238 Q1883.31 196.895 1886.79 193.261 Q1890.28 189.627 1896.35 189.627 Q1898.31 189.627 1900.19 190.043 Q1902.06 190.437 1903.82 191.247 Z" fill="#000000" fill-rule="evenodd" fill-opacity="1" /><path clip-path="url(#clip030)" d="M1908.15 190.252 L1932.99 190.252 L1932.99 193.655 L1922.67 193.655 L1922.67 216.178 L1918.48 216.178 L1918.48 193.655 L1908.15 193.655 L1908.15 190.252 Z" fill="#000000" fill-rule="evenodd" fill-opacity="1" /><path clip-path="url(#clip030)" d="M1942.94 204.233 L1942.94 212.775 L1949.01 212.775 Q1951.93 212.775 1953.45 211.687 Q1954.98 210.576 1954.98 208.492 Q1954.98 206.409 1953.45 205.321 Q1951.93 204.233 1949.01 204.233 L1942.94 204.233 M1942.94 193.655 L1942.94 200.83 L1948.55 200.83 Q1950.95 200.83 1952.48 199.881 Q1954.01 198.909 1954.01 197.196 Q1954.01 195.483 1952.48 194.58 Q1950.95 193.655 1948.55 193.655 L1942.94 193.655 M1938.69 190.252 L1948.82 190.252 Q1953.38 190.252 1955.84 191.918 Q1958.29 193.585 1958.29 196.664 Q1958.29 199.048 1957.04 200.46 Q1955.79 201.849 1953.34 202.196 Q1956.28 202.752 1957.9 204.511 Q1959.52 206.27 1959.52 208.909 Q1959.52 212.381 1956.83 214.279 Q1954.17 216.178 1949.22 216.178 L1938.69 216.178 L1938.69 190.252 Z" fill="#000000" fill-rule="evenodd" fill-opacity="1" /><path clip-path="url(#clip030)" d="M1976.83 193.238 Q1973.41 193.238 1971.42 195.923 Q1969.43 198.585 1969.43 203.238 Q1969.43 207.891 1971.39 210.576 Q1973.38 213.238 1976.83 213.238 Q1980.24 213.238 1982.23 210.553 Q1984.22 207.867 1984.22 203.238 Q1984.22 198.631 1982.23 195.946 Q1980.24 193.238 1976.83 193.238 M1976.83 189.627 Q1982.39 189.627 1985.56 193.238 Q1988.73 196.849 1988.73 203.238 Q1988.73 209.604 1985.56 213.238 Q1982.39 216.849 1976.83 216.849 Q1971.25 216.849 1968.08 213.238 Q1964.93 209.604 1964.93 203.238 Q1964.93 196.849 1968.08 193.238 Q1971.25 189.627 1976.83 189.627 Z" fill="#000000" fill-rule="evenodd" fill-opacity="1" /><path clip-path="url(#clip030)" d="M2032.41 190.252 L2023.04 202.867 L2032.9 216.178 L2027.87 216.178 L2020.33 205.992 L2012.78 216.178 L2007.76 216.178 L2017.83 202.613 L2008.62 190.252 L2013.64 190.252 L2020.51 199.488 L2027.39 190.252 L2032.41 190.252 Z" fill="#000000" fill-rule="evenodd" fill-opacity="1" /><path clip-path="url(#clip030)" d="M2060.95 190.252 L2060.95 216.178 L2056.72 216.178 L2056.72 195.367 L2044.22 216.178 L2038.75 216.178 L2038.75 190.252 L2042.99 190.252 L2042.99 211.016 L2055.47 190.252 L2060.95 190.252 Z" fill="#000000" fill-rule="evenodd" fill-opacity="1" /><path clip-path="url(#clip030)" d="M2104.33 216.178 L2069.56 216.178 L2069.56 190.252 L2073.85 190.252 L2073.85 212.775 L2084.8 212.775 L2084.8 190.252 L2089.08 190.252 L2089.08 212.775 L2100.05 212.775 L2100.05 190.252 L2104.33 190.252 L2104.33 212.775 L2107.74 212.775 L2107.74 222.728 L2104.33 222.728 L2104.33 216.178 Z" fill="#000000" fill-rule="evenodd" fill-opacity="1" /><path clip-path="url(#clip030)" d="M2114.22 190.252 L2118.5 190.252 L2118.5 200.83 L2132.32 200.83 L2132.32 190.252 L2136.6 190.252 L2136.6 216.178 L2132.32 216.178 L2132.32 204.233 L2118.5 204.233 L2118.5 216.178 L2114.22 216.178 L2114.22 190.252 Z" fill="#000000" fill-rule="evenodd" fill-opacity="1" /><path clip-path="url(#clip030)" d="M2167.41 190.252 L2167.41 216.178 L2163.17 216.178 L2163.17 195.367 L2150.67 216.178 L2145.21 216.178 L2145.21 190.252 L2149.45 190.252 L2149.45 211.016 L2161.92 190.252 L2167.41 190.252 Z" fill="#000000" fill-rule="evenodd" fill-opacity="1" /><path clip-path="url(#clip030)" d="M2176.02 190.252 L2180.26 190.252 L2180.26 202.428 L2192.27 190.252 L2197.5 190.252 L2187.6 200.275 L2198.78 216.178 L2194.01 216.178 L2184.82 203.099 L2180.26 207.729 L2180.26 216.178 L2176.02 216.178 L2176.02 190.252 Z" fill="#000000" fill-rule="evenodd" fill-opacity="1" /><path clip-path="url(#clip030)" d="M2214.86 193.238 Q2211.44 193.238 2209.45 195.923 Q2207.46 198.585 2207.46 203.238 Q2207.46 207.891 2209.42 210.576 Q2211.42 213.238 2214.86 213.238 Q2218.27 213.238 2220.26 210.553 Q2222.25 207.867 2222.25 203.238 Q2222.25 198.631 2220.26 195.946 Q2218.27 193.238 2214.86 193.238 M2214.86 189.627 Q2220.42 189.627 2223.59 193.238 Q2226.76 196.849 2226.76 203.238 Q2226.76 209.604 2223.59 213.238 Q2220.42 216.849 2214.86 216.849 Q2209.29 216.849 2206.11 213.238 Q2202.97 209.604 2202.97 203.238 Q2202.97 196.849 2206.11 193.238 Q2209.29 189.627 2214.86 189.627 Z" fill="#000000" fill-rule="evenodd" fill-opacity="1" /><path clip-path="url(#clip030)" d="M2237.92 204.233 L2237.92 212.775 L2243.98 212.775 Q2246.9 212.775 2248.43 211.687 Q2249.96 210.576 2249.96 208.492 Q2249.96 206.409 2248.43 205.321 Q2246.9 204.233 2243.98 204.233 L2237.92 204.233 M2237.92 193.655 L2237.92 200.83 L2243.52 200.83 Q2245.93 200.83 2247.46 199.881 Q2248.98 198.909 2248.98 197.196 Q2248.98 195.483 2247.46 194.58 Q2245.93 193.655 2243.52 193.655 L2237.92 193.655 M2233.66 190.252 L2243.8 190.252 Q2248.36 190.252 2250.81 191.918 Q2253.27 193.585 2253.27 196.664 Q2253.27 199.048 2252.02 200.46 Q2250.77 201.849 2248.31 202.196 Q2251.25 202.752 2252.87 204.511 Q2254.49 206.27 2254.49 208.909 Q2254.49 212.381 2251.81 214.279 Q2249.15 216.178 2244.19 216.178 L2233.66 216.178 L2233.66 190.252 Z" fill="#000000" fill-rule="evenodd" fill-opacity="1" /></svg>
