<?xml version="1.0" encoding="utf-8"?>
<svg xmlns="http://www.w3.org/2000/svg" xmlns:xlink="http://www.w3.org/1999/xlink" width="600" height="400" viewBox="0 0 2400 1600">
<defs>
  <clipPath id="clip120">
    <rect x="0" y="0" width="2400" height="1600"/>
  </clipPath>
</defs>
<path clip-path="url(#clip120)" d="M0 1600 L2400 1600 L2400 0 L0 0  Z" fill="#ffffff" fill-rule="evenodd" fill-opacity="1"/>
<defs>
  <clipPath id="clip121">
    <rect x="480" y="0" width="1681" height="1600"/>
  </clipPath>
</defs>
<path clip-path="url(#clip120)" d="M279.357 1423.18 L2352.76 1423.18 L2352.76 47.2441 L279.357 47.2441  Z" fill="#ffffff" fill-rule="evenodd" fill-opacity="1"/>
<defs>
  <clipPath id="clip122">
    <rect x="279" y="47" width="2074" height="1377"/>
  </clipPath>
</defs>
<polyline clip-path="url(#clip122)" style="stroke:#000000; stroke-linecap:round; stroke-linejoin:round; stroke-width:2; stroke-opacity:0.1; fill:none" points="582.542,1423.18 582.542,47.2441 "/>
<polyline clip-path="url(#clip122)" style="stroke:#000000; stroke-linecap:round; stroke-linejoin:round; stroke-width:2; stroke-opacity:0.1; fill:none" points="973.75,1423.18 973.75,47.2441 "/>
<polyline clip-path="url(#clip122)" style="stroke:#000000; stroke-linecap:round; stroke-linejoin:round; stroke-width:2; stroke-opacity:0.1; fill:none" points="1364.96,1423.18 1364.96,47.2441 "/>
<polyline clip-path="url(#clip122)" style="stroke:#000000; stroke-linecap:round; stroke-linejoin:round; stroke-width:2; stroke-opacity:0.1; fill:none" points="1756.16,1423.18 1756.16,47.2441 "/>
<polyline clip-path="url(#clip122)" style="stroke:#000000; stroke-linecap:round; stroke-linejoin:round; stroke-width:2; stroke-opacity:0.1; fill:none" points="2147.37,1423.18 2147.37,47.2441 "/>
<polyline clip-path="url(#clip120)" style="stroke:#000000; stroke-linecap:round; stroke-linejoin:round; stroke-width:4; stroke-opacity:1; fill:none" points="279.357,1423.18 2352.76,1423.18 "/>
<polyline clip-path="url(#clip120)" style="stroke:#000000; stroke-linecap:round; stroke-linejoin:round; stroke-width:4; stroke-opacity:1; fill:none" points="582.542,1423.18 582.542,1404.28 "/>
<polyline clip-path="url(#clip120)" style="stroke:#000000; stroke-linecap:round; stroke-linejoin:round; stroke-width:4; stroke-opacity:1; fill:none" points="973.75,1423.18 973.75,1404.28 "/>
<polyline clip-path="url(#clip120)" style="stroke:#000000; stroke-linecap:round; stroke-linejoin:round; stroke-width:4; stroke-opacity:1; fill:none" points="1364.96,1423.18 1364.96,1404.28 "/>
<polyline clip-path="url(#clip120)" style="stroke:#000000; stroke-linecap:round; stroke-linejoin:round; stroke-width:4; stroke-opacity:1; fill:none" points="1756.16,1423.18 1756.16,1404.28 "/>
<polyline clip-path="url(#clip120)" style="stroke:#000000; stroke-linecap:round; stroke-linejoin:round; stroke-width:4; stroke-opacity:1; fill:none" points="2147.37,1423.18 2147.37,1404.28 "/>
<path clip-path="url(#clip120)" d="M534.614 1481.64 L542.253 1481.64 L542.253 1455.28 L533.943 1456.95 L533.943 1452.69 L542.207 1451.02 L546.883 1451.02 L546.883 1481.64 L554.522 1481.64 L554.522 1485.58 L534.614 1485.58 L534.614 1481.64 Z" fill="#000000" fill-rule="evenodd" fill-opacity="1" /><path clip-path="url(#clip120)" d="M562.786 1451.02 L585.008 1451.02 L585.008 1453.01 L572.461 1485.58 L567.577 1485.58 L579.383 1454.96 L562.786 1454.96 L562.786 1451.02 Z" fill="#000000" fill-rule="evenodd" fill-opacity="1" /><path clip-path="url(#clip120)" d="M594.128 1479.7 L599.012 1479.7 L599.012 1485.58 L594.128 1485.58 L594.128 1479.7 Z" fill="#000000" fill-rule="evenodd" fill-opacity="1" /><path clip-path="url(#clip120)" d="M619.197 1454.1 Q615.586 1454.1 613.758 1457.66 Q611.952 1461.2 611.952 1468.33 Q611.952 1475.44 613.758 1479.01 Q615.586 1482.55 619.197 1482.55 Q622.832 1482.55 624.637 1479.01 Q626.466 1475.44 626.466 1468.33 Q626.466 1461.2 624.637 1457.66 Q622.832 1454.1 619.197 1454.1 M619.197 1450.39 Q625.007 1450.39 628.063 1455 Q631.142 1459.58 631.142 1468.33 Q631.142 1477.06 628.063 1481.67 Q625.007 1486.25 619.197 1486.25 Q613.387 1486.25 610.308 1481.67 Q607.253 1477.06 607.253 1468.33 Q607.253 1459.58 610.308 1455 Q613.387 1450.39 619.197 1450.39 Z" fill="#000000" fill-rule="evenodd" fill-opacity="1" /><path clip-path="url(#clip120)" d="M926.62 1481.64 L934.259 1481.64 L934.259 1455.28 L925.949 1456.95 L925.949 1452.69 L934.213 1451.02 L938.889 1451.02 L938.889 1481.64 L946.528 1481.64 L946.528 1485.58 L926.62 1485.58 L926.62 1481.64 Z" fill="#000000" fill-rule="evenodd" fill-opacity="1" /><path clip-path="url(#clip120)" d="M954.792 1451.02 L977.014 1451.02 L977.014 1453.01 L964.467 1485.58 L959.583 1485.58 L971.389 1454.96 L954.792 1454.96 L954.792 1451.02 Z" fill="#000000" fill-rule="evenodd" fill-opacity="1" /><path clip-path="url(#clip120)" d="M986.134 1479.7 L991.018 1479.7 L991.018 1485.58 L986.134 1485.58 L986.134 1479.7 Z" fill="#000000" fill-rule="evenodd" fill-opacity="1" /><path clip-path="url(#clip120)" d="M1005.23 1481.64 L1021.55 1481.64 L1021.55 1485.58 L999.606 1485.58 L999.606 1481.64 Q1002.27 1478.89 1006.85 1474.26 Q1011.46 1469.61 1012.64 1468.27 Q1014.88 1465.74 1015.76 1464.01 Q1016.67 1462.25 1016.67 1460.56 Q1016.67 1457.8 1014.72 1456.07 Q1012.8 1454.33 1009.7 1454.33 Q1007.5 1454.33 1005.05 1455.09 Q1002.62 1455.86 999.838 1457.41 L999.838 1452.69 Q1002.66 1451.55 1005.12 1450.97 Q1007.57 1450.39 1009.61 1450.39 Q1014.98 1450.39 1018.17 1453.08 Q1021.37 1455.77 1021.37 1460.26 Q1021.37 1462.39 1020.56 1464.31 Q1019.77 1466.2 1017.66 1468.8 Q1017.08 1469.47 1013.98 1472.69 Q1010.88 1475.88 1005.23 1481.64 Z" fill="#000000" fill-rule="evenodd" fill-opacity="1" /><path clip-path="url(#clip120)" d="M1316.79 1481.64 L1324.43 1481.64 L1324.43 1455.28 L1316.11 1456.95 L1316.11 1452.69 L1324.38 1451.02 L1329.05 1451.02 L1329.05 1481.64 L1336.69 1481.64 L1336.69 1485.58 L1316.79 1485.58 L1316.79 1481.64 Z" fill="#000000" fill-rule="evenodd" fill-opacity="1" /><path clip-path="url(#clip120)" d="M1344.96 1451.02 L1367.18 1451.02 L1367.18 1453.01 L1354.63 1485.58 L1349.75 1485.58 L1361.55 1454.96 L1344.96 1454.96 L1344.96 1451.02 Z" fill="#000000" fill-rule="evenodd" fill-opacity="1" /><path clip-path="url(#clip120)" d="M1376.3 1479.7 L1381.18 1479.7 L1381.18 1485.58 L1376.3 1485.58 L1376.3 1479.7 Z" fill="#000000" fill-rule="evenodd" fill-opacity="1" /><path clip-path="url(#clip120)" d="M1404.22 1455.09 L1392.41 1473.54 L1404.22 1473.54 L1404.22 1455.09 M1402.99 1451.02 L1408.87 1451.02 L1408.87 1473.54 L1413.8 1473.54 L1413.8 1477.43 L1408.87 1477.43 L1408.87 1485.58 L1404.22 1485.58 L1404.22 1477.43 L1388.61 1477.43 L1388.61 1472.92 L1402.99 1451.02 Z" fill="#000000" fill-rule="evenodd" fill-opacity="1" /><path clip-path="url(#clip120)" d="M1708.16 1481.64 L1715.79 1481.64 L1715.79 1455.28 L1707.48 1456.95 L1707.48 1452.69 L1715.75 1451.02 L1720.42 1451.02 L1720.42 1481.64 L1728.06 1481.64 L1728.06 1485.58 L1708.16 1485.58 L1708.16 1481.64 Z" fill="#000000" fill-rule="evenodd" fill-opacity="1" /><path clip-path="url(#clip120)" d="M1736.33 1451.02 L1758.55 1451.02 L1758.55 1453.01 L1746 1485.58 L1741.12 1485.58 L1752.92 1454.96 L1736.33 1454.96 L1736.33 1451.02 Z" fill="#000000" fill-rule="evenodd" fill-opacity="1" /><path clip-path="url(#clip120)" d="M1767.67 1479.7 L1772.55 1479.7 L1772.55 1485.58 L1767.67 1485.58 L1767.67 1479.7 Z" fill="#000000" fill-rule="evenodd" fill-opacity="1" /><path clip-path="url(#clip120)" d="M1793.32 1466.44 Q1790.17 1466.44 1788.32 1468.59 Q1786.49 1470.74 1786.49 1474.49 Q1786.49 1478.22 1788.32 1480.39 Q1790.17 1482.55 1793.32 1482.55 Q1796.47 1482.55 1798.29 1480.39 Q1800.15 1478.22 1800.15 1474.49 Q1800.15 1470.74 1798.29 1468.59 Q1796.47 1466.44 1793.32 1466.44 M1802.6 1451.78 L1802.6 1456.04 Q1800.84 1455.21 1799.03 1454.77 Q1797.25 1454.33 1795.49 1454.33 Q1790.86 1454.33 1788.41 1457.45 Q1785.98 1460.58 1785.63 1466.9 Q1787 1464.89 1789.06 1463.82 Q1791.12 1462.73 1793.59 1462.73 Q1798.8 1462.73 1801.81 1465.9 Q1804.84 1469.05 1804.84 1474.49 Q1804.84 1479.82 1801.7 1483.03 Q1798.55 1486.25 1793.32 1486.25 Q1787.32 1486.25 1784.15 1481.67 Q1780.98 1477.06 1780.98 1468.33 Q1780.98 1460.14 1784.87 1455.28 Q1788.76 1450.39 1795.31 1450.39 Q1797.07 1450.39 1798.85 1450.74 Q1800.66 1451.09 1802.6 1451.78 Z" fill="#000000" fill-rule="evenodd" fill-opacity="1" /><path clip-path="url(#clip120)" d="M2099.49 1481.64 L2107.13 1481.64 L2107.13 1455.28 L2098.82 1456.95 L2098.82 1452.69 L2107.08 1451.02 L2111.76 1451.02 L2111.76 1481.64 L2119.4 1481.64 L2119.4 1485.58 L2099.49 1485.58 L2099.49 1481.64 Z" fill="#000000" fill-rule="evenodd" fill-opacity="1" /><path clip-path="url(#clip120)" d="M2127.66 1451.02 L2149.88 1451.02 L2149.88 1453.01 L2137.34 1485.58 L2132.45 1485.58 L2144.26 1454.96 L2127.66 1454.96 L2127.66 1451.02 Z" fill="#000000" fill-rule="evenodd" fill-opacity="1" /><path clip-path="url(#clip120)" d="M2159 1479.7 L2163.89 1479.7 L2163.89 1485.58 L2159 1485.58 L2159 1479.7 Z" fill="#000000" fill-rule="evenodd" fill-opacity="1" /><path clip-path="url(#clip120)" d="M2184.07 1469.17 Q2180.74 1469.17 2178.82 1470.95 Q2176.92 1472.73 2176.92 1475.86 Q2176.92 1478.98 2178.82 1480.77 Q2180.74 1482.55 2184.07 1482.55 Q2187.41 1482.55 2189.33 1480.77 Q2191.25 1478.96 2191.25 1475.86 Q2191.25 1472.73 2189.33 1470.95 Q2187.43 1469.17 2184.07 1469.17 M2179.4 1467.18 Q2176.39 1466.44 2174.7 1464.38 Q2173.03 1462.32 2173.03 1459.35 Q2173.03 1455.21 2175.97 1452.8 Q2178.93 1450.39 2184.07 1450.39 Q2189.24 1450.39 2192.18 1452.8 Q2195.11 1455.21 2195.11 1459.35 Q2195.11 1462.32 2193.43 1464.38 Q2191.76 1466.44 2188.77 1467.18 Q2192.15 1467.96 2194.03 1470.26 Q2195.93 1472.55 2195.93 1475.86 Q2195.93 1480.88 2192.85 1483.57 Q2189.79 1486.25 2184.07 1486.25 Q2178.36 1486.25 2175.28 1483.57 Q2172.22 1480.88 2172.22 1475.86 Q2172.22 1472.55 2174.12 1470.26 Q2176.02 1467.96 2179.4 1467.18 M2177.68 1459.79 Q2177.68 1462.48 2179.35 1463.98 Q2181.04 1465.49 2184.07 1465.49 Q2187.08 1465.49 2188.77 1463.98 Q2190.49 1462.48 2190.49 1459.79 Q2190.49 1457.11 2188.77 1455.6 Q2187.08 1454.1 2184.07 1454.1 Q2181.04 1454.1 2179.35 1455.6 Q2177.68 1457.11 2177.68 1459.79 Z" fill="#000000" fill-rule="evenodd" fill-opacity="1" /><path clip-path="url(#clip120)" d="M1126.15 1568.04 L1126.15 1548.56 L1112.88 1548.56 Q1106.96 1548.56 1103.43 1544.87 Q1099.89 1541.15 1099.89 1533.57 L1099.89 1520.52 L1106.29 1520.52 L1106.29 1533.06 Q1106.29 1538.13 1108.26 1540.64 Q1110.24 1543.15 1114.18 1543.15 L1126.15 1543.15 L1126.15 1520.52 L1132.61 1520.52 L1132.61 1568.04 L1126.15 1568.04 Z" fill="#000000" fill-rule="evenodd" fill-opacity="1" /><path clip-path="url(#clip120)" d="M1175.45 1532.4 L1175.45 1568.04 L1169.63 1568.04 L1169.63 1539.43 L1152.44 1568.04 L1144.93 1568.04 L1144.93 1532.4 L1150.75 1532.4 L1150.75 1560.95 L1167.91 1532.4 L1175.45 1532.4 Z" fill="#000000" fill-rule="evenodd" fill-opacity="1" /><path clip-path="url(#clip120)" d="M1213.17 1533.76 L1213.17 1539.24 Q1210.69 1537.87 1208.17 1537.2 Q1205.69 1536.5 1203.14 1536.5 Q1197.45 1536.5 1194.3 1540.13 Q1191.15 1543.73 1191.15 1550.25 Q1191.15 1556.78 1194.3 1560.4 Q1197.45 1564 1203.14 1564 Q1205.69 1564 1208.17 1563.33 Q1210.69 1562.63 1213.17 1561.26 L1213.17 1566.68 Q1210.72 1567.82 1208.08 1568.39 Q1205.47 1568.97 1202.51 1568.97 Q1194.46 1568.97 1189.71 1563.91 Q1184.97 1558.85 1184.97 1550.25 Q1184.97 1541.53 1189.74 1536.53 Q1194.55 1531.54 1202.89 1531.54 Q1205.6 1531.54 1208.17 1532.11 Q1210.75 1532.65 1213.17 1533.76 Z" fill="#000000" fill-rule="evenodd" fill-opacity="1" /><path clip-path="url(#clip120)" d="M1219.63 1568.04 L1219.63 1563.17 Q1225.42 1562.28 1227.21 1558.27 Q1229.37 1552.64 1229.37 1538.22 L1229.37 1532.4 L1253.47 1532.4 L1253.47 1568.04 L1247.61 1568.04 L1247.61 1537.07 L1235.23 1537.07 L1235.23 1540.61 Q1235.23 1554.36 1232.43 1560.53 Q1229.43 1567.12 1219.63 1568.04 Z" fill="#000000" fill-rule="evenodd" fill-opacity="1" /><path clip-path="url(#clip120)" d="M1278.83 1536.5 Q1274.12 1536.5 1271.38 1540.19 Q1268.65 1543.85 1268.65 1550.25 Q1268.65 1556.65 1271.35 1560.34 Q1274.09 1564 1278.83 1564 Q1283.51 1564 1286.25 1560.31 Q1288.99 1556.62 1288.99 1550.25 Q1288.99 1543.92 1286.25 1540.23 Q1283.51 1536.5 1278.83 1536.5 M1278.83 1531.54 Q1286.47 1531.54 1290.83 1536.5 Q1295.19 1541.47 1295.19 1550.25 Q1295.19 1559 1290.83 1564 Q1286.47 1568.97 1278.83 1568.97 Q1271.16 1568.97 1266.8 1564 Q1262.47 1559 1262.47 1550.25 Q1262.47 1541.47 1266.8 1536.5 Q1271.16 1531.54 1278.83 1531.54 Z" fill="#000000" fill-rule="evenodd" fill-opacity="1" /><path clip-path="url(#clip120)" d="M1345.93 1532.4 L1351.75 1532.4 L1351.75 1549.14 L1367.32 1532.4 L1374.13 1532.4 L1361.33 1546.11 L1375.97 1568.04 L1369.7 1568.04 L1357.7 1550.03 L1351.75 1556.43 L1351.75 1568.04 L1345.93 1568.04 L1345.93 1556.43 L1339.98 1550.03 L1327.98 1568.04 L1321.71 1568.04 L1336.35 1546.11 L1323.55 1532.4 L1330.36 1532.4 L1345.93 1549.14 L1345.93 1532.4 Z" fill="#000000" fill-rule="evenodd" fill-opacity="1" /><path clip-path="url(#clip120)" d="M1414.84 1548.76 L1414.84 1551.62 L1387.91 1551.62 Q1388.29 1557.67 1391.54 1560.85 Q1394.82 1564 1400.64 1564 Q1404.01 1564 1407.17 1563.17 Q1410.35 1562.35 1413.47 1560.69 L1413.47 1566.23 Q1410.32 1567.57 1407.01 1568.27 Q1403.7 1568.97 1400.29 1568.97 Q1391.76 1568.97 1386.76 1564 Q1381.8 1559.04 1381.8 1550.57 Q1381.8 1541.82 1386.51 1536.69 Q1391.25 1531.54 1399.27 1531.54 Q1406.47 1531.54 1410.63 1536.18 Q1414.84 1540.8 1414.84 1548.76 M1408.98 1547.04 Q1408.92 1542.23 1406.27 1539.37 Q1403.66 1536.5 1399.34 1536.5 Q1394.43 1536.5 1391.47 1539.27 Q1388.55 1542.04 1388.1 1547.07 L1408.98 1547.04 Z" fill="#000000" fill-rule="evenodd" fill-opacity="1" /><path clip-path="url(#clip120)" d="M1430.11 1562.7 L1430.11 1581.6 L1424.23 1581.6 L1424.23 1532.4 L1430.11 1532.4 L1430.11 1537.81 Q1431.96 1534.62 1434.76 1533.1 Q1437.59 1531.54 1441.51 1531.54 Q1448 1531.54 1452.04 1536.69 Q1456.12 1541.85 1456.12 1550.25 Q1456.12 1558.65 1452.04 1563.81 Q1448 1568.97 1441.51 1568.97 Q1437.59 1568.97 1434.76 1567.44 Q1431.96 1565.88 1430.11 1562.7 M1450.04 1550.25 Q1450.04 1543.79 1447.36 1540.13 Q1444.72 1536.44 1440.08 1536.44 Q1435.43 1536.44 1432.76 1540.13 Q1430.11 1543.79 1430.11 1550.25 Q1430.11 1556.71 1432.76 1560.4 Q1435.43 1564.07 1440.08 1564.07 Q1444.72 1564.07 1447.36 1560.4 Q1450.04 1556.71 1450.04 1550.25 Z" fill="#000000" fill-rule="evenodd" fill-opacity="1" /><path clip-path="url(#clip120)" d="M1461.59 1532.4 L1495.74 1532.4 L1495.74 1537.07 L1481.55 1537.07 L1481.55 1568.04 L1475.79 1568.04 L1475.79 1537.07 L1461.59 1537.07 L1461.59 1532.4 Z" fill="#000000" fill-rule="evenodd" fill-opacity="1" /><path clip-path="url(#clip120)" d="M1509.43 1551.62 L1509.43 1563.37 L1517.77 1563.37 Q1521.78 1563.37 1523.88 1561.87 Q1525.98 1560.34 1525.98 1557.48 Q1525.98 1554.61 1523.88 1553.12 Q1521.78 1551.62 1517.77 1551.62 L1509.43 1551.62 M1509.43 1537.07 L1509.43 1546.94 L1517.13 1546.94 Q1520.44 1546.94 1522.54 1545.64 Q1524.64 1544.3 1524.64 1541.94 Q1524.64 1539.59 1522.54 1538.35 Q1520.44 1537.07 1517.13 1537.07 L1509.43 1537.07 M1503.57 1532.4 L1517.51 1532.4 Q1523.79 1532.4 1527.16 1534.69 Q1530.53 1536.98 1530.53 1541.21 Q1530.53 1544.49 1528.81 1546.43 Q1527.1 1548.34 1523.72 1548.82 Q1527.76 1549.58 1529.99 1552 Q1532.22 1554.42 1532.22 1558.05 Q1532.22 1562.82 1528.53 1565.43 Q1524.87 1568.04 1518.06 1568.04 L1503.57 1568.04 L1503.57 1532.4 Z" fill="#000000" fill-rule="evenodd" fill-opacity="1" /><polyline clip-path="url(#clip122)" style="stroke:#000000; stroke-linecap:round; stroke-linejoin:round; stroke-width:2; stroke-opacity:0.1; fill:none" points="279.357,1384.24 2352.76,1384.24 "/>
<polyline clip-path="url(#clip122)" style="stroke:#000000; stroke-linecap:round; stroke-linejoin:round; stroke-width:2; stroke-opacity:0.1; fill:none" points="279.357,1059.73 2352.76,1059.73 "/>
<polyline clip-path="url(#clip122)" style="stroke:#000000; stroke-linecap:round; stroke-linejoin:round; stroke-width:2; stroke-opacity:0.1; fill:none" points="279.357,735.212 2352.76,735.212 "/>
<polyline clip-path="url(#clip122)" style="stroke:#000000; stroke-linecap:round; stroke-linejoin:round; stroke-width:2; stroke-opacity:0.1; fill:none" points="279.357,410.699 2352.76,410.699 "/>
<polyline clip-path="url(#clip122)" style="stroke:#000000; stroke-linecap:round; stroke-linejoin:round; stroke-width:2; stroke-opacity:0.1; fill:none" points="279.357,86.1857 2352.76,86.1857 "/>
<polyline clip-path="url(#clip120)" style="stroke:#000000; stroke-linecap:round; stroke-linejoin:round; stroke-width:4; stroke-opacity:1; fill:none" points="279.357,1423.18 279.357,47.2441 "/>
<polyline clip-path="url(#clip120)" style="stroke:#000000; stroke-linecap:round; stroke-linejoin:round; stroke-width:4; stroke-opacity:1; fill:none" points="279.357,1384.24 298.254,1384.24 "/>
<polyline clip-path="url(#clip120)" style="stroke:#000000; stroke-linecap:round; stroke-linejoin:round; stroke-width:4; stroke-opacity:1; fill:none" points="279.357,1059.73 298.254,1059.73 "/>
<polyline clip-path="url(#clip120)" style="stroke:#000000; stroke-linecap:round; stroke-linejoin:round; stroke-width:4; stroke-opacity:1; fill:none" points="279.357,735.212 298.254,735.212 "/>
<polyline clip-path="url(#clip120)" style="stroke:#000000; stroke-linecap:round; stroke-linejoin:round; stroke-width:4; stroke-opacity:1; fill:none" points="279.357,410.699 298.254,410.699 "/>
<polyline clip-path="url(#clip120)" style="stroke:#000000; stroke-linecap:round; stroke-linejoin:round; stroke-width:4; stroke-opacity:1; fill:none" points="279.357,86.1857 298.254,86.1857 "/>
<path clip-path="url(#clip120)" d="M119.885 1397.58 L136.204 1397.58 L136.204 1401.52 L114.26 1401.52 L114.26 1397.58 Q116.922 1394.83 121.505 1390.2 Q126.112 1385.55 127.292 1384.2 Q129.538 1381.68 130.417 1379.94 Q131.32 1378.19 131.32 1376.5 Q131.32 1373.74 129.376 1372 Q127.455 1370.27 124.353 1370.27 Q122.154 1370.27 119.7 1371.03 Q117.269 1371.8 114.492 1373.35 L114.492 1368.62 Q117.316 1367.49 119.769 1366.91 Q122.223 1366.33 124.26 1366.33 Q129.63 1366.33 132.825 1369.02 Q136.019 1371.7 136.019 1376.19 Q136.019 1378.32 135.209 1380.25 Q134.422 1382.14 132.316 1384.74 Q131.737 1385.41 128.635 1388.62 Q125.533 1391.82 119.885 1397.58 Z" fill="#000000" fill-rule="evenodd" fill-opacity="1" /><path clip-path="url(#clip120)" d="M156.019 1370.04 Q152.408 1370.04 150.579 1373.6 Q148.774 1377.14 148.774 1384.27 Q148.774 1391.38 150.579 1394.94 Q152.408 1398.49 156.019 1398.49 Q159.653 1398.49 161.459 1394.94 Q163.288 1391.38 163.288 1384.27 Q163.288 1377.14 161.459 1373.6 Q159.653 1370.04 156.019 1370.04 M156.019 1366.33 Q161.829 1366.33 164.885 1370.94 Q167.964 1375.52 167.964 1384.27 Q167.964 1393 164.885 1397.61 Q161.829 1402.19 156.019 1402.19 Q150.209 1402.19 147.13 1397.61 Q144.075 1393 144.075 1384.27 Q144.075 1375.52 147.13 1370.94 Q150.209 1366.33 156.019 1366.33 Z" fill="#000000" fill-rule="evenodd" fill-opacity="1" /><path clip-path="url(#clip120)" d="M176.181 1395.64 L181.065 1395.64 L181.065 1401.52 L176.181 1401.52 L176.181 1395.64 Z" fill="#000000" fill-rule="evenodd" fill-opacity="1" /><path clip-path="url(#clip120)" d="M201.25 1370.04 Q197.639 1370.04 195.811 1373.6 Q194.005 1377.14 194.005 1384.27 Q194.005 1391.38 195.811 1394.94 Q197.639 1398.49 201.25 1398.49 Q204.885 1398.49 206.69 1394.94 Q208.519 1391.38 208.519 1384.27 Q208.519 1377.14 206.69 1373.6 Q204.885 1370.04 201.25 1370.04 M201.25 1366.33 Q207.061 1366.33 210.116 1370.94 Q213.195 1375.52 213.195 1384.27 Q213.195 1393 210.116 1397.61 Q207.061 1402.19 201.25 1402.19 Q195.44 1402.19 192.362 1397.61 Q189.306 1393 189.306 1384.27 Q189.306 1375.52 192.362 1370.94 Q195.44 1366.33 201.25 1366.33 Z" fill="#000000" fill-rule="evenodd" fill-opacity="1" /><path clip-path="url(#clip120)" d="M231.412 1370.04 Q227.801 1370.04 225.973 1373.6 Q224.167 1377.14 224.167 1384.27 Q224.167 1391.38 225.973 1394.94 Q227.801 1398.49 231.412 1398.49 Q235.047 1398.49 236.852 1394.94 Q238.681 1391.38 238.681 1384.27 Q238.681 1377.14 236.852 1373.6 Q235.047 1370.04 231.412 1370.04 M231.412 1366.33 Q237.222 1366.33 240.278 1370.94 Q243.357 1375.52 243.357 1384.27 Q243.357 1393 240.278 1397.61 Q237.222 1402.19 231.412 1402.19 Q225.602 1402.19 222.523 1397.61 Q219.468 1393 219.468 1384.27 Q219.468 1375.52 222.523 1370.94 Q225.602 1366.33 231.412 1366.33 Z" fill="#000000" fill-rule="evenodd" fill-opacity="1" /><path clip-path="url(#clip120)" d="M120.88 1073.07 L137.2 1073.07 L137.2 1077.01 L115.256 1077.01 L115.256 1073.07 Q117.918 1070.32 122.501 1065.69 Q127.107 1061.03 128.288 1059.69 Q130.533 1057.17 131.413 1055.43 Q132.316 1053.67 132.316 1051.98 Q132.316 1049.23 130.371 1047.49 Q128.45 1045.76 125.348 1045.76 Q123.149 1045.76 120.695 1046.52 Q118.265 1047.28 115.487 1048.83 L115.487 1044.11 Q118.311 1042.98 120.765 1042.4 Q123.218 1041.82 125.255 1041.82 Q130.626 1041.82 133.82 1044.51 Q137.015 1047.19 137.015 1051.68 Q137.015 1053.81 136.204 1055.73 Q135.417 1057.63 133.311 1060.22 Q132.732 1060.89 129.63 1064.11 Q126.529 1067.31 120.88 1073.07 Z" fill="#000000" fill-rule="evenodd" fill-opacity="1" /><path clip-path="url(#clip120)" d="M157.015 1045.52 Q153.403 1045.52 151.575 1049.09 Q149.769 1052.63 149.769 1059.76 Q149.769 1066.87 151.575 1070.43 Q153.403 1073.97 157.015 1073.97 Q160.649 1073.97 162.454 1070.43 Q164.283 1066.87 164.283 1059.76 Q164.283 1052.63 162.454 1049.09 Q160.649 1045.52 157.015 1045.52 M157.015 1041.82 Q162.825 1041.82 165.88 1046.43 Q168.959 1051.01 168.959 1059.76 Q168.959 1068.49 165.88 1073.09 Q162.825 1077.68 157.015 1077.68 Q151.204 1077.68 148.126 1073.09 Q145.07 1068.49 145.07 1059.76 Q145.07 1051.01 148.126 1046.43 Q151.204 1041.82 157.015 1041.82 Z" fill="#000000" fill-rule="evenodd" fill-opacity="1" /><path clip-path="url(#clip120)" d="M177.176 1071.13 L182.061 1071.13 L182.061 1077.01 L177.176 1077.01 L177.176 1071.13 Z" fill="#000000" fill-rule="evenodd" fill-opacity="1" /><path clip-path="url(#clip120)" d="M196.274 1073.07 L212.593 1073.07 L212.593 1077.01 L190.649 1077.01 L190.649 1073.07 Q193.311 1070.32 197.894 1065.69 Q202.5 1061.03 203.681 1059.69 Q205.926 1057.17 206.806 1055.43 Q207.709 1053.67 207.709 1051.98 Q207.709 1049.23 205.764 1047.49 Q203.843 1045.76 200.741 1045.76 Q198.542 1045.76 196.088 1046.52 Q193.658 1047.28 190.88 1048.83 L190.88 1044.11 Q193.704 1042.98 196.158 1042.4 Q198.612 1041.82 200.649 1041.82 Q206.019 1041.82 209.213 1044.51 Q212.408 1047.19 212.408 1051.68 Q212.408 1053.81 211.598 1055.73 Q210.811 1057.63 208.704 1060.22 Q208.125 1060.89 205.024 1064.11 Q201.922 1067.31 196.274 1073.07 Z" fill="#000000" fill-rule="evenodd" fill-opacity="1" /><path clip-path="url(#clip120)" d="M222.454 1042.45 L240.81 1042.45 L240.81 1046.38 L226.736 1046.38 L226.736 1054.85 Q227.755 1054.51 228.773 1054.34 Q229.792 1054.16 230.81 1054.16 Q236.597 1054.16 239.977 1057.33 Q243.357 1060.5 243.357 1065.92 Q243.357 1071.5 239.884 1074.6 Q236.412 1077.68 230.093 1077.68 Q227.917 1077.68 225.648 1077.31 Q223.403 1076.94 220.996 1076.19 L220.996 1071.5 Q223.079 1072.63 225.301 1073.19 Q227.523 1073.74 230 1073.74 Q234.005 1073.74 236.343 1071.63 Q238.681 1069.53 238.681 1065.92 Q238.681 1062.31 236.343 1060.2 Q234.005 1058.09 230 1058.09 Q228.125 1058.09 226.25 1058.51 Q224.398 1058.93 222.454 1059.81 L222.454 1042.45 Z" fill="#000000" fill-rule="evenodd" fill-opacity="1" /><path clip-path="url(#clip120)" d="M119.885 748.557 L136.204 748.557 L136.204 752.492 L114.26 752.492 L114.26 748.557 Q116.922 745.802 121.505 741.173 Q126.112 736.52 127.292 735.177 Q129.538 732.654 130.417 730.918 Q131.32 729.159 131.32 727.469 Q131.32 724.714 129.376 722.978 Q127.455 721.242 124.353 721.242 Q122.154 721.242 119.7 722.006 Q117.269 722.77 114.492 724.321 L114.492 719.599 Q117.316 718.464 119.769 717.886 Q122.223 717.307 124.26 717.307 Q129.63 717.307 132.825 719.992 Q136.019 722.677 136.019 727.168 Q136.019 729.298 135.209 731.219 Q134.422 733.117 132.316 735.71 Q131.737 736.381 128.635 739.599 Q125.533 742.793 119.885 748.557 Z" fill="#000000" fill-rule="evenodd" fill-opacity="1" /><path clip-path="url(#clip120)" d="M156.019 721.011 Q152.408 721.011 150.579 724.575 Q148.774 728.117 148.774 735.247 Q148.774 742.353 150.579 745.918 Q152.408 749.46 156.019 749.46 Q159.653 749.46 161.459 745.918 Q163.288 742.353 163.288 735.247 Q163.288 728.117 161.459 724.575 Q159.653 721.011 156.019 721.011 M156.019 717.307 Q161.829 717.307 164.885 721.913 Q167.964 726.497 167.964 735.247 Q167.964 743.973 164.885 748.58 Q161.829 753.163 156.019 753.163 Q150.209 753.163 147.13 748.58 Q144.075 743.973 144.075 735.247 Q144.075 726.497 147.13 721.913 Q150.209 717.307 156.019 717.307 Z" fill="#000000" fill-rule="evenodd" fill-opacity="1" /><path clip-path="url(#clip120)" d="M176.181 746.612 L181.065 746.612 L181.065 752.492 L176.181 752.492 L176.181 746.612 Z" fill="#000000" fill-rule="evenodd" fill-opacity="1" /><path clip-path="url(#clip120)" d="M191.297 717.932 L209.653 717.932 L209.653 721.867 L195.579 721.867 L195.579 730.339 Q196.598 729.992 197.616 729.83 Q198.635 729.645 199.653 729.645 Q205.44 729.645 208.82 732.816 Q212.199 735.987 212.199 741.404 Q212.199 746.983 208.727 750.085 Q205.255 753.163 198.936 753.163 Q196.76 753.163 194.491 752.793 Q192.246 752.423 189.838 751.682 L189.838 746.983 Q191.922 748.117 194.144 748.673 Q196.366 749.228 198.843 749.228 Q202.848 749.228 205.186 747.122 Q207.524 745.015 207.524 741.404 Q207.524 737.793 205.186 735.687 Q202.848 733.58 198.843 733.58 Q196.968 733.58 195.093 733.997 Q193.241 734.413 191.297 735.293 L191.297 717.932 Z" fill="#000000" fill-rule="evenodd" fill-opacity="1" /><path clip-path="url(#clip120)" d="M231.412 721.011 Q227.801 721.011 225.973 724.575 Q224.167 728.117 224.167 735.247 Q224.167 742.353 225.973 745.918 Q227.801 749.46 231.412 749.46 Q235.047 749.46 236.852 745.918 Q238.681 742.353 238.681 735.247 Q238.681 728.117 236.852 724.575 Q235.047 721.011 231.412 721.011 M231.412 717.307 Q237.222 717.307 240.278 721.913 Q243.357 726.497 243.357 735.247 Q243.357 743.973 240.278 748.58 Q237.222 753.163 231.412 753.163 Q225.602 753.163 222.523 748.58 Q219.468 743.973 219.468 735.247 Q219.468 726.497 222.523 721.913 Q225.602 717.307 231.412 717.307 Z" fill="#000000" fill-rule="evenodd" fill-opacity="1" /><path clip-path="url(#clip120)" d="M120.88 424.044 L137.2 424.044 L137.2 427.979 L115.256 427.979 L115.256 424.044 Q117.918 421.289 122.501 416.659 Q127.107 412.007 128.288 410.664 Q130.533 408.141 131.413 406.405 Q132.316 404.646 132.316 402.956 Q132.316 400.201 130.371 398.465 Q128.45 396.729 125.348 396.729 Q123.149 396.729 120.695 397.493 Q118.265 398.257 115.487 399.808 L115.487 395.085 Q118.311 393.951 120.765 393.373 Q123.218 392.794 125.255 392.794 Q130.626 392.794 133.82 395.479 Q137.015 398.164 137.015 402.655 Q137.015 404.785 136.204 406.706 Q135.417 408.604 133.311 411.197 Q132.732 411.868 129.63 415.085 Q126.529 418.28 120.88 424.044 Z" fill="#000000" fill-rule="evenodd" fill-opacity="1" /><path clip-path="url(#clip120)" d="M157.015 396.498 Q153.403 396.498 151.575 400.062 Q149.769 403.604 149.769 410.734 Q149.769 417.84 151.575 421.405 Q153.403 424.946 157.015 424.946 Q160.649 424.946 162.454 421.405 Q164.283 417.84 164.283 410.734 Q164.283 403.604 162.454 400.062 Q160.649 396.498 157.015 396.498 M157.015 392.794 Q162.825 392.794 165.88 397.4 Q168.959 401.984 168.959 410.734 Q168.959 419.46 165.88 424.067 Q162.825 428.65 157.015 428.65 Q151.204 428.65 148.126 424.067 Q145.07 419.46 145.07 410.734 Q145.07 401.984 148.126 397.4 Q151.204 392.794 157.015 392.794 Z" fill="#000000" fill-rule="evenodd" fill-opacity="1" /><path clip-path="url(#clip120)" d="M177.176 422.099 L182.061 422.099 L182.061 427.979 L177.176 427.979 L177.176 422.099 Z" fill="#000000" fill-rule="evenodd" fill-opacity="1" /><path clip-path="url(#clip120)" d="M191.065 393.419 L213.287 393.419 L213.287 395.41 L200.741 427.979 L195.857 427.979 L207.662 397.354 L191.065 397.354 L191.065 393.419 Z" fill="#000000" fill-rule="evenodd" fill-opacity="1" /><path clip-path="url(#clip120)" d="M222.454 393.419 L240.81 393.419 L240.81 397.354 L226.736 397.354 L226.736 405.826 Q227.755 405.479 228.773 405.317 Q229.792 405.132 230.81 405.132 Q236.597 405.132 239.977 408.303 Q243.357 411.474 243.357 416.891 Q243.357 422.47 239.884 425.571 Q236.412 428.65 230.093 428.65 Q227.917 428.65 225.648 428.28 Q223.403 427.909 220.996 427.169 L220.996 422.47 Q223.079 423.604 225.301 424.159 Q227.523 424.715 230 424.715 Q234.005 424.715 236.343 422.608 Q238.681 420.502 238.681 416.891 Q238.681 413.28 236.343 411.173 Q234.005 409.067 230 409.067 Q228.125 409.067 226.25 409.484 Q224.398 409.9 222.454 410.78 L222.454 393.419 Z" fill="#000000" fill-rule="evenodd" fill-opacity="1" /><path clip-path="url(#clip120)" d="M119.885 99.5305 L136.204 99.5305 L136.204 103.466 L114.26 103.466 L114.26 99.5305 Q116.922 96.7759 121.505 92.1463 Q126.112 87.4935 127.292 86.151 Q129.538 83.6278 130.417 81.8917 Q131.32 80.1325 131.32 78.4427 Q131.32 75.688 129.376 73.9519 Q127.455 72.2158 124.353 72.2158 Q122.154 72.2158 119.7 72.9797 Q117.269 73.7436 114.492 75.2945 L114.492 70.5723 Q117.316 69.4381 119.769 68.8594 Q122.223 68.2807 124.26 68.2807 Q129.63 68.2807 132.825 70.9658 Q136.019 73.651 136.019 78.1417 Q136.019 80.2714 135.209 82.1926 Q134.422 84.0908 132.316 86.6834 Q131.737 87.3546 128.635 90.5722 Q125.533 93.7667 119.885 99.5305 Z" fill="#000000" fill-rule="evenodd" fill-opacity="1" /><path clip-path="url(#clip120)" d="M146.829 99.5305 L154.468 99.5305 L154.468 73.1649 L146.158 74.8316 L146.158 70.5723 L154.422 68.9057 L159.098 68.9057 L159.098 99.5305 L166.737 99.5305 L166.737 103.466 L146.829 103.466 L146.829 99.5305 Z" fill="#000000" fill-rule="evenodd" fill-opacity="1" /><path clip-path="url(#clip120)" d="M176.181 97.5861 L181.065 97.5861 L181.065 103.466 L176.181 103.466 L176.181 97.5861 Z" fill="#000000" fill-rule="evenodd" fill-opacity="1" /><path clip-path="url(#clip120)" d="M201.25 71.9844 Q197.639 71.9844 195.811 75.5492 Q194.005 79.0908 194.005 86.2204 Q194.005 93.3268 195.811 96.8916 Q197.639 100.433 201.25 100.433 Q204.885 100.433 206.69 96.8916 Q208.519 93.3268 208.519 86.2204 Q208.519 79.0908 206.69 75.5492 Q204.885 71.9844 201.25 71.9844 M201.25 68.2807 Q207.061 68.2807 210.116 72.8871 Q213.195 77.4704 213.195 86.2204 Q213.195 94.9472 210.116 99.5537 Q207.061 104.137 201.25 104.137 Q195.44 104.137 192.362 99.5537 Q189.306 94.9472 189.306 86.2204 Q189.306 77.4704 192.362 72.8871 Q195.44 68.2807 201.25 68.2807 Z" fill="#000000" fill-rule="evenodd" fill-opacity="1" /><path clip-path="url(#clip120)" d="M231.412 71.9844 Q227.801 71.9844 225.973 75.5492 Q224.167 79.0908 224.167 86.2204 Q224.167 93.3268 225.973 96.8916 Q227.801 100.433 231.412 100.433 Q235.047 100.433 236.852 96.8916 Q238.681 93.3268 238.681 86.2204 Q238.681 79.0908 236.852 75.5492 Q235.047 71.9844 231.412 71.9844 M231.412 68.2807 Q237.222 68.2807 240.278 72.8871 Q243.357 77.4704 243.357 86.2204 Q243.357 94.9472 240.278 99.5537 Q237.222 104.137 231.412 104.137 Q225.602 104.137 222.523 99.5537 Q219.468 94.9472 219.468 86.2204 Q219.468 77.4704 222.523 72.8871 Q225.602 68.2807 231.412 68.2807 Z" fill="#000000" fill-rule="evenodd" fill-opacity="1" /><path clip-path="url(#clip120)" d="M64.0042 989.315 L44.5251 989.315 L44.5251 1002.59 Q44.5251 1008.51 40.833 1012.04 Q37.109 1015.57 29.5339 1015.57 L16.4842 1015.57 L16.4842 1009.18 L29.0246 1009.18 Q34.0853 1009.18 36.5998 1007.2 Q39.1142 1005.23 39.1142 1001.28 L39.1142 989.315 L16.4842 989.315 L16.4842 982.854 L64.0042 982.854 L64.0042 989.315 Z" fill="#000000" fill-rule="evenodd" fill-opacity="1" /><path clip-path="url(#clip120)" d="M28.3562 940.013 L64.0042 940.013 L64.0042 945.837 L35.3903 945.837 L64.0042 963.025 L64.0042 970.536 L28.3562 970.536 L28.3562 964.712 L56.9064 964.712 L28.3562 947.556 L28.3562 940.013 Z" fill="#000000" fill-rule="evenodd" fill-opacity="1" /><path clip-path="url(#clip120)" d="M29.7248 902.296 L35.1993 902.296 Q33.8307 904.778 33.1623 907.293 Q32.4621 909.776 32.4621 912.322 Q32.4621 918.019 36.0905 921.17 Q39.6872 924.321 46.212 924.321 Q52.7369 924.321 56.3653 921.17 Q59.9619 918.019 59.9619 912.322 Q59.9619 909.776 59.2935 907.293 Q58.5933 904.778 57.2247 902.296 L62.6355 902.296 Q63.7814 904.747 64.3543 907.388 Q64.9272 909.998 64.9272 912.958 Q64.9272 921.011 59.8664 925.753 Q54.8057 930.496 46.212 930.496 Q37.491 930.496 32.4939 925.722 Q27.4968 920.916 27.4968 912.576 Q27.4968 909.871 28.0697 907.293 Q28.6108 904.715 29.7248 902.296 Z" fill="#000000" fill-rule="evenodd" fill-opacity="1" /><path clip-path="url(#clip120)" d="M64.0042 895.835 L59.1344 895.835 Q58.2432 890.042 54.2328 888.259 Q48.5991 886.095 34.1808 886.095 L28.3562 886.095 L28.3562 862.001 L64.0042 862.001 L64.0042 867.857 L33.035 867.857 L33.035 880.239 L36.568 880.239 Q50.3179 880.239 56.4926 883.04 Q63.0811 886.031 64.0042 895.835 Z" fill="#000000" fill-rule="evenodd" fill-opacity="1" /><path clip-path="url(#clip120)" d="M32.4621 836.634 Q32.4621 841.344 36.1542 844.081 Q39.8145 846.819 46.212 846.819 Q52.6095 846.819 56.3017 844.113 Q59.9619 841.376 59.9619 836.634 Q59.9619 831.955 56.2698 829.218 Q52.5777 826.48 46.212 826.48 Q39.8781 826.48 36.186 829.218 Q32.4621 831.955 32.4621 836.634 M27.4968 836.634 Q27.4968 828.995 32.4621 824.634 Q37.4273 820.274 46.212 820.274 Q54.9649 820.274 59.9619 824.634 Q64.9272 828.995 64.9272 836.634 Q64.9272 844.304 59.9619 848.665 Q54.9649 852.993 46.212 852.993 Q37.4273 852.993 32.4621 848.665 Q27.4968 844.304 27.4968 836.634 Z" fill="#000000" fill-rule="evenodd" fill-opacity="1" /><path clip-path="url(#clip120)" d="M28.3562 760.213 L45.7028 773.104 L64.0042 759.545 L64.0042 766.452 L49.9996 776.828 L64.0042 787.204 L64.0042 794.111 L45.3526 780.265 L28.3562 792.933 L28.3562 786.026 L41.0558 776.573 L28.3562 767.12 L28.3562 760.213 Z" fill="#000000" fill-rule="evenodd" fill-opacity="1" /><path clip-path="url(#clip120)" d="M28.3562 720.969 L64.0042 720.969 L64.0042 726.793 L35.3903 726.793 L64.0042 743.981 L64.0042 751.492 L28.3562 751.492 L28.3562 745.668 L56.9064 745.668 L28.3562 728.512 L28.3562 720.969 Z" fill="#000000" fill-rule="evenodd" fill-opacity="1" /><path clip-path="url(#clip120)" d="M64.0042 661.322 L64.0042 709.128 L28.3562 709.128 L28.3562 703.24 L59.3254 703.24 L59.3254 688.185 L28.3562 688.185 L28.3562 682.297 L59.3254 682.297 L59.3254 667.21 L28.3562 667.21 L28.3562 661.322 L59.3254 661.322 L59.3254 656.643 L73.0116 656.643 L73.0116 661.322 L64.0042 661.322 Z" fill="#000000" fill-rule="evenodd" fill-opacity="1" /><path clip-path="url(#clip120)" d="M28.3562 647.731 L28.3562 641.843 L42.9018 641.843 L42.9018 622.841 L28.3562 622.841 L28.3562 616.953 L64.0042 616.953 L64.0042 622.841 L47.5806 622.841 L47.5806 641.843 L64.0042 641.843 L64.0042 647.731 L28.3562 647.731 Z" fill="#000000" fill-rule="evenodd" fill-opacity="1" /><path clip-path="url(#clip120)" d="M28.3562 574.589 L64.0042 574.589 L64.0042 580.414 L35.3903 580.414 L64.0042 597.601 L64.0042 605.113 L28.3562 605.113 L28.3562 599.288 L56.9064 599.288 L28.3562 582.133 L28.3562 574.589 Z" fill="#000000" fill-rule="evenodd" fill-opacity="1" /><path clip-path="url(#clip120)" d="M28.3562 562.749 L28.3562 556.924 L45.098 556.924 L28.3562 540.405 L28.3562 533.212 L42.138 546.835 L64.0042 531.462 L64.0042 538.018 L46.021 550.654 L52.3867 556.924 L64.0042 556.924 L64.0042 562.749 L28.3562 562.749 Z" fill="#000000" fill-rule="evenodd" fill-opacity="1" /><path clip-path="url(#clip120)" d="M32.4621 509.341 Q32.4621 514.051 36.1542 516.789 Q39.8145 519.526 46.212 519.526 Q52.6095 519.526 56.3017 516.82 Q59.9619 514.083 59.9619 509.341 Q59.9619 504.662 56.2698 501.925 Q52.5777 499.187 46.212 499.187 Q39.8781 499.187 36.186 501.925 Q32.4621 504.662 32.4621 509.341 M27.4968 509.341 Q27.4968 501.702 32.4621 497.341 Q37.4273 492.981 46.212 492.981 Q54.9649 492.981 59.9619 497.341 Q64.9272 501.702 64.9272 509.341 Q64.9272 517.011 59.9619 521.372 Q54.9649 525.701 46.212 525.701 Q37.4273 525.701 32.4621 521.372 Q27.4968 517.011 27.4968 509.341 Z" fill="#000000" fill-rule="evenodd" fill-opacity="1" /><path clip-path="url(#clip120)" d="M47.5806 477.64 L59.3254 477.64 L59.3254 469.3 Q59.3254 465.29 57.8294 463.189 Q56.3017 461.089 53.4371 461.089 Q50.5725 461.089 49.0766 463.189 Q47.5806 465.29 47.5806 469.3 L47.5806 477.64 M33.035 477.64 L42.9018 477.64 L42.9018 469.937 Q42.9018 466.627 41.5969 464.526 Q40.2601 462.426 37.9048 462.426 Q35.5494 462.426 34.3081 464.526 Q33.035 466.627 33.035 469.937 L33.035 477.64 M28.3562 483.496 L28.3562 469.555 Q28.3562 463.285 30.6479 459.911 Q32.9395 456.537 37.1727 456.537 Q40.451 456.537 42.3926 458.256 Q44.3023 459.975 44.7797 463.349 Q45.5436 459.306 47.9626 457.078 Q50.3815 454.85 54.01 454.85 Q58.7843 454.85 61.3942 458.542 Q64.0042 462.203 64.0042 469.014 L64.0042 483.496 L28.3562 483.496 Z" fill="#000000" fill-rule="evenodd" fill-opacity="1" /><polyline clip-path="url(#clip122)" style="stroke:#009af9; stroke-linecap:round; stroke-linejoin:round; stroke-width:4; stroke-opacity:1; fill:none" points="338.038,1384.24 338.038,1384.24 "/>
<path clip-path="url(#clip120)" d="M2023.87 196.789 L2283.64 196.789 L2283.64 93.1086 L2023.87 93.1086  Z" fill="#ffffff" fill-rule="evenodd" fill-opacity="1"/>
<polyline clip-path="url(#clip120)" style="stroke:#000000; stroke-linecap:round; stroke-linejoin:round; stroke-width:4; stroke-opacity:1; fill:none" points="2023.87,196.789 2283.64,196.789 2283.64,93.1086 2023.87,93.1086 2023.87,196.789 "/>
<polyline clip-path="url(#clip120)" style="stroke:#009af9; stroke-linecap:round; stroke-linejoin:round; stroke-width:4; stroke-opacity:1; fill:none" points="2046.91,144.949 2185.14,144.949 "/>
<path clip-path="url(#clip120)" d="M2222.02 164.636 Q2220.21 169.266 2218.5 170.678 Q2216.79 172.09 2213.92 172.09 L2210.51 172.09 L2210.51 168.525 L2213.01 168.525 Q2214.77 168.525 2215.74 167.692 Q2216.72 166.858 2217.9 163.756 L2218.66 161.812 L2208.17 136.303 L2212.69 136.303 L2220.79 156.581 L2228.89 136.303 L2233.41 136.303 L2222.02 164.636 Z" fill="#000000" fill-rule="evenodd" fill-opacity="1" /><path clip-path="url(#clip120)" d="M2240.7 158.293 L2248.34 158.293 L2248.34 131.928 L2240.03 133.595 L2240.03 129.335 L2248.29 127.669 L2252.97 127.669 L2252.97 158.293 L2260.6 158.293 L2260.6 162.229 L2240.7 162.229 L2240.7 158.293 Z" fill="#000000" fill-rule="evenodd" fill-opacity="1" /></svg>
