<?xml version="1.0" encoding="utf-8"?>
<svg xmlns="http://www.w3.org/2000/svg" xmlns:xlink="http://www.w3.org/1999/xlink" width="600" height="400" viewBox="0 0 2400 1600">
<defs>
  <clipPath id="clip110">
    <rect x="0" y="0" width="2400" height="1600"/>
  </clipPath>
</defs>
<path clip-path="url(#clip110)" d="M0 1600 L2400 1600 L2400 0 L0 0  Z" fill="#ffffff" fill-rule="evenodd" fill-opacity="1"/>
<defs>
  <clipPath id="clip111">
    <rect x="480" y="0" width="1681" height="1600"/>
  </clipPath>
</defs>
<path clip-path="url(#clip110)" d="M186.274 1486.45 L2352.76 1486.45 L2352.76 123.472 L186.274 123.472  Z" fill="#ffffff" fill-rule="evenodd" fill-opacity="1"/>
<defs>
  <clipPath id="clip112">
    <rect x="186" y="123" width="2167" height="1364"/>
  </clipPath>
</defs>
<defs>
  <clipPath id="clip113">
    <rect x="642" y="231" width="1256" height="1256"/>
  </clipPath>
</defs>
<polyline clip-path="url(#clip113)" style="stroke:#000000; stroke-linecap:round; stroke-linejoin:round; stroke-width:2; stroke-opacity:0.1; fill:none" points="1896.84,859.122 1269.51,859.122 "/>
<polyline clip-path="url(#clip113)" style="stroke:#000000; stroke-linecap:round; stroke-linejoin:round; stroke-width:2; stroke-opacity:0.1; fill:none" points="1713.1,1302.71 1269.51,859.122 "/>
<polyline clip-path="url(#clip113)" style="stroke:#000000; stroke-linecap:round; stroke-linejoin:round; stroke-width:2; stroke-opacity:0.1; fill:none" points="1269.51,1486.45 1269.51,859.122 "/>
<polyline clip-path="url(#clip113)" style="stroke:#000000; stroke-linecap:round; stroke-linejoin:round; stroke-width:2; stroke-opacity:0.1; fill:none" points="825.929,1302.71 1269.51,859.122 "/>
<polyline clip-path="url(#clip113)" style="stroke:#000000; stroke-linecap:round; stroke-linejoin:round; stroke-width:2; stroke-opacity:0.1; fill:none" points="642.189,859.122 1269.51,859.122 "/>
<polyline clip-path="url(#clip113)" style="stroke:#000000; stroke-linecap:round; stroke-linejoin:round; stroke-width:2; stroke-opacity:0.1; fill:none" points="825.929,415.536 1269.51,859.122 "/>
<polyline clip-path="url(#clip113)" style="stroke:#000000; stroke-linecap:round; stroke-linejoin:round; stroke-width:2; stroke-opacity:0.1; fill:none" points="1269.51,231.796 1269.51,859.122 "/>
<polyline clip-path="url(#clip113)" style="stroke:#000000; stroke-linecap:round; stroke-linejoin:round; stroke-width:2; stroke-opacity:0.1; fill:none" points="1713.1,415.536 1269.51,859.122 "/>
<polyline clip-path="url(#clip113)" style="stroke:#000000; stroke-linecap:round; stroke-linejoin:round; stroke-width:2; stroke-opacity:0.1; fill:none" points="1337.19,859.122 1337.18,857.941 1337.15,856.76 1337.1,855.58 1337.03,854.401 1336.93,853.224 1336.82,852.048 1336.69,850.874 1336.53,849.703 1336.36,848.535 1336.16,847.37 1335.95,846.209 1335.71,845.051 1335.46,843.898 1335.18,842.75 1334.88,841.606 1334.57,840.468 1334.23,839.335 1333.88,838.209 1333.5,837.089 1333.11,835.975 1332.7,834.869 1332.26,833.77 1331.81,832.679 1331.34,831.596 1330.85,830.521 1330.34,829.455 1329.81,828.398 1329.27,827.35 1328.71,826.312 1328.12,825.284 1327.52,824.266 1326.91,823.259 1326.27,822.263 1325.62,821.278 1324.95,820.305 1324.27,819.343 1323.56,818.394 1322.84,817.457 1322.11,816.532 1321.36,815.621 1320.59,814.723 1319.81,813.838 1319.01,812.967 1318.2,812.11 1317.37,811.268 1316.53,810.44 1315.67,809.627 1314.8,808.829 1313.91,808.046 1313.02,807.279 1312.1,806.528 1311.18,805.793 1310.24,805.074 1309.29,804.371 1308.33,803.685 1307.36,803.016 1306.37,802.364 1305.38,801.73 1304.37,801.112 1303.35,800.513 1302.32,799.931 1301.29,799.368 1300.24,798.822 1299.18,798.295 1298.12,797.787 1297.04,797.297 1295.96,796.826 1294.87,796.374 1293.77,795.941 1292.66,795.527 1291.55,795.133 1290.43,794.758 1289.3,794.403 1288.17,794.068 1287.03,793.752 1285.89,793.456 1284.74,793.181 1283.59,792.925 1282.43,792.689 1281.27,792.474 1280.1,792.279 1278.93,792.105 1277.76,791.95 1276.59,791.817 1275.41,791.704 1274.24,791.611 1273.06,791.539 1271.88,791.487 1270.7,791.456 1269.51,791.446 1268.33,791.456 1267.15,791.487 1265.97,791.539 1264.79,791.611 1263.62,791.704 1262.44,791.817 1261.27,791.95 1260.1,792.105 1258.93,792.279 1257.76,792.474 1256.6,792.689 1255.44,792.925 1254.29,793.181 1253.14,793.456 1252,793.752 1250.86,794.068 1249.73,794.403 1248.6,794.758 1247.48,795.133 1246.37,795.527 1245.26,795.941 1244.16,796.374 1243.07,796.826 1241.99,797.297 1240.91,797.787 1239.85,798.295 1238.79,798.822 1237.74,799.368 1236.7,799.931 1235.68,800.513 1234.66,801.112 1233.65,801.73 1232.66,802.364 1231.67,803.016 1230.7,803.685 1229.74,804.371 1228.79,805.074 1227.85,805.793 1226.93,806.528 1226.01,807.279 1225.12,808.046 1224.23,808.829 1223.36,809.627 1222.5,810.44 1221.66,811.268 1220.83,812.11 1220.02,812.967 1219.22,813.838 1218.44,814.723 1217.67,815.621 1216.92,816.532 1216.19,817.457 1215.47,818.394 1214.76,819.343 1214.08,820.305 1213.41,821.278 1212.76,822.263 1212.12,823.259 1211.51,824.266 1210.91,825.284 1210.32,826.312 1209.76,827.35 1209.22,828.398 1208.69,829.455 1208.18,830.521 1207.69,831.596 1207.22,832.679 1206.77,833.77 1206.33,834.869 1205.92,835.975 1205.53,837.089 1205.15,838.209 1204.8,839.335 1204.46,840.468 1204.14,841.606 1203.85,842.75 1203.57,843.898 1203.32,845.051 1203.08,846.209 1202.87,847.37 1202.67,848.535 1202.5,849.703 1202.34,850.874 1202.21,852.048 1202.1,853.224 1202,854.401 1201.93,855.58 1201.88,856.76 1201.85,857.941 1201.84,859.122 1201.85,860.303 1201.88,861.484 1201.93,862.664 1202,863.843 1202.1,865.02 1202.21,866.196 1202.34,867.37 1202.5,868.541 1202.67,869.709 1202.87,870.874 1203.08,872.035 1203.32,873.193 1203.57,874.346 1203.85,875.494 1204.14,876.638 1204.46,877.776 1204.8,878.909 1205.15,880.035 1205.53,881.155 1205.92,882.269 1206.33,883.375 1206.77,884.474 1207.22,885.565 1207.69,886.648 1208.18,887.723 1208.69,888.789 1209.22,889.846 1209.76,890.894 1210.32,891.932 1210.91,892.96 1211.51,893.978 1212.12,894.985 1212.76,895.981 1213.41,896.966 1214.08,897.939 1214.76,898.901 1215.47,899.851 1216.19,900.788 1216.92,901.712 1217.67,902.623 1218.44,903.522 1219.22,904.406 1220.02,905.277 1220.83,906.134 1221.66,906.976 1222.5,907.804 1223.36,908.617 1224.23,909.415 1225.12,910.198 1226.01,910.965 1226.93,911.716 1227.85,912.451 1228.79,913.171 1229.74,913.873 1230.7,914.559 1231.67,915.228 1232.66,915.88 1233.65,916.515 1234.66,917.132 1235.68,917.731 1236.7,918.313 1237.74,918.876 1238.79,919.422 1239.85,919.949 1240.91,920.457 1241.99,920.947 1243.07,921.418 1244.16,921.87 1245.26,922.303 1246.37,922.717 1247.48,923.111 1248.6,923.486 1249.73,923.841 1250.86,924.176 1252,924.492 1253.14,924.788 1254.29,925.064 1255.44,925.319 1256.6,925.555 1257.76,925.77 1258.93,925.965 1260.1,926.139 1261.27,926.294 1262.44,926.427 1263.62,926.541 1264.79,926.633 1265.97,926.705 1267.15,926.757 1268.33,926.788 1269.51,926.798 1270.7,926.788 1271.88,926.757 1273.06,926.705 1274.24,926.633 1275.41,926.541 1276.59,926.427 1277.76,926.294 1278.93,926.139 1280.1,925.965 1281.27,925.77 1282.43,925.555 1283.59,925.319 1284.74,925.064 1285.89,924.788 1287.03,924.492 1288.17,924.176 1289.3,923.841 1290.43,923.486 1291.55,923.111 1292.66,922.717 1293.77,922.303 1294.87,921.87 1295.96,921.418 1297.04,920.947 1298.12,920.457 1299.18,919.949 1300.24,919.422 1301.29,918.876 1302.32,918.313 1303.35,917.731 1304.37,917.132 1305.38,916.515 1306.37,915.88 1307.36,915.228 1308.33,914.559 1309.29,913.873 1310.24,913.171 1311.18,912.451 1312.1,911.716 1313.02,910.965 1313.91,910.198 1314.8,909.415 1315.67,908.617 1316.53,907.804 1317.37,906.976 1318.2,906.134 1319.01,905.277 1319.81,904.406 1320.59,903.522 1321.36,902.623 1322.11,901.712 1322.84,900.788 1323.56,899.851 1324.27,898.901 1324.95,897.939 1325.62,896.966 1326.27,895.981 1326.91,894.985 1327.52,893.978 1328.12,892.96 1328.71,891.932 1329.27,890.894 1329.81,889.846 1330.34,888.789 1330.85,887.723 1331.34,886.648 1331.81,885.565 1332.26,884.474 1332.7,883.375 1333.11,882.269 1333.5,881.155 1333.88,880.035 1334.23,878.909 1334.57,877.776 1334.88,876.638 1335.18,875.494 1335.46,874.346 1335.71,873.193 1335.95,872.035 1336.16,870.874 1336.36,869.709 1336.53,868.541 1336.69,867.37 1336.82,866.196 1336.93,865.02 1337.03,863.843 1337.1,862.664 1337.15,861.484 1337.18,860.303 "/>
<polyline clip-path="url(#clip113)" style="stroke:#000000; stroke-linecap:round; stroke-linejoin:round; stroke-width:2; stroke-opacity:0.1; fill:none" points="1495.89,859.122 1495.86,855.171 1495.75,851.222 1495.58,847.274 1495.34,843.331 1495.03,839.392 1494.65,835.459 1494.2,831.534 1493.69,827.616 1493.11,823.709 1492.45,819.812 1491.73,815.927 1490.95,812.056 1490.09,808.198 1489.17,804.356 1488.18,800.531 1487.12,796.724 1486,792.936 1484.81,789.168 1483.56,785.421 1482.24,781.696 1480.86,777.996 1479.41,774.32 1477.9,770.669 1476.32,767.046 1474.68,763.451 1472.98,759.885 1471.22,756.349 1469.39,752.844 1467.51,749.372 1465.56,745.933 1463.56,742.529 1461.49,739.16 1459.37,735.828 1457.19,732.533 1454.95,729.277 1452.66,726.061 1450.31,722.885 1447.9,719.75 1445.44,716.658 1442.93,713.61 1440.36,710.605 1437.75,707.646 1435.08,704.733 1432.36,701.867 1429.59,699.049 1426.77,696.28 1423.9,693.56 1420.99,690.891 1418.03,688.273 1415.03,685.707 1411.98,683.194 1408.89,680.734 1405.75,678.329 1402.58,675.979 1399.36,673.685 1396.1,671.447 1392.81,669.266 1389.48,667.143 1386.11,665.079 1382.7,663.074 1379.26,661.128 1375.79,659.243 1372.29,657.418 1368.75,655.656 1365.19,653.955 1361.59,652.316 1357.97,650.741 1354.32,649.229 1350.64,647.781 1346.94,646.397 1343.22,645.078 1339.47,643.824 1335.7,642.636 1331.91,641.514 1328.11,640.458 1324.28,639.469 1320.44,638.547 1316.58,637.692 1312.71,636.904 1308.82,636.184 1304.93,635.532 1301.02,634.948 1297.1,634.432 1293.18,633.985 1289.25,633.606 1285.31,633.296 1281.36,633.055 1277.42,632.883 1273.47,632.779 1269.51,632.745 1265.56,632.779 1261.61,632.883 1257.67,633.055 1253.72,633.296 1249.78,633.606 1245.85,633.985 1241.93,634.432 1238.01,634.948 1234.1,635.532 1230.2,636.184 1226.32,636.904 1222.45,637.692 1218.59,638.547 1214.75,639.469 1210.92,640.458 1207.12,641.514 1203.33,642.636 1199.56,643.824 1195.81,645.078 1192.09,646.397 1188.39,647.781 1184.71,649.229 1181.06,650.741 1177.44,652.316 1173.84,653.955 1170.28,655.656 1166.74,657.418 1163.24,659.243 1159.77,661.128 1156.33,663.074 1152.92,665.079 1149.55,667.143 1146.22,669.266 1142.93,671.447 1139.67,673.685 1136.45,675.979 1133.28,678.329 1130.14,680.734 1127.05,683.194 1124,685.707 1121,688.273 1118.04,690.891 1115.13,693.56 1112.26,696.28 1109.44,699.049 1106.67,701.867 1103.95,704.733 1101.28,707.646 1098.67,710.605 1096.1,713.61 1093.59,716.658 1091.13,719.75 1088.72,722.885 1086.37,726.061 1084.08,729.277 1081.84,732.533 1079.66,735.828 1077.54,739.16 1075.47,742.529 1073.47,745.933 1071.52,749.372 1069.64,752.844 1067.81,756.349 1066.05,759.885 1064.35,763.451 1062.71,767.046 1061.13,770.669 1059.62,774.32 1058.17,777.996 1056.79,781.696 1055.47,785.421 1054.22,789.168 1053.03,792.936 1051.91,796.724 1050.85,800.531 1049.86,804.356 1048.94,808.198 1048.08,812.056 1047.3,815.927 1046.58,819.812 1045.92,823.709 1045.34,827.616 1044.83,831.534 1044.38,835.459 1044,839.392 1043.69,843.331 1043.45,847.274 1043.28,851.222 1043.17,855.171 1043.14,859.122 1043.17,863.073 1043.28,867.022 1043.45,870.97 1043.69,874.913 1044,878.852 1044.38,882.785 1044.83,886.71 1045.34,890.628 1045.92,894.535 1046.58,898.432 1047.3,902.317 1048.08,906.189 1048.94,910.046 1049.86,913.888 1050.85,917.713 1051.91,921.52 1053.03,925.308 1054.22,929.076 1055.47,932.823 1056.79,936.548 1058.17,940.248 1059.62,943.924 1061.13,947.575 1062.71,951.198 1064.35,954.793 1066.05,958.359 1067.81,961.895 1069.64,965.4 1071.52,968.872 1073.47,972.311 1075.47,975.715 1077.54,979.084 1079.66,982.416 1081.84,985.711 1084.08,988.967 1086.37,992.183 1088.72,995.359 1091.13,998.494 1093.59,1001.59 1096.1,1004.63 1098.67,1007.64 1101.28,1010.6 1103.95,1013.51 1106.67,1016.38 1109.44,1019.19 1112.26,1021.96 1115.13,1024.68 1118.04,1027.35 1121,1029.97 1124,1032.54 1127.05,1035.05 1130.14,1037.51 1133.28,1039.91 1136.45,1042.27 1139.67,1044.56 1142.93,1046.8 1146.22,1048.98 1149.55,1051.1 1152.92,1053.17 1156.33,1055.17 1159.77,1057.12 1163.24,1059 1166.74,1060.83 1170.28,1062.59 1173.84,1064.29 1177.44,1065.93 1181.06,1067.5 1184.71,1069.02 1188.39,1070.46 1192.09,1071.85 1195.81,1073.17 1199.56,1074.42 1203.33,1075.61 1207.12,1076.73 1210.92,1077.79 1214.75,1078.77 1218.59,1079.7 1222.45,1080.55 1226.32,1081.34 1230.2,1082.06 1234.1,1082.71 1238.01,1083.3 1241.93,1083.81 1245.85,1084.26 1249.78,1084.64 1253.72,1084.95 1257.67,1085.19 1261.61,1085.36 1265.56,1085.46 1269.51,1085.5 1273.47,1085.46 1277.42,1085.36 1281.36,1085.19 1285.31,1084.95 1289.25,1084.64 1293.18,1084.26 1297.1,1083.81 1301.02,1083.3 1304.93,1082.71 1308.82,1082.06 1312.71,1081.34 1316.58,1080.55 1320.44,1079.7 1324.28,1078.77 1328.11,1077.79 1331.91,1076.73 1335.7,1075.61 1339.47,1074.42 1343.22,1073.17 1346.94,1071.85 1350.64,1070.46 1354.32,1069.02 1357.97,1067.5 1361.59,1065.93 1365.19,1064.29 1368.75,1062.59 1372.29,1060.83 1375.79,1059 1379.26,1057.12 1382.7,1055.17 1386.11,1053.17 1389.48,1051.1 1392.81,1048.98 1396.1,1046.8 1399.36,1044.56 1402.58,1042.27 1405.75,1039.91 1408.89,1037.51 1411.98,1035.05 1415.03,1032.54 1418.03,1029.97 1420.99,1027.35 1423.9,1024.68 1426.77,1021.96 1429.59,1019.19 1432.36,1016.38 1435.08,1013.51 1437.75,1010.6 1440.36,1007.64 1442.93,1004.63 1445.44,1001.59 1447.9,998.494 1450.31,995.359 1452.66,992.183 1454.95,988.967 1457.19,985.711 1459.37,982.416 1461.49,979.084 1463.56,975.715 1465.56,972.311 1467.51,968.872 1469.39,965.4 1471.22,961.895 1472.98,958.359 1474.68,954.793 1476.32,951.198 1477.9,947.575 1479.41,943.924 1480.86,940.248 1482.24,936.548 1483.56,932.823 1484.81,929.076 1486,925.308 1487.12,921.52 1488.18,917.713 1489.17,913.888 1490.09,910.046 1490.95,906.189 1491.73,902.317 1492.45,898.432 1493.11,894.535 1493.69,890.628 1494.2,886.71 1494.65,882.785 1495.03,878.852 1495.34,874.913 1495.58,870.97 1495.75,867.022 1495.86,863.073 "/>
<polyline clip-path="url(#clip113)" style="stroke:#000000; stroke-linecap:round; stroke-linejoin:round; stroke-width:2; stroke-opacity:0.1; fill:none" points="1654.59,859.122 1654.53,852.402 1654.36,845.683 1654.07,838.969 1653.66,832.26 1653.13,825.56 1652.48,818.87 1651.72,812.193 1650.85,805.529 1649.85,798.883 1648.74,792.254 1647.52,785.646 1646.18,779.06 1644.72,772.498 1643.15,765.963 1641.47,759.456 1639.68,752.98 1637.77,746.536 1635.75,740.126 1633.61,733.753 1631.37,727.417 1629.02,721.122 1626.55,714.869 1623.98,708.66 1621.3,702.497 1618.51,696.381 1615.62,690.315 1612.62,684.3 1609.52,678.339 1606.31,672.432 1603,666.583 1599.59,660.792 1596.08,655.062 1592.47,649.393 1588.76,643.789 1584.95,638.25 1581.05,632.779 1577.05,627.376 1572.96,622.044 1568.78,616.784 1564.5,611.598 1560.14,606.488 1555.68,601.454 1551.14,596.499 1546.52,591.624 1541.81,586.83 1537.01,582.12 1532.14,577.493 1527.18,572.953 1522.15,568.5 1517.04,564.135 1511.85,559.86 1506.59,555.676 1501.26,551.585 1495.86,547.587 1490.39,543.684 1484.85,539.878 1479.24,536.168 1473.58,532.557 1467.85,529.045 1462.05,525.634 1456.2,522.325 1450.3,519.118 1444.34,516.015 1438.32,513.016 1432.26,510.122 1426.14,507.335 1419.98,504.655 1413.77,502.084 1407.51,499.62 1401.22,497.267 1394.88,495.023 1388.51,492.891 1382.1,490.87 1375.66,488.961 1369.18,487.165 1362.67,485.482 1356.14,483.913 1349.58,482.458 1342.99,481.119 1336.38,479.894 1329.75,478.785 1323.11,477.791 1316.44,476.914 1309.77,476.153 1303.08,475.509 1296.38,474.982 1289.67,474.571 1282.95,474.278 1276.24,474.102 1269.51,474.044 1262.79,474.102 1256.08,474.278 1249.36,474.571 1242.65,474.982 1235.95,475.509 1229.26,476.153 1222.59,476.914 1215.92,477.791 1209.28,478.785 1202.65,479.894 1196.04,481.119 1189.45,482.458 1182.89,483.913 1176.36,485.482 1169.85,487.165 1163.37,488.961 1156.93,490.87 1150.52,492.891 1144.15,495.023 1137.81,497.267 1131.52,499.62 1125.26,502.084 1119.05,504.655 1112.89,507.335 1106.77,510.122 1100.71,513.016 1094.69,516.015 1088.73,519.118 1082.83,522.325 1076.98,525.634 1071.18,529.045 1065.45,532.557 1059.79,536.168 1054.18,539.878 1048.64,543.684 1043.17,547.587 1037.77,551.585 1032.44,555.676 1027.18,559.86 1021.99,564.135 1016.88,568.5 1011.85,572.953 1006.89,577.493 1002.02,582.12 997.223,586.83 992.513,591.624 987.886,596.499 983.346,601.454 978.893,606.488 974.528,611.598 970.253,616.784 966.069,622.044 961.978,627.376 957.98,632.779 954.077,638.25 950.27,643.789 946.561,649.393 942.95,655.062 939.438,660.792 936.027,666.583 932.718,672.432 929.511,678.339 926.408,684.3 923.409,690.315 920.515,696.381 917.728,702.497 915.048,708.66 912.476,714.869 910.013,721.122 907.66,727.417 905.416,733.753 903.284,740.126 901.263,746.536 899.354,752.98 897.558,759.456 895.875,765.963 894.306,772.498 892.851,779.06 891.511,785.646 890.287,792.254 889.177,798.883 888.184,805.529 887.307,812.193 886.546,818.87 885.902,825.56 885.375,832.26 884.964,838.969 884.671,845.683 884.495,852.402 884.436,859.122 884.495,865.843 884.671,872.561 884.964,879.275 885.375,885.984 885.902,892.684 886.546,899.374 887.307,906.051 888.184,912.715 889.177,919.362 890.287,925.99 891.511,932.598 892.851,939.184 894.306,945.746 895.875,952.281 897.558,958.788 899.354,965.264 901.263,971.708 903.284,978.118 905.416,984.491 907.66,990.827 910.013,997.122 912.476,1003.37 915.048,1009.58 917.728,1015.75 920.515,1021.86 923.409,1027.93 926.408,1033.94 929.511,1039.91 932.718,1045.81 936.027,1051.66 939.438,1057.45 942.95,1063.18 946.561,1068.85 950.27,1074.46 954.077,1079.99 957.98,1085.47 961.978,1090.87 966.069,1096.2 970.253,1101.46 974.528,1106.65 978.893,1111.76 983.346,1116.79 987.886,1121.74 992.513,1126.62 997.223,1131.41 1002.02,1136.12 1006.89,1140.75 1011.85,1145.29 1016.88,1149.74 1021.99,1154.11 1027.18,1158.38 1032.44,1162.57 1037.77,1166.66 1043.17,1170.66 1048.64,1174.56 1054.18,1178.37 1059.79,1182.08 1065.45,1185.69 1071.18,1189.2 1076.98,1192.61 1082.83,1195.92 1088.73,1199.13 1094.69,1202.23 1100.71,1205.23 1106.77,1208.12 1112.89,1210.91 1119.05,1213.59 1125.26,1216.16 1131.52,1218.62 1137.81,1220.98 1144.15,1223.22 1150.52,1225.35 1156.93,1227.37 1163.37,1229.28 1169.85,1231.08 1176.36,1232.76 1182.89,1234.33 1189.45,1235.79 1196.04,1237.13 1202.65,1238.35 1209.28,1239.46 1215.92,1240.45 1222.59,1241.33 1229.26,1242.09 1235.95,1242.74 1242.65,1243.26 1249.36,1243.67 1256.08,1243.97 1262.79,1244.14 1269.51,1244.2 1276.24,1244.14 1282.95,1243.97 1289.67,1243.67 1296.38,1243.26 1303.08,1242.74 1309.77,1242.09 1316.44,1241.33 1323.11,1240.45 1329.75,1239.46 1336.38,1238.35 1342.99,1237.13 1349.58,1235.79 1356.14,1234.33 1362.67,1232.76 1369.18,1231.08 1375.66,1229.28 1382.1,1227.37 1388.51,1225.35 1394.88,1223.22 1401.22,1220.98 1407.51,1218.62 1413.77,1216.16 1419.98,1213.59 1426.14,1210.91 1432.26,1208.12 1438.32,1205.23 1444.34,1202.23 1450.3,1199.13 1456.2,1195.92 1462.05,1192.61 1467.85,1189.2 1473.58,1185.69 1479.24,1182.08 1484.85,1178.37 1490.39,1174.56 1495.86,1170.66 1501.26,1166.66 1506.59,1162.57 1511.85,1158.38 1517.04,1154.11 1522.15,1149.74 1527.18,1145.29 1532.14,1140.75 1537.01,1136.12 1541.81,1131.41 1546.52,1126.62 1551.14,1121.74 1555.68,1116.79 1560.14,1111.76 1564.5,1106.65 1568.78,1101.46 1572.96,1096.2 1577.05,1090.87 1581.05,1085.47 1584.95,1079.99 1588.76,1074.46 1592.47,1068.85 1596.08,1063.18 1599.59,1057.45 1603,1051.66 1606.31,1045.81 1609.52,1039.91 1612.62,1033.94 1615.62,1027.93 1618.51,1021.86 1621.3,1015.75 1623.98,1009.58 1626.55,1003.37 1629.02,997.122 1631.37,990.827 1633.61,984.491 1635.75,978.118 1637.77,971.708 1639.68,965.264 1641.47,958.788 1643.15,952.281 1644.72,945.746 1646.18,939.184 1647.52,932.598 1648.74,925.99 1649.85,919.362 1650.85,912.715 1651.72,906.051 1652.48,899.374 1653.13,892.684 1653.66,885.984 1654.07,879.275 1654.36,872.561 1654.53,865.843 "/>
<polyline clip-path="url(#clip113)" style="stroke:#000000; stroke-linecap:round; stroke-linejoin:round; stroke-width:2; stroke-opacity:0.1; fill:none" points="1813.29,859.122 1813.21,849.632 1812.96,840.144 1812.55,830.663 1811.97,821.19 1811.23,811.729 1810.32,802.282 1809.24,792.852 1808,783.443 1806.6,774.056 1805.03,764.696 1803.3,755.364 1801.41,746.064 1799.36,736.798 1797.14,727.57 1794.77,718.382 1792.23,709.236 1789.53,700.136 1786.68,691.085 1783.67,682.085 1780.5,673.138 1777.18,664.249 1773.7,655.419 1770.07,646.65 1766.28,637.947 1762.35,629.311 1758.26,620.745 1754.03,612.251 1749.64,603.833 1745.12,595.492 1740.44,587.232 1735.63,579.055 1730.67,570.963 1725.57,562.958 1720.33,555.044 1714.95,547.223 1709.44,539.496 1703.8,531.867 1698.02,524.338 1692.11,516.91 1686.07,509.587 1679.91,502.37 1673.62,495.262 1667.21,488.265 1660.68,481.381 1654.03,474.612 1647.26,467.96 1640.37,461.427 1633.37,455.015 1626.27,448.726 1619.05,442.563 1611.73,436.526 1604.3,430.618 1596.77,424.84 1589.14,419.195 1581.41,413.684 1573.59,408.308 1565.68,403.07 1557.67,397.971 1549.58,393.012 1541.4,388.195 1533.14,383.522 1524.8,378.993 1516.39,374.611 1507.89,370.376 1499.33,366.29 1490.69,362.355 1481.99,358.57 1473.22,354.938 1464.39,351.46 1455.5,348.136 1446.55,344.968 1437.55,341.957 1428.5,339.103 1419.4,336.407 1410.26,333.871 1401.07,331.495 1391.84,329.279 1382.57,327.225 1373.27,325.333 1363.94,323.604 1354.58,322.037 1345.19,320.634 1335.79,319.396 1326.36,318.321 1316.91,317.412 1307.45,316.667 1297.97,316.088 1288.49,315.674 1279.01,315.425 1269.51,315.342 1260.02,315.425 1250.54,315.674 1241.06,316.088 1231.58,316.667 1222.12,317.412 1212.67,318.321 1203.24,319.396 1193.84,320.634 1184.45,322.037 1175.09,323.604 1165.76,325.333 1156.46,327.225 1147.19,329.279 1137.96,331.495 1128.77,333.871 1119.63,336.407 1110.53,339.103 1101.48,341.957 1092.48,344.968 1083.53,348.136 1074.64,351.46 1065.81,354.938 1057.04,358.57 1048.34,362.355 1039.7,366.29 1031.14,370.376 1022.64,374.611 1014.23,378.993 1005.89,383.522 997.625,388.195 989.448,393.012 981.356,397.971 973.351,403.07 965.437,408.308 957.616,413.684 949.889,419.195 942.26,424.84 934.731,430.618 927.303,436.526 919.98,442.563 912.763,448.726 905.655,455.015 898.658,461.427 891.774,467.96 885.005,474.612 878.353,481.381 871.82,488.265 865.408,495.262 859.119,502.37 852.956,509.587 846.919,516.91 841.011,524.338 835.233,531.867 829.588,539.496 824.077,547.223 818.701,555.044 813.463,562.958 808.364,570.963 803.405,579.055 798.588,587.232 793.915,595.492 789.386,603.833 785.004,612.251 780.769,620.745 776.683,629.311 772.748,637.947 768.963,646.65 765.331,655.419 761.853,664.249 758.529,673.138 755.361,682.085 752.35,691.085 749.496,700.136 746.8,709.236 744.264,718.382 741.888,727.57 739.672,736.798 737.618,746.064 735.726,755.364 733.997,764.696 732.43,774.056 731.027,783.443 729.789,792.852 728.714,802.282 727.805,811.729 727.06,821.19 726.481,830.663 726.067,840.144 725.818,849.632 725.735,859.122 725.818,868.612 726.067,878.1 726.481,887.581 727.06,897.054 727.805,906.516 728.714,915.963 729.789,925.392 731.027,934.802 732.43,944.188 733.997,953.548 735.726,962.88 737.618,972.18 739.672,981.446 741.888,990.674 744.264,999.863 746.8,1009.01 749.496,1018.11 752.35,1027.16 755.361,1036.16 758.529,1045.11 761.853,1054 765.331,1062.83 768.963,1071.59 772.748,1080.3 776.683,1088.93 780.769,1097.5 785.004,1105.99 789.386,1114.41 793.915,1122.75 798.588,1131.01 803.405,1139.19 808.364,1147.28 813.463,1155.29 818.701,1163.2 824.077,1171.02 829.588,1178.75 835.233,1186.38 841.011,1193.91 846.919,1201.33 852.956,1208.66 859.119,1215.87 865.408,1222.98 871.82,1229.98 878.353,1236.86 885.005,1243.63 891.774,1250.28 898.658,1256.82 905.655,1263.23 912.763,1269.52 919.98,1275.68 927.303,1281.72 934.731,1287.63 942.26,1293.4 949.889,1299.05 957.616,1304.56 965.437,1309.94 973.351,1315.17 981.356,1320.27 989.448,1325.23 997.625,1330.05 1005.89,1334.72 1014.23,1339.25 1022.64,1343.63 1031.14,1347.87 1039.7,1351.95 1048.34,1355.89 1057.04,1359.67 1065.81,1363.31 1074.64,1366.78 1083.53,1370.11 1092.48,1373.28 1101.48,1376.29 1110.53,1379.14 1119.63,1381.84 1128.77,1384.37 1137.96,1386.75 1147.19,1388.96 1156.46,1391.02 1165.76,1392.91 1175.09,1394.64 1184.45,1396.21 1193.84,1397.61 1203.24,1398.85 1212.67,1399.92 1222.12,1400.83 1231.58,1401.58 1241.06,1402.16 1250.54,1402.57 1260.02,1402.82 1269.51,1402.9 1279.01,1402.82 1288.49,1402.57 1297.97,1402.16 1307.45,1401.58 1316.91,1400.83 1326.36,1399.92 1335.79,1398.85 1345.19,1397.61 1354.58,1396.21 1363.94,1394.64 1373.27,1392.91 1382.57,1391.02 1391.84,1388.96 1401.07,1386.75 1410.26,1384.37 1419.4,1381.84 1428.5,1379.14 1437.55,1376.29 1446.55,1373.28 1455.5,1370.11 1464.39,1366.78 1473.22,1363.31 1481.99,1359.67 1490.69,1355.89 1499.33,1351.95 1507.89,1347.87 1516.39,1343.63 1524.8,1339.25 1533.14,1334.72 1541.4,1330.05 1549.58,1325.23 1557.67,1320.27 1565.68,1315.17 1573.59,1309.94 1581.41,1304.56 1589.14,1299.05 1596.77,1293.4 1604.3,1287.63 1611.73,1281.72 1619.05,1275.68 1626.27,1269.52 1633.37,1263.23 1640.37,1256.82 1647.26,1250.28 1654.03,1243.63 1660.68,1236.86 1667.21,1229.98 1673.62,1222.98 1679.91,1215.87 1686.07,1208.66 1692.11,1201.33 1698.02,1193.91 1703.8,1186.38 1709.44,1178.75 1714.95,1171.02 1720.33,1163.2 1725.57,1155.29 1730.67,1147.28 1735.63,1139.19 1740.44,1131.01 1745.12,1122.75 1749.64,1114.41 1754.03,1105.99 1758.26,1097.5 1762.35,1088.93 1766.28,1080.3 1770.07,1071.59 1773.7,1062.83 1777.18,1054 1780.5,1045.11 1783.67,1036.16 1786.68,1027.16 1789.53,1018.11 1792.23,1009.01 1794.77,999.863 1797.14,990.674 1799.36,981.446 1801.41,972.18 1803.3,962.88 1805.03,953.548 1806.6,944.188 1808,934.802 1809.24,925.392 1810.32,915.963 1811.23,906.516 1811.97,897.054 1812.55,887.581 1812.96,878.1 1813.21,868.612 "/>
<polyline clip-path="url(#clip113)" style="stroke:#000000; stroke-linecap:round; stroke-linejoin:round; stroke-width:2; stroke-opacity:0.1; fill:none" points="1896.84,859.122 1896.75,848.174 1896.46,837.229 1895.98,826.29 1895.31,815.362 1894.45,804.447 1893.4,793.549 1892.16,782.67 1890.74,771.815 1889.12,760.987 1887.31,750.188 1885.32,739.423 1883.13,728.694 1880.76,718.004 1878.21,707.358 1875.47,696.758 1872.54,686.208 1869.43,675.71 1866.14,665.268 1862.66,654.885 1859.01,644.564 1855.17,634.309 1851.16,624.122 1846.97,614.006 1842.61,603.966 1838.07,594.003 1833.35,584.121 1828.47,574.322 1823.41,564.61 1818.19,554.988 1812.8,545.459 1807.24,536.025 1801.52,526.69 1795.63,517.456 1789.59,508.326 1783.39,499.303 1777.03,490.389 1770.52,481.588 1763.85,472.902 1757.04,464.333 1750.07,455.885 1742.96,447.559 1735.71,439.359 1728.31,431.287 1720.78,423.345 1713.1,415.536 1705.29,407.862 1697.35,400.325 1689.28,392.928 1681.08,385.673 1672.75,378.563 1664.3,371.598 1655.74,364.783 1647.05,358.117 1638.25,351.605 1629.33,345.247 1620.31,339.045 1611.18,333.002 1601.95,327.12 1592.61,321.399 1583.18,315.842 1573.65,310.451 1564.03,305.226 1554.31,300.171 1544.52,295.285 1534.63,290.572 1524.67,286.031 1514.63,281.666 1504.52,277.476 1494.33,273.463 1484.07,269.629 1473.75,265.974 1463.37,262.5 1452.93,259.207 1442.43,256.098 1431.88,253.172 1421.28,250.43 1410.63,247.875 1399.94,245.505 1389.21,243.322 1378.45,241.327 1367.65,239.52 1356.82,237.901 1345.97,236.472 1335.09,235.233 1324.19,234.183 1313.27,233.324 1302.35,232.656 1291.41,232.178 1280.46,231.892 1269.51,231.796 1258.57,231.892 1247.62,232.178 1236.68,232.656 1225.75,233.324 1214.84,234.183 1203.94,235.233 1193.06,236.472 1182.21,237.901 1171.38,239.52 1160.58,241.327 1149.82,243.322 1139.09,245.505 1128.4,247.875 1117.75,250.43 1107.15,253.172 1096.6,256.098 1086.1,259.207 1075.66,262.5 1065.28,265.974 1054.96,269.629 1044.7,273.463 1034.51,277.476 1024.4,281.666 1014.36,286.031 1004.4,290.572 994.513,295.285 984.715,300.171 975.003,305.226 965.381,310.451 955.852,315.842 946.418,321.399 937.083,327.12 927.849,333.002 918.719,339.045 909.696,345.247 900.782,351.605 891.981,358.117 883.295,364.783 874.726,371.598 866.278,378.563 857.952,385.673 849.752,392.928 841.68,400.325 833.738,407.862 825.929,415.536 818.255,423.345 810.718,431.287 803.321,439.359 796.066,447.559 788.955,455.885 781.991,464.333 775.175,472.902 768.51,481.588 761.998,490.389 755.64,499.303 749.438,508.326 743.395,517.456 737.512,526.69 731.792,536.025 726.235,545.459 720.843,554.988 715.619,564.61 710.564,574.322 705.678,584.121 700.965,594.003 696.424,603.966 692.058,614.006 687.869,624.122 683.856,634.309 680.022,644.564 676.367,654.885 672.893,665.268 669.6,675.71 666.491,686.208 663.565,696.758 660.823,707.358 658.267,718.004 655.898,728.694 653.715,739.423 651.72,750.188 649.913,760.987 648.294,771.815 646.865,782.67 645.626,793.549 644.576,804.447 643.717,815.362 643.049,826.29 642.571,837.229 642.285,848.174 642.189,859.122 642.285,870.07 642.571,881.015 643.049,891.954 643.717,902.882 644.576,913.797 645.626,924.695 646.865,935.574 648.294,946.429 649.913,957.257 651.72,968.056 653.715,978.821 655.898,989.55 658.267,1000.24 660.823,1010.89 663.565,1021.49 666.491,1032.04 669.6,1042.53 672.893,1052.98 676.367,1063.36 680.022,1073.68 683.856,1083.94 687.869,1094.12 692.058,1104.24 696.424,1114.28 700.965,1124.24 705.678,1134.12 710.564,1143.92 715.619,1153.63 720.843,1163.26 726.235,1172.78 731.792,1182.22 737.512,1191.55 743.395,1200.79 749.438,1209.92 755.64,1218.94 761.998,1227.85 768.51,1236.66 775.175,1245.34 781.991,1253.91 788.955,1262.36 796.066,1270.68 803.321,1278.88 810.718,1286.96 818.255,1294.9 825.929,1302.71 833.738,1310.38 841.68,1317.92 849.752,1325.32 857.952,1332.57 866.278,1339.68 874.726,1346.65 883.295,1353.46 891.981,1360.13 900.782,1366.64 909.696,1373 918.719,1379.2 927.849,1385.24 937.083,1391.12 946.418,1396.85 955.852,1402.4 965.381,1407.79 975.003,1413.02 984.715,1418.07 994.513,1422.96 1004.4,1427.67 1014.36,1432.21 1024.4,1436.58 1034.51,1440.77 1044.7,1444.78 1054.96,1448.62 1065.28,1452.27 1075.66,1455.74 1086.1,1459.04 1096.6,1462.15 1107.15,1465.07 1117.75,1467.81 1128.4,1470.37 1139.09,1472.74 1149.82,1474.92 1160.58,1476.92 1171.38,1478.72 1182.21,1480.34 1193.06,1481.77 1203.94,1483.01 1214.84,1484.06 1225.75,1484.92 1236.68,1485.59 1247.62,1486.07 1258.57,1486.35 1269.51,1486.45 1280.46,1486.35 1291.41,1486.07 1302.35,1485.59 1313.27,1484.92 1324.19,1484.06 1335.09,1483.01 1345.97,1481.77 1356.82,1480.34 1367.65,1478.72 1378.45,1476.92 1389.21,1474.92 1399.94,1472.74 1410.63,1470.37 1421.28,1467.81 1431.88,1465.07 1442.43,1462.15 1452.93,1459.04 1463.37,1455.74 1473.75,1452.27 1484.07,1448.62 1494.33,1444.78 1504.52,1440.77 1514.63,1436.58 1524.67,1432.21 1534.63,1427.67 1544.52,1422.96 1554.31,1418.07 1564.03,1413.02 1573.65,1407.79 1583.18,1402.4 1592.61,1396.85 1601.95,1391.12 1611.18,1385.24 1620.31,1379.2 1629.33,1373 1638.25,1366.64 1647.05,1360.13 1655.74,1353.46 1664.3,1346.65 1672.75,1339.68 1681.08,1332.57 1689.28,1325.32 1697.35,1317.92 1705.29,1310.38 1713.1,1302.71 1720.78,1294.9 1728.31,1286.96 1735.71,1278.88 1742.96,1270.68 1750.07,1262.36 1757.04,1253.91 1763.85,1245.34 1770.52,1236.66 1777.03,1227.85 1783.39,1218.94 1789.59,1209.92 1795.63,1200.79 1801.52,1191.55 1807.24,1182.22 1812.8,1172.78 1818.19,1163.26 1823.41,1153.63 1828.47,1143.92 1833.35,1134.12 1838.07,1124.24 1842.61,1114.28 1846.97,1104.24 1851.16,1094.12 1855.17,1083.94 1859.01,1073.68 1862.66,1063.36 1866.14,1052.98 1869.43,1042.53 1872.54,1032.04 1875.47,1021.49 1878.21,1010.89 1880.76,1000.24 1883.13,989.55 1885.32,978.821 1887.31,968.056 1889.12,957.257 1890.74,946.429 1892.16,935.574 1893.4,924.695 1894.45,913.797 1895.31,902.882 1895.98,891.954 1896.46,881.015 1896.75,870.07 "/>
<polyline clip-path="url(#clip113)" style="stroke:#ededed; stroke-linecap:round; stroke-linejoin:round; stroke-width:2; stroke-opacity:1; fill:none" points="1896.84,859.122 1896.75,848.174 1896.46,837.229 1895.98,826.29 1895.31,815.362 1894.45,804.447 1893.4,793.549 1892.16,782.67 1890.74,771.815 1889.12,760.987 1887.31,750.188 1885.32,739.423 1883.13,728.694 1880.76,718.004 1878.21,707.358 1875.47,696.758 1872.54,686.208 1869.43,675.71 1866.14,665.268 1862.66,654.885 1859.01,644.564 1855.17,634.309 1851.16,624.122 1846.97,614.006 1842.61,603.966 1838.07,594.003 1833.35,584.121 1828.47,574.322 1823.41,564.61 1818.19,554.988 1812.8,545.459 1807.24,536.025 1801.52,526.69 1795.63,517.456 1789.59,508.326 1783.39,499.303 1777.03,490.389 1770.52,481.588 1763.85,472.902 1757.04,464.333 1750.07,455.885 1742.96,447.559 1735.71,439.359 1728.31,431.287 1720.78,423.345 1713.1,415.536 1705.29,407.862 1697.35,400.325 1689.28,392.928 1681.08,385.673 1672.75,378.563 1664.3,371.598 1655.74,364.783 1647.05,358.117 1638.25,351.605 1629.33,345.247 1620.31,339.045 1611.18,333.002 1601.95,327.12 1592.61,321.399 1583.18,315.842 1573.65,310.451 1564.03,305.226 1554.31,300.171 1544.52,295.285 1534.63,290.572 1524.67,286.031 1514.63,281.666 1504.52,277.476 1494.33,273.463 1484.07,269.629 1473.75,265.974 1463.37,262.5 1452.93,259.207 1442.43,256.098 1431.88,253.172 1421.28,250.43 1410.63,247.875 1399.94,245.505 1389.21,243.322 1378.45,241.327 1367.65,239.52 1356.82,237.901 1345.97,236.472 1335.09,235.233 1324.19,234.183 1313.27,233.324 1302.35,232.656 1291.41,232.178 1280.46,231.892 1269.51,231.796 1258.57,231.892 1247.62,232.178 1236.68,232.656 1225.75,233.324 1214.84,234.183 1203.94,235.233 1193.06,236.472 1182.21,237.901 1171.38,239.52 1160.58,241.327 1149.82,243.322 1139.09,245.505 1128.4,247.875 1117.75,250.43 1107.15,253.172 1096.6,256.098 1086.1,259.207 1075.66,262.5 1065.28,265.974 1054.96,269.629 1044.7,273.463 1034.51,277.476 1024.4,281.666 1014.36,286.031 1004.4,290.572 994.513,295.285 984.715,300.171 975.003,305.226 965.381,310.451 955.852,315.842 946.418,321.399 937.083,327.12 927.849,333.002 918.719,339.045 909.696,345.247 900.782,351.605 891.981,358.117 883.295,364.783 874.726,371.598 866.278,378.563 857.952,385.673 849.752,392.928 841.68,400.325 833.738,407.862 825.929,415.536 818.255,423.345 810.718,431.287 803.321,439.359 796.066,447.559 788.955,455.885 781.991,464.333 775.175,472.902 768.51,481.588 761.998,490.389 755.64,499.303 749.438,508.326 743.395,517.456 737.512,526.69 731.792,536.025 726.235,545.459 720.843,554.988 715.619,564.61 710.564,574.322 705.678,584.121 700.965,594.003 696.424,603.966 692.058,614.006 687.869,624.122 683.856,634.309 680.022,644.564 676.367,654.885 672.893,665.268 669.6,675.71 666.491,686.208 663.565,696.758 660.823,707.358 658.267,718.004 655.898,728.694 653.715,739.423 651.72,750.188 649.913,760.987 648.294,771.815 646.865,782.67 645.626,793.549 644.576,804.447 643.717,815.362 643.049,826.29 642.571,837.229 642.285,848.174 642.189,859.122 642.285,870.07 642.571,881.015 643.049,891.954 643.717,902.882 644.576,913.797 645.626,924.695 646.865,935.574 648.294,946.429 649.913,957.257 651.72,968.056 653.715,978.821 655.898,989.55 658.267,1000.24 660.823,1010.89 663.565,1021.49 666.491,1032.04 669.6,1042.53 672.893,1052.98 676.367,1063.36 680.022,1073.68 683.856,1083.94 687.869,1094.12 692.058,1104.24 696.424,1114.28 700.965,1124.24 705.678,1134.12 710.564,1143.92 715.619,1153.63 720.843,1163.26 726.235,1172.78 731.792,1182.22 737.512,1191.55 743.395,1200.79 749.438,1209.92 755.64,1218.94 761.998,1227.85 768.51,1236.66 775.175,1245.34 781.991,1253.91 788.955,1262.36 796.066,1270.68 803.321,1278.88 810.718,1286.96 818.255,1294.9 825.929,1302.71 833.738,1310.38 841.68,1317.92 849.752,1325.32 857.952,1332.57 866.278,1339.68 874.726,1346.65 883.295,1353.46 891.981,1360.13 900.782,1366.64 909.696,1373 918.719,1379.2 927.849,1385.24 937.083,1391.12 946.418,1396.85 955.852,1402.4 965.381,1407.79 975.003,1413.02 984.715,1418.07 994.513,1422.96 1004.4,1427.67 1014.36,1432.21 1024.4,1436.58 1034.51,1440.77 1044.7,1444.78 1054.96,1448.62 1065.28,1452.27 1075.66,1455.74 1086.1,1459.04 1096.6,1462.15 1107.15,1465.07 1117.75,1467.81 1128.4,1470.37 1139.09,1472.74 1149.82,1474.92 1160.58,1476.92 1171.38,1478.72 1182.21,1480.34 1193.06,1481.77 1203.94,1483.01 1214.84,1484.06 1225.75,1484.92 1236.68,1485.59 1247.62,1486.07 1258.57,1486.35 1269.51,1486.45 1280.46,1486.35 1291.41,1486.07 1302.35,1485.59 1313.27,1484.92 1324.19,1484.06 1335.09,1483.01 1345.97,1481.77 1356.82,1480.34 1367.65,1478.72 1378.45,1476.92 1389.21,1474.92 1399.94,1472.74 1410.63,1470.37 1421.28,1467.81 1431.88,1465.07 1442.43,1462.15 1452.93,1459.04 1463.37,1455.74 1473.75,1452.27 1484.07,1448.62 1494.33,1444.78 1504.52,1440.77 1514.63,1436.58 1524.67,1432.21 1534.63,1427.67 1544.52,1422.96 1554.31,1418.07 1564.03,1413.02 1573.65,1407.79 1583.18,1402.4 1592.61,1396.85 1601.95,1391.12 1611.18,1385.24 1620.31,1379.2 1629.33,1373 1638.25,1366.64 1647.05,1360.13 1655.74,1353.46 1664.3,1346.65 1672.75,1339.68 1681.08,1332.57 1689.28,1325.32 1697.35,1317.92 1705.29,1310.38 1713.1,1302.71 1720.78,1294.9 1728.31,1286.96 1735.71,1278.88 1742.96,1270.68 1750.07,1262.36 1757.04,1253.91 1763.85,1245.34 1770.52,1236.66 1777.03,1227.85 1783.39,1218.94 1789.59,1209.92 1795.63,1200.79 1801.52,1191.55 1807.24,1182.22 1812.8,1172.78 1818.19,1163.26 1823.41,1153.63 1828.47,1143.92 1833.35,1134.12 1838.07,1124.24 1842.61,1114.28 1846.97,1104.24 1851.16,1094.12 1855.17,1083.94 1859.01,1073.68 1862.66,1063.36 1866.14,1052.98 1869.43,1042.53 1872.54,1032.04 1875.47,1021.49 1878.21,1010.89 1880.76,1000.24 1883.13,989.55 1885.32,978.821 1887.31,968.056 1889.12,957.257 1890.74,946.429 1892.16,935.574 1893.4,924.695 1894.45,913.797 1895.31,902.882 1895.98,891.954 1896.46,881.015 1896.75,870.07 "/>
<path clip-path="url(#clip110)" d="M1949.91 851.368 Q1946.3 851.368 1944.47 854.933 Q1942.66 858.475 1942.66 865.604 Q1942.66 872.711 1944.47 876.276 Q1946.3 879.817 1949.91 879.817 Q1953.54 879.817 1955.35 876.276 Q1957.17 872.711 1957.17 865.604 Q1957.17 858.475 1955.35 854.933 Q1953.54 851.368 1949.91 851.368 M1949.91 847.665 Q1955.72 847.665 1958.77 852.271 Q1961.85 856.854 1961.85 865.604 Q1961.85 874.331 1958.77 878.938 Q1955.72 883.521 1949.91 883.521 Q1944.1 883.521 1941.02 878.938 Q1937.96 874.331 1937.96 865.604 Q1937.96 856.854 1941.02 852.271 Q1944.1 847.665 1949.91 847.665 Z" fill="#000000" fill-rule="evenodd" fill-opacity="1" /><path clip-path="url(#clip110)" d="M1971.52 836.801 Q1968.73 836.801 1967.12 838.982 Q1965.5 841.145 1965.5 844.926 Q1965.5 848.706 1967.1 850.888 Q1968.72 853.051 1971.52 853.051 Q1974.28 853.051 1975.9 850.869 Q1977.52 848.687 1977.52 844.926 Q1977.52 841.183 1975.9 839.001 Q1974.28 836.801 1971.52 836.801 M1971.52 833.867 Q1976.03 833.867 1978.61 836.801 Q1981.18 839.735 1981.18 844.926 Q1981.18 850.098 1978.61 853.051 Q1976.03 855.985 1971.52 855.985 Q1966.99 855.985 1964.41 853.051 Q1961.85 850.098 1961.85 844.926 Q1961.85 839.735 1964.41 836.801 Q1966.99 833.867 1971.52 833.867 Z" fill="#000000" fill-rule="evenodd" fill-opacity="1" /><path clip-path="url(#clip110)" d="M1722.05 1352.16 Q1725.41 1352.88 1727.28 1355.15 Q1729.18 1357.42 1729.18 1360.75 Q1729.18 1365.86 1725.66 1368.67 Q1722.14 1371.47 1715.66 1371.47 Q1713.49 1371.47 1711.17 1371.03 Q1708.88 1370.61 1706.43 1369.75 L1706.43 1365.24 Q1708.37 1366.37 1710.69 1366.95 Q1713 1367.53 1715.52 1367.53 Q1719.92 1367.53 1722.21 1365.79 Q1724.53 1364.06 1724.53 1360.75 Q1724.53 1357.69 1722.38 1355.98 Q1720.25 1354.24 1716.43 1354.24 L1712.4 1354.24 L1712.4 1350.4 L1716.61 1350.4 Q1720.06 1350.4 1721.89 1349.04 Q1723.72 1347.65 1723.72 1345.05 Q1723.72 1342.39 1721.82 1340.98 Q1719.95 1339.54 1716.43 1339.54 Q1714.51 1339.54 1712.31 1339.96 Q1710.11 1340.38 1707.47 1341.26 L1707.47 1337.09 Q1710.13 1336.35 1712.45 1335.98 Q1714.78 1335.61 1716.84 1335.61 Q1722.17 1335.61 1725.27 1338.04 Q1728.37 1340.45 1728.37 1344.57 Q1728.37 1347.44 1726.73 1349.43 Q1725.08 1351.4 1722.05 1352.16 Z" fill="#000000" fill-rule="evenodd" fill-opacity="1" /><path clip-path="url(#clip110)" d="M1738.86 1366.86 L1746.5 1366.86 L1746.5 1340.49 L1738.19 1342.16 L1738.19 1337.9 L1746.45 1336.23 L1751.13 1336.23 L1751.13 1366.86 L1758.76 1366.86 L1758.76 1370.79 L1738.86 1370.79 L1738.86 1366.86 Z" fill="#000000" fill-rule="evenodd" fill-opacity="1" /><path clip-path="url(#clip110)" d="M1768.26 1336.23 L1786.61 1336.23 L1786.61 1340.17 L1772.54 1340.17 L1772.54 1348.64 Q1773.56 1348.29 1774.58 1348.13 Q1775.59 1347.95 1776.61 1347.95 Q1782.4 1347.95 1785.78 1351.12 Q1789.16 1354.29 1789.16 1359.71 Q1789.16 1365.29 1785.69 1368.39 Q1782.21 1371.47 1775.89 1371.47 Q1773.72 1371.47 1771.45 1371.1 Q1769.2 1370.73 1766.8 1369.98 L1766.8 1365.29 Q1768.88 1366.42 1771.1 1366.98 Q1773.33 1367.53 1775.8 1367.53 Q1779.81 1367.53 1782.14 1365.42 Q1784.48 1363.32 1784.48 1359.71 Q1784.48 1356.1 1782.14 1353.99 Q1779.81 1351.88 1775.8 1351.88 Q1773.93 1351.88 1772.05 1352.3 Q1770.2 1352.72 1768.26 1353.6 L1768.26 1336.23 Z" fill="#000000" fill-rule="evenodd" fill-opacity="1" /><path clip-path="url(#clip110)" d="M1798.83 1324.75 Q1796.04 1324.75 1794.42 1326.93 Q1792.81 1329.09 1792.81 1332.87 Q1792.81 1336.65 1794.41 1338.83 Q1796.02 1341 1798.83 1341 Q1801.59 1341 1803.21 1338.81 Q1804.83 1336.63 1804.83 1332.87 Q1804.83 1329.13 1803.21 1326.95 Q1801.59 1324.75 1798.83 1324.75 M1798.83 1321.81 Q1803.34 1321.81 1805.92 1324.75 Q1808.49 1327.68 1808.49 1332.87 Q1808.49 1338.04 1805.92 1341 Q1803.34 1343.93 1798.83 1343.93 Q1794.29 1343.93 1791.72 1341 Q1789.16 1338.04 1789.16 1332.87 Q1789.16 1327.68 1791.72 1324.75 Q1794.29 1321.81 1798.83 1321.81 Z" fill="#000000" fill-rule="evenodd" fill-opacity="1" /><path clip-path="url(#clip110)" d="M1223.54 1568.97 L1239.86 1568.97 L1239.86 1572.91 L1217.92 1572.91 L1217.92 1568.97 Q1220.58 1566.22 1225.16 1561.59 Q1229.77 1556.94 1230.95 1555.59 Q1233.19 1553.07 1234.07 1551.33 Q1234.98 1549.57 1234.98 1547.89 Q1234.98 1545.13 1233.03 1543.39 Q1231.11 1541.66 1228.01 1541.66 Q1225.81 1541.66 1223.35 1542.42 Q1220.92 1543.19 1218.15 1544.74 L1218.15 1540.01 Q1220.97 1538.88 1223.42 1538.3 Q1225.88 1537.72 1227.92 1537.72 Q1233.29 1537.72 1236.48 1540.41 Q1239.67 1543.09 1239.67 1547.58 Q1239.67 1549.71 1238.86 1551.64 Q1238.08 1553.53 1235.97 1556.13 Q1235.39 1556.8 1232.29 1560.01 Q1229.19 1563.21 1223.54 1568.97 Z" fill="#000000" fill-rule="evenodd" fill-opacity="1" /><path clip-path="url(#clip110)" d="M1248.49 1538.35 L1270.72 1538.35 L1270.72 1540.34 L1258.17 1572.91 L1253.29 1572.91 L1265.09 1542.28 L1248.49 1542.28 L1248.49 1538.35 Z" fill="#000000" fill-rule="evenodd" fill-opacity="1" /><path clip-path="url(#clip110)" d="M1289.84 1541.43 Q1286.22 1541.43 1284.4 1544.99 Q1282.59 1548.53 1282.59 1555.66 Q1282.59 1562.77 1284.4 1566.33 Q1286.22 1569.88 1289.84 1569.88 Q1293.47 1569.88 1295.28 1566.33 Q1297.1 1562.77 1297.1 1555.66 Q1297.1 1548.53 1295.28 1544.99 Q1293.47 1541.43 1289.84 1541.43 M1289.84 1537.72 Q1295.65 1537.72 1298.7 1542.33 Q1301.78 1546.91 1301.78 1555.66 Q1301.78 1564.39 1298.7 1569 Q1295.65 1573.58 1289.84 1573.58 Q1284.03 1573.58 1280.95 1569 Q1277.89 1564.39 1277.89 1555.66 Q1277.89 1546.91 1280.95 1542.33 Q1284.03 1537.72 1289.84 1537.72 Z" fill="#000000" fill-rule="evenodd" fill-opacity="1" /><path clip-path="url(#clip110)" d="M1311.45 1526.86 Q1308.66 1526.86 1307.05 1529.04 Q1305.43 1531.2 1305.43 1534.98 Q1305.43 1538.76 1307.03 1540.95 Q1308.65 1543.11 1311.45 1543.11 Q1314.21 1543.11 1315.83 1540.93 Q1317.45 1538.75 1317.45 1534.98 Q1317.45 1531.24 1315.83 1529.06 Q1314.21 1526.86 1311.45 1526.86 M1311.45 1523.93 Q1315.96 1523.93 1318.54 1526.86 Q1321.11 1529.79 1321.11 1534.98 Q1321.11 1540.16 1318.54 1543.11 Q1315.96 1546.04 1311.45 1546.04 Q1306.91 1546.04 1304.34 1543.11 Q1301.78 1540.16 1301.78 1534.98 Q1301.78 1529.79 1304.34 1526.86 Q1306.91 1523.93 1311.45 1523.93 Z" fill="#000000" fill-rule="evenodd" fill-opacity="1" /><path clip-path="url(#clip110)" d="M736.093 1366.86 L752.412 1366.86 L752.412 1370.79 L730.468 1370.79 L730.468 1366.86 Q733.13 1364.1 737.713 1359.48 Q742.32 1354.82 743.5 1353.48 Q745.746 1350.96 746.625 1349.22 Q747.528 1347.46 747.528 1345.77 Q747.528 1343.02 745.583 1341.28 Q743.662 1339.54 740.56 1339.54 Q738.361 1339.54 735.908 1340.31 Q733.477 1341.07 730.699 1342.62 L730.699 1337.9 Q733.523 1336.77 735.977 1336.19 Q738.431 1335.61 740.468 1335.61 Q745.838 1335.61 749.033 1338.29 Q752.227 1340.98 752.227 1345.47 Q752.227 1347.6 751.417 1349.52 Q750.63 1351.42 748.523 1354.01 Q747.945 1354.68 744.843 1357.9 Q741.741 1361.1 736.093 1366.86 Z" fill="#000000" fill-rule="evenodd" fill-opacity="1" /><path clip-path="url(#clip110)" d="M766.255 1366.86 L782.574 1366.86 L782.574 1370.79 L760.63 1370.79 L760.63 1366.86 Q763.292 1364.1 767.875 1359.48 Q772.481 1354.82 773.662 1353.48 Q775.907 1350.96 776.787 1349.22 Q777.69 1347.46 777.69 1345.77 Q777.69 1343.02 775.745 1341.28 Q773.824 1339.54 770.722 1339.54 Q768.523 1339.54 766.069 1340.31 Q763.639 1341.07 760.861 1342.62 L760.861 1337.9 Q763.685 1336.77 766.139 1336.19 Q768.593 1335.61 770.63 1335.61 Q776 1335.61 779.194 1338.29 Q782.389 1340.98 782.389 1345.47 Q782.389 1347.6 781.579 1349.52 Q780.792 1351.42 778.685 1354.01 Q778.106 1354.68 775.005 1357.9 Q771.903 1361.1 766.255 1366.86 Z" fill="#000000" fill-rule="evenodd" fill-opacity="1" /><path clip-path="url(#clip110)" d="M792.435 1336.23 L810.791 1336.23 L810.791 1340.17 L796.717 1340.17 L796.717 1348.64 Q797.736 1348.29 798.754 1348.13 Q799.773 1347.95 800.792 1347.95 Q806.579 1347.95 809.958 1351.12 Q813.338 1354.29 813.338 1359.71 Q813.338 1365.29 809.866 1368.39 Q806.393 1371.47 800.074 1371.47 Q797.898 1371.47 795.63 1371.1 Q793.384 1370.73 790.977 1369.98 L790.977 1365.29 Q793.06 1366.42 795.282 1366.98 Q797.504 1367.53 799.981 1367.53 Q803.986 1367.53 806.324 1365.42 Q808.662 1363.32 808.662 1359.71 Q808.662 1356.1 806.324 1353.99 Q803.986 1351.88 799.981 1351.88 Q798.106 1351.88 796.231 1352.3 Q794.38 1352.72 792.435 1353.6 L792.435 1336.23 Z" fill="#000000" fill-rule="evenodd" fill-opacity="1" /><path clip-path="url(#clip110)" d="M823.005 1324.75 Q820.221 1324.75 818.604 1326.93 Q816.986 1329.09 816.986 1332.87 Q816.986 1336.65 818.585 1338.83 Q820.203 1341 823.005 1341 Q825.77 1341 827.387 1338.81 Q829.005 1336.63 829.005 1332.87 Q829.005 1329.13 827.387 1326.95 Q825.77 1324.75 823.005 1324.75 M823.005 1321.81 Q827.519 1321.81 830.095 1324.75 Q832.672 1327.68 832.672 1332.87 Q832.672 1338.04 830.095 1341 Q827.519 1343.93 823.005 1343.93 Q818.472 1343.93 815.896 1341 Q813.338 1338.04 813.338 1332.87 Q813.338 1327.68 815.896 1324.75 Q818.472 1321.81 823.005 1321.81 Z" fill="#000000" fill-rule="evenodd" fill-opacity="1" /><path clip-path="url(#clip110)" d="M529.396 878.914 L537.035 878.914 L537.035 852.549 L528.725 854.216 L528.725 849.956 L536.989 848.29 L541.665 848.29 L541.665 878.914 L549.303 878.914 L549.303 882.85 L529.396 882.85 L529.396 878.914 Z" fill="#000000" fill-rule="evenodd" fill-opacity="1" /><path clip-path="url(#clip110)" d="M568.748 866.438 Q565.414 866.438 563.493 868.22 Q561.595 870.002 561.595 873.127 Q561.595 876.252 563.493 878.035 Q565.414 879.817 568.748 879.817 Q572.081 879.817 574.002 878.035 Q575.924 876.229 575.924 873.127 Q575.924 870.002 574.002 868.22 Q572.104 866.438 568.748 866.438 M564.072 864.447 Q561.063 863.706 559.373 861.646 Q557.706 859.586 557.706 856.623 Q557.706 852.479 560.646 850.072 Q563.609 847.665 568.748 847.665 Q573.91 847.665 576.849 850.072 Q579.789 852.479 579.789 856.623 Q579.789 859.586 578.099 861.646 Q576.433 863.706 573.447 864.447 Q576.826 865.234 578.701 867.526 Q580.599 869.817 580.599 873.127 Q580.599 878.151 577.521 880.836 Q574.465 883.521 568.748 883.521 Q563.03 883.521 559.951 880.836 Q556.896 878.151 556.896 873.127 Q556.896 869.817 558.794 867.526 Q560.692 865.234 564.072 864.447 M562.359 857.063 Q562.359 859.748 564.025 861.253 Q565.715 862.757 568.748 862.757 Q571.757 862.757 573.447 861.253 Q575.16 859.748 575.16 857.063 Q575.16 854.378 573.447 852.873 Q571.757 851.368 568.748 851.368 Q565.715 851.368 564.025 852.873 Q562.359 854.378 562.359 857.063 Z" fill="#000000" fill-rule="evenodd" fill-opacity="1" /><path clip-path="url(#clip110)" d="M598.91 851.368 Q595.298 851.368 593.47 854.933 Q591.664 858.475 591.664 865.604 Q591.664 872.711 593.47 876.276 Q595.298 879.817 598.91 879.817 Q602.544 879.817 604.349 876.276 Q606.178 872.711 606.178 865.604 Q606.178 858.475 604.349 854.933 Q602.544 851.368 598.91 851.368 M598.91 847.665 Q604.72 847.665 607.775 852.271 Q610.854 856.854 610.854 865.604 Q610.854 874.331 607.775 878.938 Q604.72 883.521 598.91 883.521 Q593.099 883.521 590.021 878.938 Q586.965 874.331 586.965 865.604 Q586.965 856.854 590.021 852.271 Q593.099 847.665 598.91 847.665 Z" fill="#000000" fill-rule="evenodd" fill-opacity="1" /><path clip-path="url(#clip110)" d="M620.521 836.801 Q617.738 836.801 616.12 838.982 Q614.503 841.145 614.503 844.926 Q614.503 848.706 616.101 850.888 Q617.719 853.051 620.521 853.051 Q623.286 853.051 624.903 850.869 Q626.521 848.687 626.521 844.926 Q626.521 841.183 624.903 839.001 Q623.286 836.801 620.521 836.801 M620.521 833.867 Q625.035 833.867 627.612 836.801 Q630.188 839.735 630.188 844.926 Q630.188 850.098 627.612 853.051 Q625.035 855.985 620.521 855.985 Q615.988 855.985 613.412 853.051 Q610.854 850.098 610.854 844.926 Q610.854 839.735 613.412 836.801 Q615.988 833.867 620.521 833.867 Z" fill="#000000" fill-rule="evenodd" fill-opacity="1" /><path clip-path="url(#clip110)" d="M732.007 390.97 L739.646 390.97 L739.646 364.604 L731.336 366.271 L731.336 362.011 L739.6 360.345 L744.276 360.345 L744.276 390.97 L751.914 390.97 L751.914 394.905 L732.007 394.905 L732.007 390.97 Z" fill="#000000" fill-rule="evenodd" fill-opacity="1" /><path clip-path="url(#clip110)" d="M775.525 376.271 Q778.882 376.988 780.757 379.257 Q782.655 381.525 782.655 384.858 Q782.655 389.974 779.137 392.775 Q775.618 395.576 769.137 395.576 Q766.961 395.576 764.646 395.136 Q762.354 394.719 759.901 393.863 L759.901 389.349 Q761.845 390.483 764.16 391.062 Q766.475 391.641 768.998 391.641 Q773.396 391.641 775.687 389.905 Q778.002 388.169 778.002 384.858 Q778.002 381.803 775.85 380.09 Q773.72 378.354 769.9 378.354 L765.873 378.354 L765.873 374.511 L770.086 374.511 Q773.535 374.511 775.363 373.146 Q777.192 371.757 777.192 369.164 Q777.192 366.502 775.294 365.09 Q773.419 363.655 769.9 363.655 Q767.979 363.655 765.78 364.071 Q763.581 364.488 760.942 365.368 L760.942 361.201 Q763.604 360.46 765.919 360.09 Q768.257 359.72 770.317 359.72 Q775.641 359.72 778.743 362.15 Q781.845 364.558 781.845 368.678 Q781.845 371.548 780.201 373.539 Q778.558 375.507 775.525 376.271 Z" fill="#000000" fill-rule="evenodd" fill-opacity="1" /><path clip-path="url(#clip110)" d="M791.567 360.345 L809.923 360.345 L809.923 364.28 L795.849 364.28 L795.849 372.752 Q796.868 372.405 797.886 372.243 Q798.905 372.058 799.923 372.058 Q805.71 372.058 809.09 375.229 Q812.47 378.4 812.47 383.817 Q812.47 389.395 808.997 392.497 Q805.525 395.576 799.206 395.576 Q797.03 395.576 794.761 395.206 Q792.516 394.835 790.109 394.094 L790.109 389.395 Q792.192 390.53 794.414 391.085 Q796.636 391.641 799.113 391.641 Q803.118 391.641 805.456 389.534 Q807.794 387.428 807.794 383.817 Q807.794 380.206 805.456 378.099 Q803.118 375.993 799.113 375.993 Q797.238 375.993 795.363 376.409 Q793.511 376.826 791.567 377.706 L791.567 360.345 Z" fill="#000000" fill-rule="evenodd" fill-opacity="1" /><path clip-path="url(#clip110)" d="M822.137 348.856 Q819.353 348.856 817.736 351.037 Q816.118 353.2 816.118 356.981 Q816.118 360.761 817.717 362.943 Q819.335 365.106 822.137 365.106 Q824.902 365.106 826.519 362.924 Q828.137 360.742 828.137 356.981 Q828.137 353.238 826.519 351.056 Q824.902 348.856 822.137 348.856 M822.137 345.922 Q826.651 345.922 829.227 348.856 Q831.804 351.79 831.804 356.981 Q831.804 362.153 829.227 365.106 Q826.651 368.04 822.137 368.04 Q817.604 368.04 815.028 365.106 Q812.47 362.153 812.47 356.981 Q812.47 351.79 815.028 348.856 Q817.604 345.922 822.137 345.922 Z" fill="#000000" fill-rule="evenodd" fill-opacity="1" /><path clip-path="url(#clip110)" d="M1234.98 192.074 L1234.98 187.814 Q1236.73 188.648 1238.54 189.088 Q1240.35 189.527 1242.08 189.527 Q1246.71 189.527 1249.14 186.426 Q1251.6 183.301 1251.94 176.958 Q1250.6 178.949 1248.54 180.014 Q1246.48 181.078 1243.98 181.078 Q1238.79 181.078 1235.76 177.953 Q1232.75 174.805 1232.75 169.365 Q1232.75 164.041 1235.9 160.824 Q1239.05 157.606 1244.28 157.606 Q1250.28 157.606 1253.42 162.213 Q1256.6 166.796 1256.6 175.546 Q1256.6 183.717 1252.71 188.601 Q1248.84 193.463 1242.29 193.463 Q1240.53 193.463 1238.73 193.115 Q1236.92 192.768 1234.98 192.074 M1244.28 177.421 Q1247.43 177.421 1249.26 175.268 Q1251.11 173.115 1251.11 169.365 Q1251.11 165.639 1249.26 163.486 Q1247.43 161.31 1244.28 161.31 Q1241.13 161.31 1239.28 163.486 Q1237.45 165.639 1237.45 169.365 Q1237.45 173.115 1239.28 175.268 Q1241.13 177.421 1244.28 177.421 Z" fill="#000000" fill-rule="evenodd" fill-opacity="1" /><path clip-path="url(#clip110)" d="M1275 161.31 Q1271.39 161.31 1269.56 164.875 Q1267.75 168.416 1267.75 175.546 Q1267.75 182.652 1269.56 186.217 Q1271.39 189.759 1275 189.759 Q1278.63 189.759 1280.44 186.217 Q1282.27 182.652 1282.27 175.546 Q1282.27 168.416 1280.44 164.875 Q1278.63 161.31 1275 161.31 M1275 157.606 Q1280.81 157.606 1283.86 162.213 Q1286.94 166.796 1286.94 175.546 Q1286.94 184.273 1283.86 188.879 Q1280.81 193.463 1275 193.463 Q1269.19 193.463 1266.11 188.879 Q1263.05 184.273 1263.05 175.546 Q1263.05 166.796 1266.11 162.213 Q1269.19 157.606 1275 157.606 Z" fill="#000000" fill-rule="evenodd" fill-opacity="1" /><path clip-path="url(#clip110)" d="M1296.61 146.742 Q1293.83 146.742 1292.21 148.924 Q1290.59 151.087 1290.59 154.867 Q1290.59 158.648 1292.19 160.829 Q1293.81 162.992 1296.61 162.992 Q1299.37 162.992 1300.99 160.811 Q1302.61 158.629 1302.61 154.867 Q1302.61 151.125 1300.99 148.943 Q1299.37 146.742 1296.61 146.742 M1296.61 143.808 Q1301.12 143.808 1303.7 146.742 Q1306.28 149.676 1306.28 154.867 Q1306.28 160.039 1303.7 162.992 Q1301.12 165.926 1296.61 165.926 Q1292.08 165.926 1289.5 162.992 Q1286.94 160.039 1286.94 154.867 Q1286.94 149.676 1289.5 146.742 Q1292.08 143.808 1296.61 143.808 Z" fill="#000000" fill-rule="evenodd" fill-opacity="1" /><path clip-path="url(#clip110)" d="M1736.46 364.419 L1724.66 382.868 L1736.46 382.868 L1736.46 364.419 M1735.23 360.345 L1741.11 360.345 L1741.11 382.868 L1746.05 382.868 L1746.05 386.757 L1741.11 386.757 L1741.11 394.905 L1736.46 394.905 L1736.46 386.757 L1720.86 386.757 L1720.86 382.243 L1735.23 360.345 Z" fill="#000000" fill-rule="evenodd" fill-opacity="1" /><path clip-path="url(#clip110)" d="M1753.82 360.345 L1772.18 360.345 L1772.18 364.28 L1758.11 364.28 L1758.11 372.752 Q1759.12 372.405 1760.14 372.243 Q1761.16 372.058 1762.18 372.058 Q1767.97 372.058 1771.35 375.229 Q1774.73 378.4 1774.73 383.817 Q1774.73 389.395 1771.25 392.497 Q1767.78 395.576 1761.46 395.576 Q1759.29 395.576 1757.02 395.206 Q1754.77 394.835 1752.36 394.094 L1752.36 389.395 Q1754.45 390.53 1756.67 391.085 Q1758.89 391.641 1761.37 391.641 Q1765.37 391.641 1767.71 389.534 Q1770.05 387.428 1770.05 383.817 Q1770.05 380.206 1767.71 378.099 Q1765.37 375.993 1761.37 375.993 Q1759.49 375.993 1757.62 376.409 Q1755.77 376.826 1753.82 377.706 L1753.82 360.345 Z" fill="#000000" fill-rule="evenodd" fill-opacity="1" /><path clip-path="url(#clip110)" d="M1784.39 348.856 Q1781.61 348.856 1779.99 351.037 Q1778.37 353.2 1778.37 356.981 Q1778.37 360.761 1779.97 362.943 Q1781.59 365.106 1784.39 365.106 Q1787.16 365.106 1788.77 362.924 Q1790.39 360.742 1790.39 356.981 Q1790.39 353.238 1788.77 351.056 Q1787.16 348.856 1784.39 348.856 M1784.39 345.922 Q1788.91 345.922 1791.48 348.856 Q1794.06 351.79 1794.06 356.981 Q1794.06 362.153 1791.48 365.106 Q1788.91 368.04 1784.39 368.04 Q1779.86 368.04 1777.28 365.106 Q1774.73 362.153 1774.73 356.981 Q1774.73 351.79 1777.28 348.856 Q1779.86 345.922 1784.39 345.922 Z" fill="#000000" fill-rule="evenodd" fill-opacity="1" /><path clip-path="url(#clip110)" d="M1270.64 791.897 L1300.31 791.897 L1300.31 795.833 L1270.64 795.833 L1270.64 791.897 Z" fill="#000000" fill-rule="evenodd" fill-opacity="1" /><path clip-path="url(#clip110)" d="M1311.22 804.791 L1318.86 804.791 L1318.86 778.425 L1310.55 780.092 L1310.55 775.833 L1318.81 774.166 L1323.49 774.166 L1323.49 804.791 L1331.12 804.791 L1331.12 808.726 L1311.22 808.726 L1311.22 804.791 Z" fill="#000000" fill-rule="evenodd" fill-opacity="1" /><path clip-path="url(#clip110)" d="M1300.88 618.543 Q1297.27 618.543 1295.44 622.108 Q1293.64 625.65 1293.64 632.78 Q1293.64 639.886 1295.44 643.451 Q1297.27 646.992 1300.88 646.992 Q1304.52 646.992 1306.32 643.451 Q1308.15 639.886 1308.15 632.78 Q1308.15 625.65 1306.32 622.108 Q1304.52 618.543 1300.88 618.543 M1300.88 614.84 Q1306.69 614.84 1309.75 619.446 Q1312.83 624.03 1312.83 632.78 Q1312.83 641.506 1309.75 646.113 Q1306.69 650.696 1300.88 650.696 Q1295.07 650.696 1291.99 646.113 Q1288.94 641.506 1288.94 632.78 Q1288.94 624.03 1291.99 619.446 Q1295.07 614.84 1300.88 614.84 Z" fill="#000000" fill-rule="evenodd" fill-opacity="1" /><path clip-path="url(#clip110)" d="M1291.26 487.388 L1298.9 487.388 L1298.9 461.023 L1290.59 462.689 L1290.59 458.43 L1298.86 456.764 L1303.53 456.764 L1303.53 487.388 L1311.17 487.388 L1311.17 491.324 L1291.26 491.324 L1291.26 487.388 Z" fill="#000000" fill-rule="evenodd" fill-opacity="1" /><path clip-path="url(#clip110)" d="M1295.53 328.687 L1311.85 328.687 L1311.85 332.622 L1289.91 332.622 L1289.91 328.687 Q1292.57 325.933 1297.15 321.303 Q1301.76 316.65 1302.94 315.308 Q1305.19 312.785 1306.07 311.048 Q1306.97 309.289 1306.97 307.599 Q1306.97 304.845 1305.02 303.109 Q1303.1 301.373 1300 301.373 Q1297.8 301.373 1295.35 302.136 Q1292.92 302.9 1290.14 304.451 L1290.14 299.729 Q1292.96 298.595 1295.42 298.016 Q1297.87 297.437 1299.91 297.437 Q1305.28 297.437 1308.47 300.123 Q1311.67 302.808 1311.67 307.298 Q1311.67 309.428 1310.86 311.349 Q1310.07 313.247 1307.96 315.84 Q1307.39 316.511 1304.28 319.729 Q1301.18 322.923 1295.53 328.687 Z" fill="#000000" fill-rule="evenodd" fill-opacity="1" /><path clip-path="url(#clip110)" d="M932.581 11.0023 Q942.546 11.0023 948.866 15.2557 Q955.185 19.4686 955.185 26.6793 Q955.185 31.7024 952.309 35.1862 Q949.433 38.6294 944.126 39.9662 Q950 41.222 953.281 45.1919 Q956.603 49.1618 956.603 54.9951 Q956.603 64.3122 949.392 69.0517 Q942.222 73.7508 932.581 73.7508 Q927.639 73.7508 921.887 72.414 Q916.134 71.0772 914.352 69.9429 L914.352 61.517 Q920.55 65.1223 923.953 66.0135 Q927.396 66.8642 932.419 66.8642 Q940.035 66.8642 944.248 63.9476 Q948.461 61.0309 948.461 54.9951 Q948.461 49.6479 944.693 46.6502 Q940.966 43.612 933.067 43.612 L924.803 43.612 L924.803 36.8875 L933.391 36.8875 Q940.642 36.8875 943.843 34.4975 Q947.043 32.067 947.043 27.5299 Q947.043 22.8714 943.721 20.4004 Q940.44 17.8888 932.419 17.8888 Q926.991 17.8888 925.127 18.3749 Q923.264 18.861 914.96 21.9802 L914.96 13.9999 Q919.537 12.3796 924.317 11.6909 Q929.097 11.0023 932.581 11.0023 Z" fill="#000000" fill-rule="evenodd" fill-opacity="1" /><path clip-path="url(#clip110)" d="M990.509 49.7694 Q981.475 49.7694 977.992 51.8354 Q974.508 53.9013 974.508 58.8839 Q974.508 62.8538 977.1 65.2034 Q979.734 67.5124 984.23 67.5124 Q990.428 67.5124 994.155 63.1374 Q997.922 58.7219 997.922 51.4303 L997.922 49.7694 L990.509 49.7694 M1005.38 46.6907 L1005.38 72.576 L997.922 72.576 L997.922 65.6895 Q995.37 69.8214 991.562 71.8063 Q987.754 73.7508 982.245 73.7508 Q975.278 73.7508 971.146 69.8619 Q967.054 65.9325 967.054 59.3701 Q967.054 51.7138 972.158 47.825 Q977.303 43.9361 987.471 43.9361 L997.922 43.9361 L997.922 43.2069 Q997.922 38.0623 994.519 35.2672 Q991.157 32.4315 985.04 32.4315 Q981.151 32.4315 977.465 33.3632 Q973.779 34.295 970.376 36.1584 L970.376 29.2718 Q974.467 27.692 978.316 26.9223 Q982.164 26.1121 985.81 26.1121 Q995.654 26.1121 1000.51 31.2163 Q1005.38 36.3204 1005.38 46.6907 Z" fill="#000000" fill-rule="evenodd" fill-opacity="1" /><path clip-path="url(#clip110)" d="M1030.86 66.6212 L1052.49 66.6212 L1052.49 33.1607 L1036.81 33.1607 L1036.81 38.832 Q1036.81 55.5217 1032.03 64.4337 L1030.86 66.6212 M1020.04 66.6212 Q1023.73 65.0008 1025.35 61.5575 Q1029.32 53.0101 1029.32 35.7938 L1029.32 27.2059 L1059.98 27.2059 L1059.98 66.6212 L1065.94 66.6212 L1065.94 84.0401 L1059.98 84.0401 L1059.98 72.576 L1023.2 72.576 L1023.2 84.0401 L1017.24 84.0401 L1017.24 66.6212 L1020.04 66.6212 Z" fill="#000000" fill-rule="evenodd" fill-opacity="1" /><path clip-path="url(#clip110)" d="M1098.71 49.7694 Q1089.68 49.7694 1086.19 51.8354 Q1082.71 53.9013 1082.71 58.8839 Q1082.71 62.8538 1085.3 65.2034 Q1087.93 67.5124 1092.43 67.5124 Q1098.63 67.5124 1102.35 63.1374 Q1106.12 58.7219 1106.12 51.4303 L1106.12 49.7694 L1098.71 49.7694 M1113.58 46.6907 L1113.58 72.576 L1106.12 72.576 L1106.12 65.6895 Q1103.57 69.8214 1099.76 71.8063 Q1095.95 73.7508 1090.44 73.7508 Q1083.48 73.7508 1079.35 69.8619 Q1075.25 65.9325 1075.25 59.3701 Q1075.25 51.7138 1080.36 47.825 Q1085.5 43.9361 1095.67 43.9361 L1106.12 43.9361 L1106.12 43.2069 Q1106.12 38.0623 1102.72 35.2672 Q1099.36 32.4315 1093.24 32.4315 Q1089.35 32.4315 1085.66 33.3632 Q1081.98 34.295 1078.58 36.1584 L1078.58 29.2718 Q1082.67 27.692 1086.52 26.9223 Q1090.36 26.1121 1094.01 26.1121 Q1103.85 26.1121 1108.71 31.2163 Q1113.58 36.3204 1113.58 46.6907 Z" fill="#000000" fill-rule="evenodd" fill-opacity="1" /><path clip-path="url(#clip110)" d="M1155.14 72.576 L1155.14 53.4962 L1141.24 53.4962 Q1135.05 53.4962 1130.91 49.6479 Q1127.19 46.1641 1127.19 38.7104 L1127.19 27.2059 L1134.64 27.2059 L1134.64 38.0218 Q1134.64 42.7613 1136.75 45.1514 Q1138.89 47.5414 1143.11 47.5414 L1155.14 47.5414 L1155.14 27.2059 L1162.59 27.2059 L1162.59 72.576 L1155.14 72.576 Z" fill="#000000" fill-rule="evenodd" fill-opacity="1" /><path clip-path="url(#clip110)" d="M1198.56 49.7694 Q1189.53 49.7694 1186.05 51.8354 Q1182.56 53.9013 1182.56 58.8839 Q1182.56 62.8538 1185.15 65.2034 Q1187.79 67.5124 1192.28 67.5124 Q1198.48 67.5124 1202.21 63.1374 Q1205.98 58.7219 1205.98 51.4303 L1205.98 49.7694 L1198.56 49.7694 M1213.43 46.6907 L1213.43 72.576 L1205.98 72.576 L1205.98 65.6895 Q1203.42 69.8214 1199.62 71.8063 Q1195.81 73.7508 1190.3 73.7508 Q1183.33 73.7508 1179.2 69.8619 Q1175.11 65.9325 1175.11 59.3701 Q1175.11 51.7138 1180.21 47.825 Q1185.36 43.9361 1195.53 43.9361 L1205.98 43.9361 L1205.98 43.2069 Q1205.98 38.0623 1202.57 35.2672 Q1199.21 32.4315 1193.09 32.4315 Q1189.21 32.4315 1185.52 33.3632 Q1181.83 34.295 1178.43 36.1584 L1178.43 29.2718 Q1182.52 27.692 1186.37 26.9223 Q1190.22 26.1121 1193.86 26.1121 Q1203.71 26.1121 1208.57 31.2163 Q1213.43 36.3204 1213.43 46.6907 Z" fill="#000000" fill-rule="evenodd" fill-opacity="1" /><path clip-path="url(#clip110)" d="M1272.74 32.4315 Q1266.74 32.4315 1263.26 37.1306 Q1259.77 41.7891 1259.77 49.9314 Q1259.77 58.0738 1263.22 62.7728 Q1266.7 67.4314 1272.74 67.4314 Q1278.69 67.4314 1282.17 62.7323 Q1285.66 58.0333 1285.66 49.9314 Q1285.66 41.8701 1282.17 37.1711 Q1278.69 32.4315 1272.74 32.4315 M1272.74 26.1121 Q1282.46 26.1121 1288.01 32.4315 Q1293.56 38.7509 1293.56 49.9314 Q1293.56 61.0714 1288.01 67.4314 Q1282.46 73.7508 1272.74 73.7508 Q1262.97 73.7508 1257.42 67.4314 Q1251.91 61.0714 1251.91 49.9314 Q1251.91 38.7509 1257.42 32.4315 Q1262.97 26.1121 1272.74 26.1121 Z" fill="#000000" fill-rule="evenodd" fill-opacity="1" /><path clip-path="url(#clip110)" d="M1371.17 27.2059 L1371.17 72.576 L1363.68 72.576 L1363.68 33.1607 L1339.49 33.1607 L1339.49 72.576 L1332 72.576 L1332 27.2059 L1371.17 27.2059 Z" fill="#000000" fill-rule="evenodd" fill-opacity="1" /><path clip-path="url(#clip110)" d="M1404.11 32.4315 Q1398.11 32.4315 1394.63 37.1306 Q1391.14 41.7891 1391.14 49.9314 Q1391.14 58.0738 1394.59 62.7728 Q1398.07 67.4314 1404.11 67.4314 Q1410.06 67.4314 1413.54 62.7323 Q1417.03 58.0333 1417.03 49.9314 Q1417.03 41.8701 1413.54 37.1711 Q1410.06 32.4315 1404.11 32.4315 M1404.11 26.1121 Q1413.83 26.1121 1419.38 32.4315 Q1424.93 38.7509 1424.93 49.9314 Q1424.93 61.0714 1419.38 67.4314 Q1413.83 73.7508 1404.11 73.7508 Q1394.34 73.7508 1388.79 67.4314 Q1383.28 61.0714 1383.28 49.9314 Q1383.28 38.7509 1388.79 32.4315 Q1394.34 26.1121 1404.11 26.1121 Z" fill="#000000" fill-rule="evenodd" fill-opacity="1" /><path clip-path="url(#clip110)" d="M1437 72.576 L1437 27.2059 L1469 27.2059 L1469 33.1607 L1444.49 33.1607 L1444.49 72.576 L1437 72.576 Z" fill="#000000" fill-rule="evenodd" fill-opacity="1" /><path clip-path="url(#clip110)" d="M1498.45 32.4315 Q1492.46 32.4315 1488.97 37.1306 Q1485.49 41.7891 1485.49 49.9314 Q1485.49 58.0738 1488.93 62.7728 Q1492.42 67.4314 1498.45 67.4314 Q1504.41 67.4314 1507.89 62.7323 Q1511.37 58.0333 1511.37 49.9314 Q1511.37 41.8701 1507.89 37.1711 Q1504.41 32.4315 1498.45 32.4315 M1498.45 26.1121 Q1508.17 26.1121 1513.72 32.4315 Q1519.27 38.7509 1519.27 49.9314 Q1519.27 61.0714 1513.72 67.4314 Q1508.17 73.7508 1498.45 73.7508 Q1488.69 73.7508 1483.14 67.4314 Q1477.63 61.0714 1477.63 49.9314 Q1477.63 38.7509 1483.14 32.4315 Q1488.69 26.1121 1498.45 26.1121 Z" fill="#000000" fill-rule="evenodd" fill-opacity="1" /><path clip-path="url(#clip110)" d="M1531.35 27.2059 L1538.84 27.2059 L1538.84 45.7185 L1563.02 45.7185 L1563.02 27.2059 L1570.52 27.2059 L1570.52 72.576 L1563.02 72.576 L1563.02 51.6733 L1538.84 51.6733 L1538.84 72.576 L1531.35 72.576 L1531.35 27.2059 Z" fill="#000000" fill-rule="evenodd" fill-opacity="1" /><path clip-path="url(#clip110)" d="M1624.68 48.0275 L1624.68 51.6733 L1590.41 51.6733 Q1590.89 59.3701 1595.03 63.421 Q1599.2 67.4314 1606.61 67.4314 Q1610.9 67.4314 1614.92 66.3781 Q1618.97 65.3249 1622.94 63.2184 L1622.94 70.267 Q1618.93 71.9684 1614.71 72.8596 Q1610.5 73.7508 1606.17 73.7508 Q1595.31 73.7508 1588.95 67.4314 Q1582.63 61.1119 1582.63 50.3365 Q1582.63 39.1965 1588.62 32.6746 Q1594.66 26.1121 1604.87 26.1121 Q1614.02 26.1121 1619.33 32.0264 Q1624.68 37.9003 1624.68 48.0275 M1617.22 45.84 Q1617.14 39.7232 1613.78 36.0774 Q1610.46 32.4315 1604.95 32.4315 Q1598.71 32.4315 1594.94 35.9558 Q1591.22 39.4801 1590.65 45.8805 L1617.22 45.84 Z" fill="#000000" fill-rule="evenodd" fill-opacity="1" /></svg>
