<?xml version="1.0" encoding="utf-8"?>
<svg xmlns="http://www.w3.org/2000/svg" xmlns:xlink="http://www.w3.org/1999/xlink" width="600" height="400" viewBox="0 0 2400 1600">
<defs>
  <clipPath id="clip230">
    <rect x="0" y="0" width="2400" height="1600"/>
  </clipPath>
</defs>
<path clip-path="url(#clip230)" d="M0 1600 L2400 1600 L2400 0 L0 0  Z" fill="#ffffff" fill-rule="evenodd" fill-opacity="1"/>
<defs>
  <clipPath id="clip231">
    <rect x="480" y="0" width="1681" height="1600"/>
  </clipPath>
</defs>
<path clip-path="url(#clip230)" d="M112.177 1486.45 L2352.76 1486.45 L2352.76 123.472 L112.177 123.472  Z" fill="#ffffff" fill-rule="evenodd" fill-opacity="1"/>
<defs>
  <clipPath id="clip232">
    <rect x="112" y="123" width="2242" height="1364"/>
  </clipPath>
</defs>
<defs>
  <clipPath id="clip233">
    <rect x="606" y="235" width="1252" height="1252"/>
  </clipPath>
</defs>
<polyline clip-path="url(#clip233)" style="stroke:#000000; stroke-linecap:round; stroke-linejoin:round; stroke-width:2; stroke-opacity:0.1; fill:none" points="1857.94,860.974 1232.47,860.974 "/>
<polyline clip-path="url(#clip233)" style="stroke:#000000; stroke-linecap:round; stroke-linejoin:round; stroke-width:2; stroke-opacity:0.1; fill:none" points="1674.74,1303.25 1232.47,860.974 "/>
<polyline clip-path="url(#clip233)" style="stroke:#000000; stroke-linecap:round; stroke-linejoin:round; stroke-width:2; stroke-opacity:0.1; fill:none" points="1232.47,1486.45 1232.47,860.974 "/>
<polyline clip-path="url(#clip233)" style="stroke:#000000; stroke-linecap:round; stroke-linejoin:round; stroke-width:2; stroke-opacity:0.1; fill:none" points="790.19,1303.25 1232.47,860.974 "/>
<polyline clip-path="url(#clip233)" style="stroke:#000000; stroke-linecap:round; stroke-linejoin:round; stroke-width:2; stroke-opacity:0.1; fill:none" points="606.993,860.974 1232.47,860.974 "/>
<polyline clip-path="url(#clip233)" style="stroke:#000000; stroke-linecap:round; stroke-linejoin:round; stroke-width:2; stroke-opacity:0.1; fill:none" points="790.19,418.698 1232.47,860.974 "/>
<polyline clip-path="url(#clip233)" style="stroke:#000000; stroke-linecap:round; stroke-linejoin:round; stroke-width:2; stroke-opacity:0.1; fill:none" points="1232.47,235.501 1232.47,860.974 "/>
<polyline clip-path="url(#clip233)" style="stroke:#000000; stroke-linecap:round; stroke-linejoin:round; stroke-width:2; stroke-opacity:0.1; fill:none" points="1674.74,418.698 1232.47,860.974 "/>
<polyline clip-path="url(#clip233)" style="stroke:#000000; stroke-linecap:round; stroke-linejoin:round; stroke-width:2; stroke-opacity:0.1; fill:none" points="1232.47,860.974 1232.47,860.974 "/>
<polyline clip-path="url(#clip233)" style="stroke:#000000; stroke-linecap:round; stroke-linejoin:round; stroke-width:2; stroke-opacity:0.1; fill:none" points="1373.2,860.974 1373.18,858.518 1373.12,856.063 1373.01,853.609 1372.86,851.157 1372.67,848.709 1372.43,846.264 1372.15,843.823 1371.83,841.388 1371.47,838.959 1371.06,836.536 1370.62,834.121 1370.13,831.714 1369.59,829.316 1369.02,826.928 1368.41,824.55 1367.75,822.183 1367.05,819.828 1366.31,817.485 1365.53,815.156 1364.71,812.84 1363.85,810.54 1362.95,808.254 1362.01,805.985 1361.03,803.733 1360.02,801.498 1358.96,799.281 1357.86,797.082 1356.73,794.904 1355.56,792.745 1354.35,790.607 1353.1,788.491 1351.82,786.397 1350.5,784.325 1349.14,782.277 1347.75,780.253 1346.32,778.253 1344.86,776.278 1343.37,774.33 1341.84,772.407 1340.28,770.512 1338.68,768.644 1337.05,766.805 1335.39,764.994 1333.7,763.212 1331.98,761.46 1330.23,759.739 1328.45,758.048 1326.64,756.388 1324.8,754.761 1322.93,753.166 1321.03,751.603 1319.11,750.074 1317.16,748.579 1315.19,747.118 1313.19,745.692 1311.16,744.3 1309.12,742.945 1307.04,741.625 1304.95,740.342 1302.83,739.095 1300.7,737.885 1298.54,736.713 1296.36,735.579 1294.16,734.483 1291.94,733.426 1289.71,732.407 1287.46,731.428 1285.19,730.488 1282.9,729.588 1280.6,728.727 1278.29,727.908 1275.96,727.128 1273.61,726.39 1271.26,725.692 1268.89,725.036 1266.51,724.421 1264.12,723.847 1261.73,723.315 1259.32,722.826 1256.9,722.378 1254.48,721.973 1252.05,721.61 1249.62,721.289 1247.18,721.011 1244.73,720.776 1242.28,720.583 1239.83,720.433 1237.38,720.326 1234.92,720.262 1232.47,720.24 1230.01,720.262 1227.55,720.326 1225.1,720.433 1222.65,720.583 1220.2,720.776 1217.76,721.011 1215.32,721.289 1212.88,721.61 1210.45,721.973 1208.03,722.378 1205.61,722.826 1203.21,723.315 1200.81,723.847 1198.42,724.421 1196.04,725.036 1193.67,725.692 1191.32,726.39 1188.98,727.128 1186.65,727.908 1184.33,728.727 1182.03,729.588 1179.75,730.488 1177.48,731.428 1175.22,732.407 1172.99,733.426 1170.77,734.483 1168.57,735.579 1166.4,736.713 1164.24,737.885 1162.1,739.095 1159.98,740.342 1157.89,741.625 1155.82,742.945 1153.77,744.3 1151.74,745.692 1149.74,747.118 1147.77,748.579 1145.82,750.074 1143.9,751.603 1142,753.166 1140.14,754.761 1138.3,756.388 1136.49,758.048 1134.7,759.739 1132.95,761.46 1131.23,763.212 1129.54,764.994 1127.88,766.805 1126.25,768.644 1124.66,770.512 1123.1,772.407 1121.57,774.33 1120.07,776.278 1118.61,778.253 1117.18,780.253 1115.79,782.277 1114.44,784.325 1113.12,786.397 1111.83,788.491 1110.59,790.607 1109.38,792.745 1108.21,794.904 1107.07,797.082 1105.98,799.281 1104.92,801.498 1103.9,803.733 1102.92,805.985 1101.98,808.254 1101.08,810.54 1100.22,812.84 1099.4,815.156 1098.62,817.485 1097.88,819.828 1097.18,822.183 1096.53,824.55 1095.91,826.928 1095.34,829.316 1094.81,831.714 1094.32,834.121 1093.87,836.536 1093.46,838.959 1093.1,841.388 1092.78,843.823 1092.5,846.264 1092.27,848.709 1092.08,851.157 1091.93,853.609 1091.82,856.063 1091.75,858.518 1091.73,860.974 1091.75,863.431 1091.82,865.886 1091.93,868.34 1092.08,870.792 1092.27,873.24 1092.5,875.685 1092.78,878.126 1093.1,880.561 1093.46,882.99 1093.87,885.413 1094.32,887.828 1094.81,890.235 1095.34,892.633 1095.91,895.021 1096.53,897.399 1097.18,899.766 1097.88,902.121 1098.62,904.464 1099.4,906.793 1100.22,909.108 1101.08,911.409 1101.98,913.694 1102.92,915.964 1103.9,918.216 1104.92,920.451 1105.98,922.668 1107.07,924.867 1108.21,927.045 1109.38,929.204 1110.59,931.342 1111.83,933.458 1113.12,935.552 1114.44,937.624 1115.79,939.672 1117.18,941.696 1118.61,943.696 1120.07,945.671 1121.57,947.619 1123.1,949.541 1124.66,951.437 1126.25,953.305 1127.88,955.144 1129.54,956.955 1131.23,958.737 1132.95,960.489 1134.7,962.21 1136.49,963.901 1138.3,965.56 1140.14,967.188 1142,968.783 1143.9,970.346 1145.82,971.875 1147.77,973.37 1149.74,974.831 1151.74,976.257 1153.77,977.649 1155.82,979.004 1157.89,980.324 1159.98,981.607 1162.1,982.854 1164.24,984.064 1166.4,985.236 1168.57,986.37 1170.77,987.466 1172.99,988.523 1175.22,989.542 1177.48,990.521 1179.75,991.461 1182.03,992.361 1184.33,993.222 1186.65,994.041 1188.98,994.821 1191.32,995.559 1193.67,996.257 1196.04,996.913 1198.42,997.528 1200.81,998.102 1203.21,998.633 1205.61,999.123 1208.03,999.571 1210.45,999.976 1212.88,1000.34 1215.32,1000.66 1217.76,1000.94 1220.2,1001.17 1222.65,1001.37 1225.1,1001.52 1227.55,1001.62 1230.01,1001.69 1232.47,1001.71 1234.92,1001.69 1237.38,1001.62 1239.83,1001.52 1242.28,1001.37 1244.73,1001.17 1247.18,1000.94 1249.62,1000.66 1252.05,1000.34 1254.48,999.976 1256.9,999.571 1259.32,999.123 1261.73,998.633 1264.12,998.102 1266.51,997.528 1268.89,996.913 1271.26,996.257 1273.61,995.559 1275.96,994.821 1278.29,994.041 1280.6,993.222 1282.9,992.361 1285.19,991.461 1287.46,990.521 1289.71,989.542 1291.94,988.523 1294.16,987.466 1296.36,986.37 1298.54,985.236 1300.7,984.064 1302.83,982.854 1304.95,981.607 1307.04,980.324 1309.12,979.004 1311.16,977.649 1313.19,976.257 1315.19,974.831 1317.16,973.37 1319.11,971.875 1321.03,970.346 1322.93,968.783 1324.8,967.188 1326.64,965.56 1328.45,963.901 1330.23,962.21 1331.98,960.489 1333.7,958.737 1335.39,956.955 1337.05,955.144 1338.68,953.305 1340.28,951.437 1341.84,949.541 1343.37,947.619 1344.86,945.671 1346.32,943.696 1347.75,941.696 1349.14,939.672 1350.5,937.624 1351.82,935.552 1353.1,933.458 1354.35,931.342 1355.56,929.204 1356.73,927.045 1357.86,924.867 1358.96,922.668 1360.02,920.451 1361.03,918.216 1362.01,915.964 1362.95,913.694 1363.85,911.409 1364.71,909.108 1365.53,906.793 1366.31,904.464 1367.05,902.121 1367.75,899.766 1368.41,897.399 1369.02,895.021 1369.59,892.633 1370.13,890.235 1370.62,887.828 1371.06,885.413 1371.47,882.99 1371.83,880.561 1372.15,878.126 1372.43,875.685 1372.67,873.24 1372.86,870.792 1373.01,868.34 1373.12,865.886 1373.18,863.431 "/>
<polyline clip-path="url(#clip233)" style="stroke:#000000; stroke-linecap:round; stroke-linejoin:round; stroke-width:2; stroke-opacity:0.1; fill:none" points="1513.94,860.974 1513.89,856.062 1513.76,851.151 1513.55,846.244 1513.25,841.34 1512.86,836.443 1512.39,831.553 1511.84,826.672 1511.2,821.802 1510.47,816.943 1509.66,812.098 1508.76,807.268 1507.78,802.454 1506.72,797.658 1505.57,792.881 1504.34,788.125 1503.03,783.391 1501.64,778.681 1500.16,773.996 1498.6,769.337 1496.96,764.707 1495.24,760.105 1493.44,755.534 1491.56,750.996 1489.6,746.491 1487.56,742.021 1485.45,737.587 1483.26,733.19 1480.99,728.833 1478.64,724.516 1476.23,720.24 1473.73,716.007 1471.17,711.819 1468.53,707.676 1465.81,703.579 1463.03,699.531 1460.18,695.531 1457.26,691.582 1454.27,687.685 1451.21,683.84 1448.08,680.05 1444.89,676.314 1441.64,672.635 1438.32,669.013 1434.94,665.45 1431.49,661.946 1427.99,658.503 1424.43,655.121 1420.81,651.802 1417.13,648.547 1413.39,645.357 1409.6,642.232 1405.76,639.174 1401.86,636.184 1397.91,633.262 1393.91,630.409 1389.86,627.626 1385.77,624.915 1381.62,622.275 1377.43,619.709 1373.2,617.215 1368.93,614.796 1364.61,612.452 1360.25,610.184 1355.85,607.992 1351.42,605.877 1346.95,603.84 1342.45,601.881 1337.91,600.001 1333.34,598.201 1328.73,596.48 1324.1,594.841 1319.45,593.282 1314.76,591.805 1310.05,590.409 1305.32,589.097 1300.56,587.867 1295.78,586.72 1290.99,585.657 1286.17,584.677 1281.34,583.782 1276.5,582.971 1271.64,582.245 1266.77,581.604 1261.89,581.048 1257,580.577 1252.1,580.191 1247.2,579.892 1242.29,579.677 1237.38,579.549 1232.47,579.506 1227.55,579.549 1222.64,579.677 1217.74,579.892 1212.83,580.191 1207.93,580.577 1203.05,581.048 1198.16,581.604 1193.29,582.245 1188.44,582.971 1183.59,583.782 1178.76,584.677 1173.95,585.657 1169.15,586.72 1164.37,587.867 1159.62,589.097 1154.88,590.409 1150.17,591.805 1145.49,593.282 1140.83,594.841 1136.2,596.48 1131.6,598.201 1127.03,600.001 1122.49,601.881 1117.98,603.84 1113.51,605.877 1109.08,607.992 1104.68,610.184 1100.32,612.452 1096.01,614.796 1091.73,617.215 1087.5,619.709 1083.31,622.275 1079.17,624.915 1075.07,627.626 1071.02,630.409 1067.02,633.262 1063.07,636.184 1059.18,639.174 1055.33,642.232 1051.54,645.357 1047.81,648.547 1044.13,651.802 1040.51,655.121 1036.94,658.503 1033.44,661.946 1029.99,665.45 1026.61,669.013 1023.29,672.635 1020.04,676.314 1016.85,680.05 1013.72,683.84 1010.67,687.685 1007.68,691.582 1004.75,695.531 1001.9,699.531 999.118,703.579 996.407,707.676 993.768,711.819 991.201,716.007 988.707,720.24 986.288,724.516 983.944,728.833 981.676,733.19 979.484,737.587 977.369,742.021 975.332,746.491 973.373,750.996 971.493,755.534 969.693,760.105 967.972,764.707 966.333,769.337 964.774,773.996 963.297,778.681 961.901,783.391 960.589,788.125 959.359,792.881 958.212,797.658 957.149,802.454 956.169,807.268 955.274,812.098 954.463,816.943 953.737,821.802 953.096,826.672 952.54,831.553 952.069,836.443 951.683,841.34 951.384,846.244 951.169,851.151 951.041,856.062 950.998,860.974 951.041,865.887 951.169,870.798 951.384,875.705 951.683,880.609 952.069,885.506 952.54,890.396 953.096,895.277 953.737,900.147 954.463,905.006 955.274,909.851 956.169,914.681 957.149,919.495 958.212,924.291 959.359,929.068 960.589,933.824 961.901,938.558 963.297,943.268 964.774,947.953 966.333,952.612 967.972,957.242 969.693,961.844 971.493,966.415 973.373,970.953 975.332,975.458 977.369,979.928 979.484,984.362 981.676,988.759 983.944,993.116 986.288,997.433 988.707,1001.71 991.201,1005.94 993.768,1010.13 996.407,1014.27 999.118,1018.37 1001.9,1022.42 1004.75,1026.42 1007.68,1030.37 1010.67,1034.26 1013.72,1038.11 1016.85,1041.9 1020.04,1045.63 1023.29,1049.31 1026.61,1052.94 1029.99,1056.5 1033.44,1060 1036.94,1063.45 1040.51,1066.83 1044.13,1070.15 1047.81,1073.4 1051.54,1076.59 1055.33,1079.72 1059.18,1082.77 1063.07,1085.77 1067.02,1088.69 1071.02,1091.54 1075.07,1094.32 1079.17,1097.03 1083.31,1099.67 1087.5,1102.24 1091.73,1104.73 1096.01,1107.15 1100.32,1109.5 1104.68,1111.76 1109.08,1113.96 1113.51,1116.07 1117.98,1118.11 1122.49,1120.07 1127.03,1121.95 1131.6,1123.75 1136.2,1125.47 1140.83,1127.11 1145.49,1128.67 1150.17,1130.14 1154.88,1131.54 1159.62,1132.85 1164.37,1134.08 1169.15,1135.23 1173.95,1136.29 1178.76,1137.27 1183.59,1138.17 1188.44,1138.98 1193.29,1139.7 1198.16,1140.35 1203.05,1140.9 1207.93,1141.37 1212.83,1141.76 1217.74,1142.06 1222.64,1142.27 1227.55,1142.4 1232.47,1142.44 1237.38,1142.4 1242.29,1142.27 1247.2,1142.06 1252.1,1141.76 1257,1141.37 1261.89,1140.9 1266.77,1140.35 1271.64,1139.7 1276.5,1138.98 1281.34,1138.17 1286.17,1137.27 1290.99,1136.29 1295.78,1135.23 1300.56,1134.08 1305.32,1132.85 1310.05,1131.54 1314.76,1130.14 1319.45,1128.67 1324.1,1127.11 1328.73,1125.47 1333.34,1123.75 1337.91,1121.95 1342.45,1120.07 1346.95,1118.11 1351.42,1116.07 1355.85,1113.96 1360.25,1111.76 1364.61,1109.5 1368.93,1107.15 1373.2,1104.73 1377.43,1102.24 1381.62,1099.67 1385.77,1097.03 1389.86,1094.32 1393.91,1091.54 1397.91,1088.69 1401.86,1085.77 1405.76,1082.77 1409.6,1079.72 1413.39,1076.59 1417.13,1073.4 1420.81,1070.15 1424.43,1066.83 1427.99,1063.45 1431.49,1060 1434.94,1056.5 1438.32,1052.94 1441.64,1049.31 1444.89,1045.63 1448.08,1041.9 1451.21,1038.11 1454.27,1034.26 1457.26,1030.37 1460.18,1026.42 1463.03,1022.42 1465.81,1018.37 1468.53,1014.27 1471.17,1010.13 1473.73,1005.94 1476.23,1001.71 1478.64,997.433 1480.99,993.116 1483.26,988.759 1485.45,984.362 1487.56,979.928 1489.6,975.458 1491.56,970.953 1493.44,966.415 1495.24,961.844 1496.96,957.242 1498.6,952.612 1500.16,947.953 1501.64,943.268 1503.03,938.558 1504.34,933.824 1505.57,929.068 1506.72,924.291 1507.78,919.495 1508.76,914.681 1509.66,909.851 1510.47,905.006 1511.2,900.147 1511.84,895.277 1512.39,890.396 1512.86,885.506 1513.25,880.609 1513.55,875.705 1513.76,870.798 1513.89,865.887 "/>
<polyline clip-path="url(#clip233)" style="stroke:#000000; stroke-linecap:round; stroke-linejoin:round; stroke-width:2; stroke-opacity:0.1; fill:none" points="1654.67,860.974 1654.61,853.606 1654.41,846.24 1654.09,838.878 1653.64,831.523 1653.06,824.177 1652.36,816.842 1651.52,809.521 1650.56,802.215 1649.47,794.927 1648.26,787.66 1646.91,780.414 1645.44,773.194 1643.85,765.999 1642.13,758.834 1640.28,751.7 1638.31,744.6 1636.22,737.534 1634.01,730.507 1631.67,723.519 1629.21,716.573 1626.63,709.67 1623.93,702.814 1621.11,696.007 1618.17,689.249 1615.11,682.544 1611.94,675.893 1608.65,669.298 1605.25,662.762 1601.73,656.286 1598.11,649.873 1594.37,643.524 1590.52,637.241 1586.56,631.026 1582.49,624.882 1578.32,618.809 1574.04,612.81 1569.65,606.886 1565.17,601.04 1560.58,595.273 1555.89,589.588 1551.11,583.984 1546.22,578.465 1541.25,573.033 1536.17,567.688 1531.01,562.432 1525.75,557.267 1520.41,552.195 1514.98,547.216 1509.46,542.334 1503.85,537.548 1498.17,532.861 1492.4,528.274 1486.55,523.788 1480.63,519.405 1474.63,515.126 1468.56,510.952 1462.41,506.885 1456.2,502.926 1449.92,499.076 1443.57,495.336 1437.15,491.707 1430.68,488.191 1424.14,484.789 1417.55,481.501 1410.9,478.329 1404.19,475.273 1397.43,472.335 1390.63,469.515 1383.77,466.814 1376.87,464.233 1369.92,461.774 1362.93,459.435 1355.91,457.22 1348.84,455.127 1341.74,453.158 1334.61,451.313 1327.44,449.592 1320.25,447.998 1313.03,446.528 1305.78,445.186 1298.51,443.969 1291.23,442.88 1283.92,441.918 1276.6,441.084 1269.26,440.378 1261.92,439.8 1254.56,439.35 1247.2,439.029 1239.84,438.836 1232.47,438.771 1225.1,438.836 1217.73,439.029 1210.37,439.35 1203.02,439.8 1195.67,440.378 1188.33,441.084 1181.01,441.918 1173.71,442.88 1166.42,443.969 1159.15,445.186 1151.91,446.528 1144.69,447.998 1137.49,449.592 1130.33,451.313 1123.19,453.158 1116.09,455.127 1109.03,457.22 1102,459.435 1095.01,461.774 1088.06,464.233 1081.16,466.814 1074.31,469.515 1067.5,472.335 1060.74,475.273 1054.04,478.329 1047.38,481.501 1040.79,484.789 1034.25,488.191 1027.78,491.707 1021.37,495.336 1015.02,499.076 1008.73,502.926 1002.52,506.885 996.374,510.952 990.301,515.126 984.302,519.405 978.378,523.788 972.532,528.274 966.766,532.861 961.08,537.548 955.476,542.334 949.958,547.216 944.525,552.195 939.18,557.267 933.924,562.432 928.759,567.688 923.687,573.033 918.709,578.465 913.826,583.984 909.04,589.588 904.353,595.273 899.766,601.04 895.28,606.886 890.897,612.81 886.618,618.809 882.444,624.882 878.377,631.026 874.418,637.241 870.568,643.524 866.828,649.873 863.199,656.286 859.683,662.762 856.281,669.298 852.993,675.893 849.821,682.544 846.765,689.249 843.827,696.007 841.007,702.814 838.306,709.67 835.725,716.573 833.266,723.519 830.928,730.507 828.712,737.534 826.619,744.6 824.65,751.7 822.805,758.834 821.085,765.999 819.49,773.194 818.021,780.414 816.678,787.66 815.462,794.927 814.372,802.215 813.411,809.521 812.576,816.842 811.87,824.177 811.292,831.523 810.842,838.878 810.521,846.24 810.328,853.606 810.263,860.974 810.328,868.343 810.521,875.709 810.842,883.071 811.292,890.426 811.87,897.772 812.576,905.107 813.411,912.428 814.372,919.734 815.462,927.022 816.678,934.289 818.021,941.535 819.49,948.755 821.085,955.949 822.805,963.115 824.65,970.249 826.619,977.349 828.712,984.415 830.928,991.442 833.266,998.43 835.725,1005.38 838.306,1012.28 841.007,1019.13 843.827,1025.94 846.765,1032.7 849.821,1039.41 852.993,1046.06 856.281,1052.65 859.683,1059.19 863.199,1065.66 866.828,1072.08 870.568,1078.43 874.418,1084.71 878.377,1090.92 882.444,1097.07 886.618,1103.14 890.897,1109.14 895.28,1115.06 899.766,1120.91 904.353,1126.68 909.04,1132.36 913.826,1137.96 918.709,1143.48 923.687,1148.92 928.759,1154.26 933.924,1159.52 939.18,1164.68 944.525,1169.75 949.958,1174.73 955.476,1179.62 961.08,1184.4 966.766,1189.09 972.532,1193.68 978.378,1198.16 984.302,1202.54 990.301,1206.82 996.374,1211 1002.52,1215.06 1008.73,1219.02 1015.02,1222.87 1021.37,1226.61 1027.78,1230.24 1034.25,1233.76 1040.79,1237.16 1047.38,1240.45 1054.04,1243.62 1060.74,1246.68 1067.5,1249.61 1074.31,1252.43 1081.16,1255.13 1088.06,1257.72 1095.01,1260.18 1102,1262.51 1109.03,1264.73 1116.09,1266.82 1123.19,1268.79 1130.33,1270.64 1137.49,1272.36 1144.69,1273.95 1151.91,1275.42 1159.15,1276.76 1166.42,1277.98 1173.71,1279.07 1181.01,1280.03 1188.33,1280.86 1195.67,1281.57 1203.02,1282.15 1210.37,1282.6 1217.73,1282.92 1225.1,1283.11 1232.47,1283.18 1239.84,1283.11 1247.2,1282.92 1254.56,1282.6 1261.92,1282.15 1269.26,1281.57 1276.6,1280.86 1283.92,1280.03 1291.23,1279.07 1298.51,1277.98 1305.78,1276.76 1313.03,1275.42 1320.25,1273.95 1327.44,1272.36 1334.61,1270.64 1341.74,1268.79 1348.84,1266.82 1355.91,1264.73 1362.93,1262.51 1369.92,1260.18 1376.87,1257.72 1383.77,1255.13 1390.63,1252.43 1397.43,1249.61 1404.19,1246.68 1410.9,1243.62 1417.55,1240.45 1424.14,1237.16 1430.68,1233.76 1437.15,1230.24 1443.57,1226.61 1449.92,1222.87 1456.2,1219.02 1462.41,1215.06 1468.56,1211 1474.63,1206.82 1480.63,1202.54 1486.55,1198.16 1492.4,1193.68 1498.17,1189.09 1503.85,1184.4 1509.46,1179.62 1514.98,1174.73 1520.41,1169.75 1525.75,1164.68 1531.01,1159.52 1536.17,1154.26 1541.25,1148.92 1546.22,1143.48 1551.11,1137.96 1555.89,1132.36 1560.58,1126.68 1565.17,1120.91 1569.65,1115.06 1574.04,1109.14 1578.32,1103.14 1582.49,1097.07 1586.56,1090.92 1590.52,1084.71 1594.37,1078.43 1598.11,1072.08 1601.73,1065.66 1605.25,1059.19 1608.65,1052.65 1611.94,1046.06 1615.11,1039.41 1618.17,1032.7 1621.11,1025.94 1623.93,1019.13 1626.63,1012.28 1629.21,1005.38 1631.67,998.43 1634.01,991.442 1636.22,984.415 1638.31,977.349 1640.28,970.249 1642.13,963.115 1643.85,955.949 1645.44,948.755 1646.91,941.535 1648.26,934.289 1649.47,927.022 1650.56,919.734 1651.52,912.428 1652.36,905.107 1653.06,897.772 1653.64,890.426 1654.09,883.071 1654.41,875.709 1654.61,868.343 "/>
<polyline clip-path="url(#clip233)" style="stroke:#000000; stroke-linecap:round; stroke-linejoin:round; stroke-width:2; stroke-opacity:0.1; fill:none" points="1795.4,860.974 1795.32,851.15 1795.06,841.328 1794.63,831.513 1794.03,821.706 1793.26,811.911 1792.32,802.131 1791.21,792.37 1789.93,782.629 1788.47,772.912 1786.85,763.221 1785.06,753.561 1783.1,743.933 1780.98,734.341 1778.68,724.788 1776.22,715.276 1773.6,705.808 1770.81,696.387 1767.85,687.017 1764.73,677.7 1761.45,668.439 1758.01,659.236 1754.41,650.094 1750.65,641.017 1746.74,632.007 1742.66,623.067 1738.43,614.199 1734.05,605.406 1729.51,596.691 1724.82,588.057 1719.98,579.506 1715,571.04 1709.86,562.663 1704.59,554.377 1699.16,546.184 1693.6,538.087 1687.89,530.088 1682.05,522.19 1676.07,514.396 1669.95,506.706 1663.7,499.125 1657.32,491.654 1650.81,484.296 1644.17,477.052 1637.41,469.925 1630.52,462.918 1623.52,456.031 1616.39,449.268 1609.15,442.63 1601.79,436.12 1594.32,429.739 1586.73,423.49 1579.05,417.374 1571.25,411.393 1563.35,405.549 1555.35,399.843 1547.26,394.278 1539.06,388.855 1530.78,383.576 1522.4,378.443 1513.94,373.456 1505.38,368.618 1496.75,363.93 1488.03,359.394 1479.24,355.01 1470.37,350.78 1461.43,346.706 1452.42,342.788 1443.35,339.028 1434.21,335.427 1425,331.986 1415.74,328.707 1406.42,325.589 1397.05,322.635 1387.63,319.844 1378.17,317.219 1368.65,314.759 1359.1,312.465 1349.51,310.339 1339.88,308.38 1330.22,306.589 1320.53,304.968 1310.81,303.516 1301.07,302.233 1291.31,301.121 1281.53,300.179 1271.74,299.408 1261.93,298.809 1252.11,298.38 1242.29,298.123 1232.47,298.037 1222.64,298.123 1212.82,298.38 1203,298.809 1193.2,299.408 1183.4,300.179 1173.62,301.121 1163.86,302.233 1154.12,303.516 1144.4,304.968 1134.71,306.589 1125.05,308.38 1115.43,310.339 1105.83,312.465 1096.28,314.759 1086.77,317.219 1077.3,319.844 1067.88,322.635 1058.51,325.589 1049.19,328.707 1039.93,331.986 1030.73,335.427 1021.59,339.028 1012.51,342.788 1003.5,346.706 994.559,350.78 985.691,355.01 976.898,359.394 968.183,363.93 959.549,368.618 950.998,373.456 942.532,378.443 934.155,383.576 925.869,388.855 917.676,394.278 909.579,399.843 901.58,405.549 893.682,411.393 885.888,417.374 878.199,423.49 870.617,429.739 863.146,436.12 855.788,442.63 848.544,449.268 841.417,456.031 834.41,462.918 827.523,469.925 820.76,477.052 814.123,484.296 807.612,491.654 801.231,499.125 794.982,506.706 788.866,514.396 782.885,522.19 777.041,530.088 771.335,538.087 765.77,546.184 760.347,554.377 755.069,562.663 749.935,571.04 744.948,579.506 740.11,588.057 735.422,596.691 730.886,605.406 726.502,614.199 722.272,623.067 718.198,632.007 714.28,641.017 710.52,650.094 706.919,659.236 703.478,668.439 700.199,677.7 697.081,687.017 694.127,696.387 691.336,705.808 688.711,715.276 686.251,724.788 683.957,734.341 681.831,743.933 679.872,753.561 678.081,763.221 676.46,772.912 675.008,782.629 673.725,792.37 672.613,802.131 671.671,811.911 670.9,821.706 670.301,831.513 669.872,841.328 669.615,851.15 669.529,860.974 669.615,870.799 669.872,880.621 670.301,890.436 670.9,900.243 671.671,910.038 672.613,919.817 673.725,929.579 675.008,939.32 676.46,949.037 678.081,958.728 679.872,968.388 681.831,978.016 683.957,987.608 686.251,997.161 688.711,1006.67 691.336,1016.14 694.127,1025.56 697.081,1034.93 700.199,1044.25 703.478,1053.51 706.919,1062.71 710.52,1071.85 714.28,1080.93 718.198,1089.94 722.272,1098.88 726.502,1107.75 730.886,1116.54 735.422,1125.26 740.11,1133.89 744.948,1142.44 749.935,1150.91 755.069,1159.29 760.347,1167.57 765.77,1175.77 771.335,1183.86 777.041,1191.86 782.885,1199.76 788.866,1207.55 794.982,1215.24 801.231,1222.82 807.612,1230.29 814.123,1237.65 820.76,1244.9 827.523,1252.02 834.41,1259.03 841.417,1265.92 848.544,1272.68 855.788,1279.32 863.146,1285.83 870.617,1292.21 878.199,1298.46 885.888,1304.58 893.682,1310.56 901.58,1316.4 909.579,1322.11 917.676,1327.67 925.869,1333.09 934.155,1338.37 942.532,1343.51 950.998,1348.49 959.549,1353.33 968.183,1358.02 976.898,1362.56 985.691,1366.94 994.559,1371.17 1003.5,1375.24 1012.51,1379.16 1021.59,1382.92 1030.73,1386.52 1039.93,1389.96 1049.19,1393.24 1058.51,1396.36 1067.88,1399.31 1077.3,1402.1 1086.77,1404.73 1096.28,1407.19 1105.83,1409.48 1115.43,1411.61 1125.05,1413.57 1134.71,1415.36 1144.4,1416.98 1154.12,1418.43 1163.86,1419.72 1173.62,1420.83 1183.4,1421.77 1193.2,1422.54 1203,1423.14 1212.82,1423.57 1222.64,1423.83 1232.47,1423.91 1242.29,1423.83 1252.11,1423.57 1261.93,1423.14 1271.74,1422.54 1281.53,1421.77 1291.31,1420.83 1301.07,1419.72 1310.81,1418.43 1320.53,1416.98 1330.22,1415.36 1339.88,1413.57 1349.51,1411.61 1359.1,1409.48 1368.65,1407.19 1378.17,1404.73 1387.63,1402.1 1397.05,1399.31 1406.42,1396.36 1415.74,1393.24 1425,1389.96 1434.21,1386.52 1443.35,1382.92 1452.42,1379.16 1461.43,1375.24 1470.37,1371.17 1479.24,1366.94 1488.03,1362.56 1496.75,1358.02 1505.38,1353.33 1513.94,1348.49 1522.4,1343.51 1530.78,1338.37 1539.06,1333.09 1547.26,1327.67 1555.35,1322.11 1563.35,1316.4 1571.25,1310.56 1579.05,1304.58 1586.73,1298.46 1594.32,1292.21 1601.79,1285.83 1609.15,1279.32 1616.39,1272.68 1623.52,1265.92 1630.52,1259.03 1637.41,1252.02 1644.17,1244.9 1650.81,1237.65 1657.32,1230.29 1663.7,1222.82 1669.95,1215.24 1676.07,1207.55 1682.05,1199.76 1687.89,1191.86 1693.6,1183.86 1699.16,1175.77 1704.59,1167.57 1709.86,1159.29 1715,1150.91 1719.98,1142.44 1724.82,1133.89 1729.51,1125.26 1734.05,1116.54 1738.43,1107.75 1742.66,1098.88 1746.74,1089.94 1750.65,1080.93 1754.41,1071.85 1758.01,1062.71 1761.45,1053.51 1764.73,1044.25 1767.85,1034.93 1770.81,1025.56 1773.6,1016.14 1776.22,1006.67 1778.68,997.161 1780.98,987.608 1783.1,978.016 1785.06,968.388 1786.85,958.728 1788.47,949.037 1789.93,939.32 1791.21,929.579 1792.32,919.817 1793.26,910.038 1794.03,900.243 1794.63,890.436 1795.06,880.621 1795.32,870.799 "/>
<polyline clip-path="url(#clip233)" style="stroke:#000000; stroke-linecap:round; stroke-linejoin:round; stroke-width:2; stroke-opacity:0.1; fill:none" points="1857.94,860.974 1857.84,850.058 1857.56,839.146 1857.08,828.24 1856.42,817.344 1855.56,806.461 1854.51,795.595 1853.28,784.748 1851.85,773.925 1850.24,763.129 1848.44,752.362 1846.45,741.629 1844.27,730.931 1841.91,720.274 1839.36,709.659 1836.63,699.09 1833.71,688.571 1830.61,678.104 1827.33,667.693 1823.86,657.34 1820.22,647.05 1816.4,636.825 1812.4,626.668 1808.22,616.583 1803.86,606.572 1799.34,596.638 1794.64,586.785 1789.77,577.015 1784.73,567.332 1779.52,557.739 1774.14,548.238 1768.6,538.832 1762.9,529.524 1757.03,520.317 1751.01,511.214 1744.82,502.218 1738.49,493.33 1731.99,484.555 1725.35,475.895 1718.55,467.351 1711.61,458.928 1704.52,450.627 1697.28,442.451 1689.91,434.403 1682.39,426.484 1674.74,418.698 1666.96,411.047 1659.04,403.532 1650.99,396.157 1642.81,388.924 1634.51,381.834 1626.09,374.89 1617.55,368.095 1608.89,361.449 1600.11,354.956 1591.22,348.617 1582.23,342.434 1573.12,336.408 1563.92,330.543 1554.61,324.839 1545.2,319.299 1535.7,313.923 1526.11,308.714 1516.43,303.674 1506.66,298.803 1496.8,294.103 1486.87,289.576 1476.86,285.223 1466.77,281.046 1456.62,277.045 1446.39,273.222 1436.1,269.578 1425.75,266.114 1415.34,262.831 1404.87,259.731 1394.35,256.814 1383.78,254.08 1373.17,251.532 1362.51,249.169 1351.81,246.993 1341.08,245.003 1330.31,243.202 1319.52,241.588 1308.69,240.163 1297.85,238.927 1286.98,237.881 1276.1,237.025 1265.2,236.358 1254.3,235.882 1243.38,235.596 1232.47,235.501 1221.55,235.596 1210.64,235.882 1199.73,236.358 1188.84,237.025 1177.95,237.881 1167.09,238.927 1156.24,240.163 1145.42,241.588 1134.62,243.202 1123.85,245.003 1113.12,246.993 1102.42,249.169 1091.77,251.532 1081.15,254.08 1070.58,256.814 1060.06,259.731 1049.6,262.831 1039.18,266.114 1028.83,269.578 1018.54,273.222 1008.32,277.045 998.16,281.046 988.075,285.223 978.064,289.576 968.13,294.103 958.277,298.803 948.508,303.674 938.825,308.714 929.231,313.923 919.73,319.299 910.324,324.839 901.016,330.543 891.809,336.408 882.706,342.434 873.71,348.617 864.822,354.956 856.047,361.449 847.387,368.095 838.843,374.89 830.42,381.834 822.119,388.924 813.943,396.157 805.895,403.532 797.976,411.047 790.19,418.698 782.539,426.484 775.024,434.403 767.649,442.451 760.416,450.627 753.326,458.928 746.382,467.351 739.587,475.895 732.941,484.555 726.448,493.33 720.109,502.218 713.926,511.214 707.9,520.317 702.035,529.524 696.331,538.832 690.791,548.238 685.415,557.739 680.206,567.332 675.166,577.015 670.295,586.785 665.595,596.638 661.068,606.572 656.715,616.583 652.538,626.668 648.537,636.825 644.714,647.05 641.07,657.34 637.606,667.693 634.323,678.104 631.223,688.571 628.306,699.09 625.572,709.659 623.024,720.274 620.661,730.931 618.485,741.629 616.495,752.362 614.694,763.129 613.08,773.925 611.655,784.748 610.42,795.595 609.373,806.461 608.517,817.344 607.85,828.24 607.374,839.146 607.088,850.058 606.993,860.974 607.088,871.89 607.374,882.803 607.85,893.709 608.517,904.605 609.373,915.488 610.42,926.354 611.655,937.201 613.08,948.024 614.694,958.82 616.495,969.587 618.485,980.32 620.661,991.018 623.024,1001.68 625.572,1012.29 628.306,1022.86 631.223,1033.38 634.323,1043.85 637.606,1054.26 641.07,1064.61 644.714,1074.9 648.537,1085.12 652.538,1095.28 656.715,1105.37 661.068,1115.38 665.595,1125.31 670.295,1135.16 675.166,1144.93 680.206,1154.62 685.415,1164.21 690.791,1173.71 696.331,1183.12 702.035,1192.42 707.9,1201.63 713.926,1210.73 720.109,1219.73 726.448,1228.62 732.941,1237.39 739.587,1246.05 746.382,1254.6 753.326,1263.02 760.416,1271.32 767.649,1279.5 775.024,1287.55 782.539,1295.46 790.19,1303.25 797.976,1310.9 805.895,1318.42 813.943,1325.79 822.119,1333.03 830.42,1340.11 838.843,1347.06 847.387,1353.85 856.047,1360.5 864.822,1366.99 873.71,1373.33 882.706,1379.52 891.809,1385.54 901.016,1391.41 910.324,1397.11 919.73,1402.65 929.231,1408.03 938.825,1413.23 948.508,1418.28 958.277,1423.15 968.13,1427.85 978.064,1432.37 988.075,1436.73 998.16,1440.9 1008.32,1444.9 1018.54,1448.73 1028.83,1452.37 1039.18,1455.84 1049.6,1459.12 1060.06,1462.22 1070.58,1465.14 1081.15,1467.87 1091.77,1470.42 1102.42,1472.78 1113.12,1474.96 1123.85,1476.95 1134.62,1478.75 1145.42,1480.36 1156.24,1481.79 1167.09,1483.02 1177.95,1484.07 1188.84,1484.92 1199.73,1485.59 1210.64,1486.07 1221.55,1486.35 1232.47,1486.45 1243.38,1486.35 1254.3,1486.07 1265.2,1485.59 1276.1,1484.92 1286.98,1484.07 1297.85,1483.02 1308.69,1481.79 1319.52,1480.36 1330.31,1478.75 1341.08,1476.95 1351.81,1474.96 1362.51,1472.78 1373.17,1470.42 1383.78,1467.87 1394.35,1465.14 1404.87,1462.22 1415.34,1459.12 1425.75,1455.84 1436.1,1452.37 1446.39,1448.73 1456.62,1444.9 1466.77,1440.9 1476.86,1436.73 1486.87,1432.37 1496.8,1427.85 1506.66,1423.15 1516.43,1418.28 1526.11,1413.23 1535.7,1408.03 1545.2,1402.65 1554.61,1397.11 1563.92,1391.41 1573.12,1385.54 1582.23,1379.52 1591.22,1373.33 1600.11,1366.99 1608.89,1360.5 1617.55,1353.85 1626.09,1347.06 1634.51,1340.11 1642.81,1333.03 1650.99,1325.79 1659.04,1318.42 1666.96,1310.9 1674.74,1303.25 1682.39,1295.46 1689.91,1287.55 1697.28,1279.5 1704.52,1271.32 1711.61,1263.02 1718.55,1254.6 1725.35,1246.05 1731.99,1237.39 1738.49,1228.62 1744.82,1219.73 1751.01,1210.73 1757.03,1201.63 1762.9,1192.42 1768.6,1183.12 1774.14,1173.71 1779.52,1164.21 1784.73,1154.62 1789.77,1144.93 1794.64,1135.16 1799.34,1125.31 1803.86,1115.38 1808.22,1105.37 1812.4,1095.28 1816.4,1085.12 1820.22,1074.9 1823.86,1064.61 1827.33,1054.26 1830.61,1043.85 1833.71,1033.38 1836.63,1022.86 1839.36,1012.29 1841.91,1001.68 1844.27,991.018 1846.45,980.32 1848.44,969.587 1850.24,958.82 1851.85,948.024 1853.28,937.201 1854.51,926.354 1855.56,915.488 1856.42,904.605 1857.08,893.709 1857.56,882.803 1857.84,871.89 "/>
<polyline clip-path="url(#clip233)" style="stroke:#ededed; stroke-linecap:round; stroke-linejoin:round; stroke-width:2; stroke-opacity:1; fill:none" points="1857.94,860.974 1857.84,850.058 1857.56,839.146 1857.08,828.24 1856.42,817.344 1855.56,806.461 1854.51,795.595 1853.28,784.748 1851.85,773.925 1850.24,763.129 1848.44,752.362 1846.45,741.629 1844.27,730.931 1841.91,720.274 1839.36,709.659 1836.63,699.09 1833.71,688.571 1830.61,678.104 1827.33,667.693 1823.86,657.34 1820.22,647.05 1816.4,636.825 1812.4,626.668 1808.22,616.583 1803.86,606.572 1799.34,596.638 1794.64,586.785 1789.77,577.015 1784.73,567.332 1779.52,557.739 1774.14,548.238 1768.6,538.832 1762.9,529.524 1757.03,520.317 1751.01,511.214 1744.82,502.218 1738.49,493.33 1731.99,484.555 1725.35,475.895 1718.55,467.351 1711.61,458.928 1704.52,450.627 1697.28,442.451 1689.91,434.403 1682.39,426.484 1674.74,418.698 1666.96,411.047 1659.04,403.532 1650.99,396.157 1642.81,388.924 1634.51,381.834 1626.09,374.89 1617.55,368.095 1608.89,361.449 1600.11,354.956 1591.22,348.617 1582.23,342.434 1573.12,336.408 1563.92,330.543 1554.61,324.839 1545.2,319.299 1535.7,313.923 1526.11,308.714 1516.43,303.674 1506.66,298.803 1496.8,294.103 1486.87,289.576 1476.86,285.223 1466.77,281.046 1456.62,277.045 1446.39,273.222 1436.1,269.578 1425.75,266.114 1415.34,262.831 1404.87,259.731 1394.35,256.814 1383.78,254.08 1373.17,251.532 1362.51,249.169 1351.81,246.993 1341.08,245.003 1330.31,243.202 1319.52,241.588 1308.69,240.163 1297.85,238.927 1286.98,237.881 1276.1,237.025 1265.2,236.358 1254.3,235.882 1243.38,235.596 1232.47,235.501 1221.55,235.596 1210.64,235.882 1199.73,236.358 1188.84,237.025 1177.95,237.881 1167.09,238.927 1156.24,240.163 1145.42,241.588 1134.62,243.202 1123.85,245.003 1113.12,246.993 1102.42,249.169 1091.77,251.532 1081.15,254.08 1070.58,256.814 1060.06,259.731 1049.6,262.831 1039.18,266.114 1028.83,269.578 1018.54,273.222 1008.32,277.045 998.16,281.046 988.075,285.223 978.064,289.576 968.13,294.103 958.277,298.803 948.508,303.674 938.825,308.714 929.231,313.923 919.73,319.299 910.324,324.839 901.016,330.543 891.809,336.408 882.706,342.434 873.71,348.617 864.822,354.956 856.047,361.449 847.387,368.095 838.843,374.89 830.42,381.834 822.119,388.924 813.943,396.157 805.895,403.532 797.976,411.047 790.19,418.698 782.539,426.484 775.024,434.403 767.649,442.451 760.416,450.627 753.326,458.928 746.382,467.351 739.587,475.895 732.941,484.555 726.448,493.33 720.109,502.218 713.926,511.214 707.9,520.317 702.035,529.524 696.331,538.832 690.791,548.238 685.415,557.739 680.206,567.332 675.166,577.015 670.295,586.785 665.595,596.638 661.068,606.572 656.715,616.583 652.538,626.668 648.537,636.825 644.714,647.05 641.07,657.34 637.606,667.693 634.323,678.104 631.223,688.571 628.306,699.09 625.572,709.659 623.024,720.274 620.661,730.931 618.485,741.629 616.495,752.362 614.694,763.129 613.08,773.925 611.655,784.748 610.42,795.595 609.373,806.461 608.517,817.344 607.85,828.24 607.374,839.146 607.088,850.058 606.993,860.974 607.088,871.89 607.374,882.803 607.85,893.709 608.517,904.605 609.373,915.488 610.42,926.354 611.655,937.201 613.08,948.024 614.694,958.82 616.495,969.587 618.485,980.32 620.661,991.018 623.024,1001.68 625.572,1012.29 628.306,1022.86 631.223,1033.38 634.323,1043.85 637.606,1054.26 641.07,1064.61 644.714,1074.9 648.537,1085.12 652.538,1095.28 656.715,1105.37 661.068,1115.38 665.595,1125.31 670.295,1135.16 675.166,1144.93 680.206,1154.62 685.415,1164.21 690.791,1173.71 696.331,1183.12 702.035,1192.42 707.9,1201.63 713.926,1210.73 720.109,1219.73 726.448,1228.62 732.941,1237.39 739.587,1246.05 746.382,1254.6 753.326,1263.02 760.416,1271.32 767.649,1279.5 775.024,1287.55 782.539,1295.46 790.19,1303.25 797.976,1310.9 805.895,1318.42 813.943,1325.79 822.119,1333.03 830.42,1340.11 838.843,1347.06 847.387,1353.85 856.047,1360.5 864.822,1366.99 873.71,1373.33 882.706,1379.52 891.809,1385.54 901.016,1391.41 910.324,1397.11 919.73,1402.65 929.231,1408.03 938.825,1413.23 948.508,1418.28 958.277,1423.15 968.13,1427.85 978.064,1432.37 988.075,1436.73 998.16,1440.9 1008.32,1444.9 1018.54,1448.73 1028.83,1452.37 1039.18,1455.84 1049.6,1459.12 1060.06,1462.22 1070.58,1465.14 1081.15,1467.87 1091.77,1470.42 1102.42,1472.78 1113.12,1474.96 1123.85,1476.95 1134.62,1478.75 1145.42,1480.36 1156.24,1481.79 1167.09,1483.02 1177.95,1484.07 1188.84,1484.92 1199.73,1485.59 1210.64,1486.07 1221.55,1486.35 1232.47,1486.45 1243.38,1486.35 1254.3,1486.07 1265.2,1485.59 1276.1,1484.92 1286.98,1484.07 1297.85,1483.02 1308.69,1481.79 1319.52,1480.36 1330.31,1478.75 1341.08,1476.95 1351.81,1474.96 1362.51,1472.78 1373.17,1470.42 1383.78,1467.87 1394.35,1465.14 1404.87,1462.22 1415.34,1459.12 1425.75,1455.84 1436.1,1452.37 1446.39,1448.73 1456.62,1444.9 1466.77,1440.9 1476.86,1436.73 1486.87,1432.37 1496.8,1427.85 1506.66,1423.15 1516.43,1418.28 1526.11,1413.23 1535.7,1408.03 1545.2,1402.65 1554.61,1397.11 1563.92,1391.41 1573.12,1385.54 1582.23,1379.52 1591.22,1373.33 1600.11,1366.99 1608.89,1360.5 1617.55,1353.85 1626.09,1347.06 1634.51,1340.11 1642.81,1333.03 1650.99,1325.79 1659.04,1318.42 1666.96,1310.9 1674.74,1303.25 1682.39,1295.46 1689.91,1287.55 1697.28,1279.5 1704.52,1271.32 1711.61,1263.02 1718.55,1254.6 1725.35,1246.05 1731.99,1237.39 1738.49,1228.62 1744.82,1219.73 1751.01,1210.73 1757.03,1201.63 1762.9,1192.42 1768.6,1183.12 1774.14,1173.71 1779.52,1164.21 1784.73,1154.62 1789.77,1144.93 1794.64,1135.16 1799.34,1125.31 1803.86,1115.38 1808.22,1105.37 1812.4,1095.28 1816.4,1085.12 1820.22,1074.9 1823.86,1064.61 1827.33,1054.26 1830.61,1043.85 1833.71,1033.38 1836.63,1022.86 1839.36,1012.29 1841.91,1001.68 1844.27,991.018 1846.45,980.32 1848.44,969.587 1850.24,958.82 1851.85,948.024 1853.28,937.201 1854.51,926.354 1855.56,915.488 1856.42,904.605 1857.08,893.709 1857.56,882.803 1857.84,871.89 "/>
<path clip-path="url(#clip230)" d="M1910.82 853.221 Q1907.21 853.221 1905.38 856.786 Q1903.57 860.327 1903.57 867.457 Q1903.57 874.563 1905.38 878.128 Q1907.21 881.67 1910.82 881.67 Q1914.45 881.67 1916.26 878.128 Q1918.09 874.563 1918.09 867.457 Q1918.09 860.327 1916.26 856.786 Q1914.45 853.221 1910.82 853.221 M1910.82 849.517 Q1916.63 849.517 1919.69 854.124 Q1922.76 858.707 1922.76 867.457 Q1922.76 876.184 1919.69 880.79 Q1916.63 885.373 1910.82 885.373 Q1905.01 885.373 1901.93 880.79 Q1898.88 876.184 1898.88 867.457 Q1898.88 858.707 1901.93 854.124 Q1905.01 849.517 1910.82 849.517 Z" fill="#000000" fill-rule="evenodd" fill-opacity="1" /><path clip-path="url(#clip230)" d="M1932.43 838.653 Q1929.65 838.653 1928.03 840.835 Q1926.41 842.998 1926.41 846.778 Q1926.41 850.558 1928.01 852.74 Q1929.63 854.903 1932.43 854.903 Q1935.2 854.903 1936.81 852.721 Q1938.43 850.54 1938.43 846.778 Q1938.43 843.035 1936.81 840.854 Q1935.2 838.653 1932.43 838.653 M1932.43 835.719 Q1936.95 835.719 1939.52 838.653 Q1942.1 841.587 1942.1 846.778 Q1942.1 851.95 1939.52 854.903 Q1936.95 857.837 1932.43 857.837 Q1927.9 857.837 1925.32 854.903 Q1922.76 851.95 1922.76 846.778 Q1922.76 841.587 1925.32 838.653 Q1927.9 835.719 1932.43 835.719 Z" fill="#000000" fill-rule="evenodd" fill-opacity="1" /><path clip-path="url(#clip230)" d="M1683.56 1352.57 Q1686.92 1353.29 1688.79 1355.56 Q1690.69 1357.83 1690.69 1361.16 Q1690.69 1366.28 1687.17 1369.08 Q1683.66 1371.88 1677.17 1371.88 Q1675 1371.88 1672.68 1371.44 Q1670.39 1371.02 1667.94 1370.16 L1667.94 1365.65 Q1669.88 1366.78 1672.2 1367.36 Q1674.51 1367.94 1677.04 1367.94 Q1681.43 1367.94 1683.72 1366.21 Q1686.04 1364.47 1686.04 1361.16 Q1686.04 1358.1 1683.89 1356.39 Q1681.76 1354.66 1677.94 1354.66 L1673.91 1354.66 L1673.91 1350.81 L1678.12 1350.81 Q1681.57 1350.81 1683.4 1349.45 Q1685.23 1348.06 1685.23 1345.47 Q1685.23 1342.8 1683.33 1341.39 Q1681.46 1339.96 1677.94 1339.96 Q1676.02 1339.96 1673.82 1340.37 Q1671.62 1340.79 1668.98 1341.67 L1668.98 1337.5 Q1671.64 1336.76 1673.96 1336.39 Q1676.29 1336.02 1678.35 1336.02 Q1683.68 1336.02 1686.78 1338.45 Q1689.88 1340.86 1689.88 1344.98 Q1689.88 1347.85 1688.24 1349.84 Q1686.6 1351.81 1683.56 1352.57 Z" fill="#000000" fill-rule="evenodd" fill-opacity="1" /><path clip-path="url(#clip230)" d="M1700.37 1367.27 L1708.01 1367.27 L1708.01 1340.91 L1699.7 1342.57 L1699.7 1338.31 L1707.96 1336.65 L1712.64 1336.65 L1712.64 1367.27 L1720.28 1367.27 L1720.28 1371.21 L1700.37 1371.21 L1700.37 1367.27 Z" fill="#000000" fill-rule="evenodd" fill-opacity="1" /><path clip-path="url(#clip230)" d="M1729.77 1336.65 L1748.12 1336.65 L1748.12 1340.58 L1734.05 1340.58 L1734.05 1349.05 Q1735.07 1348.71 1736.09 1348.54 Q1737.1 1348.36 1738.12 1348.36 Q1743.91 1348.36 1747.29 1351.53 Q1750.67 1354.7 1750.67 1360.12 Q1750.67 1365.7 1747.2 1368.8 Q1743.72 1371.88 1737.41 1371.88 Q1735.23 1371.88 1732.96 1371.51 Q1730.72 1371.14 1728.31 1370.4 L1728.31 1365.7 Q1730.39 1366.83 1732.61 1367.39 Q1734.84 1367.94 1737.31 1367.94 Q1741.32 1367.94 1743.66 1365.84 Q1745.99 1363.73 1745.99 1360.12 Q1745.99 1356.51 1743.66 1354.4 Q1741.32 1352.29 1737.31 1352.29 Q1735.44 1352.29 1733.56 1352.71 Q1731.71 1353.13 1729.77 1354.01 L1729.77 1336.65 Z" fill="#000000" fill-rule="evenodd" fill-opacity="1" /><path clip-path="url(#clip230)" d="M1760.34 1325.16 Q1757.55 1325.16 1755.94 1327.34 Q1754.32 1329.5 1754.32 1333.28 Q1754.32 1337.06 1755.92 1339.24 Q1757.53 1341.41 1760.34 1341.41 Q1763.1 1341.41 1764.72 1339.23 Q1766.34 1337.04 1766.34 1333.28 Q1766.34 1329.54 1764.72 1327.36 Q1763.1 1325.16 1760.34 1325.16 M1760.34 1322.22 Q1764.85 1322.22 1767.43 1325.16 Q1770 1328.09 1770 1333.28 Q1770 1338.45 1767.43 1341.41 Q1764.85 1344.34 1760.34 1344.34 Q1755.8 1344.34 1753.23 1341.41 Q1750.67 1338.45 1750.67 1333.28 Q1750.67 1328.09 1753.23 1325.16 Q1755.8 1322.22 1760.34 1322.22 Z" fill="#000000" fill-rule="evenodd" fill-opacity="1" /><path clip-path="url(#clip230)" d="M1186.49 1568.79 L1202.81 1568.79 L1202.81 1572.72 L1180.87 1572.72 L1180.87 1568.79 Q1183.53 1566.03 1188.11 1561.4 Q1192.72 1556.75 1193.9 1555.41 Q1196.14 1552.88 1197.02 1551.15 Q1197.93 1549.39 1197.93 1547.7 Q1197.93 1544.95 1195.98 1543.21 Q1194.06 1541.47 1190.96 1541.47 Q1188.76 1541.47 1186.31 1542.24 Q1183.88 1543 1181.1 1544.55 L1181.1 1539.83 Q1183.92 1538.7 1186.38 1538.12 Q1188.83 1537.54 1190.87 1537.54 Q1196.24 1537.54 1199.43 1540.22 Q1202.63 1542.91 1202.63 1547.4 Q1202.63 1549.53 1201.82 1551.45 Q1201.03 1553.35 1198.92 1555.94 Q1198.34 1556.61 1195.24 1559.83 Q1192.14 1563.02 1186.49 1568.79 Z" fill="#000000" fill-rule="evenodd" fill-opacity="1" /><path clip-path="url(#clip230)" d="M1211.45 1538.16 L1233.67 1538.16 L1233.67 1540.15 L1221.12 1572.72 L1216.24 1572.72 L1228.04 1542.1 L1211.45 1542.1 L1211.45 1538.16 Z" fill="#000000" fill-rule="evenodd" fill-opacity="1" /><path clip-path="url(#clip230)" d="M1252.79 1541.24 Q1249.18 1541.24 1247.35 1544.81 Q1245.54 1548.35 1245.54 1555.48 Q1245.54 1562.58 1247.35 1566.15 Q1249.18 1569.69 1252.79 1569.69 Q1256.42 1569.69 1258.23 1566.15 Q1260.06 1562.58 1260.06 1555.48 Q1260.06 1548.35 1258.23 1544.81 Q1256.42 1541.24 1252.79 1541.24 M1252.79 1537.54 Q1258.6 1537.54 1261.65 1542.14 Q1264.73 1546.73 1264.73 1555.48 Q1264.73 1564.2 1261.65 1568.81 Q1258.6 1573.39 1252.79 1573.39 Q1246.98 1573.39 1243.9 1568.81 Q1240.84 1564.2 1240.84 1555.48 Q1240.84 1546.73 1243.9 1542.14 Q1246.98 1537.54 1252.79 1537.54 Z" fill="#000000" fill-rule="evenodd" fill-opacity="1" /><path clip-path="url(#clip230)" d="M1274.4 1526.67 Q1271.62 1526.67 1270 1528.86 Q1268.38 1531.02 1268.38 1534.8 Q1268.38 1538.58 1269.98 1540.76 Q1271.6 1542.92 1274.4 1542.92 Q1277.16 1542.92 1278.78 1540.74 Q1280.4 1538.56 1280.4 1534.8 Q1280.4 1531.06 1278.78 1528.87 Q1277.16 1526.67 1274.4 1526.67 M1274.4 1523.74 Q1278.91 1523.74 1281.49 1526.67 Q1284.07 1529.61 1284.07 1534.8 Q1284.07 1539.97 1281.49 1542.92 Q1278.91 1545.86 1274.4 1545.86 Q1269.87 1545.86 1267.29 1542.92 Q1264.73 1539.97 1264.73 1534.8 Q1264.73 1529.61 1267.29 1526.67 Q1269.87 1523.74 1274.4 1523.74 Z" fill="#000000" fill-rule="evenodd" fill-opacity="1" /><path clip-path="url(#clip230)" d="M700.485 1367.27 L716.805 1367.27 L716.805 1371.21 L694.86 1371.21 L694.86 1367.27 Q697.522 1364.52 702.106 1359.89 Q706.712 1355.23 707.893 1353.89 Q710.138 1351.37 711.018 1349.63 Q711.92 1347.87 711.92 1346.18 Q711.92 1343.43 709.976 1341.69 Q708.055 1339.96 704.953 1339.96 Q702.754 1339.96 700.3 1340.72 Q697.869 1341.48 695.092 1343.04 L695.092 1338.31 Q697.916 1337.18 700.369 1336.6 Q702.823 1336.02 704.86 1336.02 Q710.231 1336.02 713.425 1338.71 Q716.619 1341.39 716.619 1345.88 Q716.619 1348.01 715.809 1349.93 Q715.022 1351.83 712.916 1354.42 Q712.337 1355.1 709.235 1358.31 Q706.133 1361.51 700.485 1367.27 Z" fill="#000000" fill-rule="evenodd" fill-opacity="1" /><path clip-path="url(#clip230)" d="M730.647 1367.27 L746.966 1367.27 L746.966 1371.21 L725.022 1371.21 L725.022 1367.27 Q727.684 1364.52 732.267 1359.89 Q736.874 1355.23 738.054 1353.89 Q740.3 1351.37 741.179 1349.63 Q742.082 1347.87 742.082 1346.18 Q742.082 1343.43 740.138 1341.69 Q738.216 1339.96 735.115 1339.96 Q732.916 1339.96 730.462 1340.72 Q728.031 1341.48 725.254 1343.04 L725.254 1338.31 Q728.078 1337.18 730.531 1336.6 Q732.985 1336.02 735.022 1336.02 Q740.392 1336.02 743.587 1338.71 Q746.781 1341.39 746.781 1345.88 Q746.781 1348.01 745.971 1349.93 Q745.184 1351.83 743.078 1354.42 Q742.499 1355.1 739.397 1358.31 Q736.295 1361.51 730.647 1367.27 Z" fill="#000000" fill-rule="evenodd" fill-opacity="1" /><path clip-path="url(#clip230)" d="M756.828 1336.65 L775.184 1336.65 L775.184 1340.58 L761.11 1340.58 L761.11 1349.05 Q762.128 1348.71 763.147 1348.54 Q764.165 1348.36 765.184 1348.36 Q770.971 1348.36 774.351 1351.53 Q777.73 1354.7 777.73 1360.12 Q777.73 1365.7 774.258 1368.8 Q770.786 1371.88 764.466 1371.88 Q762.29 1371.88 760.022 1371.51 Q757.777 1371.14 755.369 1370.4 L755.369 1365.7 Q757.453 1366.83 759.675 1367.39 Q761.897 1367.94 764.374 1367.94 Q768.378 1367.94 770.716 1365.84 Q773.054 1363.73 773.054 1360.12 Q773.054 1356.51 770.716 1354.4 Q768.378 1352.29 764.374 1352.29 Q762.499 1352.29 760.624 1352.71 Q758.772 1353.13 756.828 1354.01 L756.828 1336.65 Z" fill="#000000" fill-rule="evenodd" fill-opacity="1" /><path clip-path="url(#clip230)" d="M787.397 1325.16 Q784.614 1325.16 782.996 1327.34 Q781.379 1329.5 781.379 1333.28 Q781.379 1337.06 782.978 1339.24 Q784.595 1341.41 787.397 1341.41 Q790.162 1341.41 791.78 1339.23 Q793.397 1337.04 793.397 1333.28 Q793.397 1329.54 791.78 1327.36 Q790.162 1325.16 787.397 1325.16 M787.397 1322.22 Q791.911 1322.22 794.488 1325.16 Q797.065 1328.09 797.065 1333.28 Q797.065 1338.45 794.488 1341.41 Q791.911 1344.34 787.397 1344.34 Q782.865 1344.34 780.288 1341.41 Q777.73 1338.45 777.73 1333.28 Q777.73 1328.09 780.288 1325.16 Q782.865 1322.22 787.397 1322.22 Z" fill="#000000" fill-rule="evenodd" fill-opacity="1" /><path clip-path="url(#clip230)" d="M494.385 880.767 L502.024 880.767 L502.024 854.401 L493.714 856.068 L493.714 851.809 L501.978 850.142 L506.654 850.142 L506.654 880.767 L514.293 880.767 L514.293 884.702 L494.385 884.702 L494.385 880.767 Z" fill="#000000" fill-rule="evenodd" fill-opacity="1" /><path clip-path="url(#clip230)" d="M533.737 868.29 Q530.404 868.29 528.482 870.073 Q526.584 871.855 526.584 874.98 Q526.584 878.105 528.482 879.887 Q530.404 881.67 533.737 881.67 Q537.07 881.67 538.992 879.887 Q540.913 878.082 540.913 874.98 Q540.913 871.855 538.992 870.073 Q537.093 868.29 533.737 868.29 M529.061 866.299 Q526.052 865.559 524.362 863.498 Q522.695 861.438 522.695 858.475 Q522.695 854.332 525.635 851.924 Q528.598 849.517 533.737 849.517 Q538.899 849.517 541.839 851.924 Q544.779 854.332 544.779 858.475 Q544.779 861.438 543.089 863.498 Q541.422 865.559 538.436 866.299 Q541.816 867.086 543.691 869.378 Q545.589 871.67 545.589 874.98 Q545.589 880.003 542.51 882.688 Q539.455 885.373 533.737 885.373 Q528.019 885.373 524.941 882.688 Q521.885 880.003 521.885 874.98 Q521.885 871.67 523.783 869.378 Q525.681 867.086 529.061 866.299 M527.348 858.915 Q527.348 861.6 529.015 863.105 Q530.705 864.61 533.737 864.61 Q536.746 864.61 538.436 863.105 Q540.149 861.6 540.149 858.915 Q540.149 856.23 538.436 854.725 Q536.746 853.221 533.737 853.221 Q530.705 853.221 529.015 854.725 Q527.348 856.23 527.348 858.915 Z" fill="#000000" fill-rule="evenodd" fill-opacity="1" /><path clip-path="url(#clip230)" d="M563.899 853.221 Q560.288 853.221 558.459 856.786 Q556.653 860.327 556.653 867.457 Q556.653 874.563 558.459 878.128 Q560.288 881.67 563.899 881.67 Q567.533 881.67 569.339 878.128 Q571.167 874.563 571.167 867.457 Q571.167 860.327 569.339 856.786 Q567.533 853.221 563.899 853.221 M563.899 849.517 Q569.709 849.517 572.765 854.124 Q575.843 858.707 575.843 867.457 Q575.843 876.184 572.765 880.79 Q569.709 885.373 563.899 885.373 Q558.089 885.373 555.01 880.79 Q551.954 876.184 551.954 867.457 Q551.954 858.707 555.01 854.124 Q558.089 849.517 563.899 849.517 Z" fill="#000000" fill-rule="evenodd" fill-opacity="1" /><path clip-path="url(#clip230)" d="M585.51 838.653 Q582.727 838.653 581.109 840.835 Q579.492 842.998 579.492 846.778 Q579.492 850.558 581.091 852.74 Q582.708 854.903 585.51 854.903 Q588.275 854.903 589.893 852.721 Q591.51 850.54 591.51 846.778 Q591.51 843.035 589.893 840.854 Q588.275 838.653 585.51 838.653 M585.51 835.719 Q590.024 835.719 592.601 838.653 Q595.178 841.587 595.178 846.778 Q595.178 851.95 592.601 854.903 Q590.024 857.837 585.51 857.837 Q580.978 857.837 578.401 854.903 Q575.843 851.95 575.843 846.778 Q575.843 841.587 578.401 838.653 Q580.978 835.719 585.51 835.719 Z" fill="#000000" fill-rule="evenodd" fill-opacity="1" /><path clip-path="url(#clip230)" d="M696.4 394.263 L704.038 394.263 L704.038 367.897 L695.728 369.564 L695.728 365.305 L703.992 363.638 L708.668 363.638 L708.668 394.263 L716.307 394.263 L716.307 398.198 L696.4 398.198 L696.4 394.263 Z" fill="#000000" fill-rule="evenodd" fill-opacity="1" /><path clip-path="url(#clip230)" d="M739.918 379.564 Q743.274 380.281 745.149 382.55 Q747.047 384.818 747.047 388.152 Q747.047 393.267 743.529 396.068 Q740.01 398.869 733.529 398.869 Q731.353 398.869 729.038 398.429 Q726.747 398.013 724.293 397.156 L724.293 392.642 Q726.237 393.777 728.552 394.355 Q730.867 394.934 733.39 394.934 Q737.788 394.934 740.08 393.198 Q742.395 391.462 742.395 388.152 Q742.395 385.096 740.242 383.383 Q738.112 381.647 734.293 381.647 L730.265 381.647 L730.265 377.805 L734.478 377.805 Q737.927 377.805 739.756 376.439 Q741.585 375.05 741.585 372.457 Q741.585 369.795 739.686 368.383 Q737.811 366.948 734.293 366.948 Q732.372 366.948 730.173 367.365 Q727.973 367.781 725.335 368.661 L725.335 364.494 Q727.997 363.754 730.311 363.383 Q732.649 363.013 734.71 363.013 Q740.034 363.013 743.135 365.443 Q746.237 367.851 746.237 371.971 Q746.237 374.842 744.594 376.832 Q742.95 378.8 739.918 379.564 Z" fill="#000000" fill-rule="evenodd" fill-opacity="1" /><path clip-path="url(#clip230)" d="M755.959 363.638 L774.316 363.638 L774.316 367.573 L760.242 367.573 L760.242 376.045 Q761.26 375.698 762.279 375.536 Q763.297 375.351 764.316 375.351 Q770.103 375.351 773.483 378.522 Q776.862 381.693 776.862 387.11 Q776.862 392.689 773.39 395.791 Q769.918 398.869 763.598 398.869 Q761.422 398.869 759.154 398.499 Q756.909 398.128 754.501 397.388 L754.501 392.689 Q756.584 393.823 758.807 394.379 Q761.029 394.934 763.506 394.934 Q767.51 394.934 769.848 392.828 Q772.186 390.721 772.186 387.11 Q772.186 383.499 769.848 381.392 Q767.51 379.286 763.506 379.286 Q761.631 379.286 759.756 379.703 Q757.904 380.119 755.959 380.999 L755.959 363.638 Z" fill="#000000" fill-rule="evenodd" fill-opacity="1" /><path clip-path="url(#clip230)" d="M786.529 352.149 Q783.746 352.149 782.128 354.331 Q780.511 356.494 780.511 360.274 Q780.511 364.054 782.109 366.236 Q783.727 368.399 786.529 368.399 Q789.294 368.399 790.912 366.217 Q792.529 364.036 792.529 360.274 Q792.529 356.531 790.912 354.35 Q789.294 352.149 786.529 352.149 M786.529 349.215 Q791.043 349.215 793.62 352.149 Q796.197 355.083 796.197 360.274 Q796.197 365.446 793.62 368.399 Q791.043 371.333 786.529 371.333 Q781.997 371.333 779.42 368.399 Q776.862 365.446 776.862 360.274 Q776.862 355.083 779.42 352.149 Q781.997 349.215 786.529 349.215 Z" fill="#000000" fill-rule="evenodd" fill-opacity="1" /><path clip-path="url(#clip230)" d="M1197.93 195.964 L1197.93 191.704 Q1199.69 192.538 1201.49 192.978 Q1203.3 193.417 1205.03 193.417 Q1209.66 193.417 1212.09 190.316 Q1214.55 187.191 1214.89 180.848 Q1213.55 182.839 1211.49 183.904 Q1209.43 184.968 1206.93 184.968 Q1201.75 184.968 1198.71 181.843 Q1195.7 178.695 1195.7 173.256 Q1195.7 167.931 1198.85 164.714 Q1202 161.496 1207.23 161.496 Q1213.23 161.496 1216.38 166.103 Q1219.55 170.686 1219.55 179.436 Q1219.55 187.607 1215.66 192.492 Q1211.79 197.353 1205.24 197.353 Q1203.48 197.353 1201.68 197.005 Q1199.87 196.658 1197.93 195.964 M1207.23 181.311 Q1210.38 181.311 1212.21 179.158 Q1214.06 177.006 1214.06 173.256 Q1214.06 169.529 1212.21 167.376 Q1210.38 165.2 1207.23 165.2 Q1204.08 165.2 1202.23 167.376 Q1200.4 169.529 1200.4 173.256 Q1200.4 177.006 1202.23 179.158 Q1204.08 181.311 1207.23 181.311 Z" fill="#000000" fill-rule="evenodd" fill-opacity="1" /><path clip-path="url(#clip230)" d="M1237.95 165.2 Q1234.34 165.2 1232.51 168.765 Q1230.7 172.306 1230.7 179.436 Q1230.7 186.542 1232.51 190.107 Q1234.34 193.649 1237.95 193.649 Q1241.58 193.649 1243.39 190.107 Q1245.22 186.542 1245.22 179.436 Q1245.22 172.306 1243.39 168.765 Q1241.58 165.2 1237.95 165.2 M1237.95 161.496 Q1243.76 161.496 1246.82 166.103 Q1249.89 170.686 1249.89 179.436 Q1249.89 188.163 1246.82 192.769 Q1243.76 197.353 1237.95 197.353 Q1232.14 197.353 1229.06 192.769 Q1226.01 188.163 1226.01 179.436 Q1226.01 170.686 1229.06 166.103 Q1232.14 161.496 1237.95 161.496 Z" fill="#000000" fill-rule="evenodd" fill-opacity="1" /><path clip-path="url(#clip230)" d="M1259.56 150.632 Q1256.78 150.632 1255.16 152.814 Q1253.54 154.977 1253.54 158.757 Q1253.54 162.538 1255.14 164.719 Q1256.76 166.882 1259.56 166.882 Q1262.33 166.882 1263.94 164.701 Q1265.56 162.519 1265.56 158.757 Q1265.56 155.015 1263.94 152.833 Q1262.33 150.632 1259.56 150.632 M1259.56 147.698 Q1264.08 147.698 1266.65 150.632 Q1269.23 153.566 1269.23 158.757 Q1269.23 163.93 1266.65 166.882 Q1264.08 169.816 1259.56 169.816 Q1255.03 169.816 1252.45 166.882 Q1249.89 163.93 1249.89 158.757 Q1249.89 153.566 1252.45 150.632 Q1255.03 147.698 1259.56 147.698 Z" fill="#000000" fill-rule="evenodd" fill-opacity="1" /><path clip-path="url(#clip230)" d="M1697.97 367.712 L1686.17 386.161 L1697.97 386.161 L1697.97 367.712 M1696.75 363.638 L1702.63 363.638 L1702.63 386.161 L1707.56 386.161 L1707.56 390.05 L1702.63 390.05 L1702.63 398.198 L1697.97 398.198 L1697.97 390.05 L1682.37 390.05 L1682.37 385.536 L1696.75 363.638 Z" fill="#000000" fill-rule="evenodd" fill-opacity="1" /><path clip-path="url(#clip230)" d="M1715.33 363.638 L1733.69 363.638 L1733.69 367.573 L1719.62 367.573 L1719.62 376.045 Q1720.63 375.698 1721.65 375.536 Q1722.67 375.351 1723.69 375.351 Q1729.48 375.351 1732.86 378.522 Q1736.24 381.693 1736.24 387.11 Q1736.24 392.689 1732.76 395.791 Q1729.29 398.869 1722.97 398.869 Q1720.8 398.869 1718.53 398.499 Q1716.28 398.128 1713.88 397.388 L1713.88 392.689 Q1715.96 393.823 1718.18 394.379 Q1720.4 394.934 1722.88 394.934 Q1726.88 394.934 1729.22 392.828 Q1731.56 390.721 1731.56 387.11 Q1731.56 383.499 1729.22 381.392 Q1726.88 379.286 1722.88 379.286 Q1721 379.286 1719.13 379.703 Q1717.28 380.119 1715.33 380.999 L1715.33 363.638 Z" fill="#000000" fill-rule="evenodd" fill-opacity="1" /><path clip-path="url(#clip230)" d="M1745.9 352.149 Q1743.12 352.149 1741.5 354.331 Q1739.88 356.494 1739.88 360.274 Q1739.88 364.054 1741.48 366.236 Q1743.1 368.399 1745.9 368.399 Q1748.67 368.399 1750.29 366.217 Q1751.9 364.036 1751.9 360.274 Q1751.9 356.531 1750.29 354.35 Q1748.67 352.149 1745.9 352.149 M1745.9 349.215 Q1750.42 349.215 1752.99 352.149 Q1755.57 355.083 1755.57 360.274 Q1755.57 365.446 1752.99 368.399 Q1750.42 371.333 1745.9 371.333 Q1741.37 371.333 1738.79 368.399 Q1736.24 365.446 1736.24 360.274 Q1736.24 355.083 1738.79 352.149 Q1741.37 349.215 1745.9 349.215 Z" fill="#000000" fill-rule="evenodd" fill-opacity="1" /><path clip-path="url(#clip230)" d="M1263.74 846.773 Q1260.13 846.773 1258.3 850.338 Q1256.49 853.88 1256.49 861.009 Q1256.49 868.116 1258.3 871.68 Q1260.13 875.222 1263.74 875.222 Q1267.37 875.222 1269.18 871.68 Q1271.01 868.116 1271.01 861.009 Q1271.01 853.88 1269.18 850.338 Q1267.37 846.773 1263.74 846.773 M1263.74 843.069 Q1269.55 843.069 1272.61 847.676 Q1275.68 852.259 1275.68 861.009 Q1275.68 869.736 1272.61 874.342 Q1269.55 878.926 1263.74 878.926 Q1257.93 878.926 1254.85 874.342 Q1251.8 869.736 1251.8 861.009 Q1251.8 852.259 1254.85 847.676 Q1257.93 843.069 1263.74 843.069 Z" fill="#000000" fill-rule="evenodd" fill-opacity="1" /><path clip-path="url(#clip230)" d="M1258.39 733.585 L1274.71 733.585 L1274.71 737.52 L1252.77 737.52 L1252.77 733.585 Q1255.43 730.83 1260.01 726.201 Q1264.62 721.548 1265.8 720.205 Q1268.05 717.682 1268.93 715.946 Q1269.83 714.187 1269.83 712.497 Q1269.83 709.742 1267.88 708.006 Q1265.96 706.27 1262.86 706.27 Q1260.66 706.27 1258.21 707.034 Q1255.78 707.798 1253 709.349 L1253 704.627 Q1255.82 703.493 1258.28 702.914 Q1260.73 702.335 1262.77 702.335 Q1268.14 702.335 1271.33 705.02 Q1274.53 707.705 1274.53 712.196 Q1274.53 714.326 1273.72 716.247 Q1272.93 718.145 1270.82 720.738 Q1270.24 721.409 1267.14 724.627 Q1264.04 727.821 1258.39 733.585 Z" fill="#000000" fill-rule="evenodd" fill-opacity="1" /><path clip-path="url(#clip230)" d="M1266.75 566.3 L1254.94 584.749 L1266.75 584.749 L1266.75 566.3 M1265.52 562.226 L1271.4 562.226 L1271.4 584.749 L1276.33 584.749 L1276.33 588.638 L1271.4 588.638 L1271.4 596.786 L1266.75 596.786 L1266.75 588.638 L1251.15 588.638 L1251.15 584.124 L1265.52 562.226 Z" fill="#000000" fill-rule="evenodd" fill-opacity="1" /><path clip-path="url(#clip230)" d="M1264.15 436.908 Q1261 436.908 1259.15 439.061 Q1257.32 441.214 1257.32 444.964 Q1257.32 448.69 1259.15 450.866 Q1261 453.019 1264.15 453.019 Q1267.29 453.019 1269.12 450.866 Q1270.97 448.69 1270.97 444.964 Q1270.97 441.214 1269.12 439.061 Q1267.29 436.908 1264.15 436.908 M1273.43 422.255 L1273.43 426.515 Q1271.67 425.681 1269.86 425.241 Q1268.08 424.802 1266.32 424.802 Q1261.69 424.802 1259.24 427.927 Q1256.81 431.052 1256.46 437.371 Q1257.83 435.357 1259.89 434.292 Q1261.95 433.204 1264.42 433.204 Q1269.63 433.204 1272.64 436.376 Q1275.67 439.524 1275.67 444.964 Q1275.67 450.288 1272.52 453.505 Q1269.38 456.723 1264.15 456.723 Q1258.15 456.723 1254.98 452.139 Q1251.81 447.533 1251.81 438.806 Q1251.81 430.612 1255.7 425.751 Q1259.59 420.866 1266.14 420.866 Q1267.9 420.866 1269.68 421.214 Q1271.48 421.561 1273.43 422.255 Z" fill="#000000" fill-rule="evenodd" fill-opacity="1" /><path clip-path="url(#clip230)" d="M1263.74 298.905 Q1260.41 298.905 1258.49 300.688 Q1256.59 302.47 1256.59 305.595 Q1256.59 308.72 1258.49 310.502 Q1260.41 312.285 1263.74 312.285 Q1267.07 312.285 1268.99 310.502 Q1270.92 308.697 1270.92 305.595 Q1270.92 302.47 1268.99 300.688 Q1267.1 298.905 1263.74 298.905 M1259.06 296.914 Q1256.06 296.174 1254.37 294.113 Q1252.7 292.053 1252.7 289.09 Q1252.7 284.947 1255.64 282.539 Q1258.6 280.132 1263.74 280.132 Q1268.9 280.132 1271.84 282.539 Q1274.78 284.947 1274.78 289.09 Q1274.78 292.053 1273.09 294.113 Q1271.43 296.174 1268.44 296.914 Q1271.82 297.701 1273.69 299.993 Q1275.59 302.285 1275.59 305.595 Q1275.59 310.618 1272.51 313.303 Q1269.46 315.988 1263.74 315.988 Q1258.02 315.988 1254.94 313.303 Q1251.89 310.618 1251.89 305.595 Q1251.89 302.285 1253.79 299.993 Q1255.68 297.701 1259.06 296.914 M1257.35 289.53 Q1257.35 292.215 1259.02 293.72 Q1260.71 295.225 1263.74 295.225 Q1266.75 295.225 1268.44 293.72 Q1270.15 292.215 1270.15 289.53 Q1270.15 286.845 1268.44 285.34 Q1266.75 283.836 1263.74 283.836 Q1260.71 283.836 1259.02 285.34 Q1257.35 286.845 1257.35 289.53 Z" fill="#000000" fill-rule="evenodd" fill-opacity="1" /><path clip-path="url(#clip230)" d="M895.533 11.0023 Q905.498 11.0023 911.817 15.2557 Q918.137 19.4686 918.137 26.6793 Q918.137 31.7024 915.26 35.1862 Q912.384 38.6294 907.078 39.9662 Q912.951 41.222 916.233 45.1919 Q919.554 49.1618 919.554 54.9951 Q919.554 64.3122 912.344 69.0517 Q905.174 73.7508 895.533 73.7508 Q890.59 73.7508 884.838 72.414 Q879.086 71.0772 877.304 69.9429 L877.304 61.517 Q883.501 65.1223 886.904 66.0135 Q890.347 66.8642 895.371 66.8642 Q902.986 66.8642 907.199 63.9476 Q911.412 61.0309 911.412 54.9951 Q911.412 49.6479 907.645 46.6502 Q903.918 43.612 896.019 43.612 L887.755 43.612 L887.755 36.8875 L896.343 36.8875 Q903.594 36.8875 906.794 34.4975 Q909.994 32.067 909.994 27.5299 Q909.994 22.8714 906.673 20.4004 Q903.391 17.8888 895.371 17.8888 Q889.942 17.8888 888.079 18.3749 Q886.216 18.861 877.911 21.9802 L877.911 13.9999 Q882.489 12.3796 887.269 11.6909 Q892.049 11.0023 895.533 11.0023 Z" fill="#000000" fill-rule="evenodd" fill-opacity="1" /><path clip-path="url(#clip230)" d="M953.461 49.7694 Q944.427 49.7694 940.943 51.8354 Q937.459 53.9013 937.459 58.8839 Q937.459 62.8538 940.052 65.2034 Q942.685 67.5124 947.182 67.5124 Q953.379 67.5124 957.106 63.1374 Q960.874 58.7219 960.874 51.4303 L960.874 49.7694 L953.461 49.7694 M968.327 46.6907 L968.327 72.576 L960.874 72.576 L960.874 65.6895 Q958.322 69.8214 954.514 71.8063 Q950.706 73.7508 945.197 73.7508 Q938.229 73.7508 934.097 69.8619 Q930.006 65.9325 930.006 59.3701 Q930.006 51.7138 935.11 47.825 Q940.255 43.9361 950.422 43.9361 L960.874 43.9361 L960.874 43.2069 Q960.874 38.0623 957.471 35.2672 Q954.109 32.4315 947.992 32.4315 Q944.103 32.4315 940.417 33.3632 Q936.73 34.295 933.328 36.1584 L933.328 29.2718 Q937.419 27.692 941.267 26.9223 Q945.116 26.1121 948.761 26.1121 Q958.605 26.1121 963.466 31.2163 Q968.327 36.3204 968.327 46.6907 Z" fill="#000000" fill-rule="evenodd" fill-opacity="1" /><path clip-path="url(#clip230)" d="M993.808 66.6212 L1015.44 66.6212 L1015.44 33.1607 L999.762 33.1607 L999.762 38.832 Q999.762 55.5217 994.982 64.4337 L993.808 66.6212 M982.992 66.6212 Q986.678 65.0008 988.298 61.5575 Q992.268 53.0101 992.268 35.7938 L992.268 27.2059 L1022.93 27.2059 L1022.93 66.6212 L1028.89 66.6212 L1028.89 84.0401 L1022.93 84.0401 L1022.93 72.576 L986.151 72.576 L986.151 84.0401 L980.196 84.0401 L980.196 66.6212 L982.992 66.6212 Z" fill="#000000" fill-rule="evenodd" fill-opacity="1" /><path clip-path="url(#clip230)" d="M1061.66 49.7694 Q1052.63 49.7694 1049.14 51.8354 Q1045.66 53.9013 1045.66 58.8839 Q1045.66 62.8538 1048.25 65.2034 Q1050.88 67.5124 1055.38 67.5124 Q1061.58 67.5124 1065.31 63.1374 Q1069.07 58.7219 1069.07 51.4303 L1069.07 49.7694 L1061.66 49.7694 M1076.53 46.6907 L1076.53 72.576 L1069.07 72.576 L1069.07 65.6895 Q1066.52 69.8214 1062.71 71.8063 Q1058.91 73.7508 1053.4 73.7508 Q1046.43 73.7508 1042.3 69.8619 Q1038.21 65.9325 1038.21 59.3701 Q1038.21 51.7138 1043.31 47.825 Q1048.45 43.9361 1058.62 43.9361 L1069.07 43.9361 L1069.07 43.2069 Q1069.07 38.0623 1065.67 35.2672 Q1062.31 32.4315 1056.19 32.4315 Q1052.3 32.4315 1048.62 33.3632 Q1044.93 34.295 1041.53 36.1584 L1041.53 29.2718 Q1045.62 27.692 1049.47 26.9223 Q1053.32 26.1121 1056.96 26.1121 Q1066.8 26.1121 1071.67 31.2163 Q1076.53 36.3204 1076.53 46.6907 Z" fill="#000000" fill-rule="evenodd" fill-opacity="1" /><path clip-path="url(#clip230)" d="M1118.09 72.576 L1118.09 53.4962 L1104.19 53.4962 Q1098 53.4962 1093.86 49.6479 Q1090.14 46.1641 1090.14 38.7104 L1090.14 27.2059 L1097.59 27.2059 L1097.59 38.0218 Q1097.59 42.7613 1099.7 45.1514 Q1101.85 47.5414 1106.06 47.5414 L1118.09 47.5414 L1118.09 27.2059 L1125.54 27.2059 L1125.54 72.576 L1118.09 72.576 Z" fill="#000000" fill-rule="evenodd" fill-opacity="1" /><path clip-path="url(#clip230)" d="M1161.51 49.7694 Q1152.48 49.7694 1149 51.8354 Q1145.51 53.9013 1145.51 58.8839 Q1145.51 62.8538 1148.11 65.2034 Q1150.74 67.5124 1155.24 67.5124 Q1161.43 67.5124 1165.16 63.1374 Q1168.93 58.7219 1168.93 51.4303 L1168.93 49.7694 L1161.51 49.7694 M1176.38 46.6907 L1176.38 72.576 L1168.93 72.576 L1168.93 65.6895 Q1166.38 69.8214 1162.57 71.8063 Q1158.76 73.7508 1153.25 73.7508 Q1146.28 73.7508 1142.15 69.8619 Q1138.06 65.9325 1138.06 59.3701 Q1138.06 51.7138 1143.16 47.825 Q1148.31 43.9361 1158.48 43.9361 L1168.93 43.9361 L1168.93 43.2069 Q1168.93 38.0623 1165.53 35.2672 Q1162.16 32.4315 1156.05 32.4315 Q1152.16 32.4315 1148.47 33.3632 Q1144.78 34.295 1141.38 36.1584 L1141.38 29.2718 Q1145.47 27.692 1149.32 26.9223 Q1153.17 26.1121 1156.82 26.1121 Q1166.66 26.1121 1171.52 31.2163 Q1176.38 36.3204 1176.38 46.6907 Z" fill="#000000" fill-rule="evenodd" fill-opacity="1" /><path clip-path="url(#clip230)" d="M1235.69 32.4315 Q1229.69 32.4315 1226.21 37.1306 Q1222.72 41.7891 1222.72 49.9314 Q1222.72 58.0738 1226.17 62.7728 Q1229.65 67.4314 1235.69 67.4314 Q1241.64 67.4314 1245.13 62.7323 Q1248.61 58.0333 1248.61 49.9314 Q1248.61 41.8701 1245.13 37.1711 Q1241.64 32.4315 1235.69 32.4315 M1235.69 26.1121 Q1245.41 26.1121 1250.96 32.4315 Q1256.51 38.7509 1256.51 49.9314 Q1256.51 61.0714 1250.96 67.4314 Q1245.41 73.7508 1235.69 73.7508 Q1225.92 73.7508 1220.37 67.4314 Q1214.87 61.0714 1214.87 49.9314 Q1214.87 38.7509 1220.37 32.4315 Q1225.92 26.1121 1235.69 26.1121 Z" fill="#000000" fill-rule="evenodd" fill-opacity="1" /><path clip-path="url(#clip230)" d="M1334.12 27.2059 L1334.12 72.576 L1326.63 72.576 L1326.63 33.1607 L1302.45 33.1607 L1302.45 72.576 L1294.95 72.576 L1294.95 27.2059 L1334.12 27.2059 Z" fill="#000000" fill-rule="evenodd" fill-opacity="1" /><path clip-path="url(#clip230)" d="M1367.06 32.4315 Q1361.06 32.4315 1357.58 37.1306 Q1354.09 41.7891 1354.09 49.9314 Q1354.09 58.0738 1357.54 62.7728 Q1361.02 67.4314 1367.06 67.4314 Q1373.01 67.4314 1376.5 62.7323 Q1379.98 58.0333 1379.98 49.9314 Q1379.98 41.8701 1376.5 37.1711 Q1373.01 32.4315 1367.06 32.4315 M1367.06 26.1121 Q1376.78 26.1121 1382.33 32.4315 Q1387.88 38.7509 1387.88 49.9314 Q1387.88 61.0714 1382.33 67.4314 Q1376.78 73.7508 1367.06 73.7508 Q1357.3 73.7508 1351.75 67.4314 Q1346.24 61.0714 1346.24 49.9314 Q1346.24 38.7509 1351.75 32.4315 Q1357.3 26.1121 1367.06 26.1121 Z" fill="#000000" fill-rule="evenodd" fill-opacity="1" /><path clip-path="url(#clip230)" d="M1399.95 72.576 L1399.95 27.2059 L1431.95 27.2059 L1431.95 33.1607 L1407.45 33.1607 L1407.45 72.576 L1399.95 72.576 Z" fill="#000000" fill-rule="evenodd" fill-opacity="1" /><path clip-path="url(#clip230)" d="M1461.4 32.4315 Q1455.41 32.4315 1451.92 37.1306 Q1448.44 41.7891 1448.44 49.9314 Q1448.44 58.0738 1451.88 62.7728 Q1455.37 67.4314 1461.4 67.4314 Q1467.36 67.4314 1470.84 62.7323 Q1474.33 58.0333 1474.33 49.9314 Q1474.33 41.8701 1470.84 37.1711 Q1467.36 32.4315 1461.4 32.4315 M1461.4 26.1121 Q1471.13 26.1121 1476.68 32.4315 Q1482.23 38.7509 1482.23 49.9314 Q1482.23 61.0714 1476.68 67.4314 Q1471.13 73.7508 1461.4 73.7508 Q1451.64 73.7508 1446.09 67.4314 Q1440.58 61.0714 1440.58 49.9314 Q1440.58 38.7509 1446.09 32.4315 Q1451.64 26.1121 1461.4 26.1121 Z" fill="#000000" fill-rule="evenodd" fill-opacity="1" /><path clip-path="url(#clip230)" d="M1494.3 27.2059 L1501.79 27.2059 L1501.79 45.7185 L1525.97 45.7185 L1525.97 27.2059 L1533.47 27.2059 L1533.47 72.576 L1525.97 72.576 L1525.97 51.6733 L1501.79 51.6733 L1501.79 72.576 L1494.3 72.576 L1494.3 27.2059 Z" fill="#000000" fill-rule="evenodd" fill-opacity="1" /><path clip-path="url(#clip230)" d="M1587.63 48.0275 L1587.63 51.6733 L1553.36 51.6733 Q1553.85 59.3701 1557.98 63.421 Q1562.15 67.4314 1569.56 67.4314 Q1573.86 67.4314 1577.87 66.3781 Q1581.92 65.3249 1585.89 63.2184 L1585.89 70.267 Q1581.88 71.9684 1577.66 72.8596 Q1573.45 73.7508 1569.12 73.7508 Q1558.26 73.7508 1551.9 67.4314 Q1545.58 61.1119 1545.58 50.3365 Q1545.58 39.1965 1551.58 32.6746 Q1557.61 26.1121 1567.82 26.1121 Q1576.98 26.1121 1582.28 32.0264 Q1587.63 37.9003 1587.63 48.0275 M1580.18 45.84 Q1580.09 39.7232 1576.73 36.0774 Q1573.41 32.4315 1567.9 32.4315 Q1561.66 32.4315 1557.9 35.9558 Q1554.17 39.4801 1553.6 45.8805 L1580.18 45.84 Z" fill="#000000" fill-rule="evenodd" fill-opacity="1" /><polyline clip-path="url(#clip233)" style="stroke:#008000; stroke-linecap:round; stroke-linejoin:round; stroke-width:4; stroke-opacity:1; fill:none" points="1449.24,860.974 1449.26,860.758 1449.38,858.589 1449.68,847.484 1449.41,836.343 1448.56,825.195 1447.14,814.068 1445.15,802.994 1442.59,792.002 1439.45,781.121 1435.75,770.381 1431.49,759.811 1426.68,749.44 1421.33,739.298 1415.45,729.412 1409.05,719.81 1402.15,710.52 1394.76,701.567 1386.89,692.979 1378.57,684.779 1369.81,676.992 1360.64,669.642 1351.08,662.749 1341.14,656.336 1330.86,650.421 1320.26,645.025 1309.36,640.163 1298.19,635.853 1286.79,632.109 1275.17,628.944 1263.37,626.371 1251.42,624.398 1239.35,623.036 1227.19,622.291 1214.97,622.169 1202.72,622.674 1190.48,623.809 1178.28,625.573 1166.16,627.966 1154.13,630.986 1142.24,634.627 1130.52,638.885 1119,643.75 1107.71,649.215 1096.68,655.267 1085.95,661.894 1075.54,669.082 1065.48,676.815 1055.81,685.075 1046.54,693.845 1037.71,703.103 1029.35,712.827 1021.46,722.996 1014.09,733.583 1007.25,744.565 1000.97,755.913 995.257,767.6 990.135,779.597 985.622,791.874 981.733,804.4 978.48,817.143 975.876,830.071 973.932,843.151 972.656,856.349 972.055,869.63 972.134,882.961 972.897,896.306 974.346,909.631 976.48,922.899 979.297,936.075 982.794,949.125 986.964,962.014 991.801,974.705 997.296,987.165 1003.44,999.361 1010.21,1011.26 1017.6,1022.82 1025.6,1034.02 1034.18,1044.83 1043.32,1055.21 1053.01,1065.13 1063.22,1074.57 1073.93,1083.5 1085.11,1091.89 1096.73,1099.71 1108.77,1106.96 1121.19,1113.59 1133.97,1119.59 1147.07,1124.95 1160.47,1129.64 1174.12,1133.65 1187.99,1136.97 1202.05,1139.58 1216.26,1141.47 1230.58,1142.63 1244.98,1143.07 1259.42,1142.76 1273.86,1141.72 1288.27,1139.93 1302.6,1137.4 1316.81,1134.14 1330.88,1130.14 1344.75,1125.42 1358.4,1119.98 1371.79,1113.83 1384.88,1107 1397.63,1099.48 1410.01,1091.3 1421.98,1082.48 1433.52,1073.04 1444.58,1062.99 1455.15,1052.37 1465.17,1041.19 1474.64,1029.49 1483.52,1017.29 1491.78,1004.62 1499.4,991.516 1506.36,978.006 1512.63,964.127 1518.2,949.911 1523.05,935.395 1527.16,920.616 1530.51,905.611 1533.1,890.419 1534.91,875.079 1535.94,859.631 1536.18,844.114 1535.63,828.569 1534.27,813.038 1532.12,797.56 1529.18,782.177 1525.44,766.93 1520.92,751.86 1515.63,737.006 1509.57,722.41 1502.75,708.11 1495.19,694.145 1486.92,680.554 1477.94,667.374 1468.27,654.642 1457.94,642.393 1446.98,630.662 1435.41,619.481 1423.25,608.883 1410.54,598.898 1397.3,589.555 1383.58,580.881 1369.4,572.902 1354.79,565.643 1339.81,559.124 1324.47,553.368 1308.83,548.392 1292.92,544.213 1276.78,540.844 1260.45,538.3 1243.98,536.589 1227.41,535.72 1210.78,535.7 1194.13,536.53 1177.52,538.214 1160.97,540.75 1144.54,544.136 1128.27,548.365 1112.21,553.432 1096.39,559.325 1080.86,566.032 1065.66,573.541 1050.83,581.834 1036.41,590.892 1022.45,600.696 1008.98,611.223 996.036,622.448 983.657,634.344 971.878,646.883 960.731,660.036 950.249,673.769 940.462,688.049 931.399,702.841 923.086,718.109 915.548,733.813 908.809,749.916 902.889,766.375 897.808,783.15 893.581,800.197 890.224,817.473 887.749,834.933 886.166,852.533 885.483,870.227 885.705,887.968 886.835,905.71 888.875,923.408 891.821,941.013 895.671,958.48 900.418,975.762 906.053,992.813 912.564,1009.59 919.939,1026.04 928.161,1042.13 937.211,1057.8 947.07,1073.03 957.715,1087.76 969.121,1101.95 981.261,1115.57 994.107,1128.58 1007.63,1140.93 1021.79,1152.61 1036.55,1163.57 1051.89,1173.77 1067.76,1183.2 1084.12,1191.83 1100.94,1199.62 1118.16,1206.56 1135.75,1212.62 1153.66,1217.78 1171.85,1222.03 1190.26,1225.35 1208.86,1227.73 1227.59,1229.16 1246.4,1229.63 1265.25,1229.14 1284.08,1227.69 1302.85,1225.27 1321.51,1221.89 1340.01,1217.55 1358.29,1212.26 1376.32,1206.04 1394.04,1198.88 1411.4,1190.82 1428.36,1181.87 1444.86,1172.04 1460.88,1161.36 1476.36,1149.86 1491.26,1137.55 1505.53,1124.48 1519.15,1110.67 1532.07,1096.16 1544.25,1080.98 1555.66,1065.16 1566.27,1048.76 1576.04,1031.8 1584.95,1014.33 1592.97,996.402 1600.08,978.05 1606.26,959.326 1611.48,940.276 1615.72,920.949 1618.98,901.396 1621.24,881.665 1622.5,861.81 1622.73,841.88 1621.95,821.928 1620.15,802.006 1617.33,782.167 1613.49,762.463 1608.64,742.946 1602.79,723.667 1595.95,704.679 1588.13,686.032 1579.36,667.775 1569.65,649.959 1559.03,632.632 1547.51,615.84 1535.13,599.63 1521.91,584.045 1507.89,569.13 1493.11,554.925 1477.58,541.471 1461.37,528.805 1444.5,516.963 1427.01,505.978 1408.96,495.884 1390.38,486.708 1371.32,478.479 1351.84,471.222 1331.97,464.958 1311.78,459.708 1291.31,455.488 1270.62,452.314 1249.75,450.197 1228.77,449.146 1207.73,449.168 1186.68,450.267 1165.67,452.443 1144.77,455.694 1124.03,460.015 1103.5,465.399 1083.24,471.835 1063.3,479.31 1043.74,487.807 1024.6,497.309 1005.94,507.793 987.81,519.235 970.259,531.608 953.335,544.884 937.083,559.03 921.549,574.013 906.776,589.795 892.805,606.339 879.675,623.602 867.423,641.544 856.085,660.118 845.693,679.278 836.277,698.977 827.866,719.164 820.484,739.787 814.155,760.795 808.897,782.134 804.73,803.748 801.666,825.583 799.719,847.581 798.895,869.686 799.202,891.84 800.642,913.985 803.215,936.063 806.918,958.017 811.744,979.788 817.686,1001.32 824.73,1022.55 832.862,1043.43 842.065,1063.9 852.317,1083.91 863.595,1103.39 875.872,1122.31 889.121,1140.6 903.309,1158.22 918.401,1175.12 934.363,1191.26 951.153,1206.58 968.732,1221.04 987.055,1234.62 1006.08,1247.25 1025.75,1258.92 1046.03,1269.59 1066.85,1279.22 1088.18,1287.79 1109.94,1295.27 1132.1,1301.64 1154.59,1306.88 1177.35,1310.97 1200.32,1313.9 1223.45,1315.65 1246.68,1316.23 1269.94,1315.61 1293.17,1313.8 1316.32,1310.81 1339.32,1306.63 1362.11,1301.28 1384.63,1294.75 1406.83,1287.08 1428.63,1278.27 1450,1268.34 1470.85,1257.32 1491.15,1245.22 1510.84,1232.09 1529.86,1217.95 1548.15,1202.83 1565.68,1186.78 1582.4,1169.82 1598.24,1152.01 1613.19,1133.38 1627.18,1113.99 1640.18,1093.88 1652.16,1073.09 1663.07,1051.7 1672.9,1029.74 1681.6,1007.27 1689.16,984.352 1695.55,961.046 1700.74,937.408 1704.73,913.501 1707.5,889.386 1709.03,865.125 1709.33,840.782 1708.38,816.419 1706.18,792.101 1702.74,767.891 1698.06,743.854 1692.16,720.051 1685.03,696.547 1676.7,673.403 1667.19,650.681 1656.51,628.443 1644.7,606.747 1631.78,585.651 1617.77,565.213 1602.72,545.489 1586.66,526.531 1569.62,508.391 1551.66,491.12 1532.81,474.765 1513.12,459.371 1492.65,444.982 1471.43,431.637 1449.53,419.376 1427,408.232 1403.9,398.239 1380.28,389.425 1356.22,381.818 1331.75,375.44 1306.97,370.312 1281.91,366.451 1256.66,363.87 1231.27,362.579 1205.81,362.587 1180.35,363.895 1154.95,366.505 1129.69,370.414 1104.62,375.614 1079.82,382.097 1055.34,389.848 1031.26,398.851 1007.64,409.085 984.536,420.528 962.016,433.153 940.141,446.93 918.967,461.826 898.553,477.806 878.955,494.83 860.225,512.858 842.415,531.844 825.575,551.743 809.75,572.503 794.986,594.074 781.323,616.4 768.8,639.427 757.453,663.095 747.316,687.345 738.417,712.114 730.784,737.339 724.44,762.956 719.405,788.899 715.696,815.101 713.325,841.493 712.304,868.008 712.637,894.576 714.329,921.129 717.378,947.596 721.779,973.908 727.526,999.997 734.607,1025.79 743.006,1051.23 752.705,1076.23 763.683,1100.75 775.914,1124.7 789.369,1148.02 804.018,1170.66 819.823,1192.55 836.748,1213.64 854.751,1233.86 873.787,1253.16 893.811,1271.49 914.771,1288.79 936.616,1305.02 959.291,1320.14 982.739,1334.1 1006.9,1346.86 1031.72,1358.39 1057.12,1368.64 1083.05,1377.6 1109.43,1385.24 1136.21,1391.52 1163.3,1396.44 1190.65,1399.97 1218.18,1402.11 1245.82,1402.83 1273.49,1402.15 1301.13,1400.05 1328.66,1396.54 1356.02,1391.62 1383.12,1385.3 1409.89,1377.6 1436.28,1368.53 1462.2,1358.12 1487.58,1346.37 1512.37,1333.33 1536.49,1319.03 1559.87,1303.49 1582.46,1286.76 1604.2,1268.87 1625.02,1249.87 1644.87,1229.81 1663.7,1208.74 1681.44,1186.7 1698.06,1163.76 1713.51,1139.97 1727.74,1115.39 1740.72,1090.09 1752.4,1064.12 1762.75,1037.56 1771.74,1010.47 1779.35,982.923 1785.56,954.986 1790.33,926.735 1793.66,898.241 1795.54,869.578 1795.94,840.821 1794.88,812.045 1792.35,783.324 1788.35,754.735 1782.9,726.352 1775.99,698.249 1767.64,670.502 1760.1,649.03 "/>
<polyline clip-path="url(#clip233)" style="stroke:#ff0000; stroke-linecap:round; stroke-linejoin:round; stroke-width:4; stroke-opacity:1; fill:none" points="1232.47,860.974 950.998,373.456 "/>
<polyline clip-path="url(#clip233)" style="stroke:#ff0000; stroke-linecap:round; stroke-linejoin:round; stroke-width:4; stroke-opacity:1; fill:none" points="1232.47,860.974 950.998,373.456 "/>
</svg>
