<?xml version="1.0" encoding="utf-8"?>
<svg xmlns="http://www.w3.org/2000/svg" xmlns:xlink="http://www.w3.org/1999/xlink" width="600" height="400" viewBox="0 0 2400 1600">
<defs>
  <clipPath id="clip910">
    <rect x="0" y="0" width="2400" height="1600"/>
  </clipPath>
</defs>
<path clip-path="url(#clip910)" d="M0 1600 L2400 1600 L2400 0 L0 0  Z" fill="#ffffff" fill-rule="evenodd" fill-opacity="1"/>
<defs>
  <clipPath id="clip911">
    <rect x="480" y="0" width="1681" height="1600"/>
  </clipPath>
</defs>
<path clip-path="url(#clip910)" d="M184.191 1486.45 L2352.76 1486.45 L2352.76 123.472 L184.191 123.472  Z" fill="#ffffff" fill-rule="evenodd" fill-opacity="1"/>
<defs>
  <clipPath id="clip912">
    <rect x="184" y="123" width="2170" height="1364"/>
  </clipPath>
</defs>
<defs>
  <clipPath id="clip913">
    <rect x="641" y="231" width="1256" height="1256"/>
  </clipPath>
</defs>
<polyline clip-path="url(#clip913)" style="stroke:#000000; stroke-linecap:round; stroke-linejoin:round; stroke-width:2; stroke-opacity:0.1; fill:none" points="1895.75,859.174 1268.47,859.174 "/>
<polyline clip-path="url(#clip913)" style="stroke:#000000; stroke-linecap:round; stroke-linejoin:round; stroke-width:2; stroke-opacity:0.1; fill:none" points="1712.02,1302.72 1268.47,859.174 "/>
<polyline clip-path="url(#clip913)" style="stroke:#000000; stroke-linecap:round; stroke-linejoin:round; stroke-width:2; stroke-opacity:0.1; fill:none" points="1268.47,1486.45 1268.47,859.174 "/>
<polyline clip-path="url(#clip913)" style="stroke:#000000; stroke-linecap:round; stroke-linejoin:round; stroke-width:2; stroke-opacity:0.1; fill:none" points="824.924,1302.72 1268.47,859.174 "/>
<polyline clip-path="url(#clip913)" style="stroke:#000000; stroke-linecap:round; stroke-linejoin:round; stroke-width:2; stroke-opacity:0.1; fill:none" points="641.2,859.174 1268.47,859.174 "/>
<polyline clip-path="url(#clip913)" style="stroke:#000000; stroke-linecap:round; stroke-linejoin:round; stroke-width:2; stroke-opacity:0.1; fill:none" points="824.924,415.625 1268.47,859.174 "/>
<polyline clip-path="url(#clip913)" style="stroke:#000000; stroke-linecap:round; stroke-linejoin:round; stroke-width:2; stroke-opacity:0.1; fill:none" points="1268.47,231.9 1268.47,859.174 "/>
<polyline clip-path="url(#clip913)" style="stroke:#000000; stroke-linecap:round; stroke-linejoin:round; stroke-width:2; stroke-opacity:0.1; fill:none" points="1712.02,415.625 1268.47,859.174 "/>
<polyline clip-path="url(#clip913)" style="stroke:#000000; stroke-linecap:round; stroke-linejoin:round; stroke-width:2; stroke-opacity:0.1; fill:none" points="1268.47,859.174 1268.47,859.174 "/>
<polyline clip-path="url(#clip913)" style="stroke:#000000; stroke-linecap:round; stroke-linejoin:round; stroke-width:2; stroke-opacity:0.1; fill:none" points="1417.79,859.174 1417.77,856.568 1417.7,853.963 1417.59,851.359 1417.43,848.758 1417.22,846.16 1416.97,843.566 1416.68,840.977 1416.34,838.393 1415.95,835.816 1415.52,833.246 1415.05,830.683 1414.53,828.129 1413.96,825.585 1413.35,823.051 1412.7,820.528 1412.01,818.017 1411.27,815.518 1410.48,813.033 1409.66,810.561 1408.79,808.105 1407.87,805.664 1406.92,803.239 1405.92,800.831 1404.88,798.441 1403.8,796.07 1402.68,793.718 1401.52,791.386 1400.31,789.074 1399.07,786.784 1397.79,784.516 1396.46,782.27 1395.1,780.048 1393.7,777.85 1392.26,775.677 1390.79,773.529 1389.27,771.408 1387.72,769.313 1386.14,767.245 1384.51,765.206 1382.86,763.195 1381.16,761.213 1379.44,759.262 1377.68,757.34 1375.88,755.45 1374.06,753.591 1372.2,751.764 1370.31,749.971 1368.39,748.21 1366.43,746.483 1364.45,744.791 1362.44,743.133 1360.4,741.511 1358.33,739.924 1356.24,738.374 1354.12,736.861 1351.97,735.385 1349.8,733.946 1347.6,732.546 1345.38,731.184 1343.13,729.862 1340.86,728.579 1338.57,727.335 1336.26,726.132 1333.93,724.969 1331.58,723.847 1329.21,722.766 1326.82,721.727 1324.41,720.73 1321.98,719.775 1319.54,718.862 1317.09,717.992 1314.61,717.165 1312.13,716.382 1309.63,715.641 1307.12,714.945 1304.6,714.292 1302.06,713.684 1299.52,713.12 1296.96,712.6 1294.4,712.126 1291.83,711.695 1289.25,711.31 1286.67,710.97 1284.08,710.675 1281.49,710.425 1278.89,710.221 1276.29,710.062 1273.68,709.948 1271.08,709.88 1268.47,709.857 1265.87,709.88 1263.26,709.948 1260.66,710.062 1258.06,710.221 1255.46,710.425 1252.87,710.675 1250.28,710.97 1247.69,711.31 1245.11,711.695 1242.54,712.126 1239.98,712.6 1237.43,713.12 1234.88,713.684 1232.35,714.292 1229.83,714.945 1227.32,715.641 1224.82,716.382 1222.33,717.165 1219.86,717.992 1217.4,718.862 1214.96,719.775 1212.54,720.73 1210.13,721.727 1207.74,722.766 1205.37,723.847 1203.02,724.969 1200.68,726.132 1198.37,727.335 1196.08,728.579 1193.81,729.862 1191.57,731.184 1189.35,732.546 1187.15,733.946 1184.98,735.385 1182.83,736.861 1180.71,738.374 1178.61,739.924 1176.54,741.511 1174.51,743.133 1172.49,744.791 1170.51,746.483 1168.56,748.21 1166.64,749.971 1164.75,751.764 1162.89,753.591 1161.06,755.45 1159.27,757.34 1157.51,759.262 1155.78,761.213 1154.09,763.195 1152.43,765.206 1150.81,767.245 1149.22,769.313 1147.67,771.408 1146.16,773.529 1144.68,775.677 1143.25,777.85 1141.85,780.048 1140.48,782.27 1139.16,784.516 1137.88,786.784 1136.63,789.074 1135.43,791.386 1134.27,793.718 1133.15,796.07 1132.07,798.441 1131.03,800.831 1130.03,803.239 1129.07,805.664 1128.16,808.105 1127.29,810.561 1126.46,813.033 1125.68,815.518 1124.94,818.017 1124.24,820.528 1123.59,823.051 1122.98,825.585 1122.42,828.129 1121.9,830.683 1121.42,833.246 1120.99,835.816 1120.61,838.393 1120.27,840.977 1119.97,843.566 1119.72,846.16 1119.52,848.758 1119.36,851.359 1119.25,853.963 1119.18,856.568 1119.16,859.174 1119.18,861.78 1119.25,864.385 1119.36,866.989 1119.52,869.59 1119.72,872.188 1119.97,874.782 1120.27,877.371 1120.61,879.955 1120.99,882.532 1121.42,885.103 1121.9,887.665 1122.42,890.219 1122.98,892.763 1123.59,895.297 1124.24,897.82 1124.94,900.331 1125.68,902.83 1126.46,905.316 1127.29,907.787 1128.16,910.244 1129.07,912.685 1130.03,915.109 1131.03,917.517 1132.07,919.907 1133.15,922.278 1134.27,924.63 1135.43,926.963 1136.63,929.274 1137.88,931.564 1139.16,933.833 1140.48,936.078 1141.85,938.3 1143.25,940.498 1144.68,942.671 1146.16,944.819 1147.67,946.94 1149.22,949.035 1150.81,951.103 1152.43,953.142 1154.09,955.153 1155.78,957.135 1157.51,959.087 1159.27,961.008 1161.06,962.898 1162.89,964.757 1164.75,966.584 1166.64,968.378 1168.56,970.138 1170.51,971.865 1172.49,973.558 1174.51,975.215 1176.54,976.838 1178.61,978.424 1180.71,979.974 1182.83,981.487 1184.98,982.964 1187.15,984.402 1189.35,985.802 1191.57,987.164 1193.81,988.486 1196.08,989.77 1198.37,991.013 1200.68,992.217 1203.02,993.379 1205.37,994.501 1207.74,995.582 1210.13,996.621 1212.54,997.618 1214.96,998.574 1217.4,999.486 1219.86,1000.36 1222.33,1001.18 1224.82,1001.97 1227.32,1002.71 1229.83,1003.4 1232.35,1004.06 1234.88,1004.66 1237.43,1005.23 1239.98,1005.75 1242.54,1006.22 1245.11,1006.65 1247.69,1007.04 1250.28,1007.38 1252.87,1007.67 1255.46,1007.92 1258.06,1008.13 1260.66,1008.29 1263.26,1008.4 1265.87,1008.47 1268.47,1008.49 1271.08,1008.47 1273.68,1008.4 1276.29,1008.29 1278.89,1008.13 1281.49,1007.92 1284.08,1007.67 1286.67,1007.38 1289.25,1007.04 1291.83,1006.65 1294.4,1006.22 1296.96,1005.75 1299.52,1005.23 1302.06,1004.66 1304.6,1004.06 1307.12,1003.4 1309.63,1002.71 1312.13,1001.97 1314.61,1001.18 1317.09,1000.36 1319.54,999.486 1321.98,998.574 1324.41,997.618 1326.82,996.621 1329.21,995.582 1331.58,994.501 1333.93,993.379 1336.26,992.217 1338.57,991.013 1340.86,989.77 1343.13,988.486 1345.38,987.164 1347.6,985.802 1349.8,984.402 1351.97,982.964 1354.12,981.487 1356.24,979.974 1358.33,978.424 1360.4,976.838 1362.44,975.215 1364.45,973.558 1366.43,971.865 1368.39,970.138 1370.31,968.378 1372.2,966.584 1374.06,964.757 1375.88,962.898 1377.68,961.008 1379.44,959.087 1381.16,957.135 1382.86,955.153 1384.51,953.142 1386.14,951.103 1387.72,949.035 1389.27,946.94 1390.79,944.819 1392.26,942.671 1393.7,940.498 1395.1,938.3 1396.46,936.078 1397.79,933.833 1399.07,931.564 1400.31,929.274 1401.52,926.963 1402.68,924.63 1403.8,922.278 1404.88,919.907 1405.92,917.517 1406.92,915.109 1407.87,912.685 1408.79,910.244 1409.66,907.787 1410.48,905.316 1411.27,902.83 1412.01,900.331 1412.7,897.82 1413.35,895.297 1413.96,892.763 1414.53,890.219 1415.05,887.665 1415.52,885.103 1415.95,882.532 1416.34,879.955 1416.68,877.371 1416.97,874.782 1417.22,872.188 1417.43,869.59 1417.59,866.989 1417.7,864.385 1417.77,861.78 "/>
<polyline clip-path="url(#clip913)" style="stroke:#000000; stroke-linecap:round; stroke-linejoin:round; stroke-width:2; stroke-opacity:0.1; fill:none" points="1567.11,859.174 1567.06,853.962 1566.93,848.752 1566.7,843.545 1566.38,838.342 1565.97,833.146 1565.47,827.958 1564.88,822.78 1564.2,817.612 1563.43,812.457 1562.57,807.317 1561.62,802.192 1560.58,797.085 1559.45,791.996 1558.24,786.928 1556.93,781.882 1555.54,776.859 1554.06,771.862 1552.49,766.891 1550.84,761.948 1549.1,757.035 1547.27,752.153 1545.36,747.304 1543.37,742.489 1541.29,737.709 1539.13,732.966 1536.88,728.262 1534.56,723.597 1532.15,718.974 1529.66,714.393 1527.1,709.857 1524.45,705.366 1521.73,700.922 1518.93,696.526 1516.05,692.18 1513.1,687.885 1510.07,683.641 1506.97,679.452 1503.8,675.317 1500.56,671.238 1497.24,667.216 1493.86,663.253 1490.4,659.349 1486.88,655.506 1483.29,651.725 1479.64,648.008 1475.92,644.355 1472.14,640.767 1468.3,637.246 1464.39,633.792 1460.43,630.407 1456.41,627.092 1452.33,623.847 1448.2,620.674 1444.01,617.574 1439.76,614.547 1435.47,611.595 1431.12,608.719 1426.73,605.918 1422.28,603.195 1417.79,600.549 1413.25,597.983 1408.67,595.496 1404.05,593.089 1399.39,590.764 1394.68,588.52 1389.94,586.358 1385.16,584.28 1380.34,582.285 1375.49,580.375 1370.61,578.55 1365.7,576.81 1360.76,575.156 1355.79,573.589 1350.79,572.109 1345.77,570.716 1340.72,569.411 1335.65,568.194 1330.56,567.066 1325.46,566.027 1320.33,565.077 1315.19,564.217 1310.04,563.446 1304.87,562.766 1299.69,562.176 1294.5,561.676 1289.3,561.268 1284.1,560.949 1278.9,560.722 1273.69,560.586 1268.47,560.54 1263.26,560.586 1258.05,560.722 1252.84,560.949 1247.64,561.268 1242.45,561.676 1237.26,562.176 1232.08,562.766 1226.91,563.446 1221.76,564.217 1216.62,565.077 1211.49,566.027 1206.38,567.066 1201.3,568.194 1196.23,569.411 1191.18,570.716 1186.16,572.109 1181.16,573.589 1176.19,575.156 1171.25,576.81 1166.33,578.55 1161.45,580.375 1156.6,582.285 1151.79,584.28 1147.01,586.358 1142.27,588.52 1137.56,590.764 1132.9,593.089 1128.27,595.496 1123.69,597.983 1119.16,600.549 1114.67,603.195 1110.22,605.918 1105.83,608.719 1101.48,611.595 1097.18,614.547 1092.94,617.574 1088.75,620.674 1084.62,623.847 1080.54,627.092 1076.52,630.407 1072.55,633.792 1068.65,637.246 1064.81,640.767 1061.02,644.355 1057.31,648.008 1053.65,651.725 1050.07,655.506 1046.54,659.349 1043.09,663.253 1039.71,667.216 1036.39,671.238 1033.15,675.317 1029.97,679.452 1026.87,683.641 1023.85,687.885 1020.89,692.18 1018.02,696.526 1015.22,700.922 1012.49,705.366 1009.85,709.857 1007.28,714.393 1004.8,718.974 1002.39,723.597 1000.06,728.262 997.819,732.966 995.657,737.709 993.579,742.489 991.585,747.304 989.674,752.153 987.849,757.035 986.109,761.948 984.455,766.891 982.888,771.862 981.408,776.859 980.015,781.882 978.71,786.928 977.493,791.996 976.365,797.085 975.326,802.192 974.376,807.317 973.516,812.457 972.746,817.612 972.065,822.78 971.475,827.958 970.976,833.146 970.567,838.342 970.248,843.545 970.021,848.752 969.885,853.962 969.839,859.174 969.885,864.386 970.021,869.596 970.248,874.803 970.567,880.006 970.976,885.202 971.475,890.39 972.065,895.568 972.746,900.736 973.516,905.891 974.376,911.031 975.326,916.156 976.365,921.264 977.493,926.352 978.71,931.42 980.015,936.466 981.408,941.489 982.888,946.486 984.455,951.457 986.109,956.4 987.849,961.313 989.674,966.195 991.585,971.044 993.579,975.86 995.657,980.64 997.819,985.382 1000.06,990.087 1002.39,994.751 1004.8,999.374 1007.28,1003.95 1009.85,1008.49 1012.49,1012.98 1015.22,1017.43 1018.02,1021.82 1020.89,1026.17 1023.85,1030.46 1026.87,1034.71 1029.97,1038.9 1033.15,1043.03 1036.39,1047.11 1039.71,1051.13 1043.09,1055.1 1046.54,1059 1050.07,1062.84 1053.65,1066.62 1057.31,1070.34 1061.02,1073.99 1064.81,1077.58 1068.65,1081.1 1072.55,1084.56 1076.52,1087.94 1080.54,1091.26 1084.62,1094.5 1088.75,1097.67 1092.94,1100.77 1097.18,1103.8 1101.48,1106.75 1105.83,1109.63 1110.22,1112.43 1114.67,1115.15 1119.16,1117.8 1123.69,1120.37 1128.27,1122.85 1132.9,1125.26 1137.56,1127.58 1142.27,1129.83 1147.01,1131.99 1151.79,1134.07 1156.6,1136.06 1161.45,1137.97 1166.33,1139.8 1171.25,1141.54 1176.19,1143.19 1181.16,1144.76 1186.16,1146.24 1191.18,1147.63 1196.23,1148.94 1201.3,1150.15 1206.38,1151.28 1211.49,1152.32 1216.62,1153.27 1221.76,1154.13 1226.91,1154.9 1232.08,1155.58 1237.26,1156.17 1242.45,1156.67 1247.64,1157.08 1252.84,1157.4 1258.05,1157.63 1263.26,1157.76 1268.47,1157.81 1273.69,1157.76 1278.9,1157.63 1284.1,1157.4 1289.3,1157.08 1294.5,1156.67 1299.69,1156.17 1304.87,1155.58 1310.04,1154.9 1315.19,1154.13 1320.33,1153.27 1325.46,1152.32 1330.56,1151.28 1335.65,1150.15 1340.72,1148.94 1345.77,1147.63 1350.79,1146.24 1355.79,1144.76 1360.76,1143.19 1365.7,1141.54 1370.61,1139.8 1375.49,1137.97 1380.34,1136.06 1385.16,1134.07 1389.94,1131.99 1394.68,1129.83 1399.39,1127.58 1404.05,1125.26 1408.67,1122.85 1413.25,1120.37 1417.79,1117.8 1422.28,1115.15 1426.73,1112.43 1431.12,1109.63 1435.47,1106.75 1439.76,1103.8 1444.01,1100.77 1448.2,1097.67 1452.33,1094.5 1456.41,1091.26 1460.43,1087.94 1464.39,1084.56 1468.3,1081.1 1472.14,1077.58 1475.92,1073.99 1479.64,1070.34 1483.29,1066.62 1486.88,1062.84 1490.4,1059 1493.86,1055.1 1497.24,1051.13 1500.56,1047.11 1503.8,1043.03 1506.97,1038.9 1510.07,1034.71 1513.1,1030.46 1516.05,1026.17 1518.93,1021.82 1521.73,1017.43 1524.45,1012.98 1527.1,1008.49 1529.66,1003.95 1532.15,999.374 1534.56,994.751 1536.88,990.087 1539.13,985.382 1541.29,980.64 1543.37,975.86 1545.36,971.044 1547.27,966.195 1549.1,961.313 1550.84,956.4 1552.49,951.457 1554.06,946.486 1555.54,941.489 1556.93,936.466 1558.24,931.42 1559.45,926.352 1560.58,921.264 1561.62,916.156 1562.57,911.031 1563.43,905.891 1564.2,900.736 1564.88,895.568 1565.47,890.39 1565.97,885.202 1566.38,880.006 1566.7,874.803 1566.93,869.596 1567.06,864.386 "/>
<polyline clip-path="url(#clip913)" style="stroke:#000000; stroke-linecap:round; stroke-linejoin:round; stroke-width:2; stroke-opacity:0.1; fill:none" points="1716.42,859.174 1716.36,851.356 1716.15,843.541 1715.81,835.73 1715.33,827.927 1714.72,820.133 1713.97,812.35 1713.09,804.583 1712.06,796.831 1710.91,789.099 1709.62,781.388 1708.19,773.701 1706.64,766.04 1704.94,758.407 1703.12,750.805 1701.16,743.236 1699.07,735.702 1696.85,728.206 1694.5,720.75 1692.02,713.336 1689.41,705.966 1686.67,698.643 1683.81,691.369 1680.81,684.146 1677.7,676.976 1674.45,669.862 1671.09,662.805 1667.6,655.809 1663.99,648.874 1660.26,642.003 1656.41,635.199 1652.44,628.462 1648.36,621.796 1644.16,615.202 1639.84,608.683 1635.41,602.24 1630.87,595.875 1626.22,589.59 1621.46,583.388 1616.6,577.269 1611.62,571.237 1606.55,565.292 1601.37,559.436 1596.08,553.672 1590.7,548.001 1585.22,542.425 1579.65,536.945 1573.98,531.563 1568.21,526.282 1562.36,521.101 1556.41,516.024 1550.38,511.051 1544.26,506.184 1538.06,501.424 1531.77,496.774 1525.41,492.234 1518.96,487.806 1512.44,483.491 1505.85,479.29 1499.19,475.205 1492.45,471.237 1485.64,467.387 1478.77,463.657 1471.84,460.047 1464.84,456.558 1457.79,453.193 1450.67,449.95 1443.5,446.833 1436.28,443.841 1429,440.976 1421.68,438.238 1414.31,435.628 1406.9,433.147 1399.44,430.796 1391.95,428.576 1384.41,426.487 1376.84,424.529 1369.24,422.704 1361.61,421.012 1353.95,419.453 1346.26,418.028 1338.55,416.738 1330.82,415.582 1323.06,414.562 1315.3,413.677 1307.51,412.928 1299.72,412.314 1291.92,411.837 1284.11,411.496 1276.29,411.291 1268.47,411.223 1260.66,411.291 1252.84,411.496 1245.03,411.837 1237.23,412.314 1229.43,412.928 1221.65,413.677 1213.88,414.562 1206.13,415.582 1198.4,416.738 1190.69,418.028 1183,419.453 1175.34,421.012 1167.71,422.704 1160.1,424.529 1152.54,426.487 1145,428.576 1137.51,430.796 1130.05,433.147 1122.63,435.628 1115.26,438.238 1107.94,440.976 1100.67,443.841 1093.44,446.833 1086.28,449.95 1079.16,453.193 1072.1,456.558 1065.11,460.047 1058.17,463.657 1051.3,467.387 1044.5,471.237 1037.76,475.205 1031.1,479.29 1024.5,483.491 1017.98,487.806 1011.54,492.234 1005.17,496.774 998.89,501.424 992.687,506.184 986.569,511.051 980.536,516.024 974.591,521.101 968.736,526.282 962.971,531.563 957.3,536.945 951.724,542.425 946.244,548.001 940.863,553.672 935.581,559.436 930.4,565.292 925.323,571.237 920.35,577.269 915.483,583.388 910.724,589.59 906.073,595.875 901.533,602.24 897.105,608.683 892.79,615.202 888.589,621.796 884.504,628.462 880.536,635.199 876.686,642.003 872.956,648.874 869.346,655.809 865.858,662.805 862.492,669.862 859.25,676.976 856.132,684.146 853.14,691.369 850.275,698.643 847.537,705.966 844.927,713.336 842.446,720.75 840.096,728.206 837.875,735.702 835.786,743.236 833.828,750.805 832.003,758.407 830.311,766.04 828.752,773.701 827.328,781.388 826.037,789.099 824.882,796.831 823.861,804.583 822.976,812.35 822.227,820.133 821.613,827.927 821.136,835.73 820.795,843.541 820.59,851.356 820.522,859.174 820.59,866.992 820.795,874.807 821.136,882.618 821.613,890.422 822.227,898.216 822.976,905.998 823.861,913.766 824.882,921.517 826.037,929.249 827.328,936.96 828.752,944.647 830.311,952.308 832.003,959.941 833.828,967.543 835.786,975.112 837.875,982.646 840.096,990.142 842.446,997.599 844.927,1005.01 847.537,1012.38 850.275,1019.71 853.14,1026.98 856.132,1034.2 859.25,1041.37 862.492,1048.49 865.858,1055.54 869.346,1062.54 872.956,1069.47 876.686,1076.35 880.536,1083.15 884.504,1089.89 888.589,1096.55 892.79,1103.15 897.105,1109.67 901.533,1116.11 906.073,1122.47 910.724,1128.76 915.483,1134.96 920.35,1141.08 925.323,1147.11 930.4,1153.06 935.581,1158.91 940.863,1164.68 946.244,1170.35 951.724,1175.92 957.3,1181.4 962.971,1186.78 968.736,1192.07 974.591,1197.25 980.536,1202.32 986.569,1207.3 992.687,1212.16 998.89,1216.92 1005.17,1221.57 1011.54,1226.11 1017.98,1230.54 1024.5,1234.86 1031.1,1239.06 1037.76,1243.14 1044.5,1247.11 1051.3,1250.96 1058.17,1254.69 1065.11,1258.3 1072.1,1261.79 1079.16,1265.16 1086.28,1268.4 1093.44,1271.52 1100.67,1274.51 1107.94,1277.37 1115.26,1280.11 1122.63,1282.72 1130.05,1285.2 1137.51,1287.55 1145,1289.77 1152.54,1291.86 1160.1,1293.82 1167.71,1295.64 1175.34,1297.34 1183,1298.9 1190.69,1300.32 1198.4,1301.61 1206.13,1302.77 1213.88,1303.79 1221.65,1304.67 1229.43,1305.42 1237.23,1306.03 1245.03,1306.51 1252.84,1306.85 1260.66,1307.06 1268.47,1307.13 1276.29,1307.06 1284.11,1306.85 1291.92,1306.51 1299.72,1306.03 1307.51,1305.42 1315.3,1304.67 1323.06,1303.79 1330.82,1302.77 1338.55,1301.61 1346.26,1300.32 1353.95,1298.9 1361.61,1297.34 1369.24,1295.64 1376.84,1293.82 1384.41,1291.86 1391.95,1289.77 1399.44,1287.55 1406.9,1285.2 1414.31,1282.72 1421.68,1280.11 1429,1277.37 1436.28,1274.51 1443.5,1271.52 1450.67,1268.4 1457.79,1265.16 1464.84,1261.79 1471.84,1258.3 1478.77,1254.69 1485.64,1250.96 1492.45,1247.11 1499.19,1243.14 1505.85,1239.06 1512.44,1234.86 1518.96,1230.54 1525.41,1226.11 1531.77,1221.57 1538.06,1216.92 1544.26,1212.16 1550.38,1207.3 1556.41,1202.32 1562.36,1197.25 1568.21,1192.07 1573.98,1186.78 1579.65,1181.4 1585.22,1175.92 1590.7,1170.35 1596.08,1164.68 1601.37,1158.91 1606.55,1153.06 1611.62,1147.11 1616.6,1141.08 1621.46,1134.96 1626.22,1128.76 1630.87,1122.47 1635.41,1116.11 1639.84,1109.67 1644.16,1103.15 1648.36,1096.55 1652.44,1089.89 1656.41,1083.15 1660.26,1076.35 1663.99,1069.47 1667.6,1062.54 1671.09,1055.54 1674.45,1048.49 1677.7,1041.37 1680.81,1034.2 1683.81,1026.98 1686.67,1019.71 1689.41,1012.38 1692.02,1005.01 1694.5,997.599 1696.85,990.142 1699.07,982.646 1701.16,975.112 1703.12,967.543 1704.94,959.941 1706.64,952.308 1708.19,944.647 1709.62,936.96 1710.91,929.249 1712.06,921.517 1713.09,913.766 1713.97,905.998 1714.72,898.216 1715.33,890.422 1715.81,882.618 1716.15,874.807 1716.36,866.992 "/>
<polyline clip-path="url(#clip913)" style="stroke:#000000; stroke-linecap:round; stroke-linejoin:round; stroke-width:2; stroke-opacity:0.1; fill:none" points="1865.74,859.174 1865.65,848.75 1865.38,838.33 1864.92,827.916 1864.29,817.511 1863.47,807.119 1862.47,796.743 1861.29,786.385 1859.93,776.05 1858.39,765.741 1856.67,755.46 1854.77,745.21 1852.69,734.995 1850.43,724.818 1848,714.682 1845.39,704.59 1842.6,694.545 1839.64,684.55 1836.51,674.608 1833.2,664.723 1829.72,654.896 1826.07,645.132 1822.25,635.434 1818.26,625.803 1814.1,616.243 1809.78,606.758 1805.29,597.349 1800.64,588.02 1795.83,578.774 1790.86,569.613 1785.72,560.54 1780.43,551.558 1774.99,542.67 1769.38,533.879 1763.63,525.186 1757.73,516.595 1751.67,508.109 1745.47,499.729 1739.13,491.459 1732.64,483.301 1726.01,475.258 1719.24,467.331 1712.33,459.524 1705.29,451.838 1698.11,444.277 1690.81,436.842 1683.37,429.535 1675.81,422.36 1668.12,415.317 1660.32,408.41 1652.39,401.64 1644.35,395.01 1636.19,388.52 1627.92,382.175 1619.54,375.974 1611.05,369.921 1602.46,364.016 1593.77,358.263 1584.98,352.662 1576.09,347.215 1567.11,341.925 1558.03,336.792 1548.87,331.818 1539.63,327.004 1530.3,322.353 1520.89,317.865 1511.4,313.543 1501.84,309.386 1492.21,305.397 1482.52,301.576 1472.75,297.926 1462.92,294.446 1453.04,291.138 1443.1,288.004 1433.1,285.043 1423.06,282.257 1412.97,279.647 1402.83,277.214 1392.65,274.958 1382.44,272.879 1372.19,270.98 1361.91,269.259 1351.6,267.719 1341.26,266.358 1330.9,265.178 1320.53,264.179 1310.14,263.361 1299.73,262.725 1289.32,262.27 1278.9,261.997 1268.47,261.906 1258.05,261.997 1247.63,262.27 1237.21,262.725 1226.81,263.361 1216.42,264.179 1206.04,265.178 1195.68,266.358 1185.35,267.719 1175.04,269.259 1164.76,270.98 1154.51,272.879 1144.29,274.958 1134.12,277.214 1123.98,279.647 1113.89,282.257 1103.84,285.043 1093.85,288.004 1083.91,291.138 1074.02,294.446 1064.2,297.926 1054.43,301.576 1044.73,305.397 1035.1,309.386 1025.54,313.543 1016.06,317.865 1006.65,322.353 997.319,327.004 988.073,331.818 978.912,336.792 969.839,341.925 960.857,347.215 951.969,352.662 943.178,358.263 934.485,364.016 925.894,369.921 917.408,375.974 909.028,382.175 900.758,388.52 892.6,395.01 884.557,401.64 876.63,408.41 868.823,415.317 861.137,422.36 853.576,429.535 846.141,436.842 838.835,444.277 831.659,451.838 824.617,459.524 817.709,467.331 810.939,475.258 804.309,483.301 797.82,491.459 791.474,499.729 785.273,508.109 779.22,516.595 773.316,525.186 767.562,533.879 761.961,542.67 756.515,551.558 751.224,560.54 746.091,569.613 741.117,578.774 736.303,588.02 731.652,597.349 727.165,606.758 722.842,616.243 718.685,625.803 714.696,635.434 710.875,645.132 707.225,654.896 703.745,664.723 700.438,674.608 697.303,684.55 694.342,694.545 691.557,704.59 688.947,714.682 686.513,724.818 684.257,734.995 682.179,745.21 680.279,755.46 678.559,765.741 677.018,776.05 675.657,786.385 674.477,796.743 673.478,807.119 672.66,817.511 672.024,827.916 671.569,838.33 671.296,848.75 671.205,859.174 671.296,869.598 671.569,880.018 672.024,890.433 672.66,900.837 673.478,911.229 674.477,921.606 675.657,931.963 677.018,942.298 678.559,952.607 680.279,962.889 682.179,973.138 684.257,983.353 686.513,993.53 688.947,1003.67 691.557,1013.76 694.342,1023.8 697.303,1033.8 700.438,1043.74 703.745,1053.63 707.225,1063.45 710.875,1073.22 714.696,1082.91 718.685,1092.55 722.842,1102.1 727.165,1111.59 731.652,1121 736.303,1130.33 741.117,1139.57 746.091,1148.74 751.224,1157.81 756.515,1166.79 761.961,1175.68 767.562,1184.47 773.316,1193.16 779.22,1201.75 785.273,1210.24 791.474,1218.62 797.82,1226.89 804.309,1235.05 810.939,1243.09 817.709,1251.02 824.617,1258.82 831.659,1266.51 838.835,1274.07 846.141,1281.51 853.576,1288.81 861.137,1295.99 868.823,1303.03 876.63,1309.94 884.557,1316.71 892.6,1323.34 900.758,1329.83 909.028,1336.17 917.408,1342.37 925.894,1348.43 934.485,1354.33 943.178,1360.09 951.969,1365.69 960.857,1371.13 969.839,1376.42 978.912,1381.56 988.073,1386.53 997.319,1391.34 1006.65,1396 1016.06,1400.48 1025.54,1404.81 1035.1,1408.96 1044.73,1412.95 1054.43,1416.77 1064.2,1420.42 1074.02,1423.9 1083.91,1427.21 1093.85,1430.34 1103.84,1433.31 1113.89,1436.09 1123.98,1438.7 1134.12,1441.13 1144.29,1443.39 1154.51,1445.47 1164.76,1447.37 1175.04,1449.09 1185.35,1450.63 1195.68,1451.99 1206.04,1453.17 1216.42,1454.17 1226.81,1454.99 1237.21,1455.62 1247.63,1456.08 1258.05,1456.35 1268.47,1456.44 1278.9,1456.35 1289.32,1456.08 1299.73,1455.62 1310.14,1454.99 1320.53,1454.17 1330.9,1453.17 1341.26,1451.99 1351.6,1450.63 1361.91,1449.09 1372.19,1447.37 1382.44,1445.47 1392.65,1443.39 1402.83,1441.13 1412.97,1438.7 1423.06,1436.09 1433.1,1433.31 1443.1,1430.34 1453.04,1427.21 1462.92,1423.9 1472.75,1420.42 1482.52,1416.77 1492.21,1412.95 1501.84,1408.96 1511.4,1404.81 1520.89,1400.48 1530.3,1396 1539.63,1391.34 1548.87,1386.53 1558.03,1381.56 1567.11,1376.42 1576.09,1371.13 1584.98,1365.69 1593.77,1360.09 1602.46,1354.33 1611.05,1348.43 1619.54,1342.37 1627.92,1336.17 1636.19,1329.83 1644.35,1323.34 1652.39,1316.71 1660.32,1309.94 1668.12,1303.03 1675.81,1295.99 1683.37,1288.81 1690.81,1281.51 1698.11,1274.07 1705.29,1266.51 1712.33,1258.82 1719.24,1251.02 1726.01,1243.09 1732.64,1235.05 1739.13,1226.89 1745.47,1218.62 1751.67,1210.24 1757.73,1201.75 1763.63,1193.16 1769.38,1184.47 1774.99,1175.68 1780.43,1166.79 1785.72,1157.81 1790.86,1148.74 1795.83,1139.57 1800.64,1130.33 1805.29,1121 1809.78,1111.59 1814.1,1102.1 1818.26,1092.55 1822.25,1082.91 1826.07,1073.22 1829.72,1063.45 1833.2,1053.63 1836.51,1043.74 1839.64,1033.8 1842.6,1023.8 1845.39,1013.76 1848,1003.67 1850.43,993.53 1852.69,983.353 1854.77,973.138 1856.67,962.889 1858.39,952.607 1859.93,942.298 1861.29,931.963 1862.47,921.606 1863.47,911.229 1864.29,900.837 1864.92,890.433 1865.38,880.018 1865.65,869.598 "/>
<polyline clip-path="url(#clip913)" style="stroke:#000000; stroke-linecap:round; stroke-linejoin:round; stroke-width:2; stroke-opacity:0.1; fill:none" points="1895.75,859.174 1895.65,848.227 1895.36,837.283 1894.89,826.345 1894.22,815.418 1893.36,804.504 1892.31,793.606 1891.07,782.729 1889.64,771.874 1888.02,761.047 1886.22,750.249 1884.22,739.485 1882.04,728.757 1879.67,718.068 1877.11,707.423 1874.37,696.824 1871.45,686.274 1868.34,675.777 1865.05,665.336 1861.57,654.954 1857.92,644.634 1854.08,634.379 1850.07,624.193 1845.88,614.079 1841.52,604.039 1836.98,594.077 1832.26,584.195 1827.38,574.398 1822.32,564.687 1817.1,555.066 1811.71,545.537 1806.15,536.104 1800.43,526.77 1794.55,517.536 1788.51,508.407 1782.31,499.385 1775.95,490.472 1769.44,481.671 1762.77,472.986 1755.96,464.418 1748.99,455.97 1741.88,447.646 1734.63,439.446 1727.23,431.374 1719.7,423.433 1712.02,415.625 1704.21,407.951 1696.27,400.415 1688.2,393.019 1680,385.765 1671.68,378.655 1663.23,371.691 1654.66,364.876 1645.98,358.211 1637.18,351.699 1628.26,345.342 1619.24,339.141 1610.11,333.098 1600.88,327.216 1591.54,321.496 1582.11,315.939 1572.58,310.548 1562.96,305.324 1553.25,300.269 1543.45,295.384 1533.57,290.671 1523.61,286.131 1513.57,281.766 1503.45,277.576 1493.27,273.564 1483.01,269.73 1472.69,266.075 1462.31,262.601 1451.87,259.309 1441.37,256.2 1430.82,253.274 1420.22,250.533 1409.58,247.977 1398.89,245.608 1388.16,243.425 1377.4,241.43 1366.6,239.623 1355.77,238.005 1344.92,236.576 1334.04,235.337 1323.14,234.287 1312.23,233.428 1301.3,232.76 1290.36,232.283 1279.42,231.996 1268.47,231.9 1257.53,231.996 1246.58,232.283 1235.64,232.76 1224.72,233.428 1213.8,234.287 1202.91,235.337 1192.03,236.576 1181.17,238.005 1170.35,239.623 1159.55,241.43 1148.78,243.425 1138.06,245.608 1127.37,247.977 1116.72,250.533 1106.12,253.274 1095.57,256.2 1085.08,259.309 1074.64,262.601 1064.25,266.075 1053.93,269.73 1043.68,273.564 1033.49,277.576 1023.38,281.766 1013.34,286.131 1003.38,290.671 993.495,295.384 983.697,300.269 973.986,305.324 964.365,310.548 954.836,315.939 945.403,321.496 936.069,327.216 926.836,333.098 917.706,339.141 908.684,345.342 899.771,351.699 890.971,358.211 882.285,364.876 873.717,371.691 865.27,378.655 856.945,385.765 848.745,393.019 840.674,400.415 832.732,407.951 824.924,415.625 817.25,423.433 809.714,431.374 802.318,439.446 795.064,447.646 787.954,455.97 780.99,464.418 774.175,472.986 767.51,481.671 760.998,490.472 754.641,499.385 748.44,508.407 742.397,517.536 736.515,526.77 730.795,536.104 725.238,545.537 719.847,555.066 714.623,564.687 709.568,574.398 704.683,584.195 699.97,594.077 695.43,604.039 691.065,614.079 686.875,624.193 682.863,634.379 679.029,644.634 675.374,654.954 671.901,665.336 668.608,675.777 665.499,686.274 662.573,696.824 659.832,707.423 657.277,718.068 654.907,728.757 652.724,739.485 650.729,750.249 648.922,761.047 647.304,771.874 645.875,782.729 644.636,793.606 643.587,804.504 642.728,815.418 642.059,826.345 641.582,837.283 641.295,848.227 641.2,859.174 641.295,870.122 641.582,881.066 642.059,892.003 642.728,902.931 643.587,913.845 644.636,924.742 645.875,935.62 647.304,946.474 648.922,957.301 650.729,968.099 652.724,978.864 654.907,989.592 657.277,1000.28 659.832,1010.93 662.573,1021.52 665.499,1032.07 668.608,1042.57 671.901,1053.01 675.374,1063.39 679.029,1073.71 682.863,1083.97 686.875,1094.16 691.065,1104.27 695.43,1114.31 699.97,1124.27 704.683,1134.15 709.568,1143.95 714.623,1153.66 719.847,1163.28 725.238,1172.81 730.795,1182.24 736.515,1191.58 742.397,1200.81 748.44,1209.94 754.641,1218.96 760.998,1227.88 767.51,1236.68 774.175,1245.36 780.99,1253.93 787.954,1262.38 795.064,1270.7 802.318,1278.9 809.714,1286.97 817.25,1294.92 824.924,1302.72 832.732,1310.4 840.674,1317.93 848.745,1325.33 856.945,1332.58 865.27,1339.69 873.717,1346.66 882.285,1353.47 890.971,1360.14 899.771,1366.65 908.684,1373.01 917.706,1379.21 926.836,1385.25 936.069,1391.13 945.403,1396.85 954.836,1402.41 964.365,1407.8 973.986,1413.02 983.697,1418.08 993.495,1422.96 1003.38,1427.68 1013.34,1432.22 1023.38,1436.58 1033.49,1440.77 1043.68,1444.78 1053.93,1448.62 1064.25,1452.27 1074.64,1455.75 1085.08,1459.04 1095.57,1462.15 1106.12,1465.07 1116.72,1467.82 1127.37,1470.37 1138.06,1472.74 1148.78,1474.92 1159.55,1476.92 1170.35,1478.73 1181.17,1480.34 1192.03,1481.77 1202.91,1483.01 1213.8,1484.06 1224.72,1484.92 1235.64,1485.59 1246.58,1486.07 1257.53,1486.35 1268.47,1486.45 1279.42,1486.35 1290.36,1486.07 1301.3,1485.59 1312.23,1484.92 1323.14,1484.06 1334.04,1483.01 1344.92,1481.77 1355.77,1480.34 1366.6,1478.73 1377.4,1476.92 1388.16,1474.92 1398.89,1472.74 1409.58,1470.37 1420.22,1467.82 1430.82,1465.07 1441.37,1462.15 1451.87,1459.04 1462.31,1455.75 1472.69,1452.27 1483.01,1448.62 1493.27,1444.78 1503.45,1440.77 1513.57,1436.58 1523.61,1432.22 1533.57,1427.68 1543.45,1422.96 1553.25,1418.08 1562.96,1413.02 1572.58,1407.8 1582.11,1402.41 1591.54,1396.85 1600.88,1391.13 1610.11,1385.25 1619.24,1379.21 1628.26,1373.01 1637.18,1366.65 1645.98,1360.14 1654.66,1353.47 1663.23,1346.66 1671.68,1339.69 1680,1332.58 1688.2,1325.33 1696.27,1317.93 1704.21,1310.4 1712.02,1302.72 1719.7,1294.92 1727.23,1286.97 1734.63,1278.9 1741.88,1270.7 1748.99,1262.38 1755.96,1253.93 1762.77,1245.36 1769.44,1236.68 1775.95,1227.88 1782.31,1218.96 1788.51,1209.94 1794.55,1200.81 1800.43,1191.58 1806.15,1182.24 1811.71,1172.81 1817.1,1163.28 1822.32,1153.66 1827.38,1143.95 1832.26,1134.15 1836.98,1124.27 1841.52,1114.31 1845.88,1104.27 1850.07,1094.16 1854.08,1083.97 1857.92,1073.71 1861.57,1063.39 1865.05,1053.01 1868.34,1042.57 1871.45,1032.07 1874.37,1021.52 1877.11,1010.93 1879.67,1000.28 1882.04,989.592 1884.22,978.864 1886.22,968.099 1888.02,957.301 1889.64,946.474 1891.07,935.62 1892.31,924.742 1893.36,913.845 1894.22,902.931 1894.89,892.003 1895.36,881.066 1895.65,870.122 "/>
<polyline clip-path="url(#clip913)" style="stroke:#ededed; stroke-linecap:round; stroke-linejoin:round; stroke-width:2; stroke-opacity:1; fill:none" points="1895.75,859.174 1895.65,848.227 1895.36,837.283 1894.89,826.345 1894.22,815.418 1893.36,804.504 1892.31,793.606 1891.07,782.729 1889.64,771.874 1888.02,761.047 1886.22,750.249 1884.22,739.485 1882.04,728.757 1879.67,718.068 1877.11,707.423 1874.37,696.824 1871.45,686.274 1868.34,675.777 1865.05,665.336 1861.57,654.954 1857.92,644.634 1854.08,634.379 1850.07,624.193 1845.88,614.079 1841.52,604.039 1836.98,594.077 1832.26,584.195 1827.38,574.398 1822.32,564.687 1817.1,555.066 1811.71,545.537 1806.15,536.104 1800.43,526.77 1794.55,517.536 1788.51,508.407 1782.31,499.385 1775.95,490.472 1769.44,481.671 1762.77,472.986 1755.96,464.418 1748.99,455.97 1741.88,447.646 1734.63,439.446 1727.23,431.374 1719.7,423.433 1712.02,415.625 1704.21,407.951 1696.27,400.415 1688.2,393.019 1680,385.765 1671.68,378.655 1663.23,371.691 1654.66,364.876 1645.98,358.211 1637.18,351.699 1628.26,345.342 1619.24,339.141 1610.11,333.098 1600.88,327.216 1591.54,321.496 1582.11,315.939 1572.58,310.548 1562.96,305.324 1553.25,300.269 1543.45,295.384 1533.57,290.671 1523.61,286.131 1513.57,281.766 1503.45,277.576 1493.27,273.564 1483.01,269.73 1472.69,266.075 1462.31,262.601 1451.87,259.309 1441.37,256.2 1430.82,253.274 1420.22,250.533 1409.58,247.977 1398.89,245.608 1388.16,243.425 1377.4,241.43 1366.6,239.623 1355.77,238.005 1344.92,236.576 1334.04,235.337 1323.14,234.287 1312.23,233.428 1301.3,232.76 1290.36,232.283 1279.42,231.996 1268.47,231.9 1257.53,231.996 1246.58,232.283 1235.64,232.76 1224.72,233.428 1213.8,234.287 1202.91,235.337 1192.03,236.576 1181.17,238.005 1170.35,239.623 1159.55,241.43 1148.78,243.425 1138.06,245.608 1127.37,247.977 1116.72,250.533 1106.12,253.274 1095.57,256.2 1085.08,259.309 1074.64,262.601 1064.25,266.075 1053.93,269.73 1043.68,273.564 1033.49,277.576 1023.38,281.766 1013.34,286.131 1003.38,290.671 993.495,295.384 983.697,300.269 973.986,305.324 964.365,310.548 954.836,315.939 945.403,321.496 936.069,327.216 926.836,333.098 917.706,339.141 908.684,345.342 899.771,351.699 890.971,358.211 882.285,364.876 873.717,371.691 865.27,378.655 856.945,385.765 848.745,393.019 840.674,400.415 832.732,407.951 824.924,415.625 817.25,423.433 809.714,431.374 802.318,439.446 795.064,447.646 787.954,455.97 780.99,464.418 774.175,472.986 767.51,481.671 760.998,490.472 754.641,499.385 748.44,508.407 742.397,517.536 736.515,526.77 730.795,536.104 725.238,545.537 719.847,555.066 714.623,564.687 709.568,574.398 704.683,584.195 699.97,594.077 695.43,604.039 691.065,614.079 686.875,624.193 682.863,634.379 679.029,644.634 675.374,654.954 671.901,665.336 668.608,675.777 665.499,686.274 662.573,696.824 659.832,707.423 657.277,718.068 654.907,728.757 652.724,739.485 650.729,750.249 648.922,761.047 647.304,771.874 645.875,782.729 644.636,793.606 643.587,804.504 642.728,815.418 642.059,826.345 641.582,837.283 641.295,848.227 641.2,859.174 641.295,870.122 641.582,881.066 642.059,892.003 642.728,902.931 643.587,913.845 644.636,924.742 645.875,935.62 647.304,946.474 648.922,957.301 650.729,968.099 652.724,978.864 654.907,989.592 657.277,1000.28 659.832,1010.93 662.573,1021.52 665.499,1032.07 668.608,1042.57 671.901,1053.01 675.374,1063.39 679.029,1073.71 682.863,1083.97 686.875,1094.16 691.065,1104.27 695.43,1114.31 699.97,1124.27 704.683,1134.15 709.568,1143.95 714.623,1153.66 719.847,1163.28 725.238,1172.81 730.795,1182.24 736.515,1191.58 742.397,1200.81 748.44,1209.94 754.641,1218.96 760.998,1227.88 767.51,1236.68 774.175,1245.36 780.99,1253.93 787.954,1262.38 795.064,1270.7 802.318,1278.9 809.714,1286.97 817.25,1294.92 824.924,1302.72 832.732,1310.4 840.674,1317.93 848.745,1325.33 856.945,1332.58 865.27,1339.69 873.717,1346.66 882.285,1353.47 890.971,1360.14 899.771,1366.65 908.684,1373.01 917.706,1379.21 926.836,1385.25 936.069,1391.13 945.403,1396.85 954.836,1402.41 964.365,1407.8 973.986,1413.02 983.697,1418.08 993.495,1422.96 1003.38,1427.68 1013.34,1432.22 1023.38,1436.58 1033.49,1440.77 1043.68,1444.78 1053.93,1448.62 1064.25,1452.27 1074.64,1455.75 1085.08,1459.04 1095.57,1462.15 1106.12,1465.07 1116.72,1467.82 1127.37,1470.37 1138.06,1472.74 1148.78,1474.92 1159.55,1476.92 1170.35,1478.73 1181.17,1480.34 1192.03,1481.77 1202.91,1483.01 1213.8,1484.06 1224.72,1484.92 1235.64,1485.59 1246.58,1486.07 1257.53,1486.35 1268.47,1486.45 1279.42,1486.35 1290.36,1486.07 1301.3,1485.59 1312.23,1484.92 1323.14,1484.06 1334.04,1483.01 1344.92,1481.77 1355.77,1480.34 1366.6,1478.73 1377.4,1476.92 1388.16,1474.92 1398.89,1472.74 1409.58,1470.37 1420.22,1467.82 1430.82,1465.07 1441.37,1462.15 1451.87,1459.04 1462.31,1455.75 1472.69,1452.27 1483.01,1448.62 1493.27,1444.78 1503.45,1440.77 1513.57,1436.58 1523.61,1432.22 1533.57,1427.68 1543.45,1422.96 1553.25,1418.08 1562.96,1413.02 1572.58,1407.8 1582.11,1402.41 1591.54,1396.85 1600.88,1391.13 1610.11,1385.25 1619.24,1379.21 1628.26,1373.01 1637.18,1366.65 1645.98,1360.14 1654.66,1353.47 1663.23,1346.66 1671.68,1339.69 1680,1332.58 1688.2,1325.33 1696.27,1317.93 1704.21,1310.4 1712.02,1302.72 1719.7,1294.92 1727.23,1286.97 1734.63,1278.9 1741.88,1270.7 1748.99,1262.38 1755.96,1253.93 1762.77,1245.36 1769.44,1236.68 1775.95,1227.88 1782.31,1218.96 1788.51,1209.94 1794.55,1200.81 1800.43,1191.58 1806.15,1182.24 1811.71,1172.81 1817.1,1163.28 1822.32,1153.66 1827.38,1143.95 1832.26,1134.15 1836.98,1124.27 1841.52,1114.31 1845.88,1104.27 1850.07,1094.16 1854.08,1083.97 1857.92,1073.71 1861.57,1063.39 1865.05,1053.01 1868.34,1042.57 1871.45,1032.07 1874.37,1021.52 1877.11,1010.93 1879.67,1000.28 1882.04,989.592 1884.22,978.864 1886.22,968.099 1888.02,957.301 1889.64,946.474 1891.07,935.62 1892.31,924.742 1893.36,913.845 1894.22,902.931 1894.89,892.003 1895.36,881.066 1895.65,870.122 "/>
<path clip-path="url(#clip910)" d="M1948.81 851.42 Q1945.2 851.42 1943.37 854.985 Q1941.56 858.527 1941.56 865.656 Q1941.56 872.763 1943.37 876.328 Q1945.2 879.869 1948.81 879.869 Q1952.44 879.869 1954.25 876.328 Q1956.08 872.763 1956.08 865.656 Q1956.08 858.527 1954.25 854.985 Q1952.44 851.42 1948.81 851.42 M1948.81 847.717 Q1954.62 847.717 1957.67 852.323 Q1960.75 856.906 1960.75 865.656 Q1960.75 874.383 1957.67 878.99 Q1954.62 883.573 1948.81 883.573 Q1943 883.573 1939.92 878.99 Q1936.86 874.383 1936.86 865.656 Q1936.86 856.906 1939.92 852.323 Q1943 847.717 1948.81 847.717 Z" fill="#000000" fill-rule="evenodd" fill-opacity="1" /><path clip-path="url(#clip910)" d="M1970.42 836.853 Q1967.64 836.853 1966.02 839.035 Q1964.4 841.197 1964.4 844.978 Q1964.4 848.758 1966 850.94 Q1967.62 853.103 1970.42 853.103 Q1973.18 853.103 1974.8 850.921 Q1976.42 848.739 1976.42 844.978 Q1976.42 841.235 1974.8 839.053 Q1973.18 836.853 1970.42 836.853 M1970.42 833.919 Q1974.93 833.919 1977.51 836.853 Q1980.09 839.787 1980.09 844.978 Q1980.09 850.15 1977.51 853.103 Q1974.93 856.037 1970.42 856.037 Q1965.89 856.037 1963.31 853.103 Q1960.75 850.15 1960.75 844.978 Q1960.75 839.787 1963.31 836.853 Q1965.89 833.919 1970.42 833.919 Z" fill="#000000" fill-rule="evenodd" fill-opacity="1" /><path clip-path="url(#clip910)" d="M1720.97 1352.17 Q1724.33 1352.89 1726.2 1355.16 Q1728.1 1357.43 1728.1 1360.76 Q1728.1 1365.88 1724.58 1368.68 Q1721.06 1371.48 1714.58 1371.48 Q1712.41 1371.48 1710.09 1371.04 Q1707.8 1370.62 1705.35 1369.76 L1705.35 1365.25 Q1707.29 1366.38 1709.6 1366.96 Q1711.92 1367.54 1714.44 1367.54 Q1718.84 1367.54 1721.13 1365.81 Q1723.45 1364.07 1723.45 1360.76 Q1723.45 1357.7 1721.29 1355.99 Q1719.16 1354.26 1715.34 1354.26 L1711.32 1354.26 L1711.32 1350.41 L1715.53 1350.41 Q1718.98 1350.41 1720.81 1349.05 Q1722.64 1347.66 1722.64 1345.07 Q1722.64 1342.4 1720.74 1340.99 Q1718.86 1339.56 1715.34 1339.56 Q1713.42 1339.56 1711.22 1339.97 Q1709.03 1340.39 1706.39 1341.27 L1706.39 1337.1 Q1709.05 1336.36 1711.36 1335.99 Q1713.7 1335.62 1715.76 1335.62 Q1721.09 1335.62 1724.19 1338.05 Q1727.29 1340.46 1727.29 1344.58 Q1727.29 1347.45 1725.65 1349.44 Q1724 1351.41 1720.97 1352.17 Z" fill="#000000" fill-rule="evenodd" fill-opacity="1" /><path clip-path="url(#clip910)" d="M1737.78 1366.87 L1745.41 1366.87 L1745.41 1340.51 L1737.1 1342.17 L1737.1 1337.91 L1745.37 1336.25 L1750.04 1336.25 L1750.04 1366.87 L1757.68 1366.87 L1757.68 1370.81 L1737.78 1370.81 L1737.78 1366.87 Z" fill="#000000" fill-rule="evenodd" fill-opacity="1" /><path clip-path="url(#clip910)" d="M1767.17 1336.25 L1785.53 1336.25 L1785.53 1340.18 L1771.46 1340.18 L1771.46 1348.65 Q1772.47 1348.31 1773.49 1348.14 Q1774.51 1347.96 1775.53 1347.96 Q1781.32 1347.96 1784.7 1351.13 Q1788.08 1354.3 1788.08 1359.72 Q1788.08 1365.3 1784.6 1368.4 Q1781.13 1371.48 1774.81 1371.48 Q1772.64 1371.48 1770.37 1371.11 Q1768.12 1370.74 1765.72 1370 L1765.72 1365.3 Q1767.8 1366.43 1770.02 1366.99 Q1772.24 1367.54 1774.72 1367.54 Q1778.72 1367.54 1781.06 1365.44 Q1783.4 1363.33 1783.4 1359.72 Q1783.4 1356.11 1781.06 1354 Q1778.72 1351.89 1774.72 1351.89 Q1772.84 1351.89 1770.97 1352.31 Q1769.12 1352.73 1767.17 1353.61 L1767.17 1336.25 Z" fill="#000000" fill-rule="evenodd" fill-opacity="1" /><path clip-path="url(#clip910)" d="M1797.74 1324.76 Q1794.96 1324.76 1793.34 1326.94 Q1791.72 1329.1 1791.72 1332.88 Q1791.72 1336.66 1793.32 1338.84 Q1794.94 1341.01 1797.74 1341.01 Q1800.51 1341.01 1802.13 1338.83 Q1803.74 1336.64 1803.74 1332.88 Q1803.74 1329.14 1802.13 1326.96 Q1800.51 1324.76 1797.74 1324.76 M1797.74 1321.82 Q1802.26 1321.82 1804.83 1324.76 Q1807.41 1327.69 1807.41 1332.88 Q1807.41 1338.05 1804.83 1341.01 Q1802.26 1343.94 1797.74 1343.94 Q1793.21 1343.94 1790.63 1341.01 Q1788.08 1338.05 1788.08 1332.88 Q1788.08 1327.69 1790.63 1324.76 Q1793.21 1321.82 1797.74 1321.82 Z" fill="#000000" fill-rule="evenodd" fill-opacity="1" /><path clip-path="url(#clip910)" d="M1222.5 1568.97 L1238.82 1568.97 L1238.82 1572.9 L1216.87 1572.9 L1216.87 1568.97 Q1219.54 1566.21 1224.12 1561.58 Q1228.73 1556.93 1229.91 1555.59 Q1232.15 1553.06 1233.03 1551.33 Q1233.93 1549.57 1233.93 1547.88 Q1233.93 1545.13 1231.99 1543.39 Q1230.07 1541.65 1226.97 1541.65 Q1224.77 1541.65 1222.31 1542.42 Q1219.88 1543.18 1217.1 1544.73 L1217.1 1540.01 Q1219.93 1538.88 1222.38 1538.3 Q1224.84 1537.72 1226.87 1537.72 Q1232.24 1537.72 1235.44 1540.4 Q1238.63 1543.09 1238.63 1547.58 Q1238.63 1549.71 1237.82 1551.63 Q1237.04 1553.53 1234.93 1556.12 Q1234.35 1556.79 1231.25 1560.01 Q1228.15 1563.2 1222.5 1568.97 Z" fill="#000000" fill-rule="evenodd" fill-opacity="1" /><path clip-path="url(#clip910)" d="M1247.45 1538.34 L1269.67 1538.34 L1269.67 1540.33 L1257.13 1572.9 L1252.24 1572.9 L1264.05 1542.28 L1247.45 1542.28 L1247.45 1538.34 Z" fill="#000000" fill-rule="evenodd" fill-opacity="1" /><path clip-path="url(#clip910)" d="M1288.79 1541.42 Q1285.18 1541.42 1283.35 1544.99 Q1281.55 1548.53 1281.55 1555.66 Q1281.55 1562.76 1283.35 1566.33 Q1285.18 1569.87 1288.79 1569.87 Q1292.43 1569.87 1294.23 1566.33 Q1296.06 1562.76 1296.06 1555.66 Q1296.06 1548.53 1294.23 1544.99 Q1292.43 1541.42 1288.79 1541.42 M1288.79 1537.72 Q1294.6 1537.72 1297.66 1542.32 Q1300.74 1546.91 1300.74 1555.66 Q1300.74 1564.38 1297.66 1568.99 Q1294.6 1573.57 1288.79 1573.57 Q1282.98 1573.57 1279.91 1568.99 Q1276.85 1564.38 1276.85 1555.66 Q1276.85 1546.91 1279.91 1542.32 Q1282.98 1537.72 1288.79 1537.72 Z" fill="#000000" fill-rule="evenodd" fill-opacity="1" /><path clip-path="url(#clip910)" d="M1310.41 1526.85 Q1307.62 1526.85 1306 1529.04 Q1304.39 1531.2 1304.39 1534.98 Q1304.39 1538.76 1305.99 1540.94 Q1307.6 1543.1 1310.41 1543.1 Q1313.17 1543.1 1314.79 1540.92 Q1316.41 1538.74 1316.41 1534.98 Q1316.41 1531.24 1314.79 1529.05 Q1313.17 1526.85 1310.41 1526.85 M1310.41 1523.92 Q1314.92 1523.92 1317.5 1526.85 Q1320.07 1529.79 1320.07 1534.98 Q1320.07 1540.15 1317.5 1543.1 Q1314.92 1546.04 1310.41 1546.04 Q1305.87 1546.04 1303.3 1543.1 Q1300.74 1540.15 1300.74 1534.98 Q1300.74 1529.79 1303.3 1526.85 Q1305.87 1523.92 1310.41 1523.92 Z" fill="#000000" fill-rule="evenodd" fill-opacity="1" /><path clip-path="url(#clip910)" d="M735.092 1366.87 L751.411 1366.87 L751.411 1370.81 L729.467 1370.81 L729.467 1366.87 Q732.129 1364.12 736.712 1359.49 Q741.318 1354.83 742.499 1353.49 Q744.744 1350.97 745.624 1349.23 Q746.527 1347.47 746.527 1345.78 Q746.527 1343.03 744.582 1341.29 Q742.661 1339.56 739.559 1339.56 Q737.36 1339.56 734.906 1340.32 Q732.476 1341.08 729.698 1342.64 L729.698 1337.91 Q732.522 1336.78 734.976 1336.2 Q737.43 1335.62 739.467 1335.62 Q744.837 1335.62 748.031 1338.31 Q751.226 1340.99 751.226 1345.48 Q751.226 1347.61 750.416 1349.53 Q749.629 1351.43 747.522 1354.02 Q746.943 1354.7 743.842 1357.91 Q740.74 1361.11 735.092 1366.87 Z" fill="#000000" fill-rule="evenodd" fill-opacity="1" /><path clip-path="url(#clip910)" d="M765.254 1366.87 L781.573 1366.87 L781.573 1370.81 L759.629 1370.81 L759.629 1366.87 Q762.291 1364.12 766.874 1359.49 Q771.48 1354.83 772.661 1353.49 Q774.906 1350.97 775.786 1349.23 Q776.689 1347.47 776.689 1345.78 Q776.689 1343.03 774.744 1341.29 Q772.823 1339.56 769.721 1339.56 Q767.522 1339.56 765.068 1340.32 Q762.638 1341.08 759.86 1342.64 L759.86 1337.91 Q762.684 1336.78 765.138 1336.2 Q767.591 1335.62 769.628 1335.62 Q774.999 1335.62 778.193 1338.31 Q781.388 1340.99 781.388 1345.48 Q781.388 1347.61 780.578 1349.53 Q779.79 1351.43 777.684 1354.02 Q777.105 1354.7 774.003 1357.91 Q770.902 1361.11 765.254 1366.87 Z" fill="#000000" fill-rule="evenodd" fill-opacity="1" /><path clip-path="url(#clip910)" d="M791.434 1336.25 L809.79 1336.25 L809.79 1340.18 L795.716 1340.18 L795.716 1348.65 Q796.735 1348.31 797.753 1348.14 Q798.772 1347.96 799.79 1347.96 Q805.577 1347.96 808.957 1351.13 Q812.337 1354.3 812.337 1359.72 Q812.337 1365.3 808.864 1368.4 Q805.392 1371.48 799.073 1371.48 Q796.897 1371.48 794.628 1371.11 Q792.383 1370.74 789.976 1370 L789.976 1365.3 Q792.059 1366.43 794.281 1366.99 Q796.503 1367.54 798.98 1367.54 Q802.985 1367.54 805.323 1365.44 Q807.661 1363.33 807.661 1359.72 Q807.661 1356.11 805.323 1354 Q802.985 1351.89 798.98 1351.89 Q797.105 1351.89 795.23 1352.31 Q793.378 1352.73 791.434 1353.61 L791.434 1336.25 Z" fill="#000000" fill-rule="evenodd" fill-opacity="1" /><path clip-path="url(#clip910)" d="M822.004 1324.76 Q819.22 1324.76 817.603 1326.94 Q815.985 1329.1 815.985 1332.88 Q815.985 1336.66 817.584 1338.84 Q819.201 1341.01 822.004 1341.01 Q824.769 1341.01 826.386 1338.83 Q828.003 1336.64 828.003 1332.88 Q828.003 1329.14 826.386 1326.96 Q824.769 1324.76 822.004 1324.76 M822.004 1321.82 Q826.518 1321.82 829.094 1324.76 Q831.671 1327.69 831.671 1332.88 Q831.671 1338.05 829.094 1341.01 Q826.518 1343.94 822.004 1343.94 Q817.471 1343.94 814.894 1341.01 Q812.337 1338.05 812.337 1332.88 Q812.337 1327.69 814.894 1324.76 Q817.471 1321.82 822.004 1321.82 Z" fill="#000000" fill-rule="evenodd" fill-opacity="1" /><path clip-path="url(#clip910)" d="M528.412 878.967 L536.051 878.967 L536.051 852.601 L527.74 854.268 L527.74 850.008 L536.004 848.342 L540.68 848.342 L540.68 878.967 L548.319 878.967 L548.319 882.902 L528.412 882.902 L528.412 878.967 Z" fill="#000000" fill-rule="evenodd" fill-opacity="1" /><path clip-path="url(#clip910)" d="M567.763 866.49 Q564.43 866.49 562.509 868.272 Q560.611 870.055 560.611 873.18 Q560.611 876.305 562.509 878.087 Q564.43 879.869 567.763 879.869 Q571.097 879.869 573.018 878.087 Q574.939 876.281 574.939 873.18 Q574.939 870.055 573.018 868.272 Q571.12 866.49 567.763 866.49 M563.087 864.499 Q560.078 863.758 558.388 861.698 Q556.722 859.638 556.722 856.675 Q556.722 852.532 559.662 850.124 Q562.624 847.717 567.763 847.717 Q572.925 847.717 575.865 850.124 Q578.805 852.532 578.805 856.675 Q578.805 859.638 577.115 861.698 Q575.448 863.758 572.462 864.499 Q575.842 865.286 577.717 867.578 Q579.615 869.869 579.615 873.18 Q579.615 878.203 576.536 880.888 Q573.481 883.573 567.763 883.573 Q562.046 883.573 558.967 880.888 Q555.912 878.203 555.912 873.18 Q555.912 869.869 557.81 867.578 Q559.708 865.286 563.087 864.499 M561.374 857.115 Q561.374 859.8 563.041 861.305 Q564.731 862.809 567.763 862.809 Q570.773 862.809 572.462 861.305 Q574.175 859.8 574.175 857.115 Q574.175 854.43 572.462 852.925 Q570.773 851.42 567.763 851.42 Q564.731 851.42 563.041 852.925 Q561.374 854.43 561.374 857.115 Z" fill="#000000" fill-rule="evenodd" fill-opacity="1" /><path clip-path="url(#clip910)" d="M597.925 851.42 Q594.314 851.42 592.485 854.985 Q590.68 858.527 590.68 865.656 Q590.68 872.763 592.485 876.328 Q594.314 879.869 597.925 879.869 Q601.559 879.869 603.365 876.328 Q605.194 872.763 605.194 865.656 Q605.194 858.527 603.365 854.985 Q601.559 851.42 597.925 851.42 M597.925 847.717 Q603.735 847.717 606.791 852.323 Q609.87 856.906 609.87 865.656 Q609.87 874.383 606.791 878.99 Q603.735 883.573 597.925 883.573 Q592.115 883.573 589.036 878.99 Q585.981 874.383 585.981 865.656 Q585.981 856.906 589.036 852.323 Q592.115 847.717 597.925 847.717 Z" fill="#000000" fill-rule="evenodd" fill-opacity="1" /><path clip-path="url(#clip910)" d="M619.537 836.853 Q616.753 836.853 615.136 839.035 Q613.518 841.197 613.518 844.978 Q613.518 848.758 615.117 850.94 Q616.734 853.103 619.537 853.103 Q622.302 853.103 623.919 850.921 Q625.536 848.739 625.536 844.978 Q625.536 841.235 623.919 839.053 Q622.302 836.853 619.537 836.853 M619.537 833.919 Q624.051 833.919 626.627 836.853 Q629.204 839.787 629.204 844.978 Q629.204 850.15 626.627 853.103 Q624.051 856.037 619.537 856.037 Q615.004 856.037 612.427 853.103 Q609.87 850.15 609.87 844.978 Q609.87 839.787 612.427 836.853 Q615.004 833.919 619.537 833.919 Z" fill="#000000" fill-rule="evenodd" fill-opacity="1" /><path clip-path="url(#clip910)" d="M731.006 391.062 L738.645 391.062 L738.645 364.696 L730.335 366.363 L730.335 362.104 L738.599 360.437 L743.274 360.437 L743.274 391.062 L750.913 391.062 L750.913 394.997 L731.006 394.997 L731.006 391.062 Z" fill="#000000" fill-rule="evenodd" fill-opacity="1" /><path clip-path="url(#clip910)" d="M774.524 376.363 Q777.881 377.081 779.756 379.349 Q781.654 381.618 781.654 384.951 Q781.654 390.067 778.135 392.868 Q774.617 395.669 768.135 395.669 Q765.96 395.669 763.645 395.229 Q761.353 394.812 758.899 393.956 L758.899 389.442 Q760.844 390.576 763.159 391.155 Q765.473 391.733 767.997 391.733 Q772.395 391.733 774.686 389.997 Q777.001 388.261 777.001 384.951 Q777.001 381.895 774.848 380.183 Q772.719 378.446 768.899 378.446 L764.872 378.446 L764.872 374.604 L769.085 374.604 Q772.534 374.604 774.362 373.238 Q776.191 371.849 776.191 369.257 Q776.191 366.595 774.293 365.183 Q772.418 363.747 768.899 363.747 Q766.978 363.747 764.779 364.164 Q762.58 364.581 759.941 365.46 L759.941 361.294 Q762.603 360.553 764.918 360.183 Q767.256 359.812 769.316 359.812 Q774.64 359.812 777.742 362.243 Q780.844 364.65 780.844 368.771 Q780.844 371.641 779.2 373.632 Q777.557 375.599 774.524 376.363 Z" fill="#000000" fill-rule="evenodd" fill-opacity="1" /><path clip-path="url(#clip910)" d="M790.566 360.437 L808.922 360.437 L808.922 364.372 L794.848 364.372 L794.848 372.845 Q795.867 372.497 796.885 372.335 Q797.904 372.15 798.922 372.15 Q804.709 372.15 808.089 375.321 Q811.469 378.493 811.469 383.909 Q811.469 389.488 807.996 392.59 Q804.524 395.669 798.205 395.669 Q796.029 395.669 793.76 395.298 Q791.515 394.928 789.108 394.187 L789.108 389.488 Q791.191 390.622 793.413 391.178 Q795.635 391.733 798.112 391.733 Q802.117 391.733 804.455 389.627 Q806.793 387.52 806.793 383.909 Q806.793 380.298 804.455 378.192 Q802.117 376.085 798.112 376.085 Q796.237 376.085 794.362 376.502 Q792.51 376.919 790.566 377.798 L790.566 360.437 Z" fill="#000000" fill-rule="evenodd" fill-opacity="1" /><path clip-path="url(#clip910)" d="M821.136 348.948 Q818.352 348.948 816.735 351.13 Q815.117 353.293 815.117 357.073 Q815.117 360.854 816.716 363.035 Q818.333 365.198 821.136 365.198 Q823.9 365.198 825.518 363.017 Q827.135 360.835 827.135 357.073 Q827.135 353.331 825.518 351.149 Q823.9 348.948 821.136 348.948 M821.136 346.014 Q825.65 346.014 828.226 348.948 Q830.803 351.882 830.803 357.073 Q830.803 362.245 828.226 365.198 Q825.65 368.132 821.136 368.132 Q816.603 368.132 814.026 365.198 Q811.469 362.245 811.469 357.073 Q811.469 351.882 814.026 348.948 Q816.603 346.014 821.136 346.014 Z" fill="#000000" fill-rule="evenodd" fill-opacity="1" /><path clip-path="url(#clip910)" d="M1233.93 192.183 L1233.93 187.924 Q1235.69 188.757 1237.5 189.197 Q1239.3 189.637 1241.04 189.637 Q1245.67 189.637 1248.1 186.535 Q1250.55 183.41 1250.9 177.067 Q1249.56 179.058 1247.5 180.123 Q1245.44 181.188 1242.94 181.188 Q1237.75 181.188 1234.72 178.063 Q1231.71 174.915 1231.71 169.475 Q1231.71 164.151 1234.86 160.933 Q1238.01 157.716 1243.24 157.716 Q1249.23 157.716 1252.38 162.322 Q1255.55 166.905 1255.55 175.655 Q1255.55 183.827 1251.66 188.711 Q1247.8 193.572 1241.25 193.572 Q1239.49 193.572 1237.68 193.225 Q1235.88 192.877 1233.93 192.183 M1243.24 177.53 Q1246.39 177.53 1248.22 175.378 Q1250.07 173.225 1250.07 169.475 Q1250.07 165.748 1248.22 163.595 Q1246.39 161.419 1243.24 161.419 Q1240.09 161.419 1238.24 163.595 Q1236.41 165.748 1236.41 169.475 Q1236.41 173.225 1238.24 175.378 Q1240.09 177.53 1243.24 177.53 Z" fill="#000000" fill-rule="evenodd" fill-opacity="1" /><path clip-path="url(#clip910)" d="M1273.96 161.419 Q1270.35 161.419 1268.52 164.984 Q1266.71 168.526 1266.71 175.655 Q1266.71 182.762 1268.52 186.327 Q1270.35 189.868 1273.96 189.868 Q1277.59 189.868 1279.4 186.327 Q1281.22 182.762 1281.22 175.655 Q1281.22 168.526 1279.4 164.984 Q1277.59 161.419 1273.96 161.419 M1273.96 157.716 Q1279.77 157.716 1282.82 162.322 Q1285.9 166.905 1285.9 175.655 Q1285.9 184.382 1282.82 188.989 Q1279.77 193.572 1273.96 193.572 Q1268.15 193.572 1265.07 188.989 Q1262.01 184.382 1262.01 175.655 Q1262.01 166.905 1265.07 162.322 Q1268.15 157.716 1273.96 157.716 Z" fill="#000000" fill-rule="evenodd" fill-opacity="1" /><path clip-path="url(#clip910)" d="M1295.57 146.852 Q1292.78 146.852 1291.17 149.033 Q1289.55 151.196 1289.55 154.977 Q1289.55 158.757 1291.15 160.939 Q1292.77 163.102 1295.57 163.102 Q1298.33 163.102 1299.95 160.92 Q1301.57 158.738 1301.57 154.977 Q1301.57 151.234 1299.95 149.052 Q1298.33 146.852 1295.57 146.852 M1295.57 143.918 Q1300.08 143.918 1302.66 146.852 Q1305.24 149.786 1305.24 154.977 Q1305.24 160.149 1302.66 163.102 Q1300.08 166.036 1295.57 166.036 Q1291.04 166.036 1288.46 163.102 Q1285.9 160.149 1285.9 154.977 Q1285.9 149.786 1288.46 146.852 Q1291.04 143.918 1295.57 143.918 Z" fill="#000000" fill-rule="evenodd" fill-opacity="1" /><path clip-path="url(#clip910)" d="M1735.38 364.511 L1723.57 382.96 L1735.38 382.96 L1735.38 364.511 M1734.15 360.437 L1740.03 360.437 L1740.03 382.96 L1744.96 382.96 L1744.96 386.849 L1740.03 386.849 L1740.03 394.997 L1735.38 394.997 L1735.38 386.849 L1719.78 386.849 L1719.78 382.335 L1734.15 360.437 Z" fill="#000000" fill-rule="evenodd" fill-opacity="1" /><path clip-path="url(#clip910)" d="M1752.74 360.437 L1771.1 360.437 L1771.1 364.372 L1757.02 364.372 L1757.02 372.845 Q1758.04 372.497 1759.06 372.335 Q1760.08 372.15 1761.1 372.15 Q1766.88 372.15 1770.26 375.321 Q1773.64 378.493 1773.64 383.909 Q1773.64 389.488 1770.17 392.59 Q1766.7 395.669 1760.38 395.669 Q1758.2 395.669 1755.94 395.298 Q1753.69 394.928 1751.28 394.187 L1751.28 389.488 Q1753.37 390.622 1755.59 391.178 Q1757.81 391.733 1760.29 391.733 Q1764.29 391.733 1766.63 389.627 Q1768.97 387.52 1768.97 383.909 Q1768.97 380.298 1766.63 378.192 Q1764.29 376.085 1760.29 376.085 Q1758.41 376.085 1756.54 376.502 Q1754.69 376.919 1752.74 377.798 L1752.74 360.437 Z" fill="#000000" fill-rule="evenodd" fill-opacity="1" /><path clip-path="url(#clip910)" d="M1783.31 348.948 Q1780.53 348.948 1778.91 351.13 Q1777.29 353.293 1777.29 357.073 Q1777.29 360.854 1778.89 363.035 Q1780.51 365.198 1783.31 365.198 Q1786.08 365.198 1787.69 363.017 Q1789.31 360.835 1789.31 357.073 Q1789.31 353.331 1787.69 351.149 Q1786.08 348.948 1783.31 348.948 M1783.31 346.014 Q1787.82 346.014 1790.4 348.948 Q1792.98 351.882 1792.98 357.073 Q1792.98 362.245 1790.4 365.198 Q1787.82 368.132 1783.31 368.132 Q1778.78 368.132 1776.2 365.198 Q1773.64 362.245 1773.64 357.073 Q1773.64 351.882 1776.2 348.948 Q1778.78 346.014 1783.31 346.014 Z" fill="#000000" fill-rule="evenodd" fill-opacity="1" /><path clip-path="url(#clip910)" d="M1277.22 844.973 Q1273.61 844.973 1271.78 848.538 Q1269.98 852.079 1269.98 859.209 Q1269.98 866.315 1271.78 869.88 Q1273.61 873.422 1277.22 873.422 Q1280.86 873.422 1282.66 869.88 Q1284.49 866.315 1284.49 859.209 Q1284.49 852.079 1282.66 848.538 Q1280.86 844.973 1277.22 844.973 M1277.22 841.269 Q1283.03 841.269 1286.09 845.876 Q1289.17 850.459 1289.17 859.209 Q1289.17 867.936 1286.09 872.542 Q1283.03 877.125 1277.22 877.125 Q1271.41 877.125 1268.33 872.542 Q1265.28 867.936 1265.28 859.209 Q1265.28 850.459 1268.33 845.876 Q1271.41 841.269 1277.22 841.269 Z" fill="#000000" fill-rule="evenodd" fill-opacity="1" /><path clip-path="url(#clip910)" d="M1297.38 870.575 L1302.27 870.575 L1302.27 876.454 L1297.38 876.454 L1297.38 870.575 Z" fill="#000000" fill-rule="evenodd" fill-opacity="1" /><path clip-path="url(#clip910)" d="M1322.45 844.973 Q1318.84 844.973 1317.01 848.538 Q1315.21 852.079 1315.21 859.209 Q1315.21 866.315 1317.01 869.88 Q1318.84 873.422 1322.45 873.422 Q1326.09 873.422 1327.89 869.88 Q1329.72 866.315 1329.72 859.209 Q1329.72 852.079 1327.89 848.538 Q1326.09 844.973 1322.45 844.973 M1322.45 841.269 Q1328.26 841.269 1331.32 845.876 Q1334.4 850.459 1334.4 859.209 Q1334.4 867.936 1331.32 872.542 Q1328.26 877.125 1322.45 877.125 Q1316.64 877.125 1313.56 872.542 Q1310.51 867.936 1310.51 859.209 Q1310.51 850.459 1313.56 845.876 Q1316.64 841.269 1322.45 841.269 Z" fill="#000000" fill-rule="evenodd" fill-opacity="1" /><path clip-path="url(#clip910)" d="M1271.57 723.202 L1287.89 723.202 L1287.89 727.137 L1265.95 727.137 L1265.95 723.202 Q1268.61 720.447 1273.19 715.818 Q1277.8 711.165 1278.98 709.822 Q1281.23 707.299 1282.11 705.563 Q1283.01 703.804 1283.01 702.114 Q1283.01 699.359 1281.06 697.623 Q1279.14 695.887 1276.04 695.887 Q1273.84 695.887 1271.39 696.651 Q1268.96 697.415 1266.18 698.966 L1266.18 694.244 Q1269 693.11 1271.46 692.531 Q1273.91 691.952 1275.95 691.952 Q1281.32 691.952 1284.51 694.637 Q1287.71 697.322 1287.71 701.813 Q1287.71 703.943 1286.9 705.864 Q1286.11 707.762 1284 710.355 Q1283.43 711.026 1280.32 714.244 Q1277.22 717.438 1271.57 723.202 Z" fill="#000000" fill-rule="evenodd" fill-opacity="1" /><path clip-path="url(#clip910)" d="M1297.71 721.257 L1302.59 721.257 L1302.59 727.137 L1297.71 727.137 L1297.71 721.257 Z" fill="#000000" fill-rule="evenodd" fill-opacity="1" /><path clip-path="url(#clip910)" d="M1312.82 692.577 L1331.18 692.577 L1331.18 696.512 L1317.11 696.512 L1317.11 704.984 Q1318.12 704.637 1319.14 704.475 Q1320.16 704.29 1321.18 704.29 Q1326.97 704.29 1330.35 707.461 Q1333.73 710.633 1333.73 716.049 Q1333.73 721.628 1330.25 724.73 Q1326.78 727.808 1320.46 727.808 Q1318.29 727.808 1316.02 727.438 Q1313.77 727.068 1311.36 726.327 L1311.36 721.628 Q1313.45 722.762 1315.67 723.318 Q1317.89 723.873 1320.37 723.873 Q1324.37 723.873 1326.71 721.767 Q1329.05 719.66 1329.05 716.049 Q1329.05 712.438 1326.71 710.332 Q1324.37 708.225 1320.37 708.225 Q1318.49 708.225 1316.62 708.642 Q1314.77 709.058 1312.82 709.938 L1312.82 692.577 Z" fill="#000000" fill-rule="evenodd" fill-opacity="1" /><path clip-path="url(#clip910)" d="M1267 543.26 L1285.36 543.26 L1285.36 547.195 L1271.28 547.195 L1271.28 555.667 Q1272.3 555.32 1273.32 555.158 Q1274.34 554.973 1275.36 554.973 Q1281.14 554.973 1284.52 558.144 Q1287.9 561.316 1287.9 566.732 Q1287.9 572.311 1284.43 575.413 Q1280.96 578.491 1274.64 578.491 Q1272.46 578.491 1270.2 578.121 Q1267.95 577.751 1265.54 577.01 L1265.54 572.311 Q1267.63 573.445 1269.85 574.001 Q1272.07 574.556 1274.55 574.556 Q1278.55 574.556 1280.89 572.45 Q1283.23 570.343 1283.23 566.732 Q1283.23 563.121 1280.89 561.015 Q1278.55 558.908 1274.55 558.908 Q1272.67 558.908 1270.8 559.325 Q1268.95 559.741 1267 560.621 L1267 543.26 Z" fill="#000000" fill-rule="evenodd" fill-opacity="1" /><path clip-path="url(#clip910)" d="M1297.12 571.94 L1302 571.94 L1302 577.82 L1297.12 577.82 L1297.12 571.94 Z" fill="#000000" fill-rule="evenodd" fill-opacity="1" /><path clip-path="url(#clip910)" d="M1322.19 546.339 Q1318.58 546.339 1316.75 549.904 Q1314.94 553.445 1314.94 560.575 Q1314.94 567.681 1316.75 571.246 Q1318.58 574.788 1322.19 574.788 Q1325.82 574.788 1327.63 571.246 Q1329.45 567.681 1329.45 560.575 Q1329.45 553.445 1327.63 549.904 Q1325.82 546.339 1322.19 546.339 M1322.19 542.635 Q1328 542.635 1331.05 547.242 Q1334.13 551.825 1334.13 560.575 Q1334.13 569.302 1331.05 573.908 Q1328 578.491 1322.19 578.491 Q1316.38 578.491 1313.3 573.908 Q1310.24 569.302 1310.24 560.575 Q1310.24 551.825 1313.3 547.242 Q1316.38 542.635 1322.19 542.635 Z" fill="#000000" fill-rule="evenodd" fill-opacity="1" /><path clip-path="url(#clip910)" d="M1266.16 393.943 L1288.38 393.943 L1288.38 395.934 L1275.83 428.503 L1270.95 428.503 L1282.75 397.878 L1266.16 397.878 L1266.16 393.943 Z" fill="#000000" fill-rule="evenodd" fill-opacity="1" /><path clip-path="url(#clip910)" d="M1297.5 422.623 L1302.38 422.623 L1302.38 428.503 L1297.5 428.503 L1297.5 422.623 Z" fill="#000000" fill-rule="evenodd" fill-opacity="1" /><path clip-path="url(#clip910)" d="M1312.61 393.943 L1330.97 393.943 L1330.97 397.878 L1316.9 397.878 L1316.9 406.35 Q1317.92 406.003 1318.93 405.841 Q1319.95 405.656 1320.97 405.656 Q1326.76 405.656 1330.14 408.827 Q1333.52 411.998 1333.52 417.415 Q1333.52 422.994 1330.05 426.096 Q1326.57 429.174 1320.25 429.174 Q1318.08 429.174 1315.81 428.804 Q1313.56 428.434 1311.16 427.693 L1311.16 422.994 Q1313.24 424.128 1315.46 424.684 Q1317.68 425.239 1320.16 425.239 Q1324.17 425.239 1326.5 423.133 Q1328.84 421.026 1328.84 417.415 Q1328.84 413.804 1326.5 411.698 Q1324.17 409.591 1320.16 409.591 Q1318.29 409.591 1316.41 410.008 Q1314.56 410.424 1312.61 411.304 L1312.61 393.943 Z" fill="#000000" fill-rule="evenodd" fill-opacity="1" /><path clip-path="url(#clip910)" d="M1251.91 275.251 L1259.55 275.251 L1259.55 248.885 L1251.24 250.552 L1251.24 246.293 L1259.5 244.626 L1264.18 244.626 L1264.18 275.251 L1271.82 275.251 L1271.82 279.186 L1251.91 279.186 L1251.91 275.251 Z" fill="#000000" fill-rule="evenodd" fill-opacity="1" /><path clip-path="url(#clip910)" d="M1291.26 247.705 Q1287.65 247.705 1285.82 251.269 Q1284.02 254.811 1284.02 261.941 Q1284.02 269.047 1285.82 272.612 Q1287.65 276.154 1291.26 276.154 Q1294.89 276.154 1296.7 272.612 Q1298.53 269.047 1298.53 261.941 Q1298.53 254.811 1296.7 251.269 Q1294.89 247.705 1291.26 247.705 M1291.26 244.001 Q1297.07 244.001 1300.13 248.607 Q1303.21 253.191 1303.21 261.941 Q1303.21 270.668 1300.13 275.274 Q1297.07 279.857 1291.26 279.857 Q1285.45 279.857 1282.37 275.274 Q1279.32 270.668 1279.32 261.941 Q1279.32 253.191 1282.37 248.607 Q1285.45 244.001 1291.26 244.001 Z" fill="#000000" fill-rule="evenodd" fill-opacity="1" /><path clip-path="url(#clip910)" d="M1311.42 273.306 L1316.31 273.306 L1316.31 279.186 L1311.42 279.186 L1311.42 273.306 Z" fill="#000000" fill-rule="evenodd" fill-opacity="1" /><path clip-path="url(#clip910)" d="M1336.49 247.705 Q1332.88 247.705 1331.05 251.269 Q1329.25 254.811 1329.25 261.941 Q1329.25 269.047 1331.05 272.612 Q1332.88 276.154 1336.49 276.154 Q1340.13 276.154 1341.93 272.612 Q1343.76 269.047 1343.76 261.941 Q1343.76 254.811 1341.93 251.269 Q1340.13 247.705 1336.49 247.705 M1336.49 244.001 Q1342.3 244.001 1345.36 248.607 Q1348.44 253.191 1348.44 261.941 Q1348.44 270.668 1345.36 275.274 Q1342.3 279.857 1336.49 279.857 Q1330.68 279.857 1327.6 275.274 Q1324.55 270.668 1324.55 261.941 Q1324.55 253.191 1327.6 248.607 Q1330.68 244.001 1336.49 244.001 Z" fill="#000000" fill-rule="evenodd" fill-opacity="1" /><path clip-path="url(#clip910)" d="M931.539 11.0023 Q941.505 11.0023 947.824 15.2557 Q954.143 19.4686 954.143 26.6793 Q954.143 31.7024 951.267 35.1862 Q948.391 38.6294 943.084 39.9662 Q948.958 41.222 952.239 45.1919 Q955.561 49.1618 955.561 54.9951 Q955.561 64.3122 948.351 69.0517 Q941.18 73.7508 931.539 73.7508 Q926.597 73.7508 920.845 72.414 Q915.093 71.0772 913.31 69.9429 L913.31 61.517 Q919.508 65.1223 922.911 66.0135 Q926.354 66.8642 931.377 66.8642 Q938.993 66.8642 943.206 63.9476 Q947.419 61.0309 947.419 54.9951 Q947.419 49.6479 943.652 46.6502 Q939.925 43.612 932.025 43.612 L923.762 43.612 L923.762 36.8875 L932.35 36.8875 Q939.601 36.8875 942.801 34.4975 Q946.001 32.067 946.001 27.5299 Q946.001 22.8714 942.679 20.4004 Q939.398 17.8888 931.377 17.8888 Q925.949 17.8888 924.086 18.3749 Q922.222 18.861 913.918 21.9802 L913.918 13.9999 Q918.495 12.3796 923.275 11.6909 Q928.056 11.0023 931.539 11.0023 Z" fill="#000000" fill-rule="evenodd" fill-opacity="1" /><path clip-path="url(#clip910)" d="M989.467 49.7694 Q980.434 49.7694 976.95 51.8354 Q973.466 53.9013 973.466 58.8839 Q973.466 62.8538 976.059 65.2034 Q978.692 67.5124 983.188 67.5124 Q989.386 67.5124 993.113 63.1374 Q996.88 58.7219 996.88 51.4303 L996.88 49.7694 L989.467 49.7694 M1004.33 46.6907 L1004.33 72.576 L996.88 72.576 L996.88 65.6895 Q994.328 69.8214 990.52 71.8063 Q986.713 73.7508 981.203 73.7508 Q974.236 73.7508 970.104 69.8619 Q966.013 65.9325 966.013 59.3701 Q966.013 51.7138 971.117 47.825 Q976.261 43.9361 986.429 43.9361 L996.88 43.9361 L996.88 43.2069 Q996.88 38.0623 993.478 35.2672 Q990.115 32.4315 983.999 32.4315 Q980.11 32.4315 976.423 33.3632 Q972.737 34.295 969.334 36.1584 L969.334 29.2718 Q973.426 27.692 977.274 26.9223 Q981.122 26.1121 984.768 26.1121 Q994.612 26.1121 999.473 31.2163 Q1004.33 36.3204 1004.33 46.6907 Z" fill="#000000" fill-rule="evenodd" fill-opacity="1" /><path clip-path="url(#clip910)" d="M1029.81 66.6212 L1051.45 66.6212 L1051.45 33.1607 L1035.77 33.1607 L1035.77 38.832 Q1035.77 55.5217 1030.99 64.4337 L1029.81 66.6212 M1019 66.6212 Q1022.68 65.0008 1024.31 61.5575 Q1028.27 53.0101 1028.27 35.7938 L1028.27 27.2059 L1058.94 27.2059 L1058.94 66.6212 L1064.9 66.6212 L1064.9 84.0401 L1058.94 84.0401 L1058.94 72.576 L1022.16 72.576 L1022.16 84.0401 L1016.2 84.0401 L1016.2 66.6212 L1019 66.6212 Z" fill="#000000" fill-rule="evenodd" fill-opacity="1" /><path clip-path="url(#clip910)" d="M1097.67 49.7694 Q1088.63 49.7694 1085.15 51.8354 Q1081.67 53.9013 1081.67 58.8839 Q1081.67 62.8538 1084.26 65.2034 Q1086.89 67.5124 1091.39 67.5124 Q1097.59 67.5124 1101.31 63.1374 Q1105.08 58.7219 1105.08 51.4303 L1105.08 49.7694 L1097.67 49.7694 M1112.53 46.6907 L1112.53 72.576 L1105.08 72.576 L1105.08 65.6895 Q1102.53 69.8214 1098.72 71.8063 Q1094.91 73.7508 1089.4 73.7508 Q1082.44 73.7508 1078.3 69.8619 Q1074.21 65.9325 1074.21 59.3701 Q1074.21 51.7138 1079.32 47.825 Q1084.46 43.9361 1094.63 43.9361 L1105.08 43.9361 L1105.08 43.2069 Q1105.08 38.0623 1101.68 35.2672 Q1098.32 32.4315 1092.2 32.4315 Q1088.31 32.4315 1084.62 33.3632 Q1080.94 34.295 1077.53 36.1584 L1077.53 29.2718 Q1081.63 27.692 1085.47 26.9223 Q1089.32 26.1121 1092.97 26.1121 Q1102.81 26.1121 1107.67 31.2163 Q1112.53 36.3204 1112.53 46.6907 Z" fill="#000000" fill-rule="evenodd" fill-opacity="1" /><path clip-path="url(#clip910)" d="M1154.1 72.576 L1154.1 53.4962 L1140.2 53.4962 Q1134 53.4962 1129.87 49.6479 Q1126.14 46.1641 1126.14 38.7104 L1126.14 27.2059 L1133.6 27.2059 L1133.6 38.0218 Q1133.6 42.7613 1135.7 45.1514 Q1137.85 47.5414 1142.06 47.5414 L1154.1 47.5414 L1154.1 27.2059 L1161.55 27.2059 L1161.55 72.576 L1154.1 72.576 Z" fill="#000000" fill-rule="evenodd" fill-opacity="1" /><path clip-path="url(#clip910)" d="M1197.52 49.7694 Q1188.49 49.7694 1185 51.8354 Q1181.52 53.9013 1181.52 58.8839 Q1181.52 62.8538 1184.11 65.2034 Q1186.75 67.5124 1191.24 67.5124 Q1197.44 67.5124 1201.17 63.1374 Q1204.93 58.7219 1204.93 51.4303 L1204.93 49.7694 L1197.52 49.7694 M1212.39 46.6907 L1212.39 72.576 L1204.93 72.576 L1204.93 65.6895 Q1202.38 69.8214 1198.57 71.8063 Q1194.77 73.7508 1189.26 73.7508 Q1182.29 73.7508 1178.16 69.8619 Q1174.07 65.9325 1174.07 59.3701 Q1174.07 51.7138 1179.17 47.825 Q1184.32 43.9361 1194.48 43.9361 L1204.93 43.9361 L1204.93 43.2069 Q1204.93 38.0623 1201.53 35.2672 Q1198.17 32.4315 1192.05 32.4315 Q1188.16 32.4315 1184.48 33.3632 Q1180.79 34.295 1177.39 36.1584 L1177.39 29.2718 Q1181.48 27.692 1185.33 26.9223 Q1189.18 26.1121 1192.82 26.1121 Q1202.67 26.1121 1207.53 31.2163 Q1212.39 36.3204 1212.39 46.6907 Z" fill="#000000" fill-rule="evenodd" fill-opacity="1" /><path clip-path="url(#clip910)" d="M1271.69 32.4315 Q1265.7 32.4315 1262.21 37.1306 Q1258.73 41.7891 1258.73 49.9314 Q1258.73 58.0738 1262.17 62.7728 Q1265.66 67.4314 1271.69 67.4314 Q1277.65 67.4314 1281.13 62.7323 Q1284.62 58.0333 1284.62 49.9314 Q1284.62 41.8701 1281.13 37.1711 Q1277.65 32.4315 1271.69 32.4315 M1271.69 26.1121 Q1281.42 26.1121 1286.97 32.4315 Q1292.52 38.7509 1292.52 49.9314 Q1292.52 61.0714 1286.97 67.4314 Q1281.42 73.7508 1271.69 73.7508 Q1261.93 73.7508 1256.38 67.4314 Q1250.87 61.0714 1250.87 49.9314 Q1250.87 38.7509 1256.38 32.4315 Q1261.93 26.1121 1271.69 26.1121 Z" fill="#000000" fill-rule="evenodd" fill-opacity="1" /><path clip-path="url(#clip910)" d="M1370.13 27.2059 L1370.13 72.576 L1362.64 72.576 L1362.64 33.1607 L1338.45 33.1607 L1338.45 72.576 L1330.96 72.576 L1330.96 27.2059 L1370.13 27.2059 Z" fill="#000000" fill-rule="evenodd" fill-opacity="1" /><path clip-path="url(#clip910)" d="M1403.06 32.4315 Q1397.07 32.4315 1393.59 37.1306 Q1390.1 41.7891 1390.1 49.9314 Q1390.1 58.0738 1393.54 62.7728 Q1397.03 67.4314 1403.06 67.4314 Q1409.02 67.4314 1412.5 62.7323 Q1415.99 58.0333 1415.99 49.9314 Q1415.99 41.8701 1412.5 37.1711 Q1409.02 32.4315 1403.06 32.4315 M1403.06 26.1121 Q1412.79 26.1121 1418.34 32.4315 Q1423.89 38.7509 1423.89 49.9314 Q1423.89 61.0714 1418.34 67.4314 Q1412.79 73.7508 1403.06 73.7508 Q1393.3 73.7508 1387.75 67.4314 Q1382.24 61.0714 1382.24 49.9314 Q1382.24 38.7509 1387.75 32.4315 Q1393.3 26.1121 1403.06 26.1121 Z" fill="#000000" fill-rule="evenodd" fill-opacity="1" /><path clip-path="url(#clip910)" d="M1435.96 72.576 L1435.96 27.2059 L1467.96 27.2059 L1467.96 33.1607 L1443.45 33.1607 L1443.45 72.576 L1435.96 72.576 Z" fill="#000000" fill-rule="evenodd" fill-opacity="1" /><path clip-path="url(#clip910)" d="M1497.41 32.4315 Q1491.41 32.4315 1487.93 37.1306 Q1484.45 41.7891 1484.45 49.9314 Q1484.45 58.0738 1487.89 62.7728 Q1491.37 67.4314 1497.41 67.4314 Q1503.36 67.4314 1506.85 62.7323 Q1510.33 58.0333 1510.33 49.9314 Q1510.33 41.8701 1506.85 37.1711 Q1503.36 32.4315 1497.41 32.4315 M1497.41 26.1121 Q1507.13 26.1121 1512.68 32.4315 Q1518.23 38.7509 1518.23 49.9314 Q1518.23 61.0714 1512.68 67.4314 Q1507.13 73.7508 1497.41 73.7508 Q1487.65 73.7508 1482.1 67.4314 Q1476.59 61.0714 1476.59 49.9314 Q1476.59 38.7509 1482.1 32.4315 Q1487.65 26.1121 1497.41 26.1121 Z" fill="#000000" fill-rule="evenodd" fill-opacity="1" /><path clip-path="url(#clip910)" d="M1530.3 27.2059 L1537.8 27.2059 L1537.8 45.7185 L1561.98 45.7185 L1561.98 27.2059 L1569.48 27.2059 L1569.48 72.576 L1561.98 72.576 L1561.98 51.6733 L1537.8 51.6733 L1537.8 72.576 L1530.3 72.576 L1530.3 27.2059 Z" fill="#000000" fill-rule="evenodd" fill-opacity="1" /><path clip-path="url(#clip910)" d="M1623.64 48.0275 L1623.64 51.6733 L1589.37 51.6733 Q1589.85 59.3701 1593.98 63.421 Q1598.16 67.4314 1605.57 67.4314 Q1609.86 67.4314 1613.87 66.3781 Q1617.92 65.3249 1621.89 63.2184 L1621.89 70.267 Q1617.88 71.9684 1613.67 72.8596 Q1609.46 73.7508 1605.12 73.7508 Q1594.27 73.7508 1587.91 67.4314 Q1581.59 61.1119 1581.59 50.3365 Q1581.59 39.1965 1587.58 32.6746 Q1593.62 26.1121 1603.83 26.1121 Q1612.98 26.1121 1618.29 32.0264 Q1623.64 37.9003 1623.64 48.0275 M1616.18 45.84 Q1616.1 39.7232 1612.74 36.0774 Q1609.42 32.4315 1603.91 32.4315 Q1597.67 32.4315 1593.9 35.9558 Q1590.18 39.4801 1589.61 45.8805 L1616.18 45.84 Z" fill="#000000" fill-rule="evenodd" fill-opacity="1" /><polyline clip-path="url(#clip913)" style="stroke:#008000; stroke-linecap:round; stroke-linejoin:round; stroke-width:4; stroke-opacity:1; fill:none" points="996.858,859.174 996.616,873.059 997.084,886.968 998.264,900.866 1000.16,914.716 1002.76,928.48 1006.07,942.123 1010.09,955.608 1014.79,968.899 1020.19,981.961 1026.25,994.757 1032.98,1007.25 1040.35,1019.42 1048.35,1031.21 1056.96,1042.61 1066.16,1053.57 1075.93,1064.07 1086.24,1074.08 1097.08,1083.57 1108.41,1092.52 1120.21,1100.89 1132.45,1108.66 1145.09,1115.81 1158.11,1122.32 1171.47,1128.17 1185.15,1133.34 1199.09,1137.81 1213.28,1141.57 1227.67,1144.61 1242.23,1146.92 1256.92,1148.48 1271.7,1149.29 1286.53,1149.34 1301.37,1148.64 1316.19,1147.17 1330.95,1144.94 1345.6,1141.96 1360.11,1138.23 1374.44,1133.75 1388.55,1128.53 1402.4,1122.59 1415.96,1115.93 1429.19,1108.58 1442.05,1100.54 1454.51,1091.84 1466.53,1082.49 1478.08,1072.52 1489.13,1061.96 1499.65,1050.82 1509.6,1039.14 1518.96,1026.94 1527.71,1014.25 1535.81,1001.1 1543.24,987.534 1549.98,973.577 1556.02,959.266 1561.32,944.636 1565.88,929.725 1569.68,914.572 1572.7,899.214 1574.95,883.691 1576.39,868.044 1577.04,852.313 1576.89,836.539 1575.92,820.763 1574.15,805.027 1571.57,789.372 1568.19,773.839 1564.02,758.469 1559.05,743.304 1553.3,728.384 1546.79,713.75 1539.53,699.439 1531.52,685.493 1522.8,671.947 1513.38,658.84 1503.29,646.207 1492.54,634.084 1481.17,622.504 1469.2,611.499 1456.65,601.1 1443.57,591.338 1429.98,582.239 1415.92,573.831 1401.42,566.137 1386.52,559.182 1371.25,552.985 1355.66,547.565 1339.79,542.941 1323.67,539.127 1307.34,536.135 1290.85,533.977 1274.25,532.662 1257.57,532.195 1240.85,532.582 1224.15,533.824 1207.5,535.922 1190.95,538.872 1174.54,542.671 1158.32,547.311 1142.33,552.783 1126.61,559.076 1111.21,566.176 1096.16,574.068 1081.51,582.734 1067.29,592.153 1053.55,602.305 1040.32,613.164 1027.64,624.705 1015.55,636.9 1004.07,649.72 993.243,663.132 983.098,677.105 973.663,691.603 964.966,706.59 957.032,722.029 949.884,737.881 943.543,754.106 938.03,770.662 933.361,787.507 929.552,804.599 926.616,821.892 924.563,839.344 923.402,856.907 923.139,874.538 923.778,892.19 925.319,909.816 927.763,927.37 931.107,944.807 935.343,962.08 940.465,979.144 946.461,995.952 953.32,1012.46 961.026,1028.62 969.561,1044.4 978.907,1059.75 989.042,1074.62 999.941,1088.98 1011.58,1102.79 1023.93,1116.01 1036.96,1128.6 1050.64,1140.53 1064.93,1151.77 1079.8,1162.27 1095.22,1172.03 1111.14,1180.99 1127.53,1189.15 1144.33,1196.47 1161.52,1202.93 1179.05,1208.52 1196.86,1213.21 1214.93,1216.99 1233.19,1219.85 1251.61,1221.78 1270.13,1222.76 1288.7,1222.8 1307.29,1221.89 1325.83,1220.03 1344.29,1217.22 1362.61,1213.46 1380.74,1208.77 1398.63,1203.15 1416.25,1196.61 1433.54,1189.16 1450.45,1180.83 1466.94,1171.64 1482.96,1161.6 1498.48,1150.73 1513.44,1139.07 1527.82,1126.64 1541.56,1113.47 1554.63,1099.59 1567,1085.04 1578.63,1069.86 1589.48,1054.07 1599.53,1037.73 1608.74,1020.87 1617.1,1003.53 1624.57,985.758 1631.14,967.601 1636.78,949.103 1641.47,930.312 1645.21,911.276 1647.97,892.043 1649.75,872.665 1650.54,853.19 1650.33,833.67 1649.12,814.156 1646.92,794.698 1643.72,775.348 1639.53,756.157 1634.36,737.175 1628.22,718.453 1621.12,700.041 1613.07,681.988 1604.1,664.342 1594.23,647.15 1583.47,630.459 1571.86,614.314 1559.42,598.759 1546.19,583.837 1532.18,569.589 1517.45,556.053 1502.02,543.268 1485.93,531.269 1469.22,520.09 1451.95,509.763 1434.13,500.317 1415.84,491.78 1397.1,484.177 1377.97,477.53 1358.49,471.86 1338.73,467.184 1318.72,463.519 1298.51,460.875 1278.17,459.264 1257.75,458.693 1237.29,459.166 1216.85,460.685 1196.48,463.249 1176.24,466.855 1156.19,471.497 1136.36,477.164 1116.83,483.846 1097.63,491.528 1078.82,500.193 1060.45,509.821 1042.57,520.39 1025.23,531.874 1008.47,544.247 992.34,557.478 976.885,571.537 962.147,586.387 948.166,601.993 934.981,618.316 922.628,635.315 911.143,652.949 900.557,671.172 890.901,689.939 882.204,709.202 874.49,728.912 867.783,749.019 862.102,769.472 857.467,790.218 853.891,811.203 851.388,832.374 849.967,853.676 849.634,875.052 850.394,896.449 852.248,917.808 855.195,939.076 859.228,960.195 864.342,981.111 870.525,1001.77 877.765,1022.11 886.046,1042.08 895.349,1061.64 905.652,1080.72 916.931,1099.27 929.16,1117.25 942.309,1134.61 956.347,1151.3 971.239,1167.27 986.949,1182.48 1003.44,1196.89 1020.66,1210.45 1038.58,1223.14 1057.16,1234.91 1076.33,1245.74 1096.06,1255.58 1116.29,1264.42 1136.98,1272.22 1158.07,1278.97 1179.5,1284.64 1201.23,1289.21 1223.19,1292.68 1245.33,1295.02 1267.59,1296.23 1289.91,1296.3 1312.24,1295.24 1334.52,1293.03 1356.68,1289.68 1378.67,1285.2 1400.44,1279.59 1421.92,1272.87 1443.06,1265.06 1463.8,1256.16 1484.08,1246.2 1503.86,1235.2 1523.08,1223.2 1541.68,1210.21 1559.62,1196.27 1576.85,1181.41 1593.32,1165.67 1608.98,1149.09 1623.8,1131.71 1637.73,1113.57 1650.74,1094.72 1662.78,1075.2 1673.82,1055.06 1683.83,1034.37 1692.79,1013.16 1700.66,991.486 1707.43,969.415 1713.07,946.997 1717.56,924.291 1720.89,901.355 1723.05,878.249 1724.03,855.032 1723.82,831.765 1722.42,808.508 1719.84,785.323 1716.07,762.27 1711.12,739.409 1705,716.802 1697.73,694.508 1689.32,672.585 1679.78,651.092 1669.15,630.087 1657.45,609.625 1644.7,589.761 1630.93,570.55 1616.19,552.042 1600.5,534.288 1583.9,517.336 1566.43,501.233 1548.15,486.023 1529.08,471.748 1509.29,458.448 1488.82,446.159 1467.72,434.917 1446.04,424.753 1423.85,415.698 1401.2,407.777 1378.14,401.014 1354.74,395.429 1331.05,391.041 1307.14,387.863 1283.06,385.908 1258.89,385.182 1234.69,385.692 1210.51,387.439 1186.42,390.422 1162.48,394.635 1138.76,400.071 1115.32,406.719 1092.22,414.565 1069.53,423.59 1047.29,433.775 1025.58,445.096 1004.45,457.525 983.949,471.034 964.144,485.588 945.084,501.155 926.821,517.694 909.405,535.165 892.882,553.525 877.299,572.727 862.698,592.725 849.12,613.468 836.603,634.902 825.182,656.975 814.89,679.629 805.757,702.808 797.808,726.451 791.069,750.499 785.559,774.889 781.295,799.558 778.293,824.443 776.562,849.479 776.111,874.602 776.944,899.745 779.061,924.843 782.46,949.831 787.136,974.642 793.08,999.212 800.278,1023.48 808.715,1047.37 818.372,1070.83 829.228,1093.79 841.255,1116.2 854.426,1137.99 868.709,1159.11 884.069,1179.49 900.469,1199.09 917.869,1217.84 936.224,1235.71 955.491,1252.63 975.62,1268.57 996.561,1283.48 1018.26,1297.31 1040.67,1310.04 1063.72,1321.62 1087.36,1332.02 1111.53,1341.21 1136.16,1349.16 1161.2,1355.86 1186.58,1361.27 1212.23,1365.39 1238.09,1368.19 1264.09,1369.68 1290.16,1369.83 1316.23,1368.66 1342.24,1366.15 1368.12,1362.31 1393.8,1357.15 1419.22,1350.68 1444.29,1342.92 1468.97,1333.87 1493.18,1323.56 1516.87,1312.02 1539.95,1299.27 1562.39,1285.34 1584.11,1270.27 1605.05,1254.09 1625.17,1236.84 1644.4,1218.57 1662.69,1199.31 1680,1179.13 1696.27,1158.06 1711.47,1136.17 1725.54,1113.5 1738.46,1090.12 1750.17,1066.08 1760.66,1041.45 1769.89,1016.29 1777.83,990.658 1784.46,964.625 1789.75,938.259 1793.7,911.626 1796.29,884.796 1797.51,857.839 1797.35,830.824 1795.81,803.822 1792.89,776.903 1788.59,750.139 1782.93,723.599 1775.92,697.353 1767.56,671.47 1757.88,646.019 1746.91,621.066 1734.66,596.68 1721.17,572.923 1706.47,549.86 1690.59,527.553 1673.58,506.061 1655.47,485.443 1636.31,465.753 1616.15,447.047 1595.04,429.374 1573.02,412.783 1550.17,397.319 1526.53,383.027 1502.16,369.945 1477.13,358.111 1451.51,347.557 1425.34,338.315 1398.72,330.412 1371.69,323.87 1344.33,318.711 1316.72,314.95 1288.92,312.601 1261.01,311.672 1233.05,312.17 1205.13,314.096 1177.31,317.447 1149.66,322.22 1122.27,328.403 1095.2,335.984 1068.52,344.947 1042.31,355.27 1016.63,366.93 991.55,379.9 967.139,394.148 943.462,409.639 920.581,426.337 898.559,444.199 877.454,463.183 857.324,483.24 838.223,504.321 820.203,526.373 803.314,549.34 787.603,573.164 773.112,597.786 759.882,623.142 747.951,649.167 737.352,675.796 728.116,702.96 720.27,730.589 713.837,758.612 708.837,786.957 705.287,815.551 703.198,844.318 702.579,873.185 703.435,902.077 705.766,930.918 709.57,959.632 714.84,988.145 721.565,1016.38 729.731,1044.27 739.319,1071.73 "/>
<polyline clip-path="url(#clip913)" style="stroke:#ff0000; stroke-linecap:round; stroke-linejoin:round; stroke-width:4; stroke-opacity:1; fill:none" points="1268.47,859.174 1029.57,445.375 "/>
<polyline clip-path="url(#clip913)" style="stroke:#ff0000; stroke-linecap:round; stroke-linejoin:round; stroke-width:4; stroke-opacity:1; fill:none" points="1268.47,859.174 1029.57,445.375 "/>
</svg>
