<?xml version="1.0" encoding="utf-8"?>
<svg xmlns="http://www.w3.org/2000/svg" xmlns:xlink="http://www.w3.org/1999/xlink" width="600" height="400" viewBox="0 0 2400 1600">
<defs>
  <clipPath id="clip010">
    <rect x="0" y="0" width="2400" height="1600"/>
  </clipPath>
</defs>
<path clip-path="url(#clip010)" d="M0 1600 L2400 1600 L2400 0 L0 0  Z" fill="#ffffff" fill-rule="evenodd" fill-opacity="1"/>
<defs>
  <clipPath id="clip011">
    <rect x="480" y="0" width="1681" height="1600"/>
  </clipPath>
</defs>
<path clip-path="url(#clip010)" d="M169.121 1486.45 L2352.76 1486.45 L2352.76 47.2441 L169.121 47.2441  Z" fill="#ffffff" fill-rule="evenodd" fill-opacity="1"/>
<defs>
  <clipPath id="clip012">
    <rect x="169" y="47" width="2185" height="1440"/>
  </clipPath>
</defs>
<polyline clip-path="url(#clip012)" style="stroke:#000000; stroke-linecap:round; stroke-linejoin:round; stroke-width:2; stroke-opacity:0.1; fill:none" points="230.922,1486.45 230.922,47.2441 "/>
<polyline clip-path="url(#clip012)" style="stroke:#000000; stroke-linecap:round; stroke-linejoin:round; stroke-width:2; stroke-opacity:0.1; fill:none" points="745.93,1486.45 745.93,47.2441 "/>
<polyline clip-path="url(#clip012)" style="stroke:#000000; stroke-linecap:round; stroke-linejoin:round; stroke-width:2; stroke-opacity:0.1; fill:none" points="1260.94,1486.45 1260.94,47.2441 "/>
<polyline clip-path="url(#clip012)" style="stroke:#000000; stroke-linecap:round; stroke-linejoin:round; stroke-width:2; stroke-opacity:0.1; fill:none" points="1775.95,1486.45 1775.95,47.2441 "/>
<polyline clip-path="url(#clip012)" style="stroke:#000000; stroke-linecap:round; stroke-linejoin:round; stroke-width:2; stroke-opacity:0.1; fill:none" points="2290.95,1486.45 2290.95,47.2441 "/>
<polyline clip-path="url(#clip010)" style="stroke:#000000; stroke-linecap:round; stroke-linejoin:round; stroke-width:4; stroke-opacity:1; fill:none" points="169.121,1486.45 2352.76,1486.45 "/>
<polyline clip-path="url(#clip010)" style="stroke:#000000; stroke-linecap:round; stroke-linejoin:round; stroke-width:4; stroke-opacity:1; fill:none" points="230.922,1486.45 230.922,1467.55 "/>
<polyline clip-path="url(#clip010)" style="stroke:#000000; stroke-linecap:round; stroke-linejoin:round; stroke-width:4; stroke-opacity:1; fill:none" points="745.93,1486.45 745.93,1467.55 "/>
<polyline clip-path="url(#clip010)" style="stroke:#000000; stroke-linecap:round; stroke-linejoin:round; stroke-width:4; stroke-opacity:1; fill:none" points="1260.94,1486.45 1260.94,1467.55 "/>
<polyline clip-path="url(#clip010)" style="stroke:#000000; stroke-linecap:round; stroke-linejoin:round; stroke-width:4; stroke-opacity:1; fill:none" points="1775.95,1486.45 1775.95,1467.55 "/>
<polyline clip-path="url(#clip010)" style="stroke:#000000; stroke-linecap:round; stroke-linejoin:round; stroke-width:4; stroke-opacity:1; fill:none" points="2290.95,1486.45 2290.95,1467.55 "/>
<path clip-path="url(#clip010)" d="M230.922 1517.37 Q227.311 1517.37 225.483 1520.93 Q223.677 1524.47 223.677 1531.6 Q223.677 1538.71 225.483 1542.27 Q227.311 1545.82 230.922 1545.82 Q234.557 1545.82 236.362 1542.27 Q238.191 1538.71 238.191 1531.6 Q238.191 1524.47 236.362 1520.93 Q234.557 1517.37 230.922 1517.37 M230.922 1513.66 Q236.732 1513.66 239.788 1518.27 Q242.867 1522.85 242.867 1531.6 Q242.867 1540.33 239.788 1544.94 Q236.732 1549.52 230.922 1549.52 Q225.112 1549.52 222.033 1544.94 Q218.978 1540.33 218.978 1531.6 Q218.978 1522.85 222.033 1518.27 Q225.112 1513.66 230.922 1513.66 Z" fill="#000000" fill-rule="evenodd" fill-opacity="1" /><path clip-path="url(#clip010)" d="M736.208 1514.29 L754.565 1514.29 L754.565 1518.22 L740.491 1518.22 L740.491 1526.7 Q741.509 1526.35 742.528 1526.19 Q743.546 1526 744.565 1526 Q750.352 1526 753.731 1529.17 Q757.111 1532.34 757.111 1537.76 Q757.111 1543.34 753.639 1546.44 Q750.167 1549.52 743.847 1549.52 Q741.671 1549.52 739.403 1549.15 Q737.157 1548.78 734.75 1548.04 L734.75 1543.34 Q736.833 1544.47 739.055 1545.03 Q741.278 1545.58 743.755 1545.58 Q747.759 1545.58 750.097 1543.48 Q752.435 1541.37 752.435 1537.76 Q752.435 1534.15 750.097 1532.04 Q747.759 1529.94 743.755 1529.94 Q741.88 1529.94 740.005 1530.35 Q738.153 1530.77 736.208 1531.65 L736.208 1514.29 Z" fill="#000000" fill-rule="evenodd" fill-opacity="1" /><path clip-path="url(#clip010)" d="M1235.63 1544.91 L1243.27 1544.91 L1243.27 1518.55 L1234.95 1520.21 L1234.95 1515.95 L1243.22 1514.29 L1247.89 1514.29 L1247.89 1544.91 L1255.53 1544.91 L1255.53 1548.85 L1235.63 1548.85 L1235.63 1544.91 Z" fill="#000000" fill-rule="evenodd" fill-opacity="1" /><path clip-path="url(#clip010)" d="M1274.98 1517.37 Q1271.37 1517.37 1269.54 1520.93 Q1267.73 1524.47 1267.73 1531.6 Q1267.73 1538.71 1269.54 1542.27 Q1271.37 1545.82 1274.98 1545.82 Q1278.61 1545.82 1280.42 1542.27 Q1282.25 1538.71 1282.25 1531.6 Q1282.25 1524.47 1280.42 1520.93 Q1278.61 1517.37 1274.98 1517.37 M1274.98 1513.66 Q1280.79 1513.66 1283.84 1518.27 Q1286.92 1522.85 1286.92 1531.6 Q1286.92 1540.33 1283.84 1544.94 Q1280.79 1549.52 1274.98 1549.52 Q1269.17 1549.52 1266.09 1544.94 Q1263.03 1540.33 1263.03 1531.6 Q1263.03 1522.85 1266.09 1518.27 Q1269.17 1513.66 1274.98 1513.66 Z" fill="#000000" fill-rule="evenodd" fill-opacity="1" /><path clip-path="url(#clip010)" d="M1751.13 1544.91 L1758.77 1544.91 L1758.77 1518.55 L1750.46 1520.21 L1750.46 1515.95 L1758.72 1514.29 L1763.4 1514.29 L1763.4 1544.91 L1771.04 1544.91 L1771.04 1548.85 L1751.13 1548.85 L1751.13 1544.91 Z" fill="#000000" fill-rule="evenodd" fill-opacity="1" /><path clip-path="url(#clip010)" d="M1780.53 1514.29 L1798.89 1514.29 L1798.89 1518.22 L1784.81 1518.22 L1784.81 1526.7 Q1785.83 1526.35 1786.85 1526.19 Q1787.87 1526 1788.89 1526 Q1794.67 1526 1798.05 1529.17 Q1801.43 1532.34 1801.43 1537.76 Q1801.43 1543.34 1797.96 1546.44 Q1794.49 1549.52 1788.17 1549.52 Q1785.99 1549.52 1783.72 1549.15 Q1781.48 1548.78 1779.07 1548.04 L1779.07 1543.34 Q1781.16 1544.47 1783.38 1545.03 Q1785.6 1545.58 1788.08 1545.58 Q1792.08 1545.58 1794.42 1543.48 Q1796.76 1541.37 1796.76 1537.76 Q1796.76 1534.15 1794.42 1532.04 Q1792.08 1529.94 1788.08 1529.94 Q1786.2 1529.94 1784.33 1530.35 Q1782.47 1530.77 1780.53 1531.65 L1780.53 1514.29 Z" fill="#000000" fill-rule="evenodd" fill-opacity="1" /><path clip-path="url(#clip010)" d="M2269.73 1544.91 L2286.05 1544.91 L2286.05 1548.85 L2264.1 1548.85 L2264.1 1544.91 Q2266.77 1542.16 2271.35 1537.53 Q2275.96 1532.88 2277.14 1531.53 Q2279.38 1529.01 2280.26 1527.27 Q2281.16 1525.51 2281.16 1523.82 Q2281.16 1521.07 2279.22 1519.33 Q2277.3 1517.6 2274.2 1517.6 Q2272 1517.6 2269.54 1518.36 Q2267.11 1519.13 2264.33 1520.68 L2264.33 1515.95 Q2267.16 1514.82 2269.61 1514.24 Q2272.07 1513.66 2274.1 1513.66 Q2279.47 1513.66 2282.67 1516.35 Q2285.86 1519.03 2285.86 1523.52 Q2285.86 1525.65 2285.05 1527.57 Q2284.27 1529.47 2282.16 1532.07 Q2281.58 1532.74 2278.48 1535.95 Q2275.38 1539.15 2269.73 1544.91 Z" fill="#000000" fill-rule="evenodd" fill-opacity="1" /><path clip-path="url(#clip010)" d="M2305.86 1517.37 Q2302.25 1517.37 2300.42 1520.93 Q2298.62 1524.47 2298.62 1531.6 Q2298.62 1538.71 2300.42 1542.27 Q2302.25 1545.82 2305.86 1545.82 Q2309.5 1545.82 2311.3 1542.27 Q2313.13 1538.71 2313.13 1531.6 Q2313.13 1524.47 2311.3 1520.93 Q2309.5 1517.37 2305.86 1517.37 M2305.86 1513.66 Q2311.67 1513.66 2314.73 1518.27 Q2317.81 1522.85 2317.81 1531.6 Q2317.81 1540.33 2314.73 1544.94 Q2311.67 1549.52 2305.86 1549.52 Q2300.05 1549.52 2296.97 1544.94 Q2293.92 1540.33 2293.92 1531.6 Q2293.92 1522.85 2296.97 1518.27 Q2300.05 1513.66 2305.86 1513.66 Z" fill="#000000" fill-rule="evenodd" fill-opacity="1" /><polyline clip-path="url(#clip012)" style="stroke:#000000; stroke-linecap:round; stroke-linejoin:round; stroke-width:2; stroke-opacity:0.1; fill:none" points="169.121,1453.38 2352.76,1453.38 "/>
<polyline clip-path="url(#clip012)" style="stroke:#000000; stroke-linecap:round; stroke-linejoin:round; stroke-width:2; stroke-opacity:0.1; fill:none" points="169.121,1208.19 2352.76,1208.19 "/>
<polyline clip-path="url(#clip012)" style="stroke:#000000; stroke-linecap:round; stroke-linejoin:round; stroke-width:2; stroke-opacity:0.1; fill:none" points="169.121,963 2352.76,963 "/>
<polyline clip-path="url(#clip012)" style="stroke:#000000; stroke-linecap:round; stroke-linejoin:round; stroke-width:2; stroke-opacity:0.1; fill:none" points="169.121,717.808 2352.76,717.808 "/>
<polyline clip-path="url(#clip012)" style="stroke:#000000; stroke-linecap:round; stroke-linejoin:round; stroke-width:2; stroke-opacity:0.1; fill:none" points="169.121,472.616 2352.76,472.616 "/>
<polyline clip-path="url(#clip012)" style="stroke:#000000; stroke-linecap:round; stroke-linejoin:round; stroke-width:2; stroke-opacity:0.1; fill:none" points="169.121,227.424 2352.76,227.424 "/>
<polyline clip-path="url(#clip010)" style="stroke:#000000; stroke-linecap:round; stroke-linejoin:round; stroke-width:4; stroke-opacity:1; fill:none" points="169.121,1486.45 169.121,47.2441 "/>
<polyline clip-path="url(#clip010)" style="stroke:#000000; stroke-linecap:round; stroke-linejoin:round; stroke-width:4; stroke-opacity:1; fill:none" points="169.121,1453.38 188.019,1453.38 "/>
<polyline clip-path="url(#clip010)" style="stroke:#000000; stroke-linecap:round; stroke-linejoin:round; stroke-width:4; stroke-opacity:1; fill:none" points="169.121,1208.19 188.019,1208.19 "/>
<polyline clip-path="url(#clip010)" style="stroke:#000000; stroke-linecap:round; stroke-linejoin:round; stroke-width:4; stroke-opacity:1; fill:none" points="169.121,963 188.019,963 "/>
<polyline clip-path="url(#clip010)" style="stroke:#000000; stroke-linecap:round; stroke-linejoin:round; stroke-width:4; stroke-opacity:1; fill:none" points="169.121,717.808 188.019,717.808 "/>
<polyline clip-path="url(#clip010)" style="stroke:#000000; stroke-linecap:round; stroke-linejoin:round; stroke-width:4; stroke-opacity:1; fill:none" points="169.121,472.616 188.019,472.616 "/>
<polyline clip-path="url(#clip010)" style="stroke:#000000; stroke-linecap:round; stroke-linejoin:round; stroke-width:4; stroke-opacity:1; fill:none" points="169.121,227.424 188.019,227.424 "/>
<path clip-path="url(#clip010)" d="M121.177 1439.18 Q117.566 1439.18 115.737 1442.75 Q113.932 1446.29 113.932 1453.42 Q113.932 1460.52 115.737 1464.09 Q117.566 1467.63 121.177 1467.63 Q124.811 1467.63 126.617 1464.09 Q128.445 1460.52 128.445 1453.42 Q128.445 1446.29 126.617 1442.75 Q124.811 1439.18 121.177 1439.18 M121.177 1435.48 Q126.987 1435.48 130.043 1440.09 Q133.121 1444.67 133.121 1453.42 Q133.121 1462.15 130.043 1466.75 Q126.987 1471.33 121.177 1471.33 Q115.367 1471.33 112.288 1466.75 Q109.233 1462.15 109.233 1453.42 Q109.233 1444.67 112.288 1440.09 Q115.367 1435.48 121.177 1435.48 Z" fill="#000000" fill-rule="evenodd" fill-opacity="1" /><path clip-path="url(#clip010)" d="M86.0382 1221.54 L102.358 1221.54 L102.358 1225.47 L80.4133 1225.47 L80.4133 1221.54 Q83.0753 1218.78 87.6586 1214.15 Q92.2651 1209.5 93.4456 1208.16 Q95.691 1205.63 96.5706 1203.9 Q97.4734 1202.14 97.4734 1200.45 Q97.4734 1197.69 95.5289 1195.96 Q93.6076 1194.22 90.5058 1194.22 Q88.3067 1194.22 85.8531 1194.99 Q83.4225 1195.75 80.6447 1197.3 L80.6447 1192.58 Q83.4688 1191.44 85.9225 1190.87 Q88.3762 1190.29 90.4132 1190.29 Q95.7836 1190.29 98.978 1192.97 Q102.172 1195.66 102.172 1200.15 Q102.172 1202.28 101.362 1204.2 Q100.575 1206.1 98.4687 1208.69 Q97.89 1209.36 94.7882 1212.58 Q91.6864 1215.77 86.0382 1221.54 Z" fill="#000000" fill-rule="evenodd" fill-opacity="1" /><path clip-path="url(#clip010)" d="M112.219 1190.91 L130.575 1190.91 L130.575 1194.85 L116.501 1194.85 L116.501 1203.32 Q117.52 1202.97 118.538 1202.81 Q119.557 1202.62 120.575 1202.62 Q126.362 1202.62 129.742 1205.8 Q133.121 1208.97 133.121 1214.38 Q133.121 1219.96 129.649 1223.06 Q126.177 1226.14 119.857 1226.14 Q117.682 1226.14 115.413 1225.77 Q113.168 1225.4 110.76 1224.66 L110.76 1219.96 Q112.844 1221.1 115.066 1221.65 Q117.288 1222.21 119.765 1222.21 Q123.77 1222.21 126.107 1220.1 Q128.445 1217.99 128.445 1214.38 Q128.445 1210.77 126.107 1208.67 Q123.77 1206.56 119.765 1206.56 Q117.89 1206.56 116.015 1206.98 Q114.163 1207.39 112.219 1208.27 L112.219 1190.91 Z" fill="#000000" fill-rule="evenodd" fill-opacity="1" /><path clip-path="url(#clip010)" d="M81.0614 945.72 L99.4178 945.72 L99.4178 949.655 L85.3438 949.655 L85.3438 958.127 Q86.3623 957.78 87.3808 957.618 Q88.3993 957.432 89.4178 957.432 Q95.2049 957.432 98.5845 960.604 Q101.964 963.775 101.964 969.192 Q101.964 974.77 98.4919 977.872 Q95.0197 980.951 88.7003 980.951 Q86.5243 980.951 84.2558 980.581 Q82.0105 980.21 79.6031 979.469 L79.6031 974.77 Q81.6864 975.905 83.9086 976.46 Q86.1308 977.016 88.6077 977.016 Q92.6123 977.016 94.9502 974.909 Q97.2882 972.803 97.2882 969.192 Q97.2882 965.581 94.9502 963.474 Q92.6123 961.368 88.6077 961.368 Q86.7327 961.368 84.8577 961.784 Q83.0058 962.201 81.0614 963.081 L81.0614 945.72 Z" fill="#000000" fill-rule="evenodd" fill-opacity="1" /><path clip-path="url(#clip010)" d="M121.177 948.798 Q117.566 948.798 115.737 952.363 Q113.932 955.905 113.932 963.034 Q113.932 970.141 115.737 973.706 Q117.566 977.247 121.177 977.247 Q124.811 977.247 126.617 973.706 Q128.445 970.141 128.445 963.034 Q128.445 955.905 126.617 952.363 Q124.811 948.798 121.177 948.798 M121.177 945.095 Q126.987 945.095 130.043 949.701 Q133.121 954.284 133.121 963.034 Q133.121 971.761 130.043 976.368 Q126.987 980.951 121.177 980.951 Q115.367 980.951 112.288 976.368 Q109.233 971.761 109.233 963.034 Q109.233 954.284 112.288 949.701 Q115.367 945.095 121.177 945.095 Z" fill="#000000" fill-rule="evenodd" fill-opacity="1" /><path clip-path="url(#clip010)" d="M80.8299 700.528 L103.052 700.528 L103.052 702.518 L90.5058 735.088 L85.6216 735.088 L97.4271 704.463 L80.8299 704.463 L80.8299 700.528 Z" fill="#000000" fill-rule="evenodd" fill-opacity="1" /><path clip-path="url(#clip010)" d="M112.219 700.528 L130.575 700.528 L130.575 704.463 L116.501 704.463 L116.501 712.935 Q117.52 712.588 118.538 712.426 Q119.557 712.24 120.575 712.24 Q126.362 712.24 129.742 715.412 Q133.121 718.583 133.121 724 Q133.121 729.578 129.649 732.68 Q126.177 735.759 119.857 735.759 Q117.682 735.759 115.413 735.389 Q113.168 735.018 110.76 734.277 L110.76 729.578 Q112.844 730.713 115.066 731.268 Q117.288 731.824 119.765 731.824 Q123.77 731.824 126.107 729.717 Q128.445 727.611 128.445 724 Q128.445 720.389 126.107 718.282 Q123.77 716.176 119.765 716.176 Q117.89 716.176 116.015 716.592 Q114.163 717.009 112.219 717.889 L112.219 700.528 Z" fill="#000000" fill-rule="evenodd" fill-opacity="1" /><path clip-path="url(#clip010)" d="M51.6634 485.96 L59.3023 485.96 L59.3023 459.595 L50.9921 461.261 L50.9921 457.002 L59.256 455.336 L63.9319 455.336 L63.9319 485.96 L71.5707 485.96 L71.5707 489.896 L51.6634 489.896 L51.6634 485.96 Z" fill="#000000" fill-rule="evenodd" fill-opacity="1" /><path clip-path="url(#clip010)" d="M91.0151 458.414 Q87.404 458.414 85.5753 461.979 Q83.7697 465.521 83.7697 472.65 Q83.7697 479.757 85.5753 483.322 Q87.404 486.863 91.0151 486.863 Q94.6493 486.863 96.4548 483.322 Q98.2835 479.757 98.2835 472.65 Q98.2835 465.521 96.4548 461.979 Q94.6493 458.414 91.0151 458.414 M91.0151 454.711 Q96.8252 454.711 99.8808 459.317 Q102.959 463.9 102.959 472.65 Q102.959 481.377 99.8808 485.984 Q96.8252 490.567 91.0151 490.567 Q85.2049 490.567 82.1262 485.984 Q79.0707 481.377 79.0707 472.65 Q79.0707 463.9 82.1262 459.317 Q85.2049 454.711 91.0151 454.711 Z" fill="#000000" fill-rule="evenodd" fill-opacity="1" /><path clip-path="url(#clip010)" d="M121.177 458.414 Q117.566 458.414 115.737 461.979 Q113.932 465.521 113.932 472.65 Q113.932 479.757 115.737 483.322 Q117.566 486.863 121.177 486.863 Q124.811 486.863 126.617 483.322 Q128.445 479.757 128.445 472.65 Q128.445 465.521 126.617 461.979 Q124.811 458.414 121.177 458.414 M121.177 454.711 Q126.987 454.711 130.043 459.317 Q133.121 463.9 133.121 472.65 Q133.121 481.377 130.043 485.984 Q126.987 490.567 121.177 490.567 Q115.367 490.567 112.288 485.984 Q109.233 481.377 109.233 472.65 Q109.233 463.9 112.288 459.317 Q115.367 454.711 121.177 454.711 Z" fill="#000000" fill-rule="evenodd" fill-opacity="1" /><path clip-path="url(#clip010)" d="M52.6588 240.768 L60.2976 240.768 L60.2976 214.403 L51.9875 216.069 L51.9875 211.81 L60.2513 210.144 L64.9272 210.144 L64.9272 240.768 L72.5661 240.768 L72.5661 244.704 L52.6588 244.704 L52.6588 240.768 Z" fill="#000000" fill-rule="evenodd" fill-opacity="1" /><path clip-path="url(#clip010)" d="M86.0382 240.768 L102.358 240.768 L102.358 244.704 L80.4133 244.704 L80.4133 240.768 Q83.0753 238.014 87.6586 233.384 Q92.2651 228.731 93.4456 227.389 Q95.691 224.866 96.5706 223.13 Q97.4734 221.37 97.4734 219.681 Q97.4734 216.926 95.5289 215.19 Q93.6076 213.454 90.5058 213.454 Q88.3067 213.454 85.8531 214.218 Q83.4225 214.982 80.6447 216.532 L80.6447 211.81 Q83.4688 210.676 85.9225 210.097 Q88.3762 209.519 90.4132 209.519 Q95.7836 209.519 98.978 212.204 Q102.172 214.889 102.172 219.38 Q102.172 221.509 101.362 223.431 Q100.575 225.329 98.4687 227.921 Q97.89 228.593 94.7882 231.81 Q91.6864 235.005 86.0382 240.768 Z" fill="#000000" fill-rule="evenodd" fill-opacity="1" /><path clip-path="url(#clip010)" d="M112.219 210.144 L130.575 210.144 L130.575 214.079 L116.501 214.079 L116.501 222.551 Q117.52 222.204 118.538 222.042 Q119.557 221.856 120.575 221.856 Q126.362 221.856 129.742 225.028 Q133.121 228.199 133.121 233.616 Q133.121 239.194 129.649 242.296 Q126.177 245.375 119.857 245.375 Q117.682 245.375 115.413 245.005 Q113.168 244.634 110.76 243.893 L110.76 239.194 Q112.844 240.329 115.066 240.884 Q117.288 241.44 119.765 241.44 Q123.77 241.44 126.107 239.333 Q128.445 237.227 128.445 233.616 Q128.445 230.005 126.107 227.898 Q123.77 225.792 119.765 225.792 Q117.89 225.792 116.015 226.208 Q114.163 226.625 112.219 227.505 L112.219 210.144 Z" fill="#000000" fill-rule="evenodd" fill-opacity="1" /><polyline clip-path="url(#clip012)" style="stroke:#009af9; stroke-linecap:round; stroke-linejoin:round; stroke-width:4; stroke-opacity:1; fill:none" points="230.922,521.654 231.952,523.887 232.982,526.116 234.012,528.338 235.042,530.556 236.072,532.768 237.102,534.975 238.132,537.176 239.162,539.373 240.192,541.564 241.222,543.749 242.252,545.93 243.282,548.105 244.313,550.275 245.343,552.44 246.373,554.6 247.403,556.754 248.433,558.903 249.463,561.048 250.493,563.187 251.523,565.321 252.553,567.449 253.583,569.573 254.613,571.692 255.643,573.805 256.673,575.914 257.703,578.017 258.733,580.115 259.763,582.209 260.793,584.297 261.823,586.38 262.853,588.459 263.883,590.532 264.913,592.6 265.943,594.664 266.973,596.722 268.003,598.776 269.033,600.824 270.063,602.868 271.093,604.907 272.123,606.941 273.153,608.97 274.183,610.994 275.213,613.013 276.243,615.028 277.273,617.037 278.303,619.042 279.333,621.042 280.363,623.037 281.393,625.028 282.423,627.014 283.453,628.994 284.483,630.971 285.513,632.942 286.543,634.909 287.573,636.871 288.603,638.828 289.633,640.781 290.663,642.729 291.693,644.672 292.723,646.61 293.753,648.544 294.783,650.474 295.813,652.398 296.843,654.318 297.873,656.234 298.903,658.145 299.933,660.051 300.963,661.953 301.993,663.85 303.023,665.742 304.053,667.63 305.083,669.514 306.113,671.393 307.144,673.268 308.174,675.138 309.204,677.003 310.234,678.864 311.264,680.721 312.294,682.573 313.324,684.421 314.354,686.264 315.384,688.103 316.414,689.937 317.444,691.767 318.474,693.593 319.504,695.414 320.534,697.231 321.564,699.044 322.594,700.852 323.624,702.656 324.654,704.456 325.684,706.251 326.714,708.042 327.744,709.829 328.774,711.611 329.804,713.389 330.834,715.163 331.864,716.933 332.894,718.698 333.924,720.459 334.954,722.216 335.984,723.969 337.014,725.717 338.044,727.462 339.074,729.202 340.104,730.938 341.134,732.669 342.164,734.397 343.194,736.121 344.224,737.84 345.254,739.555 346.284,741.266 347.314,742.973 348.344,744.676 349.374,746.375 350.404,748.07 351.434,749.761 352.464,751.447 353.494,753.13 354.524,754.809 355.554,756.483 356.584,758.154 357.614,759.82 358.644,761.483 359.674,763.141 360.704,764.796 361.734,766.447 362.764,768.093 363.794,769.736 364.824,771.375 365.854,773.01 366.884,774.641 367.914,776.268 368.944,777.891 369.974,779.51 371.005,781.125 372.035,782.737 373.065,784.344 374.095,785.948 375.125,787.548 376.155,789.144 377.185,790.736 378.215,792.325 379.245,793.91 380.275,795.49 381.305,797.067 382.335,798.641 383.365,800.21 384.395,801.776 385.425,803.338 386.455,804.896 387.485,806.451 388.515,808.001 389.545,809.548 390.575,811.092 391.605,812.631 392.635,814.167 393.665,815.7 394.695,817.228 395.725,818.753 396.755,820.275 397.785,821.792 398.815,823.306 399.845,824.817 400.875,826.323 401.905,827.826 402.935,829.326 403.965,830.822 404.995,832.314 406.025,833.803 407.055,835.288 408.085,836.77 409.115,838.248 410.145,839.723 411.175,841.194 412.205,842.661 413.235,844.125 414.265,845.586 415.295,847.043 416.325,848.496 417.355,849.946 418.385,851.392 419.415,852.836 420.445,854.275 421.475,855.711 422.505,857.144 423.535,858.573 424.565,859.999 425.595,861.421 426.625,862.84 427.655,864.256 428.685,865.668 429.715,867.077 430.745,868.483 431.775,869.885 432.805,871.283 433.836,872.679 434.866,874.071 435.896,875.459 436.926,876.845 437.956,878.227 438.986,879.606 440.016,880.981 441.046,882.353 442.076,883.722 443.106,885.087 444.136,886.45 445.166,887.809 446.196,889.164 447.226,890.517 448.256,891.866 449.286,893.212 450.316,894.555 451.346,895.895 452.376,897.231 453.406,898.564 454.436,899.894 455.466,901.221 456.496,902.545 457.526,903.865 458.556,905.182 459.586,906.496 460.616,907.807 461.646,909.115 462.676,910.42 463.706,911.721 464.736,913.02 465.766,914.315 466.796,915.607 467.826,916.896 468.856,918.182 469.886,919.465 470.916,920.745 471.946,922.022 472.976,923.296 474.006,924.566 475.036,925.834 476.066,927.099 477.096,928.36 478.126,929.619 479.156,930.874 480.186,932.127 481.216,933.376 482.246,934.623 483.276,935.866 484.306,937.107 485.336,938.345 486.366,939.579 487.396,940.811 488.426,942.04 489.456,943.265 490.486,944.488 491.516,945.708 492.546,946.925 493.576,948.139 494.606,949.35 495.636,950.558 496.667,951.764 497.697,952.966 498.727,954.166 499.757,955.362 500.787,956.556 501.817,957.747 502.847,958.935 503.877,960.121 504.907,961.303 505.937,962.483 506.967,963.659 507.997,964.833 509.027,966.004 510.057,967.173 511.087,968.338 512.117,969.501 513.147,970.661 514.177,971.818 515.207,972.972 516.237,974.124 517.267,975.273 518.297,976.419 519.327,977.562 520.357,978.703 521.387,979.841 522.417,980.976 523.447,982.108 524.477,983.238 525.507,984.365 526.537,985.489 527.567,986.611 528.597,987.73 529.627,988.846 530.657,989.959 531.687,991.07 532.717,992.179 533.747,993.284 534.777,994.387 535.807,995.487 536.837,996.585 537.867,997.68 538.897,998.772 539.927,999.862 540.957,1000.95 541.987,1002.03 543.017,1003.12 544.047,1004.2 545.077,1005.27 546.107,1006.35 547.137,1007.42 548.167,1008.49 549.197,1009.55 550.227,1010.62 551.257,1011.68 552.287,1012.74 553.317,1013.79 554.347,1014.85 555.377,1015.9 556.407,1016.95 557.437,1017.99 558.467,1019.04 559.497,1020.08 560.528,1021.12 561.558,1022.15 562.588,1023.19 563.618,1024.22 564.648,1025.25 565.678,1026.27 566.708,1027.3 567.738,1028.32 568.768,1029.34 569.798,1030.35 570.828,1031.37 571.858,1032.38 572.888,1033.39 573.918,1034.4 574.948,1035.4 575.978,1036.4 577.008,1037.4 578.038,1038.4 579.068,1039.39 580.098,1040.39 581.128,1041.38 582.158,1042.36 583.188,1043.35 584.218,1044.33 585.248,1045.31 586.278,1046.29 587.308,1047.27 588.338,1048.24 589.368,1049.21 590.398,1050.18 591.428,1051.15 592.458,1052.11 593.488,1053.07 594.518,1054.03 595.548,1054.99 596.578,1055.94 597.608,1056.9 598.638,1057.85 599.668,1058.8 600.698,1059.74 601.728,1060.68 602.758,1061.63 603.788,1062.57 604.818,1063.5 605.848,1064.44 606.878,1065.37 607.908,1066.3 608.938,1067.23 609.968,1068.15 610.998,1069.08 612.028,1070 613.058,1070.92 614.088,1071.83 615.118,1072.75 616.148,1073.66 617.178,1074.57 618.208,1075.48 619.238,1076.38 620.268,1077.29 621.298,1078.19 622.328,1079.09 623.359,1079.99 624.389,1080.88 625.419,1081.77 626.449,1082.67 627.479,1083.55 628.509,1084.44 629.539,1085.32 630.569,1086.21 631.599,1087.09 632.629,1087.97 633.659,1088.84 634.689,1089.72 635.719,1090.59 636.749,1091.46 637.779,1092.32 638.809,1093.19 639.839,1094.05 640.869,1094.91 641.899,1095.77 642.929,1096.63 643.959,1097.49 644.989,1098.34 646.019,1099.19 647.049,1100.04 648.079,1100.89 649.109,1101.73 650.139,1102.57 651.169,1103.42 652.199,1104.25 653.229,1105.09 654.259,1105.93 655.289,1106.76 656.319,1107.59 657.349,1108.42 658.379,1109.25 659.409,1110.07 660.439,1110.89 661.469,1111.71 662.499,1112.53 663.529,1113.35 664.559,1114.17 665.589,1114.98 666.619,1115.79 667.649,1116.6 668.679,1117.41 669.709,1118.21 670.739,1119.02 671.769,1119.82 672.799,1120.62 673.829,1121.41 674.859,1122.21 675.889,1123 676.919,1123.8 677.949,1124.59 678.979,1125.37 680.009,1126.16 681.039,1126.94 682.069,1127.73 683.099,1128.51 684.129,1129.29 685.159,1130.06 686.19,1130.84 687.22,1131.61 688.25,1132.38 689.28,1133.15 690.31,1133.92 691.34,1134.69 692.37,1135.45 693.4,1136.21 694.43,1136.97 695.46,1137.73 696.49,1138.49 697.52,1139.24 698.55,1140 699.58,1140.75 700.61,1141.5 701.64,1142.24 702.67,1142.99 703.7,1143.73 704.73,1144.48 705.76,1145.22 706.79,1145.96 707.82,1146.69 708.85,1147.43 709.88,1148.16 710.91,1148.89 711.94,1149.62 712.97,1150.35 714,1151.08 715.03,1151.8 716.06,1152.52 717.09,1153.25 718.12,1153.96 719.15,1154.68 720.18,1155.4 721.21,1156.11 722.24,1156.83 723.27,1157.54 724.3,1158.25 725.33,1158.95 726.36,1159.66 727.39,1160.36 728.42,1161.07 729.45,1161.77 730.48,1162.47 731.51,1163.16 732.54,1163.86 733.57,1164.55 734.6,1165.24 735.63,1165.94 736.66,1166.62 737.69,1167.31 738.72,1168 739.75,1168.68 740.78,1169.36 741.81,1170.04 742.84,1170.72 743.87,1171.4 744.9,1172.08 745.93,1172.75 746.96,1173.42 747.99,1174.1 749.021,1174.77 750.051,1175.43 751.081,1176.1 752.111,1176.76 753.141,1177.43 754.171,1178.09 755.201,1178.75 756.231,1179.41 757.261,1180.06 758.291,1180.72 759.321,1181.37 760.351,1182.02 761.381,1182.68 762.411,1183.32 763.441,1183.97 764.471,1184.62 765.501,1185.26 766.531,1185.9 767.561,1186.55 768.591,1187.18 769.621,1187.82 770.651,1188.46 771.681,1189.09 772.711,1189.73 773.741,1190.36 774.771,1190.99 775.801,1191.62 776.831,1192.25 777.861,1192.87 778.891,1193.5 779.921,1194.12 780.951,1194.74 781.981,1195.36 783.011,1195.98 784.041,1196.6 785.071,1197.21 786.101,1197.83 787.131,1198.44 788.161,1199.05 789.191,1199.66 790.221,1200.27 791.251,1200.88 792.281,1201.48 793.311,1202.08 794.341,1202.69 795.371,1203.29 796.401,1203.89 797.431,1204.49 798.461,1205.08 799.491,1205.68 800.521,1206.27 801.551,1206.86 802.581,1207.45 803.611,1208.04 804.641,1208.63 805.671,1209.22 806.701,1209.8 807.731,1210.39 808.761,1210.97 809.791,1211.55 810.821,1212.13 811.851,1212.71 812.882,1213.29 813.912,1213.86 814.942,1214.44 815.972,1215.01 817.002,1215.58 818.032,1216.15 819.062,1216.72 820.092,1217.29 821.122,1217.85 822.152,1218.42 823.182,1218.98 824.212,1219.54 825.242,1220.1 826.272,1220.66 827.302,1221.22 828.332,1221.78 829.362,1222.33 830.392,1222.89 831.422,1223.44 832.452,1223.99 833.482,1224.54 834.512,1225.09 835.542,1225.63 836.572,1226.18 837.602,1226.73 838.632,1227.27 839.662,1227.81 840.692,1228.35 841.722,1228.89 842.752,1229.43 843.782,1229.97 844.812,1230.5 845.842,1231.04 846.872,1231.57 847.902,1232.1 848.932,1232.63 849.962,1233.16 850.992,1233.69 852.022,1234.21 853.052,1234.74 854.082,1235.26 855.112,1235.79 856.142,1236.31 857.172,1236.83 858.202,1237.35 859.232,1237.87 860.262,1238.38 861.292,1238.9 862.322,1239.41 863.352,1239.93 864.382,1240.44 865.412,1240.95 866.442,1241.46 867.472,1241.96 868.502,1242.47 869.532,1242.98 870.562,1243.48 871.592,1243.98 872.622,1244.49 873.652,1244.99 874.682,1245.49 875.713,1245.98 876.743,1246.48 877.773,1246.98 878.803,1247.47 879.833,1247.97 880.863,1248.46 881.893,1248.95 882.923,1249.44 883.953,1249.93 884.983,1250.42 886.013,1250.9 887.043,1251.39 888.073,1251.87 889.103,1252.36 890.133,1252.84 891.163,1253.32 892.193,1253.8 893.223,1254.28 894.253,1254.75 895.283,1255.23 896.313,1255.7 897.343,1256.18 898.373,1256.65 899.403,1257.12 900.433,1257.59 901.463,1258.06 902.493,1258.53 903.523,1259 904.553,1259.46 905.583,1259.93 906.613,1260.39 907.643,1260.86 908.673,1261.32 909.703,1261.78 910.733,1262.24 911.763,1262.69 912.793,1263.15 913.823,1263.61 914.853,1264.06 915.883,1264.52 916.913,1264.97 917.943,1265.42 918.973,1265.87 920.003,1266.32 921.033,1266.77 922.063,1267.22 923.093,1267.66 924.123,1268.11 925.153,1268.55 926.183,1269 927.213,1269.44 928.243,1269.88 929.273,1270.32 930.303,1270.76 931.333,1271.19 932.363,1271.63 933.393,1272.07 934.423,1272.5 935.453,1272.94 936.483,1273.37 937.513,1273.8 938.544,1274.23 939.574,1274.66 940.604,1275.09 941.634,1275.52 942.664,1275.94 943.694,1276.37 944.724,1276.79 945.754,1277.21 946.784,1277.64 947.814,1278.06 948.844,1278.48 949.874,1278.9 950.904,1279.32 951.934,1279.73 952.964,1280.15 953.994,1280.56 955.024,1280.98 956.054,1281.39 957.084,1281.8 958.114,1282.22 959.144,1282.63 960.174,1283.04 961.204,1283.44 962.234,1283.85 963.264,1284.26 964.294,1284.66 965.324,1285.07 966.354,1285.47 967.384,1285.87 968.414,1286.28 969.444,1286.68 970.474,1287.08 971.504,1287.47 972.534,1287.87 973.564,1288.27 974.594,1288.66 975.624,1289.06 976.654,1289.45 977.684,1289.85 978.714,1290.24 979.744,1290.63 980.774,1291.02 981.804,1291.41 982.834,1291.8 983.864,1292.18 984.894,1292.57 985.924,1292.96 986.954,1293.34 987.984,1293.72 989.014,1294.11 990.044,1294.49 991.074,1294.87 992.104,1295.25 993.134,1295.63 994.164,1296.01 995.194,1296.38 996.224,1296.76 997.254,1297.14 998.284,1297.51 999.314,1297.88 1000.34,1298.26 1001.37,1298.63 1002.4,1299 1003.43,1299.37 1004.46,1299.74 1005.49,1300.11 1006.52,1300.47 1007.55,1300.84 1008.58,1301.21 1009.61,1301.57 1010.64,1301.94 1011.67,1302.3 1012.7,1302.66 1013.73,1303.02 1014.76,1303.38 1015.79,1303.74 1016.82,1304.1 1017.85,1304.46 1018.88,1304.82 1019.91,1305.17 1020.94,1305.53 1021.97,1305.88 1023,1306.24 1024.03,1306.59 1025.06,1306.94 1026.09,1307.29 1027.12,1307.64 1028.15,1307.99 1029.18,1308.34 1030.21,1308.69 1031.24,1309.03 1032.27,1309.38 1033.31,1309.72 1034.34,1310.07 1035.37,1310.41 1036.4,1310.76 1037.43,1311.1 1038.46,1311.44 1039.49,1311.78 1040.52,1312.12 1041.55,1312.46 1042.58,1312.79 1043.61,1313.13 1044.64,1313.47 1045.67,1313.8 1046.7,1314.14 1047.73,1314.47 1048.76,1314.8 1049.79,1315.14 1050.82,1315.47 1051.85,1315.8 1052.88,1316.13 1053.91,1316.46 1054.94,1316.79 1055.97,1317.11 1057,1317.44 1058.03,1317.77 1059.06,1318.09 1060.09,1318.41 1061.12,1318.74 1062.15,1319.06 1063.18,1319.38 1064.21,1319.7 1065.24,1320.02 1066.27,1320.34 1067.3,1320.66 1068.33,1320.98 1069.36,1321.3 1070.39,1321.62 1071.42,1321.93 1072.45,1322.25 1073.48,1322.56 1074.51,1322.87 1075.54,1323.19 1076.57,1323.5 1077.6,1323.81 1078.63,1324.12 1079.66,1324.43 1080.69,1324.74 1081.72,1325.05 1082.75,1325.36 1083.78,1325.66 1084.81,1325.97 1085.84,1326.27 1086.87,1326.58 1087.9,1326.88 1088.93,1327.19 1089.96,1327.49 1090.99,1327.79 1092.02,1328.09 1093.05,1328.39 1094.08,1328.69 1095.11,1328.99 1096.14,1329.29 1097.17,1329.59 1098.2,1329.88 1099.23,1330.18 1100.26,1330.47 1101.29,1330.77 1102.32,1331.06 1103.35,1331.36 1104.38,1331.65 1105.41,1331.94 1106.44,1332.23 1107.47,1332.52 1108.5,1332.81 1109.53,1333.1 1110.56,1333.39 1111.59,1333.68 1112.62,1333.96 1113.65,1334.25 1114.68,1334.54 1115.71,1334.82 1116.74,1335.11 1117.77,1335.39 1118.8,1335.67 1119.83,1335.95 1120.86,1336.24 1121.89,1336.52 1122.92,1336.8 1123.95,1337.08 1124.98,1337.35 1126.01,1337.63 1127.04,1337.91 1128.07,1338.19 1129.1,1338.46 1130.13,1338.74 1131.16,1339.01 1132.19,1339.29 1133.22,1339.56 1134.25,1339.83 1135.28,1340.11 1136.31,1340.38 1137.34,1340.65 1138.37,1340.92 1139.4,1341.19 1140.43,1341.46 1141.46,1341.73 1142.49,1341.99 1143.52,1342.26 1144.55,1342.53 1145.58,1342.79 1146.61,1343.06 1147.64,1343.32 1148.67,1343.59 1149.7,1343.85 1150.73,1344.11 1151.76,1344.37 1152.79,1344.63 1153.82,1344.9 1154.85,1345.16 1155.88,1345.41 1156.91,1345.67 1157.94,1345.93 1158.97,1346.19 1160,1346.45 1161.03,1346.7 1162.06,1346.96 1163.09,1347.21 1164.12,1347.47 1165.15,1347.72 1166.18,1347.98 1167.21,1348.23 1168.24,1348.48 1169.27,1348.73 1170.3,1348.98 1171.33,1349.23 1172.36,1349.48 1173.39,1349.73 1174.42,1349.98 1175.45,1350.23 1176.48,1350.47 1177.51,1350.72 1178.54,1350.97 1179.57,1351.21 1180.6,1351.46 1181.63,1351.7 1182.66,1351.95 1183.69,1352.19 1184.72,1352.43 1185.75,1352.67 1186.78,1352.92 1187.81,1353.16 1188.84,1353.4 1189.87,1353.64 1190.9,1353.88 1191.93,1354.11 1192.96,1354.35 1193.99,1354.59 1195.02,1354.83 1196.05,1355.06 1197.08,1355.3 1198.11,1355.53 1199.14,1355.77 1200.17,1356 1201.2,1356.23 1202.23,1356.47 1203.26,1356.7 1204.29,1356.93 1205.32,1357.16 1206.35,1357.39 1207.38,1357.62 1208.41,1357.85 1209.44,1358.08 1210.47,1358.31 1211.5,1358.54 1212.53,1358.77 1213.56,1358.99 1214.59,1359.22 1215.62,1359.44 1216.65,1359.67 1217.68,1359.89 1218.71,1360.12 1219.74,1360.34 1220.77,1360.57 1221.8,1360.79 1222.83,1361.01 1223.86,1361.23 1224.89,1361.45 1225.92,1361.67 1226.95,1361.89 1227.98,1362.11 1229.01,1362.33 1230.04,1362.55 1231.07,1362.77 1232.1,1362.98 1233.13,1363.2 1234.16,1363.42 1235.19,1363.63 1236.22,1363.85 1237.25,1364.06 1238.28,1364.28 1239.31,1364.49 1240.34,1364.7 1241.37,1364.92 1242.4,1365.13 1243.43,1365.34 1244.46,1365.55 1245.49,1365.76 1246.52,1365.97 1247.55,1366.18 1248.58,1366.39 1249.61,1366.6 1250.64,1366.81 1251.67,1367.01 1252.7,1367.22 1253.73,1367.43 1254.76,1367.63 1255.79,1367.84 1256.82,1368.04 1257.85,1368.25 1258.88,1368.45 1259.91,1368.66 1260.94,1368.86 1261.97,1369.06 1263,1369.26 1264.03,1369.47 1265.06,1369.67 1266.09,1369.87 1267.12,1370.07 1268.15,1370.27 1269.18,1370.47 1270.21,1370.67 1271.24,1370.86 1272.27,1371.06 1273.3,1371.26 1274.33,1371.46 1275.36,1371.65 1276.39,1371.85 1277.42,1372.04 1278.45,1372.24 1279.48,1372.43 1280.51,1372.63 1281.54,1372.82 1282.57,1373.01 1283.6,1373.21 1284.63,1373.4 1285.66,1373.59 1286.69,1373.78 1287.72,1373.97 1288.75,1374.16 1289.78,1374.35 1290.81,1374.54 1291.84,1374.73 1292.87,1374.92 1293.9,1375.11 1294.93,1375.3 1295.96,1375.48 1296.99,1375.67 1298.02,1375.86 1299.05,1376.04 1300.08,1376.23 1301.11,1376.41 1302.14,1376.6 1303.17,1376.78 1304.2,1376.96 1305.23,1377.15 1306.26,1377.33 1307.29,1377.51 1308.32,1377.69 1309.35,1377.88 1310.38,1378.06 1311.41,1378.24 1312.44,1378.42 1313.47,1378.6 1314.5,1378.78 1315.53,1378.95 1316.56,1379.13 1317.59,1379.31 1318.62,1379.49 1319.65,1379.67 1320.68,1379.84 1321.71,1380.02 1322.74,1380.19 1323.77,1380.37 1324.8,1380.55 1325.83,1380.72 1326.86,1380.89 1327.89,1381.07 1328.92,1381.24 1329.95,1381.41 1330.98,1381.59 1332.01,1381.76 1333.04,1381.93 1334.07,1382.1 1335.1,1382.27 1336.13,1382.44 1337.16,1382.61 1338.19,1382.78 1339.22,1382.95 1340.25,1383.12 1341.28,1383.29 1342.31,1383.46 1343.34,1383.62 1344.37,1383.79 1345.4,1383.96 1346.43,1384.13 1347.46,1384.29 1348.49,1384.46 1349.52,1384.62 1350.55,1384.79 1351.58,1384.95 1352.61,1385.12 1353.64,1385.28 1354.67,1385.44 1355.7,1385.61 1356.73,1385.77 1357.76,1385.93 1358.79,1386.09 1359.82,1386.25 1360.85,1386.41 1361.88,1386.57 1362.91,1386.73 1363.94,1386.89 1364.97,1387.05 1366,1387.21 1367.03,1387.37 1368.06,1387.53 1369.09,1387.69 1370.12,1387.84 1371.15,1388 1372.18,1388.16 1373.21,1388.31 1374.24,1388.47 1375.27,1388.63 1376.3,1388.78 1377.33,1388.94 1378.36,1389.09 1379.39,1389.25 1380.42,1389.4 1381.45,1389.55 1382.48,1389.71 1383.51,1389.86 1384.54,1390.01 1385.57,1390.16 1386.6,1390.31 1387.63,1390.46 1388.66,1390.62 1389.69,1390.77 1390.72,1390.92 1391.75,1391.07 1392.78,1391.22 1393.81,1391.36 1394.84,1391.51 1395.87,1391.66 1396.9,1391.81 1397.93,1391.96 1398.96,1392.1 1399.99,1392.25 1401.02,1392.4 1402.05,1392.54 1403.08,1392.69 1404.11,1392.84 1405.14,1392.98 1406.17,1393.13 1407.2,1393.27 1408.23,1393.41 1409.26,1393.56 1410.29,1393.7 1411.32,1393.84 1412.35,1393.99 1413.38,1394.13 1414.41,1394.27 1415.44,1394.41 1416.47,1394.55 1417.5,1394.7 1418.53,1394.84 1419.56,1394.98 1420.59,1395.12 1421.62,1395.26 1422.65,1395.4 1423.68,1395.53 1424.71,1395.67 1425.74,1395.81 1426.77,1395.95 1427.8,1396.09 1428.83,1396.22 1429.86,1396.36 1430.89,1396.5 1431.92,1396.63 1432.95,1396.77 1433.98,1396.91 1435.01,1397.04 1436.04,1397.18 1437.07,1397.31 1438.1,1397.45 1439.13,1397.58 1440.16,1397.71 1441.19,1397.85 1442.22,1397.98 1443.25,1398.11 1444.28,1398.25 1445.31,1398.38 1446.34,1398.51 1447.37,1398.64 1448.4,1398.77 1449.43,1398.9 1450.46,1399.03 1451.49,1399.16 1452.52,1399.29 1453.55,1399.42 1454.58,1399.55 1455.61,1399.68 1456.64,1399.81 1457.67,1399.94 1458.7,1400.07 1459.73,1400.2 1460.76,1400.32 1461.79,1400.45 1462.82,1400.58 1463.85,1400.7 1464.88,1400.83 1465.91,1400.96 1466.94,1401.08 1467.97,1401.21 1469,1401.33 1470.03,1401.46 1471.06,1401.58 1472.09,1401.71 1473.12,1401.83 1474.15,1401.95 1475.18,1402.08 1476.21,1402.2 1477.24,1402.32 1478.27,1402.44 1479.3,1402.57 1480.33,1402.69 1481.36,1402.81 1482.39,1402.93 1483.42,1403.05 1484.45,1403.17 1485.48,1403.29 1486.51,1403.41 1487.54,1403.53 1488.57,1403.65 1489.6,1403.77 1490.63,1403.89 1491.66,1404.01 1492.69,1404.13 1493.72,1404.25 1494.75,1404.36 1495.78,1404.48 1496.81,1404.6 1497.84,1404.71 1498.87,1404.83 1499.9,1404.95 1500.93,1405.06 1501.96,1405.18 1502.99,1405.3 1504.02,1405.41 1505.05,1405.53 1506.08,1405.64 1507.11,1405.75 1508.14,1405.87 1509.17,1405.98 1510.2,1406.1 1511.23,1406.21 1512.26,1406.32 1513.29,1406.44 1514.32,1406.55 1515.35,1406.66 1516.38,1406.77 1517.41,1406.88 1518.44,1407 1519.47,1407.11 1520.5,1407.22 1521.53,1407.33 1522.56,1407.44 1523.59,1407.55 1524.62,1407.66 1525.65,1407.77 1526.68,1407.88 1527.71,1407.99 1528.74,1408.1 1529.77,1408.2 1530.8,1408.31 1531.83,1408.42 1532.86,1408.53 1533.89,1408.64 1534.92,1408.74 1535.95,1408.85 1536.98,1408.96 1538.01,1409.06 1539.04,1409.17 1540.07,1409.28 1541.1,1409.38 1542.13,1409.49 1543.16,1409.59 1544.19,1409.7 1545.22,1409.8 1546.25,1409.91 1547.28,1410.01 1548.31,1410.11 1549.34,1410.22 1550.37,1410.32 1551.4,1410.42 1552.43,1410.53 1553.46,1410.63 1554.49,1410.73 1555.52,1410.84 1556.55,1410.94 1557.58,1411.04 1558.61,1411.14 1559.64,1411.24 1560.67,1411.34 1561.7,1411.44 1562.73,1411.54 1563.76,1411.64 1564.79,1411.74 1565.82,1411.84 1566.85,1411.94 1567.88,1412.04 1568.91,1412.14 1569.94,1412.24 1570.97,1412.34 1572,1412.44 1573.03,1412.54 1574.06,1412.63 1575.09,1412.73 1576.12,1412.83 1577.15,1412.93 1578.18,1413.02 1579.21,1413.12 1580.24,1413.22 1581.27,1413.31 1582.3,1413.41 1583.33,1413.5 1584.36,1413.6 1585.39,1413.7 1586.42,1413.79 1587.45,1413.89 1588.48,1413.98 1589.51,1414.08 1590.54,1414.17 1591.57,1414.26 1592.6,1414.36 1593.63,1414.45 1594.66,1414.54 1595.69,1414.64 1596.72,1414.73 1597.75,1414.82 1598.78,1414.91 1599.81,1415.01 1600.84,1415.1 1601.87,1415.19 1602.9,1415.28 1603.93,1415.37 1604.96,1415.46 1605.99,1415.56 1607.02,1415.65 1608.05,1415.74 1609.08,1415.83 1610.11,1415.92 1611.14,1416.01 1612.17,1416.1 1613.2,1416.19 1614.23,1416.28 1615.26,1416.36 1616.29,1416.45 1617.32,1416.54 1618.35,1416.63 1619.38,1416.72 1620.41,1416.81 1621.44,1416.89 1622.47,1416.98 1623.5,1417.07 1624.53,1417.16 1625.56,1417.24 1626.59,1417.33 1627.62,1417.42 1628.65,1417.5 1629.68,1417.59 1630.71,1417.67 1631.74,1417.76 1632.77,1417.84 1633.8,1417.93 1634.83,1418.01 1635.86,1418.1 1636.89,1418.18 1637.92,1418.27 1638.95,1418.35 1639.98,1418.44 1641.01,1418.52 1642.04,1418.6 1643.07,1418.69 1644.1,1418.77 1645.13,1418.85 1646.16,1418.94 1647.19,1419.02 1648.22,1419.1 1649.25,1419.18 1650.28,1419.26 1651.31,1419.35 1652.34,1419.43 1653.37,1419.51 1654.4,1419.59 1655.43,1419.67 1656.46,1419.75 1657.49,1419.83 1658.52,1419.91 1659.55,1419.99 1660.58,1420.07 1661.61,1420.15 1662.64,1420.23 1663.67,1420.31 1664.71,1420.39 1665.74,1420.47 1666.77,1420.55 1667.8,1420.63 1668.83,1420.71 1669.86,1420.79 1670.89,1420.86 1671.92,1420.94 1672.95,1421.02 1673.98,1421.1 1675.01,1421.17 1676.04,1421.25 1677.07,1421.33 1678.1,1421.41 1679.13,1421.48 1680.16,1421.56 1681.19,1421.64 1682.22,1421.71 1683.25,1421.79 1684.28,1421.86 1685.31,1421.94 1686.34,1422.01 1687.37,1422.09 1688.4,1422.16 1689.43,1422.24 1690.46,1422.31 1691.49,1422.39 1692.52,1422.46 1693.55,1422.54 1694.58,1422.61 1695.61,1422.68 1696.64,1422.76 1697.67,1422.83 1698.7,1422.9 1699.73,1422.98 1700.76,1423.05 1701.79,1423.12 1702.82,1423.2 1703.85,1423.27 1704.88,1423.34 1705.91,1423.41 1706.94,1423.48 1707.97,1423.56 1709,1423.63 1710.03,1423.7 1711.06,1423.77 1712.09,1423.84 1713.12,1423.91 1714.15,1423.98 1715.18,1424.05 1716.21,1424.12 1717.24,1424.19 1718.27,1424.26 1719.3,1424.33 1720.33,1424.4 1721.36,1424.47 1722.39,1424.54 1723.42,1424.61 1724.45,1424.68 1725.48,1424.75 1726.51,1424.82 1727.54,1424.89 1728.57,1424.95 1729.6,1425.02 1730.63,1425.09 1731.66,1425.16 1732.69,1425.23 1733.72,1425.29 1734.75,1425.36 1735.78,1425.43 1736.81,1425.49 1737.84,1425.56 1738.87,1425.63 1739.9,1425.69 1740.93,1425.76 1741.96,1425.83 1742.99,1425.89 1744.02,1425.96 1745.05,1426.02 1746.08,1426.09 1747.11,1426.16 1748.14,1426.22 1749.17,1426.29 1750.2,1426.35 1751.23,1426.42 1752.26,1426.48 1753.29,1426.54 1754.32,1426.61 1755.35,1426.67 1756.38,1426.74 1757.41,1426.8 1758.44,1426.87 1759.47,1426.93 1760.5,1426.99 1761.53,1427.06 1762.56,1427.12 1763.59,1427.18 1764.62,1427.24 1765.65,1427.31 1766.68,1427.37 1767.71,1427.43 1768.74,1427.49 1769.77,1427.56 1770.8,1427.62 1771.83,1427.68 1772.86,1427.74 1773.89,1427.8 1774.92,1427.86 1775.95,1427.93 1776.98,1427.99 1778.01,1428.05 1779.04,1428.11 1780.07,1428.17 1781.1,1428.23 1782.13,1428.29 1783.16,1428.35 1784.19,1428.41 1785.22,1428.47 1786.25,1428.53 1787.28,1428.59 1788.31,1428.65 1789.34,1428.71 1790.37,1428.77 1791.4,1428.83 1792.43,1428.88 1793.46,1428.94 1794.49,1429 1795.52,1429.06 1796.55,1429.12 1797.58,1429.18 1798.61,1429.23 1799.64,1429.29 1800.67,1429.35 1801.7,1429.41 1802.73,1429.47 1803.76,1429.52 1804.79,1429.58 1805.82,1429.64 1806.85,1429.69 1807.88,1429.75 1808.91,1429.81 1809.94,1429.86 1810.97,1429.92 1812,1429.98 1813.03,1430.03 1814.06,1430.09 1815.09,1430.14 1816.12,1430.2 1817.15,1430.26 1818.18,1430.31 1819.21,1430.37 1820.24,1430.42 1821.27,1430.48 1822.3,1430.53 1823.33,1430.59 1824.36,1430.64 1825.39,1430.7 1826.42,1430.75 1827.45,1430.8 1828.48,1430.86 1829.51,1430.91 1830.54,1430.97 1831.57,1431.02 1832.6,1431.07 1833.63,1431.13 1834.66,1431.18 1835.69,1431.23 1836.72,1431.29 1837.75,1431.34 1838.78,1431.39 1839.81,1431.45 1840.84,1431.5 1841.87,1431.55 1842.9,1431.6 1843.93,1431.65 1844.96,1431.71 1845.99,1431.76 1847.02,1431.81 1848.05,1431.86 1849.08,1431.91 1850.11,1431.97 1851.14,1432.02 1852.17,1432.07 1853.2,1432.12 1854.23,1432.17 1855.26,1432.22 1856.29,1432.27 1857.32,1432.32 1858.35,1432.37 1859.38,1432.42 1860.41,1432.47 1861.44,1432.52 1862.47,1432.57 1863.5,1432.62 1864.53,1432.67 1865.56,1432.72 1866.59,1432.77 1867.62,1432.82 1868.65,1432.87 1869.68,1432.92 1870.71,1432.97 1871.74,1433.02 1872.77,1433.07 1873.8,1433.12 1874.83,1433.16 1875.86,1433.21 1876.89,1433.26 1877.92,1433.31 1878.95,1433.36 1879.98,1433.41 1881.01,1433.45 1882.04,1433.5 1883.07,1433.55 1884.1,1433.6 1885.13,1433.64 1886.16,1433.69 1887.19,1433.74 1888.22,1433.79 1889.25,1433.83 1890.28,1433.88 1891.31,1433.93 1892.34,1433.97 1893.37,1434.02 1894.4,1434.07 1895.43,1434.11 1896.46,1434.16 1897.49,1434.2 1898.52,1434.25 1899.55,1434.3 1900.58,1434.34 1901.61,1434.39 1902.64,1434.43 1903.67,1434.48 1904.7,1434.52 1905.73,1434.57 1906.76,1434.61 1907.79,1434.66 1908.82,1434.7 1909.85,1434.75 1910.88,1434.79 1911.91,1434.84 1912.94,1434.88 1913.97,1434.93 1915,1434.97 1916.03,1435.01 1917.06,1435.06 1918.09,1435.1 1919.12,1435.15 1920.15,1435.19 1921.18,1435.23 1922.21,1435.28 1923.24,1435.32 1924.27,1435.36 1925.3,1435.41 1926.33,1435.45 1927.36,1435.49 1928.39,1435.54 1929.42,1435.58 1930.45,1435.62 1931.48,1435.66 1932.51,1435.71 1933.54,1435.75 1934.57,1435.79 1935.6,1435.83 1936.63,1435.88 1937.66,1435.92 1938.69,1435.96 1939.72,1436 1940.75,1436.04 1941.78,1436.08 1942.81,1436.13 1943.84,1436.17 1944.87,1436.21 1945.9,1436.25 1946.93,1436.29 1947.96,1436.33 1948.99,1436.37 1950.02,1436.41 1951.05,1436.45 1952.08,1436.49 1953.11,1436.54 1954.14,1436.58 1955.17,1436.62 1956.2,1436.66 1957.23,1436.7 1958.26,1436.74 1959.29,1436.78 1960.32,1436.82 1961.35,1436.86 1962.38,1436.9 1963.41,1436.93 1964.44,1436.97 1965.47,1437.01 1966.5,1437.05 1967.53,1437.09 1968.56,1437.13 1969.59,1437.17 1970.62,1437.21 1971.65,1437.25 1972.68,1437.29 1973.71,1437.33 1974.74,1437.36 1975.77,1437.4 1976.8,1437.44 1977.83,1437.48 1978.86,1437.52 1979.89,1437.55 1980.92,1437.59 1981.95,1437.63 1982.98,1437.67 1984.01,1437.71 1985.04,1437.74 1986.07,1437.78 1987.1,1437.82 1988.13,1437.86 1989.16,1437.89 1990.19,1437.93 1991.22,1437.97 1992.25,1438 1993.28,1438.04 1994.31,1438.08 1995.34,1438.11 1996.37,1438.15 1997.4,1438.19 1998.43,1438.22 1999.46,1438.26 2000.49,1438.3 2001.52,1438.33 2002.55,1438.37 2003.58,1438.4 2004.61,1438.44 2005.64,1438.48 2006.67,1438.51 2007.7,1438.55 2008.73,1438.58 2009.76,1438.62 2010.79,1438.65 2011.82,1438.69 2012.85,1438.72 2013.88,1438.76 2014.91,1438.79 2015.94,1438.83 2016.97,1438.86 2018,1438.9 2019.03,1438.93 2020.06,1438.97 2021.09,1439 2022.12,1439.04 2023.15,1439.07 2024.18,1439.11 2025.21,1439.14 2026.24,1439.18 2027.27,1439.21 2028.3,1439.24 2029.33,1439.28 2030.36,1439.31 2031.39,1439.34 2032.42,1439.38 2033.45,1439.41 2034.48,1439.45 2035.51,1439.48 2036.54,1439.51 2037.57,1439.55 2038.6,1439.58 2039.63,1439.61 2040.66,1439.64 2041.69,1439.68 2042.72,1439.71 2043.75,1439.74 2044.78,1439.78 2045.81,1439.81 2046.84,1439.84 2047.87,1439.87 2048.9,1439.91 2049.93,1439.94 2050.96,1439.97 2051.99,1440 2053.02,1440.03 2054.05,1440.07 2055.08,1440.1 2056.11,1440.13 2057.14,1440.16 2058.17,1440.19 2059.2,1440.23 2060.23,1440.26 2061.26,1440.29 2062.29,1440.32 2063.32,1440.35 2064.35,1440.38 2065.38,1440.41 2066.41,1440.44 2067.44,1440.48 2068.47,1440.51 2069.5,1440.54 2070.53,1440.57 2071.56,1440.6 2072.59,1440.63 2073.62,1440.66 2074.65,1440.69 2075.68,1440.72 2076.71,1440.75 2077.74,1440.78 2078.77,1440.81 2079.8,1440.84 2080.83,1440.87 2081.86,1440.9 2082.89,1440.93 2083.92,1440.96 2084.95,1440.99 2085.98,1441.02 2087.01,1441.05 2088.04,1441.08 2089.07,1441.11 2090.1,1441.14 2091.13,1441.17 2092.16,1441.2 2093.19,1441.23 2094.22,1441.26 2095.25,1441.29 2096.28,1441.31 2097.31,1441.34 2098.34,1441.37 2099.37,1441.4 2100.4,1441.43 2101.43,1441.46 2102.46,1441.49 2103.49,1441.52 2104.52,1441.54 2105.55,1441.57 2106.58,1441.6 2107.61,1441.63 2108.64,1441.66 2109.67,1441.69 2110.7,1441.71 2111.73,1441.74 2112.76,1441.77 2113.79,1441.8 2114.82,1441.82 2115.85,1441.85 2116.88,1441.88 2117.91,1441.91 2118.94,1441.94 2119.97,1441.96 2121,1441.99 2122.03,1442.02 2123.06,1442.04 2124.09,1442.07 2125.12,1442.1 2126.15,1442.13 2127.18,1442.15 2128.21,1442.18 2129.24,1442.21 2130.27,1442.23 2131.3,1442.26 2132.33,1442.29 2133.36,1442.31 2134.39,1442.34 2135.42,1442.37 2136.45,1442.39 2137.48,1442.42 2138.51,1442.45 2139.54,1442.47 2140.57,1442.5 2141.6,1442.52 2142.63,1442.55 2143.66,1442.58 2144.69,1442.6 2145.72,1442.63 2146.75,1442.65 2147.78,1442.68 2148.81,1442.7 2149.84,1442.73 2150.87,1442.76 2151.9,1442.78 2152.93,1442.81 2153.96,1442.83 2154.99,1442.86 2156.02,1442.88 2157.05,1442.91 2158.08,1442.93 2159.11,1442.96 2160.14,1442.98 2161.17,1443.01 2162.2,1443.03 2163.23,1443.06 2164.26,1443.08 2165.29,1443.11 2166.32,1443.13 2167.35,1443.16 2168.38,1443.18 2169.41,1443.21 2170.44,1443.23 2171.47,1443.25 2172.5,1443.28 2173.53,1443.3 2174.56,1443.33 2175.59,1443.35 2176.62,1443.38 2177.65,1443.4 2178.68,1443.42 2179.71,1443.45 2180.74,1443.47 2181.77,1443.49 2182.8,1443.52 2183.83,1443.54 2184.86,1443.57 2185.89,1443.59 2186.92,1443.61 2187.95,1443.64 2188.98,1443.66 2190.01,1443.68 2191.04,1443.71 2192.07,1443.73 2193.1,1443.75 2194.13,1443.78 2195.16,1443.8 2196.19,1443.82 2197.22,1443.84 2198.25,1443.87 2199.28,1443.89 2200.31,1443.91 2201.34,1443.94 2202.37,1443.96 2203.4,1443.98 2204.43,1444 2205.46,1444.03 2206.49,1444.05 2207.52,1444.07 2208.55,1444.09 2209.58,1444.11 2210.61,1444.14 2211.64,1444.16 2212.67,1444.18 2213.7,1444.2 2214.73,1444.23 2215.76,1444.25 2216.79,1444.27 2217.82,1444.29 2218.85,1444.31 2219.88,1444.33 2220.91,1444.36 2221.94,1444.38 2222.97,1444.4 2224,1444.42 2225.03,1444.44 2226.06,1444.46 2227.09,1444.49 2228.12,1444.51 2229.15,1444.53 2230.18,1444.55 2231.21,1444.57 2232.24,1444.59 2233.27,1444.61 2234.3,1444.63 2235.33,1444.65 2236.36,1444.68 2237.39,1444.7 2238.42,1444.72 2239.45,1444.74 2240.48,1444.76 2241.51,1444.78 2242.54,1444.8 2243.57,1444.82 2244.6,1444.84 2245.63,1444.86 2246.66,1444.88 2247.69,1444.9 2248.72,1444.92 2249.75,1444.94 2250.78,1444.96 2251.81,1444.98 2252.84,1445 2253.87,1445.02 2254.9,1445.04 2255.93,1445.06 2256.96,1445.08 2257.99,1445.1 2259.02,1445.12 2260.05,1445.14 2261.08,1445.16 2262.11,1445.18 2263.14,1445.2 2264.17,1445.22 2265.2,1445.24 2266.23,1445.26 2267.26,1445.28 2268.29,1445.3 2269.32,1445.32 2270.35,1445.34 2271.38,1445.36 2272.41,1445.38 2273.44,1445.4 2274.47,1445.42 2275.5,1445.43 2276.53,1445.45 2277.56,1445.47 2278.59,1445.49 2279.62,1445.51 2280.65,1445.53 2281.68,1445.55 2282.71,1445.57 2283.74,1445.59 2284.77,1445.6 2285.8,1445.62 2286.83,1445.64 2287.86,1445.66 2288.89,1445.68 2289.92,1445.7 2290.95,1445.72 "/>
<polyline clip-path="url(#clip012)" style="stroke:#e26f46; stroke-linecap:round; stroke-linejoin:round; stroke-width:4; stroke-opacity:1; fill:none" points="230.922,1012.04 231.952,1009.8 232.982,1007.58 234.012,1005.35 235.042,1003.14 236.072,1000.92 237.102,998.717 238.132,996.516 239.162,994.319 240.192,992.128 241.222,989.943 242.252,987.762 243.282,985.587 244.313,983.417 245.343,981.252 246.373,979.092 247.403,976.938 248.433,974.788 249.463,972.644 250.493,970.505 251.523,968.371 252.553,966.243 253.583,964.119 254.613,962 255.643,959.887 256.673,957.778 257.703,955.675 258.733,953.577 259.763,951.483 260.793,949.395 261.823,947.312 262.853,945.233 263.883,943.16 264.913,941.092 265.943,939.028 266.973,936.97 268.003,934.916 269.033,932.868 270.063,930.824 271.093,928.785 272.123,926.751 273.153,924.722 274.183,922.698 275.213,920.679 276.243,918.664 277.273,916.655 278.303,914.65 279.333,912.65 280.363,910.655 281.393,908.664 282.423,906.678 283.453,904.697 284.483,902.721 285.513,900.75 286.543,898.783 287.573,896.821 288.603,894.864 289.633,892.911 290.663,890.963 291.693,889.02 292.723,887.082 293.753,885.148 294.783,883.218 295.813,881.294 296.843,879.374 297.873,877.458 298.903,875.547 299.933,873.641 300.963,871.739 301.993,869.842 303.023,867.95 304.053,866.062 305.083,864.178 306.113,862.299 307.144,860.424 308.174,858.554 309.204,856.689 310.234,854.828 311.264,852.971 312.294,851.119 313.324,849.271 314.354,847.428 315.384,845.589 316.414,843.755 317.444,841.925 318.474,840.099 319.504,838.278 320.534,836.461 321.564,834.648 322.594,832.84 323.624,831.036 324.654,829.236 325.684,827.441 326.714,825.65 327.744,823.863 328.774,822.081 329.804,820.303 330.834,818.529 331.864,816.759 332.894,814.994 333.924,813.233 334.954,811.476 335.984,809.723 337.014,807.975 338.044,806.23 339.074,804.49 340.104,802.754 341.134,801.023 342.164,799.295 343.194,797.571 344.224,795.852 345.254,794.137 346.284,792.426 347.314,790.719 348.344,789.016 349.374,787.317 350.404,785.622 351.434,783.931 352.464,782.245 353.494,780.562 354.524,778.883 355.554,777.209 356.584,775.538 357.614,773.872 358.644,772.209 359.674,770.551 360.704,768.896 361.734,767.245 362.764,765.599 363.794,763.956 364.824,762.317 365.854,760.682 366.884,759.051 367.914,757.424 368.944,755.801 369.974,754.182 371.005,752.567 372.035,750.955 373.065,749.348 374.095,747.744 375.125,746.144 376.155,744.548 377.185,742.956 378.215,741.367 379.245,739.782 380.275,738.202 381.305,736.625 382.335,735.051 383.365,733.482 384.395,731.916 385.425,730.354 386.455,728.796 387.485,727.241 388.515,725.691 389.545,724.143 390.575,722.6 391.605,721.06 392.635,719.525 393.665,717.992 394.695,716.464 395.725,714.939 396.755,713.417 397.785,711.9 398.815,710.386 399.845,708.875 400.875,707.369 401.905,705.866 402.935,704.366 403.965,702.87 404.995,701.378 406.025,699.889 407.055,698.404 408.085,696.922 409.115,695.444 410.145,693.969 411.175,692.498 412.205,691.031 413.235,689.567 414.265,688.106 415.295,686.649 416.325,685.196 417.355,683.746 418.385,682.299 419.415,680.856 420.445,679.417 421.475,677.981 422.505,676.548 423.535,675.119 424.565,673.693 425.595,672.271 426.625,670.851 427.655,669.436 428.685,668.024 429.715,666.615 430.745,665.209 431.775,663.807 432.805,662.409 433.836,661.013 434.866,659.621 435.896,658.233 436.926,656.847 437.956,655.465 438.986,654.086 440.016,652.711 441.046,651.339 442.076,649.97 443.106,648.605 444.136,647.242 445.166,645.883 446.196,644.527 447.226,643.175 448.256,641.826 449.286,640.48 450.316,639.137 451.346,637.797 452.376,636.461 453.406,635.128 454.436,633.798 455.466,632.471 456.496,631.147 457.526,629.827 458.556,628.51 459.586,627.196 460.616,625.885 461.646,624.577 462.676,623.272 463.706,621.971 464.736,620.672 465.766,619.377 466.796,618.085 467.826,616.796 468.856,615.51 469.886,614.227 470.916,612.947 471.946,611.67 472.976,610.396 474.006,609.125 475.036,607.858 476.066,606.593 477.096,605.332 478.126,604.073 479.156,602.818 480.186,601.565 481.216,600.316 482.246,599.069 483.276,597.826 484.306,596.585 485.336,595.347 486.366,594.113 487.396,592.881 488.426,591.652 489.456,590.427 490.486,589.204 491.516,587.984 492.546,586.767 493.576,585.553 494.606,584.342 495.636,583.134 496.667,581.928 497.697,580.726 498.727,579.526 499.757,578.33 500.787,577.136 501.817,575.945 502.847,574.757 503.877,573.571 504.907,572.389 505.937,571.209 506.967,570.033 507.997,568.859 509.027,567.688 510.057,566.519 511.087,565.354 512.117,564.191 513.147,563.031 514.177,561.874 515.207,560.72 516.237,559.568 517.267,558.419 518.297,557.273 519.327,556.13 520.357,554.989 521.387,553.851 522.417,552.716 523.447,551.584 524.477,550.454 525.507,549.327 526.537,548.203 527.567,547.081 528.597,545.962 529.627,544.846 530.657,543.732 531.687,542.622 532.717,541.513 533.747,540.408 534.777,539.305 535.807,538.205 536.837,537.107 537.867,536.012 538.897,534.92 539.927,533.83 540.957,532.743 541.987,531.658 543.017,530.576 544.047,529.497 545.077,528.42 546.107,527.346 547.137,526.274 548.167,525.205 549.197,524.139 550.227,523.075 551.257,522.014 552.287,520.955 553.317,519.898 554.347,518.845 555.377,517.793 556.407,516.745 557.437,515.699 558.467,514.655 559.497,513.614 560.528,512.575 561.558,511.539 562.588,510.505 563.618,509.474 564.648,508.445 565.678,507.419 566.708,506.395 567.738,505.374 568.768,504.355 569.798,503.338 570.828,502.324 571.858,501.313 572.888,500.303 573.918,499.297 574.948,498.292 575.978,497.29 577.008,496.291 578.038,495.293 579.068,494.299 580.098,493.306 581.128,492.316 582.158,491.329 583.188,490.343 584.218,489.361 585.248,488.38 586.278,487.402 587.308,486.426 588.338,485.452 589.368,484.481 590.398,483.512 591.428,482.546 592.458,481.582 593.488,480.62 594.518,479.66 595.548,478.703 596.578,477.748 597.608,476.795 598.638,475.845 599.668,474.897 600.698,473.951 601.728,473.007 602.758,472.066 603.788,471.127 604.818,470.19 605.848,469.255 606.878,468.323 607.908,467.393 608.938,466.465 609.968,465.539 610.998,464.616 612.028,463.695 613.058,462.775 614.088,461.859 615.118,460.944 616.148,460.032 617.178,459.121 618.208,458.213 619.238,457.307 620.268,456.404 621.298,455.502 622.328,454.603 623.359,453.706 624.389,452.81 625.419,451.918 626.449,451.027 627.479,450.138 628.509,449.252 629.539,448.367 630.569,447.485 631.599,446.605 632.629,445.727 633.659,444.851 634.689,443.977 635.719,443.105 636.749,442.235 637.779,441.368 638.809,440.502 639.839,439.639 640.869,438.778 641.899,437.918 642.929,437.061 643.959,436.206 644.989,435.353 646.019,434.502 647.049,433.653 648.079,432.806 649.109,431.961 650.139,431.118 651.169,430.277 652.199,429.438 653.229,428.601 654.259,427.766 655.289,426.933 656.319,426.102 657.349,425.273 658.379,424.446 659.409,423.621 660.439,422.798 661.469,421.977 662.499,421.158 663.529,420.341 664.559,419.526 665.589,418.713 666.619,417.902 667.649,417.093 668.679,416.285 669.709,415.48 670.739,414.677 671.769,413.875 672.799,413.075 673.829,412.278 674.859,411.482 675.889,410.688 676.919,409.896 677.949,409.106 678.979,408.318 680.009,407.532 681.039,406.747 682.069,405.965 683.099,405.184 684.129,404.405 685.159,403.628 686.19,402.853 687.22,402.08 688.25,401.309 689.28,400.539 690.31,399.772 691.34,399.006 692.37,398.242 693.4,397.48 694.43,396.72 695.46,395.961 696.49,395.204 697.52,394.45 698.55,393.697 699.58,392.945 700.61,392.196 701.64,391.448 702.67,390.702 703.7,389.958 704.73,389.216 705.76,388.476 706.79,387.737 707.82,387 708.85,386.265 709.88,385.531 710.91,384.8 711.94,384.07 712.97,383.342 714,382.615 715.03,381.891 716.06,381.168 717.09,380.446 718.12,379.727 719.15,379.009 720.18,378.293 721.21,377.579 722.24,376.866 723.27,376.155 724.3,375.446 725.33,374.739 726.36,374.033 727.39,373.329 728.42,372.626 729.45,371.926 730.48,371.227 731.51,370.529 732.54,369.834 733.57,369.14 734.6,368.447 735.63,367.757 736.66,367.068 737.69,366.38 738.72,365.694 739.75,365.01 740.78,364.328 741.81,363.647 742.84,362.968 743.87,362.29 744.9,361.614 745.93,360.94 746.96,360.267 747.99,359.596 749.021,358.927 750.051,358.259 751.081,357.592 752.111,356.928 753.141,356.265 754.171,355.603 755.201,354.943 756.231,354.285 757.261,353.628 758.291,352.973 759.321,352.319 760.351,351.667 761.381,351.017 762.411,350.368 763.441,349.721 764.471,349.075 765.501,348.431 766.531,347.788 767.561,347.147 768.591,346.507 769.621,345.869 770.651,345.232 771.681,344.597 772.711,343.964 773.741,343.332 774.771,342.701 775.801,342.072 776.831,341.445 777.861,340.819 778.891,340.194 779.921,339.571 780.951,338.95 781.981,338.33 783.011,337.711 784.041,337.094 785.071,336.479 786.101,335.865 787.131,335.252 788.161,334.641 789.191,334.031 790.221,333.423 791.251,332.816 792.281,332.211 793.311,331.607 794.341,331.005 795.371,330.404 796.401,329.804 797.431,329.206 798.461,328.61 799.491,328.014 800.521,327.421 801.551,326.828 802.581,326.237 803.611,325.648 804.641,325.06 805.671,324.473 806.701,323.888 807.731,323.304 808.761,322.721 809.791,322.14 810.821,321.561 811.851,320.982 812.882,320.405 813.912,319.83 814.942,319.256 815.972,318.683 817.002,318.111 818.032,317.541 819.062,316.973 820.092,316.405 821.122,315.839 822.152,315.275 823.182,314.712 824.212,314.15 825.242,313.589 826.272,313.03 827.302,312.472 828.332,311.916 829.362,311.36 830.392,310.806 831.422,310.254 832.452,309.703 833.482,309.153 834.512,308.604 835.542,308.057 836.572,307.511 837.602,306.966 838.632,306.423 839.662,305.881 840.692,305.34 841.722,304.801 842.752,304.263 843.782,303.726 844.812,303.19 845.842,302.656 846.872,302.123 847.902,301.591 848.932,301.061 849.962,300.532 850.992,300.004 852.022,299.477 853.052,298.952 854.082,298.428 855.112,297.905 856.142,297.383 857.172,296.863 858.202,296.344 859.232,295.826 860.262,295.309 861.292,294.794 862.322,294.28 863.352,293.767 864.382,293.255 865.412,292.745 866.442,292.236 867.472,291.728 868.502,291.221 869.532,290.715 870.562,290.211 871.592,289.708 872.622,289.206 873.652,288.705 874.682,288.205 875.713,287.707 876.743,287.21 877.773,286.714 878.803,286.219 879.833,285.725 880.863,285.233 881.893,284.742 882.923,284.252 883.953,283.763 884.983,283.275 886.013,282.789 887.043,282.303 888.073,281.819 889.103,281.336 890.133,280.854 891.163,280.373 892.193,279.894 893.223,279.415 894.253,278.938 895.283,278.462 896.313,277.987 897.343,277.513 898.373,277.04 899.403,276.569 900.433,276.098 901.463,275.629 902.493,275.161 903.523,274.694 904.553,274.228 905.583,273.763 906.613,273.299 907.643,272.837 908.673,272.375 909.703,271.915 910.733,271.455 911.763,270.997 912.793,270.54 913.823,270.084 914.853,269.629 915.883,269.175 916.913,268.723 917.943,268.271 918.973,267.82 920.003,267.371 921.033,266.922 922.063,266.475 923.093,266.029 924.123,265.584 925.153,265.14 926.183,264.696 927.213,264.254 928.243,263.814 929.273,263.374 930.303,262.935 931.333,262.497 932.363,262.06 933.393,261.625 934.423,261.19 935.453,260.756 936.483,260.324 937.513,259.892 938.544,259.462 939.574,259.032 940.604,258.604 941.634,258.177 942.664,257.75 943.694,257.325 944.724,256.9 945.754,256.477 946.784,256.055 947.814,255.634 948.844,255.213 949.874,254.794 950.904,254.376 951.934,253.959 952.964,253.542 953.994,253.127 955.024,252.713 956.054,252.299 957.084,251.887 958.114,251.476 959.144,251.066 960.174,250.656 961.204,250.248 962.234,249.841 963.264,249.434 964.294,249.029 965.324,248.624 966.354,248.221 967.384,247.818 968.414,247.417 969.444,247.016 970.474,246.617 971.504,246.218 972.534,245.82 973.564,245.423 974.594,245.028 975.624,244.633 976.654,244.239 977.684,243.846 978.714,243.454 979.744,243.063 980.774,242.673 981.804,242.283 982.834,241.895 983.864,241.508 984.894,241.121 985.924,240.736 986.954,240.351 987.984,239.968 989.014,239.585 990.044,239.203 991.074,238.822 992.104,238.442 993.134,238.063 994.164,237.685 995.194,237.308 996.224,236.932 997.254,236.556 998.284,236.182 999.314,235.808 1000.34,235.435 1001.37,235.063 1002.4,234.692 1003.43,234.322 1004.46,233.953 1005.49,233.585 1006.52,233.217 1007.55,232.851 1008.58,232.485 1009.61,232.12 1010.64,231.756 1011.67,231.393 1012.7,231.031 1013.73,230.67 1014.76,230.309 1015.79,229.95 1016.82,229.591 1017.85,229.233 1018.88,228.876 1019.91,228.52 1020.94,228.165 1021.97,227.811 1023,227.457 1024.03,227.104 1025.06,226.752 1026.09,226.401 1027.12,226.051 1028.15,225.702 1029.18,225.353 1030.21,225.005 1031.24,224.659 1032.27,224.313 1033.31,223.967 1034.34,223.623 1035.37,223.279 1036.4,222.937 1037.43,222.595 1038.46,222.254 1039.49,221.914 1040.52,221.574 1041.55,221.235 1042.58,220.898 1043.61,220.561 1044.64,220.224 1045.67,219.889 1046.7,219.554 1047.73,219.221 1048.76,218.888 1049.79,218.555 1050.82,218.224 1051.85,217.893 1052.88,217.564 1053.91,217.235 1054.94,216.906 1055.97,216.579 1057,216.252 1058.03,215.926 1059.06,215.601 1060.09,215.277 1061.12,214.954 1062.15,214.631 1063.18,214.309 1064.21,213.988 1065.24,213.667 1066.27,213.347 1067.3,213.029 1068.33,212.71 1069.36,212.393 1070.39,212.076 1071.42,211.76 1072.45,211.445 1073.48,211.131 1074.51,210.817 1075.54,210.505 1076.57,210.192 1077.6,209.881 1078.63,209.571 1079.66,209.261 1080.69,208.952 1081.72,208.643 1082.75,208.336 1083.78,208.029 1084.81,207.723 1085.84,207.417 1086.87,207.112 1087.9,206.808 1088.93,206.505 1089.96,206.203 1090.99,205.901 1092.02,205.6 1093.05,205.299 1094.08,205 1095.11,204.701 1096.14,204.403 1097.17,204.105 1098.2,203.809 1099.23,203.513 1100.26,203.217 1101.29,202.923 1102.32,202.629 1103.35,202.335 1104.38,202.043 1105.41,201.751 1106.44,201.46 1107.47,201.17 1108.5,200.88 1109.53,200.591 1110.56,200.302 1111.59,200.015 1112.62,199.728 1113.65,199.442 1114.68,199.156 1115.71,198.871 1116.74,198.587 1117.77,198.303 1118.8,198.021 1119.83,197.738 1120.86,197.457 1121.89,197.176 1122.92,196.896 1123.95,196.616 1124.98,196.338 1126.01,196.06 1127.04,195.782 1128.07,195.505 1129.1,195.229 1130.13,194.954 1131.16,194.679 1132.19,194.405 1133.22,194.131 1134.25,193.858 1135.28,193.586 1136.31,193.315 1137.34,193.044 1138.37,192.773 1139.4,192.504 1140.43,192.235 1141.46,191.967 1142.49,191.699 1143.52,191.432 1144.55,191.166 1145.58,190.9 1146.61,190.635 1147.64,190.37 1148.67,190.106 1149.7,189.843 1150.73,189.581 1151.76,189.319 1152.79,189.057 1153.82,188.797 1154.85,188.537 1155.88,188.277 1156.91,188.018 1157.94,187.76 1158.97,187.503 1160,187.246 1161.03,186.989 1162.06,186.734 1163.09,186.478 1164.12,186.224 1165.15,185.97 1166.18,185.717 1167.21,185.464 1168.24,185.212 1169.27,184.961 1170.3,184.71 1171.33,184.459 1172.36,184.21 1173.39,183.961 1174.42,183.712 1175.45,183.464 1176.48,183.217 1177.51,182.97 1178.54,182.724 1179.57,182.479 1180.6,182.234 1181.63,181.99 1182.66,181.746 1183.69,181.503 1184.72,181.26 1185.75,181.018 1186.78,180.777 1187.81,180.536 1188.84,180.296 1189.87,180.056 1190.9,179.817 1191.93,179.578 1192.96,179.34 1193.99,179.103 1195.02,178.866 1196.05,178.63 1197.08,178.394 1198.11,178.159 1199.14,177.924 1200.17,177.691 1201.2,177.457 1202.23,177.224 1203.26,176.992 1204.29,176.76 1205.32,176.529 1206.35,176.298 1207.38,176.068 1208.41,175.839 1209.44,175.61 1210.47,175.381 1211.5,175.153 1212.53,174.926 1213.56,174.699 1214.59,174.473 1215.62,174.247 1216.65,174.022 1217.68,173.797 1218.71,173.573 1219.74,173.35 1220.77,173.127 1221.8,172.904 1222.83,172.682 1223.86,172.461 1224.89,172.24 1225.92,172.019 1226.95,171.8 1227.98,171.58 1229.01,171.361 1230.04,171.143 1231.07,170.925 1232.1,170.708 1233.13,170.492 1234.16,170.275 1235.19,170.06 1236.22,169.845 1237.25,169.63 1238.28,169.416 1239.31,169.202 1240.34,168.989 1241.37,168.777 1242.4,168.564 1243.43,168.353 1244.46,168.142 1245.49,167.931 1246.52,167.721 1247.55,167.512 1248.58,167.303 1249.61,167.094 1250.64,166.886 1251.67,166.679 1252.7,166.472 1253.73,166.265 1254.76,166.059 1255.79,165.853 1256.82,165.648 1257.85,165.444 1258.88,165.24 1259.91,165.036 1260.94,164.833 1261.97,164.63 1263,164.428 1264.03,164.227 1265.06,164.025 1266.09,163.825 1267.12,163.625 1268.15,163.425 1269.18,163.226 1270.21,163.027 1271.24,162.829 1272.27,162.631 1273.3,162.433 1274.33,162.237 1275.36,162.04 1276.39,161.844 1277.42,161.649 1278.45,161.454 1279.48,161.259 1280.51,161.065 1281.54,160.872 1282.57,160.679 1283.6,160.486 1284.63,160.294 1285.66,160.102 1286.69,159.911 1287.72,159.72 1288.75,159.529 1289.78,159.34 1290.81,159.15 1291.84,158.961 1292.87,158.773 1293.9,158.585 1294.93,158.397 1295.96,158.21 1296.99,158.023 1298.02,157.837 1299.05,157.651 1300.08,157.465 1301.11,157.28 1302.14,157.096 1303.17,156.912 1304.2,156.728 1305.23,156.545 1306.26,156.362 1307.29,156.18 1308.32,155.998 1309.35,155.817 1310.38,155.636 1311.41,155.455 1312.44,155.275 1313.47,155.095 1314.5,154.916 1315.53,154.737 1316.56,154.559 1317.59,154.381 1318.62,154.203 1319.65,154.026 1320.68,153.849 1321.71,153.673 1322.74,153.497 1323.77,153.322 1324.8,153.147 1325.83,152.972 1326.86,152.798 1327.89,152.624 1328.92,152.451 1329.95,152.278 1330.98,152.105 1332.01,151.933 1333.04,151.762 1334.07,151.59 1335.1,151.419 1336.13,151.249 1337.16,151.079 1338.19,150.909 1339.22,150.74 1340.25,150.571 1341.28,150.403 1342.31,150.235 1343.34,150.067 1344.37,149.9 1345.4,149.733 1346.43,149.567 1347.46,149.401 1348.49,149.235 1349.52,149.07 1350.55,148.905 1351.58,148.741 1352.61,148.576 1353.64,148.413 1354.67,148.25 1355.7,148.087 1356.73,147.924 1357.76,147.762 1358.79,147.6 1359.82,147.439 1360.85,147.278 1361.88,147.118 1362.91,146.958 1363.94,146.798 1364.97,146.638 1366,146.479 1367.03,146.321 1368.06,146.163 1369.09,146.005 1370.12,145.847 1371.15,145.69 1372.18,145.533 1373.21,145.377 1374.24,145.221 1375.27,145.065 1376.3,144.91 1377.33,144.755 1378.36,144.601 1379.39,144.447 1380.42,144.293 1381.45,144.14 1382.48,143.987 1383.51,143.834 1384.54,143.682 1385.57,143.53 1386.6,143.378 1387.63,143.227 1388.66,143.076 1389.69,142.926 1390.72,142.776 1391.75,142.626 1392.78,142.477 1393.81,142.327 1394.84,142.179 1395.87,142.031 1396.9,141.883 1397.93,141.735 1398.96,141.588 1399.99,141.441 1401.02,141.294 1402.05,141.148 1403.08,141.002 1404.11,140.857 1405.14,140.712 1406.17,140.567 1407.2,140.422 1408.23,140.278 1409.26,140.135 1410.29,139.991 1411.32,139.848 1412.35,139.705 1413.38,139.563 1414.41,139.421 1415.44,139.279 1416.47,139.138 1417.5,138.997 1418.53,138.856 1419.56,138.716 1420.59,138.576 1421.62,138.436 1422.65,138.297 1423.68,138.158 1424.71,138.019 1425.74,137.881 1426.77,137.743 1427.8,137.605 1428.83,137.468 1429.86,137.331 1430.89,137.194 1431.92,137.058 1432.95,136.922 1433.98,136.786 1435.01,136.651 1436.04,136.515 1437.07,136.381 1438.1,136.246 1439.13,136.112 1440.16,135.978 1441.19,135.845 1442.22,135.712 1443.25,135.579 1444.28,135.447 1445.31,135.314 1446.34,135.183 1447.37,135.051 1448.4,134.92 1449.43,134.789 1450.46,134.658 1451.49,134.528 1452.52,134.398 1453.55,134.268 1454.58,134.139 1455.61,134.01 1456.64,133.881 1457.67,133.753 1458.7,133.625 1459.73,133.497 1460.76,133.369 1461.79,133.242 1462.82,133.115 1463.85,132.989 1464.88,132.862 1465.91,132.736 1466.94,132.611 1467.97,132.485 1469,132.36 1470.03,132.236 1471.06,132.111 1472.09,131.987 1473.12,131.863 1474.15,131.739 1475.18,131.616 1476.21,131.493 1477.24,131.37 1478.27,131.248 1479.3,131.126 1480.33,131.004 1481.36,130.883 1482.39,130.761 1483.42,130.64 1484.45,130.52 1485.48,130.399 1486.51,130.279 1487.54,130.16 1488.57,130.04 1489.6,129.921 1490.63,129.802 1491.66,129.683 1492.69,129.565 1493.72,129.447 1494.75,129.329 1495.78,129.212 1496.81,129.094 1497.84,128.977 1498.87,128.861 1499.9,128.744 1500.93,128.628 1501.96,128.512 1502.99,128.397 1504.02,128.282 1505.05,128.167 1506.08,128.052 1507.11,127.937 1508.14,127.823 1509.17,127.709 1510.2,127.596 1511.23,127.482 1512.26,127.369 1513.29,127.256 1514.32,127.144 1515.35,127.032 1516.38,126.92 1517.41,126.808 1518.44,126.696 1519.47,126.585 1520.5,126.474 1521.53,126.364 1522.56,126.253 1523.59,126.143 1524.62,126.033 1525.65,125.924 1526.68,125.814 1527.71,125.705 1528.74,125.596 1529.77,125.488 1530.8,125.38 1531.83,125.272 1532.86,125.164 1533.89,125.056 1534.92,124.949 1535.95,124.842 1536.98,124.735 1538.01,124.629 1539.04,124.522 1540.07,124.416 1541.1,124.311 1542.13,124.205 1543.16,124.1 1544.19,123.995 1545.22,123.89 1546.25,123.786 1547.28,123.682 1548.31,123.578 1549.34,123.474 1550.37,123.37 1551.4,123.267 1552.43,123.164 1553.46,123.062 1554.49,122.959 1555.52,122.857 1556.55,122.755 1557.58,122.653 1558.61,122.552 1559.64,122.45 1560.67,122.349 1561.7,122.248 1562.73,122.148 1563.76,122.048 1564.79,121.948 1565.82,121.848 1566.85,121.748 1567.88,121.649 1568.91,121.55 1569.94,121.451 1570.97,121.352 1572,121.254 1573.03,121.156 1574.06,121.058 1575.09,120.96 1576.12,120.863 1577.15,120.765 1578.18,120.669 1579.21,120.572 1580.24,120.475 1581.27,120.379 1582.3,120.283 1583.33,120.187 1584.36,120.091 1585.39,119.996 1586.42,119.901 1587.45,119.806 1588.48,119.711 1589.51,119.617 1590.54,119.523 1591.57,119.429 1592.6,119.335 1593.63,119.241 1594.66,119.148 1595.69,119.055 1596.72,118.962 1597.75,118.869 1598.78,118.777 1599.81,118.685 1600.84,118.593 1601.87,118.501 1602.9,118.409 1603.93,118.318 1604.96,118.227 1605.99,118.136 1607.02,118.045 1608.05,117.955 1609.08,117.865 1610.11,117.775 1611.14,117.685 1612.17,117.595 1613.2,117.506 1614.23,117.417 1615.26,117.328 1616.29,117.239 1617.32,117.151 1618.35,117.062 1619.38,116.974 1620.41,116.886 1621.44,116.799 1622.47,116.711 1623.5,116.624 1624.53,116.537 1625.56,116.45 1626.59,116.363 1627.62,116.277 1628.65,116.191 1629.68,116.105 1630.71,116.019 1631.74,115.933 1632.77,115.848 1633.8,115.763 1634.83,115.678 1635.86,115.593 1636.89,115.508 1637.92,115.424 1638.95,115.34 1639.98,115.256 1641.01,115.172 1642.04,115.088 1643.07,115.005 1644.1,114.922 1645.13,114.839 1646.16,114.756 1647.19,114.674 1648.22,114.591 1649.25,114.509 1650.28,114.427 1651.31,114.345 1652.34,114.264 1653.37,114.182 1654.4,114.101 1655.43,114.02 1656.46,113.939 1657.49,113.859 1658.52,113.778 1659.55,113.698 1660.58,113.618 1661.61,113.538 1662.64,113.458 1663.67,113.379 1664.71,113.3 1665.74,113.221 1666.77,113.142 1667.8,113.063 1668.83,112.984 1669.86,112.906 1670.89,112.828 1671.92,112.75 1672.95,112.672 1673.98,112.595 1675.01,112.517 1676.04,112.44 1677.07,112.363 1678.1,112.286 1679.13,112.21 1680.16,112.133 1681.19,112.057 1682.22,111.981 1683.25,111.905 1684.28,111.829 1685.31,111.753 1686.34,111.678 1687.37,111.603 1688.4,111.528 1689.43,111.453 1690.46,111.378 1691.49,111.304 1692.52,111.23 1693.55,111.155 1694.58,111.082 1695.61,111.008 1696.64,110.934 1697.67,110.861 1698.7,110.788 1699.73,110.714 1700.76,110.642 1701.79,110.569 1702.82,110.496 1703.85,110.424 1704.88,110.352 1705.91,110.28 1706.94,110.208 1707.97,110.136 1709,110.065 1710.03,109.993 1711.06,109.922 1712.09,109.851 1713.12,109.78 1714.15,109.71 1715.18,109.639 1716.21,109.569 1717.24,109.499 1718.27,109.429 1719.3,109.359 1720.33,109.289 1721.36,109.22 1722.39,109.151 1723.42,109.082 1724.45,109.013 1725.48,108.944 1726.51,108.875 1727.54,108.807 1728.57,108.738 1729.6,108.67 1730.63,108.602 1731.66,108.534 1732.69,108.467 1733.72,108.399 1734.75,108.332 1735.78,108.265 1736.81,108.198 1737.84,108.131 1738.87,108.064 1739.9,107.998 1740.93,107.931 1741.96,107.865 1742.99,107.799 1744.02,107.733 1745.05,107.667 1746.08,107.602 1747.11,107.536 1748.14,107.471 1749.17,107.406 1750.2,107.341 1751.23,107.276 1752.26,107.212 1753.29,107.147 1754.32,107.083 1755.35,107.019 1756.38,106.954 1757.41,106.891 1758.44,106.827 1759.47,106.763 1760.5,106.7 1761.53,106.637 1762.56,106.574 1763.59,106.511 1764.62,106.448 1765.65,106.385 1766.68,106.323 1767.71,106.26 1768.74,106.198 1769.77,106.136 1770.8,106.074 1771.83,106.012 1772.86,105.951 1773.89,105.889 1774.92,105.828 1775.95,105.767 1776.98,105.706 1778.01,105.645 1779.04,105.584 1780.07,105.523 1781.1,105.463 1782.13,105.403 1783.16,105.343 1784.19,105.283 1785.22,105.223 1786.25,105.163 1787.28,105.103 1788.31,105.044 1789.34,104.985 1790.37,104.926 1791.4,104.867 1792.43,104.808 1793.46,104.749 1794.49,104.69 1795.52,104.632 1796.55,104.574 1797.58,104.515 1798.61,104.457 1799.64,104.399 1800.67,104.342 1801.7,104.284 1802.73,104.227 1803.76,104.169 1804.79,104.112 1805.82,104.055 1806.85,103.998 1807.88,103.941 1808.91,103.885 1809.94,103.828 1810.97,103.772 1812,103.716 1813.03,103.659 1814.06,103.603 1815.09,103.548 1816.12,103.492 1817.15,103.436 1818.18,103.381 1819.21,103.326 1820.24,103.27 1821.27,103.215 1822.3,103.16 1823.33,103.106 1824.36,103.051 1825.39,102.997 1826.42,102.942 1827.45,102.888 1828.48,102.834 1829.51,102.78 1830.54,102.726 1831.57,102.672 1832.6,102.619 1833.63,102.565 1834.66,102.512 1835.69,102.458 1836.72,102.405 1837.75,102.352 1838.78,102.3 1839.81,102.247 1840.84,102.194 1841.87,102.142 1842.9,102.089 1843.93,102.037 1844.96,101.985 1845.99,101.933 1847.02,101.881 1848.05,101.83 1849.08,101.778 1850.11,101.727 1851.14,101.675 1852.17,101.624 1853.2,101.573 1854.23,101.522 1855.26,101.471 1856.29,101.42 1857.32,101.37 1858.35,101.319 1859.38,101.269 1860.41,101.219 1861.44,101.169 1862.47,101.119 1863.5,101.069 1864.53,101.019 1865.56,100.969 1866.59,100.92 1867.62,100.87 1868.65,100.821 1869.68,100.772 1870.71,100.723 1871.74,100.674 1872.77,100.625 1873.8,100.576 1874.83,100.528 1875.86,100.479 1876.89,100.431 1877.92,100.383 1878.95,100.335 1879.98,100.287 1881.01,100.239 1882.04,100.191 1883.07,100.143 1884.1,100.096 1885.13,100.048 1886.16,100.001 1887.19,99.9538 1888.22,99.9067 1889.25,99.8597 1890.28,99.8128 1891.31,99.7661 1892.34,99.7194 1893.37,99.6729 1894.4,99.6265 1895.43,99.5802 1896.46,99.534 1897.49,99.4879 1898.52,99.4419 1899.55,99.396 1900.58,99.3503 1901.61,99.3046 1902.64,99.2591 1903.67,99.2137 1904.7,99.1684 1905.73,99.1232 1906.76,99.0781 1907.79,99.0331 1908.82,98.9882 1909.85,98.9434 1910.88,98.8987 1911.91,98.8542 1912.94,98.8097 1913.97,98.7654 1915,98.7211 1916.03,98.677 1917.06,98.6329 1918.09,98.589 1919.12,98.5452 1920.15,98.5015 1921.18,98.4579 1922.21,98.4144 1923.24,98.371 1924.27,98.3277 1925.3,98.2845 1926.33,98.2414 1927.36,98.1984 1928.39,98.1555 1929.42,98.1127 1930.45,98.07 1931.48,98.0275 1932.51,97.985 1933.54,97.9426 1934.57,97.9003 1935.6,97.8582 1936.63,97.8161 1937.66,97.7741 1938.69,97.7323 1939.72,97.6905 1940.75,97.6488 1941.78,97.6073 1942.81,97.5658 1943.84,97.5244 1944.87,97.4832 1945.9,97.442 1946.93,97.4009 1947.96,97.36 1948.99,97.3191 1950.02,97.2783 1951.05,97.2376 1952.08,97.197 1953.11,97.1566 1954.14,97.1162 1955.17,97.0759 1956.2,97.0357 1957.23,96.9956 1958.26,96.9556 1959.29,96.9157 1960.32,96.8759 1961.35,96.8362 1962.38,96.7965 1963.41,96.757 1964.44,96.7176 1965.47,96.6783 1966.5,96.639 1967.53,96.5999 1968.56,96.5608 1969.59,96.5219 1970.62,96.483 1971.65,96.4442 1972.68,96.4055 1973.71,96.3669 1974.74,96.3285 1975.77,96.2901 1976.8,96.2517 1977.83,96.2135 1978.86,96.1754 1979.89,96.1374 1980.92,96.0994 1981.95,96.0616 1982.98,96.0238 1984.01,95.9861 1985.04,95.9485 1986.07,95.9111 1987.1,95.8737 1988.13,95.8363 1989.16,95.7991 1990.19,95.762 1991.22,95.7249 1992.25,95.688 1993.28,95.6511 1994.31,95.6143 1995.34,95.5777 1996.37,95.5411 1997.4,95.5045 1998.43,95.4681 1999.46,95.4318 2000.49,95.3955 2001.52,95.3594 2002.55,95.3233 2003.58,95.2873 2004.61,95.2514 2005.64,95.2156 2006.67,95.1798 2007.7,95.1442 2008.73,95.1086 2009.76,95.0731 2010.79,95.0377 2011.82,95.0024 2012.85,94.9672 2013.88,94.9321 2014.91,94.897 2015.94,94.862 2016.97,94.8272 2018,94.7923 2019.03,94.7576 2020.06,94.723 2021.09,94.6884 2022.12,94.654 2023.15,94.6196 2024.18,94.5853 2025.21,94.5511 2026.24,94.5169 2027.27,94.4829 2028.3,94.4489 2029.33,94.415 2030.36,94.3812 2031.39,94.3474 2032.42,94.3138 2033.45,94.2802 2034.48,94.2467 2035.51,94.2133 2036.54,94.18 2037.57,94.1467 2038.6,94.1135 2039.63,94.0804 2040.66,94.0474 2041.69,94.0145 2042.72,93.9816 2043.75,93.9489 2044.78,93.9162 2045.81,93.8836 2046.84,93.851 2047.87,93.8185 2048.9,93.7862 2049.93,93.7539 2050.96,93.7216 2051.99,93.6895 2053.02,93.6574 2054.05,93.6254 2055.08,93.5935 2056.11,93.5616 2057.14,93.5299 2058.17,93.4982 2059.2,93.4665 2060.23,93.435 2061.26,93.4035 2062.29,93.3721 2063.32,93.3408 2064.35,93.3096 2065.38,93.2784 2066.41,93.2473 2067.44,93.2163 2068.47,93.1854 2069.5,93.1545 2070.53,93.1237 2071.56,93.093 2072.59,93.0623 2073.62,93.0318 2074.65,93.0013 2075.68,92.9708 2076.71,92.9405 2077.74,92.9102 2078.77,92.88 2079.8,92.8499 2080.83,92.8198 2081.86,92.7898 2082.89,92.7599 2083.92,92.73 2084.95,92.7003 2085.98,92.6706 2087.01,92.6409 2088.04,92.6114 2089.07,92.5819 2090.1,92.5525 2091.13,92.5231 2092.16,92.4938 2093.19,92.4646 2094.22,92.4355 2095.25,92.4064 2096.28,92.3774 2097.31,92.3485 2098.34,92.3196 2099.37,92.2908 2100.4,92.2621 2101.43,92.2334 2102.46,92.2049 2103.49,92.1763 2104.52,92.1479 2105.55,92.1195 2106.58,92.0912 2107.61,92.063 2108.64,92.0348 2109.67,92.0067 2110.7,91.9786 2111.73,91.9507 2112.76,91.9227 2113.79,91.8949 2114.82,91.8671 2115.85,91.8394 2116.88,91.8118 2117.91,91.7842 2118.94,91.7567 2119.97,91.7293 2121,91.7019 2122.03,91.6746 2123.06,91.6473 2124.09,91.6201 2125.12,91.593 2126.15,91.566 2127.18,91.539 2128.21,91.5121 2129.24,91.4852 2130.27,91.4584 2131.3,91.4317 2132.33,91.405 2133.36,91.3784 2134.39,91.3519 2135.42,91.3254 2136.45,91.299 2137.48,91.2727 2138.51,91.2464 2139.54,91.2202 2140.57,91.194 2141.6,91.1679 2142.63,91.1419 2143.66,91.1159 2144.69,91.09 2145.72,91.0642 2146.75,91.0384 2147.78,91.0126 2148.81,90.987 2149.84,90.9614 2150.87,90.9359 2151.9,90.9104 2152.93,90.885 2153.96,90.8596 2154.99,90.8343 2156.02,90.8091 2157.05,90.7839 2158.08,90.7588 2159.11,90.7338 2160.14,90.7088 2161.17,90.6838 2162.2,90.659 2163.23,90.6341 2164.26,90.6094 2165.29,90.5847 2166.32,90.5601 2167.35,90.5355 2168.38,90.511 2169.41,90.4865 2170.44,90.4621 2171.47,90.4378 2172.5,90.4135 2173.53,90.3893 2174.56,90.3651 2175.59,90.341 2176.62,90.317 2177.65,90.293 2178.68,90.269 2179.71,90.2452 2180.74,90.2213 2181.77,90.1976 2182.8,90.1739 2183.83,90.1502 2184.86,90.1266 2185.89,90.1031 2186.92,90.0796 2187.95,90.0562 2188.98,90.0328 2190.01,90.0095 2191.04,89.9863 2192.07,89.9631 2193.1,89.9399 2194.13,89.9168 2195.16,89.8938 2196.19,89.8708 2197.22,89.8479 2198.25,89.825 2199.28,89.8022 2200.31,89.7795 2201.34,89.7568 2202.37,89.7341 2203.4,89.7115 2204.43,89.689 2205.46,89.6665 2206.49,89.644 2207.52,89.6217 2208.55,89.5993 2209.58,89.5771 2210.61,89.5549 2211.64,89.5327 2212.67,89.5106 2213.7,89.4885 2214.73,89.4665 2215.76,89.4446 2216.79,89.4227 2217.82,89.4008 2218.85,89.379 2219.88,89.3573 2220.91,89.3356 2221.94,89.3139 2222.97,89.2924 2224,89.2708 2225.03,89.2493 2226.06,89.2279 2227.09,89.2065 2228.12,89.1852 2229.15,89.1639 2230.18,89.1427 2231.21,89.1215 2232.24,89.1004 2233.27,89.0793 2234.3,89.0583 2235.33,89.0373 2236.36,89.0164 2237.39,88.9955 2238.42,88.9747 2239.45,88.9539 2240.48,88.9332 2241.51,88.9125 2242.54,88.8919 2243.57,88.8713 2244.6,88.8508 2245.63,88.8303 2246.66,88.8099 2247.69,88.7895 2248.72,88.7692 2249.75,88.7489 2250.78,88.7287 2251.81,88.7085 2252.84,88.6883 2253.87,88.6682 2254.9,88.6482 2255.93,88.6282 2256.96,88.6083 2257.99,88.5884 2259.02,88.5685 2260.05,88.5487 2261.08,88.529 2262.11,88.5093 2263.14,88.4896 2264.17,88.47 2265.2,88.4504 2266.23,88.4309 2267.26,88.4114 2268.29,88.392 2269.32,88.3726 2270.35,88.3533 2271.38,88.334 2272.41,88.3148 2273.44,88.2956 2274.47,88.2765 2275.5,88.2574 2276.53,88.2383 2277.56,88.2193 2278.59,88.2003 2279.62,88.1814 2280.65,88.1625 2281.68,88.1437 2282.71,88.1249 2283.74,88.1062 2284.77,88.0875 2285.8,88.0688 2286.83,88.0502 2287.86,88.0317 2288.89,88.0132 2289.92,87.9947 2290.95,87.9763 "/>
<path clip-path="url(#clip010)" d="M241.909 250.738 L857.539 250.738 L857.539 95.2176 L241.909 95.2176  Z" fill="#ffffff" fill-rule="evenodd" fill-opacity="1"/>
<polyline clip-path="url(#clip010)" style="stroke:#000000; stroke-linecap:round; stroke-linejoin:round; stroke-width:4; stroke-opacity:1; fill:none" points="241.909,250.738 857.539,250.738 857.539,95.2176 241.909,95.2176 241.909,250.738 "/>
<polyline clip-path="url(#clip010)" style="stroke:#009af9; stroke-linecap:round; stroke-linejoin:round; stroke-width:4; stroke-opacity:1; fill:none" points="266.172,147.058 411.747,147.058 "/>
<path clip-path="url(#clip010)" d="M446.427 129.153 Q452.121 129.153 455.732 131.583 Q459.343 133.99 459.343 138.111 Q459.343 140.981 457.7 142.972 Q456.056 144.94 453.024 145.703 Q456.38 146.421 458.255 148.689 Q460.153 150.958 460.153 154.291 Q460.153 159.615 456.033 162.324 Q451.936 165.009 446.427 165.009 Q443.603 165.009 440.316 164.245 Q437.029 163.481 436.01 162.833 L436.01 158.018 Q439.552 160.078 441.496 160.588 Q443.464 161.074 446.334 161.074 Q450.686 161.074 453.093 159.407 Q455.501 157.74 455.501 154.291 Q455.501 151.236 453.348 149.523 Q451.218 147.787 446.704 147.787 L441.982 147.787 L441.982 143.944 L446.89 143.944 Q451.033 143.944 452.862 142.578 Q454.69 141.19 454.69 138.597 Q454.69 135.935 452.792 134.523 Q450.917 133.088 446.334 133.088 Q443.232 133.088 442.167 133.365 Q441.103 133.643 436.357 135.426 L436.357 130.866 Q438.973 129.94 441.704 129.546 Q444.436 129.153 446.427 129.153 Z" fill="#000000" fill-rule="evenodd" fill-opacity="1" /><path clip-path="url(#clip010)" d="M479.528 151.305 Q474.366 151.305 472.376 152.486 Q470.385 153.666 470.385 156.514 Q470.385 158.782 471.866 160.125 Q473.371 161.444 475.94 161.444 Q479.482 161.444 481.612 158.944 Q483.764 156.421 483.764 152.254 L483.764 151.305 L479.528 151.305 M488.024 149.546 L488.024 164.338 L483.764 164.338 L483.764 160.402 Q482.306 162.763 480.13 163.898 Q477.954 165.009 474.806 165.009 Q470.825 165.009 468.464 162.787 Q466.126 160.541 466.126 156.791 Q466.126 152.416 469.042 150.194 Q471.982 147.972 477.792 147.972 L483.764 147.972 L483.764 147.555 Q483.764 144.615 481.82 143.018 Q479.899 141.398 476.403 141.398 Q474.181 141.398 472.075 141.93 Q469.968 142.463 468.024 143.527 L468.024 139.592 Q470.362 138.69 472.561 138.25 Q474.76 137.787 476.843 137.787 Q482.468 137.787 485.246 140.703 Q488.024 143.62 488.024 149.546 Z" fill="#000000" fill-rule="evenodd" fill-opacity="1" /><path clip-path="url(#clip010)" d="M500.917 160.449 L500.917 174.199 L496.635 174.199 L496.635 138.412 L500.917 138.412 L500.917 142.347 Q502.26 140.032 504.297 138.921 Q506.357 137.787 509.204 137.787 Q513.926 137.787 516.866 141.537 Q519.829 145.287 519.829 151.398 Q519.829 157.509 516.866 161.259 Q513.926 165.009 509.204 165.009 Q506.357 165.009 504.297 163.898 Q502.26 162.763 500.917 160.449 M515.408 151.398 Q515.408 146.699 513.463 144.037 Q511.542 141.352 508.162 141.352 Q504.783 141.352 502.838 144.037 Q500.917 146.699 500.917 151.398 Q500.917 156.097 502.838 158.782 Q504.783 161.444 508.162 161.444 Q511.542 161.444 513.463 158.782 Q515.408 156.097 515.408 151.398 Z" fill="#000000" fill-rule="evenodd" fill-opacity="1" /><path clip-path="url(#clip010)" d="M538.671 151.305 Q533.509 151.305 531.519 152.486 Q529.528 153.666 529.528 156.514 Q529.528 158.782 531.009 160.125 Q532.514 161.444 535.084 161.444 Q538.625 161.444 540.755 158.944 Q542.908 156.421 542.908 152.254 L542.908 151.305 L538.671 151.305 M547.167 149.546 L547.167 164.338 L542.908 164.338 L542.908 160.402 Q541.449 162.763 539.273 163.898 Q537.097 165.009 533.949 165.009 Q529.968 165.009 527.607 162.787 Q525.269 160.541 525.269 156.791 Q525.269 152.416 528.185 150.194 Q531.125 147.972 536.935 147.972 L542.908 147.972 L542.908 147.555 Q542.908 144.615 540.963 143.018 Q539.042 141.398 535.546 141.398 Q533.324 141.398 531.218 141.93 Q529.111 142.463 527.167 143.527 L527.167 139.592 Q529.505 138.69 531.704 138.25 Q533.903 137.787 535.986 137.787 Q541.611 137.787 544.389 140.703 Q547.167 143.62 547.167 149.546 Z" fill="#000000" fill-rule="evenodd" fill-opacity="1" /><path clip-path="url(#clip010)" d="M570.708 138.412 L574.944 138.412 L574.944 150.588 L586.264 138.412 L591.217 138.412 L581.912 148.389 L592.56 164.338 L588 164.338 L579.273 151.236 L574.944 155.889 L574.944 164.338 L570.708 164.338 L570.708 155.889 L566.38 151.236 L557.653 164.338 L553.093 164.338 L563.741 148.389 L554.435 138.412 L559.389 138.412 L570.708 150.588 L570.708 138.412 Z" fill="#000000" fill-rule="evenodd" fill-opacity="1" /><path clip-path="url(#clip010)" d="M620.824 150.31 L620.824 152.393 L601.241 152.393 Q601.518 156.791 603.879 159.106 Q606.264 161.398 610.5 161.398 Q612.953 161.398 615.245 160.796 Q617.56 160.194 619.828 158.99 L619.828 163.018 Q617.537 163.99 615.129 164.5 Q612.722 165.009 610.245 165.009 Q604.041 165.009 600.407 161.398 Q596.796 157.787 596.796 151.629 Q596.796 145.264 600.222 141.537 Q603.671 137.787 609.504 137.787 Q614.736 137.787 617.768 141.166 Q620.824 144.523 620.824 150.31 M616.565 149.06 Q616.518 145.565 614.597 143.481 Q612.699 141.398 609.551 141.398 Q605.986 141.398 603.833 143.412 Q601.704 145.426 601.379 149.083 L616.565 149.06 M611.68 128.412 L616.379 128.412 L616.379 133.088 L611.68 133.088 L611.68 128.412 M602.629 128.412 L607.329 128.412 L607.329 133.088 L602.629 133.088 L602.629 128.412 Z" fill="#000000" fill-rule="evenodd" fill-opacity="1" /><path clip-path="url(#clip010)" d="M627.652 138.412 L631.935 138.412 L631.935 148.99 L645.754 148.99 L645.754 138.412 L650.037 138.412 L650.037 164.338 L645.754 164.338 L645.754 152.393 L631.935 152.393 L631.935 164.338 L627.652 164.338 L627.652 138.412 Z" fill="#000000" fill-rule="evenodd" fill-opacity="1" /><path clip-path="url(#clip010)" d="M658.648 138.412 L662.93 138.412 L662.93 148.99 L676.749 148.99 L676.749 138.412 L681.032 138.412 L681.032 164.338 L676.749 164.338 L676.749 152.393 L662.93 152.393 L662.93 164.338 L658.648 164.338 L658.648 138.412 Z" fill="#000000" fill-rule="evenodd" fill-opacity="1" /><path clip-path="url(#clip010)" d="M714.296 138.412 L718.555 138.412 L718.555 164.338 L714.296 164.338 L714.296 138.412 M716.425 137.787 L716.425 137.787 M705.939 156.652 Q705.939 154.569 704.411 153.481 Q702.907 152.393 699.99 152.393 L693.925 152.393 L693.925 160.935 L699.99 160.935 Q702.907 160.935 704.411 159.847 Q705.939 158.736 705.939 156.652 M689.643 138.412 L693.925 138.412 L693.925 148.99 L700.175 148.99 Q705.129 148.99 707.791 150.889 Q710.476 152.764 710.476 156.652 Q710.476 160.541 707.791 162.439 Q705.129 164.338 700.175 164.338 L689.643 164.338 L689.643 138.412 Z" fill="#000000" fill-rule="evenodd" fill-opacity="1" /><path clip-path="url(#clip010)" d="M749.411 150.31 L749.411 152.393 L729.828 152.393 Q730.106 156.791 732.467 159.106 Q734.851 161.398 739.087 161.398 Q741.541 161.398 743.832 160.796 Q746.147 160.194 748.416 158.99 L748.416 163.018 Q746.124 163.99 743.717 164.5 Q741.309 165.009 738.832 165.009 Q732.629 165.009 728.995 161.398 Q725.383 157.787 725.383 151.629 Q725.383 145.264 728.809 141.537 Q732.258 137.787 738.092 137.787 Q743.323 137.787 746.356 141.166 Q749.411 144.523 749.411 150.31 M745.152 149.06 Q745.106 145.565 743.184 143.481 Q741.286 141.398 738.138 141.398 Q734.573 141.398 732.42 143.412 Q730.291 145.426 729.967 149.083 L745.152 149.06 Z" fill="#000000" fill-rule="evenodd" fill-opacity="1" /><polyline clip-path="url(#clip010)" style="stroke:#e26f46; stroke-linecap:round; stroke-linejoin:round; stroke-width:4; stroke-opacity:1; fill:none" points="266.172,198.898 411.747,198.898 "/>
<path clip-path="url(#clip010)" d="M440.686 199.673 L440.686 212.335 L448.186 212.335 Q451.959 212.335 453.765 210.784 Q455.593 209.21 455.593 205.992 Q455.593 202.752 453.765 201.224 Q451.959 199.673 448.186 199.673 L440.686 199.673 M440.686 185.46 L440.686 195.877 L447.607 195.877 Q451.033 195.877 452.7 194.604 Q454.39 193.307 454.39 190.668 Q454.39 188.053 452.7 186.756 Q451.033 185.46 447.607 185.46 L440.686 185.46 M436.01 181.618 L447.954 181.618 Q453.302 181.618 456.195 183.84 Q459.089 186.062 459.089 190.159 Q459.089 193.33 457.607 195.205 Q456.126 197.08 453.255 197.543 Q456.704 198.284 458.602 200.645 Q460.524 202.983 460.524 206.502 Q460.524 211.131 457.376 213.654 Q454.227 216.178 448.417 216.178 L436.01 216.178 L436.01 181.618 Z" fill="#000000" fill-rule="evenodd" fill-opacity="1" /><path clip-path="url(#clip010)" d="M492.838 190.252 L497.098 190.252 L497.098 216.178 L492.838 216.178 L492.838 190.252 M494.968 189.627 L494.968 189.627 M484.482 208.492 Q484.482 206.409 482.954 205.321 Q481.45 204.233 478.533 204.233 L472.468 204.233 L472.468 212.775 L478.533 212.775 Q481.45 212.775 482.954 211.687 Q484.482 210.576 484.482 208.492 M468.186 190.252 L472.468 190.252 L472.468 200.83 L478.718 200.83 Q483.672 200.83 486.334 202.729 Q489.019 204.604 489.019 208.492 Q489.019 212.381 486.334 214.279 Q483.672 216.178 478.718 216.178 L468.186 216.178 L468.186 190.252 Z" fill="#000000" fill-rule="evenodd" fill-opacity="1" /><path clip-path="url(#clip010)" d="M517.653 202.196 Q520.523 202.752 522.121 204.442 Q523.718 206.131 523.718 208.631 Q523.718 212.636 520.732 214.742 Q517.746 216.849 512.236 216.849 Q510.385 216.849 508.417 216.525 Q506.473 216.201 504.389 215.553 L504.389 211.594 Q506.033 212.451 508 212.891 Q509.968 213.307 512.121 213.307 Q515.616 213.307 517.56 212.011 Q519.528 210.715 519.528 208.631 Q519.528 206.594 517.792 205.367 Q516.056 204.117 512.885 204.117 L509.459 204.117 L509.459 200.599 L513.047 200.599 Q515.732 200.599 517.283 199.58 Q518.857 198.539 518.857 196.918 Q518.857 195.437 517.236 194.372 Q515.639 193.307 512.885 193.307 Q511.241 193.307 509.366 193.608 Q507.514 193.909 505.269 194.58 L505.269 190.715 Q507.537 190.159 509.505 189.881 Q511.473 189.604 513.232 189.604 Q517.769 189.604 520.385 191.432 Q523.023 193.238 523.023 196.502 Q523.023 198.654 521.635 200.159 Q520.246 201.641 517.653 202.196 Z" fill="#000000" fill-rule="evenodd" fill-opacity="1" /><path clip-path="url(#clip010)" d="M536.773 212.775 L549.134 212.775 L549.134 193.655 L540.176 193.655 L540.176 196.895 Q540.176 206.432 537.445 211.525 L536.773 212.775 M530.593 212.775 Q532.699 211.849 533.625 209.881 Q535.894 204.997 535.894 195.159 L535.894 190.252 L553.417 190.252 L553.417 212.775 L556.82 212.775 L556.82 222.728 L553.417 222.728 L553.417 216.178 L532.398 216.178 L532.398 222.728 L528.996 222.728 L528.996 212.775 L530.593 212.775 Z" fill="#000000" fill-rule="evenodd" fill-opacity="1" /><path clip-path="url(#clip010)" d="M573.81 193.238 Q570.384 193.238 568.394 195.923 Q566.403 198.585 566.403 203.238 Q566.403 207.891 568.37 210.576 Q570.361 213.238 573.81 213.238 Q577.213 213.238 579.204 210.553 Q581.194 207.867 581.194 203.238 Q581.194 198.631 579.204 195.946 Q577.213 193.238 573.81 193.238 M573.81 189.627 Q579.366 189.627 582.537 193.238 Q585.708 196.849 585.708 203.238 Q585.708 209.604 582.537 213.238 Q579.366 216.849 573.81 216.849 Q568.232 216.849 565.06 213.238 Q561.912 209.604 561.912 203.238 Q561.912 196.849 565.06 193.238 Q568.232 189.627 573.81 189.627 Z" fill="#000000" fill-rule="evenodd" fill-opacity="1" /><path clip-path="url(#clip010)" d="M596.889 212.289 L596.889 226.039 L592.606 226.039 L592.606 190.252 L596.889 190.252 L596.889 194.187 Q598.231 191.872 600.268 190.761 Q602.329 189.627 605.176 189.627 Q609.898 189.627 612.838 193.377 Q615.801 197.127 615.801 203.238 Q615.801 209.349 612.838 213.099 Q609.898 216.849 605.176 216.849 Q602.329 216.849 600.268 215.738 Q598.231 214.603 596.889 212.289 M611.379 203.238 Q611.379 198.539 609.435 195.877 Q607.514 193.192 604.134 193.192 Q600.754 193.192 598.81 195.877 Q596.889 198.539 596.889 203.238 Q596.889 207.937 598.81 210.622 Q600.754 213.284 604.134 213.284 Q607.514 213.284 609.435 210.622 Q611.379 207.937 611.379 203.238 Z" fill="#000000" fill-rule="evenodd" fill-opacity="1" /><path clip-path="url(#clip010)" d="M632.907 193.238 Q629.481 193.238 627.49 195.923 Q625.5 198.585 625.5 203.238 Q625.5 207.891 627.467 210.576 Q629.458 213.238 632.907 213.238 Q636.31 213.238 638.301 210.553 Q640.291 207.867 640.291 203.238 Q640.291 198.631 638.301 195.946 Q636.31 193.238 632.907 193.238 M632.907 189.627 Q638.463 189.627 641.634 193.238 Q644.805 196.849 644.805 203.238 Q644.805 209.604 641.634 213.238 Q638.463 216.849 632.907 216.849 Q627.328 216.849 624.157 213.238 Q621.009 209.604 621.009 203.238 Q621.009 196.849 624.157 193.238 Q627.328 189.627 632.907 189.627 Z" fill="#000000" fill-rule="evenodd" fill-opacity="1" /><path clip-path="url(#clip010)" d="M655.963 204.233 L655.963 212.775 L662.027 212.775 Q664.944 212.775 666.472 211.687 Q667.999 210.576 667.999 208.492 Q667.999 206.409 666.472 205.321 Q664.944 204.233 662.027 204.233 L655.963 204.233 M655.963 193.655 L655.963 200.83 L661.564 200.83 Q663.972 200.83 665.499 199.881 Q667.027 198.909 667.027 197.196 Q667.027 195.483 665.499 194.58 Q663.972 193.655 661.564 193.655 L655.963 193.655 M651.703 190.252 L661.842 190.252 Q666.402 190.252 668.856 191.918 Q671.31 193.585 671.31 196.664 Q671.31 199.048 670.06 200.46 Q668.81 201.849 666.356 202.196 Q669.296 202.752 670.916 204.511 Q672.536 206.27 672.536 208.909 Q672.536 212.381 669.851 214.279 Q667.189 216.178 662.236 216.178 L651.703 216.178 L651.703 190.252 Z" fill="#000000" fill-rule="evenodd" fill-opacity="1" /><path clip-path="url(#clip010)" d="M701.981 202.15 L701.981 204.233 L682.398 204.233 Q682.675 208.631 685.036 210.946 Q687.421 213.238 691.657 213.238 Q694.11 213.238 696.402 212.636 Q698.717 212.034 700.985 210.83 L700.985 214.858 Q698.694 215.83 696.286 216.34 Q693.879 216.849 691.402 216.849 Q685.198 216.849 681.564 213.238 Q677.953 209.627 677.953 203.469 Q677.953 197.104 681.379 193.377 Q684.828 189.627 690.661 189.627 Q695.893 189.627 698.925 193.006 Q701.981 196.363 701.981 202.15 M697.722 200.9 Q697.675 197.405 695.754 195.321 Q693.856 193.238 690.708 193.238 Q687.143 193.238 684.99 195.252 Q682.861 197.266 682.536 200.923 L697.722 200.9 Z" fill="#000000" fill-rule="evenodd" fill-opacity="1" /><path clip-path="url(#clip010)" d="M713.069 204.233 L713.069 212.775 L719.133 212.775 Q722.05 212.775 723.578 211.687 Q725.106 210.576 725.106 208.492 Q725.106 206.409 723.578 205.321 Q722.05 204.233 719.133 204.233 L713.069 204.233 M713.069 193.655 L713.069 200.83 L718.671 200.83 Q721.078 200.83 722.606 199.881 Q724.133 198.909 724.133 197.196 Q724.133 195.483 722.606 194.58 Q721.078 193.655 718.671 193.655 L713.069 193.655 M708.809 190.252 L718.948 190.252 Q723.508 190.252 725.962 191.918 Q728.416 193.585 728.416 196.664 Q728.416 199.048 727.166 200.46 Q725.916 201.849 723.462 202.196 Q726.402 202.752 728.022 204.511 Q729.643 206.27 729.643 208.909 Q729.643 212.381 726.958 214.279 Q724.295 216.178 719.342 216.178 L708.809 216.178 L708.809 190.252 Z" fill="#000000" fill-rule="evenodd" fill-opacity="1" /><path clip-path="url(#clip010)" d="M756.263 212.775 L767.235 212.775 L767.235 190.252 L771.517 190.252 L771.517 216.178 L736.749 216.178 L736.749 190.252 L741.032 190.252 L741.032 212.775 L751.981 212.775 L751.981 190.252 L756.263 190.252 L756.263 212.775 Z" fill="#000000" fill-rule="evenodd" fill-opacity="1" /><path clip-path="url(#clip010)" d="M802.327 190.252 L802.327 216.178 L798.091 216.178 L798.091 195.367 L785.591 216.178 L780.129 216.178 L780.129 190.252 L784.365 190.252 L784.365 211.016 L796.841 190.252 L802.327 190.252 Z" fill="#000000" fill-rule="evenodd" fill-opacity="1" /><path clip-path="url(#clip010)" d="M833.276 202.15 L833.276 204.233 L813.693 204.233 Q813.971 208.631 816.332 210.946 Q818.716 213.238 822.952 213.238 Q825.406 213.238 827.698 212.636 Q830.013 212.034 832.281 210.83 L832.281 214.858 Q829.989 215.83 827.582 216.34 Q825.175 216.849 822.698 216.849 Q816.494 216.849 812.86 213.238 Q809.249 209.627 809.249 203.469 Q809.249 197.104 812.675 193.377 Q816.124 189.627 821.957 189.627 Q827.188 189.627 830.221 193.006 Q833.276 196.363 833.276 202.15 M829.017 200.9 Q828.971 197.405 827.05 195.321 Q825.151 193.238 822.003 193.238 Q818.438 193.238 816.286 195.252 Q814.156 197.266 813.832 200.923 L829.017 200.9 Z" fill="#000000" fill-rule="evenodd" fill-opacity="1" /></svg>
