<?xml version="1.0" encoding="utf-8"?>
<svg xmlns="http://www.w3.org/2000/svg" xmlns:xlink="http://www.w3.org/1999/xlink" width="600" height="400" viewBox="0 0 2400 1600">
<defs>
  <clipPath id="clip730">
    <rect x="0" y="0" width="2400" height="1600"/>
  </clipPath>
</defs>
<path clip-path="url(#clip730)" d="M0 1600 L2400 1600 L2400 0 L0 0  Z" fill="#ffffff" fill-rule="evenodd" fill-opacity="1"/>
<defs>
  <clipPath id="clip731">
    <rect x="480" y="0" width="1681" height="1600"/>
  </clipPath>
</defs>
<path clip-path="url(#clip730)" d="M210.746 1423.18 L2352.76 1423.18 L2352.76 47.2441 L210.746 47.2441  Z" fill="#ffffff" fill-rule="evenodd" fill-opacity="1"/>
<defs>
  <clipPath id="clip732">
    <rect x="210" y="47" width="2143" height="1377"/>
  </clipPath>
</defs>
<polyline clip-path="url(#clip732)" style="stroke:#000000; stroke-linecap:round; stroke-linejoin:round; stroke-width:2; stroke-opacity:0.1; fill:none" points="510.729,1423.18 510.729,47.2441 "/>
<polyline clip-path="url(#clip732)" style="stroke:#000000; stroke-linecap:round; stroke-linejoin:round; stroke-width:2; stroke-opacity:0.1; fill:none" points="896.24,1423.18 896.24,47.2441 "/>
<polyline clip-path="url(#clip732)" style="stroke:#000000; stroke-linecap:round; stroke-linejoin:round; stroke-width:2; stroke-opacity:0.1; fill:none" points="1281.75,1423.18 1281.75,47.2441 "/>
<polyline clip-path="url(#clip732)" style="stroke:#000000; stroke-linecap:round; stroke-linejoin:round; stroke-width:2; stroke-opacity:0.1; fill:none" points="1667.26,1423.18 1667.26,47.2441 "/>
<polyline clip-path="url(#clip732)" style="stroke:#000000; stroke-linecap:round; stroke-linejoin:round; stroke-width:2; stroke-opacity:0.1; fill:none" points="2052.77,1423.18 2052.77,47.2441 "/>
<polyline clip-path="url(#clip730)" style="stroke:#000000; stroke-linecap:round; stroke-linejoin:round; stroke-width:4; stroke-opacity:1; fill:none" points="210.746,1423.18 2352.76,1423.18 "/>
<polyline clip-path="url(#clip730)" style="stroke:#000000; stroke-linecap:round; stroke-linejoin:round; stroke-width:4; stroke-opacity:1; fill:none" points="510.729,1423.18 510.729,1404.28 "/>
<polyline clip-path="url(#clip730)" style="stroke:#000000; stroke-linecap:round; stroke-linejoin:round; stroke-width:4; stroke-opacity:1; fill:none" points="896.24,1423.18 896.24,1404.28 "/>
<polyline clip-path="url(#clip730)" style="stroke:#000000; stroke-linecap:round; stroke-linejoin:round; stroke-width:4; stroke-opacity:1; fill:none" points="1281.75,1423.18 1281.75,1404.28 "/>
<polyline clip-path="url(#clip730)" style="stroke:#000000; stroke-linecap:round; stroke-linejoin:round; stroke-width:4; stroke-opacity:1; fill:none" points="1667.26,1423.18 1667.26,1404.28 "/>
<polyline clip-path="url(#clip730)" style="stroke:#000000; stroke-linecap:round; stroke-linejoin:round; stroke-width:4; stroke-opacity:1; fill:none" points="2052.77,1423.18 2052.77,1404.28 "/>
<path clip-path="url(#clip730)" d="M457.257 1468.75 L486.933 1468.75 L486.933 1472.69 L457.257 1472.69 L457.257 1468.75 Z" fill="#000000" fill-rule="evenodd" fill-opacity="1" /><path clip-path="url(#clip730)" d="M497.836 1481.64 L505.474 1481.64 L505.474 1455.28 L497.164 1456.95 L497.164 1452.69 L505.428 1451.02 L510.104 1451.02 L510.104 1481.64 L517.743 1481.64 L517.743 1485.58 L497.836 1485.58 L497.836 1481.64 Z" fill="#000000" fill-rule="evenodd" fill-opacity="1" /><path clip-path="url(#clip730)" d="M527.187 1479.7 L532.072 1479.7 L532.072 1485.58 L527.187 1485.58 L527.187 1479.7 Z" fill="#000000" fill-rule="evenodd" fill-opacity="1" /><path clip-path="url(#clip730)" d="M552.257 1454.1 Q548.646 1454.1 546.817 1457.66 Q545.011 1461.2 545.011 1468.33 Q545.011 1475.44 546.817 1479.01 Q548.646 1482.55 552.257 1482.55 Q555.891 1482.55 557.696 1479.01 Q559.525 1475.44 559.525 1468.33 Q559.525 1461.2 557.696 1457.66 Q555.891 1454.1 552.257 1454.1 M552.257 1450.39 Q558.067 1450.39 561.122 1455 Q564.201 1459.58 564.201 1468.33 Q564.201 1477.06 561.122 1481.67 Q558.067 1486.25 552.257 1486.25 Q546.446 1486.25 543.368 1481.67 Q540.312 1477.06 540.312 1468.33 Q540.312 1459.58 543.368 1455 Q546.446 1450.39 552.257 1450.39 Z" fill="#000000" fill-rule="evenodd" fill-opacity="1" /><path clip-path="url(#clip730)" d="M843.266 1468.75 L872.942 1468.75 L872.942 1472.69 L843.266 1472.69 L843.266 1468.75 Z" fill="#000000" fill-rule="evenodd" fill-opacity="1" /><path clip-path="url(#clip730)" d="M893.034 1454.1 Q889.423 1454.1 887.595 1457.66 Q885.789 1461.2 885.789 1468.33 Q885.789 1475.44 887.595 1479.01 Q889.423 1482.55 893.034 1482.55 Q896.669 1482.55 898.474 1479.01 Q900.303 1475.44 900.303 1468.33 Q900.303 1461.2 898.474 1457.66 Q896.669 1454.1 893.034 1454.1 M893.034 1450.39 Q898.845 1450.39 901.9 1455 Q904.979 1459.58 904.979 1468.33 Q904.979 1477.06 901.9 1481.67 Q898.845 1486.25 893.034 1486.25 Q887.224 1486.25 884.146 1481.67 Q881.09 1477.06 881.09 1468.33 Q881.09 1459.58 884.146 1455 Q887.224 1450.39 893.034 1450.39 Z" fill="#000000" fill-rule="evenodd" fill-opacity="1" /><path clip-path="url(#clip730)" d="M913.196 1479.7 L918.081 1479.7 L918.081 1485.58 L913.196 1485.58 L913.196 1479.7 Z" fill="#000000" fill-rule="evenodd" fill-opacity="1" /><path clip-path="url(#clip730)" d="M928.312 1451.02 L946.668 1451.02 L946.668 1454.96 L932.594 1454.96 L932.594 1463.43 Q933.613 1463.08 934.631 1462.92 Q935.65 1462.73 936.668 1462.73 Q942.455 1462.73 945.835 1465.9 Q949.215 1469.08 949.215 1474.49 Q949.215 1480.07 945.742 1483.17 Q942.27 1486.25 935.951 1486.25 Q933.775 1486.25 931.506 1485.88 Q929.261 1485.51 926.854 1484.77 L926.854 1480.07 Q928.937 1481.2 931.159 1481.76 Q933.381 1482.32 935.858 1482.32 Q939.863 1482.32 942.201 1480.21 Q944.539 1478.1 944.539 1474.49 Q944.539 1470.88 942.201 1468.77 Q939.863 1466.67 935.858 1466.67 Q933.983 1466.67 932.108 1467.08 Q930.256 1467.5 928.312 1468.38 L928.312 1451.02 Z" fill="#000000" fill-rule="evenodd" fill-opacity="1" /><path clip-path="url(#clip730)" d="M1259.14 1454.1 Q1255.52 1454.1 1253.7 1457.66 Q1251.89 1461.2 1251.89 1468.33 Q1251.89 1475.44 1253.7 1479.01 Q1255.52 1482.55 1259.14 1482.55 Q1262.77 1482.55 1264.58 1479.01 Q1266.4 1475.44 1266.4 1468.33 Q1266.4 1461.2 1264.58 1457.66 Q1262.77 1454.1 1259.14 1454.1 M1259.14 1450.39 Q1264.95 1450.39 1268 1455 Q1271.08 1459.58 1271.08 1468.33 Q1271.08 1477.06 1268 1481.67 Q1264.95 1486.25 1259.14 1486.25 Q1253.33 1486.25 1250.25 1481.67 Q1247.19 1477.06 1247.19 1468.33 Q1247.19 1459.58 1250.25 1455 Q1253.33 1450.39 1259.14 1450.39 Z" fill="#000000" fill-rule="evenodd" fill-opacity="1" /><path clip-path="url(#clip730)" d="M1279.3 1479.7 L1284.18 1479.7 L1284.18 1485.58 L1279.3 1485.58 L1279.3 1479.7 Z" fill="#000000" fill-rule="evenodd" fill-opacity="1" /><path clip-path="url(#clip730)" d="M1304.37 1454.1 Q1300.76 1454.1 1298.93 1457.66 Q1297.12 1461.2 1297.12 1468.33 Q1297.12 1475.44 1298.93 1479.01 Q1300.76 1482.55 1304.37 1482.55 Q1308 1482.55 1309.81 1479.01 Q1311.64 1475.44 1311.64 1468.33 Q1311.64 1461.2 1309.81 1457.66 Q1308 1454.1 1304.37 1454.1 M1304.37 1450.39 Q1310.18 1450.39 1313.23 1455 Q1316.31 1459.58 1316.31 1468.33 Q1316.31 1477.06 1313.23 1481.67 Q1310.18 1486.25 1304.37 1486.25 Q1298.56 1486.25 1295.48 1481.67 Q1292.42 1477.06 1292.42 1468.33 Q1292.42 1459.58 1295.48 1455 Q1298.56 1450.39 1304.37 1450.39 Z" fill="#000000" fill-rule="evenodd" fill-opacity="1" /><path clip-path="url(#clip730)" d="M1645.15 1454.1 Q1641.53 1454.1 1639.71 1457.66 Q1637.9 1461.2 1637.9 1468.33 Q1637.9 1475.44 1639.71 1479.01 Q1641.53 1482.55 1645.15 1482.55 Q1648.78 1482.55 1650.58 1479.01 Q1652.41 1475.44 1652.41 1468.33 Q1652.41 1461.2 1650.58 1457.66 Q1648.78 1454.1 1645.15 1454.1 M1645.15 1450.39 Q1650.96 1450.39 1654.01 1455 Q1657.09 1459.58 1657.09 1468.33 Q1657.09 1477.06 1654.01 1481.67 Q1650.96 1486.25 1645.15 1486.25 Q1639.33 1486.25 1636.26 1481.67 Q1633.2 1477.06 1633.2 1468.33 Q1633.2 1459.58 1636.26 1455 Q1639.33 1450.39 1645.15 1450.39 Z" fill="#000000" fill-rule="evenodd" fill-opacity="1" /><path clip-path="url(#clip730)" d="M1665.31 1479.7 L1670.19 1479.7 L1670.19 1485.58 L1665.31 1485.58 L1665.31 1479.7 Z" fill="#000000" fill-rule="evenodd" fill-opacity="1" /><path clip-path="url(#clip730)" d="M1680.42 1451.02 L1698.78 1451.02 L1698.78 1454.96 L1684.71 1454.96 L1684.71 1463.43 Q1685.72 1463.08 1686.74 1462.92 Q1687.76 1462.73 1688.78 1462.73 Q1694.57 1462.73 1697.95 1465.9 Q1701.33 1469.08 1701.33 1474.49 Q1701.33 1480.07 1697.85 1483.17 Q1694.38 1486.25 1688.06 1486.25 Q1685.89 1486.25 1683.62 1485.88 Q1681.37 1485.51 1678.96 1484.77 L1678.96 1480.07 Q1681.05 1481.2 1683.27 1481.76 Q1685.49 1482.32 1687.97 1482.32 Q1691.97 1482.32 1694.31 1480.21 Q1696.65 1478.1 1696.65 1474.49 Q1696.65 1470.88 1694.31 1468.77 Q1691.97 1466.67 1687.97 1466.67 Q1686.09 1466.67 1684.22 1467.08 Q1682.37 1467.5 1680.42 1468.38 L1680.42 1451.02 Z" fill="#000000" fill-rule="evenodd" fill-opacity="1" /><path clip-path="url(#clip730)" d="M2019.93 1481.64 L2027.57 1481.64 L2027.57 1455.28 L2019.26 1456.95 L2019.26 1452.69 L2027.52 1451.02 L2032.2 1451.02 L2032.2 1481.64 L2039.83 1481.64 L2039.83 1485.58 L2019.93 1485.58 L2019.93 1481.64 Z" fill="#000000" fill-rule="evenodd" fill-opacity="1" /><path clip-path="url(#clip730)" d="M2049.28 1479.7 L2054.16 1479.7 L2054.16 1485.58 L2049.28 1485.58 L2049.28 1479.7 Z" fill="#000000" fill-rule="evenodd" fill-opacity="1" /><path clip-path="url(#clip730)" d="M2074.35 1454.1 Q2070.74 1454.1 2068.91 1457.66 Q2067.1 1461.2 2067.1 1468.33 Q2067.1 1475.44 2068.91 1479.01 Q2070.74 1482.55 2074.35 1482.55 Q2077.98 1482.55 2079.79 1479.01 Q2081.62 1475.44 2081.62 1468.33 Q2081.62 1461.2 2079.79 1457.66 Q2077.98 1454.1 2074.35 1454.1 M2074.35 1450.39 Q2080.16 1450.39 2083.21 1455 Q2086.29 1459.58 2086.29 1468.33 Q2086.29 1477.06 2083.21 1481.67 Q2080.16 1486.25 2074.35 1486.25 Q2068.54 1486.25 2065.46 1481.67 Q2062.4 1477.06 2062.4 1468.33 Q2062.4 1459.58 2065.46 1455 Q2068.54 1450.39 2074.35 1450.39 Z" fill="#000000" fill-rule="evenodd" fill-opacity="1" /><path clip-path="url(#clip730)" d="M1298.37 1532.4 L1285.47 1549.74 L1299.03 1568.04 L1292.13 1568.04 L1281.75 1554.04 L1271.37 1568.04 L1264.47 1568.04 L1278.31 1549.39 L1265.65 1532.4 L1272.55 1532.4 L1282.01 1545.1 L1291.46 1532.4 L1298.37 1532.4 Z" fill="#000000" fill-rule="evenodd" fill-opacity="1" /><polyline clip-path="url(#clip732)" style="stroke:#000000; stroke-linecap:round; stroke-linejoin:round; stroke-width:2; stroke-opacity:0.1; fill:none" points="210.746,1280.49 2352.76,1280.49 "/>
<polyline clip-path="url(#clip732)" style="stroke:#000000; stroke-linecap:round; stroke-linejoin:round; stroke-width:2; stroke-opacity:0.1; fill:none" points="210.746,1007.85 2352.76,1007.85 "/>
<polyline clip-path="url(#clip732)" style="stroke:#000000; stroke-linecap:round; stroke-linejoin:round; stroke-width:2; stroke-opacity:0.1; fill:none" points="210.746,735.213 2352.76,735.213 "/>
<polyline clip-path="url(#clip732)" style="stroke:#000000; stroke-linecap:round; stroke-linejoin:round; stroke-width:2; stroke-opacity:0.1; fill:none" points="210.746,462.574 2352.76,462.574 "/>
<polyline clip-path="url(#clip732)" style="stroke:#000000; stroke-linecap:round; stroke-linejoin:round; stroke-width:2; stroke-opacity:0.1; fill:none" points="210.746,189.936 2352.76,189.936 "/>
<polyline clip-path="url(#clip730)" style="stroke:#000000; stroke-linecap:round; stroke-linejoin:round; stroke-width:4; stroke-opacity:1; fill:none" points="210.746,1423.18 210.746,47.2441 "/>
<polyline clip-path="url(#clip730)" style="stroke:#000000; stroke-linecap:round; stroke-linejoin:round; stroke-width:4; stroke-opacity:1; fill:none" points="210.746,1280.49 229.644,1280.49 "/>
<polyline clip-path="url(#clip730)" style="stroke:#000000; stroke-linecap:round; stroke-linejoin:round; stroke-width:4; stroke-opacity:1; fill:none" points="210.746,1007.85 229.644,1007.85 "/>
<polyline clip-path="url(#clip730)" style="stroke:#000000; stroke-linecap:round; stroke-linejoin:round; stroke-width:4; stroke-opacity:1; fill:none" points="210.746,735.213 229.644,735.213 "/>
<polyline clip-path="url(#clip730)" style="stroke:#000000; stroke-linecap:round; stroke-linejoin:round; stroke-width:4; stroke-opacity:1; fill:none" points="210.746,462.574 229.644,462.574 "/>
<polyline clip-path="url(#clip730)" style="stroke:#000000; stroke-linecap:round; stroke-linejoin:round; stroke-width:4; stroke-opacity:1; fill:none" points="210.746,189.936 229.644,189.936 "/>
<path clip-path="url(#clip730)" d="M114.631 1280.94 L144.306 1280.94 L144.306 1284.88 L114.631 1284.88 L114.631 1280.94 Z" fill="#000000" fill-rule="evenodd" fill-opacity="1" /><path clip-path="url(#clip730)" d="M158.427 1293.84 L174.746 1293.84 L174.746 1297.77 L152.802 1297.77 L152.802 1293.84 Q155.464 1291.08 160.047 1286.45 Q164.653 1281.8 165.834 1280.46 Q168.079 1277.93 168.959 1276.2 Q169.862 1274.44 169.862 1272.75 Q169.862 1269.99 167.917 1268.26 Q165.996 1266.52 162.894 1266.52 Q160.695 1266.52 158.241 1267.28 Q155.811 1268.05 153.033 1269.6 L153.033 1264.88 Q155.857 1263.74 158.311 1263.16 Q160.765 1262.59 162.802 1262.59 Q168.172 1262.59 171.366 1265.27 Q174.561 1267.96 174.561 1272.45 Q174.561 1274.58 173.751 1276.5 Q172.964 1278.4 170.857 1280.99 Q170.278 1281.66 167.177 1284.88 Q164.075 1288.07 158.427 1293.84 Z" fill="#000000" fill-rule="evenodd" fill-opacity="1" /><path clip-path="url(#clip730)" d="M114.26 1008.3 L143.936 1008.3 L143.936 1012.24 L114.26 1012.24 L114.26 1008.3 Z" fill="#000000" fill-rule="evenodd" fill-opacity="1" /><path clip-path="url(#clip730)" d="M154.839 1021.2 L162.477 1021.2 L162.477 994.831 L154.167 996.497 L154.167 992.238 L162.431 990.572 L167.107 990.572 L167.107 1021.2 L174.746 1021.2 L174.746 1025.13 L154.839 1025.13 L154.839 1021.2 Z" fill="#000000" fill-rule="evenodd" fill-opacity="1" /><path clip-path="url(#clip730)" d="M162.802 721.012 Q159.19 721.012 157.362 724.576 Q155.556 728.118 155.556 735.248 Q155.556 742.354 157.362 745.919 Q159.19 749.461 162.802 749.461 Q166.436 749.461 168.241 745.919 Q170.07 742.354 170.07 735.248 Q170.07 728.118 168.241 724.576 Q166.436 721.012 162.802 721.012 M162.802 717.308 Q168.612 717.308 171.667 721.914 Q174.746 726.498 174.746 735.248 Q174.746 743.974 171.667 748.581 Q168.612 753.164 162.802 753.164 Q156.991 753.164 153.913 748.581 Q150.857 743.974 150.857 735.248 Q150.857 726.498 153.913 721.914 Q156.991 717.308 162.802 717.308 Z" fill="#000000" fill-rule="evenodd" fill-opacity="1" /><path clip-path="url(#clip730)" d="M154.839 475.919 L162.477 475.919 L162.477 449.553 L154.167 451.22 L154.167 446.961 L162.431 445.294 L167.107 445.294 L167.107 475.919 L174.746 475.919 L174.746 479.854 L154.839 479.854 L154.839 475.919 Z" fill="#000000" fill-rule="evenodd" fill-opacity="1" /><path clip-path="url(#clip730)" d="M158.427 203.28 L174.746 203.28 L174.746 207.216 L152.802 207.216 L152.802 203.28 Q155.464 200.526 160.047 195.896 Q164.653 191.243 165.834 189.901 Q168.079 187.378 168.959 185.642 Q169.862 183.882 169.862 182.193 Q169.862 179.438 167.917 177.702 Q165.996 175.966 162.894 175.966 Q160.695 175.966 158.241 176.73 Q155.811 177.494 153.033 179.044 L153.033 174.322 Q155.857 173.188 158.311 172.609 Q160.765 172.031 162.802 172.031 Q168.172 172.031 171.366 174.716 Q174.561 177.401 174.561 181.892 Q174.561 184.021 173.751 185.943 Q172.964 187.841 170.857 190.433 Q170.278 191.105 167.177 194.322 Q164.075 197.517 158.427 203.28 Z" fill="#000000" fill-rule="evenodd" fill-opacity="1" /><path clip-path="url(#clip730)" d="M67.3143 733.525 Q73.68 736.008 75.6216 738.363 Q77.5631 740.718 77.5631 744.665 L77.5631 749.344 L72.6615 749.344 L72.6615 745.906 Q72.6615 743.487 71.5157 742.151 Q70.3699 740.814 66.1048 739.191 L63.4312 738.14 L28.3562 752.559 L28.3562 746.352 L56.238 735.212 L28.3562 724.072 L28.3562 717.865 L67.3143 733.525 Z" fill="#000000" fill-rule="evenodd" fill-opacity="1" /><polyline clip-path="url(#clip732)" style="stroke:#009af9; stroke-linecap:round; stroke-linejoin:round; stroke-width:4; stroke-opacity:1; fill:none" points="2284.08,653.421 2291.5,712.159 2290.59,771.087 2281.37,829.719 2263.9,887.572 2238.34,944.169 2204.89,999.043 2163.83,1051.74 2115.5,1101.83 2060.29,1148.9 1998.67,1192.55 1931.14,1232.44 1858.25,1268.23 1780.61,1299.62 1698.85,1326.36 1613.66,1348.22 1525.73,1365.04 1435.79,1376.65 1344.58,1382.99 1252.85,1383.98 1161.36,1379.62 1070.86,1369.95 982.105,1355.04 895.817,1335.03 812.71,1310.07 733.471,1280.37 658.751,1246.18 589.168,1207.77 525.294,1165.47 467.657,1119.62 416.732,1070.61 372.938,1018.82 336.637,964.703 308.128,908.69 287.645,851.247 275.359,792.847 271.369,733.972 275.709,675.107 288.343,616.738 309.168,559.345 338.01,503.403 374.634,449.371 418.735,397.697 469.952,348.804 527.862,303.098 591.986,260.954 661.798,222.72 736.72,188.711 816.136,159.207 899.391,134.453 985.798,114.651 1074.64,99.9652 1165.2,90.5167 1256.71,86.3833 1348.44,87.5991 1439.61,94.154 1529.48,105.994 1617.31,123.022 1702.37,145.096 1783.96,172.036 1861.42,203.619 1934.09,239.584 2001.39,279.636 2062.75,323.443 2117.68,370.645 2165.71,420.853 2206.45,473.653 2239.58,528.609 2264.8,585.268 2281.92,643.163 2290.8,701.818 2291.35,760.747 2283.59,819.466 2267.56,877.491 2243.41,934.342 2211.32,989.552 2171.58,1042.67 2124.5,1093.24 2070.47,1140.87 2009.93,1185.15 1943.4,1225.72 1871.41,1262.25 1794.56,1294.44 1713.48,1322.01 1628.84,1344.75 1541.34,1362.46 1451.7,1375 1360.65,1382.26 1268.96,1384.19 1177.38,1380.77 1086.65,1372.03 997.533,1358.03 910.758,1338.91 827.042,1314.8 747.075,1285.92 671.517,1252.5 600.989,1214.81 536.073,1173.17 477.305,1127.92 425.169,1079.43 380.095,1028.1 342.455,974.356 312.559,918.642 290.653,861.416 276.918,803.15 271.467,744.323 274.345,685.421 285.528,626.93 304.925,569.332 332.375,513.101 367.652,458.701 410.465,406.581 460.462,357.17 517.229,310.876 580.299,268.08 649.153,229.136 723.221,194.364 801.895,164.051 884.524,138.446 970.428,117.762 1058.9,102.168 1149.21,91.7927 1240.61,86.7223 1332.35,86.9983 1423.67,92.6184 1513.82,103.536 1602.06,119.662 1687.66,140.862 1769.92,166.963 1848.14,197.748 1921.7,232.964 1989.98,272.321 2052.43,315.494 2108.52,362.128 2157.79,411.837 2199.84,464.213 2234.33,518.822 2260.95,575.216 2279.51,632.929 2289.84,691.485 2291.86,750.401 2285.55,809.192 2270.97,867.374 2248.23,924.465 2217.52,979.997 2179.1,1033.51 2133.28,1084.56 2080.44,1132.74 2021.01,1177.63 1955.49,1218.88 1884.42,1256.15 1808.37,1289.11 1727.99,1317.51 1643.93,1341.11 1556.88,1359.72 1467.56,1373.17 1376.71,1381.37 1285.08,1384.24 1193.42,1381.76 1102.49,1373.94 1013.03,1360.87 925.794,1342.63 841.49,1319.39 760.816,1291.33 684.437,1258.68 612.982,1221.72 547.041,1180.75 487.157,1136.11 433.824,1088.16 387.482,1037.3 348.512,983.948 317.236,928.548 293.912,871.553 278.732,813.435 271.821,754.672 273.237,695.748 282.967,637.15 300.931,579.36 326.981,522.855 360.903,468.101 402.417,415.549 451.18,365.632 506.791,318.762 568.791,275.326 636.668,235.681 709.864,200.154 787.775,169.039 869.758,142.591 955.138,121.03 1043.21,104.531 1133.25,93.2324 1224.51,87.2263 1316.25,86.5624 1407.7,91.2462 1498.11,101.239 1586.74,116.459 1672.86,136.779 1755.75,162.034 1834.73,192.014 1909.15,226.472 1978.4,265.125 2041.91,307.653 2099.15,353.706 2149.65,402.904 2193,454.842 2228.83,509.091 2256.86,565.205 2276.84,622.72 2288.63,681.163 2292.11,740.051 2287.26,798.899 2274.12,857.223 2252.8,914.54 2223.48,970.379 2186.39,1024.28 2141.84,1075.8 2090.21,1124.51 2031.9,1170.01 1967.41,1211.92 1897.27,1249.91 1822.06,1283.65 1742.39,1312.87 1658.92,1337.33 1572.35,1356.82 1483.37,1371.19 1392.74,1380.31 1301.19,1384.12 1209.48,1382.58 1118.37,1375.7 1028.6,1363.54 940.92,1346.2 856.05,1323.82 774.69,1296.59 697.51,1264.74 625.147,1228.51 558.197,1188.22 497.212,1144.2 442.695,1096.8 395.096,1046.42 354.806,993.477 322.159,938.404 297.423,881.656 280.802,823.701 272.433,765.016 272.385,706.085 280.659,647.394 297.186,589.428 321.83,532.663 354.388,477.568 394.592,424.598 442.11,374.188 496.55,326.754 557.463,282.688 624.348,242.353 696.652,206.081 773.781,174.172 855.097,146.888 939.931,124.454 1027.58,107.055 1117.33,94.8354 1208.43,87.8951 1300.14,86.2915 1391.7,90.0378 1482.34,99.1032 1571.34,113.413 1657.95,132.849 1741.45,157.251 1821.17,186.418 1896.44,220.109 1966.64,258.047 2031.2,299.919 2089.57,345.38 2141.29,394.055 2185.92,445.542 2223.1,499.417 2252.51,555.237 2273.92,612.54 2287.16,670.855 2292.1,729.7 2288.71,788.59 2277.03,847.041 2257.13,904.569 2229.2,960.702 2193.45,1014.97 2150.19,1066.94 2099.77,1116.17 2042.6,1162.26 1979.16,1204.84 1909.97,1243.53 1835.61,1278.04 1756.67,1308.07 1673.82,1333.38 1587.74,1353.76 1499.14,1369.04 1408.74,1379.1 1317.3,1383.84 1225.56,1383.24 1134.29,1377.29 1044.23,1366.05 956.133,1349.61 870.718,1328.11 788.692,1301.72 710.731,1270.65 637.478,1235.18 569.536,1195.58 507.466,1152.18 451.779,1105.35 402.935,1055.46 361.336,1002.94 327.326,948.209 301.184,891.721 283.126,833.944 273.301,775.352 271.79,716.429 278.606,657.661 293.692,599.533 316.924,542.523 348.11,487.102 386.993,433.726 433.253,382.835 486.508,334.85 546.32,290.166 612.195,249.151 683.59,212.143 759.916,179.447 840.544,151.333 924.81,128.033 1012.02,109.739 1101.45,96.6013 1192.37,88.7286 1284.03,86.1857 1375.66,88.9936 1466.53,97.1291 1555.87,110.525 1642.94,129.071 1727.05,152.615 1807.48,180.962 1883.57,213.878 1954.71,251.092 2020.29,292.297 2079.79,337.154 2132.71,385.293 2178.61,436.316 2217.12,489.804 2247.92,545.315 2270.75,602.391 2285.43,660.563 2291.83,719.35 2289.91,778.267 2279.68,836.83 2261.21,894.555 2234.68,950.967 2200.28,1005.6 2158.32,1058 2109.12,1107.75 2053.11,1154.42 1990.73,1197.63 1922.52,1237.03 1849.01,1272.3 1770.84,1303.14 1688.63,1329.29 1603.06,1350.55 1514.85,1366.73 1424.71,1377.71 1333.4,1383.39 1241.66,1383.73 1150.25,1378.72 1059.92,1368.41 971.429,1352.87 885.491,1332.24 802.82,1306.7 724.098,1276.44 649.973,1241.71 581.056,1202.81 517.917,1160.06 461.074,1113.8 410.998,1064.43 368.101,1012.34 332.735,957.96 305.194,901.747 285.704,844.162 274.426,785.678 271.452,726.778 276.808,667.948 290.449,609.672 312.262,552.432 342.068,496.698 379.622,442.93 424.612,391.573 476.669,343.048 535.364,297.757 600.212,256.072 670.679,218.337 746.184,184.864 826.104,155.927 909.781,131.767 996.524,112.582 1085.62,98.5296 1176.33,89.7265 1267.91,86.2449 1359.61,88.1137 1450.66,95.3173 1540.32,107.797 1627.85,125.448 1712.53,148.127 1793.65,175.646 1870.55,207.779 1942.6,244.259 2009.2,284.787 2069.81,329.029 2123.92,376.619 2171.08,427.166 2210.91,480.253 2243.08,535.441 2267.33,592.276 2283.45,650.29 2291.31,709.004 2290.85,767.934 2282.07,826.594 2265.04,884.501 2239.91,941.177 2206.88,996.155 2166.22,1048.98 2118.27,1099.22 2063.42,1146.46 2002.12,1190.31 1934.89,1230.41 1862.28,1266.42 1784.87,1298.05 1703.32,1325.05 1618.3,1347.18 1530.5,1364.27 1440.65,1376.17 1349.49,1382.78 1257.77,1384.06 1166.24,1379.99 1075.67,1370.6 986.803,1355.97 900.364,1336.23 817.07,1311.53 737.606,1282.08 662.628,1248.12 592.755,1209.93 528.562,1167.83 470.578,1122.16 419.283,1073.31 375.097,1021.66 338.386,967.654 309.453,911.73 288.536,854.352 275.807,795.991 271.371,737.129 275.266,678.252 287.458,619.844 307.847,562.387 336.266,506.355 372.48,452.21 416.189,400.398 467.035,351.346 524.598,305.459 588.403,263.115 657.924,224.663 732.588,190.42 811.779,160.669 894.846,135.655 981.102,115.583 1069.84,100.62 1160.32,90.8886 1251.8,86.4692 1343.53,87.3984 1434.75,93.6683 1524.71,105.227 1612.67,121.98 1697.89,143.789 1779.69,170.473 1857.38,201.814 1930.33,237.551 1997.93,277.392 2059.62,321.007 2114.9,368.037 2163.32,418.095 2204.46,470.766 2238,525.618 2263.65,582.198 2281.21,640.039 2290.53,698.665 2291.54,757.592 2284.21,816.335 2268.63,874.408 2244.9,931.335 2213.24,986.644 2173.9,1039.88 2127.2,1090.61 2073.53,1138.4 2013.33,1182.87 1947.1,1223.65 1875.39,1260.4 1798.78,1292.83 1717.91,1320.65 1633.45,1343.65 1546.08,1361.64 1456.54,1374.46 1365.55,1382.01 1273.88,1384.22 1182.27,1381.09 1091.48,1372.63 1002.25,1358.92 915.335,1340.06 831.437,1316.22 751.253,1287.58 675.441,1254.4 604.629,1216.93 539.399,1175.49 480.289,1130.42 427.786,1082.1 382.324,1030.91 344.277,977.288 313.959,921.669 291.62,864.512 277.444,806.289 271.548,747.48 273.98,688.57 284.72,630.044 303.68,572.386 330.704,516.07 365.569,461.561 407.987,409.307 457.608,359.741 514.024,313.27 576.77,270.278 645.327,231.119 719.132,196.116 797.575,165.557 880.009,139.695 965.756,118.742 1054.11,102.872 1144.34,92.2145 1235.7,86.8586 1327.44,86.8479 1418.8,92.1825 1509.04,102.819 1597.4,118.668 1683.16,139.601 1765.61,165.444 1844.07,195.984 1917.89,230.97 1986.47,270.113 2049.24,313.091 2105.68,359.549 2155.33,409.104 2197.78,461.347 2232.68,515.848 2259.73,572.158 2278.72,629.812 2289.5,688.335 2291.96,747.244 2286.1,806.054 2271.96,864.281 2249.65,921.443 2219.36,977.07 2181.35,1030.7 2135.91,1081.9 2083.44,1130.24 2024.35,1175.32 1959.15,1216.77 1888.36,1254.26 1812.56,1287.46 1732.39,1316.11 1648.51,1339.97 1561.6,1358.85 1472.39,1372.58 1381.6,1381.06 1289.99,1384.22 1198.31,1382.03 1107.33,1374.5 1017.77,1361.7 930.398,1343.74 845.92,1320.76 765.034,1292.95 688.409,1260.54 616.675,1223.81 550.424,1183.04 490.203,1138.59 436.507,1090.8 389.78,1040.09 350.407,986.862 318.712,931.56 294.956,874.639 279.336,816.568 271.981,757.828 272.95,698.9 282.236,640.272 299.762,582.427 325.384,525.841 358.891,470.981 400.006,418.3 448.391,368.232 503.646,321.189 565.316,277.559 632.893,237.703 705.819,201.948 783.493,170.589 865.275,143.886 950.49,122.058 1038.44,105.284 1128.39,93.7041 1219.61,87.4129 1311.34,86.4623 1402.82,90.8603 1493.31,100.57 1582.05,115.513 1668.32,135.564 1751.4,160.559 1830.61,190.292 1905.29,224.517 1974.83,262.953 2038.66,305.282 2096.25,351.156 2147.12,400.196 2190.86,451.997 2227.11,506.134 2255.56,562.16 2275.98,619.612 2288.21,678.017 2292.13,736.893 2287.73,795.756 2275.03,854.12 2254.15,911.503 2225.25,967.433 2188.57,1021.45 2144.41,1073.1 2093.14,1121.97 2035.19,1167.66 1971.02,1209.77 1901.17,1247.98 1826.21,1281.95 1746.76,1311.42 1663.48,1336.14 1577.05,1355.9 1488.19,1370.55 1397.62,1379.96 1306.1,1384.05 1214.38,1382.8 1123.22,1376.2 1033.36,1364.32 945.551,1347.26 860.513,1325.15 778.947,1298.17 701.527,1266.55 628.89,1230.56 561.636,1190.48 500.319,1146.64 445.443,1099.42 397.463,1049.19 356.773,996.371 323.709,941.401 298.543,884.73 281.484,826.827 272.67,768.169 272.176,709.239 280.006,650.524 "/>
<path clip-path="url(#clip730)" d="M282.146 196.789 L548.778 196.789 L548.778 93.1086 L282.146 93.1086  Z" fill="#ffffff" fill-rule="evenodd" fill-opacity="1"/>
<polyline clip-path="url(#clip730)" style="stroke:#000000; stroke-linecap:round; stroke-linejoin:round; stroke-width:4; stroke-opacity:1; fill:none" points="282.146,196.789 548.778,196.789 548.778,93.1086 282.146,93.1086 282.146,196.789 "/>
<polyline clip-path="url(#clip730)" style="stroke:#009af9; stroke-linecap:round; stroke-linejoin:round; stroke-width:4; stroke-opacity:1; fill:none" points="305.946,144.949 448.747,144.949 "/>
<path clip-path="url(#clip730)" d="M486.39 164.636 Q484.584 169.266 482.871 170.678 Q481.158 172.09 478.288 172.09 L474.885 172.09 L474.885 168.525 L477.385 168.525 Q479.144 168.525 480.117 167.692 Q481.089 166.858 482.269 163.756 L483.033 161.812 L472.547 136.303 L477.061 136.303 L485.163 156.581 L493.265 136.303 L497.779 136.303 L486.39 164.636 Z" fill="#000000" fill-rule="evenodd" fill-opacity="1" /><path clip-path="url(#clip730)" d="M505.07 158.293 L512.709 158.293 L512.709 131.928 L504.399 133.595 L504.399 129.335 L512.663 127.669 L517.339 127.669 L517.339 158.293 L524.977 158.293 L524.977 162.229 L505.07 162.229 L505.07 158.293 Z" fill="#000000" fill-rule="evenodd" fill-opacity="1" /></svg>
