<?xml version="1.0" encoding="utf-8"?>
<svg xmlns="http://www.w3.org/2000/svg" xmlns:xlink="http://www.w3.org/1999/xlink" width="600" height="400" viewBox="0 0 2400 1600">
<defs>
  <clipPath id="clip810">
    <rect x="0" y="0" width="2400" height="1600"/>
  </clipPath>
</defs>
<path clip-path="url(#clip810)" d="M0 1600 L2400 1600 L2400 0 L0 0  Z" fill="#ffffff" fill-rule="evenodd" fill-opacity="1"/>
<defs>
  <clipPath id="clip811">
    <rect x="480" y="0" width="1681" height="1600"/>
  </clipPath>
</defs>
<path clip-path="url(#clip810)" d="M257.204 1423.18 L2352.76 1423.18 L2352.76 47.2441 L257.204 47.2441  Z" fill="#ffffff" fill-rule="evenodd" fill-opacity="1"/>
<defs>
  <clipPath id="clip812">
    <rect x="257" y="47" width="2097" height="1377"/>
  </clipPath>
</defs>
<polyline clip-path="url(#clip812)" style="stroke:#000000; stroke-linecap:round; stroke-linejoin:round; stroke-width:2; stroke-opacity:0.1; fill:none" points="421.949,1423.18 421.949,47.2441 "/>
<polyline clip-path="url(#clip812)" style="stroke:#000000; stroke-linecap:round; stroke-linejoin:round; stroke-width:2; stroke-opacity:0.1; fill:none" points="669.855,1423.18 669.855,47.2441 "/>
<polyline clip-path="url(#clip812)" style="stroke:#000000; stroke-linecap:round; stroke-linejoin:round; stroke-width:2; stroke-opacity:0.1; fill:none" points="917.761,1423.18 917.761,47.2441 "/>
<polyline clip-path="url(#clip812)" style="stroke:#000000; stroke-linecap:round; stroke-linejoin:round; stroke-width:2; stroke-opacity:0.1; fill:none" points="1165.67,1423.18 1165.67,47.2441 "/>
<polyline clip-path="url(#clip812)" style="stroke:#000000; stroke-linecap:round; stroke-linejoin:round; stroke-width:2; stroke-opacity:0.1; fill:none" points="1413.57,1423.18 1413.57,47.2441 "/>
<polyline clip-path="url(#clip812)" style="stroke:#000000; stroke-linecap:round; stroke-linejoin:round; stroke-width:2; stroke-opacity:0.1; fill:none" points="1661.48,1423.18 1661.48,47.2441 "/>
<polyline clip-path="url(#clip812)" style="stroke:#000000; stroke-linecap:round; stroke-linejoin:round; stroke-width:2; stroke-opacity:0.1; fill:none" points="1909.39,1423.18 1909.39,47.2441 "/>
<polyline clip-path="url(#clip812)" style="stroke:#000000; stroke-linecap:round; stroke-linejoin:round; stroke-width:2; stroke-opacity:0.1; fill:none" points="2157.29,1423.18 2157.29,47.2441 "/>
<polyline clip-path="url(#clip810)" style="stroke:#000000; stroke-linecap:round; stroke-linejoin:round; stroke-width:4; stroke-opacity:1; fill:none" points="257.204,1423.18 2352.76,1423.18 "/>
<polyline clip-path="url(#clip810)" style="stroke:#000000; stroke-linecap:round; stroke-linejoin:round; stroke-width:4; stroke-opacity:1; fill:none" points="421.949,1423.18 421.949,1404.28 "/>
<polyline clip-path="url(#clip810)" style="stroke:#000000; stroke-linecap:round; stroke-linejoin:round; stroke-width:4; stroke-opacity:1; fill:none" points="669.855,1423.18 669.855,1404.28 "/>
<polyline clip-path="url(#clip810)" style="stroke:#000000; stroke-linecap:round; stroke-linejoin:round; stroke-width:4; stroke-opacity:1; fill:none" points="917.761,1423.18 917.761,1404.28 "/>
<polyline clip-path="url(#clip810)" style="stroke:#000000; stroke-linecap:round; stroke-linejoin:round; stroke-width:4; stroke-opacity:1; fill:none" points="1165.67,1423.18 1165.67,1404.28 "/>
<polyline clip-path="url(#clip810)" style="stroke:#000000; stroke-linecap:round; stroke-linejoin:round; stroke-width:4; stroke-opacity:1; fill:none" points="1413.57,1423.18 1413.57,1404.28 "/>
<polyline clip-path="url(#clip810)" style="stroke:#000000; stroke-linecap:round; stroke-linejoin:round; stroke-width:4; stroke-opacity:1; fill:none" points="1661.48,1423.18 1661.48,1404.28 "/>
<polyline clip-path="url(#clip810)" style="stroke:#000000; stroke-linecap:round; stroke-linejoin:round; stroke-width:4; stroke-opacity:1; fill:none" points="1909.39,1423.18 1909.39,1404.28 "/>
<polyline clip-path="url(#clip810)" style="stroke:#000000; stroke-linecap:round; stroke-linejoin:round; stroke-width:4; stroke-opacity:1; fill:none" points="2157.29,1423.18 2157.29,1404.28 "/>
<path clip-path="url(#clip810)" d="M369.275 1468.75 L398.951 1468.75 L398.951 1472.69 L369.275 1472.69 L369.275 1468.75 Z" fill="#000000" fill-rule="evenodd" fill-opacity="1" /><path clip-path="url(#clip810)" d="M419.044 1454.1 Q415.432 1454.1 413.604 1457.66 Q411.798 1461.2 411.798 1468.33 Q411.798 1475.44 413.604 1479.01 Q415.432 1482.55 419.044 1482.55 Q422.678 1482.55 424.483 1479.01 Q426.312 1475.44 426.312 1468.33 Q426.312 1461.2 424.483 1457.66 Q422.678 1454.1 419.044 1454.1 M419.044 1450.39 Q424.854 1450.39 427.909 1455 Q430.988 1459.58 430.988 1468.33 Q430.988 1477.06 427.909 1481.67 Q424.854 1486.25 419.044 1486.25 Q413.233 1486.25 410.155 1481.67 Q407.099 1477.06 407.099 1468.33 Q407.099 1459.58 410.155 1455 Q413.233 1450.39 419.044 1450.39 Z" fill="#000000" fill-rule="evenodd" fill-opacity="1" /><path clip-path="url(#clip810)" d="M439.205 1479.7 L444.09 1479.7 L444.09 1485.58 L439.205 1485.58 L439.205 1479.7 Z" fill="#000000" fill-rule="evenodd" fill-opacity="1" /><path clip-path="url(#clip810)" d="M458.303 1481.64 L474.622 1481.64 L474.622 1485.58 L452.678 1485.58 L452.678 1481.64 Q455.34 1478.89 459.923 1474.26 Q464.529 1469.61 465.71 1468.27 Q467.955 1465.74 468.835 1464.01 Q469.738 1462.25 469.738 1460.56 Q469.738 1457.8 467.793 1456.07 Q465.872 1454.33 462.77 1454.33 Q460.571 1454.33 458.117 1455.09 Q455.687 1455.86 452.909 1457.41 L452.909 1452.69 Q455.733 1451.55 458.187 1450.97 Q460.641 1450.39 462.678 1450.39 Q468.048 1450.39 471.242 1453.08 Q474.437 1455.77 474.437 1460.26 Q474.437 1462.39 473.627 1464.31 Q472.84 1466.2 470.733 1468.8 Q470.154 1469.47 467.053 1472.69 Q463.951 1475.88 458.303 1481.64 Z" fill="#000000" fill-rule="evenodd" fill-opacity="1" /><path clip-path="url(#clip810)" d="M647.239 1454.1 Q643.628 1454.1 641.799 1457.66 Q639.994 1461.2 639.994 1468.33 Q639.994 1475.44 641.799 1479.01 Q643.628 1482.55 647.239 1482.55 Q650.874 1482.55 652.679 1479.01 Q654.508 1475.44 654.508 1468.33 Q654.508 1461.2 652.679 1457.66 Q650.874 1454.1 647.239 1454.1 M647.239 1450.39 Q653.049 1450.39 656.105 1455 Q659.184 1459.58 659.184 1468.33 Q659.184 1477.06 656.105 1481.67 Q653.049 1486.25 647.239 1486.25 Q641.429 1486.25 638.35 1481.67 Q635.295 1477.06 635.295 1468.33 Q635.295 1459.58 638.35 1455 Q641.429 1450.39 647.239 1450.39 Z" fill="#000000" fill-rule="evenodd" fill-opacity="1" /><path clip-path="url(#clip810)" d="M667.401 1479.7 L672.285 1479.7 L672.285 1485.58 L667.401 1485.58 L667.401 1479.7 Z" fill="#000000" fill-rule="evenodd" fill-opacity="1" /><path clip-path="url(#clip810)" d="M692.471 1454.1 Q688.859 1454.1 687.031 1457.66 Q685.225 1461.2 685.225 1468.33 Q685.225 1475.44 687.031 1479.01 Q688.859 1482.55 692.471 1482.55 Q696.105 1482.55 697.91 1479.01 Q699.739 1475.44 699.739 1468.33 Q699.739 1461.2 697.91 1457.66 Q696.105 1454.1 692.471 1454.1 M692.471 1450.39 Q698.281 1450.39 701.336 1455 Q704.415 1459.58 704.415 1468.33 Q704.415 1477.06 701.336 1481.67 Q698.281 1486.25 692.471 1486.25 Q686.66 1486.25 683.582 1481.67 Q680.526 1477.06 680.526 1468.33 Q680.526 1459.58 683.582 1455 Q686.66 1450.39 692.471 1450.39 Z" fill="#000000" fill-rule="evenodd" fill-opacity="1" /><path clip-path="url(#clip810)" d="M895.944 1454.1 Q892.333 1454.1 890.504 1457.66 Q888.699 1461.2 888.699 1468.33 Q888.699 1475.44 890.504 1479.01 Q892.333 1482.55 895.944 1482.55 Q899.578 1482.55 901.384 1479.01 Q903.213 1475.44 903.213 1468.33 Q903.213 1461.2 901.384 1457.66 Q899.578 1454.1 895.944 1454.1 M895.944 1450.39 Q901.754 1450.39 904.81 1455 Q907.889 1459.58 907.889 1468.33 Q907.889 1477.06 904.81 1481.67 Q901.754 1486.25 895.944 1486.25 Q890.134 1486.25 887.055 1481.67 Q884 1477.06 884 1468.33 Q884 1459.58 887.055 1455 Q890.134 1450.39 895.944 1450.39 Z" fill="#000000" fill-rule="evenodd" fill-opacity="1" /><path clip-path="url(#clip810)" d="M916.106 1479.7 L920.99 1479.7 L920.99 1485.58 L916.106 1485.58 L916.106 1479.7 Z" fill="#000000" fill-rule="evenodd" fill-opacity="1" /><path clip-path="url(#clip810)" d="M935.203 1481.64 L951.523 1481.64 L951.523 1485.58 L929.578 1485.58 L929.578 1481.64 Q932.24 1478.89 936.824 1474.26 Q941.43 1469.61 942.611 1468.27 Q944.856 1465.74 945.736 1464.01 Q946.638 1462.25 946.638 1460.56 Q946.638 1457.8 944.694 1456.07 Q942.773 1454.33 939.671 1454.33 Q937.472 1454.33 935.018 1455.09 Q932.587 1455.86 929.81 1457.41 L929.81 1452.69 Q932.634 1451.55 935.087 1450.97 Q937.541 1450.39 939.578 1450.39 Q944.949 1450.39 948.143 1453.08 Q951.337 1455.77 951.337 1460.26 Q951.337 1462.39 950.527 1464.31 Q949.74 1466.2 947.634 1468.8 Q947.055 1469.47 943.953 1472.69 Q940.851 1475.88 935.203 1481.64 Z" fill="#000000" fill-rule="evenodd" fill-opacity="1" /><path clip-path="url(#clip810)" d="M1142.81 1454.1 Q1139.2 1454.1 1137.37 1457.66 Q1135.56 1461.2 1135.56 1468.33 Q1135.56 1475.44 1137.37 1479.01 Q1139.2 1482.55 1142.81 1482.55 Q1146.44 1482.55 1148.25 1479.01 Q1150.08 1475.44 1150.08 1468.33 Q1150.08 1461.2 1148.25 1457.66 Q1146.44 1454.1 1142.81 1454.1 M1142.81 1450.39 Q1148.62 1450.39 1151.67 1455 Q1154.75 1459.58 1154.75 1468.33 Q1154.75 1477.06 1151.67 1481.67 Q1148.62 1486.25 1142.81 1486.25 Q1137 1486.25 1133.92 1481.67 Q1130.86 1477.06 1130.86 1468.33 Q1130.86 1459.58 1133.92 1455 Q1137 1450.39 1142.81 1450.39 Z" fill="#000000" fill-rule="evenodd" fill-opacity="1" /><path clip-path="url(#clip810)" d="M1162.97 1479.7 L1167.85 1479.7 L1167.85 1485.58 L1162.97 1485.58 L1162.97 1479.7 Z" fill="#000000" fill-rule="evenodd" fill-opacity="1" /><path clip-path="url(#clip810)" d="M1190.89 1455.09 L1179.08 1473.54 L1190.89 1473.54 L1190.89 1455.09 M1189.66 1451.02 L1195.54 1451.02 L1195.54 1473.54 L1200.47 1473.54 L1200.47 1477.43 L1195.54 1477.43 L1195.54 1485.58 L1190.89 1485.58 L1190.89 1477.43 L1175.29 1477.43 L1175.29 1472.92 L1189.66 1451.02 Z" fill="#000000" fill-rule="evenodd" fill-opacity="1" /><path clip-path="url(#clip810)" d="M1390.88 1454.1 Q1387.27 1454.1 1385.44 1457.66 Q1383.63 1461.2 1383.63 1468.33 Q1383.63 1475.44 1385.44 1479.01 Q1387.27 1482.55 1390.88 1482.55 Q1394.51 1482.55 1396.32 1479.01 Q1398.15 1475.44 1398.15 1468.33 Q1398.15 1461.2 1396.32 1457.66 Q1394.51 1454.1 1390.88 1454.1 M1390.88 1450.39 Q1396.69 1450.39 1399.74 1455 Q1402.82 1459.58 1402.82 1468.33 Q1402.82 1477.06 1399.74 1481.67 Q1396.69 1486.25 1390.88 1486.25 Q1385.07 1486.25 1381.99 1481.67 Q1378.93 1477.06 1378.93 1468.33 Q1378.93 1459.58 1381.99 1455 Q1385.07 1450.39 1390.88 1450.39 Z" fill="#000000" fill-rule="evenodd" fill-opacity="1" /><path clip-path="url(#clip810)" d="M1411.04 1479.7 L1415.92 1479.7 L1415.92 1485.58 L1411.04 1485.58 L1411.04 1479.7 Z" fill="#000000" fill-rule="evenodd" fill-opacity="1" /><path clip-path="url(#clip810)" d="M1436.69 1466.44 Q1433.54 1466.44 1431.69 1468.59 Q1429.86 1470.74 1429.86 1474.49 Q1429.86 1478.22 1431.69 1480.39 Q1433.54 1482.55 1436.69 1482.55 Q1439.84 1482.55 1441.66 1480.39 Q1443.52 1478.22 1443.52 1474.49 Q1443.52 1470.74 1441.66 1468.59 Q1439.84 1466.44 1436.69 1466.44 M1445.97 1451.78 L1445.97 1456.04 Q1444.21 1455.21 1442.4 1454.77 Q1440.62 1454.33 1438.86 1454.33 Q1434.23 1454.33 1431.78 1457.45 Q1429.35 1460.58 1429 1466.9 Q1430.37 1464.89 1432.43 1463.82 Q1434.49 1462.73 1436.96 1462.73 Q1442.17 1462.73 1445.18 1465.9 Q1448.21 1469.05 1448.21 1474.49 Q1448.21 1479.82 1445.07 1483.03 Q1441.92 1486.25 1436.69 1486.25 Q1430.69 1486.25 1427.52 1481.67 Q1424.35 1477.06 1424.35 1468.33 Q1424.35 1460.14 1428.24 1455.28 Q1432.13 1450.39 1438.68 1450.39 Q1440.44 1450.39 1442.22 1450.74 Q1444.02 1451.09 1445.97 1451.78 Z" fill="#000000" fill-rule="evenodd" fill-opacity="1" /><path clip-path="url(#clip810)" d="M1638.91 1454.1 Q1635.3 1454.1 1633.47 1457.66 Q1631.67 1461.2 1631.67 1468.33 Q1631.67 1475.44 1633.47 1479.01 Q1635.3 1482.55 1638.91 1482.55 Q1642.54 1482.55 1644.35 1479.01 Q1646.18 1475.44 1646.18 1468.33 Q1646.18 1461.2 1644.35 1457.66 Q1642.54 1454.1 1638.91 1454.1 M1638.91 1450.39 Q1644.72 1450.39 1647.78 1455 Q1650.85 1459.58 1650.85 1468.33 Q1650.85 1477.06 1647.78 1481.67 Q1644.72 1486.25 1638.91 1486.25 Q1633.1 1486.25 1630.02 1481.67 Q1626.97 1477.06 1626.97 1468.33 Q1626.97 1459.58 1630.02 1455 Q1633.1 1450.39 1638.91 1450.39 Z" fill="#000000" fill-rule="evenodd" fill-opacity="1" /><path clip-path="url(#clip810)" d="M1659.07 1479.7 L1663.96 1479.7 L1663.96 1485.58 L1659.07 1485.58 L1659.07 1479.7 Z" fill="#000000" fill-rule="evenodd" fill-opacity="1" /><path clip-path="url(#clip810)" d="M1684.14 1469.17 Q1680.81 1469.17 1678.89 1470.95 Q1676.99 1472.73 1676.99 1475.86 Q1676.99 1478.98 1678.89 1480.77 Q1680.81 1482.55 1684.14 1482.55 Q1687.48 1482.55 1689.4 1480.77 Q1691.32 1478.96 1691.32 1475.86 Q1691.32 1472.73 1689.4 1470.95 Q1687.5 1469.17 1684.14 1469.17 M1679.47 1467.18 Q1676.46 1466.44 1674.77 1464.38 Q1673.1 1462.32 1673.1 1459.35 Q1673.1 1455.21 1676.04 1452.8 Q1679 1450.39 1684.14 1450.39 Q1689.3 1450.39 1692.24 1452.8 Q1695.18 1455.21 1695.18 1459.35 Q1695.18 1462.32 1693.49 1464.38 Q1691.83 1466.44 1688.84 1467.18 Q1692.22 1467.96 1694.1 1470.26 Q1695.99 1472.55 1695.99 1475.86 Q1695.99 1480.88 1692.91 1483.57 Q1689.86 1486.25 1684.14 1486.25 Q1678.42 1486.25 1675.35 1483.57 Q1672.29 1480.88 1672.29 1475.86 Q1672.29 1472.55 1674.19 1470.26 Q1676.09 1467.96 1679.47 1467.18 M1677.75 1459.79 Q1677.75 1462.48 1679.42 1463.98 Q1681.11 1465.49 1684.14 1465.49 Q1687.15 1465.49 1688.84 1463.98 Q1690.55 1462.48 1690.55 1459.79 Q1690.55 1457.11 1688.84 1455.6 Q1687.15 1454.1 1684.14 1454.1 Q1681.11 1454.1 1679.42 1455.6 Q1677.75 1457.11 1677.75 1459.79 Z" fill="#000000" fill-rule="evenodd" fill-opacity="1" /><path clip-path="url(#clip810)" d="M1876.54 1481.64 L1884.18 1481.64 L1884.18 1455.28 L1875.87 1456.95 L1875.87 1452.69 L1884.13 1451.02 L1888.81 1451.02 L1888.81 1481.64 L1896.45 1481.64 L1896.45 1485.58 L1876.54 1485.58 L1876.54 1481.64 Z" fill="#000000" fill-rule="evenodd" fill-opacity="1" /><path clip-path="url(#clip810)" d="M1905.89 1479.7 L1910.78 1479.7 L1910.78 1485.58 L1905.89 1485.58 L1905.89 1479.7 Z" fill="#000000" fill-rule="evenodd" fill-opacity="1" /><path clip-path="url(#clip810)" d="M1930.96 1454.1 Q1927.35 1454.1 1925.52 1457.66 Q1923.71 1461.2 1923.71 1468.33 Q1923.71 1475.44 1925.52 1479.01 Q1927.35 1482.55 1930.96 1482.55 Q1934.59 1482.55 1936.4 1479.01 Q1938.23 1475.44 1938.23 1468.33 Q1938.23 1461.2 1936.4 1457.66 Q1934.59 1454.1 1930.96 1454.1 M1930.96 1450.39 Q1936.77 1450.39 1939.83 1455 Q1942.9 1459.58 1942.9 1468.33 Q1942.9 1477.06 1939.83 1481.67 Q1936.77 1486.25 1930.96 1486.25 Q1925.15 1486.25 1922.07 1481.67 Q1919.02 1477.06 1919.02 1468.33 Q1919.02 1459.58 1922.07 1455 Q1925.15 1450.39 1930.96 1450.39 Z" fill="#000000" fill-rule="evenodd" fill-opacity="1" /><path clip-path="url(#clip810)" d="M2125.24 1481.64 L2132.88 1481.64 L2132.88 1455.28 L2124.57 1456.95 L2124.57 1452.69 L2132.84 1451.02 L2137.51 1451.02 L2137.51 1481.64 L2145.15 1481.64 L2145.15 1485.58 L2125.24 1485.58 L2125.24 1481.64 Z" fill="#000000" fill-rule="evenodd" fill-opacity="1" /><path clip-path="url(#clip810)" d="M2154.6 1479.7 L2159.48 1479.7 L2159.48 1485.58 L2154.6 1485.58 L2154.6 1479.7 Z" fill="#000000" fill-rule="evenodd" fill-opacity="1" /><path clip-path="url(#clip810)" d="M2173.69 1481.64 L2190.01 1481.64 L2190.01 1485.58 L2168.07 1485.58 L2168.07 1481.64 Q2170.73 1478.89 2175.31 1474.26 Q2179.92 1469.61 2181.1 1468.27 Q2183.35 1465.74 2184.23 1464.01 Q2185.13 1462.25 2185.13 1460.56 Q2185.13 1457.8 2183.18 1456.07 Q2181.26 1454.33 2178.16 1454.33 Q2175.96 1454.33 2173.51 1455.09 Q2171.08 1455.86 2168.3 1457.41 L2168.3 1452.69 Q2171.12 1451.55 2173.58 1450.97 Q2176.03 1450.39 2178.07 1450.39 Q2183.44 1450.39 2186.63 1453.08 Q2189.83 1455.77 2189.83 1460.26 Q2189.83 1462.39 2189.02 1464.31 Q2188.23 1466.2 2186.12 1468.8 Q2185.54 1469.47 2182.44 1472.69 Q2179.34 1475.88 2173.69 1481.64 Z" fill="#000000" fill-rule="evenodd" fill-opacity="1" /><path clip-path="url(#clip810)" d="M1321.59 1532.4 L1308.7 1549.74 L1322.26 1568.04 L1315.36 1568.04 L1304.98 1554.04 L1294.6 1568.04 L1287.7 1568.04 L1301.54 1549.39 L1288.87 1532.4 L1295.78 1532.4 L1305.23 1545.1 L1314.69 1532.4 L1321.59 1532.4 Z" fill="#000000" fill-rule="evenodd" fill-opacity="1" /><polyline clip-path="url(#clip812)" style="stroke:#000000; stroke-linecap:round; stroke-linejoin:round; stroke-width:2; stroke-opacity:0.1; fill:none" points="257.204,1181.89 2352.76,1181.89 "/>
<polyline clip-path="url(#clip812)" style="stroke:#000000; stroke-linecap:round; stroke-linejoin:round; stroke-width:2; stroke-opacity:0.1; fill:none" points="257.204,886.582 2352.76,886.582 "/>
<polyline clip-path="url(#clip812)" style="stroke:#000000; stroke-linecap:round; stroke-linejoin:round; stroke-width:2; stroke-opacity:0.1; fill:none" points="257.204,591.275 2352.76,591.275 "/>
<polyline clip-path="url(#clip812)" style="stroke:#000000; stroke-linecap:round; stroke-linejoin:round; stroke-width:2; stroke-opacity:0.1; fill:none" points="257.204,295.969 2352.76,295.969 "/>
<polyline clip-path="url(#clip810)" style="stroke:#000000; stroke-linecap:round; stroke-linejoin:round; stroke-width:4; stroke-opacity:1; fill:none" points="257.204,1423.18 257.204,47.2441 "/>
<polyline clip-path="url(#clip810)" style="stroke:#000000; stroke-linecap:round; stroke-linejoin:round; stroke-width:4; stroke-opacity:1; fill:none" points="257.204,1181.89 276.102,1181.89 "/>
<polyline clip-path="url(#clip810)" style="stroke:#000000; stroke-linecap:round; stroke-linejoin:round; stroke-width:4; stroke-opacity:1; fill:none" points="257.204,886.582 276.102,886.582 "/>
<polyline clip-path="url(#clip810)" style="stroke:#000000; stroke-linecap:round; stroke-linejoin:round; stroke-width:4; stroke-opacity:1; fill:none" points="257.204,591.275 276.102,591.275 "/>
<polyline clip-path="url(#clip810)" style="stroke:#000000; stroke-linecap:round; stroke-linejoin:round; stroke-width:4; stroke-opacity:1; fill:none" points="257.204,295.969 276.102,295.969 "/>
<path clip-path="url(#clip810)" d="M114.26 1182.34 L143.936 1182.34 L143.936 1186.27 L114.26 1186.27 L114.26 1182.34 Z" fill="#000000" fill-rule="evenodd" fill-opacity="1" /><path clip-path="url(#clip810)" d="M154.839 1195.23 L162.477 1195.23 L162.477 1168.87 L154.167 1170.53 L154.167 1166.27 L162.431 1164.61 L167.107 1164.61 L167.107 1195.23 L174.746 1195.23 L174.746 1199.17 L154.839 1199.17 L154.839 1195.23 Z" fill="#000000" fill-rule="evenodd" fill-opacity="1" /><path clip-path="url(#clip810)" d="M184.19 1193.29 L189.075 1193.29 L189.075 1199.17 L184.19 1199.17 L184.19 1193.29 Z" fill="#000000" fill-rule="evenodd" fill-opacity="1" /><path clip-path="url(#clip810)" d="M209.26 1167.69 Q205.649 1167.69 203.82 1171.25 Q202.014 1174.79 202.014 1181.92 Q202.014 1189.03 203.82 1192.59 Q205.649 1196.14 209.26 1196.14 Q212.894 1196.14 214.699 1192.59 Q216.528 1189.03 216.528 1181.92 Q216.528 1174.79 214.699 1171.25 Q212.894 1167.69 209.26 1167.69 M209.26 1163.98 Q215.07 1163.98 218.125 1168.59 Q221.204 1173.17 221.204 1181.92 Q221.204 1190.65 218.125 1195.26 Q215.07 1199.84 209.26 1199.84 Q203.449 1199.84 200.371 1195.26 Q197.315 1190.65 197.315 1181.92 Q197.315 1173.17 200.371 1168.59 Q203.449 1163.98 209.26 1163.98 Z" fill="#000000" fill-rule="evenodd" fill-opacity="1" /><path clip-path="url(#clip810)" d="M115.256 887.033 L144.931 887.033 L144.931 890.968 L115.256 890.968 L115.256 887.033 Z" fill="#000000" fill-rule="evenodd" fill-opacity="1" /><path clip-path="url(#clip810)" d="M165.024 872.38 Q161.413 872.38 159.584 875.945 Q157.778 879.487 157.778 886.616 Q157.778 893.723 159.584 897.288 Q161.413 900.829 165.024 900.829 Q168.658 900.829 170.464 897.288 Q172.292 893.723 172.292 886.616 Q172.292 879.487 170.464 875.945 Q168.658 872.38 165.024 872.38 M165.024 868.677 Q170.834 868.677 173.889 873.283 Q176.968 877.867 176.968 886.616 Q176.968 895.343 173.889 899.95 Q170.834 904.533 165.024 904.533 Q159.214 904.533 156.135 899.95 Q153.079 895.343 153.079 886.616 Q153.079 877.867 156.135 873.283 Q159.214 868.677 165.024 868.677 Z" fill="#000000" fill-rule="evenodd" fill-opacity="1" /><path clip-path="url(#clip810)" d="M185.186 897.982 L190.07 897.982 L190.07 903.862 L185.186 903.862 L185.186 897.982 Z" fill="#000000" fill-rule="evenodd" fill-opacity="1" /><path clip-path="url(#clip810)" d="M200.301 869.302 L218.658 869.302 L218.658 873.237 L204.584 873.237 L204.584 881.709 Q205.602 881.362 206.621 881.2 Q207.639 881.015 208.658 881.015 Q214.445 881.015 217.824 884.186 Q221.204 887.357 221.204 892.774 Q221.204 898.353 217.732 901.454 Q214.26 904.533 207.94 904.533 Q205.764 904.533 203.496 904.163 Q201.25 903.792 198.843 903.052 L198.843 898.353 Q200.926 899.487 203.149 900.042 Q205.371 900.598 207.848 900.598 Q211.852 900.598 214.19 898.491 Q216.528 896.385 216.528 892.774 Q216.528 889.163 214.19 887.056 Q211.852 884.95 207.848 884.95 Q205.973 884.95 204.098 885.366 Q202.246 885.783 200.301 886.663 L200.301 869.302 Z" fill="#000000" fill-rule="evenodd" fill-opacity="1" /><path clip-path="url(#clip810)" d="M164.028 577.074 Q160.417 577.074 158.589 580.639 Q156.783 584.181 156.783 591.31 Q156.783 598.417 158.589 601.981 Q160.417 605.523 164.028 605.523 Q167.663 605.523 169.468 601.981 Q171.297 598.417 171.297 591.31 Q171.297 584.181 169.468 580.639 Q167.663 577.074 164.028 577.074 M164.028 573.37 Q169.839 573.37 172.894 577.977 Q175.973 582.56 175.973 591.31 Q175.973 600.037 172.894 604.643 Q169.839 609.227 164.028 609.227 Q158.218 609.227 155.14 604.643 Q152.084 600.037 152.084 591.31 Q152.084 582.56 155.14 577.977 Q158.218 573.37 164.028 573.37 Z" fill="#000000" fill-rule="evenodd" fill-opacity="1" /><path clip-path="url(#clip810)" d="M184.19 602.676 L189.075 602.676 L189.075 608.555 L184.19 608.555 L184.19 602.676 Z" fill="#000000" fill-rule="evenodd" fill-opacity="1" /><path clip-path="url(#clip810)" d="M209.26 577.074 Q205.649 577.074 203.82 580.639 Q202.014 584.181 202.014 591.31 Q202.014 598.417 203.82 601.981 Q205.649 605.523 209.26 605.523 Q212.894 605.523 214.699 601.981 Q216.528 598.417 216.528 591.31 Q216.528 584.181 214.699 580.639 Q212.894 577.074 209.26 577.074 M209.26 573.37 Q215.07 573.37 218.125 577.977 Q221.204 582.56 221.204 591.31 Q221.204 600.037 218.125 604.643 Q215.07 609.227 209.26 609.227 Q203.449 609.227 200.371 604.643 Q197.315 600.037 197.315 591.31 Q197.315 582.56 200.371 577.977 Q203.449 573.37 209.26 573.37 Z" fill="#000000" fill-rule="evenodd" fill-opacity="1" /><path clip-path="url(#clip810)" d="M165.024 281.768 Q161.413 281.768 159.584 285.333 Q157.778 288.874 157.778 296.004 Q157.778 303.11 159.584 306.675 Q161.413 310.217 165.024 310.217 Q168.658 310.217 170.464 306.675 Q172.292 303.11 172.292 296.004 Q172.292 288.874 170.464 285.333 Q168.658 281.768 165.024 281.768 M165.024 278.064 Q170.834 278.064 173.889 282.67 Q176.968 287.254 176.968 296.004 Q176.968 304.731 173.889 309.337 Q170.834 313.92 165.024 313.92 Q159.214 313.92 156.135 309.337 Q153.079 304.731 153.079 296.004 Q153.079 287.254 156.135 282.67 Q159.214 278.064 165.024 278.064 Z" fill="#000000" fill-rule="evenodd" fill-opacity="1" /><path clip-path="url(#clip810)" d="M185.186 307.369 L190.07 307.369 L190.07 313.249 L185.186 313.249 L185.186 307.369 Z" fill="#000000" fill-rule="evenodd" fill-opacity="1" /><path clip-path="url(#clip810)" d="M200.301 278.689 L218.658 278.689 L218.658 282.624 L204.584 282.624 L204.584 291.096 Q205.602 290.749 206.621 290.587 Q207.639 290.402 208.658 290.402 Q214.445 290.402 217.824 293.573 Q221.204 296.744 221.204 302.161 Q221.204 307.74 217.732 310.842 Q214.26 313.92 207.94 313.92 Q205.764 313.92 203.496 313.55 Q201.25 313.18 198.843 312.439 L198.843 307.74 Q200.926 308.874 203.149 309.43 Q205.371 309.985 207.848 309.985 Q211.852 309.985 214.19 307.879 Q216.528 305.772 216.528 302.161 Q216.528 298.55 214.19 296.444 Q211.852 294.337 207.848 294.337 Q205.973 294.337 204.098 294.754 Q202.246 295.17 200.301 296.05 L200.301 278.689 Z" fill="#000000" fill-rule="evenodd" fill-opacity="1" /><path clip-path="url(#clip810)" d="M67.3143 733.525 Q73.68 736.008 75.6216 738.363 Q77.5631 740.718 77.5631 744.665 L77.5631 749.344 L72.6615 749.344 L72.6615 745.906 Q72.6615 743.487 71.5157 742.151 Q70.3699 740.814 66.1048 739.191 L63.4312 738.14 L28.3562 752.559 L28.3562 746.352 L56.238 735.212 L28.3562 724.072 L28.3562 717.865 L67.3143 733.525 Z" fill="#000000" fill-rule="evenodd" fill-opacity="1" /><polyline clip-path="url(#clip812)" style="stroke:#009af9; stroke-linecap:round; stroke-linejoin:round; stroke-width:4; stroke-opacity:1; fill:none" points="2281.25,414.092 2292.2,527.874 2293.45,625.821 2285.93,695.731 2272.35,742.094 2254.95,769.154 2235.55,780.895 2215.56,781.025 2196.02,772.958 2177.61,759.802 2160.73,744.339 2145.48,729.015 2131.74,715.929 2119.18,706.826 2107.3,703.094 2095.49,705.765 2083.03,715.522 2069.15,732.708 2053.08,757.345 2034.05,789.15 2011.32,827.564 1984.25,871.779 1952.28,920.772 1914.98,973.34 1872.02,1028.14 1823.26,1083.73 1768.69,1138.61 1708.47,1191.25 1642.91,1240.17 1572.47,1283.94 1497.76,1321.22 1419.54,1350.81 1338.66,1371.7 1256.08,1383.05 1172.84,1384.24 1090.03,1374.88 1008.76,1354.82 930.157,1324.16 855.31,1283.25 785.269,1232.68 721.006,1173.26 663.4,1106.01 613.21,1032.13 571.061,953.007 537.424,870.13 512.612,785.097 496.764,699.564 489.844,615.211 491.641,533.702 501.771,456.65 519.686,385.579 544.683,321.887 575.921,266.822 612.438,221.444 653.169,186.608 696.975,162.941 742.66,150.829 789.003,150.406 834.782,161.554 878.798,183.902 919.907,216.834 957.042,259.505 989.233,310.859 1015.63,369.649 1035.53,434.469 1048.39,503.783 1053.8,575.96 1051.56,649.309 1041.64,722.118 1024.18,792.691 999.5,859.389 968.097,920.66 930.611,975.082 887.831,1021.39 840.665,1058.49 790.127,1085.53 737.31,1101.86 683.36,1107.07 629.453,1101.03 576.767,1083.83 526.456,1055.85 479.623,1017.68 437.293,970.161 400.396,914.34 369.738,851.453 345.991,782.893 329.668,710.187 321.123,634.951 320.532,558.864 327.896,483.621 343.037,410.901 365.606,342.328 395.086,279.433 430.805,223.62 471.955,176.134 517.603,138.034 566.719,110.172 618.193,93.165 670.865,87.3913 723.547,92.9755 775.052,109.788 824.218,137.447 869.94,175.327 911.186,222.576 947.029,278.128 976.66,340.734 999.413,408.986 1014.77,481.348 1022.4,556.193 1022.11,631.838 1013.92,706.585 997.999,778.751 974.716,846.716 944.59,908.951 908.294,964.059 866.646,1010.8 820.578,1048.12 771.125,1075.19 719.397,1091.4 666.556,1096.37 613.788,1090.01 562.278,1072.44 513.182,1044.08 467.604,1005.54 426.566,957.7 390.989,901.633 361.674,838.596 339.278,770.006 324.304,697.401 317.089,622.413 317.794,546.726 326.403,472.039 342.724,400.029 366.39,332.314 396.87,270.414 433.478,215.719 475.393,169.459 521.674,132.67 571.281,106.181 623.101,90.5845 675.969,86.2323 728.698,93.2217 780.105,111.396 829.034,140.346 874.388,179.423 915.147,227.749 950.396,284.238 979.344,347.622 1001.34,416.477 1015.89,489.258 1022.67,564.329 1021.53,640.004 1012.48,714.586 995.744,786.397 971.685,853.826 940.848,915.358 903.924,969.612 861.743,1015.37 815.252,1051.6 765.496,1077.49 713.591,1092.47 660.703,1096.19 608.021,1088.57 556.726,1069.78 507.973,1040.24 462.854,1000.62 422.384,951.81 387.471,894.901 358.9,831.173 337.312,762.057 323.192,689.106 316.857,613.957 318.45,538.299 327.934,463.831 345.097,392.224 369.553,325.088 400.753,263.93 437.996,210.123 480.446,164.876 527.15,129.204 577.059,103.91 629.052,89.561 681.96,86.4793 734.597,94.7342 785.78,114.14 834.36,144.262 879.245,184.422 919.427,233.719 954.005,291.047 982.201,355.116 1003.38,424.49 1017.07,497.609 1022.97,572.831 1020.93,648.468 1011.01,722.82 993.426,794.218 968.576,861.058 937.018,921.84 899.46,975.197 856.745,1019.93 809.833,1055.04 759.778,1079.74 707.703,1093.46 654.778,1095.91 602.192,1087.02 551.125,1067 502.725,1036.29 458.078,995.596 418.187,945.818 383.948,888.077 356.13,823.671 335.357,754.046 322.097,680.765 316.646,605.475 319.128,529.865 329.486,455.635 347.489,384.451 372.73,317.912 404.645,257.511 442.516,204.607 485.492,160.386 532.609,125.842 582.808,101.751 634.961,88.6535 687.899,86.8436 740.431,96.3623 791.378,116.996 839.596,148.28 884.002,189.514 923.599,239.77 957.497,297.92 984.936,362.658 1005.3,432.53 1018.13,505.968 1023.13,581.321 1020.21,656.898 1009.41,731.001 990.993,801.967 965.361,868.2 933.092,928.215 894.912,980.662 851.677,1024.36 804.359,1058.34 754.02,1081.83 701.791,1094.3 648.845,1095.47 596.371,1085.32 545.546,1064.08 497.514,1032.21 453.352,990.449 414.052,939.719 380.497,881.164 353.441,816.098 333.49,745.984 321.094,672.394 316.529,596.983 319.9,521.444 331.13,447.474 349.967,376.732 375.988,310.809 408.609,251.185 447.096,199.198 490.586,156.016 538.103,122.61 588.578,99.7282 640.878,87.8859 693.83,87.3487 746.242,98.1285 796.94,119.983 844.783,152.422 888.698,194.717 927.698,245.918 960.907,304.874 987.58,370.263 1007.12,440.615 1019.08,514.351 1023.2,589.814 1019.39,665.31 1007.72,739.143 988.47,809.655 962.062,875.263 929.092,934.494 890.3,986.016 846.557,1028.67 798.846,1061.51 748.238,1083.78 695.87,1095 642.917,1094.9 590.57,1083.49 540.003,1061.02 492.352,1028.01 448.687,985.19 409.99,933.522 377.129,874.168 350.841,808.462 331.718,737.877 320.189,664.001 316.512,588.491 320.771,513.043 332.869,439.353 352.536,369.074 379.328,303.786 412.646,244.954 451.739,193.899 495.732,151.769 543.634,119.509 594.371,97.8442 646.804,87.2606 699.754,87.9961 752.032,100.034 802.465,123.104 849.92,156.689 893.331,200.033 931.724,252.164 964.235,311.91 990.135,377.931 1008.84,448.742 1019.94,522.755 1023.17,598.306 1018.47,673.7 1005.94,747.242 985.856,817.282 958.68,882.246 925.018,940.676 885.625,991.259 841.387,1032.86 793.297,1064.54 742.434,1085.6 689.941,1095.55 636.997,1094.18 584.791,1081.51 534.496,1057.84 487.24,1023.68 444.085,979.818 406.001,927.228 373.842,867.093 348.331,800.764 330.041,729.73 319.383,655.586 316.595,579.999 321.74,504.664 334.704,431.275 355.194,361.479 382.751,296.844 416.756,238.821 456.444,188.713 500.926,147.646 549.201,116.542 600.186,96.0998 652.735,86.7778 705.669,88.7859 757.799,102.079 807.953,126.358 855.007,161.078 897.902,205.46 935.675,258.506 967.479,319.025 992.599,385.659 1010.47,456.91 1020.69,531.179 1023.04,606.797 1017.45,682.067 1004.05,755.298 983.153,824.845 955.217,889.147 920.872,946.759 880.89,996.388 836.169,1036.92 787.712,1067.44 736.609,1087.27 684.007,1095.96 631.086,1093.32 579.037,1079.4 529.027,1054.52 482.179,1019.23 439.547,974.337 402.087,920.839 370.64,859.939 345.913,793.006 328.461,721.543 318.676,647.154 316.777,571.51 322.808,496.31 336.633,423.242 357.942,353.949 386.255,289.985 420.937,232.787 461.21,183.641 506.168,143.649 554.802,113.71 606.02,94.4953 658.672,86.4377 711.575,89.7177 763.541,104.262 813.403,129.743 860.041,165.589 902.408,210.995 939.552,264.942 970.639,326.217 994.972,393.445 1012,465.115 1021.35,539.619 1022.8,615.283 1016.33,690.408 1002.08,763.307 980.361,832.342 951.673,895.963 916.655,952.742 876.095,1001.4 830.903,1040.85 782.095,1070.21 730.765,1088.81 678.068,1096.23 625.187,1092.31 573.308,1077.15 523.598,1051.07 477.172,1014.66 435.074,968.748 398.248,914.357 367.522,852.71 343.586,785.192 326.977,713.319 318.068,638.705 317.06,563.027 323.975,487.982 338.657,415.257 360.777,346.486 389.839,283.211 425.189,226.856 466.034,178.684 511.456,139.778 560.436,111.012 611.873,93.0313 664.612,86.2403 717.469,90.7913 769.256,106.582 818.811,133.258 865.021,170.22 906.848,216.638 943.352,271.47 973.715,333.483 997.253,401.287 1013.44,473.357 1021.91,548.075 1022.47,623.763 1015.12,698.722 1000.01,771.267 977.482,839.771 948.049,902.694 912.369,958.623 871.242,1006.3 825.592,1044.66 776.445,1072.84 724.905,1090.2 672.127,1096.36 619.299,1091.17 567.607,1074.76 518.21,1047.49 472.219,1009.97 430.667,963.051 394.486,907.783 364.49,845.407 341.351,777.323 325.59,705.061 317.56,630.244 317.442,554.551 325.238,479.684 340.774,407.322 363.7,339.092 393.502,276.525 429.51,221.027 470.916,173.843 516.79,136.035 566.101,108.45 617.742,91.7082 670.553,86.1857 723.349,92.0064 774.943,109.04 824.177,136.903 869.946,174.97 911.221,222.387 947.075,278.088 976.704,340.823 999.442,409.182 1014.78,481.631 1022.37,556.542 1022.04,632.233 1013.8,707.005 997.842,779.177 974.515,847.129 944.347,909.336 908.013,964.399 866.332,1011.08 820.237,1048.34 770.766,1075.33 719.028,1091.45 666.186,1096.34 613.426,1089.88 561.934,1072.23 512.865,1043.78 467.322,1005.16 426.328,957.25 390.802,901.12 361.544,838.031 339.209,769.401 324.3,696.771 317.151,621.771 317.924,546.086 326.6,471.417 342.984,399.439 366.71,331.769 397.244,269.927 433.899,215.302 475.854,169.121 522.166,132.42 571.794,106.024 623.625,90.5263 676.494,86.2739 729.214,93.3627 780.601,111.634 829.5,140.676 874.815,179.838 915.526,228.24 950.72,284.795 979.607,348.233 1001.54,417.13 1016.02,489.937 1022.73,565.02 1021.51,640.692 1012.39,715.255 995.585,787.033 971.463,854.416 940.567,915.888 903.591,970.071 861.366,1015.75 814.84,1051.89 765.058,1077.69 713.138,1092.56 660.246,1096.18 607.57,1088.46 556.292,1069.57 507.565,1039.94 462.483,1000.23 422.057,951.345 387.197,894.369 358.685,830.586 337.16,761.429 323.108,688.451 316.843,613.29 318.505,537.634 328.058,463.184 345.287,391.61 369.805,324.52 401.062,263.421 438.355,209.684 480.847,164.518 527.584,128.935 577.516,103.736 629.522,89.4859 682.433,86.5048 735.062,94.8597 786.227,114.363 834.778,144.577 879.625,184.823 919.761,234.196 954.285,291.589 982.422,355.712 1003.54,425.126 1017.16,498.271 1022.98,573.504 1020.88,649.137 1010.89,723.47 993.237,794.834 968.325,861.627 936.71,922.349 899.102,975.635 856.346,1020.29 809.401,1055.31 759.323,1079.91 707.235,1093.53 654.308,1095.88 601.73,1086.89 550.682,1066.77 502.31,1035.98 457.701,995.193 417.857,945.339 383.672,887.533 355.914,823.074 335.206,753.409 322.014,680.103 316.633,604.802 319.186,529.197 329.613,454.987 347.682,383.837 372.986,317.346 404.956,257.007 442.876,204.174 485.894,160.036 533.043,125.581 583.264,101.586 635.43,88.5875 688.369,86.8785 740.892,96.4971 791.82,117.227 840.009,148.604 884.376,189.922 923.926,240.253 957.77,298.468 985.148,363.258 1005.45,433.169 1018.21,506.631 1023.14,581.994 1020.15,657.565 1009.28,731.648 990.797,802.578 965.103,868.763 932.778,928.716 894.549,981.09 851.273,1024.71 803.923,1058.6 753.563,1081.99 701.322,1094.36 648.375,1095.43 595.91,1085.18 545.106,1063.84 497.103,1031.89 452.98,990.037 413.728,939.232 380.228,880.613 353.232,815.495 333.346,745.343 321.018,671.73 316.524,596.311 319.965,520.778 331.264,446.829 350.167,376.123 376.25,310.25 408.926,250.687 447.462,198.774 490.992,155.675 538.54,122.359 589.036,99.5738 641.348,87.8312 694.299,87.3948 746.702,98.2744 797.379,120.226 845.192,152.756 889.067,195.134 928.019,246.409 961.174,305.429 987.786,370.868 1007.26,441.257 1019.15,515.016 1023.2,590.487 1019.32,665.975 1007.58,739.786 988.266,810.262 961.797,875.82 928.772,934.987 889.932,986.436 846.149,1029.01 840.817,1033.31 "/>
<path clip-path="url(#clip810)" d="M2020.92 196.789 L2282.9 196.789 L2282.9 93.1086 L2020.92 93.1086  Z" fill="#ffffff" fill-rule="evenodd" fill-opacity="1"/>
<polyline clip-path="url(#clip810)" style="stroke:#000000; stroke-linecap:round; stroke-linejoin:round; stroke-width:4; stroke-opacity:1; fill:none" points="2020.92,196.789 2282.9,196.789 2282.9,93.1086 2020.92,93.1086 2020.92,196.789 "/>
<polyline clip-path="url(#clip810)" style="stroke:#009af9; stroke-linecap:round; stroke-linejoin:round; stroke-width:4; stroke-opacity:1; fill:none" points="2044.2,144.949 2183.91,144.949 "/>
<path clip-path="url(#clip810)" d="M2221.03 164.636 Q2219.23 169.266 2217.51 170.678 Q2215.8 172.09 2212.93 172.09 L2209.53 172.09 L2209.53 168.525 L2212.03 168.525 Q2213.79 168.525 2214.76 167.692 Q2215.73 166.858 2216.91 163.756 L2217.68 161.812 L2207.19 136.303 L2211.7 136.303 L2219.81 156.581 L2227.91 136.303 L2232.42 136.303 L2221.03 164.636 Z" fill="#000000" fill-rule="evenodd" fill-opacity="1" /><path clip-path="url(#clip810)" d="M2239.71 158.293 L2247.35 158.293 L2247.35 131.928 L2239.04 133.595 L2239.04 129.335 L2247.31 127.669 L2251.98 127.669 L2251.98 158.293 L2259.62 158.293 L2259.62 162.229 L2239.71 162.229 L2239.71 158.293 Z" fill="#000000" fill-rule="evenodd" fill-opacity="1" /></svg>
