<?xml version="1.0" encoding="utf-8"?>
<svg xmlns="http://www.w3.org/2000/svg" xmlns:xlink="http://www.w3.org/1999/xlink" width="600" height="400" viewBox="0 0 2400 1600">
<defs>
  <clipPath id="clip770">
    <rect x="0" y="0" width="2400" height="1600"/>
  </clipPath>
</defs>
<path clip-path="url(#clip770)" d="M0 1600 L2400 1600 L2400 0 L0 0  Z" fill="#ffffff" fill-rule="evenodd" fill-opacity="1"/>
<defs>
  <clipPath id="clip771">
    <rect x="480" y="0" width="1681" height="1600"/>
  </clipPath>
</defs>
<path clip-path="url(#clip770)" d="M255.977 1423.18 L2352.76 1423.18 L2352.76 47.2441 L255.977 47.2441  Z" fill="#ffffff" fill-rule="evenodd" fill-opacity="1"/>
<defs>
  <clipPath id="clip772">
    <rect x="255" y="47" width="2098" height="1377"/>
  </clipPath>
</defs>
<polyline clip-path="url(#clip772)" style="stroke:#000000; stroke-linecap:round; stroke-linejoin:round; stroke-width:2; stroke-opacity:0.1; fill:none" points="623.127,1423.18 623.127,47.2441 "/>
<polyline clip-path="url(#clip772)" style="stroke:#000000; stroke-linecap:round; stroke-linejoin:round; stroke-width:2; stroke-opacity:0.1; fill:none" points="1003.53,1423.18 1003.53,47.2441 "/>
<polyline clip-path="url(#clip772)" style="stroke:#000000; stroke-linecap:round; stroke-linejoin:round; stroke-width:2; stroke-opacity:0.1; fill:none" points="1383.94,1423.18 1383.94,47.2441 "/>
<polyline clip-path="url(#clip772)" style="stroke:#000000; stroke-linecap:round; stroke-linejoin:round; stroke-width:2; stroke-opacity:0.1; fill:none" points="1764.35,1423.18 1764.35,47.2441 "/>
<polyline clip-path="url(#clip772)" style="stroke:#000000; stroke-linecap:round; stroke-linejoin:round; stroke-width:2; stroke-opacity:0.1; fill:none" points="2144.76,1423.18 2144.76,47.2441 "/>
<polyline clip-path="url(#clip770)" style="stroke:#000000; stroke-linecap:round; stroke-linejoin:round; stroke-width:4; stroke-opacity:1; fill:none" points="255.977,1423.18 2352.76,1423.18 "/>
<polyline clip-path="url(#clip770)" style="stroke:#000000; stroke-linecap:round; stroke-linejoin:round; stroke-width:4; stroke-opacity:1; fill:none" points="623.127,1423.18 623.127,1404.28 "/>
<polyline clip-path="url(#clip770)" style="stroke:#000000; stroke-linecap:round; stroke-linejoin:round; stroke-width:4; stroke-opacity:1; fill:none" points="1003.53,1423.18 1003.53,1404.28 "/>
<polyline clip-path="url(#clip770)" style="stroke:#000000; stroke-linecap:round; stroke-linejoin:round; stroke-width:4; stroke-opacity:1; fill:none" points="1383.94,1423.18 1383.94,1404.28 "/>
<polyline clip-path="url(#clip770)" style="stroke:#000000; stroke-linecap:round; stroke-linejoin:round; stroke-width:4; stroke-opacity:1; fill:none" points="1764.35,1423.18 1764.35,1404.28 "/>
<polyline clip-path="url(#clip770)" style="stroke:#000000; stroke-linecap:round; stroke-linejoin:round; stroke-width:4; stroke-opacity:1; fill:none" points="2144.76,1423.18 2144.76,1404.28 "/>
<path clip-path="url(#clip770)" d="M585.928 1454.1 Q582.317 1454.1 580.488 1457.66 Q578.683 1461.2 578.683 1468.33 Q578.683 1475.44 580.488 1479.01 Q582.317 1482.55 585.928 1482.55 Q589.562 1482.55 591.368 1479.01 Q593.197 1475.44 593.197 1468.33 Q593.197 1461.2 591.368 1457.66 Q589.562 1454.1 585.928 1454.1 M585.928 1450.39 Q591.738 1450.39 594.794 1455 Q597.872 1459.58 597.872 1468.33 Q597.872 1477.06 594.794 1481.67 Q591.738 1486.25 585.928 1486.25 Q580.118 1486.25 577.039 1481.67 Q573.984 1477.06 573.984 1468.33 Q573.984 1459.58 577.039 1455 Q580.118 1450.39 585.928 1450.39 Z" fill="#000000" fill-rule="evenodd" fill-opacity="1" /><path clip-path="url(#clip770)" d="M606.09 1479.7 L610.974 1479.7 L610.974 1485.58 L606.09 1485.58 L606.09 1479.7 Z" fill="#000000" fill-rule="evenodd" fill-opacity="1" /><path clip-path="url(#clip770)" d="M625.187 1481.64 L641.506 1481.64 L641.506 1485.58 L619.562 1485.58 L619.562 1481.64 Q622.224 1478.89 626.807 1474.26 Q631.414 1469.61 632.594 1468.27 Q634.84 1465.74 635.719 1464.01 Q636.622 1462.25 636.622 1460.56 Q636.622 1457.8 634.678 1456.07 Q632.756 1454.33 629.655 1454.33 Q627.456 1454.33 625.002 1455.09 Q622.571 1455.86 619.794 1457.41 L619.794 1452.69 Q622.618 1451.55 625.071 1450.97 Q627.525 1450.39 629.562 1450.39 Q634.932 1450.39 638.127 1453.08 Q641.321 1455.77 641.321 1460.26 Q641.321 1462.39 640.511 1464.31 Q639.724 1466.2 637.618 1468.8 Q637.039 1469.47 633.937 1472.69 Q630.835 1475.88 625.187 1481.64 Z" fill="#000000" fill-rule="evenodd" fill-opacity="1" /><path clip-path="url(#clip770)" d="M651.367 1451.02 L669.724 1451.02 L669.724 1454.96 L655.65 1454.96 L655.65 1463.43 Q656.668 1463.08 657.687 1462.92 Q658.705 1462.73 659.724 1462.73 Q665.511 1462.73 668.891 1465.9 Q672.27 1469.08 672.27 1474.49 Q672.27 1480.07 668.798 1483.17 Q665.326 1486.25 659.006 1486.25 Q656.83 1486.25 654.562 1485.88 Q652.317 1485.51 649.909 1484.77 L649.909 1480.07 Q651.992 1481.2 654.215 1481.76 Q656.437 1482.32 658.914 1482.32 Q662.918 1482.32 665.256 1480.21 Q667.594 1478.1 667.594 1474.49 Q667.594 1470.88 665.256 1468.77 Q662.918 1466.67 658.914 1466.67 Q657.039 1466.67 655.164 1467.08 Q653.312 1467.5 651.367 1468.38 L651.367 1451.02 Z" fill="#000000" fill-rule="evenodd" fill-opacity="1" /><path clip-path="url(#clip770)" d="M965.837 1454.1 Q962.226 1454.1 960.398 1457.66 Q958.592 1461.2 958.592 1468.33 Q958.592 1475.44 960.398 1479.01 Q962.226 1482.55 965.837 1482.55 Q969.472 1482.55 971.277 1479.01 Q973.106 1475.44 973.106 1468.33 Q973.106 1461.2 971.277 1457.66 Q969.472 1454.1 965.837 1454.1 M965.837 1450.39 Q971.648 1450.39 974.703 1455 Q977.782 1459.58 977.782 1468.33 Q977.782 1477.06 974.703 1481.67 Q971.648 1486.25 965.837 1486.25 Q960.027 1486.25 956.949 1481.67 Q953.893 1477.06 953.893 1468.33 Q953.893 1459.58 956.949 1455 Q960.027 1450.39 965.837 1450.39 Z" fill="#000000" fill-rule="evenodd" fill-opacity="1" /><path clip-path="url(#clip770)" d="M985.999 1479.7 L990.884 1479.7 L990.884 1485.58 L985.999 1485.58 L985.999 1479.7 Z" fill="#000000" fill-rule="evenodd" fill-opacity="1" /><path clip-path="url(#clip770)" d="M1001.11 1451.02 L1019.47 1451.02 L1019.47 1454.96 L1005.4 1454.96 L1005.4 1463.43 Q1006.42 1463.08 1007.43 1462.92 Q1008.45 1462.73 1009.47 1462.73 Q1015.26 1462.73 1018.64 1465.9 Q1022.02 1469.08 1022.02 1474.49 Q1022.02 1480.07 1018.55 1483.17 Q1015.07 1486.25 1008.75 1486.25 Q1006.58 1486.25 1004.31 1485.88 Q1002.06 1485.51 999.657 1484.77 L999.657 1480.07 Q1001.74 1481.2 1003.96 1481.76 Q1006.18 1482.32 1008.66 1482.32 Q1012.67 1482.32 1015 1480.21 Q1017.34 1478.1 1017.34 1474.49 Q1017.34 1470.88 1015 1468.77 Q1012.67 1466.67 1008.66 1466.67 Q1006.79 1466.67 1004.91 1467.08 Q1003.06 1467.5 1001.11 1468.38 L1001.11 1451.02 Z" fill="#000000" fill-rule="evenodd" fill-opacity="1" /><path clip-path="url(#clip770)" d="M1041.23 1454.1 Q1037.62 1454.1 1035.79 1457.66 Q1033.99 1461.2 1033.99 1468.33 Q1033.99 1475.44 1035.79 1479.01 Q1037.62 1482.55 1041.23 1482.55 Q1044.86 1482.55 1046.67 1479.01 Q1048.5 1475.44 1048.5 1468.33 Q1048.5 1461.2 1046.67 1457.66 Q1044.86 1454.1 1041.23 1454.1 M1041.23 1450.39 Q1047.04 1450.39 1050.1 1455 Q1053.17 1459.58 1053.17 1468.33 Q1053.17 1477.06 1050.1 1481.67 Q1047.04 1486.25 1041.23 1486.25 Q1035.42 1486.25 1032.34 1481.67 Q1029.29 1477.06 1029.29 1468.33 Q1029.29 1459.58 1032.34 1455 Q1035.42 1450.39 1041.23 1450.39 Z" fill="#000000" fill-rule="evenodd" fill-opacity="1" /><path clip-path="url(#clip770)" d="M1346.74 1454.1 Q1343.13 1454.1 1341.3 1457.66 Q1339.5 1461.2 1339.5 1468.33 Q1339.5 1475.44 1341.3 1479.01 Q1343.13 1482.55 1346.74 1482.55 Q1350.38 1482.55 1352.18 1479.01 Q1354.01 1475.44 1354.01 1468.33 Q1354.01 1461.2 1352.18 1457.66 Q1350.38 1454.1 1346.74 1454.1 M1346.74 1450.39 Q1352.55 1450.39 1355.61 1455 Q1358.69 1459.58 1358.69 1468.33 Q1358.69 1477.06 1355.61 1481.67 Q1352.55 1486.25 1346.74 1486.25 Q1340.93 1486.25 1337.85 1481.67 Q1334.8 1477.06 1334.8 1468.33 Q1334.8 1459.58 1337.85 1455 Q1340.93 1450.39 1346.74 1450.39 Z" fill="#000000" fill-rule="evenodd" fill-opacity="1" /><path clip-path="url(#clip770)" d="M1366.9 1479.7 L1371.79 1479.7 L1371.79 1485.58 L1366.9 1485.58 L1366.9 1479.7 Z" fill="#000000" fill-rule="evenodd" fill-opacity="1" /><path clip-path="url(#clip770)" d="M1380.79 1451.02 L1403.01 1451.02 L1403.01 1453.01 L1390.47 1485.58 L1385.58 1485.58 L1397.39 1454.96 L1380.79 1454.96 L1380.79 1451.02 Z" fill="#000000" fill-rule="evenodd" fill-opacity="1" /><path clip-path="url(#clip770)" d="M1412.18 1451.02 L1430.54 1451.02 L1430.54 1454.96 L1416.46 1454.96 L1416.46 1463.43 Q1417.48 1463.08 1418.5 1462.92 Q1419.52 1462.73 1420.54 1462.73 Q1426.33 1462.73 1429.7 1465.9 Q1433.08 1469.08 1433.08 1474.49 Q1433.08 1480.07 1429.61 1483.17 Q1426.14 1486.25 1419.82 1486.25 Q1417.64 1486.25 1415.38 1485.88 Q1413.13 1485.51 1410.72 1484.77 L1410.72 1480.07 Q1412.81 1481.2 1415.03 1481.76 Q1417.25 1482.32 1419.73 1482.32 Q1423.73 1482.32 1426.07 1480.21 Q1428.41 1478.1 1428.41 1474.49 Q1428.41 1470.88 1426.07 1468.77 Q1423.73 1466.67 1419.73 1466.67 Q1417.85 1466.67 1415.98 1467.08 Q1414.13 1467.5 1412.18 1468.38 L1412.18 1451.02 Z" fill="#000000" fill-rule="evenodd" fill-opacity="1" /><path clip-path="url(#clip770)" d="M1716.42 1481.64 L1724.06 1481.64 L1724.06 1455.28 L1715.75 1456.95 L1715.75 1452.69 L1724.01 1451.02 L1728.69 1451.02 L1728.69 1481.64 L1736.33 1481.64 L1736.33 1485.58 L1716.42 1485.58 L1716.42 1481.64 Z" fill="#000000" fill-rule="evenodd" fill-opacity="1" /><path clip-path="url(#clip770)" d="M1745.77 1479.7 L1750.66 1479.7 L1750.66 1485.58 L1745.77 1485.58 L1745.77 1479.7 Z" fill="#000000" fill-rule="evenodd" fill-opacity="1" /><path clip-path="url(#clip770)" d="M1770.84 1454.1 Q1767.23 1454.1 1765.4 1457.66 Q1763.6 1461.2 1763.6 1468.33 Q1763.6 1475.44 1765.4 1479.01 Q1767.23 1482.55 1770.84 1482.55 Q1774.48 1482.55 1776.28 1479.01 Q1778.11 1475.44 1778.11 1468.33 Q1778.11 1461.2 1776.28 1457.66 Q1774.48 1454.1 1770.84 1454.1 M1770.84 1450.39 Q1776.65 1450.39 1779.71 1455 Q1782.79 1459.58 1782.79 1468.33 Q1782.79 1477.06 1779.71 1481.67 Q1776.65 1486.25 1770.84 1486.25 Q1765.03 1486.25 1761.95 1481.67 Q1758.9 1477.06 1758.9 1468.33 Q1758.9 1459.58 1761.95 1455 Q1765.03 1450.39 1770.84 1450.39 Z" fill="#000000" fill-rule="evenodd" fill-opacity="1" /><path clip-path="url(#clip770)" d="M1801 1454.1 Q1797.39 1454.1 1795.56 1457.66 Q1793.76 1461.2 1793.76 1468.33 Q1793.76 1475.44 1795.56 1479.01 Q1797.39 1482.55 1801 1482.55 Q1804.64 1482.55 1806.44 1479.01 Q1808.27 1475.44 1808.27 1468.33 Q1808.27 1461.2 1806.44 1457.66 Q1804.64 1454.1 1801 1454.1 M1801 1450.39 Q1806.81 1450.39 1809.87 1455 Q1812.95 1459.58 1812.95 1468.33 Q1812.95 1477.06 1809.87 1481.67 Q1806.81 1486.25 1801 1486.25 Q1795.19 1486.25 1792.11 1481.67 Q1789.06 1477.06 1789.06 1468.33 Q1789.06 1459.58 1792.11 1455 Q1795.19 1450.39 1801 1450.39 Z" fill="#000000" fill-rule="evenodd" fill-opacity="1" /><path clip-path="url(#clip770)" d="M2097.32 1481.64 L2104.96 1481.64 L2104.96 1455.28 L2096.65 1456.95 L2096.65 1452.69 L2104.92 1451.02 L2109.59 1451.02 L2109.59 1481.64 L2117.23 1481.64 L2117.23 1485.58 L2097.32 1485.58 L2097.32 1481.64 Z" fill="#000000" fill-rule="evenodd" fill-opacity="1" /><path clip-path="url(#clip770)" d="M2126.68 1479.7 L2131.56 1479.7 L2131.56 1485.58 L2126.68 1485.58 L2126.68 1479.7 Z" fill="#000000" fill-rule="evenodd" fill-opacity="1" /><path clip-path="url(#clip770)" d="M2145.77 1481.64 L2162.09 1481.64 L2162.09 1485.58 L2140.15 1485.58 L2140.15 1481.64 Q2142.81 1478.89 2147.39 1474.26 Q2152 1469.61 2153.18 1468.27 Q2155.43 1465.74 2156.31 1464.01 Q2157.21 1462.25 2157.21 1460.56 Q2157.21 1457.8 2155.26 1456.07 Q2153.34 1454.33 2150.24 1454.33 Q2148.04 1454.33 2145.59 1455.09 Q2143.16 1455.86 2140.38 1457.41 L2140.38 1452.69 Q2143.2 1451.55 2145.66 1450.97 Q2148.11 1450.39 2150.15 1450.39 Q2155.52 1450.39 2158.71 1453.08 Q2161.91 1455.77 2161.91 1460.26 Q2161.91 1462.39 2161.1 1464.31 Q2160.31 1466.2 2158.2 1468.8 Q2157.63 1469.47 2154.52 1472.69 Q2151.42 1475.88 2145.77 1481.64 Z" fill="#000000" fill-rule="evenodd" fill-opacity="1" /><path clip-path="url(#clip770)" d="M2171.95 1451.02 L2190.31 1451.02 L2190.31 1454.96 L2176.24 1454.96 L2176.24 1463.43 Q2177.25 1463.08 2178.27 1462.92 Q2179.29 1462.73 2180.31 1462.73 Q2186.1 1462.73 2189.48 1465.9 Q2192.86 1469.08 2192.86 1474.49 Q2192.86 1480.07 2189.38 1483.17 Q2185.91 1486.25 2179.59 1486.25 Q2177.42 1486.25 2175.15 1485.88 Q2172.9 1485.51 2170.5 1484.77 L2170.5 1480.07 Q2172.58 1481.2 2174.8 1481.76 Q2177.02 1482.32 2179.5 1482.32 Q2183.5 1482.32 2185.84 1480.21 Q2188.18 1478.1 2188.18 1474.49 Q2188.18 1470.88 2185.84 1468.77 Q2183.5 1466.67 2179.5 1466.67 Q2177.63 1466.67 2175.75 1467.08 Q2173.9 1467.5 2171.95 1468.38 L2171.95 1451.02 Z" fill="#000000" fill-rule="evenodd" fill-opacity="1" /><path clip-path="url(#clip770)" d="M1320.98 1532.4 L1308.09 1549.74 L1321.65 1568.04 L1314.74 1568.04 L1304.37 1554.04 L1293.99 1568.04 L1287.08 1568.04 L1300.93 1549.39 L1288.26 1532.4 L1295.17 1532.4 L1304.62 1545.1 L1314.07 1532.4 L1320.98 1532.4 Z" fill="#000000" fill-rule="evenodd" fill-opacity="1" /><polyline clip-path="url(#clip772)" style="stroke:#000000; stroke-linecap:round; stroke-linejoin:round; stroke-width:2; stroke-opacity:0.1; fill:none" points="255.977,1312.6 2352.76,1312.6 "/>
<polyline clip-path="url(#clip772)" style="stroke:#000000; stroke-linecap:round; stroke-linejoin:round; stroke-width:2; stroke-opacity:0.1; fill:none" points="255.977,1006 2352.76,1006 "/>
<polyline clip-path="url(#clip772)" style="stroke:#000000; stroke-linecap:round; stroke-linejoin:round; stroke-width:2; stroke-opacity:0.1; fill:none" points="255.977,699.393 2352.76,699.393 "/>
<polyline clip-path="url(#clip772)" style="stroke:#000000; stroke-linecap:round; stroke-linejoin:round; stroke-width:2; stroke-opacity:0.1; fill:none" points="255.977,392.789 2352.76,392.789 "/>
<polyline clip-path="url(#clip772)" style="stroke:#000000; stroke-linecap:round; stroke-linejoin:round; stroke-width:2; stroke-opacity:0.1; fill:none" points="255.977,86.1857 2352.76,86.1857 "/>
<polyline clip-path="url(#clip770)" style="stroke:#000000; stroke-linecap:round; stroke-linejoin:round; stroke-width:4; stroke-opacity:1; fill:none" points="255.977,1423.18 255.977,47.2441 "/>
<polyline clip-path="url(#clip770)" style="stroke:#000000; stroke-linecap:round; stroke-linejoin:round; stroke-width:4; stroke-opacity:1; fill:none" points="255.977,1312.6 274.875,1312.6 "/>
<polyline clip-path="url(#clip770)" style="stroke:#000000; stroke-linecap:round; stroke-linejoin:round; stroke-width:4; stroke-opacity:1; fill:none" points="255.977,1006 274.875,1006 "/>
<polyline clip-path="url(#clip770)" style="stroke:#000000; stroke-linecap:round; stroke-linejoin:round; stroke-width:4; stroke-opacity:1; fill:none" points="255.977,699.393 274.875,699.393 "/>
<polyline clip-path="url(#clip770)" style="stroke:#000000; stroke-linecap:round; stroke-linejoin:round; stroke-width:4; stroke-opacity:1; fill:none" points="255.977,392.789 274.875,392.789 "/>
<polyline clip-path="url(#clip770)" style="stroke:#000000; stroke-linecap:round; stroke-linejoin:round; stroke-width:4; stroke-opacity:1; fill:none" points="255.977,86.1857 274.875,86.1857 "/>
<path clip-path="url(#clip770)" d="M114.26 1313.05 L143.936 1313.05 L143.936 1316.99 L114.26 1316.99 L114.26 1313.05 Z" fill="#000000" fill-rule="evenodd" fill-opacity="1" /><path clip-path="url(#clip770)" d="M164.028 1298.4 Q160.417 1298.4 158.589 1301.96 Q156.783 1305.51 156.783 1312.64 Q156.783 1319.74 158.589 1323.31 Q160.417 1326.85 164.028 1326.85 Q167.663 1326.85 169.468 1323.31 Q171.297 1319.74 171.297 1312.64 Q171.297 1305.51 169.468 1301.96 Q167.663 1298.4 164.028 1298.4 M164.028 1294.7 Q169.839 1294.7 172.894 1299.3 Q175.973 1303.89 175.973 1312.64 Q175.973 1321.36 172.894 1325.97 Q169.839 1330.55 164.028 1330.55 Q158.218 1330.55 155.14 1325.97 Q152.084 1321.36 152.084 1312.64 Q152.084 1303.89 155.14 1299.3 Q158.218 1294.7 164.028 1294.7 Z" fill="#000000" fill-rule="evenodd" fill-opacity="1" /><path clip-path="url(#clip770)" d="M184.19 1324 L189.075 1324 L189.075 1329.88 L184.19 1329.88 L184.19 1324 Z" fill="#000000" fill-rule="evenodd" fill-opacity="1" /><path clip-path="url(#clip770)" d="M200.07 1325.95 L207.709 1325.95 L207.709 1299.58 L199.399 1301.25 L199.399 1296.99 L207.662 1295.32 L212.338 1295.32 L212.338 1325.95 L219.977 1325.95 L219.977 1329.88 L200.07 1329.88 L200.07 1325.95 Z" fill="#000000" fill-rule="evenodd" fill-opacity="1" /><path clip-path="url(#clip770)" d="M162.802 991.796 Q159.19 991.796 157.362 995.36 Q155.556 998.902 155.556 1006.03 Q155.556 1013.14 157.362 1016.7 Q159.19 1020.24 162.802 1020.24 Q166.436 1020.24 168.241 1016.7 Q170.07 1013.14 170.07 1006.03 Q170.07 998.902 168.241 995.36 Q166.436 991.796 162.802 991.796 M162.802 988.092 Q168.612 988.092 171.667 992.698 Q174.746 997.282 174.746 1006.03 Q174.746 1014.76 171.667 1019.36 Q168.612 1023.95 162.802 1023.95 Q156.991 1023.95 153.913 1019.36 Q150.857 1014.76 150.857 1006.03 Q150.857 997.282 153.913 992.698 Q156.991 988.092 162.802 988.092 Z" fill="#000000" fill-rule="evenodd" fill-opacity="1" /><path clip-path="url(#clip770)" d="M182.963 1017.4 L187.848 1017.4 L187.848 1023.28 L182.963 1023.28 L182.963 1017.4 Z" fill="#000000" fill-rule="evenodd" fill-opacity="1" /><path clip-path="url(#clip770)" d="M208.033 991.796 Q204.422 991.796 202.593 995.36 Q200.787 998.902 200.787 1006.03 Q200.787 1013.14 202.593 1016.7 Q204.422 1020.24 208.033 1020.24 Q211.667 1020.24 213.473 1016.7 Q215.301 1013.14 215.301 1006.03 Q215.301 998.902 213.473 995.36 Q211.667 991.796 208.033 991.796 M208.033 988.092 Q213.843 988.092 216.898 992.698 Q219.977 997.282 219.977 1006.03 Q219.977 1014.76 216.898 1019.36 Q213.843 1023.95 208.033 1023.95 Q202.223 1023.95 199.144 1019.36 Q196.088 1014.76 196.088 1006.03 Q196.088 997.282 199.144 992.698 Q202.223 988.092 208.033 988.092 Z" fill="#000000" fill-rule="evenodd" fill-opacity="1" /><path clip-path="url(#clip770)" d="M164.028 685.192 Q160.417 685.192 158.589 688.757 Q156.783 692.298 156.783 699.428 Q156.783 706.534 158.589 710.099 Q160.417 713.641 164.028 713.641 Q167.663 713.641 169.468 710.099 Q171.297 706.534 171.297 699.428 Q171.297 692.298 169.468 688.757 Q167.663 685.192 164.028 685.192 M164.028 681.488 Q169.839 681.488 172.894 686.095 Q175.973 690.678 175.973 699.428 Q175.973 708.155 172.894 712.761 Q169.839 717.344 164.028 717.344 Q158.218 717.344 155.14 712.761 Q152.084 708.155 152.084 699.428 Q152.084 690.678 155.14 686.095 Q158.218 681.488 164.028 681.488 Z" fill="#000000" fill-rule="evenodd" fill-opacity="1" /><path clip-path="url(#clip770)" d="M184.19 710.794 L189.075 710.794 L189.075 716.673 L184.19 716.673 L184.19 710.794 Z" fill="#000000" fill-rule="evenodd" fill-opacity="1" /><path clip-path="url(#clip770)" d="M200.07 712.738 L207.709 712.738 L207.709 686.372 L199.399 688.039 L199.399 683.78 L207.662 682.113 L212.338 682.113 L212.338 712.738 L219.977 712.738 L219.977 716.673 L200.07 716.673 L200.07 712.738 Z" fill="#000000" fill-rule="evenodd" fill-opacity="1" /><path clip-path="url(#clip770)" d="M164.399 378.588 Q160.788 378.588 158.959 382.153 Q157.153 385.695 157.153 392.824 Q157.153 399.931 158.959 403.495 Q160.788 407.037 164.399 407.037 Q168.033 407.037 169.839 403.495 Q171.667 399.931 171.667 392.824 Q171.667 385.695 169.839 382.153 Q168.033 378.588 164.399 378.588 M164.399 374.884 Q170.209 374.884 173.264 379.491 Q176.343 384.074 176.343 392.824 Q176.343 401.551 173.264 406.157 Q170.209 410.741 164.399 410.741 Q158.589 410.741 155.51 406.157 Q152.454 401.551 152.454 392.824 Q152.454 384.074 155.51 379.491 Q158.589 374.884 164.399 374.884 Z" fill="#000000" fill-rule="evenodd" fill-opacity="1" /><path clip-path="url(#clip770)" d="M184.561 404.19 L189.445 404.19 L189.445 410.069 L184.561 410.069 L184.561 404.19 Z" fill="#000000" fill-rule="evenodd" fill-opacity="1" /><path clip-path="url(#clip770)" d="M203.658 406.134 L219.977 406.134 L219.977 410.069 L198.033 410.069 L198.033 406.134 Q200.695 403.38 205.278 398.75 Q209.885 394.097 211.065 392.755 Q213.311 390.232 214.19 388.495 Q215.093 386.736 215.093 385.046 Q215.093 382.292 213.149 380.556 Q211.227 378.82 208.125 378.82 Q205.926 378.82 203.473 379.583 Q201.042 380.347 198.264 381.898 L198.264 377.176 Q201.088 376.042 203.542 375.463 Q205.996 374.884 208.033 374.884 Q213.403 374.884 216.598 377.57 Q219.792 380.255 219.792 384.745 Q219.792 386.875 218.982 388.796 Q218.195 390.695 216.088 393.287 Q215.51 393.958 212.408 397.176 Q209.306 400.37 203.658 406.134 Z" fill="#000000" fill-rule="evenodd" fill-opacity="1" /><path clip-path="url(#clip770)" d="M163.45 71.9844 Q159.839 71.9844 158.01 75.5492 Q156.204 79.0908 156.204 86.2204 Q156.204 93.3268 158.01 96.8916 Q159.839 100.433 163.45 100.433 Q167.084 100.433 168.889 96.8916 Q170.718 93.3268 170.718 86.2204 Q170.718 79.0908 168.889 75.5492 Q167.084 71.9844 163.45 71.9844 M163.45 68.2807 Q169.26 68.2807 172.315 72.8871 Q175.394 77.4704 175.394 86.2204 Q175.394 94.9472 172.315 99.5537 Q169.26 104.137 163.45 104.137 Q157.64 104.137 154.561 99.5537 Q151.505 94.9472 151.505 86.2204 Q151.505 77.4704 154.561 72.8871 Q157.64 68.2807 163.45 68.2807 Z" fill="#000000" fill-rule="evenodd" fill-opacity="1" /><path clip-path="url(#clip770)" d="M183.612 97.5861 L188.496 97.5861 L188.496 103.466 L183.612 103.466 L183.612 97.5861 Z" fill="#000000" fill-rule="evenodd" fill-opacity="1" /><path clip-path="url(#clip770)" d="M212.848 84.8315 Q216.204 85.5491 218.079 87.8176 Q219.977 90.0861 219.977 93.4194 Q219.977 98.5351 216.459 101.336 Q212.94 104.137 206.459 104.137 Q204.283 104.137 201.968 103.697 Q199.676 103.28 197.223 102.424 L197.223 97.9101 Q199.167 99.0444 201.482 99.6231 Q203.797 100.202 206.32 100.202 Q210.718 100.202 213.01 98.4657 Q215.324 96.7296 215.324 93.4194 Q215.324 90.3639 213.172 88.6509 Q211.042 86.9148 207.223 86.9148 L203.195 86.9148 L203.195 83.0723 L207.408 83.0723 Q210.857 83.0723 212.686 81.7065 Q214.514 80.3176 214.514 77.7251 Q214.514 75.063 212.616 73.651 Q210.741 72.2158 207.223 72.2158 Q205.301 72.2158 203.102 72.6325 Q200.903 73.0492 198.264 73.9288 L198.264 69.7621 Q200.926 69.0214 203.241 68.651 Q205.579 68.2807 207.639 68.2807 Q212.963 68.2807 216.065 70.7112 Q219.167 73.1186 219.167 77.239 Q219.167 80.1093 217.523 82.1 Q215.88 84.0676 212.848 84.8315 Z" fill="#000000" fill-rule="evenodd" fill-opacity="1" /><path clip-path="url(#clip770)" d="M67.3143 733.525 Q73.68 736.008 75.6216 738.363 Q77.5631 740.718 77.5631 744.665 L77.5631 749.344 L72.6615 749.344 L72.6615 745.906 Q72.6615 743.487 71.5157 742.151 Q70.3699 740.814 66.1048 739.191 L63.4312 738.14 L28.3562 752.559 L28.3562 746.352 L56.238 735.212 L28.3562 724.072 L28.3562 717.865 L67.3143 733.525 Z" fill="#000000" fill-rule="evenodd" fill-opacity="1" /><polyline clip-path="url(#clip772)" style="stroke:#009af9; stroke-linecap:round; stroke-linejoin:round; stroke-width:4; stroke-opacity:1; fill:none" points="2220.84,86.1857 2241.32,270.133 2257.56,428.971 2270.14,566.085 2279.55,684.407 2286.23,786.472 2290.56,874.472 2292.86,950.307 2293.41,1015.62 2292.46,1071.82 2290.21,1120.15 2286.85,1161.67 2282.53,1197.3 2277.4,1227.83 2271.56,1253.96 2265.12,1276.27 2258.17,1295.29 2250.79,1311.45 2243.04,1325.16 2234.97,1336.73 2226.64,1346.46 2218.09,1354.59 2209.35,1361.35 2200.46,1366.93 2191.44,1371.47 2182.33,1375.13 2173.13,1378.02 2163.87,1380.24 2154.56,1381.9 2145.22,1383.07 2135.85,1383.81 2126.47,1384.18 2117.09,1384.24 2107.7,1384.03 2098.33,1383.58 2088.97,1382.93 2079.62,1382.11 2070.3,1381.14 2061.01,1380.05 2051.74,1378.85 2042.5,1377.55 2033.3,1376.18 2024.13,1374.74 2015,1373.24 2005.91,1371.7 1996.85,1370.12 1987.84,1368.5 1978.86,1366.86 1969.93,1365.19 1961.03,1363.51 1952.18,1361.81 1943.38,1360.1 1934.61,1358.38 1925.89,1356.66 1917.21,1354.93 1908.57,1353.2 1899.98,1351.47 1891.43,1349.74 1882.92,1348.01 1874.45,1346.28 1866.03,1344.56 1857.65,1342.84 1849.31,1341.13 1841.02,1339.42 1832.76,1337.72 1824.55,1336.02 1816.39,1334.33 1808.26,1332.65 1800.17,1330.97 1792.13,1329.3 1784.13,1327.64 1776.17,1325.99 1768.25,1324.34 1760.37,1322.7 1752.53,1321.07 1744.73,1319.45 1736.97,1317.83 1729.26,1316.22 1721.58,1314.62 1713.94,1313.03 1706.34,1311.45 1698.78,1309.87 1691.26,1308.3 1683.78,1306.74 1676.33,1305.19 1668.93,1303.64 1661.56,1302.11 1654.23,1300.58 1646.94,1299.06 1639.69,1297.54 1632.47,1296.04 1625.3,1294.54 1618.15,1293.05 1611.05,1291.57 1603.98,1290.09 1596.95,1288.63 1589.95,1287.17 1583,1285.72 1576.07,1284.27 1569.19,1282.83 1562.33,1281.4 1555.52,1279.98 1548.74,1278.57 1541.99,1277.16 1535.28,1275.76 1528.6,1274.36 1521.96,1272.98 1515.35,1271.6 1508.78,1270.23 1502.24,1268.86 1495.73,1267.5 1489.26,1266.15 1482.82,1264.81 1476.42,1263.47 1470.04,1262.14 1463.7,1260.82 1457.4,1259.5 1451.12,1258.19 1444.88,1256.89 1438.67,1255.6 1432.49,1254.31 1426.35,1253.02 1420.23,1251.75 1414.15,1250.48 1408.1,1249.22 1402.08,1247.96 1396.09,1246.71 1390.13,1245.47 1384.21,1244.23 1378.31,1243 1372.45,1241.77 1366.61,1240.56 1360.81,1239.34 1355.03,1238.14 1349.28,1236.94 1343.57,1235.75 1337.88,1234.56 1332.23,1233.38 1326.6,1232.21 1321,1231.04 1315.43,1229.87 1309.89,1228.72 1304.38,1227.57 1298.89,1226.42 1293.44,1225.28 1288.01,1224.15 1282.61,1223.02 1277.24,1221.9 1271.89,1220.79 1266.58,1219.68 1261.29,1218.58 1256.03,1217.48 1250.79,1216.38 1245.59,1215.3 1240.41,1214.22 1235.25,1213.14 1230.13,1212.07 1225.03,1211.01 1219.95,1209.95 1214.9,1208.89 1209.88,1207.85 1204.89,1206.8 1199.92,1205.77 1194.97,1204.73 1190.05,1203.71 1185.16,1202.69 1180.29,1201.67 1175.45,1200.66 1170.63,1199.65 1165.84,1198.65 1161.07,1197.66 1156.33,1196.67 1151.61,1195.68 1146.91,1194.7 1142.24,1193.73 1137.6,1192.76 1132.97,1191.8 1128.37,1190.84 1123.8,1189.88 1119.25,1188.93 1114.72,1187.99 1110.22,1187.05 1105.74,1186.11 1101.28,1185.18 1096.84,1184.25 1092.43,1183.33 1088.04,1182.42 1083.68,1181.51 1079.33,1180.6 1075.01,1179.7 1070.71,1178.8 1066.43,1177.91 1062.18,1177.02 1057.95,1176.14 1053.74,1175.26 1049.55,1174.38 1045.38,1173.51 1041.23,1172.65 1037.11,1171.79 1033,1170.93 1028.92,1170.08 1024.86,1169.23 1020.82,1168.39 1016.8,1167.55 1012.8,1166.72 1008.83,1165.89 1004.87,1165.06 1000.93,1164.24 997.015,1163.42 993.119,1162.61 989.243,1161.8 985.387,1160.99 981.551,1160.19 977.734,1159.4 973.938,1158.6 970.161,1157.82 966.403,1157.03 962.665,1156.25 958.946,1155.48 955.247,1154.7 951.566,1153.94 947.905,1153.17 944.262,1152.41 940.638,1151.65 937.033,1150.9 933.447,1150.15 929.879,1149.41 926.329,1148.67 922.798,1147.93 919.285,1147.2 915.791,1146.47 912.314,1145.74 908.855,1145.02 905.414,1144.3 901.991,1143.59 898.586,1142.88 895.198,1142.17 891.828,1141.47 888.475,1140.77 885.139,1140.07 881.821,1139.38 878.52,1138.69 875.235,1138 871.968,1137.32 868.718,1136.64 865.484,1135.97 862.268,1135.3 859.067,1134.63 855.884,1133.97 852.716,1133.3 849.566,1132.65 846.431,1131.99 843.313,1131.34 840.21,1130.69 837.124,1130.05 834.054,1129.41 830.999,1128.77 827.96,1128.14 824.937,1127.51 821.93,1126.88 818.938,1126.26 815.962,1125.63 813.001,1125.02 810.055,1124.4 807.124,1123.79 804.209,1123.18 801.309,1122.58 798.423,1121.97 795.553,1121.37 792.697,1120.78 789.856,1120.19 787.03,1119.6 784.219,1119.01 781.422,1118.43 778.639,1117.84 775.871,1117.27 773.117,1116.69 770.377,1116.12 767.652,1115.55 764.94,1114.99 762.243,1114.42 759.559,1113.86 756.889,1113.31 754.233,1112.75 751.591,1112.2 748.963,1111.65 746.348,1111.11 743.746,1110.56 741.158,1110.02 738.584,1109.49 736.022,1108.95 733.474,1108.42 730.939,1107.89 728.417,1107.36 725.909,1106.84 723.413,1106.32 720.93,1105.8 718.46,1105.29 716.002,1104.77 713.558,1104.26 711.125,1103.75 708.706,1103.25 706.299,1102.75 703.904,1102.25 701.522,1101.75 699.152,1101.26 696.795,1100.76 694.449,1100.27 692.116,1099.79 689.794,1099.3 687.485,1098.82 685.188,1098.34 682.902,1097.86 680.628,1097.39 678.366,1096.92 676.116,1096.45 673.877,1095.98 671.65,1095.52 669.435,1095.05 667.231,1094.59 665.038,1094.14 662.856,1093.68 660.686,1093.23 658.527,1092.78 656.379,1092.33 654.243,1091.88 652.117,1091.44 650.002,1091 647.899,1090.56 645.806,1090.12 643.724,1089.69 641.652,1089.26 639.592,1088.83 637.542,1088.4 635.502,1087.97 633.473,1087.55 631.455,1087.13 629.447,1086.71 627.449,1086.29 625.462,1085.88 623.485,1085.46 621.518,1085.05 619.561,1084.64 617.615,1084.24 615.678,1083.83 613.752,1083.43 611.835,1083.03 609.929,1082.63 608.032,1082.24 606.145,1081.84 604.268,1081.45 602.4,1081.06 600.542,1080.68 598.694,1080.29 596.855,1079.91 595.026,1079.52 593.206,1079.14 591.396,1078.77 589.595,1078.39 587.803,1078.02 586.02,1077.64 584.247,1077.27 582.483,1076.91 580.728,1076.54 578.982,1076.18 577.245,1075.81 575.517,1075.45 573.798,1075.09 572.088,1074.74 570.387,1074.38 568.694,1074.03 567.01,1073.68 565.335,1073.33 563.669,1072.98 562.011,1072.63 560.362,1072.29 558.721,1071.95 557.089,1071.61 555.465,1071.27 553.849,1070.93 552.242,1070.6 550.643,1070.26 549.053,1069.93 547.471,1069.6 545.896,1069.27 544.33,1068.94 542.772,1068.62 541.223,1068.3 539.681,1067.97 538.147,1067.65 536.621,1067.33 535.103,1067.02 533.592,1066.7 532.09,1066.39 530.595,1066.08 529.108,1065.77 527.629,1065.46 526.157,1065.15 524.693,1064.85 523.237,1064.54 521.788,1064.24 520.346,1063.94 518.912,1063.64 517.485,1063.34 516.066,1063.05 514.654,1062.75 513.25,1062.46 511.852,1062.17 510.462,1061.88 509.079,1061.59 507.703,1061.3 506.334,1061.01 504.973,1060.73 503.618,1060.45 502.27,1060.17 500.93,1059.89 499.596,1059.61 498.269,1059.33 496.949,1059.06 495.636,1058.78 494.329,1058.51 493.03,1058.24 491.737,1057.97 490.451,1057.7 489.171,1057.43 487.898,1057.17 486.631,1056.9 485.372,1056.64 484.118,1056.38 482.871,1056.12 481.631,1055.86 480.397,1055.6 479.169,1055.34 477.948,1055.09 476.733,1054.84 475.524,1054.58 474.321,1054.33 473.125,1054.08 471.935,1053.83 470.751,1053.59 469.573,1053.34 468.401,1053.1 467.235,1052.85 466.076,1052.61 464.922,1052.37 463.774,1052.13 462.632,1051.89 461.496,1051.66 460.366,1051.42 459.242,1051.19 458.124,1050.95 457.011,1050.72 455.904,1050.49 454.803,1050.26 453.707,1050.03 452.618,1049.8 451.533,1049.58 450.455,1049.35 449.382,1049.13 448.314,1048.91 447.252,1048.68 446.196,1048.46 445.145,1048.24 444.099,1048.03 443.059,1047.81 442.024,1047.59 440.995,1047.38 439.97,1047.16 438.952,1046.95 437.938,1046.74 436.93,1046.53 435.926,1046.32 434.928,1046.11 433.936,1045.9 432.948,1045.7 431.965,1045.49 430.988,1045.29 430.015,1045.09 429.048,1044.88 428.085,1044.68 427.128,1044.48 426.175,1044.28 425.228,1044.09 424.285,1043.89 423.347,1043.69 422.414,1043.5 421.486,1043.31 420.562,1043.11 419.644,1042.92 418.73,1042.73 417.821,1042.54 416.916,1042.35 416.017,1042.16 415.121,1041.98 414.231,1041.79 413.345,1041.61 412.464,1041.42 411.587,1041.24 410.715,1041.06 409.847,1040.88 408.983,1040.7 408.125,1040.52 407.27,1040.34 406.42,1040.16 405.575,1039.99 404.734,1039.81 403.897,1039.63 403.064,1039.46 402.236,1039.29 401.412,1039.12 400.592,1038.95 399.777,1038.78 398.965,1038.61 398.158,1038.44 397.355,1038.27 396.557,1038.1 395.762,1037.94 394.972,1037.77 394.185,1037.61 393.403,1037.44 392.624,1037.28 391.85,1037.12 391.08,1036.96 390.313,1036.8 389.551,1036.64 388.793,1036.48 388.038,1036.33 387.287,1036.17 386.541,1036.01 385.798,1035.86 385.059,1035.7 384.323,1035.55 383.592,1035.4 382.864,1035.25 382.14,1035.09 381.42,1034.94 380.704,1034.79 379.991,1034.65 379.282,1034.5 378.577,1034.35 377.875,1034.2 377.177,1034.06 376.482,1033.91 375.791,1033.77 375.104,1033.63 374.42,1033.48 373.74,1033.34 373.063,1033.2 372.39,1033.06 371.72,1032.92 371.054,1032.78 370.391,1032.64 369.731,1032.5 369.075,1032.37 368.423,1032.23 367.773,1032.1 367.127,1031.96 366.485,1031.83 365.845,1031.69 365.209,1031.56 364.577,1031.43 363.947,1031.3 363.321,1031.17 362.698,1031.04 362.078,1030.91 361.462,1030.78 360.848,1030.65 360.238,1030.52 359.631,1030.4 359.027,1030.27 358.427,1030.15 357.829,1030.02 357.234,1029.9 356.643,1029.77 356.054,1029.65 355.469,1029.53 354.887,1029.41 354.307,1029.29 353.731,1029.17 353.157,1029.05 352.587,1028.93 352.019,1028.81 351.455,1028.69 350.893,1028.57 350.334,1028.46 349.778,1028.34 349.225,1028.22 348.675,1028.11 348.128,1028 347.584,1027.88 347.042,1027.77 346.503,1027.66 345.967,1027.54 345.434,1027.43 344.903,1027.32 344.375,1027.21 343.85,1027.1 343.328,1026.99 342.808,1026.89 342.291,1026.78 341.777,1026.67 341.265,1026.56 340.756,1026.46 340.25,1026.35 339.746,1026.25 339.245,1026.14 338.746,1026.04 338.25,1025.93 337.757,1025.83 337.266,1025.73 336.777,1025.63 336.292,1025.53 335.808,1025.42 335.327,1025.32 334.849,1025.22 334.373,1025.13 333.9,1025.03 333.429,1024.93 332.96,1024.83 332.494,1024.73 332.03,1024.64 331.569,1024.54 331.11,1024.44 330.653,1024.35 330.199,1024.25 329.747,1024.16 329.298,1024.07 328.851,1023.97 328.406,1023.88 327.963,1023.79 327.523,1023.7 327.085,1023.6 326.649,1023.51 326.215,1023.42 325.784,1023.33 325.355,1023.24 324.928,1023.15 324.504,1023.07 324.081,1022.98 323.661,1022.89 323.243,1022.8 322.827,1022.72 322.413,1022.63 322.001,1022.54 321.592,1022.46 321.185,1022.37 320.779,1022.29 320.376,1022.2 319.975,1022.12 319.576,1022.04 319.179,1021.95 318.784,1021.87 318.391,1021.79 318,1021.71 317.611,1021.63 317.224,1021.55 316.84,1021.47 316.457,1021.39 316.076,1021.31 315.697,1021.23 315.32,1021.15 "/>
<path clip-path="url(#clip770)" d="M325.87 196.789 L587.978 196.789 L587.978 93.1086 L325.87 93.1086  Z" fill="#ffffff" fill-rule="evenodd" fill-opacity="1"/>
<polyline clip-path="url(#clip770)" style="stroke:#000000; stroke-linecap:round; stroke-linejoin:round; stroke-width:4; stroke-opacity:1; fill:none" points="325.87,196.789 587.978,196.789 587.978,93.1086 325.87,93.1086 325.87,196.789 "/>
<polyline clip-path="url(#clip770)" style="stroke:#009af9; stroke-linecap:round; stroke-linejoin:round; stroke-width:4; stroke-opacity:1; fill:none" points="349.167,144.949 488.953,144.949 "/>
<path clip-path="url(#clip770)" d="M526.093 164.636 Q524.287 169.266 522.574 170.678 Q520.861 172.09 517.991 172.09 L514.588 172.09 L514.588 168.525 L517.088 168.525 Q518.847 168.525 519.82 167.692 Q520.792 166.858 521.972 163.756 L522.736 161.812 L512.25 136.303 L516.764 136.303 L524.866 156.581 L532.968 136.303 L537.481 136.303 L526.093 164.636 Z" fill="#000000" fill-rule="evenodd" fill-opacity="1" /><path clip-path="url(#clip770)" d="M544.773 158.293 L552.412 158.293 L552.412 131.928 L544.102 133.595 L544.102 129.335 L552.366 127.669 L557.042 127.669 L557.042 158.293 L564.68 158.293 L564.68 162.229 L544.773 162.229 L544.773 158.293 Z" fill="#000000" fill-rule="evenodd" fill-opacity="1" /></svg>
