<?xml version="1.0" encoding="utf-8"?>
<svg xmlns="http://www.w3.org/2000/svg" xmlns:xlink="http://www.w3.org/1999/xlink" width="600" height="400" viewBox="0 0 2400 1600">
<defs>
  <clipPath id="clip860">
    <rect x="0" y="0" width="2400" height="1600"/>
  </clipPath>
</defs>
<path clip-path="url(#clip860)" d="M0 1600 L2400 1600 L2400 0 L0 0  Z" fill="#ffffff" fill-rule="evenodd" fill-opacity="1"/>
<defs>
  <clipPath id="clip861">
    <rect x="480" y="0" width="1681" height="1600"/>
  </clipPath>
</defs>
<path clip-path="url(#clip860)" d="M277.431 1486.45 L2352.76 1486.45 L2352.76 47.2441 L277.431 47.2441  Z" fill="#ffffff" fill-rule="evenodd" fill-opacity="1"/>
<defs>
  <clipPath id="clip862">
    <rect x="277" y="47" width="2076" height="1440"/>
  </clipPath>
</defs>
<polyline clip-path="url(#clip862)" style="stroke:#000000; stroke-linecap:round; stroke-linejoin:round; stroke-width:2; stroke-opacity:0.1; fill:none" points="336.167,1486.45 336.167,47.2441 "/>
<polyline clip-path="url(#clip862)" style="stroke:#000000; stroke-linecap:round; stroke-linejoin:round; stroke-width:2; stroke-opacity:0.1; fill:none" points="727.737,1486.45 727.737,47.2441 "/>
<polyline clip-path="url(#clip862)" style="stroke:#000000; stroke-linecap:round; stroke-linejoin:round; stroke-width:2; stroke-opacity:0.1; fill:none" points="1119.31,1486.45 1119.31,47.2441 "/>
<polyline clip-path="url(#clip862)" style="stroke:#000000; stroke-linecap:round; stroke-linejoin:round; stroke-width:2; stroke-opacity:0.1; fill:none" points="1510.88,1486.45 1510.88,47.2441 "/>
<polyline clip-path="url(#clip862)" style="stroke:#000000; stroke-linecap:round; stroke-linejoin:round; stroke-width:2; stroke-opacity:0.1; fill:none" points="1902.45,1486.45 1902.45,47.2441 "/>
<polyline clip-path="url(#clip862)" style="stroke:#000000; stroke-linecap:round; stroke-linejoin:round; stroke-width:2; stroke-opacity:0.1; fill:none" points="2294.02,1486.45 2294.02,47.2441 "/>
<polyline clip-path="url(#clip860)" style="stroke:#000000; stroke-linecap:round; stroke-linejoin:round; stroke-width:4; stroke-opacity:1; fill:none" points="277.431,1486.45 2352.76,1486.45 "/>
<polyline clip-path="url(#clip860)" style="stroke:#000000; stroke-linecap:round; stroke-linejoin:round; stroke-width:4; stroke-opacity:1; fill:none" points="336.167,1486.45 336.167,1467.55 "/>
<polyline clip-path="url(#clip860)" style="stroke:#000000; stroke-linecap:round; stroke-linejoin:round; stroke-width:4; stroke-opacity:1; fill:none" points="727.737,1486.45 727.737,1467.55 "/>
<polyline clip-path="url(#clip860)" style="stroke:#000000; stroke-linecap:round; stroke-linejoin:round; stroke-width:4; stroke-opacity:1; fill:none" points="1119.31,1486.45 1119.31,1467.55 "/>
<polyline clip-path="url(#clip860)" style="stroke:#000000; stroke-linecap:round; stroke-linejoin:round; stroke-width:4; stroke-opacity:1; fill:none" points="1510.88,1486.45 1510.88,1467.55 "/>
<polyline clip-path="url(#clip860)" style="stroke:#000000; stroke-linecap:round; stroke-linejoin:round; stroke-width:4; stroke-opacity:1; fill:none" points="1902.45,1486.45 1902.45,1467.55 "/>
<polyline clip-path="url(#clip860)" style="stroke:#000000; stroke-linecap:round; stroke-linejoin:round; stroke-width:4; stroke-opacity:1; fill:none" points="2294.02,1486.45 2294.02,1467.55 "/>
<path clip-path="url(#clip860)" d="M336.167 1517.37 Q332.555 1517.37 330.727 1520.93 Q328.921 1524.47 328.921 1531.6 Q328.921 1538.71 330.727 1542.27 Q332.555 1545.82 336.167 1545.82 Q339.801 1545.82 341.606 1542.27 Q343.435 1538.71 343.435 1531.6 Q343.435 1524.47 341.606 1520.93 Q339.801 1517.37 336.167 1517.37 M336.167 1513.66 Q341.977 1513.66 345.032 1518.27 Q348.111 1522.85 348.111 1531.6 Q348.111 1540.33 345.032 1544.94 Q341.977 1549.52 336.167 1549.52 Q330.356 1549.52 327.278 1544.94 Q324.222 1540.33 324.222 1531.6 Q324.222 1522.85 327.278 1518.27 Q330.356 1513.66 336.167 1513.66 Z" fill="#000000" fill-rule="evenodd" fill-opacity="1" /><path clip-path="url(#clip860)" d="M718.119 1544.91 L725.758 1544.91 L725.758 1518.55 L717.448 1520.21 L717.448 1515.95 L725.712 1514.29 L730.388 1514.29 L730.388 1544.91 L738.027 1544.91 L738.027 1548.85 L718.119 1548.85 L718.119 1544.91 Z" fill="#000000" fill-rule="evenodd" fill-opacity="1" /><path clip-path="url(#clip860)" d="M1113.96 1544.91 L1130.28 1544.91 L1130.28 1548.85 L1108.34 1548.85 L1108.34 1544.91 Q1111 1542.16 1115.58 1537.53 Q1120.19 1532.88 1121.37 1531.53 Q1123.61 1529.01 1124.49 1527.27 Q1125.4 1525.51 1125.4 1523.82 Q1125.4 1521.07 1123.45 1519.33 Q1121.53 1517.6 1118.43 1517.6 Q1116.23 1517.6 1113.78 1518.36 Q1111.35 1519.13 1108.57 1520.68 L1108.57 1515.95 Q1111.39 1514.82 1113.85 1514.24 Q1116.3 1513.66 1118.34 1513.66 Q1123.71 1513.66 1126.9 1516.35 Q1130.1 1519.03 1130.1 1523.52 Q1130.1 1525.65 1129.28 1527.57 Q1128.5 1529.47 1126.39 1532.07 Q1125.81 1532.74 1122.71 1535.95 Q1119.61 1539.15 1113.96 1544.91 Z" fill="#000000" fill-rule="evenodd" fill-opacity="1" /><path clip-path="url(#clip860)" d="M1515.13 1530.21 Q1518.48 1530.93 1520.36 1533.2 Q1522.26 1535.47 1522.26 1538.8 Q1522.26 1543.92 1518.74 1546.72 Q1515.22 1549.52 1508.74 1549.52 Q1506.56 1549.52 1504.25 1549.08 Q1501.96 1548.66 1499.5 1547.81 L1499.5 1543.29 Q1501.45 1544.43 1503.76 1545.01 Q1506.08 1545.58 1508.6 1545.58 Q1513 1545.58 1515.29 1543.85 Q1517.6 1542.11 1517.6 1538.8 Q1517.6 1535.75 1515.45 1534.03 Q1513.32 1532.3 1509.5 1532.3 L1505.47 1532.3 L1505.47 1528.45 L1509.69 1528.45 Q1513.14 1528.45 1514.96 1527.09 Q1516.79 1525.7 1516.79 1523.11 Q1516.79 1520.45 1514.89 1519.03 Q1513.02 1517.6 1509.5 1517.6 Q1507.58 1517.6 1505.38 1518.01 Q1503.18 1518.43 1500.54 1519.31 L1500.54 1515.14 Q1503.21 1514.4 1505.52 1514.03 Q1507.86 1513.66 1509.92 1513.66 Q1515.24 1513.66 1518.34 1516.09 Q1521.45 1518.5 1521.45 1522.62 Q1521.45 1525.49 1519.8 1527.48 Q1518.16 1529.45 1515.13 1530.21 Z" fill="#000000" fill-rule="evenodd" fill-opacity="1" /><path clip-path="url(#clip860)" d="M1905.46 1518.36 L1893.65 1536.81 L1905.46 1536.81 L1905.46 1518.36 M1904.23 1514.29 L1910.11 1514.29 L1910.11 1536.81 L1915.04 1536.81 L1915.04 1540.7 L1910.11 1540.7 L1910.11 1548.85 L1905.46 1548.85 L1905.46 1540.7 L1889.86 1540.7 L1889.86 1536.19 L1904.23 1514.29 Z" fill="#000000" fill-rule="evenodd" fill-opacity="1" /><path clip-path="url(#clip860)" d="M2284.3 1514.29 L2302.65 1514.29 L2302.65 1518.22 L2288.58 1518.22 L2288.58 1526.7 Q2289.6 1526.35 2290.62 1526.19 Q2291.64 1526 2292.65 1526 Q2298.44 1526 2301.82 1529.17 Q2305.2 1532.34 2305.2 1537.76 Q2305.2 1543.34 2301.73 1546.44 Q2298.26 1549.52 2291.94 1549.52 Q2289.76 1549.52 2287.49 1549.15 Q2285.25 1548.78 2282.84 1548.04 L2282.84 1543.34 Q2284.92 1544.47 2287.15 1545.03 Q2289.37 1545.58 2291.84 1545.58 Q2295.85 1545.58 2298.19 1543.48 Q2300.52 1541.37 2300.52 1537.76 Q2300.52 1534.15 2298.19 1532.04 Q2295.85 1529.94 2291.84 1529.94 Q2289.97 1529.94 2288.09 1530.35 Q2286.24 1530.77 2284.3 1531.65 L2284.3 1514.29 Z" fill="#000000" fill-rule="evenodd" fill-opacity="1" /><polyline clip-path="url(#clip862)" style="stroke:#000000; stroke-linecap:round; stroke-linejoin:round; stroke-width:2; stroke-opacity:0.1; fill:none" points="277.431,1445.72 2352.76,1445.72 "/>
<polyline clip-path="url(#clip862)" style="stroke:#000000; stroke-linecap:round; stroke-linejoin:round; stroke-width:2; stroke-opacity:0.1; fill:none" points="277.431,1194.75 2352.76,1194.75 "/>
<polyline clip-path="url(#clip862)" style="stroke:#000000; stroke-linecap:round; stroke-linejoin:round; stroke-width:2; stroke-opacity:0.1; fill:none" points="277.431,943.779 2352.76,943.779 "/>
<polyline clip-path="url(#clip862)" style="stroke:#000000; stroke-linecap:round; stroke-linejoin:round; stroke-width:2; stroke-opacity:0.1; fill:none" points="277.431,692.81 2352.76,692.81 "/>
<polyline clip-path="url(#clip862)" style="stroke:#000000; stroke-linecap:round; stroke-linejoin:round; stroke-width:2; stroke-opacity:0.1; fill:none" points="277.431,441.842 2352.76,441.842 "/>
<polyline clip-path="url(#clip862)" style="stroke:#000000; stroke-linecap:round; stroke-linejoin:round; stroke-width:2; stroke-opacity:0.1; fill:none" points="277.431,190.873 2352.76,190.873 "/>
<polyline clip-path="url(#clip860)" style="stroke:#000000; stroke-linecap:round; stroke-linejoin:round; stroke-width:4; stroke-opacity:1; fill:none" points="277.431,1486.45 277.431,47.2441 "/>
<polyline clip-path="url(#clip860)" style="stroke:#000000; stroke-linecap:round; stroke-linejoin:round; stroke-width:4; stroke-opacity:1; fill:none" points="277.431,1445.72 296.329,1445.72 "/>
<polyline clip-path="url(#clip860)" style="stroke:#000000; stroke-linecap:round; stroke-linejoin:round; stroke-width:4; stroke-opacity:1; fill:none" points="277.431,1194.75 296.329,1194.75 "/>
<polyline clip-path="url(#clip860)" style="stroke:#000000; stroke-linecap:round; stroke-linejoin:round; stroke-width:4; stroke-opacity:1; fill:none" points="277.431,943.779 296.329,943.779 "/>
<polyline clip-path="url(#clip860)" style="stroke:#000000; stroke-linecap:round; stroke-linejoin:round; stroke-width:4; stroke-opacity:1; fill:none" points="277.431,692.81 296.329,692.81 "/>
<polyline clip-path="url(#clip860)" style="stroke:#000000; stroke-linecap:round; stroke-linejoin:round; stroke-width:4; stroke-opacity:1; fill:none" points="277.431,441.842 296.329,441.842 "/>
<polyline clip-path="url(#clip860)" style="stroke:#000000; stroke-linecap:round; stroke-linejoin:round; stroke-width:4; stroke-opacity:1; fill:none" points="277.431,190.873 296.329,190.873 "/>
<path clip-path="url(#clip860)" d="M229.487 1431.51 Q225.875 1431.51 224.047 1435.08 Q222.241 1438.62 222.241 1445.75 Q222.241 1452.86 224.047 1456.42 Q225.875 1459.96 229.487 1459.96 Q233.121 1459.96 234.926 1456.42 Q236.755 1452.86 236.755 1445.75 Q236.755 1438.62 234.926 1435.08 Q233.121 1431.51 229.487 1431.51 M229.487 1427.81 Q235.297 1427.81 238.352 1432.42 Q241.431 1437 241.431 1445.75 Q241.431 1454.48 238.352 1459.08 Q235.297 1463.67 229.487 1463.67 Q223.676 1463.67 220.598 1459.08 Q217.542 1454.48 217.542 1445.75 Q217.542 1437 220.598 1432.42 Q223.676 1427.81 229.487 1427.81 Z" fill="#000000" fill-rule="evenodd" fill-opacity="1" /><path clip-path="url(#clip860)" d="M54.5569 1214.54 L62.1958 1214.54 L62.1958 1188.17 L53.8856 1189.84 L53.8856 1185.58 L62.1495 1183.91 L66.8254 1183.91 L66.8254 1214.54 L74.4642 1214.54 L74.4642 1218.47 L54.5569 1218.47 L54.5569 1214.54 Z" fill="#000000" fill-rule="evenodd" fill-opacity="1" /><path clip-path="url(#clip860)" d="M83.9086 1212.6 L88.7928 1212.6 L88.7928 1218.47 L83.9086 1218.47 L83.9086 1212.6 Z" fill="#000000" fill-rule="evenodd" fill-opacity="1" /><path clip-path="url(#clip860)" d="M108.978 1186.99 Q105.367 1186.99 103.538 1190.56 Q101.733 1194.1 101.733 1201.23 Q101.733 1208.34 103.538 1211.9 Q105.367 1215.44 108.978 1215.44 Q112.612 1215.44 114.418 1211.9 Q116.246 1208.34 116.246 1201.23 Q116.246 1194.1 114.418 1190.56 Q112.612 1186.99 108.978 1186.99 M108.978 1183.29 Q114.788 1183.29 117.844 1187.9 Q120.922 1192.48 120.922 1201.23 Q120.922 1209.96 117.844 1214.56 Q114.788 1219.15 108.978 1219.15 Q103.168 1219.15 100.089 1214.56 Q97.0335 1209.96 97.0335 1201.23 Q97.0335 1192.48 100.089 1187.9 Q103.168 1183.29 108.978 1183.29 Z" fill="#000000" fill-rule="evenodd" fill-opacity="1" /><path clip-path="url(#clip860)" d="M157.311 1193.01 L146.732 1203.64 L157.311 1214.22 L154.556 1217.02 L143.931 1206.39 L133.306 1217.02 L130.575 1214.22 L141.131 1203.64 L130.575 1193.01 L133.306 1190.21 L143.931 1200.84 L154.556 1190.21 L157.311 1193.01 Z" fill="#000000" fill-rule="evenodd" fill-opacity="1" /><path clip-path="url(#clip860)" d="M169.672 1214.54 L177.311 1214.54 L177.311 1188.17 L169.001 1189.84 L169.001 1185.58 L177.265 1183.91 L181.94 1183.91 L181.94 1214.54 L189.579 1214.54 L189.579 1218.47 L169.672 1218.47 L169.672 1214.54 Z" fill="#000000" fill-rule="evenodd" fill-opacity="1" /><path clip-path="url(#clip860)" d="M209.024 1186.99 Q205.413 1186.99 203.584 1190.56 Q201.778 1194.1 201.778 1201.23 Q201.778 1208.34 203.584 1211.9 Q205.413 1215.44 209.024 1215.44 Q212.658 1215.44 214.463 1211.9 Q216.292 1208.34 216.292 1201.23 Q216.292 1194.1 214.463 1190.56 Q212.658 1186.99 209.024 1186.99 M209.024 1183.29 Q214.834 1183.29 217.889 1187.9 Q220.968 1192.48 220.968 1201.23 Q220.968 1209.96 217.889 1214.56 Q214.834 1219.15 209.024 1219.15 Q203.214 1219.15 200.135 1214.56 Q197.079 1209.96 197.079 1201.23 Q197.079 1192.48 200.135 1187.9 Q203.214 1183.29 209.024 1183.29 Z" fill="#000000" fill-rule="evenodd" fill-opacity="1" /><path clip-path="url(#clip860)" d="M233.645 1166.29 L224.053 1181.28 L233.645 1181.28 L233.645 1166.29 M232.648 1162.98 L237.425 1162.98 L237.425 1181.28 L241.431 1181.28 L241.431 1184.44 L237.425 1184.44 L237.425 1191.06 L233.645 1191.06 L233.645 1184.44 L220.968 1184.44 L220.968 1180.78 L232.648 1162.98 Z" fill="#000000" fill-rule="evenodd" fill-opacity="1" /><path clip-path="url(#clip860)" d="M57.7745 963.571 L74.0939 963.571 L74.0939 967.506 L52.1495 967.506 L52.1495 963.571 Q54.8115 960.817 59.3949 956.187 Q64.0013 951.534 65.1819 950.192 Q67.4272 947.668 68.3068 945.932 Q69.2096 944.173 69.2096 942.483 Q69.2096 939.729 67.2652 937.993 Q65.3439 936.257 62.2421 936.257 Q60.043 936.257 57.5893 937.02 Q55.1588 937.784 52.381 939.335 L52.381 934.613 Q55.2051 933.479 57.6588 932.9 Q60.1124 932.321 62.1495 932.321 Q67.5198 932.321 70.7142 935.007 Q73.9087 937.692 73.9087 942.182 Q73.9087 944.312 73.0985 946.233 Q72.3115 948.131 70.205 950.724 Q69.6263 951.395 66.5245 954.613 Q63.4226 957.807 57.7745 963.571 Z" fill="#000000" fill-rule="evenodd" fill-opacity="1" /><path clip-path="url(#clip860)" d="M83.9086 961.627 L88.7928 961.627 L88.7928 967.506 L83.9086 967.506 L83.9086 961.627 Z" fill="#000000" fill-rule="evenodd" fill-opacity="1" /><path clip-path="url(#clip860)" d="M108.978 936.025 Q105.367 936.025 103.538 939.59 Q101.733 943.131 101.733 950.261 Q101.733 957.368 103.538 960.932 Q105.367 964.474 108.978 964.474 Q112.612 964.474 114.418 960.932 Q116.246 957.368 116.246 950.261 Q116.246 943.131 114.418 939.59 Q112.612 936.025 108.978 936.025 M108.978 932.321 Q114.788 932.321 117.844 936.928 Q120.922 941.511 120.922 950.261 Q120.922 958.988 117.844 963.594 Q114.788 968.178 108.978 968.178 Q103.168 968.178 100.089 963.594 Q97.0335 958.988 97.0335 950.261 Q97.0335 941.511 100.089 936.928 Q103.168 932.321 108.978 932.321 Z" fill="#000000" fill-rule="evenodd" fill-opacity="1" /><path clip-path="url(#clip860)" d="M157.311 942.044 L146.732 952.668 L157.311 963.247 L154.556 966.048 L143.931 955.423 L133.306 966.048 L130.575 963.247 L141.131 952.668 L130.575 942.044 L133.306 939.243 L143.931 949.868 L154.556 939.243 L157.311 942.044 Z" fill="#000000" fill-rule="evenodd" fill-opacity="1" /><path clip-path="url(#clip860)" d="M169.672 963.571 L177.311 963.571 L177.311 937.206 L169.001 938.872 L169.001 934.613 L177.265 932.946 L181.94 932.946 L181.94 963.571 L189.579 963.571 L189.579 967.506 L169.672 967.506 L169.672 963.571 Z" fill="#000000" fill-rule="evenodd" fill-opacity="1" /><path clip-path="url(#clip860)" d="M209.024 936.025 Q205.413 936.025 203.584 939.59 Q201.778 943.131 201.778 950.261 Q201.778 957.368 203.584 960.932 Q205.413 964.474 209.024 964.474 Q212.658 964.474 214.463 960.932 Q216.292 957.368 216.292 950.261 Q216.292 943.131 214.463 939.59 Q212.658 936.025 209.024 936.025 M209.024 932.321 Q214.834 932.321 217.889 936.928 Q220.968 941.511 220.968 950.261 Q220.968 958.988 217.889 963.594 Q214.834 968.178 209.024 968.178 Q203.214 968.178 200.135 963.594 Q197.079 958.988 197.079 950.261 Q197.079 941.511 200.135 936.928 Q203.214 932.321 209.024 932.321 Z" fill="#000000" fill-rule="evenodd" fill-opacity="1" /><path clip-path="url(#clip860)" d="M233.645 915.326 L224.053 930.316 L233.645 930.316 L233.645 915.326 M232.648 912.016 L237.425 912.016 L237.425 930.316 L241.431 930.316 L241.431 933.476 L237.425 933.476 L237.425 940.096 L233.645 940.096 L233.645 933.476 L220.968 933.476 L220.968 929.808 L232.648 912.016 Z" fill="#000000" fill-rule="evenodd" fill-opacity="1" /><path clip-path="url(#clip860)" d="M67.9133 697.904 Q71.2698 698.621 73.1448 700.89 Q75.0429 703.158 75.0429 706.492 Q75.0429 711.607 71.5244 714.408 Q68.0059 717.209 61.5245 717.209 Q59.3486 717.209 57.0338 716.769 Q54.7421 716.353 52.2884 715.496 L52.2884 710.982 Q54.2328 712.117 56.5477 712.695 Q58.8625 713.274 61.3856 713.274 Q65.7837 713.274 68.0754 711.538 Q70.3902 709.802 70.3902 706.492 Q70.3902 703.436 68.2374 701.723 Q66.1078 699.987 62.2884 699.987 L58.2606 699.987 L58.2606 696.144 L62.4735 696.144 Q65.9226 696.144 67.7513 694.779 Q69.58 693.39 69.58 690.797 Q69.58 688.135 67.6819 686.723 Q65.8069 685.288 62.2884 685.288 Q60.3671 685.288 58.168 685.705 Q55.969 686.121 53.3301 687.001 L53.3301 682.834 Q55.9921 682.094 58.3069 681.723 Q60.6449 681.353 62.705 681.353 Q68.0291 681.353 71.1309 683.783 Q74.2327 686.191 74.2327 690.311 Q74.2327 693.182 72.5892 695.172 Q70.9457 697.14 67.9133 697.904 Z" fill="#000000" fill-rule="evenodd" fill-opacity="1" /><path clip-path="url(#clip860)" d="M83.9086 710.658 L88.7928 710.658 L88.7928 716.538 L83.9086 716.538 L83.9086 710.658 Z" fill="#000000" fill-rule="evenodd" fill-opacity="1" /><path clip-path="url(#clip860)" d="M108.978 685.057 Q105.367 685.057 103.538 688.621 Q101.733 692.163 101.733 699.293 Q101.733 706.399 103.538 709.964 Q105.367 713.505 108.978 713.505 Q112.612 713.505 114.418 709.964 Q116.246 706.399 116.246 699.293 Q116.246 692.163 114.418 688.621 Q112.612 685.057 108.978 685.057 M108.978 681.353 Q114.788 681.353 117.844 685.959 Q120.922 690.543 120.922 699.293 Q120.922 708.019 117.844 712.626 Q114.788 717.209 108.978 717.209 Q103.168 717.209 100.089 712.626 Q97.0335 708.019 97.0335 699.293 Q97.0335 690.543 100.089 685.959 Q103.168 681.353 108.978 681.353 Z" fill="#000000" fill-rule="evenodd" fill-opacity="1" /><path clip-path="url(#clip860)" d="M157.311 691.075 L146.732 701.7 L157.311 712.279 L154.556 715.08 L143.931 704.455 L133.306 715.08 L130.575 712.279 L141.131 701.7 L130.575 691.075 L133.306 688.274 L143.931 698.899 L154.556 688.274 L157.311 691.075 Z" fill="#000000" fill-rule="evenodd" fill-opacity="1" /><path clip-path="url(#clip860)" d="M169.672 712.603 L177.311 712.603 L177.311 686.237 L169.001 687.904 L169.001 683.645 L177.265 681.978 L181.94 681.978 L181.94 712.603 L189.579 712.603 L189.579 716.538 L169.672 716.538 L169.672 712.603 Z" fill="#000000" fill-rule="evenodd" fill-opacity="1" /><path clip-path="url(#clip860)" d="M209.024 685.057 Q205.413 685.057 203.584 688.621 Q201.778 692.163 201.778 699.293 Q201.778 706.399 203.584 709.964 Q205.413 713.505 209.024 713.505 Q212.658 713.505 214.463 709.964 Q216.292 706.399 216.292 699.293 Q216.292 692.163 214.463 688.621 Q212.658 685.057 209.024 685.057 M209.024 681.353 Q214.834 681.353 217.889 685.959 Q220.968 690.543 220.968 699.293 Q220.968 708.019 217.889 712.626 Q214.834 717.209 209.024 717.209 Q203.214 717.209 200.135 712.626 Q197.079 708.019 197.079 699.293 Q197.079 690.543 200.135 685.959 Q203.214 681.353 209.024 681.353 Z" fill="#000000" fill-rule="evenodd" fill-opacity="1" /><path clip-path="url(#clip860)" d="M233.645 664.358 L224.053 679.347 L233.645 679.347 L233.645 664.358 M232.648 661.047 L237.425 661.047 L237.425 679.347 L241.431 679.347 L241.431 682.507 L237.425 682.507 L237.425 689.127 L233.645 689.127 L233.645 682.507 L220.968 682.507 L220.968 678.84 L232.648 661.047 Z" fill="#000000" fill-rule="evenodd" fill-opacity="1" /><path clip-path="url(#clip860)" d="M66.5939 435.083 L54.7884 453.532 L66.5939 453.532 L66.5939 435.083 M65.367 431.009 L71.2466 431.009 L71.2466 453.532 L76.1772 453.532 L76.1772 457.421 L71.2466 457.421 L71.2466 465.569 L66.5939 465.569 L66.5939 457.421 L50.9921 457.421 L50.9921 452.907 L65.367 431.009 Z" fill="#000000" fill-rule="evenodd" fill-opacity="1" /><path clip-path="url(#clip860)" d="M83.9086 459.69 L88.7928 459.69 L88.7928 465.569 L83.9086 465.569 L83.9086 459.69 Z" fill="#000000" fill-rule="evenodd" fill-opacity="1" /><path clip-path="url(#clip860)" d="M108.978 434.088 Q105.367 434.088 103.538 437.653 Q101.733 441.195 101.733 448.324 Q101.733 455.431 103.538 458.995 Q105.367 462.537 108.978 462.537 Q112.612 462.537 114.418 458.995 Q116.246 455.431 116.246 448.324 Q116.246 441.195 114.418 437.653 Q112.612 434.088 108.978 434.088 M108.978 430.384 Q114.788 430.384 117.844 434.991 Q120.922 439.574 120.922 448.324 Q120.922 457.051 117.844 461.657 Q114.788 466.241 108.978 466.241 Q103.168 466.241 100.089 461.657 Q97.0335 457.051 97.0335 448.324 Q97.0335 439.574 100.089 434.991 Q103.168 430.384 108.978 430.384 Z" fill="#000000" fill-rule="evenodd" fill-opacity="1" /><path clip-path="url(#clip860)" d="M157.311 440.107 L146.732 450.732 L157.311 461.31 L154.556 464.111 L143.931 453.486 L133.306 464.111 L130.575 461.31 L141.131 450.732 L130.575 440.107 L133.306 437.306 L143.931 447.931 L154.556 437.306 L157.311 440.107 Z" fill="#000000" fill-rule="evenodd" fill-opacity="1" /><path clip-path="url(#clip860)" d="M169.672 461.634 L177.311 461.634 L177.311 435.269 L169.001 436.935 L169.001 432.676 L177.265 431.009 L181.94 431.009 L181.94 461.634 L189.579 461.634 L189.579 465.569 L169.672 465.569 L169.672 461.634 Z" fill="#000000" fill-rule="evenodd" fill-opacity="1" /><path clip-path="url(#clip860)" d="M209.024 434.088 Q205.413 434.088 203.584 437.653 Q201.778 441.195 201.778 448.324 Q201.778 455.431 203.584 458.995 Q205.413 462.537 209.024 462.537 Q212.658 462.537 214.463 458.995 Q216.292 455.431 216.292 448.324 Q216.292 441.195 214.463 437.653 Q212.658 434.088 209.024 434.088 M209.024 430.384 Q214.834 430.384 217.889 434.991 Q220.968 439.574 220.968 448.324 Q220.968 457.051 217.889 461.657 Q214.834 466.241 209.024 466.241 Q203.214 466.241 200.135 461.657 Q197.079 457.051 197.079 448.324 Q197.079 439.574 200.135 434.991 Q203.214 430.384 209.024 430.384 Z" fill="#000000" fill-rule="evenodd" fill-opacity="1" /><path clip-path="url(#clip860)" d="M233.645 413.389 L224.053 428.379 L233.645 428.379 L233.645 413.389 M232.648 410.079 L237.425 410.079 L237.425 428.379 L241.431 428.379 L241.431 431.539 L237.425 431.539 L237.425 438.159 L233.645 438.159 L233.645 431.539 L220.968 431.539 L220.968 427.871 L232.648 410.079 Z" fill="#000000" fill-rule="evenodd" fill-opacity="1" /><path clip-path="url(#clip860)" d="M53.793 180.041 L72.1494 180.041 L72.1494 183.976 L58.0754 183.976 L58.0754 192.448 Q59.0939 192.101 60.1124 191.939 Q61.131 191.754 62.1495 191.754 Q67.9365 191.754 71.3161 194.925 Q74.6957 198.096 74.6957 203.513 Q74.6957 209.092 71.2235 212.194 Q67.7513 215.272 61.4319 215.272 Q59.256 215.272 56.9875 214.902 Q54.7421 214.532 52.3347 213.791 L52.3347 209.092 Q54.418 210.226 56.6402 210.782 Q58.8625 211.337 61.3393 211.337 Q65.3439 211.337 67.6819 209.231 Q70.0198 207.124 70.0198 203.513 Q70.0198 199.902 67.6819 197.795 Q65.3439 195.689 61.3393 195.689 Q59.4643 195.689 57.5893 196.106 Q55.7375 196.522 53.793 197.402 L53.793 180.041 Z" fill="#000000" fill-rule="evenodd" fill-opacity="1" /><path clip-path="url(#clip860)" d="M83.9086 208.721 L88.7928 208.721 L88.7928 214.601 L83.9086 214.601 L83.9086 208.721 Z" fill="#000000" fill-rule="evenodd" fill-opacity="1" /><path clip-path="url(#clip860)" d="M108.978 183.12 Q105.367 183.12 103.538 186.684 Q101.733 190.226 101.733 197.356 Q101.733 204.462 103.538 208.027 Q105.367 211.569 108.978 211.569 Q112.612 211.569 114.418 208.027 Q116.246 204.462 116.246 197.356 Q116.246 190.226 114.418 186.684 Q112.612 183.12 108.978 183.12 M108.978 179.416 Q114.788 179.416 117.844 184.022 Q120.922 188.606 120.922 197.356 Q120.922 206.082 117.844 210.689 Q114.788 215.272 108.978 215.272 Q103.168 215.272 100.089 210.689 Q97.0335 206.082 97.0335 197.356 Q97.0335 188.606 100.089 184.022 Q103.168 179.416 108.978 179.416 Z" fill="#000000" fill-rule="evenodd" fill-opacity="1" /><path clip-path="url(#clip860)" d="M157.311 189.138 L146.732 199.763 L157.311 210.342 L154.556 213.143 L143.931 202.518 L133.306 213.143 L130.575 210.342 L141.131 199.763 L130.575 189.138 L133.306 186.337 L143.931 196.962 L154.556 186.337 L157.311 189.138 Z" fill="#000000" fill-rule="evenodd" fill-opacity="1" /><path clip-path="url(#clip860)" d="M169.672 210.666 L177.311 210.666 L177.311 184.3 L169.001 185.967 L169.001 181.708 L177.265 180.041 L181.94 180.041 L181.94 210.666 L189.579 210.666 L189.579 214.601 L169.672 214.601 L169.672 210.666 Z" fill="#000000" fill-rule="evenodd" fill-opacity="1" /><path clip-path="url(#clip860)" d="M209.024 183.12 Q205.413 183.12 203.584 186.684 Q201.778 190.226 201.778 197.356 Q201.778 204.462 203.584 208.027 Q205.413 211.569 209.024 211.569 Q212.658 211.569 214.463 208.027 Q216.292 204.462 216.292 197.356 Q216.292 190.226 214.463 186.684 Q212.658 183.12 209.024 183.12 M209.024 179.416 Q214.834 179.416 217.889 184.022 Q220.968 188.606 220.968 197.356 Q220.968 206.082 217.889 210.689 Q214.834 215.272 209.024 215.272 Q203.214 215.272 200.135 210.689 Q197.079 206.082 197.079 197.356 Q197.079 188.606 200.135 184.022 Q203.214 179.416 209.024 179.416 Z" fill="#000000" fill-rule="evenodd" fill-opacity="1" /><path clip-path="url(#clip860)" d="M233.645 162.421 L224.053 177.411 L233.645 177.411 L233.645 162.421 M232.648 159.111 L237.425 159.111 L237.425 177.411 L241.431 177.411 L241.431 180.57 L237.425 180.57 L237.425 187.191 L233.645 187.191 L233.645 180.57 L220.968 180.57 L220.968 176.903 L232.648 159.111 Z" fill="#000000" fill-rule="evenodd" fill-opacity="1" /><polyline clip-path="url(#clip862)" style="stroke:#009af9; stroke-linecap:round; stroke-linejoin:round; stroke-width:4; stroke-opacity:1; fill:none" points="336.167,336.435 336.198,336.504 336.212,336.524 336.235,336.552 336.254,336.572 336.277,336.594 336.298,336.613 336.321,336.634 336.343,336.654 336.366,336.675 336.389,336.696 336.412,336.717 336.436,336.738 336.459,336.759 336.483,336.78 336.507,336.802 336.53,336.823 336.554,336.845 336.578,336.866 336.602,336.888 336.626,336.909 336.65,336.931 336.674,336.953 336.699,336.976 336.726,336.999 336.754,337.025 336.785,337.053 336.82,337.084 336.861,337.121 336.91,337.165 336.969,337.219 337.045,337.287 337.145,337.377 337.269,337.488 337.398,337.604 337.517,337.711 337.622,337.806 337.72,337.894 337.814,337.978 337.908,338.063 338.006,338.151 338.105,338.24 338.206,338.331 338.307,338.422 338.407,338.512 338.507,338.602 338.707,338.781 338.941,338.992 339.52,339.513 339.968,339.914 340.57,340.455 341.232,341.049 341.985,341.724 342.818,342.47 343.729,343.287 344.715,344.169 345.77,345.113 346.891,346.114 348.073,347.168 349.31,348.272 350.6,349.421 351.937,350.611 353.319,351.838 354.741,353.101 356.201,354.396 357.697,355.72 359.225,357.073 360.785,358.451 362.375,359.854 363.994,361.28 365.641,362.729 367.315,364.201 369.017,365.694 370.746,367.21 372.503,368.748 374.289,370.308 376.104,371.893 377.951,373.502 379.83,375.137 381.744,376.8 383.695,378.492 385.685,380.215 387.719,381.973 389.799,383.769 391.93,385.605 394.118,387.486 396.367,389.418 398.687,391.406 401.085,393.457 403.572,395.58 406.161,397.786 408.869,400.088 411.718,402.505 414.736,405.058 417.963,407.782 421.456,410.722 425.306,413.953 429.222,417.229 433.138,420.494 437.053,423.749 440.969,426.994 444.885,430.228 448.676,433.35 452.592,436.564 456.508,439.768 460.424,442.961 464.32,446.129 468.137,449.223 471.843,452.217 475.416,455.096 478.846,457.851 482.128,460.481 485.265,462.987 488.262,465.376 491.125,467.652 493.863,469.824 496.484,471.9 498.998,473.885 501.413,475.789 503.737,477.618 505.979,479.379 508.144,481.076 510.24,482.717 512.274,484.306 514.249,485.847 516.173,487.345 518.049,488.804 519.881,490.226 521.673,491.616 523.429,492.976 525.152,494.308 526.844,495.614 528.509,496.898 530.149,498.161 531.766,499.404 533.362,500.63 534.939,501.839 536.498,503.034 538.042,504.214 539.571,505.383 541.087,506.54 541.988,507.227 542.715,507.781 543.421,508.319 544.604,509.218 545.59,509.968 546.691,510.805 547.813,511.656 548.978,512.539 550.175,513.446 551.403,514.375 552.659,515.325 553.941,516.293 555.247,517.278 556.574,518.278 557.921,519.292 559.287,520.319 560.671,521.359 562.072,522.41 563.489,523.472 564.923,524.545 566.372,525.628 567.836,526.722 569.316,527.826 570.813,528.94 572.325,530.066 573.854,531.202 575.401,532.35 576.965,533.51 578.549,534.682 580.153,535.868 581.777,537.068 583.425,538.282 585.096,539.513 586.793,540.761 588.518,542.028 590.273,543.315 592.06,544.623 593.881,545.955 595.741,547.313 597.642,548.699 599.589,550.116 601.586,551.567 603.638,553.056 605.753,554.588 607.937,556.167 610.201,557.801 612.554,559.496 615.012,561.263 617.592,563.114 620.318,565.066 623.221,567.14 626.348,569.367 629.767,571.797 633.593,574.508 637.509,577.274 641.425,580.031 645.341,582.779 649.256,585.519 652.646,587.884 656.419,590.508 660.167,593.107 663.971,595.736 667.708,598.311 671.354,600.817 674.873,603.228 678.251,605.536 681.48,607.736 684.559,609.829 687.492,611.817 690.285,613.706 692.947,615.503 695.487,617.214 697.914,618.845 700.237,620.403 702.464,621.895 704.605,623.326 706.666,624.701 708.655,626.026 710.578,627.305 712.441,628.542 714.248,629.741 716.006,630.905 717.719,632.037 719.389,633.14 721.022,634.217 722.619,635.269 724.185,636.299 725.721,637.308 727.231,638.299 728.715,639.272 730.178,640.229 731.619,641.171 733.041,642.099 734.445,643.015 735.833,643.92 737.206,644.813 738.565,645.697 739.912,646.571 741.247,647.437 742.571,648.295 743.885,649.145 745.19,649.989 746.487,650.827 748.241,651.958 750.347,653.314 751.504,654.058 752.861,654.931 754.153,655.76 755.455,656.594 756.749,657.423 758.041,658.25 759.332,659.075 760.622,659.899 761.913,660.722 763.206,661.545 764.5,662.369 765.798,663.194 767.099,664.021 768.405,664.849 769.716,665.68 771.033,666.514 772.357,667.351 773.688,668.192 775.028,669.038 776.376,669.888 777.735,670.743 779.103,671.604 780.484,672.471 781.876,673.345 783.281,674.226 784.701,675.115 786.136,676.012 787.587,676.918 789.055,677.834 790.542,678.761 792.049,679.699 793.577,680.649 795.129,681.612 796.706,682.59 798.309,683.583 799.942,684.593 801.606,685.621 803.305,686.669 805.041,687.738 806.818,688.831 808.64,689.95 810.512,691.098 812.439,692.278 814.428,693.494 816.486,694.75 818.623,696.052 820.851,697.407 823.184,698.823 825.64,700.311 828.246,701.887 831.036,703.57 834.062,705.391 837.402,707.397 841.201,709.671 845.117,712.008 849.033,714.337 852.948,716.659 856.69,718.871 860.512,721.123 864.326,723.365 868.102,725.576 871.776,727.722 875.316,729.783 878.703,731.749 881.926,733.616 884.985,735.383 887.885,737.053 890.634,738.633 893.24,740.128 895.715,741.545 898.069,742.89 900.312,744.169 902.455,745.389 904.506,746.554 906.473,747.67 908.366,748.742 910.189,749.773 911.95,750.768 913.655,751.73 915.309,752.661 916.915,753.564 918.479,754.442 920.003,755.298 921.492,756.132 922.949,756.947 924.375,757.745 925.774,758.526 927.148,759.292 928.498,760.044 929.827,760.783 931.136,761.511 932.427,762.228 933.7,762.934 934.958,763.631 936.201,764.32 937.431,765 938.648,765.672 939.853,766.337 941.048,766.996 942.232,767.648 943.407,768.295 944.573,768.936 945.731,769.572 946.881,770.203 948.024,770.83 949.161,771.453 950.292,772.072 951.417,772.687 952.782,773.433 954.315,774.269 955.473,774.9 956.714,775.576 957.909,776.226 959.099,776.872 960.276,777.511 961.445,778.145 962.607,778.774 963.763,779.4 964.915,780.024 966.065,780.645 967.214,781.265 968.361,781.884 969.509,782.502 970.659,783.121 971.81,783.74 972.964,784.36 974.122,784.981 975.283,785.604 976.449,786.229 977.621,786.856 978.798,787.486 979.982,788.118 981.172,788.754 982.371,789.393 983.578,790.036 984.793,790.682 986.018,791.334 987.253,791.99 988.499,792.651 989.757,793.317 991.026,793.989 992.309,794.668 993.605,795.353 994.917,796.045 996.243,796.745 997.587,797.453 998.949,798.169 1000.33,798.894 1001.73,799.63 1003.15,800.376 1004.6,801.133 1006.07,801.903 1007.57,802.685 1009.09,803.482 1010.65,804.295 1012.25,805.124 1013.88,805.971 1015.55,806.839 1017.26,807.728 1019.03,808.642 1020.85,809.583 1022.73,810.555 1024.68,811.561 1026.71,812.606 1028.84,813.696 1031.06,814.839 1033.42,816.045 1035.93,817.328 1038.64,818.706 1041.59,820.209 1044.9,821.886 1048.74,823.831 1052.66,825.805 1056.57,827.773 1060.49,829.735 1064.16,831.568 1067.89,833.427 1071.52,835.23 1075.06,836.979 1078.44,838.651 1081.67,840.241 1084.74,841.746 1087.64,843.166 1090.38,844.506 1092.97,845.769 1095.42,846.963 1097.75,848.092 1099.95,849.162 1102.05,850.178 1104.06,851.146 1105.97,852.069 1107.81,852.953 1109.57,853.801 1111.27,854.616 1112.9,855.402 1114.49,856.161 1116.02,856.896 1117.51,857.608 1118.96,858.3 1120.38,858.974 1121.76,859.63 1123.1,860.272 1124.42,860.899 1125.72,861.513 1126.99,862.114 1128.23,862.705 1129.46,863.285 1130.67,863.856 1131.86,864.418 1133.03,864.971 1134.19,865.517 1135.33,866.055 1136.46,866.587 1137.58,867.112 1138.68,867.632 1139.78,868.145 1140.86,868.654 1141.94,869.157 1143.01,869.656 1144.06,870.151 1145.11,870.641 1146.15,871.128 1147.19,871.611 1148.22,872.09 1149.24,872.566 1150.26,873.039 1151.27,873.509 1152.27,873.976 1153.27,874.44 1154.27,874.902 1155.26,875.362 1156.25,875.819 1156.86,876.103 1157.36,876.335 1157.89,876.576 1158.71,876.958 1159.4,877.273 1160.17,877.629 1160.95,877.988 1161.75,878.361 1162.58,878.742 1163.43,879.132 1164.29,879.529 1165.17,879.933 1166.07,880.344 1166.97,880.759 1167.89,881.18 1168.82,881.605 1169.75,882.034 1170.7,882.467 1171.65,882.903 1172.61,883.342 1173.58,883.784 1174.56,884.229 1175.54,884.677 1176.53,885.127 1177.52,885.58 1178.52,886.035 1179.53,886.493 1180.55,886.953 1181.57,887.416 1182.59,887.882 1183.63,888.35 1184.67,888.821 1185.72,889.295 1186.77,889.772 1187.84,890.252 1188.91,890.735 1189.99,891.221 1191.07,891.71 1192.17,892.204 1193.28,892.701 1194.39,893.202 1195.52,893.707 1196.66,894.216 1197.81,894.73 1198.97,895.249 1200.14,895.773 1201.32,896.302 1202.52,896.837 1203.74,897.378 1204.97,897.926 1206.21,898.48 1207.48,899.041 1208.76,899.61 1210.06,900.187 1211.38,900.772 1212.73,901.367 1214.1,901.972 1215.49,902.588 1216.92,903.215 1218.37,903.854 1219.85,904.507 1221.37,905.175 1222.93,905.858 1224.53,906.56 1226.18,907.28 1227.88,908.023 1229.64,908.789 1231.46,909.583 1233.35,910.407 1235.33,911.268 1237.41,912.169 1239.61,913.12 1241.95,914.131 1244.47,915.217 1247.22,916.4 1250.29,917.717 1253.84,919.24 1257.76,920.911 1261.67,922.577 1265.59,924.237 1269.19,925.76 1272.81,927.289 1276.3,928.754 1279.67,930.164 1282.87,931.503 1285.9,932.769 1288.77,933.962 1291.47,935.084 1294.02,936.14 1296.43,937.134 1298.7,938.071 1300.85,938.957 1302.89,939.795 1304.83,940.592 1306.68,941.35 1308.45,942.073 1310.14,942.766 1311.77,943.43 1313.34,944.069 1314.85,944.685 1316.31,945.28 1317.73,945.856 1319.11,946.415 1320.45,946.958 1321.76,947.487 1323.03,948.003 1324.28,948.507 1325.5,949 1326.7,949.482 1327.87,949.955 1329.02,950.419 1330.16,950.875 1331.27,951.324 1332.37,951.766 1333.46,952.201 1334.53,952.63 1335.59,953.053 1336.63,953.471 1337.67,953.883 1338.69,954.291 1339.7,954.695 1340.7,955.094 1341.69,955.489 1342.68,955.88 1343.65,956.268 1344.62,956.652 1345.58,957.034 1346.53,957.412 1347.48,957.787 1348.42,958.159 1349.35,958.528 1350.28,958.895 1351.2,959.26 1352.12,959.622 1353.03,959.982 1353.94,960.34 1354.84,960.696 1355.74,961.05 1356.64,961.402 1357.53,961.753 1358.41,962.101 1359.3,962.448 1360.18,962.794 1361.06,963.138 1361.93,963.481 1362.64,963.758 1363.58,964.127 1364.4,964.446 1365.26,964.783 1366.11,965.115 1366.97,965.45 1367.83,965.784 1368.69,966.119 1369.55,966.455 1370.42,966.791 1371.28,967.129 1372.15,967.466 1373.02,967.805 1373.9,968.144 1374.78,968.484 1375.66,968.825 1376.54,969.166 1377.42,969.509 1378.31,969.852 1379.2,970.197 1380.1,970.542 1381,970.889 1381.9,971.237 1382.81,971.586 1383.72,971.936 1384.63,972.288 1385.55,972.641 1386.47,972.995 1387.4,973.352 1388.33,973.709 1389.27,974.069 1390.22,974.43 1391.16,974.793 1392.12,975.158 1393.08,975.525 1394.05,975.894 1395.02,976.266 1396,976.64 1396.99,977.016 1397.99,977.395 1398.99,977.776 1400,978.16 1401.02,978.548 1402.05,978.938 1403.09,979.332 1404.14,979.729 1405.2,980.129 1406.27,980.534 1407.35,980.942 1408.44,981.354 1409.55,981.771 1410.67,982.192 1411.8,982.619 1412.95,983.05 1414.11,983.487 1415.29,983.93 1416.49,984.378 1417.71,984.834 1418.94,985.296 1420.2,985.766 1421.48,986.243 1422.78,986.729 1424.11,987.224 1425.47,987.729 1426.86,988.245 1428.28,988.772 1429.73,989.311 1431.23,989.865 1432.76,990.433 1434.35,991.019 1435.98,991.623 1437.68,992.248 1439.45,992.897 1441.29,993.574 1443.22,994.282 1445.25,995.027 1447.42,995.818 1449.74,996.665 1452.26,997.583 1455.05,998.599 1458.25,999.758 1462.14,1001.17 1466.06,1002.58 1469.98,1003.99 1473.36,1005.2 1476.82,1006.43 1480.12,1007.61 1483.3,1008.74 1486.33,1009.81 1489.2,1010.83 1491.9,1011.78 1494.45,1012.68 1496.86,1013.52 1499.12,1014.32 1501.26,1015.07 1503.29,1015.77 1505.21,1016.44 1507.03,1017.08 1508.77,1017.68 1510.43,1018.26 1512.03,1018.82 1513.56,1019.35 1515.03,1019.86 1516.46,1020.35 1517.83,1020.82 1519.17,1021.28 1520.46,1021.73 1521.72,1022.16 1522.95,1022.59 1524.15,1023 1525.32,1023.4 1526.47,1023.79 1527.6,1024.18 1528.7,1024.56 1529.78,1024.93 1530.85,1025.29 1531.9,1025.65 1532.93,1026 1533.95,1026.35 1534.96,1026.69 1535.95,1027.03 1536.93,1027.36 1537.9,1027.69 1538.86,1028.02 1539.81,1028.34 1540.74,1028.65 1541.67,1028.97 1542.59,1029.28 1543.51,1029.59 1544.41,1029.9 1545.31,1030.2 1546.2,1030.5 1547.08,1030.8 1547.96,1031.09 1548.83,1031.38 1549.7,1031.68 1550.56,1031.96 1551.41,1032.25 1552.26,1032.54 1553.11,1032.82 1553.95,1033.1 1554.78,1033.38 1555.61,1033.66 1556.44,1033.94 1557.26,1034.21 1558.08,1034.48 1558.9,1034.76 1559.71,1035.03 1560.52,1035.3 1561.32,1035.57 1562.12,1035.83 1562.92,1036.1 1563.72,1036.36 1564.51,1036.63 1565.3,1036.89 1566.09,1037.15 1566.88,1037.41 1567.55,1037.63 1568.48,1037.94 1569.21,1038.18 1570.02,1038.45 1570.79,1038.71 1571.58,1038.97 1572.36,1039.23 1573.15,1039.48 1573.93,1039.74 1574.72,1040 1575.51,1040.26 1576.29,1040.52 1577.08,1040.78 1577.88,1041.04 1578.67,1041.3 1579.46,1041.56 1580.26,1041.82 1581.06,1042.09 1581.86,1042.35 1582.67,1042.61 1583.47,1042.88 1584.28,1043.14 1585.1,1043.41 1585.91,1043.67 1586.73,1043.94 1587.55,1044.21 1588.38,1044.48 1589.2,1044.75 1590.04,1045.02 1590.87,1045.29 1591.71,1045.56 1592.56,1045.84 1593.4,1046.11 1594.26,1046.39 1595.11,1046.67 1595.98,1046.95 1596.84,1047.23 1597.71,1047.51 1598.59,1047.79 1599.47,1048.08 1600.36,1048.36 1601.26,1048.65 1602.16,1048.94 1603.06,1049.23 1603.98,1049.53 1604.9,1049.82 1605.83,1050.12 1606.76,1050.42 1607.71,1050.73 1608.66,1051.03 1609.62,1051.34 1610.59,1051.65 1611.56,1051.96 1612.55,1052.28 1613.55,1052.6 1614.56,1052.92 1615.58,1053.24 1616.61,1053.57 1617.65,1053.9 1618.71,1054.24 1619.78,1054.58 1620.86,1054.92 1621.96,1055.27 1623.08,1055.63 1624.21,1055.98 1625.36,1056.35 1626.53,1056.72 1627.72,1057.09 1628.93,1057.47 1630.16,1057.86 1631.42,1058.26 1632.7,1058.66 1634.02,1059.08 1635.36,1059.5 1636.74,1059.93 1638.16,1060.37 1639.61,1060.83 1641.12,1061.3 1642.67,1061.78 1644.28,1062.28 1645.95,1062.8 1647.69,1063.35 1649.52,1063.91 1651.46,1064.51 1653.51,1065.15 1655.71,1065.83 1658.1,1066.56 1660.76,1067.38 1663.8,1068.32 1667.53,1069.46 1671.45,1070.65 1675.36,1071.84 1678.81,1072.89 1682.23,1073.92 1685.45,1074.89 1688.52,1075.81 1691.41,1076.68 1694.12,1077.49 1696.67,1078.25 1699.06,1078.97 1701.3,1079.63 1703.41,1080.26 1705.39,1080.85 1707.27,1081.4 1709.05,1081.93 1710.74,1082.43 1712.35,1082.9 1713.89,1083.36 1715.37,1083.79 1716.79,1084.21 1718.15,1084.61 1719.48,1085 1720.76,1085.37 1722,1085.73 1723.2,1086.09 1724.38,1086.43 1725.52,1086.76 1726.64,1087.09 1727.74,1087.41 1728.81,1087.72 1729.86,1088.02 1730.89,1088.32 1731.91,1088.62 1732.91,1088.91 1733.89,1089.19 1734.86,1089.47 1735.81,1089.75 1736.76,1090.02 1737.69,1090.29 1738.61,1090.56 1739.52,1090.82 1740.41,1091.08 1741.3,1091.33 1742.19,1091.59 1743.06,1091.84 1743.92,1092.09 1744.78,1092.33 1745.63,1092.57 1746.47,1092.82 1747.31,1093.06 1748.14,1093.29 1748.96,1093.53 1749.78,1093.76 1750.59,1093.99 1751.39,1094.22 1752.19,1094.45 1752.99,1094.68 1753.78,1094.9 1754.57,1095.13 1755.35,1095.35 1756.13,1095.57 1756.9,1095.79 1757.67,1096.01 1758.44,1096.23 1759.2,1096.44 1759.96,1096.66 1760.71,1096.87 1761.46,1097.09 1762.21,1097.3 1762.96,1097.51 1763.7,1097.72 1764.44,1097.93 1765.17,1098.13 1765.91,1098.34 1766.64,1098.55 1767.37,1098.75 1768.09,1098.96 1768.82,1099.16 1769.54,1099.36 1770.26,1099.57 1770.98,1099.77 1771.69,1099.97 1772.72,1100.26 1773.7,1100.53 1774.29,1100.7 1775.04,1100.91 1775.72,1101.1 1776.43,1101.3 1777.13,1101.49 1777.84,1101.69 1778.55,1101.89 1779.26,1102.09 1779.97,1102.29 1780.69,1102.49 1781.4,1102.69 1782.12,1102.89 1782.84,1103.09 1783.56,1103.29 1784.29,1103.49 1785.01,1103.69 1785.74,1103.89 1786.47,1104.1 1787.21,1104.3 1787.94,1104.5 1788.68,1104.71 1789.42,1104.91 1790.17,1105.12 1790.91,1105.32 1791.66,1105.53 1792.42,1105.74 1793.17,1105.95 1793.93,1106.16 1794.69,1106.37 1795.46,1106.58 1796.22,1106.79 1797,1107 1797.77,1107.22 1798.55,1107.43 1799.33,1107.64 1800.12,1107.86 1800.91,1108.08 1801.71,1108.3 1802.51,1108.52 1803.31,1108.74 1804.12,1108.96 1804.94,1109.18 1805.76,1109.4 1806.58,1109.63 1807.41,1109.86 1808.25,1110.08 1809.09,1110.31 1809.94,1110.54 1810.79,1110.78 1811.65,1111.01 1812.52,1111.25 1813.39,1111.48 1814.28,1111.72 1815.16,1111.96 1816.06,1112.21 1816.97,1112.45 1817.88,1112.7 1818.8,1112.95 1819.73,1113.2 1820.67,1113.45 1821.62,1113.71 1822.58,1113.97 1823.56,1114.23 1824.54,1114.49 1825.54,1114.76 1826.54,1115.03 1827.56,1115.31 1828.6,1115.58 1829.65,1115.87 1830.72,1116.15 1831.8,1116.44 1832.9,1116.73 1834.01,1117.03 1835.15,1117.34 1836.31,1117.64 1837.49,1117.96 1838.7,1118.28 1839.93,1118.61 1841.19,1118.94 1842.48,1119.28 1843.8,1119.63 1845.16,1119.99 1846.56,1120.36 1848,1120.74 1849.49,1121.14 1851.04,1121.54 1852.65,1121.97 1854.33,1122.41 1856.1,1122.87 1857.96,1123.36 1859.95,1123.88 1862.09,1124.44 1864.42,1125.05 1867.03,1125.73 1870.07,1126.51 1873.91,1127.51 1877.83,1128.52 1881.22,1129.39 1884.54,1130.24 1887.68,1131.05 1890.69,1131.81 1893.52,1132.54 1896.2,1133.21 1898.7,1133.85 1901.05,1134.44 1903.26,1135 1905.33,1135.52 1907.28,1136.01 1909.12,1136.48 1910.87,1136.91 1912.52,1137.33 1914.09,1137.72 1915.6,1138.1 1917.04,1138.46 1918.42,1138.8 1919.75,1139.13 1921.03,1139.45 1922.27,1139.76 1923.48,1140.06 1924.65,1140.35 1925.78,1140.63 1926.89,1140.91 1927.97,1141.18 1929.03,1141.44 1930.07,1141.69 1931.08,1141.94 1932.08,1142.19 1933.06,1142.43 1934.02,1142.67 1934.97,1142.9 1935.9,1143.13 1936.82,1143.36 1937.73,1143.58 1938.63,1143.8 1939.51,1144.01 1940.39,1144.23 1941.25,1144.44 1942.11,1144.65 1942.95,1144.86 1943.79,1145.06 1944.62,1145.26 1945.44,1145.46 1946.26,1145.66 1947.06,1145.86 1947.86,1146.05 1948.66,1146.25 1949.45,1146.44 1950.23,1146.63 1951,1146.82 1951.77,1147 1952.54,1147.19 1953.3,1147.37 1954.06,1147.56 1954.81,1147.74 1955.55,1147.92 1956.29,1148.1 1957.03,1148.28 1957.77,1148.45 1958.49,1148.63 1959.22,1148.81 1959.94,1148.98 1960.66,1149.15 1961.37,1149.32 1962.08,1149.49 1962.79,1149.67 1963.5,1149.83 1964.2,1150 1964.9,1150.17 1965.59,1150.34 1966.28,1150.5 1966.97,1150.67 1967.66,1150.83 1968.34,1151 1969.03,1151.16 1969.7,1151.32 1970.38,1151.48 1971.06,1151.65 1971.73,1151.81 1972.4,1151.97 1973.07,1152.12 1973.73,1152.28 1974.4,1152.44 1975.06,1152.6 1975.72,1152.76 1976.38,1152.91 1977.04,1153.07 1977.6,1153.2 1978.29,1153.37 1978.91,1153.52 1979.57,1153.67 1980.21,1153.82 1980.86,1153.98 1981.51,1154.13 1982.16,1154.28 1982.81,1154.44 1983.47,1154.59 1984.12,1154.75 1984.78,1154.9 1985.44,1155.06 1986.1,1155.22 1986.77,1155.37 1987.43,1155.53 1988.1,1155.69 1988.77,1155.84 1989.44,1156 1990.11,1156.16 1990.79,1156.32 1991.46,1156.48 1992.14,1156.64 1992.82,1156.8 1993.51,1156.96 1994.19,1157.12 1994.88,1157.28 1995.57,1157.44 1996.26,1157.6 1996.96,1157.77 1997.66,1157.93 1998.36,1158.09 1999.06,1158.26 1999.77,1158.42 2000.48,1158.59 2001.19,1158.75 2001.91,1158.92 2002.63,1159.09 2003.35,1159.26 2004.08,1159.43 2004.81,1159.59 2005.54,1159.77 2006.28,1159.94 2007.02,1160.11 2007.77,1160.28 2008.51,1160.45 2009.27,1160.63 2010.03,1160.8 2010.79,1160.98 2011.56,1161.16 2012.33,1161.34 2013.1,1161.52 2013.89,1161.7 2014.67,1161.88 2015.47,1162.06 2016.26,1162.24 2017.07,1162.43 2017.88,1162.61 2018.69,1162.8 2019.52,1162.99 2020.35,1163.18 2021.18,1163.37 2022.02,1163.57 2022.88,1163.76 2023.73,1163.96 2024.6,1164.16 2025.47,1164.36 2026.36,1164.56 2027.25,1164.76 2028.15,1164.97 2029.06,1165.17 2029.98,1165.38 2030.92,1165.6 2031.86,1165.81 2032.81,1166.03 2033.78,1166.25 2034.76,1166.47 2035.75,1166.69 2036.76,1166.92 2037.78,1167.15 2038.82,1167.39 2039.88,1167.63 2040.95,1167.87 2042.04,1168.11 2043.15,1168.37 2044.29,1168.62 2045.45,1168.88 2046.63,1169.15 2047.84,1169.42 2049.08,1169.7 2050.35,1169.98 2051.65,1170.27 2053,1170.57 2054.38,1170.88 2055.82,1171.2 2057.3,1171.53 2058.85,1171.88 2060.47,1172.24 2062.16,1172.61 2063.96,1173.01 2065.87,1173.43 2067.93,1173.89 2070.18,1174.39 2072.71,1174.94 2075.65,1175.59 2079.45,1176.42 2083.36,1177.27 2085.4,1177.72 2088.12,1178.31 2090.51,1178.83 2093.02,1179.37 2095.42,1179.89 2097.77,1180.4 2100.01,1180.88 2102.17,1181.34 2104.22,1181.78 2106.18,1182.2 2108.04,1182.6 2109.81,1182.98 2111.5,1183.34 2113.12,1183.68 2114.66,1184.01 2116.14,1184.33 2117.56,1184.63 2118.93,1184.92 2120.25,1185.2 2121.52,1185.46 2122.76,1185.73 2123.95,1185.98 2125.11,1186.22 2126.24,1186.46 2127.34,1186.69 2128.42,1186.92 2129.47,1187.14 2130.5,1187.35 2131.5,1187.57 2132.49,1187.77 2133.46,1187.98 2134.41,1188.17 2135.35,1188.37 2136.27,1188.56 2137.18,1188.75 2138.07,1188.94 2138.95,1189.12 2139.83,1189.3 2140.69,1189.48 2141.54,1189.66 2142.38,1189.83 2143.21,1190.01 2144.03,1190.18 2144.84,1190.35 2145.65,1190.51 2146.44,1190.68 2147.23,1190.84 2148.02,1191 2148.79,1191.16 2149.56,1191.32 2150.33,1191.48 2151.08,1191.64 2151.84,1191.79 2152.58,1191.95 2153.32,1192.1 2154.06,1192.25 2154.79,1192.4 2155.51,1192.55 2156.23,1192.7 2156.95,1192.84 2157.66,1192.99 2158.37,1193.14 2159.07,1193.28 2159.77,1193.42 2160.47,1193.57 2161.16,1193.71 2161.84,1193.85 2162.53,1193.99 2163.21,1194.13 2163.89,1194.26 2164.56,1194.4 2165.23,1194.54 2165.9,1194.67 2166.56,1194.81 2167.22,1194.94 2167.88,1195.08 2168.54,1195.21 2169.19,1195.35 2169.84,1195.48 2170.49,1195.61 2171.13,1195.74 2171.78,1195.87 2172.42,1196 2173.05,1196.13 2173.69,1196.26 2174.32,1196.39 2174.95,1196.51 2175.58,1196.64 2176.21,1196.77 2176.84,1196.89 2177.46,1197.02 2178.08,1197.15 2178.7,1197.27 2179.32,1197.39 2179.93,1197.52 2180.55,1197.64 2181.16,1197.77 2181.77,1197.89 2182.43,1198.02 2183.2,1198.18 2183.79,1198.3 2184.45,1198.43 2185.08,1198.55 2185.71,1198.68 2186.34,1198.81 2186.96,1198.93 2187.59,1199.06 2188.21,1199.18 2188.83,1199.31 2189.45,1199.43 2190.08,1199.55 2190.7,1199.68 2191.32,1199.8 2191.95,1199.93 2192.57,1200.05 2193.2,1200.18 2193.83,1200.3 2194.45,1200.43 2195.09,1200.55 2195.72,1200.68 2196.35,1200.81 2196.99,1200.93 2197.62,1201.06 2198.26,1201.19 2198.91,1201.31 2199.55,1201.44 2200.2,1201.57 2200.84,1201.7 2201.49,1201.83 2202.15,1201.96 2202.8,1202.08 2203.46,1202.21 2204.12,1202.35 2204.78,1202.48 2205.45,1202.61 2206.12,1202.74 2206.79,1202.87 2207.46,1203.01 2208.14,1203.14 2208.82,1203.27 2209.51,1203.41 2210.19,1203.54 2210.88,1203.68 2211.58,1203.81 2212.28,1203.95 2212.98,1204.09 2213.68,1204.23 2214.39,1204.37 2215.1,1204.51 2215.82,1204.65 2216.54,1204.79 2217.27,1204.93 2218,1205.07 2218.73,1205.22 2219.47,1205.36 2220.22,1205.51 2220.97,1205.65 2221.72,1205.8 2222.48,1205.95 2223.24,1206.09 2224.01,1206.24 2224.79,1206.4 2225.57,1206.55 2226.36,1206.7 2227.16,1206.85 2227.96,1207.01 2228.77,1207.17 2229.58,1207.32 2230.41,1207.48 2231.24,1207.64 2232.07,1207.81 2232.92,1207.97 2233.78,1208.14 2234.64,1208.3 2235.51,1208.47 2236.4,1208.64 2237.29,1208.81 2238.19,1208.99 2239.11,1209.16 2240.04,1209.34 2240.97,1209.52 2241.93,1209.7 2242.89,1209.89 2243.87,1210.07 2244.86,1210.26 2245.87,1210.46 2246.9,1210.65 2247.94,1210.85 2249,1211.05 2250.09,1211.26 2251.19,1211.47 2252.32,1211.69 2253.47,1211.9 2254.65,1212.13 2255.85,1212.36 2257.09,1212.59 2258.37,1212.83 2259.68,1213.08 2261.04,1213.34 2262.44,1213.6 2263.9,1213.88 2265.41,1214.16 2267,1214.46 2268.67,1214.77 2270.45,1215.11 2272.34,1215.46 2274.4,1215.84 2276.66,1216.27 2279.23,1216.75 2282.33,1217.32 2286.24,1218.05 2290.16,1218.77 2293.48,1219.38 2294.02,1219.48 "/>
<polyline clip-path="url(#clip862)" style="stroke:#e26f46; stroke-linecap:round; stroke-linejoin:round; stroke-width:4; stroke-opacity:1; fill:none" points="336.167,87.9763 336.198,995.044 336.212,1171.68 336.235,1325.09 336.254,1384.08 336.277,1417.6 336.298,1432.46 336.321,1439.72 336.343,1443 336.366,1444.5 336.389,1445.18 336.412,1445.48 336.436,1445.61 336.459,1445.67 336.483,1445.7 336.507,1445.71 336.53,1445.71 336.554,1445.71 336.578,1445.71 336.602,1445.72 336.626,1445.72 336.65,1445.72 336.674,1445.72 336.699,1445.72 336.726,1445.72 336.754,1445.72 336.785,1445.72 336.82,1445.72 336.861,1445.72 336.91,1445.72 336.969,1445.72 337.045,1445.72 337.145,1445.72 337.269,1445.72 337.398,1445.72 337.517,1445.72 337.622,1445.72 337.72,1445.72 337.814,1445.72 337.908,1445.72 338.006,1445.72 338.105,1445.72 338.206,1445.72 338.307,1445.72 338.407,1445.72 338.507,1445.72 338.707,1445.72 338.941,1445.72 339.52,1445.72 339.968,1445.72 340.57,1445.72 341.232,1445.72 341.985,1445.72 342.818,1445.72 343.729,1445.72 344.715,1445.72 345.77,1445.72 346.891,1445.72 348.073,1445.72 349.31,1445.72 350.6,1445.72 351.937,1445.72 353.319,1445.72 354.741,1445.72 356.201,1445.72 357.697,1445.72 359.225,1445.72 360.785,1445.72 362.375,1445.72 363.994,1445.72 365.641,1445.72 367.315,1445.72 369.017,1445.72 370.746,1445.72 372.503,1445.72 374.289,1445.72 376.104,1445.72 377.951,1445.72 379.83,1445.72 381.744,1445.72 383.695,1445.72 385.685,1445.72 387.719,1445.72 389.799,1445.72 391.93,1445.72 394.118,1445.72 396.367,1445.72 398.687,1445.72 401.085,1445.72 403.572,1445.72 406.161,1445.72 408.869,1445.72 411.718,1445.72 414.736,1445.72 417.963,1445.72 421.456,1445.72 425.306,1445.72 429.222,1445.72 433.138,1445.72 437.053,1445.72 440.969,1445.72 444.885,1445.72 448.676,1445.72 452.592,1445.72 456.508,1445.72 460.424,1445.72 464.32,1445.72 468.137,1445.72 471.843,1445.72 475.416,1445.72 478.846,1445.72 482.128,1445.72 485.265,1445.72 488.262,1445.72 491.125,1445.72 493.863,1445.72 496.484,1445.72 498.998,1445.72 501.413,1445.72 503.737,1445.72 505.979,1445.72 508.144,1445.72 510.24,1445.72 512.274,1445.72 514.249,1445.72 516.173,1445.72 518.049,1445.72 519.881,1445.72 521.673,1445.72 523.429,1445.72 525.152,1445.72 526.844,1445.72 528.509,1445.72 530.149,1445.72 531.766,1445.72 533.362,1445.72 534.939,1445.72 536.498,1445.72 538.042,1445.72 539.571,1445.72 541.087,1445.72 541.988,1445.72 542.715,1445.72 543.421,1445.72 544.604,1445.72 545.59,1445.72 546.691,1445.72 547.813,1445.72 548.978,1445.72 550.175,1445.72 551.403,1445.72 552.659,1445.72 553.941,1445.72 555.247,1445.72 556.574,1445.72 557.921,1445.72 559.287,1445.72 560.671,1445.72 562.072,1445.72 563.489,1445.72 564.923,1445.72 566.372,1445.72 567.836,1445.72 569.316,1445.72 570.813,1445.72 572.325,1445.72 573.854,1445.72 575.401,1445.72 576.965,1445.72 578.549,1445.72 580.153,1445.72 581.777,1445.72 583.425,1445.72 585.096,1445.72 586.793,1445.72 588.518,1445.72 590.273,1445.72 592.06,1445.72 593.881,1445.72 595.741,1445.72 597.642,1445.72 599.589,1445.72 601.586,1445.72 603.638,1445.72 605.753,1445.72 607.937,1445.72 610.201,1445.72 612.554,1445.72 615.012,1445.72 617.592,1445.72 620.318,1445.72 623.221,1445.72 626.348,1445.72 629.767,1445.72 633.593,1445.72 637.509,1445.72 641.425,1445.72 645.341,1445.72 649.256,1445.72 652.646,1445.72 656.419,1445.72 660.167,1445.72 663.971,1445.72 667.708,1445.72 671.354,1445.72 674.873,1445.72 678.251,1445.72 681.48,1445.72 684.559,1445.72 687.492,1445.72 690.285,1445.72 692.947,1445.72 695.487,1445.72 697.914,1445.72 700.237,1445.72 702.464,1445.72 704.605,1445.72 706.666,1445.72 708.655,1445.72 710.578,1445.72 712.441,1445.72 714.248,1445.72 716.006,1445.72 717.719,1445.72 719.389,1445.72 721.022,1445.72 722.619,1445.72 724.185,1445.72 725.721,1445.72 727.231,1445.72 728.715,1445.72 730.178,1445.72 731.619,1445.72 733.041,1445.72 734.445,1445.72 735.833,1445.72 737.206,1445.72 738.565,1445.72 739.912,1445.72 741.247,1445.72 742.571,1445.72 743.885,1445.72 745.19,1445.72 746.487,1445.72 748.241,1445.72 750.347,1445.72 751.504,1445.72 752.861,1445.72 754.153,1445.72 755.455,1445.72 756.749,1445.72 758.041,1445.72 759.332,1445.72 760.622,1445.72 761.913,1445.72 763.206,1445.72 764.5,1445.72 765.798,1445.72 767.099,1445.72 768.405,1445.72 769.716,1445.72 771.033,1445.72 772.357,1445.72 773.688,1445.72 775.028,1445.72 776.376,1445.72 777.735,1445.72 779.103,1445.72 780.484,1445.72 781.876,1445.72 783.281,1445.72 784.701,1445.72 786.136,1445.72 787.587,1445.72 789.055,1445.72 790.542,1445.72 792.049,1445.72 793.577,1445.72 795.129,1445.72 796.706,1445.72 798.309,1445.72 799.942,1445.72 801.606,1445.72 803.305,1445.72 805.041,1445.72 806.818,1445.72 808.64,1445.72 810.512,1445.72 812.439,1445.72 814.428,1445.72 816.486,1445.72 818.623,1445.72 820.851,1445.72 823.184,1445.72 825.64,1445.72 828.246,1445.72 831.036,1445.72 834.062,1445.72 837.402,1445.72 841.201,1445.72 845.117,1445.72 849.033,1445.72 852.948,1445.72 856.69,1445.72 860.512,1445.72 864.326,1445.72 868.102,1445.72 871.776,1445.72 875.316,1445.72 878.703,1445.72 881.926,1445.72 884.985,1445.72 887.885,1445.72 890.634,1445.72 893.24,1445.72 895.715,1445.72 898.069,1445.72 900.312,1445.72 902.455,1445.72 904.506,1445.72 906.473,1445.72 908.366,1445.72 910.189,1445.72 911.95,1445.72 913.655,1445.72 915.309,1445.72 916.915,1445.72 918.479,1445.72 920.003,1445.72 921.492,1445.72 922.949,1445.72 924.375,1445.72 925.774,1445.72 927.148,1445.72 928.498,1445.72 929.827,1445.72 931.136,1445.72 932.427,1445.72 933.7,1445.72 934.958,1445.72 936.201,1445.72 937.431,1445.72 938.648,1445.72 939.853,1445.72 941.048,1445.72 942.232,1445.72 943.407,1445.72 944.573,1445.72 945.731,1445.72 946.881,1445.72 948.024,1445.72 949.161,1445.72 950.292,1445.72 951.417,1445.72 952.782,1445.72 954.315,1445.72 955.473,1445.72 956.714,1445.72 957.909,1445.72 959.099,1445.72 960.276,1445.72 961.445,1445.72 962.607,1445.72 963.763,1445.72 964.915,1445.72 966.065,1445.72 967.214,1445.72 968.361,1445.72 969.509,1445.72 970.659,1445.72 971.81,1445.72 972.964,1445.72 974.122,1445.72 975.283,1445.72 976.449,1445.72 977.621,1445.72 978.798,1445.72 979.982,1445.72 981.172,1445.72 982.371,1445.72 983.578,1445.72 984.793,1445.72 986.018,1445.72 987.253,1445.72 988.499,1445.72 989.757,1445.72 991.026,1445.72 992.309,1445.72 993.605,1445.72 994.917,1445.72 996.243,1445.72 997.587,1445.72 998.949,1445.72 1000.33,1445.72 1001.73,1445.72 1003.15,1445.72 1004.6,1445.72 1006.07,1445.72 1007.57,1445.72 1009.09,1445.72 1010.65,1445.72 1012.25,1445.72 1013.88,1445.72 1015.55,1445.72 1017.26,1445.72 1019.03,1445.72 1020.85,1445.72 1022.73,1445.72 1024.68,1445.72 1026.71,1445.72 1028.84,1445.72 1031.06,1445.72 1033.42,1445.72 1035.93,1445.72 1038.64,1445.72 1041.59,1445.72 1044.9,1445.72 1048.74,1445.72 1052.66,1445.72 1056.57,1445.72 1060.49,1445.72 1064.16,1445.72 1067.89,1445.72 1071.52,1445.72 1075.06,1445.72 1078.44,1445.72 1081.67,1445.72 1084.74,1445.72 1087.64,1445.72 1090.38,1445.72 1092.97,1445.72 1095.42,1445.72 1097.75,1445.72 1099.95,1445.72 1102.05,1445.72 1104.06,1445.72 1105.97,1445.72 1107.81,1445.72 1109.57,1445.72 1111.27,1445.72 1112.9,1445.72 1114.49,1445.72 1116.02,1445.72 1117.51,1445.72 1118.96,1445.72 1120.38,1445.72 1121.76,1445.72 1123.1,1445.72 1124.42,1445.72 1125.72,1445.72 1126.99,1445.72 1128.23,1445.72 1129.46,1445.72 1130.67,1445.72 1131.86,1445.72 1133.03,1445.72 1134.19,1445.72 1135.33,1445.72 1136.46,1445.72 1137.58,1445.72 1138.68,1445.72 1139.78,1445.72 1140.86,1445.72 1141.94,1445.72 1143.01,1445.72 1144.06,1445.72 1145.11,1445.72 1146.15,1445.72 1147.19,1445.72 1148.22,1445.72 1149.24,1445.72 1150.26,1445.72 1151.27,1445.72 1152.27,1445.72 1153.27,1445.72 1154.27,1445.72 1155.26,1445.72 1156.25,1445.72 1156.86,1445.72 1157.36,1445.72 1157.89,1445.72 1158.71,1445.72 1159.4,1445.72 1160.17,1445.72 1160.95,1445.72 1161.75,1445.72 1162.58,1445.72 1163.43,1445.72 1164.29,1445.72 1165.17,1445.72 1166.07,1445.72 1166.97,1445.72 1167.89,1445.72 1168.82,1445.72 1169.75,1445.72 1170.7,1445.72 1171.65,1445.72 1172.61,1445.72 1173.58,1445.72 1174.56,1445.72 1175.54,1445.72 1176.53,1445.72 1177.52,1445.72 1178.52,1445.72 1179.53,1445.72 1180.55,1445.72 1181.57,1445.72 1182.59,1445.72 1183.63,1445.72 1184.67,1445.72 1185.72,1445.72 1186.77,1445.72 1187.84,1445.72 1188.91,1445.72 1189.99,1445.72 1191.07,1445.72 1192.17,1445.72 1193.28,1445.72 1194.39,1445.72 1195.52,1445.72 1196.66,1445.72 1197.81,1445.72 1198.97,1445.72 1200.14,1445.72 1201.32,1445.72 1202.52,1445.72 1203.74,1445.72 1204.97,1445.72 1206.21,1445.72 1207.48,1445.72 1208.76,1445.72 1210.06,1445.72 1211.38,1445.72 1212.73,1445.72 1214.1,1445.72 1215.49,1445.72 1216.92,1445.72 1218.37,1445.72 1219.85,1445.72 1221.37,1445.72 1222.93,1445.72 1224.53,1445.72 1226.18,1445.72 1227.88,1445.72 1229.64,1445.72 1231.46,1445.72 1233.35,1445.72 1235.33,1445.72 1237.41,1445.72 1239.61,1445.72 1241.95,1445.72 1244.47,1445.72 1247.22,1445.72 1250.29,1445.72 1253.84,1445.72 1257.76,1445.72 1261.67,1445.72 1265.59,1445.72 1269.19,1445.72 1272.81,1445.72 1276.3,1445.72 1279.67,1445.72 1282.87,1445.72 1285.9,1445.72 1288.77,1445.72 1291.47,1445.72 1294.02,1445.72 1296.43,1445.72 1298.7,1445.72 1300.85,1445.72 1302.89,1445.72 1304.83,1445.72 1306.68,1445.72 1308.45,1445.72 1310.14,1445.72 1311.77,1445.72 1313.34,1445.72 1314.85,1445.72 1316.31,1445.72 1317.73,1445.72 1319.11,1445.72 1320.45,1445.72 1321.76,1445.72 1323.03,1445.72 1324.28,1445.72 1325.5,1445.72 1326.7,1445.72 1327.87,1445.72 1329.02,1445.72 1330.16,1445.72 1331.27,1445.72 1332.37,1445.72 1333.46,1445.72 1334.53,1445.72 1335.59,1445.72 1336.63,1445.72 1337.67,1445.72 1338.69,1445.72 1339.7,1445.72 1340.7,1445.72 1341.69,1445.72 1342.68,1445.72 1343.65,1445.72 1344.62,1445.72 1345.58,1445.72 1346.53,1445.72 1347.48,1445.72 1348.42,1445.72 1349.35,1445.72 1350.28,1445.72 1351.2,1445.72 1352.12,1445.72 1353.03,1445.72 1353.94,1445.72 1354.84,1445.72 1355.74,1445.72 1356.64,1445.72 1357.53,1445.72 1358.41,1445.72 1359.3,1445.72 1360.18,1445.72 1361.06,1445.72 1361.93,1445.72 1362.64,1445.72 1363.58,1445.72 1364.4,1445.72 1365.26,1445.72 1366.11,1445.72 1366.97,1445.72 1367.83,1445.72 1368.69,1445.72 1369.55,1445.72 1370.42,1445.72 1371.28,1445.72 1372.15,1445.72 1373.02,1445.72 1373.9,1445.72 1374.78,1445.72 1375.66,1445.72 1376.54,1445.72 1377.42,1445.72 1378.31,1445.72 1379.2,1445.72 1380.1,1445.72 1381,1445.72 1381.9,1445.72 1382.81,1445.72 1383.72,1445.72 1384.63,1445.72 1385.55,1445.72 1386.47,1445.72 1387.4,1445.72 1388.33,1445.72 1389.27,1445.72 1390.22,1445.72 1391.16,1445.72 1392.12,1445.72 1393.08,1445.72 1394.05,1445.72 1395.02,1445.72 1396,1445.72 1396.99,1445.72 1397.99,1445.72 1398.99,1445.72 1400,1445.72 1401.02,1445.72 1402.05,1445.72 1403.09,1445.72 1404.14,1445.72 1405.2,1445.72 1406.27,1445.72 1407.35,1445.72 1408.44,1445.72 1409.55,1445.72 1410.67,1445.72 1411.8,1445.72 1412.95,1445.72 1414.11,1445.72 1415.29,1445.72 1416.49,1445.72 1417.71,1445.72 1418.94,1445.72 1420.2,1445.72 1421.48,1445.72 1422.78,1445.72 1424.11,1445.72 1425.47,1445.72 1426.86,1445.72 1428.28,1445.72 1429.73,1445.72 1431.23,1445.72 1432.76,1445.72 1434.35,1445.72 1435.98,1445.72 1437.68,1445.72 1439.45,1445.72 1441.29,1445.72 1443.22,1445.72 1445.25,1445.72 1447.42,1445.72 1449.74,1445.72 1452.26,1445.72 1455.05,1445.72 1458.25,1445.72 1462.14,1445.72 1466.06,1445.72 1469.98,1445.72 1473.36,1445.72 1476.82,1445.72 1480.12,1445.72 1483.3,1445.72 1486.33,1445.72 1489.2,1445.72 1491.9,1445.72 1494.45,1445.72 1496.86,1445.72 1499.12,1445.72 1501.26,1445.72 1503.29,1445.72 1505.21,1445.72 1507.03,1445.72 1508.77,1445.72 1510.43,1445.72 1512.03,1445.72 1513.56,1445.72 1515.03,1445.72 1516.46,1445.72 1517.83,1445.72 1519.17,1445.72 1520.46,1445.72 1521.72,1445.72 1522.95,1445.72 1524.15,1445.72 1525.32,1445.72 1526.47,1445.72 1527.6,1445.72 1528.7,1445.72 1529.78,1445.72 1530.85,1445.72 1531.9,1445.72 1532.93,1445.72 1533.95,1445.72 1534.96,1445.72 1535.95,1445.72 1536.93,1445.72 1537.9,1445.72 1538.86,1445.72 1539.81,1445.72 1540.74,1445.72 1541.67,1445.72 1542.59,1445.72 1543.51,1445.72 1544.41,1445.72 1545.31,1445.72 1546.2,1445.72 1547.08,1445.72 1547.96,1445.72 1548.83,1445.72 1549.7,1445.72 1550.56,1445.72 1551.41,1445.72 1552.26,1445.72 1553.11,1445.72 1553.95,1445.72 1554.78,1445.72 1555.61,1445.72 1556.44,1445.72 1557.26,1445.72 1558.08,1445.72 1558.9,1445.72 1559.71,1445.72 1560.52,1445.72 1561.32,1445.72 1562.12,1445.72 1562.92,1445.72 1563.72,1445.72 1564.51,1445.72 1565.3,1445.72 1566.09,1445.72 1566.88,1445.72 1567.55,1445.72 1568.48,1445.72 1569.21,1445.72 1570.02,1445.72 1570.79,1445.72 1571.58,1445.72 1572.36,1445.72 1573.15,1445.72 1573.93,1445.72 1574.72,1445.72 1575.51,1445.72 1576.29,1445.72 1577.08,1445.72 1577.88,1445.72 1578.67,1445.72 1579.46,1445.72 1580.26,1445.72 1581.06,1445.72 1581.86,1445.72 1582.67,1445.72 1583.47,1445.72 1584.28,1445.72 1585.1,1445.72 1585.91,1445.72 1586.73,1445.72 1587.55,1445.72 1588.38,1445.72 1589.2,1445.72 1590.04,1445.72 1590.87,1445.72 1591.71,1445.72 1592.56,1445.72 1593.4,1445.72 1594.26,1445.72 1595.11,1445.72 1595.98,1445.72 1596.84,1445.72 1597.71,1445.72 1598.59,1445.72 1599.47,1445.72 1600.36,1445.72 1601.26,1445.72 1602.16,1445.72 1603.06,1445.72 1603.98,1445.72 1604.9,1445.72 1605.83,1445.72 1606.76,1445.72 1607.71,1445.72 1608.66,1445.72 1609.62,1445.72 1610.59,1445.72 1611.56,1445.72 1612.55,1445.72 1613.55,1445.72 1614.56,1445.72 1615.58,1445.72 1616.61,1445.72 1617.65,1445.72 1618.71,1445.72 1619.78,1445.72 1620.86,1445.72 1621.96,1445.72 1623.08,1445.72 1624.21,1445.72 1625.36,1445.72 1626.53,1445.72 1627.72,1445.72 1628.93,1445.72 1630.16,1445.72 1631.42,1445.72 1632.7,1445.72 1634.02,1445.72 1635.36,1445.72 1636.74,1445.72 1638.16,1445.72 1639.61,1445.72 1641.12,1445.72 1642.67,1445.72 1644.28,1445.72 1645.95,1445.72 1647.69,1445.72 1649.52,1445.72 1651.46,1445.72 1653.51,1445.72 1655.71,1445.72 1658.1,1445.72 1660.76,1445.72 1663.8,1445.72 1667.53,1445.72 1671.45,1445.72 1675.36,1445.72 1678.81,1445.72 1682.23,1445.72 1685.45,1445.72 1688.52,1445.72 1691.41,1445.72 1694.12,1445.72 1696.67,1445.72 1699.06,1445.72 1701.3,1445.72 1703.41,1445.72 1705.39,1445.72 1707.27,1445.72 1709.05,1445.72 1710.74,1445.72 1712.35,1445.72 1713.89,1445.72 1715.37,1445.72 1716.79,1445.72 1718.15,1445.72 1719.48,1445.72 1720.76,1445.72 1722,1445.72 1723.2,1445.72 1724.38,1445.72 1725.52,1445.72 1726.64,1445.72 1727.74,1445.72 1728.81,1445.72 1729.86,1445.72 1730.89,1445.72 1731.91,1445.72 1732.91,1445.72 1733.89,1445.72 1734.86,1445.72 1735.81,1445.72 1736.76,1445.72 1737.69,1445.72 1738.61,1445.72 1739.52,1445.72 1740.41,1445.72 1741.3,1445.72 1742.19,1445.72 1743.06,1445.72 1743.92,1445.72 1744.78,1445.72 1745.63,1445.72 1746.47,1445.72 1747.31,1445.72 1748.14,1445.72 1748.96,1445.72 1749.78,1445.72 1750.59,1445.72 1751.39,1445.72 1752.19,1445.72 1752.99,1445.72 1753.78,1445.72 1754.57,1445.72 1755.35,1445.72 1756.13,1445.72 1756.9,1445.72 1757.67,1445.72 1758.44,1445.72 1759.2,1445.72 1759.96,1445.72 1760.71,1445.72 1761.46,1445.72 1762.21,1445.72 1762.96,1445.72 1763.7,1445.72 1764.44,1445.72 1765.17,1445.72 1765.91,1445.72 1766.64,1445.72 1767.37,1445.72 1768.09,1445.72 1768.82,1445.72 1769.54,1445.72 1770.26,1445.72 1770.98,1445.72 1771.69,1445.72 1772.72,1445.72 1773.7,1445.72 1774.29,1445.72 1775.04,1445.72 1775.72,1445.72 1776.43,1445.72 1777.13,1445.72 1777.84,1445.72 1778.55,1445.72 1779.26,1445.72 1779.97,1445.72 1780.69,1445.72 1781.4,1445.72 1782.12,1445.72 1782.84,1445.72 1783.56,1445.72 1784.29,1445.72 1785.01,1445.72 1785.74,1445.72 1786.47,1445.72 1787.21,1445.72 1787.94,1445.72 1788.68,1445.72 1789.42,1445.72 1790.17,1445.72 1790.91,1445.72 1791.66,1445.72 1792.42,1445.72 1793.17,1445.72 1793.93,1445.72 1794.69,1445.72 1795.46,1445.72 1796.22,1445.72 1797,1445.72 1797.77,1445.72 1798.55,1445.72 1799.33,1445.72 1800.12,1445.72 1800.91,1445.72 1801.71,1445.72 1802.51,1445.72 1803.31,1445.72 1804.12,1445.72 1804.94,1445.72 1805.76,1445.72 1806.58,1445.72 1807.41,1445.72 1808.25,1445.72 1809.09,1445.72 1809.94,1445.72 1810.79,1445.72 1811.65,1445.72 1812.52,1445.72 1813.39,1445.72 1814.28,1445.72 1815.16,1445.72 1816.06,1445.72 1816.97,1445.72 1817.88,1445.72 1818.8,1445.72 1819.73,1445.72 1820.67,1445.72 1821.62,1445.72 1822.58,1445.72 1823.56,1445.72 1824.54,1445.72 1825.54,1445.72 1826.54,1445.72 1827.56,1445.72 1828.6,1445.72 1829.65,1445.72 1830.72,1445.72 1831.8,1445.72 1832.9,1445.72 1834.01,1445.72 1835.15,1445.72 1836.31,1445.72 1837.49,1445.72 1838.7,1445.72 1839.93,1445.72 1841.19,1445.72 1842.48,1445.72 1843.8,1445.72 1845.16,1445.72 1846.56,1445.72 1848,1445.72 1849.49,1445.72 1851.04,1445.72 1852.65,1445.72 1854.33,1445.72 1856.1,1445.72 1857.96,1445.72 1859.95,1445.72 1862.09,1445.72 1864.42,1445.72 1867.03,1445.72 1870.07,1445.72 1873.91,1445.72 1877.83,1445.72 1881.22,1445.72 1884.54,1445.72 1887.68,1445.72 1890.69,1445.72 1893.52,1445.72 1896.2,1445.72 1898.7,1445.72 1901.05,1445.72 1903.26,1445.72 1905.33,1445.72 1907.28,1445.72 1909.12,1445.72 1910.87,1445.72 1912.52,1445.72 1914.09,1445.72 1915.6,1445.72 1917.04,1445.72 1918.42,1445.72 1919.75,1445.72 1921.03,1445.72 1922.27,1445.72 1923.48,1445.72 1924.65,1445.72 1925.78,1445.72 1926.89,1445.72 1927.97,1445.72 1929.03,1445.72 1930.07,1445.72 1931.08,1445.72 1932.08,1445.72 1933.06,1445.72 1934.02,1445.72 1934.97,1445.72 1935.9,1445.72 1936.82,1445.72 1937.73,1445.72 1938.63,1445.72 1939.51,1445.72 1940.39,1445.72 1941.25,1445.72 1942.11,1445.72 1942.95,1445.72 1943.79,1445.72 1944.62,1445.72 1945.44,1445.72 1946.26,1445.72 1947.06,1445.72 1947.86,1445.72 1948.66,1445.72 1949.45,1445.72 1950.23,1445.72 1951,1445.72 1951.77,1445.72 1952.54,1445.72 1953.3,1445.72 1954.06,1445.72 1954.81,1445.72 1955.55,1445.72 1956.29,1445.72 1957.03,1445.72 1957.77,1445.72 1958.49,1445.72 1959.22,1445.72 1959.94,1445.72 1960.66,1445.72 1961.37,1445.72 1962.08,1445.72 1962.79,1445.72 1963.5,1445.72 1964.2,1445.72 1964.9,1445.72 1965.59,1445.72 1966.28,1445.72 1966.97,1445.72 1967.66,1445.72 1968.34,1445.72 1969.03,1445.72 1969.7,1445.72 1970.38,1445.72 1971.06,1445.72 1971.73,1445.72 1972.4,1445.72 1973.07,1445.72 1973.73,1445.72 1974.4,1445.72 1975.06,1445.72 1975.72,1445.72 1976.38,1445.72 1977.04,1445.72 1977.6,1445.72 1978.29,1445.72 1978.91,1445.72 1979.57,1445.72 1980.21,1445.72 1980.86,1445.72 1981.51,1445.72 1982.16,1445.72 1982.81,1445.72 1983.47,1445.72 1984.12,1445.72 1984.78,1445.72 1985.44,1445.72 1986.1,1445.72 1986.77,1445.72 1987.43,1445.72 1988.1,1445.72 1988.77,1445.72 1989.44,1445.72 1990.11,1445.72 1990.79,1445.72 1991.46,1445.72 1992.14,1445.72 1992.82,1445.72 1993.51,1445.72 1994.19,1445.72 1994.88,1445.72 1995.57,1445.72 1996.26,1445.72 1996.96,1445.72 1997.66,1445.72 1998.36,1445.72 1999.06,1445.72 1999.77,1445.72 2000.48,1445.72 2001.19,1445.72 2001.91,1445.72 2002.63,1445.72 2003.35,1445.72 2004.08,1445.72 2004.81,1445.72 2005.54,1445.72 2006.28,1445.72 2007.02,1445.72 2007.77,1445.72 2008.51,1445.72 2009.27,1445.72 2010.03,1445.72 2010.79,1445.72 2011.56,1445.72 2012.33,1445.72 2013.1,1445.72 2013.89,1445.72 2014.67,1445.72 2015.47,1445.72 2016.26,1445.72 2017.07,1445.72 2017.88,1445.72 2018.69,1445.72 2019.52,1445.72 2020.35,1445.72 2021.18,1445.72 2022.02,1445.72 2022.88,1445.72 2023.73,1445.72 2024.6,1445.72 2025.47,1445.72 2026.36,1445.72 2027.25,1445.72 2028.15,1445.72 2029.06,1445.72 2029.98,1445.72 2030.92,1445.72 2031.86,1445.72 2032.81,1445.72 2033.78,1445.72 2034.76,1445.72 2035.75,1445.72 2036.76,1445.72 2037.78,1445.72 2038.82,1445.72 2039.88,1445.72 2040.95,1445.72 2042.04,1445.72 2043.15,1445.72 2044.29,1445.72 2045.45,1445.72 2046.63,1445.72 2047.84,1445.72 2049.08,1445.72 2050.35,1445.72 2051.65,1445.72 2053,1445.72 2054.38,1445.72 2055.82,1445.72 2057.3,1445.72 2058.85,1445.72 2060.47,1445.72 2062.16,1445.72 2063.96,1445.72 2065.87,1445.72 2067.93,1445.72 2070.18,1445.72 2072.71,1445.72 2075.65,1445.72 2079.45,1445.72 2083.36,1445.72 2085.4,1445.72 2088.12,1445.72 2090.51,1445.72 2093.02,1445.72 2095.42,1445.72 2097.77,1445.72 2100.01,1445.72 2102.17,1445.72 2104.22,1445.72 2106.18,1445.72 2108.04,1445.72 2109.81,1445.72 2111.5,1445.72 2113.12,1445.72 2114.66,1445.72 2116.14,1445.72 2117.56,1445.72 2118.93,1445.72 2120.25,1445.72 2121.52,1445.72 2122.76,1445.72 2123.95,1445.72 2125.11,1445.72 2126.24,1445.72 2127.34,1445.72 2128.42,1445.72 2129.47,1445.72 2130.5,1445.72 2131.5,1445.72 2132.49,1445.72 2133.46,1445.72 2134.41,1445.72 2135.35,1445.72 2136.27,1445.72 2137.18,1445.72 2138.07,1445.72 2138.95,1445.72 2139.83,1445.72 2140.69,1445.72 2141.54,1445.72 2142.38,1445.72 2143.21,1445.72 2144.03,1445.72 2144.84,1445.72 2145.65,1445.72 2146.44,1445.72 2147.23,1445.72 2148.02,1445.72 2148.79,1445.72 2149.56,1445.72 2150.33,1445.72 2151.08,1445.72 2151.84,1445.72 2152.58,1445.72 2153.32,1445.72 2154.06,1445.72 2154.79,1445.72 2155.51,1445.72 2156.23,1445.72 2156.95,1445.72 2157.66,1445.72 2158.37,1445.72 2159.07,1445.72 2159.77,1445.72 2160.47,1445.72 2161.16,1445.72 2161.84,1445.72 2162.53,1445.72 2163.21,1445.72 2163.89,1445.72 2164.56,1445.72 2165.23,1445.72 2165.9,1445.72 2166.56,1445.72 2167.22,1445.72 2167.88,1445.72 2168.54,1445.72 2169.19,1445.72 2169.84,1445.72 2170.49,1445.72 2171.13,1445.72 2171.78,1445.72 2172.42,1445.72 2173.05,1445.72 2173.69,1445.72 2174.32,1445.72 2174.95,1445.72 2175.58,1445.72 2176.21,1445.72 2176.84,1445.72 2177.46,1445.72 2178.08,1445.72 2178.7,1445.72 2179.32,1445.72 2179.93,1445.72 2180.55,1445.72 2181.16,1445.72 2181.77,1445.72 2182.43,1445.72 2183.2,1445.72 2183.79,1445.72 2184.45,1445.72 2185.08,1445.72 2185.71,1445.72 2186.34,1445.72 2186.96,1445.72 2187.59,1445.72 2188.21,1445.72 2188.83,1445.72 2189.45,1445.72 2190.08,1445.72 2190.7,1445.72 2191.32,1445.72 2191.95,1445.72 2192.57,1445.72 2193.2,1445.72 2193.83,1445.72 2194.45,1445.72 2195.09,1445.72 2195.72,1445.72 2196.35,1445.72 2196.99,1445.72 2197.62,1445.72 2198.26,1445.72 2198.91,1445.72 2199.55,1445.72 2200.2,1445.72 2200.84,1445.72 2201.49,1445.72 2202.15,1445.72 2202.8,1445.72 2203.46,1445.72 2204.12,1445.72 2204.78,1445.72 2205.45,1445.72 2206.12,1445.72 2206.79,1445.72 2207.46,1445.72 2208.14,1445.72 2208.82,1445.72 2209.51,1445.72 2210.19,1445.72 2210.88,1445.72 2211.58,1445.72 2212.28,1445.72 2212.98,1445.72 2213.68,1445.72 2214.39,1445.72 2215.1,1445.72 2215.82,1445.72 2216.54,1445.72 2217.27,1445.72 2218,1445.72 2218.73,1445.72 2219.47,1445.72 2220.22,1445.72 2220.97,1445.72 2221.72,1445.72 2222.48,1445.72 2223.24,1445.72 2224.01,1445.72 2224.79,1445.72 2225.57,1445.72 2226.36,1445.72 2227.16,1445.72 2227.96,1445.72 2228.77,1445.72 2229.58,1445.72 2230.41,1445.72 2231.24,1445.72 2232.07,1445.72 2232.92,1445.72 2233.78,1445.72 2234.64,1445.72 2235.51,1445.72 2236.4,1445.72 2237.29,1445.72 2238.19,1445.72 2239.11,1445.72 2240.04,1445.72 2240.97,1445.72 2241.93,1445.72 2242.89,1445.72 2243.87,1445.72 2244.86,1445.72 2245.87,1445.72 2246.9,1445.72 2247.94,1445.72 2249,1445.72 2250.09,1445.72 2251.19,1445.72 2252.32,1445.72 2253.47,1445.72 2254.65,1445.72 2255.85,1445.72 2257.09,1445.72 2258.37,1445.72 2259.68,1445.72 2261.04,1445.72 2262.44,1445.72 2263.9,1445.72 2265.41,1445.72 2267,1445.72 2268.67,1445.72 2270.45,1445.72 2272.34,1445.72 2274.4,1445.72 2276.66,1445.72 2279.23,1445.72 2282.33,1445.72 2286.24,1445.72 2290.16,1445.72 2293.48,1445.72 2294.02,1445.72 "/>
<path clip-path="url(#clip860)" d="M1676.42 250.738 L2283.58 250.738 L2283.58 95.2176 L1676.42 95.2176  Z" fill="#ffffff" fill-rule="evenodd" fill-opacity="1"/>
<polyline clip-path="url(#clip860)" style="stroke:#000000; stroke-linecap:round; stroke-linejoin:round; stroke-width:4; stroke-opacity:1; fill:none" points="1676.42,250.738 2283.58,250.738 2283.58,95.2176 1676.42,95.2176 1676.42,250.738 "/>
<polyline clip-path="url(#clip860)" style="stroke:#009af9; stroke-linecap:round; stroke-linejoin:round; stroke-width:4; stroke-opacity:1; fill:none" points="1699.48,147.058 1837.83,147.058 "/>
<path clip-path="url(#clip860)" d="M1876.72 134.384 L1870.38 151.583 L1883.09 151.583 L1876.72 134.384 M1874.09 129.778 L1879.39 129.778 L1892.56 164.338 L1887.7 164.338 L1884.55 155.472 L1868.97 155.472 L1865.82 164.338 L1860.89 164.338 L1874.09 129.778 Z" fill="#000000" fill-rule="evenodd" fill-opacity="1" /><path clip-path="url(#clip860)" d="M1901.54 160.449 L1901.54 174.199 L1897.26 174.199 L1897.26 138.412 L1901.54 138.412 L1901.54 142.347 Q1902.88 140.032 1904.92 138.921 Q1906.98 137.787 1909.83 137.787 Q1914.55 137.787 1917.49 141.537 Q1920.45 145.287 1920.45 151.398 Q1920.45 157.509 1917.49 161.259 Q1914.55 165.009 1909.83 165.009 Q1906.98 165.009 1904.92 163.898 Q1902.88 162.763 1901.54 160.449 M1916.03 151.398 Q1916.03 146.699 1914.09 144.037 Q1912.16 141.352 1908.79 141.352 Q1905.41 141.352 1903.46 144.037 Q1901.54 146.699 1901.54 151.398 Q1901.54 156.097 1903.46 158.782 Q1905.41 161.444 1908.79 161.444 Q1912.16 161.444 1914.09 158.782 Q1916.03 156.097 1916.03 151.398 Z" fill="#000000" fill-rule="evenodd" fill-opacity="1" /><path clip-path="url(#clip860)" d="M1927.35 138.412 L1933.58 138.412 L1940.94 155.773 L1948.32 138.412 L1954.5 138.412 L1954.5 164.338 L1950.22 164.338 L1950.22 142.486 L1943.07 159.361 L1938.81 159.361 L1931.63 142.486 L1931.63 164.338 L1927.35 164.338 L1927.35 138.412 Z" fill="#000000" fill-rule="evenodd" fill-opacity="1" /><path clip-path="url(#clip860)" d="M1985.31 138.412 L1985.31 164.338 L1981.08 164.338 L1981.08 143.527 L1968.58 164.338 L1963.11 164.338 L1963.11 138.412 L1967.35 138.412 L1967.35 159.176 L1979.83 138.412 L1985.31 138.412 Z" fill="#000000" fill-rule="evenodd" fill-opacity="1" /><path clip-path="url(#clip860)" d="M1998.37 145.889 Q1998.37 147.81 1999.85 148.898 Q2001.33 149.986 2004.09 149.986 L2009.83 149.986 L2009.83 141.815 L2004.09 141.815 Q2001.33 141.815 1999.85 142.879 Q1998.37 143.944 1998.37 145.889 M1992.3 164.338 L2000.22 152.972 Q1997.53 152.37 1995.75 150.796 Q1993.97 149.199 1993.97 145.889 Q1993.97 142.139 1996.45 140.287 Q1998.95 138.412 2003.97 138.412 L2014.11 138.412 L2014.11 164.338 L2009.83 164.338 L2009.83 153.389 L2004.53 153.389 L1996.89 164.338 L1992.3 164.338 Z" fill="#000000" fill-rule="evenodd" fill-opacity="1" /><path clip-path="url(#clip860)" d="M2056.33 139.407 L2056.33 143.389 Q2054.52 142.393 2052.7 141.907 Q2050.89 141.398 2049.04 141.398 Q2044.9 141.398 2042.6 144.037 Q2040.31 146.652 2040.31 151.398 Q2040.31 156.143 2042.6 158.782 Q2044.9 161.398 2049.04 161.398 Q2050.89 161.398 2052.7 160.912 Q2054.52 160.402 2056.33 159.407 L2056.33 163.342 Q2054.55 164.176 2052.63 164.592 Q2050.73 165.009 2048.58 165.009 Q2042.72 165.009 2039.27 161.328 Q2035.82 157.648 2035.82 151.398 Q2035.82 145.055 2039.29 141.421 Q2042.79 137.787 2048.85 137.787 Q2050.82 137.787 2052.7 138.203 Q2054.57 138.597 2056.33 139.407 Z" fill="#000000" fill-rule="evenodd" fill-opacity="1" /><path clip-path="url(#clip860)" d="M2060.66 138.412 L2085.5 138.412 L2085.5 141.815 L2075.17 141.815 L2075.17 164.338 L2070.98 164.338 L2070.98 141.815 L2060.66 141.815 L2060.66 138.412 Z" fill="#000000" fill-rule="evenodd" fill-opacity="1" /><path clip-path="url(#clip860)" d="M2095.47 160.449 L2095.47 174.199 L2091.19 174.199 L2091.19 138.412 L2095.47 138.412 L2095.47 142.347 Q2096.82 140.032 2098.85 138.921 Q2100.91 137.787 2103.76 137.787 Q2108.48 137.787 2111.42 141.537 Q2114.39 145.287 2114.39 151.398 Q2114.39 157.509 2111.42 161.259 Q2108.48 165.009 2103.76 165.009 Q2100.91 165.009 2098.85 163.898 Q2096.82 162.763 2095.47 160.449 M2109.96 151.398 Q2109.96 146.699 2108.02 144.037 Q2106.1 141.352 2102.72 141.352 Q2099.34 141.352 2097.4 144.037 Q2095.47 146.699 2095.47 151.398 Q2095.47 156.097 2097.4 158.782 Q2099.34 161.444 2102.72 161.444 Q2106.1 161.444 2108.02 158.782 Q2109.96 156.097 2109.96 151.398 Z" fill="#000000" fill-rule="evenodd" fill-opacity="1" /><path clip-path="url(#clip860)" d="M2133.23 151.305 Q2128.07 151.305 2126.08 152.486 Q2124.08 153.666 2124.08 156.514 Q2124.08 158.782 2125.57 160.125 Q2127.07 161.444 2129.64 161.444 Q2133.18 161.444 2135.31 158.944 Q2137.46 156.421 2137.46 152.254 L2137.46 151.305 L2133.23 151.305 M2141.72 149.546 L2141.72 164.338 L2137.46 164.338 L2137.46 160.402 Q2136.01 162.763 2133.83 163.898 Q2131.65 165.009 2128.51 165.009 Q2124.52 165.009 2122.16 162.787 Q2119.83 160.541 2119.83 156.791 Q2119.83 152.416 2122.74 150.194 Q2125.68 147.972 2131.49 147.972 L2137.46 147.972 L2137.46 147.555 Q2137.46 144.615 2135.52 143.018 Q2133.6 141.398 2130.1 141.398 Q2127.88 141.398 2125.77 141.93 Q2123.67 142.463 2121.72 143.527 L2121.72 139.592 Q2124.06 138.69 2126.26 138.25 Q2128.46 137.787 2130.54 137.787 Q2136.17 137.787 2138.95 140.703 Q2141.72 143.62 2141.72 149.546 Z" fill="#000000" fill-rule="evenodd" fill-opacity="1" /><path clip-path="url(#clip860)" d="M2150.33 138.412 L2154.62 138.412 L2154.62 148.99 L2168.44 148.99 L2168.44 138.412 L2172.72 138.412 L2172.72 164.338 L2168.44 164.338 L2168.44 152.393 L2154.62 152.393 L2154.62 164.338 L2150.33 164.338 L2150.33 138.412 Z" fill="#000000" fill-rule="evenodd" fill-opacity="1" /><path clip-path="url(#clip860)" d="M2205.98 138.412 L2210.24 138.412 L2210.24 164.338 L2205.98 164.338 L2205.98 138.412 M2208.11 137.787 L2208.11 137.787 M2197.63 156.652 Q2197.63 154.569 2196.1 153.481 Q2194.59 152.393 2191.68 152.393 L2185.61 152.393 L2185.61 160.935 L2191.68 160.935 Q2194.59 160.935 2196.1 159.847 Q2197.63 158.736 2197.63 156.652 M2181.33 138.412 L2185.61 138.412 L2185.61 148.99 L2191.86 148.99 Q2196.82 148.99 2199.48 150.889 Q2202.16 152.764 2202.16 156.652 Q2202.16 160.541 2199.48 162.439 Q2196.82 164.338 2191.86 164.338 L2181.33 164.338 L2181.33 138.412 Z" fill="#000000" fill-rule="evenodd" fill-opacity="1" /><path clip-path="url(#clip860)" d="M2232.51 129.778 L2237.53 129.778 L2246.12 142.625 L2254.76 129.778 L2259.78 129.778 L2248.67 146.375 L2260.52 164.338 L2255.5 164.338 L2245.77 149.639 L2235.98 164.338 L2230.94 164.338 L2243.27 145.889 L2232.51 129.778 Z" fill="#000000" fill-rule="evenodd" fill-opacity="1" /><polyline clip-path="url(#clip860)" style="stroke:#e26f46; stroke-linecap:round; stroke-linejoin:round; stroke-width:4; stroke-opacity:1; fill:none" points="1699.48,198.898 1837.83,198.898 "/>
<path clip-path="url(#clip860)" d="M1876.72 186.224 L1870.38 203.423 L1883.09 203.423 L1876.72 186.224 M1874.09 181.618 L1879.39 181.618 L1892.56 216.178 L1887.7 216.178 L1884.55 207.312 L1868.97 207.312 L1865.82 216.178 L1860.89 216.178 L1874.09 181.618 Z" fill="#000000" fill-rule="evenodd" fill-opacity="1" /><path clip-path="url(#clip860)" d="M1901.54 212.289 L1901.54 226.039 L1897.26 226.039 L1897.26 190.252 L1901.54 190.252 L1901.54 194.187 Q1902.88 191.872 1904.92 190.761 Q1906.98 189.627 1909.83 189.627 Q1914.55 189.627 1917.49 193.377 Q1920.45 197.127 1920.45 203.238 Q1920.45 209.349 1917.49 213.099 Q1914.55 216.849 1909.83 216.849 Q1906.98 216.849 1904.92 215.738 Q1902.88 214.603 1901.54 212.289 M1916.03 203.238 Q1916.03 198.539 1914.09 195.877 Q1912.16 193.192 1908.79 193.192 Q1905.41 193.192 1903.46 195.877 Q1901.54 198.539 1901.54 203.238 Q1901.54 207.937 1903.46 210.622 Q1905.41 213.284 1908.79 213.284 Q1912.16 213.284 1914.09 210.622 Q1916.03 207.937 1916.03 203.238 Z" fill="#000000" fill-rule="evenodd" fill-opacity="1" /><path clip-path="url(#clip860)" d="M1927.35 190.252 L1933.58 190.252 L1940.94 207.613 L1948.32 190.252 L1954.5 190.252 L1954.5 216.178 L1950.22 216.178 L1950.22 194.326 L1943.07 211.201 L1938.81 211.201 L1931.63 194.326 L1931.63 216.178 L1927.35 216.178 L1927.35 190.252 Z" fill="#000000" fill-rule="evenodd" fill-opacity="1" /><path clip-path="url(#clip860)" d="M1985.31 190.252 L1985.31 216.178 L1981.08 216.178 L1981.08 195.367 L1968.58 216.178 L1963.11 216.178 L1963.11 190.252 L1967.35 190.252 L1967.35 211.016 L1979.83 190.252 L1985.31 190.252 Z" fill="#000000" fill-rule="evenodd" fill-opacity="1" /><path clip-path="url(#clip860)" d="M1998.37 197.729 Q1998.37 199.65 1999.85 200.738 Q2001.33 201.826 2004.09 201.826 L2009.83 201.826 L2009.83 193.655 L2004.09 193.655 Q2001.33 193.655 1999.85 194.719 Q1998.37 195.784 1998.37 197.729 M1992.3 216.178 L2000.22 204.812 Q1997.53 204.21 1995.75 202.636 Q1993.97 201.039 1993.97 197.729 Q1993.97 193.979 1996.45 192.127 Q1998.95 190.252 2003.97 190.252 L2014.11 190.252 L2014.11 216.178 L2009.83 216.178 L2009.83 205.229 L2004.53 205.229 L1996.89 216.178 L1992.3 216.178 Z" fill="#000000" fill-rule="evenodd" fill-opacity="1" /><path clip-path="url(#clip860)" d="M2056.33 191.247 L2056.33 195.229 Q2054.52 194.233 2052.7 193.747 Q2050.89 193.238 2049.04 193.238 Q2044.9 193.238 2042.6 195.877 Q2040.31 198.492 2040.31 203.238 Q2040.31 207.983 2042.6 210.622 Q2044.9 213.238 2049.04 213.238 Q2050.89 213.238 2052.7 212.752 Q2054.52 212.242 2056.33 211.247 L2056.33 215.182 Q2054.55 216.016 2052.63 216.432 Q2050.73 216.849 2048.58 216.849 Q2042.72 216.849 2039.27 213.168 Q2035.82 209.488 2035.82 203.238 Q2035.82 196.895 2039.29 193.261 Q2042.79 189.627 2048.85 189.627 Q2050.82 189.627 2052.7 190.043 Q2054.57 190.437 2056.33 191.247 Z" fill="#000000" fill-rule="evenodd" fill-opacity="1" /><path clip-path="url(#clip860)" d="M2060.66 190.252 L2085.5 190.252 L2085.5 193.655 L2075.17 193.655 L2075.17 216.178 L2070.98 216.178 L2070.98 193.655 L2060.66 193.655 L2060.66 190.252 Z" fill="#000000" fill-rule="evenodd" fill-opacity="1" /><path clip-path="url(#clip860)" d="M2095.47 212.289 L2095.47 226.039 L2091.19 226.039 L2091.19 190.252 L2095.47 190.252 L2095.47 194.187 Q2096.82 191.872 2098.85 190.761 Q2100.91 189.627 2103.76 189.627 Q2108.48 189.627 2111.42 193.377 Q2114.39 197.127 2114.39 203.238 Q2114.39 209.349 2111.42 213.099 Q2108.48 216.849 2103.76 216.849 Q2100.91 216.849 2098.85 215.738 Q2096.82 214.603 2095.47 212.289 M2109.96 203.238 Q2109.96 198.539 2108.02 195.877 Q2106.1 193.192 2102.72 193.192 Q2099.34 193.192 2097.4 195.877 Q2095.47 198.539 2095.47 203.238 Q2095.47 207.937 2097.4 210.622 Q2099.34 213.284 2102.72 213.284 Q2106.1 213.284 2108.02 210.622 Q2109.96 207.937 2109.96 203.238 Z" fill="#000000" fill-rule="evenodd" fill-opacity="1" /><path clip-path="url(#clip860)" d="M2133.23 203.145 Q2128.07 203.145 2126.08 204.326 Q2124.08 205.506 2124.08 208.354 Q2124.08 210.622 2125.57 211.965 Q2127.07 213.284 2129.64 213.284 Q2133.18 213.284 2135.31 210.784 Q2137.46 208.261 2137.46 204.094 L2137.46 203.145 L2133.23 203.145 M2141.72 201.386 L2141.72 216.178 L2137.46 216.178 L2137.46 212.242 Q2136.01 214.603 2133.83 215.738 Q2131.65 216.849 2128.51 216.849 Q2124.52 216.849 2122.16 214.627 Q2119.83 212.381 2119.83 208.631 Q2119.83 204.256 2122.74 202.034 Q2125.68 199.812 2131.49 199.812 L2137.46 199.812 L2137.46 199.395 Q2137.46 196.455 2135.52 194.858 Q2133.6 193.238 2130.1 193.238 Q2127.88 193.238 2125.77 193.77 Q2123.67 194.303 2121.72 195.367 L2121.72 191.432 Q2124.06 190.53 2126.26 190.09 Q2128.46 189.627 2130.54 189.627 Q2136.17 189.627 2138.95 192.543 Q2141.72 195.46 2141.72 201.386 Z" fill="#000000" fill-rule="evenodd" fill-opacity="1" /><path clip-path="url(#clip860)" d="M2150.33 190.252 L2154.62 190.252 L2154.62 200.83 L2168.44 200.83 L2168.44 190.252 L2172.72 190.252 L2172.72 216.178 L2168.44 216.178 L2168.44 204.233 L2154.62 204.233 L2154.62 216.178 L2150.33 216.178 L2150.33 190.252 Z" fill="#000000" fill-rule="evenodd" fill-opacity="1" /><path clip-path="url(#clip860)" d="M2205.98 190.252 L2210.24 190.252 L2210.24 216.178 L2205.98 216.178 L2205.98 190.252 M2208.11 189.627 L2208.11 189.627 M2197.63 208.492 Q2197.63 206.409 2196.1 205.321 Q2194.59 204.233 2191.68 204.233 L2185.61 204.233 L2185.61 212.775 L2191.68 212.775 Q2194.59 212.775 2196.1 211.687 Q2197.63 210.576 2197.63 208.492 M2181.33 190.252 L2185.61 190.252 L2185.61 200.83 L2191.86 200.83 Q2196.82 200.83 2199.48 202.729 Q2202.16 204.604 2202.16 208.492 Q2202.16 212.381 2199.48 214.279 Q2196.82 216.178 2191.86 216.178 L2181.33 216.178 L2181.33 190.252 Z" fill="#000000" fill-rule="evenodd" fill-opacity="1" /><path clip-path="url(#clip860)" d="M2229.43 181.618 L2234.45 181.618 L2244.04 195.83 L2253.55 181.618 L2258.57 181.618 L2246.35 199.719 L2246.35 216.178 L2241.65 216.178 L2241.65 199.719 L2229.43 181.618 Z" fill="#000000" fill-rule="evenodd" fill-opacity="1" /></svg>
