<?xml version="1.0" encoding="utf-8"?>
<svg xmlns="http://www.w3.org/2000/svg" xmlns:xlink="http://www.w3.org/1999/xlink" width="600" height="400" viewBox="0 0 2400 1600">
<defs>
  <clipPath id="clip700">
    <rect x="0" y="0" width="2400" height="1600"/>
  </clipPath>
</defs>
<path clip-path="url(#clip700)" d="M0 1600 L2400 1600 L2400 0 L0 0  Z" fill="#ffffff" fill-rule="evenodd" fill-opacity="1"/>
<defs>
  <clipPath id="clip701">
    <rect x="480" y="0" width="1681" height="1600"/>
  </clipPath>
</defs>
<path clip-path="url(#clip700)" d="M314.445 1486.45 L2352.76 1486.45 L2352.76 47.2441 L314.445 47.2441  Z" fill="#ffffff" fill-rule="evenodd" fill-opacity="1"/>
<defs>
  <clipPath id="clip702">
    <rect x="314" y="47" width="2039" height="1440"/>
  </clipPath>
</defs>
<polyline clip-path="url(#clip702)" style="stroke:#000000; stroke-linecap:round; stroke-linejoin:round; stroke-width:2; stroke-opacity:0.1; fill:none" points="372.133,1486.45 372.133,47.2441 "/>
<polyline clip-path="url(#clip702)" style="stroke:#000000; stroke-linecap:round; stroke-linejoin:round; stroke-width:2; stroke-opacity:0.1; fill:none" points="756.72,1486.45 756.72,47.2441 "/>
<polyline clip-path="url(#clip702)" style="stroke:#000000; stroke-linecap:round; stroke-linejoin:round; stroke-width:2; stroke-opacity:0.1; fill:none" points="1141.31,1486.45 1141.31,47.2441 "/>
<polyline clip-path="url(#clip702)" style="stroke:#000000; stroke-linecap:round; stroke-linejoin:round; stroke-width:2; stroke-opacity:0.1; fill:none" points="1525.89,1486.45 1525.89,47.2441 "/>
<polyline clip-path="url(#clip702)" style="stroke:#000000; stroke-linecap:round; stroke-linejoin:round; stroke-width:2; stroke-opacity:0.1; fill:none" points="1910.48,1486.45 1910.48,47.2441 "/>
<polyline clip-path="url(#clip702)" style="stroke:#000000; stroke-linecap:round; stroke-linejoin:round; stroke-width:2; stroke-opacity:0.1; fill:none" points="2295.07,1486.45 2295.07,47.2441 "/>
<polyline clip-path="url(#clip700)" style="stroke:#000000; stroke-linecap:round; stroke-linejoin:round; stroke-width:4; stroke-opacity:1; fill:none" points="314.445,1486.45 2352.76,1486.45 "/>
<polyline clip-path="url(#clip700)" style="stroke:#000000; stroke-linecap:round; stroke-linejoin:round; stroke-width:4; stroke-opacity:1; fill:none" points="372.133,1486.45 372.133,1467.55 "/>
<polyline clip-path="url(#clip700)" style="stroke:#000000; stroke-linecap:round; stroke-linejoin:round; stroke-width:4; stroke-opacity:1; fill:none" points="756.72,1486.45 756.72,1467.55 "/>
<polyline clip-path="url(#clip700)" style="stroke:#000000; stroke-linecap:round; stroke-linejoin:round; stroke-width:4; stroke-opacity:1; fill:none" points="1141.31,1486.45 1141.31,1467.55 "/>
<polyline clip-path="url(#clip700)" style="stroke:#000000; stroke-linecap:round; stroke-linejoin:round; stroke-width:4; stroke-opacity:1; fill:none" points="1525.89,1486.45 1525.89,1467.55 "/>
<polyline clip-path="url(#clip700)" style="stroke:#000000; stroke-linecap:round; stroke-linejoin:round; stroke-width:4; stroke-opacity:1; fill:none" points="1910.48,1486.45 1910.48,1467.55 "/>
<polyline clip-path="url(#clip700)" style="stroke:#000000; stroke-linecap:round; stroke-linejoin:round; stroke-width:4; stroke-opacity:1; fill:none" points="2295.07,1486.45 2295.07,1467.55 "/>
<path clip-path="url(#clip700)" d="M372.133 1517.37 Q368.522 1517.37 366.693 1520.93 Q364.887 1524.47 364.887 1531.6 Q364.887 1538.71 366.693 1542.27 Q368.522 1545.82 372.133 1545.82 Q375.767 1545.82 377.572 1542.27 Q379.401 1538.71 379.401 1531.6 Q379.401 1524.47 377.572 1520.93 Q375.767 1517.37 372.133 1517.37 M372.133 1513.66 Q377.943 1513.66 380.998 1518.27 Q384.077 1522.85 384.077 1531.6 Q384.077 1540.33 380.998 1544.94 Q377.943 1549.52 372.133 1549.52 Q366.323 1549.52 363.244 1544.94 Q360.188 1540.33 360.188 1531.6 Q360.188 1522.85 363.244 1518.27 Q366.323 1513.66 372.133 1513.66 Z" fill="#000000" fill-rule="evenodd" fill-opacity="1" /><path clip-path="url(#clip700)" d="M747.102 1544.91 L754.741 1544.91 L754.741 1518.55 L746.43 1520.21 L746.43 1515.95 L754.694 1514.29 L759.37 1514.29 L759.37 1544.91 L767.009 1544.91 L767.009 1548.85 L747.102 1548.85 L747.102 1544.91 Z" fill="#000000" fill-rule="evenodd" fill-opacity="1" /><path clip-path="url(#clip700)" d="M1135.96 1544.91 L1152.28 1544.91 L1152.28 1548.85 L1130.33 1548.85 L1130.33 1544.91 Q1133 1542.16 1137.58 1537.53 Q1142.19 1532.88 1143.37 1531.53 Q1145.61 1529.01 1146.49 1527.27 Q1147.39 1525.51 1147.39 1523.82 Q1147.39 1521.07 1145.45 1519.33 Q1143.53 1517.6 1140.43 1517.6 Q1138.23 1517.6 1135.77 1518.36 Q1133.34 1519.13 1130.57 1520.68 L1130.57 1515.95 Q1133.39 1514.82 1135.84 1514.24 Q1138.3 1513.66 1140.33 1513.66 Q1145.7 1513.66 1148.9 1516.35 Q1152.09 1519.03 1152.09 1523.52 Q1152.09 1525.65 1151.28 1527.57 Q1150.5 1529.47 1148.39 1532.07 Q1147.81 1532.74 1144.71 1535.95 Q1141.61 1539.15 1135.96 1544.91 Z" fill="#000000" fill-rule="evenodd" fill-opacity="1" /><path clip-path="url(#clip700)" d="M1530.14 1530.21 Q1533.5 1530.93 1535.37 1533.2 Q1537.27 1535.47 1537.27 1538.8 Q1537.27 1543.92 1533.75 1546.72 Q1530.23 1549.52 1523.75 1549.52 Q1521.58 1549.52 1519.26 1549.08 Q1516.97 1548.66 1514.52 1547.81 L1514.52 1543.29 Q1516.46 1544.43 1518.78 1545.01 Q1521.09 1545.58 1523.61 1545.58 Q1528.01 1545.58 1530.3 1543.85 Q1532.62 1542.11 1532.62 1538.8 Q1532.62 1535.75 1530.47 1534.03 Q1528.34 1532.3 1524.52 1532.3 L1520.49 1532.3 L1520.49 1528.45 L1524.7 1528.45 Q1528.15 1528.45 1529.98 1527.09 Q1531.81 1525.7 1531.81 1523.11 Q1531.81 1520.45 1529.91 1519.03 Q1528.03 1517.6 1524.52 1517.6 Q1522.6 1517.6 1520.4 1518.01 Q1518.2 1518.43 1515.56 1519.31 L1515.56 1515.14 Q1518.22 1514.4 1520.54 1514.03 Q1522.87 1513.66 1524.93 1513.66 Q1530.26 1513.66 1533.36 1516.09 Q1536.46 1518.5 1536.46 1522.62 Q1536.46 1525.49 1534.82 1527.48 Q1533.17 1529.45 1530.14 1530.21 Z" fill="#000000" fill-rule="evenodd" fill-opacity="1" /><path clip-path="url(#clip700)" d="M1913.49 1518.36 L1901.68 1536.81 L1913.49 1536.81 L1913.49 1518.36 M1912.26 1514.29 L1918.14 1514.29 L1918.14 1536.81 L1923.07 1536.81 L1923.07 1540.7 L1918.14 1540.7 L1918.14 1548.85 L1913.49 1548.85 L1913.49 1540.7 L1897.89 1540.7 L1897.89 1536.19 L1912.26 1514.29 Z" fill="#000000" fill-rule="evenodd" fill-opacity="1" /><path clip-path="url(#clip700)" d="M2285.35 1514.29 L2303.7 1514.29 L2303.7 1518.22 L2289.63 1518.22 L2289.63 1526.7 Q2290.65 1526.35 2291.67 1526.19 Q2292.68 1526 2293.7 1526 Q2299.49 1526 2302.87 1529.17 Q2306.25 1532.34 2306.25 1537.76 Q2306.25 1543.34 2302.78 1546.44 Q2299.3 1549.52 2292.98 1549.52 Q2290.81 1549.52 2288.54 1549.15 Q2286.29 1548.78 2283.89 1548.04 L2283.89 1543.34 Q2285.97 1544.47 2288.19 1545.03 Q2290.42 1545.58 2292.89 1545.58 Q2296.9 1545.58 2299.23 1543.48 Q2301.57 1541.37 2301.57 1537.76 Q2301.57 1534.15 2299.23 1532.04 Q2296.9 1529.94 2292.89 1529.94 Q2291.02 1529.94 2289.14 1530.35 Q2287.29 1530.77 2285.35 1531.65 L2285.35 1514.29 Z" fill="#000000" fill-rule="evenodd" fill-opacity="1" /><polyline clip-path="url(#clip702)" style="stroke:#000000; stroke-linecap:round; stroke-linejoin:round; stroke-width:2; stroke-opacity:0.1; fill:none" points="314.445,1402.22 2352.76,1402.22 "/>
<polyline clip-path="url(#clip702)" style="stroke:#000000; stroke-linecap:round; stroke-linejoin:round; stroke-width:2; stroke-opacity:0.1; fill:none" points="314.445,1197.19 2352.76,1197.19 "/>
<polyline clip-path="url(#clip702)" style="stroke:#000000; stroke-linecap:round; stroke-linejoin:round; stroke-width:2; stroke-opacity:0.1; fill:none" points="314.445,992.161 2352.76,992.161 "/>
<polyline clip-path="url(#clip702)" style="stroke:#000000; stroke-linecap:round; stroke-linejoin:round; stroke-width:2; stroke-opacity:0.1; fill:none" points="314.445,787.13 2352.76,787.13 "/>
<polyline clip-path="url(#clip702)" style="stroke:#000000; stroke-linecap:round; stroke-linejoin:round; stroke-width:2; stroke-opacity:0.1; fill:none" points="314.445,582.1 2352.76,582.1 "/>
<polyline clip-path="url(#clip702)" style="stroke:#000000; stroke-linecap:round; stroke-linejoin:round; stroke-width:2; stroke-opacity:0.1; fill:none" points="314.445,377.069 2352.76,377.069 "/>
<polyline clip-path="url(#clip702)" style="stroke:#000000; stroke-linecap:round; stroke-linejoin:round; stroke-width:2; stroke-opacity:0.1; fill:none" points="314.445,172.039 2352.76,172.039 "/>
<polyline clip-path="url(#clip700)" style="stroke:#000000; stroke-linecap:round; stroke-linejoin:round; stroke-width:4; stroke-opacity:1; fill:none" points="314.445,1486.45 314.445,47.2441 "/>
<polyline clip-path="url(#clip700)" style="stroke:#000000; stroke-linecap:round; stroke-linejoin:round; stroke-width:4; stroke-opacity:1; fill:none" points="314.445,1402.22 333.342,1402.22 "/>
<polyline clip-path="url(#clip700)" style="stroke:#000000; stroke-linecap:round; stroke-linejoin:round; stroke-width:4; stroke-opacity:1; fill:none" points="314.445,1197.19 333.342,1197.19 "/>
<polyline clip-path="url(#clip700)" style="stroke:#000000; stroke-linecap:round; stroke-linejoin:round; stroke-width:4; stroke-opacity:1; fill:none" points="314.445,992.161 333.342,992.161 "/>
<polyline clip-path="url(#clip700)" style="stroke:#000000; stroke-linecap:round; stroke-linejoin:round; stroke-width:4; stroke-opacity:1; fill:none" points="314.445,787.13 333.342,787.13 "/>
<polyline clip-path="url(#clip700)" style="stroke:#000000; stroke-linecap:round; stroke-linejoin:round; stroke-width:4; stroke-opacity:1; fill:none" points="314.445,582.1 333.342,582.1 "/>
<polyline clip-path="url(#clip700)" style="stroke:#000000; stroke-linecap:round; stroke-linejoin:round; stroke-width:4; stroke-opacity:1; fill:none" points="314.445,377.069 333.342,377.069 "/>
<polyline clip-path="url(#clip700)" style="stroke:#000000; stroke-linecap:round; stroke-linejoin:round; stroke-width:4; stroke-opacity:1; fill:none" points="314.445,172.039 333.342,172.039 "/>
<path clip-path="url(#clip700)" d="M50.9921 1409.12 L80.6679 1409.12 L80.6679 1413.06 L50.9921 1413.06 L50.9921 1409.12 Z" fill="#000000" fill-rule="evenodd" fill-opacity="1" /><path clip-path="url(#clip700)" d="M91.5706 1422.01 L99.2095 1422.01 L99.2095 1395.65 L90.8993 1397.31 L90.8993 1393.06 L99.1632 1391.39 L103.839 1391.39 L103.839 1422.01 L111.478 1422.01 L111.478 1425.95 L91.5706 1425.95 L91.5706 1422.01 Z" fill="#000000" fill-rule="evenodd" fill-opacity="1" /><path clip-path="url(#clip700)" d="M120.922 1420.07 L125.807 1420.07 L125.807 1425.95 L120.922 1425.95 L120.922 1420.07 Z" fill="#000000" fill-rule="evenodd" fill-opacity="1" /><path clip-path="url(#clip700)" d="M145.992 1394.47 Q142.381 1394.47 140.552 1398.03 Q138.746 1401.57 138.746 1408.7 Q138.746 1415.81 140.552 1419.37 Q142.381 1422.92 145.992 1422.92 Q149.626 1422.92 151.431 1419.37 Q153.26 1415.81 153.26 1408.7 Q153.26 1401.57 151.431 1398.03 Q149.626 1394.47 145.992 1394.47 M145.992 1390.76 Q151.802 1390.76 154.857 1395.37 Q157.936 1399.95 157.936 1408.7 Q157.936 1417.43 154.857 1422.04 Q151.802 1426.62 145.992 1426.62 Q140.181 1426.62 137.103 1422.04 Q134.047 1417.43 134.047 1408.7 Q134.047 1399.95 137.103 1395.37 Q140.181 1390.76 145.992 1390.76 Z" fill="#000000" fill-rule="evenodd" fill-opacity="1" /><path clip-path="url(#clip700)" d="M194.325 1400.49 L183.746 1411.11 L194.325 1421.69 L191.57 1424.49 L180.945 1413.87 L170.32 1424.49 L167.589 1421.69 L178.144 1411.11 L167.589 1400.49 L170.32 1397.69 L180.945 1408.31 L191.57 1397.69 L194.325 1400.49 Z" fill="#000000" fill-rule="evenodd" fill-opacity="1" /><path clip-path="url(#clip700)" d="M206.686 1422.01 L214.325 1422.01 L214.325 1395.65 L206.014 1397.31 L206.014 1393.06 L214.278 1391.39 L218.954 1391.39 L218.954 1422.01 L226.593 1422.01 L226.593 1425.95 L206.686 1425.95 L206.686 1422.01 Z" fill="#000000" fill-rule="evenodd" fill-opacity="1" /><path clip-path="url(#clip700)" d="M246.037 1394.47 Q242.426 1394.47 240.598 1398.03 Q238.792 1401.57 238.792 1408.7 Q238.792 1415.81 240.598 1419.37 Q242.426 1422.92 246.037 1422.92 Q249.672 1422.92 251.477 1419.37 Q253.306 1415.81 253.306 1408.7 Q253.306 1401.57 251.477 1398.03 Q249.672 1394.47 246.037 1394.47 M246.037 1390.76 Q251.848 1390.76 254.903 1395.37 Q257.982 1399.95 257.982 1408.7 Q257.982 1417.43 254.903 1422.04 Q251.848 1426.62 246.037 1426.62 Q240.227 1426.62 237.149 1422.04 Q234.093 1417.43 234.093 1408.7 Q234.093 1399.95 237.149 1395.37 Q240.227 1390.76 246.037 1390.76 Z" fill="#000000" fill-rule="evenodd" fill-opacity="1" /><path clip-path="url(#clip700)" d="M270.658 1373.77 L261.066 1388.76 L270.658 1388.76 L270.658 1373.77 M269.661 1370.46 L274.439 1370.46 L274.439 1388.76 L278.445 1388.76 L278.445 1391.92 L274.439 1391.92 L274.439 1398.54 L270.658 1398.54 L270.658 1391.92 L257.982 1391.92 L257.982 1388.25 L269.661 1370.46 Z" fill="#000000" fill-rule="evenodd" fill-opacity="1" /><path clip-path="url(#clip700)" d="M266.5 1182.99 Q262.889 1182.99 261.06 1186.55 Q259.255 1190.1 259.255 1197.23 Q259.255 1204.33 261.06 1207.9 Q262.889 1211.44 266.5 1211.44 Q270.134 1211.44 271.94 1207.9 Q273.769 1204.33 273.769 1197.23 Q273.769 1190.1 271.94 1186.55 Q270.134 1182.99 266.5 1182.99 M266.5 1179.29 Q272.31 1179.29 275.366 1183.89 Q278.445 1188.48 278.445 1197.23 Q278.445 1205.95 275.366 1210.56 Q272.31 1215.14 266.5 1215.14 Q260.69 1215.14 257.611 1210.56 Q254.556 1205.95 254.556 1197.23 Q254.556 1188.48 257.611 1183.89 Q260.69 1179.29 266.5 1179.29 Z" fill="#000000" fill-rule="evenodd" fill-opacity="1" /><path clip-path="url(#clip700)" d="M91.5706 1011.95 L99.2095 1011.95 L99.2095 985.587 L90.8993 987.254 L90.8993 982.995 L99.1632 981.328 L103.839 981.328 L103.839 1011.95 L111.478 1011.95 L111.478 1015.89 L91.5706 1015.89 L91.5706 1011.95 Z" fill="#000000" fill-rule="evenodd" fill-opacity="1" /><path clip-path="url(#clip700)" d="M120.922 1010.01 L125.807 1010.01 L125.807 1015.89 L120.922 1015.89 L120.922 1010.01 Z" fill="#000000" fill-rule="evenodd" fill-opacity="1" /><path clip-path="url(#clip700)" d="M145.992 984.407 Q142.381 984.407 140.552 987.972 Q138.746 991.513 138.746 998.643 Q138.746 1005.75 140.552 1009.31 Q142.381 1012.86 145.992 1012.86 Q149.626 1012.86 151.431 1009.31 Q153.26 1005.75 153.26 998.643 Q153.26 991.513 151.431 987.972 Q149.626 984.407 145.992 984.407 M145.992 980.703 Q151.802 980.703 154.857 985.31 Q157.936 989.893 157.936 998.643 Q157.936 1007.37 154.857 1011.98 Q151.802 1016.56 145.992 1016.56 Q140.181 1016.56 137.103 1011.98 Q134.047 1007.37 134.047 998.643 Q134.047 989.893 137.103 985.31 Q140.181 980.703 145.992 980.703 Z" fill="#000000" fill-rule="evenodd" fill-opacity="1" /><path clip-path="url(#clip700)" d="M194.325 990.425 L183.746 1001.05 L194.325 1011.63 L191.57 1014.43 L180.945 1003.8 L170.32 1014.43 L167.589 1011.63 L178.144 1001.05 L167.589 990.425 L170.32 987.624 L180.945 998.249 L191.57 987.624 L194.325 990.425 Z" fill="#000000" fill-rule="evenodd" fill-opacity="1" /><path clip-path="url(#clip700)" d="M206.686 1011.95 L214.325 1011.95 L214.325 985.587 L206.014 987.254 L206.014 982.995 L214.278 981.328 L218.954 981.328 L218.954 1011.95 L226.593 1011.95 L226.593 1015.89 L206.686 1015.89 L206.686 1011.95 Z" fill="#000000" fill-rule="evenodd" fill-opacity="1" /><path clip-path="url(#clip700)" d="M246.037 984.407 Q242.426 984.407 240.598 987.972 Q238.792 991.513 238.792 998.643 Q238.792 1005.75 240.598 1009.31 Q242.426 1012.86 246.037 1012.86 Q249.672 1012.86 251.477 1009.31 Q253.306 1005.75 253.306 998.643 Q253.306 991.513 251.477 987.972 Q249.672 984.407 246.037 984.407 M246.037 980.703 Q251.848 980.703 254.903 985.31 Q257.982 989.893 257.982 998.643 Q257.982 1007.37 254.903 1011.98 Q251.848 1016.56 246.037 1016.56 Q240.227 1016.56 237.149 1011.98 Q234.093 1007.37 234.093 998.643 Q234.093 989.893 237.149 985.31 Q240.227 980.703 246.037 980.703 Z" fill="#000000" fill-rule="evenodd" fill-opacity="1" /><path clip-path="url(#clip700)" d="M270.658 963.708 L261.066 978.698 L270.658 978.698 L270.658 963.708 M269.661 960.398 L274.439 960.398 L274.439 978.698 L278.445 978.698 L278.445 981.857 L274.439 981.857 L274.439 988.478 L270.658 988.478 L270.658 981.857 L257.982 981.857 L257.982 978.19 L269.661 960.398 Z" fill="#000000" fill-rule="evenodd" fill-opacity="1" /><path clip-path="url(#clip700)" d="M94.7882 806.923 L111.108 806.923 L111.108 810.858 L89.1632 810.858 L89.1632 806.923 Q91.8252 804.168 96.4085 799.538 Q101.015 794.886 102.196 793.543 Q104.441 791.02 105.321 789.284 Q106.223 787.524 106.223 785.835 Q106.223 783.08 104.279 781.344 Q102.358 779.608 99.2558 779.608 Q97.0567 779.608 94.603 780.372 Q92.1725 781.136 89.3947 782.687 L89.3947 777.964 Q92.2188 776.83 94.6724 776.251 Q97.1261 775.673 99.1632 775.673 Q104.534 775.673 107.728 778.358 Q110.922 781.043 110.922 785.534 Q110.922 787.663 110.112 789.585 Q109.325 791.483 107.219 794.075 Q106.64 794.747 103.538 797.964 Q100.436 801.159 94.7882 806.923 Z" fill="#000000" fill-rule="evenodd" fill-opacity="1" /><path clip-path="url(#clip700)" d="M120.922 804.978 L125.807 804.978 L125.807 810.858 L120.922 810.858 L120.922 804.978 Z" fill="#000000" fill-rule="evenodd" fill-opacity="1" /><path clip-path="url(#clip700)" d="M145.992 779.376 Q142.381 779.376 140.552 782.941 Q138.746 786.483 138.746 793.612 Q138.746 800.719 140.552 804.284 Q142.381 807.825 145.992 807.825 Q149.626 807.825 151.431 804.284 Q153.26 800.719 153.26 793.612 Q153.26 786.483 151.431 782.941 Q149.626 779.376 145.992 779.376 M145.992 775.673 Q151.802 775.673 154.857 780.279 Q157.936 784.862 157.936 793.612 Q157.936 802.339 154.857 806.946 Q151.802 811.529 145.992 811.529 Q140.181 811.529 137.103 806.946 Q134.047 802.339 134.047 793.612 Q134.047 784.862 137.103 780.279 Q140.181 775.673 145.992 775.673 Z" fill="#000000" fill-rule="evenodd" fill-opacity="1" /><path clip-path="url(#clip700)" d="M194.325 785.395 L183.746 796.02 L194.325 806.598 L191.57 809.399 L180.945 798.774 L170.32 809.399 L167.589 806.598 L178.144 796.02 L167.589 785.395 L170.32 782.594 L180.945 793.219 L191.57 782.594 L194.325 785.395 Z" fill="#000000" fill-rule="evenodd" fill-opacity="1" /><path clip-path="url(#clip700)" d="M206.686 806.923 L214.325 806.923 L214.325 780.557 L206.014 782.224 L206.014 777.964 L214.278 776.298 L218.954 776.298 L218.954 806.923 L226.593 806.923 L226.593 810.858 L206.686 810.858 L206.686 806.923 Z" fill="#000000" fill-rule="evenodd" fill-opacity="1" /><path clip-path="url(#clip700)" d="M246.037 779.376 Q242.426 779.376 240.598 782.941 Q238.792 786.483 238.792 793.612 Q238.792 800.719 240.598 804.284 Q242.426 807.825 246.037 807.825 Q249.672 807.825 251.477 804.284 Q253.306 800.719 253.306 793.612 Q253.306 786.483 251.477 782.941 Q249.672 779.376 246.037 779.376 M246.037 775.673 Q251.848 775.673 254.903 780.279 Q257.982 784.862 257.982 793.612 Q257.982 802.339 254.903 806.946 Q251.848 811.529 246.037 811.529 Q240.227 811.529 237.149 806.946 Q234.093 802.339 234.093 793.612 Q234.093 784.862 237.149 780.279 Q240.227 775.673 246.037 775.673 Z" fill="#000000" fill-rule="evenodd" fill-opacity="1" /><path clip-path="url(#clip700)" d="M270.658 758.677 L261.066 773.667 L270.658 773.667 L270.658 758.677 M269.661 755.367 L274.439 755.367 L274.439 773.667 L278.445 773.667 L278.445 776.827 L274.439 776.827 L274.439 783.447 L270.658 783.447 L270.658 776.827 L257.982 776.827 L257.982 773.159 L269.661 755.367 Z" fill="#000000" fill-rule="evenodd" fill-opacity="1" /><path clip-path="url(#clip700)" d="M104.927 587.193 Q108.283 587.911 110.158 590.179 Q112.057 592.448 112.057 595.781 Q112.057 600.897 108.538 603.698 Q105.02 606.499 98.5382 606.499 Q96.3623 606.499 94.0475 606.059 Q91.7558 605.642 89.3021 604.786 L89.3021 600.272 Q91.2465 601.406 93.5613 601.985 Q95.8761 602.563 98.3993 602.563 Q102.797 602.563 105.089 600.827 Q107.404 599.091 107.404 595.781 Q107.404 592.725 105.251 591.013 Q103.121 589.276 99.3021 589.276 L95.2743 589.276 L95.2743 585.434 L99.4872 585.434 Q102.936 585.434 104.765 584.068 Q106.594 582.679 106.594 580.087 Q106.594 577.425 104.696 576.013 Q102.821 574.577 99.3021 574.577 Q97.3808 574.577 95.1817 574.994 Q92.9826 575.411 90.3438 576.29 L90.3438 572.124 Q93.0058 571.383 95.3206 571.013 Q97.6585 570.642 99.7187 570.642 Q105.043 570.642 108.145 573.073 Q111.246 575.48 111.246 579.601 Q111.246 582.471 109.603 584.462 Q107.959 586.429 104.927 587.193 Z" fill="#000000" fill-rule="evenodd" fill-opacity="1" /><path clip-path="url(#clip700)" d="M120.922 599.948 L125.807 599.948 L125.807 605.827 L120.922 605.827 L120.922 599.948 Z" fill="#000000" fill-rule="evenodd" fill-opacity="1" /><path clip-path="url(#clip700)" d="M145.992 574.346 Q142.381 574.346 140.552 577.911 Q138.746 581.452 138.746 588.582 Q138.746 595.688 140.552 599.253 Q142.381 602.795 145.992 602.795 Q149.626 602.795 151.431 599.253 Q153.26 595.688 153.26 588.582 Q153.26 581.452 151.431 577.911 Q149.626 574.346 145.992 574.346 M145.992 570.642 Q151.802 570.642 154.857 575.249 Q157.936 579.832 157.936 588.582 Q157.936 597.309 154.857 601.915 Q151.802 606.499 145.992 606.499 Q140.181 606.499 137.103 601.915 Q134.047 597.309 134.047 588.582 Q134.047 579.832 137.103 575.249 Q140.181 570.642 145.992 570.642 Z" fill="#000000" fill-rule="evenodd" fill-opacity="1" /><path clip-path="url(#clip700)" d="M194.325 580.364 L183.746 590.989 L194.325 601.568 L191.57 604.369 L180.945 593.744 L170.32 604.369 L167.589 601.568 L178.144 590.989 L167.589 580.364 L170.32 577.564 L180.945 588.188 L191.57 577.564 L194.325 580.364 Z" fill="#000000" fill-rule="evenodd" fill-opacity="1" /><path clip-path="url(#clip700)" d="M206.686 601.892 L214.325 601.892 L214.325 575.526 L206.014 577.193 L206.014 572.934 L214.278 571.267 L218.954 571.267 L218.954 601.892 L226.593 601.892 L226.593 605.827 L206.686 605.827 L206.686 601.892 Z" fill="#000000" fill-rule="evenodd" fill-opacity="1" /><path clip-path="url(#clip700)" d="M246.037 574.346 Q242.426 574.346 240.598 577.911 Q238.792 581.452 238.792 588.582 Q238.792 595.688 240.598 599.253 Q242.426 602.795 246.037 602.795 Q249.672 602.795 251.477 599.253 Q253.306 595.688 253.306 588.582 Q253.306 581.452 251.477 577.911 Q249.672 574.346 246.037 574.346 M246.037 570.642 Q251.848 570.642 254.903 575.249 Q257.982 579.832 257.982 588.582 Q257.982 597.309 254.903 601.915 Q251.848 606.499 246.037 606.499 Q240.227 606.499 237.149 601.915 Q234.093 597.309 234.093 588.582 Q234.093 579.832 237.149 575.249 Q240.227 570.642 246.037 570.642 Z" fill="#000000" fill-rule="evenodd" fill-opacity="1" /><path clip-path="url(#clip700)" d="M270.658 553.647 L261.066 568.637 L270.658 568.637 L270.658 553.647 M269.661 550.337 L274.439 550.337 L274.439 568.637 L278.445 568.637 L278.445 571.797 L274.439 571.797 L274.439 578.417 L270.658 578.417 L270.658 571.797 L257.982 571.797 L257.982 568.129 L269.661 550.337 Z" fill="#000000" fill-rule="evenodd" fill-opacity="1" /><path clip-path="url(#clip700)" d="M103.608 370.311 L91.8021 388.76 L103.608 388.76 L103.608 370.311 M102.381 366.237 L108.26 366.237 L108.26 388.76 L113.191 388.76 L113.191 392.649 L108.26 392.649 L108.26 400.797 L103.608 400.797 L103.608 392.649 L88.0058 392.649 L88.0058 388.135 L102.381 366.237 Z" fill="#000000" fill-rule="evenodd" fill-opacity="1" /><path clip-path="url(#clip700)" d="M120.922 394.917 L125.807 394.917 L125.807 400.797 L120.922 400.797 L120.922 394.917 Z" fill="#000000" fill-rule="evenodd" fill-opacity="1" /><path clip-path="url(#clip700)" d="M145.992 369.315 Q142.381 369.315 140.552 372.88 Q138.746 376.422 138.746 383.552 Q138.746 390.658 140.552 394.223 Q142.381 397.764 145.992 397.764 Q149.626 397.764 151.431 394.223 Q153.26 390.658 153.26 383.552 Q153.26 376.422 151.431 372.88 Q149.626 369.315 145.992 369.315 M145.992 365.612 Q151.802 365.612 154.857 370.218 Q157.936 374.802 157.936 383.552 Q157.936 392.278 154.857 396.885 Q151.802 401.468 145.992 401.468 Q140.181 401.468 137.103 396.885 Q134.047 392.278 134.047 383.552 Q134.047 374.802 137.103 370.218 Q140.181 365.612 145.992 365.612 Z" fill="#000000" fill-rule="evenodd" fill-opacity="1" /><path clip-path="url(#clip700)" d="M194.325 375.334 L183.746 385.959 L194.325 396.538 L191.57 399.338 L180.945 388.714 L170.32 399.338 L167.589 396.538 L178.144 385.959 L167.589 375.334 L170.32 372.533 L180.945 383.158 L191.57 372.533 L194.325 375.334 Z" fill="#000000" fill-rule="evenodd" fill-opacity="1" /><path clip-path="url(#clip700)" d="M206.686 396.862 L214.325 396.862 L214.325 370.496 L206.014 372.163 L206.014 367.903 L214.278 366.237 L218.954 366.237 L218.954 396.862 L226.593 396.862 L226.593 400.797 L206.686 400.797 L206.686 396.862 Z" fill="#000000" fill-rule="evenodd" fill-opacity="1" /><path clip-path="url(#clip700)" d="M246.037 369.315 Q242.426 369.315 240.598 372.88 Q238.792 376.422 238.792 383.552 Q238.792 390.658 240.598 394.223 Q242.426 397.764 246.037 397.764 Q249.672 397.764 251.477 394.223 Q253.306 390.658 253.306 383.552 Q253.306 376.422 251.477 372.88 Q249.672 369.315 246.037 369.315 M246.037 365.612 Q251.848 365.612 254.903 370.218 Q257.982 374.802 257.982 383.552 Q257.982 392.278 254.903 396.885 Q251.848 401.468 246.037 401.468 Q240.227 401.468 237.149 396.885 Q234.093 392.278 234.093 383.552 Q234.093 374.802 237.149 370.218 Q240.227 365.612 246.037 365.612 Z" fill="#000000" fill-rule="evenodd" fill-opacity="1" /><path clip-path="url(#clip700)" d="M270.658 348.617 L261.066 363.606 L270.658 363.606 L270.658 348.617 M269.661 345.306 L274.439 345.306 L274.439 363.606 L278.445 363.606 L278.445 366.766 L274.439 366.766 L274.439 373.386 L270.658 373.386 L270.658 366.766 L257.982 366.766 L257.982 363.099 L269.661 345.306 Z" fill="#000000" fill-rule="evenodd" fill-opacity="1" /><path clip-path="url(#clip700)" d="M90.8067 161.206 L109.163 161.206 L109.163 165.142 L95.0891 165.142 L95.0891 173.614 Q96.1076 173.266 97.1261 173.104 Q98.1447 172.919 99.1632 172.919 Q104.95 172.919 108.33 176.091 Q111.709 179.262 111.709 184.678 Q111.709 190.257 108.237 193.359 Q104.765 196.438 98.4456 196.438 Q96.2697 196.438 94.0012 196.067 Q91.7558 195.697 89.3484 194.956 L89.3484 190.257 Q91.4317 191.391 93.6539 191.947 Q95.8761 192.502 98.353 192.502 Q102.358 192.502 104.696 190.396 Q107.033 188.29 107.033 184.678 Q107.033 181.067 104.696 178.961 Q102.358 176.854 98.353 176.854 Q96.478 176.854 94.603 177.271 Q92.7512 177.688 90.8067 178.567 L90.8067 161.206 Z" fill="#000000" fill-rule="evenodd" fill-opacity="1" /><path clip-path="url(#clip700)" d="M120.922 189.887 L125.807 189.887 L125.807 195.766 L120.922 195.766 L120.922 189.887 Z" fill="#000000" fill-rule="evenodd" fill-opacity="1" /><path clip-path="url(#clip700)" d="M145.992 164.285 Q142.381 164.285 140.552 167.85 Q138.746 171.391 138.746 178.521 Q138.746 185.628 140.552 189.192 Q142.381 192.734 145.992 192.734 Q149.626 192.734 151.431 189.192 Q153.26 185.628 153.26 178.521 Q153.26 171.391 151.431 167.85 Q149.626 164.285 145.992 164.285 M145.992 160.581 Q151.802 160.581 154.857 165.188 Q157.936 169.771 157.936 178.521 Q157.936 187.248 154.857 191.854 Q151.802 196.438 145.992 196.438 Q140.181 196.438 137.103 191.854 Q134.047 187.248 134.047 178.521 Q134.047 169.771 137.103 165.188 Q140.181 160.581 145.992 160.581 Z" fill="#000000" fill-rule="evenodd" fill-opacity="1" /><path clip-path="url(#clip700)" d="M194.325 170.304 L183.746 180.928 L194.325 191.507 L191.57 194.308 L180.945 183.683 L170.32 194.308 L167.589 191.507 L178.144 180.928 L167.589 170.304 L170.32 167.503 L180.945 178.128 L191.57 167.503 L194.325 170.304 Z" fill="#000000" fill-rule="evenodd" fill-opacity="1" /><path clip-path="url(#clip700)" d="M206.686 191.831 L214.325 191.831 L214.325 165.466 L206.014 167.132 L206.014 162.873 L214.278 161.206 L218.954 161.206 L218.954 191.831 L226.593 191.831 L226.593 195.766 L206.686 195.766 L206.686 191.831 Z" fill="#000000" fill-rule="evenodd" fill-opacity="1" /><path clip-path="url(#clip700)" d="M246.037 164.285 Q242.426 164.285 240.598 167.85 Q238.792 171.391 238.792 178.521 Q238.792 185.628 240.598 189.192 Q242.426 192.734 246.037 192.734 Q249.672 192.734 251.477 189.192 Q253.306 185.628 253.306 178.521 Q253.306 171.391 251.477 167.85 Q249.672 164.285 246.037 164.285 M246.037 160.581 Q251.848 160.581 254.903 165.188 Q257.982 169.771 257.982 178.521 Q257.982 187.248 254.903 191.854 Q251.848 196.438 246.037 196.438 Q240.227 196.438 237.149 191.854 Q234.093 187.248 234.093 178.521 Q234.093 169.771 237.149 165.188 Q240.227 160.581 246.037 160.581 Z" fill="#000000" fill-rule="evenodd" fill-opacity="1" /><path clip-path="url(#clip700)" d="M270.658 143.586 L261.066 158.576 L270.658 158.576 L270.658 143.586 M269.661 140.276 L274.439 140.276 L274.439 158.576 L278.445 158.576 L278.445 161.736 L274.439 161.736 L274.439 168.356 L270.658 168.356 L270.658 161.736 L257.982 161.736 L257.982 158.068 L269.661 140.276 Z" fill="#000000" fill-rule="evenodd" fill-opacity="1" /><polyline clip-path="url(#clip702)" style="stroke:#009af9; stroke-linecap:round; stroke-linejoin:round; stroke-width:4; stroke-opacity:1; fill:none" points="372.133,87.9763 375.979,94.047 379.824,100.077 383.67,106.067 387.516,112.017 391.362,117.926 395.208,123.797 399.054,129.628 402.9,135.42 406.745,141.173 410.591,146.888 414.437,152.564 418.283,158.203 422.129,163.803 425.975,169.366 429.821,174.892 433.667,180.381 437.512,185.834 441.358,191.249 445.204,196.629 449.05,201.972 452.896,207.28 456.742,212.552 460.588,217.789 464.434,222.991 468.279,228.157 472.125,233.29 475.971,238.388 479.817,243.451 483.663,248.481 487.509,253.477 491.355,258.44 495.201,263.37 499.046,268.266 502.892,273.13 506.738,277.961 510.584,282.759 514.43,287.526 518.276,292.26 522.122,296.963 525.967,301.634 529.813,306.274 533.659,310.883 537.505,315.461 541.351,320.009 545.197,324.525 549.043,329.012 552.889,333.468 556.734,337.895 560.58,342.292 564.426,346.659 568.272,350.998 572.118,355.307 575.964,359.587 579.81,363.838 583.656,368.061 587.501,372.256 591.347,376.422 595.193,380.561 599.039,384.672 602.885,388.755 606.731,392.811 610.577,396.839 614.422,400.841 618.268,404.816 622.114,408.764 625.96,412.685 629.806,416.58 633.652,420.449 637.498,424.293 641.344,428.11 645.189,431.902 649.035,435.668 652.881,439.409 656.727,443.125 660.573,446.816 664.419,450.482 668.265,454.123 672.111,457.74 675.956,461.333 679.802,464.902 683.648,468.446 687.494,471.967 691.34,475.465 695.186,478.938 699.032,482.389 702.878,485.816 706.723,489.22 710.569,492.601 714.415,495.96 718.261,499.296 722.107,502.61 725.953,505.901 729.799,509.17 733.644,512.417 737.49,515.643 741.336,518.846 745.182,522.029 749.028,525.189 752.874,528.329 756.72,531.447 760.566,534.545 764.411,537.621 768.257,540.677 772.103,543.713 775.949,546.728 779.795,549.722 783.641,552.697 787.487,555.651 791.333,558.586 795.178,561.501 799.024,564.396 802.87,567.272 806.716,570.128 810.562,572.966 814.408,575.784 818.254,578.583 822.099,581.363 825.945,584.125 829.791,586.868 833.637,589.592 837.483,592.298 841.329,594.986 845.175,597.656 849.021,600.308 852.866,602.942 856.712,605.558 860.558,608.156 864.404,610.737 868.25,613.301 872.096,615.847 875.942,618.377 879.788,620.889 883.633,623.384 887.479,625.862 891.325,628.324 895.171,630.769 899.017,633.198 902.863,635.61 906.709,638.006 910.555,640.386 914.4,642.75 918.246,645.097 922.092,647.429 925.938,649.746 929.784,652.046 933.63,654.331 937.476,656.601 941.321,658.855 945.167,661.094 949.013,663.318 952.859,665.527 956.705,667.721 960.551,669.9 964.397,672.065 968.243,674.215 972.088,676.35 975.934,678.471 979.78,680.577 983.626,682.67 987.472,684.748 991.318,686.812 995.164,688.862 999.01,690.899 1002.86,692.921 1006.7,694.93 1010.55,696.925 1014.39,698.907 1018.24,700.876 1022.08,702.831 1025.93,704.772 1029.78,706.701 1033.62,708.617 1037.47,710.52 1041.31,712.409 1045.16,714.286 1049.01,716.151 1052.85,718.002 1056.7,719.841 1060.54,721.668 1064.39,723.482 1068.24,725.284 1072.08,727.074 1075.93,728.852 1079.77,730.617 1083.62,732.371 1087.46,734.113 1091.31,735.843 1095.16,737.561 1099,739.268 1102.85,740.962 1106.69,742.646 1110.54,744.318 1114.39,745.979 1118.23,747.628 1122.08,749.266 1125.92,750.894 1129.77,752.51 1133.61,754.115 1137.46,755.709 1141.31,757.292 1145.15,758.865 1149,760.427 1152.84,761.978 1156.69,763.519 1160.54,765.049 1164.38,766.569 1168.23,768.079 1172.07,769.578 1175.92,771.067 1179.77,772.546 1183.61,774.015 1187.46,775.474 1191.3,776.923 1195.15,778.362 1198.99,779.791 1202.84,781.211 1206.69,782.621 1210.53,784.021 1214.38,785.412 1218.22,786.793 1222.07,788.165 1225.92,789.528 1229.76,790.881 1233.61,792.225 1237.45,793.56 1241.3,794.886 1245.15,796.203 1248.99,797.51 1252.84,798.809 1256.68,800.099 1260.53,801.38 1264.37,802.653 1268.22,803.916 1272.07,805.171 1275.91,806.418 1279.76,807.656 1283.6,808.886 1287.45,810.107 1291.3,811.319 1295.14,812.524 1298.99,813.72 1302.83,814.908 1306.68,816.088 1310.53,817.26 1314.37,818.424 1318.22,819.58 1322.06,820.728 1325.91,821.868 1329.75,823 1333.6,824.125 1337.45,825.242 1341.29,826.351 1345.14,827.453 1348.98,828.547 1352.83,829.633 1356.68,830.712 1360.52,831.784 1364.37,832.848 1368.21,833.905 1372.06,834.955 1375.9,835.998 1379.75,837.033 1383.6,838.062 1387.44,839.083 1391.29,840.097 1395.13,841.104 1398.98,842.105 1402.83,843.098 1406.67,844.085 1410.52,845.065 1414.36,846.038 1418.21,847.004 1422.06,847.964 1425.9,848.917 1429.75,849.864 1433.59,850.804 1437.44,851.737 1441.28,852.664 1445.13,853.585 1448.98,854.499 1452.82,855.407 1456.67,856.309 1460.51,857.205 1464.36,858.094 1468.21,858.978 1472.05,859.855 1475.9,860.726 1479.74,861.591 1483.59,862.45 1487.44,863.303 1491.28,864.151 1495.13,864.992 1498.97,865.828 1502.82,866.657 1506.66,867.482 1510.51,868.3 1514.36,869.113 1518.2,869.92 1522.05,870.721 1525.89,871.517 1529.74,872.307 1533.59,873.092 1537.43,873.872 1541.28,874.646 1545.12,875.415 1548.97,876.178 1552.81,876.936 1556.66,877.689 1560.51,878.436 1564.35,879.179 1568.2,879.916 1572.04,880.648 1575.89,881.375 1579.74,882.097 1583.58,882.814 1587.43,883.526 1591.27,884.232 1595.12,884.934 1598.97,885.632 1602.81,886.324 1606.66,887.011 1610.5,887.694 1614.35,888.372 1618.19,889.045 1622.04,889.713 1625.89,890.377 1629.73,891.036 1633.58,891.69 1637.42,892.34 1641.27,892.986 1645.12,893.627 1648.96,894.263 1652.81,894.895 1656.65,895.522 1660.5,896.145 1664.35,896.764 1668.19,897.378 1672.04,897.988 1675.88,898.594 1679.73,899.196 1683.57,899.793 1687.42,900.386 1691.27,900.975 1695.11,901.56 1698.96,902.14 1702.8,902.717 1706.65,903.289 1710.5,903.858 1714.34,904.422 1718.19,904.983 1722.03,905.539 1725.88,906.092 1729.72,906.641 1733.57,907.185 1737.42,907.726 1741.26,908.264 1745.11,908.797 1748.95,909.326 1752.8,909.852 1756.65,910.374 1760.49,910.893 1764.34,911.407 1768.18,911.919 1772.03,912.426 1775.88,912.93 1779.72,913.43 1783.57,913.927 1787.41,914.42 1791.26,914.91 1795.1,915.396 1798.95,915.879 1802.8,916.358 1806.64,916.834 1810.49,917.306 1814.33,917.775 1818.18,918.241 1822.03,918.704 1825.87,919.163 1829.72,919.619 1833.56,920.071 1837.41,920.521 1841.26,920.967 1845.1,921.41 1848.95,921.849 1852.79,922.286 1856.64,922.72 1860.48,923.15 1864.33,923.577 1868.18,924.001 1872.02,924.423 1875.87,924.841 1879.71,925.256 1883.56,925.668 1887.41,926.077 1891.25,926.484 1895.1,926.887 1898.94,927.287 1902.79,927.685 1906.63,928.079 1910.48,928.471 1914.33,928.86 1918.17,929.246 1922.02,929.63 1925.86,930.01 1929.71,930.388 1933.56,930.763 1937.4,931.135 1941.25,931.505 1945.09,931.872 1948.94,932.236 1952.79,932.598 1956.63,932.957 1960.48,933.313 1964.32,933.667 1968.17,934.018 1972.01,934.367 1975.86,934.713 1979.71,935.057 1983.55,935.398 1987.4,935.736 1991.24,936.072 1995.09,936.406 1998.94,936.737 2002.78,937.066 2006.63,937.392 2010.47,937.716 2014.32,938.038 2018.17,938.357 2022.01,938.674 2025.86,938.988 2029.7,939.3 2033.55,939.61 2037.39,939.918 2041.24,940.223 2045.09,940.526 2048.93,940.827 2052.78,941.125 2056.62,941.422 2060.47,941.716 2064.32,942.008 2068.16,942.298 2072.01,942.585 2075.85,942.871 2079.7,943.154 2083.54,943.435 2087.39,943.715 2091.24,943.992 2095.08,944.267 2098.93,944.54 2102.77,944.811 2106.62,945.079 2110.47,945.346 2114.31,945.611 2118.16,945.874 2122,946.135 2125.85,946.394 2129.7,946.651 2133.54,946.906 2137.39,947.159 2141.23,947.41 2145.08,947.66 2148.92,947.907 2152.77,948.153 2156.62,948.396 2160.46,948.638 2164.31,948.878 2168.15,949.116 2172,949.353 2175.85,949.587 2179.69,949.82 2183.54,950.051 2187.38,950.28 2191.23,950.508 2195.08,950.733 2198.92,950.957 2202.77,951.18 2206.61,951.4 2210.46,951.619 2214.3,951.836 2218.15,952.052 2222,952.266 2225.84,952.478 2229.69,952.688 2233.53,952.897 2237.38,953.105 2241.23,953.31 2245.07,953.514 2248.92,953.717 2252.76,953.918 2256.61,954.117 2260.46,954.315 2264.3,954.511 2268.15,954.706 2271.99,954.899 2275.84,955.091 2279.68,955.281 2283.53,955.47 2287.38,955.657 2291.22,955.843 2295.07,956.027 "/>
<polyline clip-path="url(#clip702)" style="stroke:#e26f46; stroke-linecap:round; stroke-linejoin:round; stroke-width:4; stroke-opacity:1; fill:none" points="372.133,290.956 375.979,298.816 379.824,306.623 383.67,314.379 387.516,322.083 391.362,329.736 395.208,337.339 399.054,344.891 402.9,352.393 406.745,359.846 410.591,367.249 414.437,374.604 418.283,381.909 422.129,389.167 425.975,396.376 429.821,403.538 433.667,410.652 437.512,417.719 441.358,424.74 445.204,431.714 449.05,438.641 452.896,445.523 456.742,452.36 460.588,459.151 464.434,465.898 468.279,472.599 472.125,479.257 475.971,485.87 479.817,492.44 483.663,498.966 487.509,505.449 491.355,511.889 495.201,518.287 499.046,524.642 502.892,530.956 506.738,537.227 510.584,543.457 514.43,549.646 518.276,555.794 522.122,561.902 525.967,567.969 529.813,573.996 533.659,579.983 537.505,585.931 541.351,591.839 545.197,597.708 549.043,603.539 552.889,609.33 556.734,615.084 560.58,620.8 564.426,626.478 568.272,632.118 572.118,637.721 575.964,643.287 579.81,648.817 583.656,654.31 587.501,659.766 591.347,665.187 595.193,670.572 599.039,675.921 602.885,681.235 606.731,686.514 610.577,691.758 614.422,696.967 618.268,702.142 622.114,707.283 625.96,712.39 629.806,717.463 633.652,722.503 637.498,727.509 641.344,732.483 645.189,737.423 649.035,742.331 652.881,747.207 656.727,752.051 660.573,756.862 664.419,761.642 668.265,766.39 672.111,771.107 675.956,775.793 679.802,780.448 683.648,785.072 687.494,789.666 691.34,794.23 695.186,798.763 699.032,803.267 702.878,807.741 706.723,812.185 710.569,816.6 714.415,820.986 718.261,825.343 722.107,829.671 725.953,833.971 729.799,838.243 733.644,842.486 737.49,846.702 741.336,850.889 745.182,855.05 749.028,859.182 752.874,863.288 756.72,867.366 760.566,871.418 764.411,875.443 768.257,879.441 772.103,883.413 775.949,887.359 779.795,891.279 783.641,895.173 787.487,899.042 791.333,902.885 795.178,906.703 799.024,910.496 802.87,914.263 806.716,918.006 810.562,921.725 814.408,925.419 818.254,929.088 822.099,932.734 825.945,936.355 829.791,939.953 833.637,943.527 837.483,947.077 841.329,950.605 845.175,954.109 849.021,957.59 852.866,961.048 856.712,964.483 860.558,967.896 864.404,971.286 868.25,974.654 872.096,978 875.942,981.324 879.788,984.627 883.633,987.907 887.479,991.166 891.325,994.404 895.171,997.62 899.017,1000.82 902.863,1003.99 906.709,1007.14 910.555,1010.28 914.4,1013.39 918.246,1016.48 922.092,1019.55 925.938,1022.6 929.784,1025.63 933.63,1028.64 937.476,1031.64 941.321,1034.61 945.167,1037.56 949.013,1040.49 952.859,1043.41 956.705,1046.3 960.551,1049.18 964.397,1052.04 968.243,1054.87 972.088,1057.69 975.934,1060.5 979.78,1063.28 983.626,1066.04 987.472,1068.79 991.318,1071.52 995.164,1074.23 999.01,1076.92 1002.86,1079.6 1006.7,1082.25 1010.55,1084.9 1014.39,1087.52 1018.24,1090.12 1022.08,1092.71 1025.93,1095.29 1029.78,1097.84 1033.62,1100.38 1037.47,1102.9 1041.31,1105.41 1045.16,1107.9 1049.01,1110.37 1052.85,1112.82 1056.7,1115.27 1060.54,1117.69 1064.39,1120.1 1068.24,1122.49 1072.08,1124.87 1075.93,1127.23 1079.77,1129.58 1083.62,1131.91 1087.46,1134.22 1091.31,1136.52 1095.16,1138.81 1099,1141.08 1102.85,1143.34 1106.69,1145.58 1110.54,1147.81 1114.39,1150.02 1118.23,1152.22 1122.08,1154.4 1125.92,1156.57 1129.77,1158.72 1133.61,1160.86 1137.46,1162.99 1141.31,1165.1 1145.15,1167.2 1149,1169.29 1152.84,1171.36 1156.69,1173.42 1160.54,1175.46 1164.38,1177.5 1168.23,1179.52 1172.07,1181.52 1175.92,1183.51 1179.77,1185.49 1183.61,1187.46 1187.46,1189.41 1191.3,1191.35 1195.15,1193.28 1198.99,1195.2 1202.84,1197.1 1206.69,1198.99 1210.53,1200.87 1214.38,1202.74 1218.22,1204.59 1222.07,1206.44 1225.92,1208.27 1229.76,1210.09 1233.61,1211.89 1237.45,1213.69 1241.3,1215.47 1245.15,1217.24 1248.99,1219 1252.84,1220.75 1256.68,1222.49 1260.53,1224.22 1264.37,1225.93 1268.22,1227.64 1272.07,1229.33 1275.91,1231.01 1279.76,1232.68 1283.6,1234.34 1287.45,1235.99 1291.3,1237.63 1295.14,1239.26 1298.99,1240.88 1302.83,1242.48 1306.68,1244.08 1310.53,1245.67 1314.37,1247.24 1318.22,1248.81 1322.06,1250.37 1325.91,1251.91 1329.75,1253.45 1333.6,1254.97 1337.45,1256.49 1341.29,1258 1345.14,1259.49 1348.98,1260.98 1352.83,1262.46 1356.68,1263.92 1360.52,1265.38 1364.37,1266.83 1368.21,1268.27 1372.06,1269.7 1375.9,1271.12 1379.75,1272.53 1383.6,1273.94 1387.44,1275.33 1391.29,1276.72 1395.13,1278.09 1398.98,1279.46 1402.83,1280.82 1406.67,1282.17 1410.52,1283.51 1414.36,1284.84 1418.21,1286.16 1422.06,1287.48 1425.9,1288.79 1429.75,1290.08 1433.59,1291.37 1437.44,1292.65 1441.28,1293.93 1445.13,1295.19 1448.98,1296.45 1452.82,1297.7 1456.67,1298.94 1460.51,1300.17 1464.36,1301.4 1468.21,1302.62 1472.05,1303.83 1475.9,1305.03 1479.74,1306.22 1483.59,1307.41 1487.44,1308.59 1491.28,1309.76 1495.13,1310.92 1498.97,1312.08 1502.82,1313.23 1506.66,1314.37 1510.51,1315.5 1514.36,1316.63 1518.2,1317.75 1522.05,1318.86 1525.89,1319.97 1529.74,1321.07 1533.59,1322.16 1537.43,1323.24 1541.28,1324.32 1545.12,1325.39 1548.97,1326.46 1552.81,1327.51 1556.66,1328.56 1560.51,1329.61 1564.35,1330.64 1568.2,1331.67 1572.04,1332.7 1575.89,1333.72 1579.74,1334.73 1583.58,1335.73 1587.43,1336.73 1591.27,1337.72 1595.12,1338.71 1598.97,1339.69 1602.81,1340.66 1606.66,1341.63 1610.5,1342.59 1614.35,1343.54 1618.19,1344.49 1622.04,1345.43 1625.89,1346.37 1629.73,1347.3 1633.58,1348.22 1637.42,1349.14 1641.27,1350.06 1645.12,1350.96 1648.96,1351.87 1652.81,1352.76 1656.65,1353.65 1660.5,1354.54 1664.35,1355.42 1668.19,1356.29 1672.04,1357.16 1675.88,1358.02 1679.73,1358.88 1683.57,1359.73 1687.42,1360.57 1691.27,1361.42 1695.11,1362.25 1698.96,1363.08 1702.8,1363.91 1706.65,1364.73 1710.5,1365.54 1714.34,1366.35 1718.19,1367.16 1722.03,1367.96 1725.88,1368.75 1729.72,1369.54 1733.57,1370.32 1737.42,1371.1 1741.26,1371.88 1745.11,1372.65 1748.95,1373.41 1752.8,1374.17 1756.65,1374.93 1760.49,1375.68 1764.34,1376.43 1768.18,1377.17 1772.03,1377.91 1775.88,1378.64 1779.72,1379.37 1783.57,1380.09 1787.41,1380.81 1791.26,1381.52 1795.1,1382.23 1798.95,1382.94 1802.8,1383.64 1806.64,1384.34 1810.49,1385.03 1814.33,1385.72 1818.18,1386.4 1822.03,1387.08 1825.87,1387.75 1829.72,1388.43 1833.56,1389.09 1837.41,1389.75 1841.26,1390.41 1845.1,1391.07 1848.95,1391.72 1852.79,1392.37 1856.64,1393.01 1860.48,1393.65 1864.33,1394.28 1868.18,1394.91 1872.02,1395.54 1875.87,1396.16 1879.71,1396.78 1883.56,1397.4 1887.41,1398.01 1891.25,1398.61 1895.1,1399.22 1898.94,1399.82 1902.79,1400.42 1906.63,1401.01 1910.48,1401.6 1914.33,1402.18 1918.17,1402.77 1922.02,1403.34 1925.86,1403.92 1929.71,1404.49 1933.56,1405.06 1937.4,1405.62 1941.25,1406.18 1945.09,1406.74 1948.94,1407.3 1952.79,1407.85 1956.63,1408.39 1960.48,1408.94 1964.32,1409.48 1968.17,1410.02 1972.01,1410.55 1975.86,1411.08 1979.71,1411.61 1983.55,1412.13 1987.4,1412.66 1991.24,1413.17 1995.09,1413.69 1998.94,1414.2 2002.78,1414.71 2006.63,1415.22 2010.47,1415.72 2014.32,1416.22 2018.17,1416.71 2022.01,1417.21 2025.86,1417.7 2029.7,1418.19 2033.55,1418.67 2037.39,1419.15 2041.24,1419.63 2045.09,1420.11 2048.93,1420.58 2052.78,1421.05 2056.62,1421.52 2060.47,1421.99 2064.32,1422.45 2068.16,1422.91 2072.01,1423.36 2075.85,1423.82 2079.7,1424.27 2083.54,1424.72 2087.39,1425.16 2091.24,1425.61 2095.08,1426.05 2098.93,1426.48 2102.77,1426.92 2106.62,1427.35 2110.47,1427.78 2114.31,1428.21 2118.16,1428.63 2122,1429.06 2125.85,1429.48 2129.7,1429.89 2133.54,1430.31 2137.39,1430.72 2141.23,1431.13 2145.08,1431.54 2148.92,1431.94 2152.77,1432.35 2156.62,1432.75 2160.46,1433.15 2164.31,1433.54 2168.15,1433.94 2172,1434.33 2175.85,1434.72 2179.69,1435.1 2183.54,1435.49 2187.38,1435.87 2191.23,1436.25 2195.08,1436.63 2198.92,1437 2202.77,1437.38 2206.61,1437.75 2210.46,1438.12 2214.3,1438.48 2218.15,1438.85 2222,1439.21 2225.84,1439.57 2229.69,1439.93 2233.53,1440.28 2237.38,1440.64 2241.23,1440.99 2245.07,1441.34 2248.92,1441.69 2252.76,1442.04 2256.61,1442.38 2260.46,1442.72 2264.3,1443.06 2268.15,1443.4 2271.99,1443.74 2275.84,1444.07 2279.68,1444.4 2283.53,1444.73 2287.38,1445.06 2291.22,1445.39 2295.07,1445.72 "/>
<path clip-path="url(#clip700)" d="M1681.35 250.738 L2284.81 250.738 L2284.81 95.2176 L1681.35 95.2176  Z" fill="#ffffff" fill-rule="evenodd" fill-opacity="1"/>
<polyline clip-path="url(#clip700)" style="stroke:#000000; stroke-linecap:round; stroke-linejoin:round; stroke-width:4; stroke-opacity:1; fill:none" points="1681.35,250.738 2284.81,250.738 2284.81,95.2176 1681.35,95.2176 1681.35,250.738 "/>
<polyline clip-path="url(#clip700)" style="stroke:#009af9; stroke-linecap:round; stroke-linejoin:round; stroke-width:4; stroke-opacity:1; fill:none" points="1704,147.058 1839.89,147.058 "/>
<path clip-path="url(#clip700)" d="M1878.37 134.384 L1872.03 151.583 L1884.74 151.583 L1878.37 134.384 M1875.73 129.778 L1881.03 129.778 L1894.2 164.338 L1889.34 164.338 L1886.19 155.472 L1870.62 155.472 L1867.47 164.338 L1862.54 164.338 L1875.73 129.778 Z" fill="#000000" fill-rule="evenodd" fill-opacity="1" /><path clip-path="url(#clip700)" d="M1903.18 160.449 L1903.18 174.199 L1898.9 174.199 L1898.9 138.412 L1903.18 138.412 L1903.18 142.347 Q1904.53 140.032 1906.56 138.921 Q1908.62 137.787 1911.47 137.787 Q1916.19 137.787 1919.13 141.537 Q1922.1 145.287 1922.1 151.398 Q1922.1 157.509 1919.13 161.259 Q1916.19 165.009 1911.47 165.009 Q1908.62 165.009 1906.56 163.898 Q1904.53 162.763 1903.18 160.449 M1917.68 151.398 Q1917.68 146.699 1915.73 144.037 Q1913.81 141.352 1910.43 141.352 Q1907.05 141.352 1905.11 144.037 Q1903.18 146.699 1903.18 151.398 Q1903.18 156.097 1905.11 158.782 Q1907.05 161.444 1910.43 161.444 Q1913.81 161.444 1915.73 158.782 Q1917.68 156.097 1917.68 151.398 Z" fill="#000000" fill-rule="evenodd" fill-opacity="1" /><path clip-path="url(#clip700)" d="M1928.99 138.412 L1935.22 138.412 L1942.58 155.773 L1949.97 138.412 L1956.15 138.412 L1956.15 164.338 L1951.87 164.338 L1951.87 142.486 L1944.71 159.361 L1940.45 159.361 L1933.28 142.486 L1933.28 164.338 L1928.99 164.338 L1928.99 138.412 Z" fill="#000000" fill-rule="evenodd" fill-opacity="1" /><path clip-path="url(#clip700)" d="M1986.96 138.412 L1986.96 164.338 L1982.72 164.338 L1982.72 143.527 L1970.22 164.338 L1964.76 164.338 L1964.76 138.412 L1968.99 138.412 L1968.99 159.176 L1981.47 138.412 L1986.96 138.412 Z" fill="#000000" fill-rule="evenodd" fill-opacity="1" /><path clip-path="url(#clip700)" d="M2000.01 145.889 Q2000.01 147.81 2001.49 148.898 Q2002.98 149.986 2005.73 149.986 L2011.47 149.986 L2011.47 141.815 L2005.73 141.815 Q2002.98 141.815 2001.49 142.879 Q2000.01 143.944 2000.01 145.889 M1993.95 164.338 L2001.86 152.972 Q1999.18 152.37 1997.4 150.796 Q1995.61 149.199 1995.61 145.889 Q1995.61 142.139 1998.09 140.287 Q2000.59 138.412 2005.61 138.412 L2015.75 138.412 L2015.75 164.338 L2011.47 164.338 L2011.47 153.389 L2006.17 153.389 L1998.53 164.338 L1993.95 164.338 Z" fill="#000000" fill-rule="evenodd" fill-opacity="1" /><path clip-path="url(#clip700)" d="M2057.98 139.407 L2057.98 143.389 Q2056.17 142.393 2054.34 141.907 Q2052.54 141.398 2050.68 141.398 Q2046.54 141.398 2044.25 144.037 Q2041.96 146.652 2041.96 151.398 Q2041.96 156.143 2044.25 158.782 Q2046.54 161.398 2050.68 161.398 Q2052.54 161.398 2054.34 160.912 Q2056.17 160.402 2057.98 159.407 L2057.98 163.342 Q2056.19 164.176 2054.27 164.592 Q2052.37 165.009 2050.22 165.009 Q2044.36 165.009 2040.92 161.328 Q2037.47 157.648 2037.47 151.398 Q2037.47 145.055 2040.94 141.421 Q2044.43 137.787 2050.5 137.787 Q2052.47 137.787 2054.34 138.203 Q2056.22 138.597 2057.98 139.407 Z" fill="#000000" fill-rule="evenodd" fill-opacity="1" /><path clip-path="url(#clip700)" d="M2062.3 138.412 L2087.14 138.412 L2087.14 141.815 L2076.82 141.815 L2076.82 164.338 L2072.63 164.338 L2072.63 141.815 L2062.3 141.815 L2062.3 138.412 Z" fill="#000000" fill-rule="evenodd" fill-opacity="1" /><path clip-path="url(#clip700)" d="M2097.12 160.449 L2097.12 174.199 L2092.84 174.199 L2092.84 138.412 L2097.12 138.412 L2097.12 142.347 Q2098.46 140.032 2100.5 138.921 Q2102.56 137.787 2105.41 137.787 Q2110.13 137.787 2113.07 141.537 Q2116.03 145.287 2116.03 151.398 Q2116.03 157.509 2113.07 161.259 Q2110.13 165.009 2105.41 165.009 Q2102.56 165.009 2100.5 163.898 Q2098.46 162.763 2097.12 160.449 M2111.61 151.398 Q2111.61 146.699 2109.67 144.037 Q2107.74 141.352 2104.36 141.352 Q2100.98 141.352 2099.04 144.037 Q2097.12 146.699 2097.12 151.398 Q2097.12 156.097 2099.04 158.782 Q2100.98 161.444 2104.36 161.444 Q2107.74 161.444 2109.67 158.782 Q2111.61 156.097 2111.61 151.398 Z" fill="#000000" fill-rule="evenodd" fill-opacity="1" /><path clip-path="url(#clip700)" d="M2134.87 151.305 Q2129.71 151.305 2127.72 152.486 Q2125.73 153.666 2125.73 156.514 Q2125.73 158.782 2127.21 160.125 Q2128.72 161.444 2131.29 161.444 Q2134.83 161.444 2136.96 158.944 Q2139.11 156.421 2139.11 152.254 L2139.11 151.305 L2134.87 151.305 M2143.37 149.546 L2143.37 164.338 L2139.11 164.338 L2139.11 160.402 Q2137.65 162.763 2135.48 163.898 Q2133.3 165.009 2130.15 165.009 Q2126.17 165.009 2123.81 162.787 Q2121.47 160.541 2121.47 156.791 Q2121.47 152.416 2124.39 150.194 Q2127.33 147.972 2133.14 147.972 L2139.11 147.972 L2139.11 147.555 Q2139.11 144.615 2137.16 143.018 Q2135.24 141.398 2131.75 141.398 Q2129.53 141.398 2127.42 141.93 Q2125.31 142.463 2123.37 143.527 L2123.37 139.592 Q2125.71 138.69 2127.91 138.25 Q2130.1 137.787 2132.19 137.787 Q2137.81 137.787 2140.59 140.703 Q2143.37 143.62 2143.37 149.546 Z" fill="#000000" fill-rule="evenodd" fill-opacity="1" /><path clip-path="url(#clip700)" d="M2151.98 138.412 L2156.26 138.412 L2156.26 148.99 L2170.08 148.99 L2170.08 138.412 L2174.36 138.412 L2174.36 164.338 L2170.08 164.338 L2170.08 152.393 L2156.26 152.393 L2156.26 164.338 L2151.98 164.338 L2151.98 138.412 Z" fill="#000000" fill-rule="evenodd" fill-opacity="1" /><path clip-path="url(#clip700)" d="M2207.63 138.412 L2211.89 138.412 L2211.89 164.338 L2207.63 164.338 L2207.63 138.412 M2209.76 137.787 L2209.76 137.787 M2199.27 156.652 Q2199.27 154.569 2197.74 153.481 Q2196.24 152.393 2193.32 152.393 L2187.26 152.393 L2187.26 160.935 L2193.32 160.935 Q2196.24 160.935 2197.74 159.847 Q2199.27 158.736 2199.27 156.652 M2182.97 138.412 L2187.26 138.412 L2187.26 148.99 L2193.51 148.99 Q2198.46 148.99 2201.12 150.889 Q2203.81 152.764 2203.81 156.652 Q2203.81 160.541 2201.12 162.439 Q2198.46 164.338 2193.51 164.338 L2182.97 164.338 L2182.97 138.412 Z" fill="#000000" fill-rule="evenodd" fill-opacity="1" /><path clip-path="url(#clip700)" d="M2231.08 129.778 L2236.1 129.778 L2245.68 143.99 L2255.2 129.778 L2260.22 129.778 L2248 147.879 L2248 164.338 L2243.3 164.338 L2243.3 147.879 L2231.08 129.778 Z" fill="#000000" fill-rule="evenodd" fill-opacity="1" /><polyline clip-path="url(#clip700)" style="stroke:#e26f46; stroke-linecap:round; stroke-linejoin:round; stroke-width:4; stroke-opacity:1; fill:none" points="1704,198.898 1839.89,198.898 "/>
<path clip-path="url(#clip700)" d="M1878.37 186.224 L1872.03 203.423 L1884.74 203.423 L1878.37 186.224 M1875.73 181.618 L1881.03 181.618 L1894.2 216.178 L1889.34 216.178 L1886.19 207.312 L1870.62 207.312 L1867.47 216.178 L1862.54 216.178 L1875.73 181.618 Z" fill="#000000" fill-rule="evenodd" fill-opacity="1" /><path clip-path="url(#clip700)" d="M1903.18 212.289 L1903.18 226.039 L1898.9 226.039 L1898.9 190.252 L1903.18 190.252 L1903.18 194.187 Q1904.53 191.872 1906.56 190.761 Q1908.62 189.627 1911.47 189.627 Q1916.19 189.627 1919.13 193.377 Q1922.1 197.127 1922.1 203.238 Q1922.1 209.349 1919.13 213.099 Q1916.19 216.849 1911.47 216.849 Q1908.62 216.849 1906.56 215.738 Q1904.53 214.603 1903.18 212.289 M1917.68 203.238 Q1917.68 198.539 1915.73 195.877 Q1913.81 193.192 1910.43 193.192 Q1907.05 193.192 1905.11 195.877 Q1903.18 198.539 1903.18 203.238 Q1903.18 207.937 1905.11 210.622 Q1907.05 213.284 1910.43 213.284 Q1913.81 213.284 1915.73 210.622 Q1917.68 207.937 1917.68 203.238 Z" fill="#000000" fill-rule="evenodd" fill-opacity="1" /><path clip-path="url(#clip700)" d="M1928.99 190.252 L1935.22 190.252 L1942.58 207.613 L1949.97 190.252 L1956.15 190.252 L1956.15 216.178 L1951.87 216.178 L1951.87 194.326 L1944.71 211.201 L1940.45 211.201 L1933.28 194.326 L1933.28 216.178 L1928.99 216.178 L1928.99 190.252 Z" fill="#000000" fill-rule="evenodd" fill-opacity="1" /><path clip-path="url(#clip700)" d="M1986.96 190.252 L1986.96 216.178 L1982.72 216.178 L1982.72 195.367 L1970.22 216.178 L1964.76 216.178 L1964.76 190.252 L1968.99 190.252 L1968.99 211.016 L1981.47 190.252 L1986.96 190.252 Z" fill="#000000" fill-rule="evenodd" fill-opacity="1" /><path clip-path="url(#clip700)" d="M2000.01 197.729 Q2000.01 199.65 2001.49 200.738 Q2002.98 201.826 2005.73 201.826 L2011.47 201.826 L2011.47 193.655 L2005.73 193.655 Q2002.98 193.655 2001.49 194.719 Q2000.01 195.784 2000.01 197.729 M1993.95 216.178 L2001.86 204.812 Q1999.18 204.21 1997.4 202.636 Q1995.61 201.039 1995.61 197.729 Q1995.61 193.979 1998.09 192.127 Q2000.59 190.252 2005.61 190.252 L2015.75 190.252 L2015.75 216.178 L2011.47 216.178 L2011.47 205.229 L2006.17 205.229 L1998.53 216.178 L1993.95 216.178 Z" fill="#000000" fill-rule="evenodd" fill-opacity="1" /><path clip-path="url(#clip700)" d="M2057.98 191.247 L2057.98 195.229 Q2056.17 194.233 2054.34 193.747 Q2052.54 193.238 2050.68 193.238 Q2046.54 193.238 2044.25 195.877 Q2041.96 198.492 2041.96 203.238 Q2041.96 207.983 2044.25 210.622 Q2046.54 213.238 2050.68 213.238 Q2052.54 213.238 2054.34 212.752 Q2056.17 212.242 2057.98 211.247 L2057.98 215.182 Q2056.19 216.016 2054.27 216.432 Q2052.37 216.849 2050.22 216.849 Q2044.36 216.849 2040.92 213.168 Q2037.47 209.488 2037.47 203.238 Q2037.47 196.895 2040.94 193.261 Q2044.43 189.627 2050.5 189.627 Q2052.47 189.627 2054.34 190.043 Q2056.22 190.437 2057.98 191.247 Z" fill="#000000" fill-rule="evenodd" fill-opacity="1" /><path clip-path="url(#clip700)" d="M2062.3 190.252 L2087.14 190.252 L2087.14 193.655 L2076.82 193.655 L2076.82 216.178 L2072.63 216.178 L2072.63 193.655 L2062.3 193.655 L2062.3 190.252 Z" fill="#000000" fill-rule="evenodd" fill-opacity="1" /><path clip-path="url(#clip700)" d="M2097.12 212.289 L2097.12 226.039 L2092.84 226.039 L2092.84 190.252 L2097.12 190.252 L2097.12 194.187 Q2098.46 191.872 2100.5 190.761 Q2102.56 189.627 2105.41 189.627 Q2110.13 189.627 2113.07 193.377 Q2116.03 197.127 2116.03 203.238 Q2116.03 209.349 2113.07 213.099 Q2110.13 216.849 2105.41 216.849 Q2102.56 216.849 2100.5 215.738 Q2098.46 214.603 2097.12 212.289 M2111.61 203.238 Q2111.61 198.539 2109.67 195.877 Q2107.74 193.192 2104.36 193.192 Q2100.98 193.192 2099.04 195.877 Q2097.12 198.539 2097.12 203.238 Q2097.12 207.937 2099.04 210.622 Q2100.98 213.284 2104.36 213.284 Q2107.74 213.284 2109.67 210.622 Q2111.61 207.937 2111.61 203.238 Z" fill="#000000" fill-rule="evenodd" fill-opacity="1" /><path clip-path="url(#clip700)" d="M2134.87 203.145 Q2129.71 203.145 2127.72 204.326 Q2125.73 205.506 2125.73 208.354 Q2125.73 210.622 2127.21 211.965 Q2128.72 213.284 2131.29 213.284 Q2134.83 213.284 2136.96 210.784 Q2139.11 208.261 2139.11 204.094 L2139.11 203.145 L2134.87 203.145 M2143.37 201.386 L2143.37 216.178 L2139.11 216.178 L2139.11 212.242 Q2137.65 214.603 2135.48 215.738 Q2133.3 216.849 2130.15 216.849 Q2126.17 216.849 2123.81 214.627 Q2121.47 212.381 2121.47 208.631 Q2121.47 204.256 2124.39 202.034 Q2127.33 199.812 2133.14 199.812 L2139.11 199.812 L2139.11 199.395 Q2139.11 196.455 2137.16 194.858 Q2135.24 193.238 2131.75 193.238 Q2129.53 193.238 2127.42 193.77 Q2125.31 194.303 2123.37 195.367 L2123.37 191.432 Q2125.71 190.53 2127.91 190.09 Q2130.1 189.627 2132.19 189.627 Q2137.81 189.627 2140.59 192.543 Q2143.37 195.46 2143.37 201.386 Z" fill="#000000" fill-rule="evenodd" fill-opacity="1" /><path clip-path="url(#clip700)" d="M2151.98 190.252 L2156.26 190.252 L2156.26 200.83 L2170.08 200.83 L2170.08 190.252 L2174.36 190.252 L2174.36 216.178 L2170.08 216.178 L2170.08 204.233 L2156.26 204.233 L2156.26 216.178 L2151.98 216.178 L2151.98 190.252 Z" fill="#000000" fill-rule="evenodd" fill-opacity="1" /><path clip-path="url(#clip700)" d="M2207.63 190.252 L2211.89 190.252 L2211.89 216.178 L2207.63 216.178 L2207.63 190.252 M2209.76 189.627 L2209.76 189.627 M2199.27 208.492 Q2199.27 206.409 2197.74 205.321 Q2196.24 204.233 2193.32 204.233 L2187.26 204.233 L2187.26 212.775 L2193.32 212.775 Q2196.24 212.775 2197.74 211.687 Q2199.27 210.576 2199.27 208.492 M2182.97 190.252 L2187.26 190.252 L2187.26 200.83 L2193.51 200.83 Q2198.46 200.83 2201.12 202.729 Q2203.81 204.604 2203.81 208.492 Q2203.81 212.381 2201.12 214.279 Q2198.46 216.178 2193.51 216.178 L2182.97 216.178 L2182.97 190.252 Z" fill="#000000" fill-rule="evenodd" fill-opacity="1" /><path clip-path="url(#clip700)" d="M2234.16 181.618 L2239.18 181.618 L2247.77 194.465 L2256.4 181.618 L2261.42 181.618 L2250.31 198.215 L2262.16 216.178 L2257.14 216.178 L2247.42 201.479 L2237.63 216.178 L2232.58 216.178 L2244.92 197.729 L2234.16 181.618 Z" fill="#000000" fill-rule="evenodd" fill-opacity="1" /></svg>
